<svg xmlns="http://www.w3.org/2000/svg" width="16" height="16" viewBox="0 0 16 16" shape-rendering="crispEdges">
<!-- 小鸡动画：啄食 (整体上下轻微弹跳) -->
<style>
.peck{animation:pk 1.5s ease-in-out infinite}
@keyframes pk{0%,100%{transform:translateY(0)}40%{transform:translateY(0)}45%{transform:translateY(1px)}50%{transform:translateY(0)}55%{transform:translateY(1px)}60%{transform:translateY(0)}}
</style>
<g class="peck">
<path fill="#1a1c2c" d="M6 1h3v1h-3zM5 2h1v1h-1zM9 2h1v1h-1zM4 3h1v1h-1zM10 3h1v1h-1zM4 4h1v1h-1zM10 4h1v1h-1zM3 5h1v1h-1zM10 5h1v1h-1zM3 6h1v1h-1zM11 6h1v1h-1zM3 7h1v1h-1zM11 7h1v1h-1zM4 8h1v1h-1zM10 8h1v1h-1zM4 9h2v1h-2zM8 9h2v1h-2zM5 10h1v1h-1zM9 10h1v1h-1z"/>
<path fill="#f4f4f4" d="M6 2h3v1h-3zM5 3h5v1h-5zM5 4h5v1h-5zM4 5h6v1h-6zM4 6h7v1h-7zM4 7h7v1h-7zM5 8h5v1h-5z"/>
<path fill="#ffcd75" d="M5 3h1v1h-1zM5 4h1v1h-1zM4 5h1v1h-1z"/>
<path fill="#1a1c2c" d="M7 3h1v1h-1z"/>
<path fill="#b13e53" d="M6 1h1v1h-1zM7 1h1v1h-1z"/>
<path fill="#ef7d57" d="M10 5h1v1h-1zM10 6h1v1h-1zM11 5h1v1h-1z"/>
<path fill="#d4a56a" d="M9 7h2v1h-2zM9 8h1v1h-1z"/>
<path fill="#ffcd75" d="M5 9h3v1h-3zM6 10h3v1h-3z"/>
</g>
</svg>