<svg xmlns="http://www.w3.org/2000/svg" viewBox="0 0 32 32" shape-rendering="crispEdges">
<!-- 沙漏动画：沙粒流动 + 框架静止 -->
<style>
.sand-top{animation:drain 4s linear infinite}
.sand-mid{animation:stream 4s step-end infinite}
.sand-bot{animation:fill-up 4s linear infinite}
@keyframes drain{0%{fill:#ffcd75}70%{fill:#ffcd75}100%{fill:#94b0c2}}
@keyframes stream{0%,5%{fill:#94b0c2}5%,95%{fill:#ffcd75}95%,100%{fill:#94b0c2}}
@keyframes fill-up{0%{fill:#94b0c2}30%{fill:#94b0c2}100%{fill:#ffcd75}}
</style>
<!-- 框架（橙色，静止） -->
<path fill="#ef7d57" d="M8,3h1v1h-1zM10,3h1v1h-1zM11,3h1v1h-1zM12,3h1v1h-1zM13,3h1v1h-1zM14,3h1v1h-1zM15,3h1v1h-1zM16,3h1v1h-1zM17,3h1v1h-1zM18,3h1v1h-1zM19,3h1v1h-1zM20,3h1v1h-1zM21,3h1v1h-1zM23,3h1v1h-1zM8,4h1v1h-1zM23,4h1v1h-1zM15,22h1v1h-1zM16,22h1v1h-1zM14,23h1v1h-1zM15,23h1v1h-1zM16,23h1v1h-1zM17,23h1v1h-1zM13,24h1v1h-1zM14,24h1v1h-1zM15,24h1v1h-1zM16,24h1v1h-1zM17,24h1v1h-1zM18,24h1v1h-1zM13,25h1v1h-1zM14,25h1v1h-1zM15,25h1v1h-1zM16,25h1v1h-1zM17,25h1v1h-1zM18,25h1v1h-1zM12,26h1v1h-1zM13,26h1v1h-1zM14,26h1v1h-1zM15,26h1v1h-1zM16,26h1v1h-1zM17,26h1v1h-1zM18,26h1v1h-1zM19,26h1v1h-1zM8,27h1v1h-1zM23,27h1v1h-1zM8,28h1v1h-1zM10,28h1v1h-1zM11,28h1v1h-1zM12,28h1v1h-1zM13,28h1v1h-1zM14,28h1v1h-1zM15,28h1v1h-1zM16,28h1v1h-1zM17,28h1v1h-1zM18,28h1v1h-1zM19,28h1v1h-1zM20,28h1v1h-1zM21,28h1v1h-1zM23,28h1v1h-1z"/>
<!-- 框架（金色） -->
<path fill="#ffcd75" d="M9,3h1v1h-1zM22,3h1v1h-1zM9,4h1v1h-1zM10,4h1v1h-1zM11,4h1v1h-1zM12,4h1v1h-1zM13,4h1v1h-1zM14,4h1v1h-1zM15,4h1v1h-1zM16,4h1v1h-1zM17,4h1v1h-1zM18,4h1v1h-1zM19,4h1v1h-1zM20,4h1v1h-1zM21,4h1v1h-1zM22,4h1v1h-1zM9,27h1v1h-1zM10,27h1v1h-1zM11,27h1v1h-1zM12,27h1v1h-1zM13,27h1v1h-1zM14,27h1v1h-1zM15,27h1v1h-1zM16,27h1v1h-1zM17,27h1v1h-1zM18,27h1v1h-1zM19,27h1v1h-1zM20,27h1v1h-1zM21,27h1v1h-1zM22,27h1v1h-1zM9,28h1v1h-1zM22,28h1v1h-1z"/>
<!-- 上部沙粒（逐渐消失） -->
<path class="sand-top" fill="#ffcd75" d="M13,8h1v1h-1zM14,8h1v1h-1zM17,8h1v1h-1zM18,8h1v1h-1zM14,9h1v1h-1zM15,9h1v1h-1zM16,9h1v1h-1zM17,9h1v1h-1zM14,10h1v1h-1zM15,10h1v1h-1zM16,10h1v1h-1zM17,10h1v1h-1zM15,11h1v1h-1zM16,11h1v1h-1z"/>
<!-- 中间沙流（间歇性出现） -->
<path class="sand-mid" fill="#ffcd75" d="M15,12h1v1h-1zM15,13h1v1h-1zM15,14h1v1h-1zM15,15h1v1h-1zM15,16h1v1h-1zM15,17h1v1h-1z"/>
<!-- 玻璃体（灰色，静止） -->
<path fill="#94b0c2" d="M11,5h1v1h-1zM12,5h1v1h-1zM13,5h1v1h-1zM14,5h1v1h-1zM15,5h1v1h-1zM16,5h1v1h-1zM17,5h1v1h-1zM18,5h1v1h-1zM19,5h1v1h-1zM20,5h1v1h-1zM10,6h1v1h-1zM12,6h1v1h-1zM13,6h1v1h-1zM14,6h1v1h-1zM15,6h1v1h-1zM16,6h1v1h-1zM17,6h1v1h-1zM18,6h1v1h-1zM19,6h1v1h-1zM20,6h1v1h-1zM21,6h1v1h-1zM10,7h1v1h-1zM12,7h1v1h-1zM15,7h1v1h-1zM16,7h1v1h-1zM19,7h1v1h-1zM20,7h1v1h-1zM21,7h1v1h-1zM10,8h1v1h-1zM11,8h1v1h-1zM12,8h1v1h-1zM19,8h1v1h-1zM20,8h1v1h-1zM21,8h1v1h-1zM11,9h1v1h-1zM12,9h1v1h-1zM13,9h1v1h-1zM18,9h1v1h-1zM19,9h1v1h-1zM20,9h1v1h-1zM12,10h1v1h-1zM13,10h1v1h-1zM18,10h1v1h-1zM19,10h1v1h-1zM12,11h1v1h-1zM13,11h1v1h-1zM14,11h1v1h-1zM17,11h1v1h-1zM18,11h1v1h-1zM19,11h1v1h-1zM13,12h1v1h-1zM14,12h1v1h-1zM16,12h1v1h-1zM17,12h1v1h-1zM18,12h1v1h-1zM14,13h1v1h-1zM16,13h1v1h-1zM17,13h1v1h-1zM16,14h1v1h-1zM16,15h1v1h-1zM16,16h1v1h-1zM16,17h1v1h-1zM14,18h1v1h-1zM15,18h1v1h-1zM16,18h1v1h-1zM17,18h1v1h-1zM13,19h1v1h-1zM14,19h1v1h-1zM15,19h1v1h-1zM16,19h1v1h-1zM17,19h1v1h-1zM18,19h1v1h-1zM12,20h1v1h-1zM13,20h1v1h-1zM14,20h1v1h-1zM15,20h1v1h-1zM16,20h1v1h-1zM17,20h1v1h-1zM18,20h1v1h-1zM19,20h1v1h-1zM12,21h1v1h-1zM13,21h1v1h-1zM14,21h1v1h-1zM15,21h1v1h-1zM16,21h1v1h-1zM17,21h1v1h-1zM18,21h1v1h-1zM19,21h1v1h-1zM11,22h1v1h-1zM12,22h1v1h-1zM13,22h1v1h-1zM14,22h1v1h-1zM17,22h1v1h-1zM18,22h1v1h-1zM19,22h1v1h-1zM20,22h1v1h-1zM10,23h1v1h-1zM11,23h1v1h-1zM12,23h1v1h-1zM13,23h1v1h-1zM18,23h1v1h-1zM19,23h1v1h-1zM20,23h1v1h-1zM21,23h1v1h-1zM10,24h1v1h-1zM11,24h1v1h-1zM12,24h1v1h-1zM19,24h1v1h-1zM20,24h1v1h-1zM21,24h1v1h-1zM10,25h1v1h-1zM11,25h1v1h-1zM12,25h1v1h-1zM19,25h1v1h-1zM20,25h1v1h-1zM21,25h1v1h-1zM11,26h1v1h-1zM20,26h1v1h-1z"/>
<!-- 高光 -->
<path fill="#f4f4f4" d="M11,6h1v1h-1zM11,7h1v1h-1z"/>
<!-- 眼睛/装饰 -->
<path fill="#1a1c2c" d="M13,7h1v1h-1zM14,7h1v1h-1zM17,7h1v1h-1zM18,7h1v1h-1zM15,8h1v1h-1zM16,8h1v1h-1z"/>
<!-- 下部沙粒（逐渐出现） -->
<path class="sand-bot" fill="#94b0c2" d="M15,18h1v1h-1zM15,19h1v1h-1zM14,20h1v1h-1zM15,20h1v1h-1zM16,20h1v1h-1zM14,21h1v1h-1zM15,21h1v1h-1zM16,21h1v1h-1zM13,22h1v1h-1zM14,22h1v1h-1zM17,22h1v1h-1zM18,22h1v1h-1z"/>
</svg>