<svg xmlns="http://www.w3.org/2000/svg" viewBox="0 0 32 32" shape-rendering="crispEdges"><path fill="#333c57" d="M4,4h3v1h-3ZM25,4h3v1h-3ZM4,5h3v1h-3ZM25,5h3v1h-3ZM10,7h1v1h-1ZM22,7h1v1h-1ZM10,8h1v1h-1ZM22,8h1v1h-1ZM10,9h1v1h-1ZM22,9h1v1h-1ZM10,10h1v1h-1ZM22,10h1v1h-1ZM10,11h1v1h-1ZM22,11h1v1h-1ZM10,12h1v1h-1ZM22,12h1v1h-1ZM10,13h1v1h-1ZM22,13h1v1h-1ZM10,14h1v1h-1ZM22,14h1v1h-1ZM10,15h1v1h-1ZM22,15h1v1h-1ZM10,16h1v1h-1ZM22,16h1v1h-1ZM10,17h1v1h-1ZM22,17h1v1h-1ZM10,18h1v1h-1ZM22,18h1v1h-1ZM10,19h1v1h-1ZM22,19h1v1h-1ZM10,20h1v1h-1ZM22,20h1v1h-1ZM10,21h1v1h-1ZM22,21h1v1h-1ZM10,22h1v1h-1ZM22,22h1v1h-1Z"/><path fill="#b13e53" d="M4,6h6v1h-6ZM22,6h6v1h-6ZM3,7h7v1h-7ZM23,7h7v1h-7ZM5,8h5v1h-5ZM11,8h11v1h-11ZM23,8h4v1h-4ZM29,8h1v1h-1ZM3,9h7v1h-7ZM23,9h3v1h-3ZM27,9h3v1h-3ZM5,10h5v1h-5ZM11,10h11v1h-11ZM23,10h4v1h-4ZM29,10h1v1h-1ZM3,11h7v1h-7ZM23,11h3v1h-3ZM27,11h3v1h-3ZM5,12h5v1h-5ZM11,12h2v1h-2ZM15,12h3v1h-3ZM20,12h2v1h-2ZM23,12h4v1h-4ZM29,12h1v1h-1ZM3,13h7v1h-7ZM23,13h3v1h-3ZM27,13h3v1h-3ZM5,14h5v1h-5ZM11,14h1v1h-1ZM13,14h7v1h-7ZM21,14h1v1h-1ZM23,14h4v1h-4ZM29,14h1v1h-1ZM3,15h7v1h-7ZM23,15h3v1h-3ZM27,15h3v1h-3ZM5,16h5v1h-5ZM11,16h3v1h-3ZM15,16h3v1h-3ZM19,16h3v1h-3ZM23,16h4v1h-4ZM29,16h1v1h-1ZM3,17h7v1h-7ZM23,17h3v1h-3ZM27,17h3v1h-3ZM5,18h5v1h-5ZM11,18h11v1h-11ZM23,18h4v1h-4ZM29,18h1v1h-1ZM3,19h7v1h-7ZM23,19h3v1h-3ZM27,19h3v1h-3ZM5,20h5v1h-5ZM11,20h11v1h-11ZM23,20h4v1h-4ZM29,20h1v1h-1ZM3,21h7v1h-7ZM23,21h3v1h-3ZM27,21h3v1h-3ZM3,22h7v1h-7ZM11,22h11v1h-11ZM23,22h7v1h-7ZM4,23h6v1h-6ZM22,23h6v1h-6Z"/><path fill="#f4f4f4" d="M11,7h11v1h-11ZM3,8h2v1h-2ZM11,9h11v1h-11ZM3,10h2v1h-2ZM11,11h11v1h-11ZM3,12h2v1h-2ZM11,13h11v1h-11ZM3,14h2v1h-2ZM11,15h1v1h-1ZM13,15h2v1h-2ZM18,15h2v1h-2ZM21,15h1v1h-1ZM3,16h2v1h-2ZM11,17h11v1h-11ZM3,18h2v1h-2ZM11,19h11v1h-11ZM3,20h2v1h-2ZM11,21h11v1h-11Z"/><path fill="#1a1c2c" d="M27,8h2v1h-2ZM26,9h1v1h-1ZM27,10h2v1h-2ZM26,11h1v1h-1ZM13,12h2v1h-2ZM18,12h2v1h-2ZM27,12h2v1h-2ZM26,13h1v1h-1ZM27,14h2v1h-2ZM15,15h3v1h-3ZM26,15h1v1h-1ZM14,16h1v1h-1ZM18,16h1v1h-1ZM27,16h2v1h-2ZM26,17h1v1h-1ZM27,18h2v1h-2ZM26,19h1v1h-1ZM27,20h2v1h-2ZM26,21h1v1h-1Z"/><path fill="#ff9eb7" d="M12,14h1v1h-1ZM20,14h1v1h-1ZM12,15h1v1h-1ZM20,15h1v1h-1Z"/></svg>