<svg xmlns="http://www.w3.org/2000/svg" viewBox="0 0 32 32" shape-rendering="crispEdges"><path fill="#f4f4f4" d="M14 0h3v1h-3zM2 1h1v1h-1zM14 1h3v1h-3zM1 2h4v1h-4zM15 2h1v1h-1zM1 3h4v1h-4zM27 3h1v1h-1zM26 4h4v1h-4zM26 5h4v1h-4zM3 13h24v1h-24zM2 14h8v1h-8zM11 14h2v1h-2zM14 14h2v1h-2zM17 14h2v1h-2zM20 14h2v1h-2zM23 14h4v1h-4zM2 15h8v1h-8zM11 15h2v1h-2zM14 15h2v1h-2zM17 15h2v1h-2zM20 15h2v1h-2zM23 15h4v1h-4zM2 16h17v1h-17zM20 16h1v1h-1zM22 16h5v1h-5zM2 17h16v1h-16zM19 17h1v1h-1zM21 17h1v1h-1zM23 17h4v1h-4zM3 18h24v1h-24z"/><path fill="#b13e53" d="M4 6h1v1h-1zM3 7h2v1h-2zM2 8h3v1h-3zM2 9h3v1h-3zM2 10h3v1h-3zM2 11h3v1h-3zM2 12h3v1h-3z"/><path fill="#3b5dc9" d="M12 12h10v1h-10zM12 19h10v1h-10zM12 20h10v1h-10zM12 21h10v1h-10zM14 22h6v1h-6z"/><path fill="#41a6f6" d="M10 14h1v1h-1zM13 14h1v1h-1zM16 14h1v1h-1zM19 14h1v1h-1zM22 14h1v1h-1zM10 15h1v1h-1zM13 15h1v1h-1zM16 15h1v1h-1zM19 15h1v1h-1zM22 15h1v1h-1z"/><path fill="#94b0c2" d="M27 14h2v1h-2zM27 15h4v1h-4zM27 16h4v1h-4zM27 17h2v1h-2z"/><path fill="#1a1c2c" d="M19 16h1v1h-1zM21 16h1v1h-1zM20 17h1v1h-1z"/><path fill="#ff9eb7" d="M18 17h1v1h-1zM22 17h1v1h-1z"/><path fill="#566c86" d="M16 23h4v1h-4zM16 24h4v1h-4z"/></svg>