<svg xmlns="http://www.w3.org/2000/svg" viewBox="0 0 32 32" shape-rendering="crispEdges"><path fill="#f4f4f4" d="M15,6h1v1h-1ZM16,8h1v1h-1ZM16,9h1v1h-1ZM15,10h1v1h-1ZM17,10h1v1h-1ZM20,10h1v1h-1ZM16,11h1v1h-1ZM12,12h1v1h-1ZM22,13h1v1h-1ZM10,14h1v1h-1ZM24,14h1v1h-1ZM19,15h1v1h-1ZM13,16h1v1h-1ZM8,17h1v1h-1ZM25,18h1v1h-1ZM7,19h1v1h-1Z"/><path fill="#9b6bb0" d="M16,10h1v1h-1ZM16,12h1v1h-1ZM16,13h1v1h-1ZM16,14h1v1h-1ZM22,14h1v1h-1ZM10,15h1v1h-1ZM16,15h1v1h-1ZM22,15h1v1h-1ZM10,16h1v1h-1ZM16,16h2v1h-2ZM19,16h1v1h-1ZM22,16h1v1h-1ZM10,17h1v1h-1ZM13,17h1v1h-1ZM16,17h2v1h-2ZM19,17h1v1h-1ZM22,17h1v1h-1ZM10,18h1v1h-1ZM13,18h1v1h-1ZM16,18h2v1h-2ZM19,18h1v1h-1ZM22,18h1v1h-1ZM10,19h1v1h-1ZM13,19h1v1h-1ZM16,19h2v1h-2ZM19,19h1v1h-1ZM22,19h1v1h-1ZM25,19h1v1h-1ZM7,20h1v1h-1ZM10,20h1v1h-1ZM13,20h1v1h-1ZM16,20h2v1h-2ZM19,20h1v1h-1ZM22,20h1v1h-1ZM25,20h1v1h-1ZM7,21h1v1h-1ZM10,21h1v1h-1ZM13,21h1v1h-1ZM16,21h2v1h-2ZM19,21h1v1h-1ZM22,21h1v1h-1ZM25,21h1v1h-1ZM7,22h1v1h-1ZM10,22h1v1h-1ZM13,22h1v1h-1ZM16,22h2v1h-2ZM19,22h1v1h-1ZM22,22h1v1h-1ZM25,22h1v1h-1ZM7,23h1v1h-1ZM10,23h2v1h-2ZM13,23h1v1h-1ZM16,23h2v1h-2ZM19,23h1v1h-1ZM22,23h2v1h-2ZM25,23h1v1h-1ZM7,24h1v1h-1ZM10,24h2v1h-2ZM13,24h1v1h-1ZM16,24h2v1h-2ZM19,24h1v1h-1ZM22,24h2v1h-2ZM25,24h1v1h-1ZM7,25h1v1h-1ZM10,25h2v1h-2ZM13,25h1v1h-1ZM19,25h1v1h-1ZM22,25h2v1h-2ZM25,25h1v1h-1ZM7,26h1v1h-1ZM25,26h1v1h-1Z"/><path fill="#5d275d" d="M15,11h1v1h-1ZM15,12h1v1h-1ZM15,13h1v1h-1ZM15,14h1v1h-1ZM15,15h1v1h-1ZM15,16h1v1h-1ZM15,17h1v1h-1ZM21,17h1v1h-1ZM9,18h1v1h-1ZM15,18h1v1h-1ZM21,18h1v1h-1ZM9,19h1v1h-1ZM15,19h1v1h-1ZM21,19h1v1h-1ZM9,20h1v1h-1ZM15,20h1v1h-1ZM21,20h1v1h-1ZM9,21h1v1h-1ZM15,21h1v1h-1ZM21,21h1v1h-1ZM9,22h1v1h-1ZM12,22h1v1h-1ZM14,22h2v1h-2ZM18,22h1v1h-1ZM21,22h1v1h-1ZM9,23h1v1h-1ZM12,23h1v1h-1ZM14,23h2v1h-2ZM18,23h1v1h-1ZM21,23h1v1h-1ZM6,24h1v1h-1ZM9,24h1v1h-1ZM12,24h1v1h-1ZM14,24h2v1h-2ZM18,24h1v1h-1ZM21,24h1v1h-1ZM24,24h1v1h-1ZM6,25h1v1h-1ZM9,25h1v1h-1ZM12,25h1v1h-1ZM18,25h1v1h-1ZM21,25h1v1h-1ZM24,25h1v1h-1ZM6,26h1v1h-1ZM24,26h1v1h-1Z"/><path fill="#ff9eb7" d="M17,11h1v1h-1ZM23,15h1v1h-1ZM11,16h1v1h-1ZM23,16h1v1h-1ZM11,17h1v1h-1ZM20,17h1v1h-1ZM14,18h1v1h-1ZM20,18h1v1h-1ZM14,19h1v1h-1ZM26,20h1v1h-1ZM8,21h1v1h-1ZM26,21h1v1h-1ZM8,22h1v1h-1Z"/><path fill="#566c86" d="M8,24h1v1h-1ZM20,24h1v1h-1ZM4,25h2v1h-2ZM8,25h1v1h-1ZM14,25h4v1h-4ZM20,25h1v1h-1ZM26,25h2v1h-2ZM4,26h2v1h-2ZM8,26h16v1h-16ZM26,26h2v1h-2ZM4,27h24v1h-24ZM4,28h24v1h-24ZM4,29h24v1h-24Z"/></svg>