<svg xmlns="http://www.w3.org/2000/svg" viewBox="0 0 32 32" shape-rendering="crispEdges"><path fill="#ffcd75" d="M14,2h2v1h-2ZM12,4h6v1h-6ZM13,6h4v1h-4Z"/><path fill="#73eff7" d="M11,3h1v1h-1ZM13,3h4v1h-4ZM18,3h1v1h-1ZM12,5h6v1h-6ZM11,6h1v1h-1ZM18,6h1v1h-1Z"/><path fill="#566c86" d="M15,7h1v1h-1ZM14,8h1v1h-1ZM14,9h1v1h-1ZM13,10h1v1h-1ZM13,11h1v1h-1Z"/><path fill="#29366f" d="M10,12h14v1h-14ZM8,13h18v1h-18ZM6,15h22v1h-22ZM2,16h3v1h-3ZM5,17h5v1h-5ZM14,17h4v1h-4ZM22,17h5v1h-5ZM1,18h4v1h-4ZM27,18h2v1h-2ZM5,19h24v1h-24ZM7,21h4v1h-4ZM12,21h1v1h-1ZM14,21h1v1h-1ZM16,21h1v1h-1ZM18,21h1v1h-1ZM20,21h1v1h-1ZM22,21h5v1h-5ZM10,23h14v1h-14ZM14,25h6v1h-6Z"/><path fill="#257179" d="M7,14h20v1h-20ZM5,16h5v1h-5ZM14,16h4v1h-4ZM22,16h7v1h-7ZM1,17h4v1h-4ZM27,17h2v1h-2ZM5,18h3v1h-3ZM14,18h4v1h-4ZM24,18h3v1h-3ZM2,19h3v1h-3ZM6,20h3v1h-3ZM25,20h3v1h-3ZM8,22h18v1h-18ZM12,24h10v1h-10Z"/><path fill="#f4f4f4" d="M10,16h4v1h-4ZM18,16h4v1h-4ZM10,17h2v1h-2ZM18,17h2v1h-2ZM10,18h2v1h-2ZM18,18h2v1h-2ZM10,20h1v1h-1ZM12,20h1v1h-1ZM14,20h1v1h-1ZM16,20h1v1h-1ZM18,20h1v1h-1ZM20,20h1v1h-1ZM22,20h1v1h-1ZM11,21h1v1h-1ZM13,21h1v1h-1ZM15,21h1v1h-1ZM17,21h1v1h-1ZM19,21h1v1h-1ZM21,21h1v1h-1Z"/><path fill="#1a1c2c" d="M12,17h2v1h-2ZM20,17h2v1h-2ZM12,18h2v1h-2ZM20,18h2v1h-2Z"/><path fill="#ff9eb7" d="M8,18h2v1h-2ZM22,18h2v1h-2Z"/><path fill="#333c57" d="M9,20h1v1h-1ZM11,20h1v1h-1ZM13,20h1v1h-1ZM15,20h1v1h-1ZM17,20h1v1h-1ZM19,20h1v1h-1ZM21,20h1v1h-1ZM23,20h2v1h-2Z"/></svg>