<svg xmlns="http://www.w3.org/2000/svg" width="16" height="16" viewBox="0 0 16 16" shape-rendering="crispEdges">
<!-- 红苹果 — Cozy Pixel 新风格 -->
<path fill="#1a1c2c" d="M8 1h1v1h-1zM7 2h1v1h-1zM9 2h1v1h-1zM5 3h2v1h-2zM10 3h1v1h-1zM4 4h1v1h-1zM11 4h1v1h-1zM3 5h1v1h-1zM12 5h1v1h-1zM3 6h1v1h-1zM12 6h1v1h-1zM3 7h1v1h-1zM12 7h1v1h-1zM3 8h1v1h-1zM12 8h1v1h-1zM4 9h1v1h-1zM11 9h1v1h-1zM5 10h1v1h-1zM10 10h1v1h-1zM6 11h4v1h-4z"/>
<!-- 茎 -->
<path fill="#6b3e2e" d="M8 2h1v1h-1z"/>
<!-- 叶子 -->
<path fill="#38b764" d="M10 2h1v1h-1zM11 2h1v1h-1z"/>
<!-- 红色主体 -->
<path fill="#b13e53" d="M7 3h3v1h-3zM5 4h6v1h-6zM4 5h8v1h-8zM4 6h8v1h-8zM4 7h8v1h-8zM4 8h7v1h-7zM5 9h5v1h-5zM6 10h3v1h-3z"/>
<!-- 高光 -->
<path fill="#ef7d57" d="M5 4h1v1h-1zM4 5h1v1h-1zM4 6h1v1h-1z"/>
<!-- 魔法微光点 -->
<path fill="#f4f4f4" d="M5 5h1v1h-1z"/>
<!-- 暗影 -->
<path fill="#5d275d" d="M11 8h1v1h-1zM10 9h1v1h-1zM9 10h1v1h-1z"/>
</svg>