<svg xmlns="http://www.w3.org/2000/svg" width="32" height="32" viewBox="0 0 32 32" shape-rendering="crispEdges">
<path fill="#94b0c2" d="M11 2h10v1h-10zM9 3h14v1h-14zM8 4h16v1h-16zM7 5h3v1h-3zM22 5h3v1h-3zM7 6h3v1h-3zM22 6h3v1h-3zM7 7h3v1h-3zM22 7h3v1h-3zM7 8h3v1h-3zM22 8h3v1h-3zM7 9h3v1h-3zM22 9h3v1h-3zM7 10h3v1h-3zM22 10h3v1h-3zM7 11h3v1h-3zM22 11h3v1h-3zM7 12h18v1h-18zM8 13h16v1h-16zM9 14h14v1h-14z"/><path fill="#29366f" d="M10 5h12v1h-12zM10 6h1v1h-1zM13 6h9v1h-9zM10 7h1v1h-1zM12 7h10v1h-10zM10 8h4v1h-4zM15 8h3v1h-3zM19 8h3v1h-3zM10 9h2v1h-2zM14 9h5v1h-5zM21 9h1v1h-1zM10 10h5v1h-5zM17 10h5v1h-5zM10 11h12v1h-12z"/><path fill="#41a6f6" d="M11 6h2v1h-2zM11 7h1v1h-1z"/><path fill="#1a1c2c" d="M14 8h1v1h-1zM18 8h1v1h-1zM15 10h2v1h-2z"/><path fill="#ff9eb7" d="M12 9h2v1h-2zM19 9h2v1h-2z"/><path fill="#566c86" d="M25 10h1v1h-1zM25 11h1v1h-1zM25 12h1v1h-1zM25 13h1v1h-1zM25 14h1v1h-1zM5 15h4v1h-4zM25 15h1v1h-1zM5 16h1v1h-1zM8 16h1v1h-1zM25 16h1v1h-1zM5 17h1v1h-1zM25 17h1v1h-1zM5 18h1v1h-1zM25 18h1v1h-1zM5 19h1v1h-1zM25 19h1v1h-1zM5 20h1v1h-1zM8 20h1v1h-1zM5 21h4v1h-4zM11 27h3v1h-3zM18 27h3v1h-3zM11 28h3v1h-3zM18 28h3v1h-3z"/><path fill="#b13e53" d="M26 10h4v1h-4zM26 11h4v1h-4zM26 12h4v1h-4z"/><path fill="#f4f4f4" d="M9 15h14v1h-14zM9 16h14v1h-14zM7 17h18v1h-18zM7 18h18v1h-18zM7 19h18v1h-18zM9 20h14v1h-14zM9 21h14v1h-14zM9 22h14v1h-14zM10 23h12v1h-12zM11 24h3v1h-3zM18 24h3v1h-3zM11 25h3v1h-3zM18 25h3v1h-3zM11 26h3v1h-3zM18 26h3v1h-3z"/><path fill="#333c57" d="M6 16h2v1h-2zM6 17h1v1h-1zM6 18h1v1h-1zM6 19h1v1h-1zM6 20h2v1h-2z"/>
</svg>