<svg xmlns="http://www.w3.org/2000/svg" viewBox="0 0 32 32" shape-rendering="crispEdges"><path fill="#ffecd2" d="M0,0h32v1h-32zM0,1h32v1h-32zM0,2h32v1h-32zM0,3h32v1h-32zM0,4h32v1h-32zM0,5h32v1h-32zM0,6h32v1h-32zM0,7h32v1h-32zM0,8h32v1h-32zM0,9h32v1h-32zM0,10h32v1h-32zM0,11h32v1h-32zM0,12h32v1h-32zM0,13h32v1h-32zM0,14h32v1h-32zM0,15h32v1h-32zM0,16h32v1h-32zM0,17h32v1h-32zM0,18h32v1h-32zM0,19h32v1h-32zM0,20h32v1h-32zM0,21h32v1h-32zM0,22h32v1h-32zM0,23h32v1h-32zM0,24h32v1h-32zM0,25h32v1h-32zM0,26h32v1h-32zM0,27h32v1h-32zM0,28h32v1h-32zM0,29h32v1h-32zM0,30h32v1h-32zM0,31h32v1h-32z"/><path fill="#b13e53" d="M6,4h1v1h-1zM15,4h3v1h-3zM15,5h2v1h-2zM16,5h2v1h-2zM14,6h3v1h-3zM16,6h3v1h-3zM26,6h1v1h-1zM14,7h3v1h-3zM16,7h3v1h-3zM9,8h3v1h-3zM13,8h4v1h-4zM16,8h4v1h-4zM21,8h3v1h-3zM16,9h1v1h-1zM16,10h1v1h-1zM16,11h1v1h-1zM16,12h1v1h-1zM16,13h1v1h-1zM16,14h1v1h-1zM16,15h1v1h-1zM16,16h1v1h-1zM16,17h1v1h-1zM16,18h1v1h-1zM4,23h1v1h-1zM28,25h1v1h-1z"/><path fill="#ef7d57" d="M5,4h1v1h-1zM27,6h1v1h-1zM8,9h4v1h-4zM11,9h2v1h-2zM12,9h9v1h-9zM20,9h2v1h-2zM21,9h4v1h-4zM8,10h4v1h-4zM11,10h2v1h-2zM12,10h9v1h-9zM20,10h2v1h-2zM21,10h4v1h-4zM11,11h11v1h-11zM10,12h13v1h-13zM3,22h1v1h-1zM28,24h1v1h-1z"/><path fill="#ffcd75" d="M5,5h1v1h-1zM27,7h1v1h-1zM10,13h13v1h-13zM8,14h17v1h-17zM7,15h3v1h-3zM11,15h11v1h-11zM23,15h3v1h-3zM7,16h3v1h-3zM11,16h11v1h-11zM23,16h3v1h-3zM13,17h7v1h-7zM14,18h5v1h-5zM4,22h1v1h-1zM27,24h1v1h-1z"/><path fill="#8b5e34" d="M10,8h3v1h-3zM20,8h3v1h-3zM13,9h4v1h-4zM16,9h4v1h-4zM15,13h2v1h-2zM16,13h2v1h-2zM11,14h4v1h-4zM18,14h4v1h-4zM9,15h2v1h-2zM22,15h2v1h-2zM16,19h1v1h-1zM16,20h1v1h-1zM16,21h1v1h-1zM17,22h1v1h-1z"/><path fill="#94b0c2" d="M4,7h3v1h-3zM2,8h2v1h-2zM29,18h1v1h-1zM26,19h3v1h-3zM25,20h1v1h-1z"/></svg>