<svg xmlns="http://www.w3.org/2000/svg" viewBox="0 0 32 32" shape-rendering="crispEdges"><path fill="#38b764" d="M10,3h12v1h-12zM9,4h2v1h-2zM21,4h2v1h-2zM8,5h2v1h-2zM22,5h2v1h-2zM7,6h2v1h-2zM23,6h2v1h-2zM7,7h1v1h-1zM24,7h1v1h-1zM6,8h2v1h-2zM24,8h2v1h-2zM5,9h2v1h-2zM25,9h2v1h-2zM5,10h2v1h-2zM25,10h2v1h-2zM4,11h2v1h-2zM26,11h2v1h-2zM4,12h2v1h-2zM26,12h2v1h-2zM3,13h2v1h-2zM27,13h2v1h-2zM3,14h2v1h-2zM27,14h2v1h-2zM3,15h2v1h-2zM27,15h2v1h-2zM3,16h2v1h-2zM27,16h2v1h-2zM3,17h2v1h-2zM27,17h2v1h-2zM3,18h2v1h-2zM27,18h2v1h-2zM3,19h2v1h-2zM27,19h2v1h-2zM4,20h2v1h-2zM26,20h2v1h-2zM4,21h2v1h-2zM26,21h2v1h-2zM5,22h1v1h-1zM26,22h1v1h-1zM5,23h2v1h-2zM25,23h2v1h-2zM6,24h1v1h-1zM25,24h1v1h-1zM6,25h2v1h-2zM24,25h2v1h-2zM7,26h2v1h-2zM23,26h2v1h-2zM8,27h2v1h-2zM22,27h2v1h-2zM9,28h1v1h-1zM22,28h1v1h-1zM10,29h12v1h-12z"/><path fill="#257179" d="M11,4h10v1h-10zM10,5h1v1h-1zM21,5h1v1h-1zM9,6h2v1h-2zM21,6h2v1h-2zM8,7h2v1h-2zM22,7h2v1h-2zM8,8h1v1h-1zM23,8h1v1h-1zM7,9h2v1h-2zM23,9h2v1h-2zM7,10h1v1h-1zM24,10h1v1h-1zM6,11h2v1h-2zM24,11h2v1h-2zM6,12h2v1h-2zM24,12h2v1h-2zM5,13h2v1h-2zM25,13h2v1h-2zM5,14h2v1h-2zM25,14h2v1h-2zM5,15h2v1h-2zM25,15h2v1h-2zM5,16h2v1h-2zM25,16h2v1h-2zM5,17h2v1h-2zM25,17h2v1h-2zM5,18h2v1h-2zM25,18h2v1h-2zM5,19h2v1h-2zM25,19h2v1h-2zM6,20h2v1h-2zM24,20h2v1h-2zM6,21h2v1h-2zM24,21h2v1h-2zM6,22h2v1h-2zM24,22h2v1h-2zM7,23h2v1h-2zM23,23h2v1h-2zM7,24h2v1h-2zM23,24h2v1h-2zM8,25h2v1h-2zM22,25h2v1h-2zM9,26h1v1h-1zM22,26h1v1h-1zM10,27h1v1h-1zM21,27h1v1h-1zM10,28h12v1h-12z"/><path fill="#a7f070" d="M11,5h10v1h-10zM11,6h10v1h-10zM10,7h12v1h-12zM9,8h14v1h-14zM9,9h14v1h-14zM8,10h16v1h-16zM8,11h16v1h-16zM8,12h16v1h-16zM7,13h18v1h-18zM7,14h9v1h-9zM17,14h8v1h-8zM7,15h6v1h-6zM20,15h5v1h-5zM7,16h5v1h-5zM21,16h4v1h-4zM7,17h5v1h-5zM21,17h4v1h-4zM7,18h5v1h-5zM21,18h4v1h-4zM7,19h4v1h-4zM22,19h3v1h-3zM8,20h4v1h-4zM21,20h3v1h-3zM8,21h4v1h-4zM21,21h3v1h-3zM8,22h4v1h-4zM21,22h3v1h-3zM9,23h4v1h-4zM20,23h3v1h-3zM9,24h7v1h-7zM17,24h6v1h-6zM10,25h12v1h-12zM10,26h12v1h-12zM11,27h10v1h-10z"/><path fill="#8b5e34" d="M16,14h1v1h-1zM13,15h7v1h-7zM12,16h9v1h-9zM12,17h2v1h-2zM15,17h3v1h-3zM19,17h2v1h-2zM12,18h2v1h-2zM15,18h3v1h-3zM19,18h2v1h-2zM11,19h1v1h-1zM14,19h5v1h-5zM21,19h1v1h-1zM12,20h3v1h-3zM16,20h1v1h-1zM18,20h3v1h-3zM12,21h4v1h-4zM17,21h4v1h-4zM12,22h9v1h-9zM13,23h7v1h-7zM16,24h1v1h-1z"/><path fill="#1a1c2c" d="M14,17h1v1h-1zM18,17h1v1h-1zM14,18h1v1h-1zM18,18h1v1h-1zM15,20h1v1h-1zM17,20h1v1h-1zM16,21h1v1h-1z"/><path fill="#ff9eb7" d="M12,19h2v1h-2zM19,19h2v1h-2z"/></svg>