<svg xmlns="http://www.w3.org/2000/svg" viewBox="0 0 32 32" shape-rendering="crispEdges"><path fill="#ff9eb7" d="M15,5h1v1h-1zM11,6h9v1h-9zM10,7h11v1h-11zM9,8h13v1h-13zM8,9h15v1h-15zM8,10h15v1h-15zM8,11h15v1h-15zM7,12h17v1h-17zM8,13h15v1h-15zM8,14h2v1h-2zM9,14h2v1h-2zM10,14h11v1h-11zM20,14h2v1h-2zM21,14h2v1h-2zM8,15h8v1h-8zM15,15h8v1h-8zM9,16h4v1h-4zM12,16h2v1h-2zM13,16h2v1h-2zM14,16h2v1h-2zM15,16h2v1h-2zM16,16h2v1h-2zM17,16h2v1h-2zM18,16h4v1h-4zM10,17h2v1h-2zM11,17h2v1h-2zM12,17h2v1h-2zM13,17h2v1h-2zM14,17h2v1h-2zM15,17h2v1h-2zM16,17h2v1h-2zM17,17h2v1h-2zM18,17h2v1h-2zM19,17h2v1h-2zM10,18h2v1h-2zM11,18h2v1h-2zM12,18h2v1h-2zM13,18h2v1h-2zM14,18h2v1h-2zM15,18h2v1h-2zM16,18h2v1h-2zM17,18h2v1h-2zM18,18h2v1h-2zM19,18h2v1h-2zM10,19h6v1h-6zM15,19h6v1h-6zM9,20h13v1h-13zM8,21h1v1h-1zM10,21h11v1h-11zM22,21h1v1h-1zM7,22h1v1h-1zM10,22h11v1h-11zM23,22h1v1h-1zM11,23h9v1h-9zM12,24h7v1h-7zM10,25h1v1h-1zM15,25h1v1h-1zM20,25h1v1h-1zM9,26h1v1h-1zM21,26h1v1h-1z"/><path fill="#b13e53" d="M7,3h1v1h-1zM23,3h1v1h-1zM4,4h1v1h-1zM7,4h1v1h-1zM23,4h1v1h-1zM26,4h1v1h-1zM3,5h1v1h-1zM5,5h1v1h-1zM7,5h1v1h-1zM23,5h1v1h-1zM25,5h1v1h-1zM27,5h1v1h-1zM4,6h1v1h-1zM6,6h1v1h-1zM24,6h1v1h-1zM26,6h1v1h-1zM5,7h1v1h-1zM25,7h1v1h-1z"/><path fill="#1a1c2c" d="M11,9h1v1h-1zM19,9h1v1h-1zM10,10h3v1h-3zM18,10h3v1h-3zM9,11h5v1h-5zM17,11h5v1h-5zM10,12h3v1h-3zM18,12h3v1h-3zM11,13h1v1h-1zM19,13h1v1h-1zM14,15h1v1h-1zM17,15h1v1h-1zM15,16h2v1h-2z"/><path fill="#f4f4f4" d="M10,10h2v1h-2zM18,10h2v1h-2z"/><path fill="#ffecd2" d="M15,18h1v1h-1zM13,19h5v1h-5zM13,20h5v1h-5zM12,21h7v1h-7zM13,22h5v1h-5zM13,23h5v1h-5zM15,24h1v1h-1z"/></svg>