<svg xmlns="http://www.w3.org/2000/svg" viewBox="0 0 32 32" shape-rendering="crispEdges"><path fill="#ffecd2" d="M11,19h1v1h-1zM15,19h1v1h-1zM19,19h1v1h-1zM9,20h1v1h-1zM11,20h3v1h-3zM13,20h5v1h-5zM17,20h3v1h-3zM21,20h1v1h-1zM8,21h3v1h-3zM10,21h2v1h-2zM11,21h2v1h-2zM12,21h2v1h-2zM13,21h2v1h-2zM14,21h2v1h-2zM15,21h2v1h-2zM16,21h2v1h-2zM17,21h2v1h-2zM18,21h2v1h-2zM19,21h2v1h-2zM20,21h4v1h-4zM9,22h13v1h-13zM9,23h13v1h-13zM8,24h15v1h-15zM9,25h13v1h-13zM9,26h13v1h-13zM10,27h11v1h-11zM11,28h9v1h-9zM15,29h1v1h-1z"/><path fill="#a7f070" d="M15,5h1v1h-1zM12,6h7v1h-7zM11,7h9v1h-9zM11,8h9v1h-9zM11,9h9v1h-9zM10,10h11v1h-11zM11,11h5v1h-5zM15,11h5v1h-5zM11,12h2v1h-2zM12,12h2v1h-2zM13,12h2v1h-2zM14,12h2v1h-2zM15,12h2v1h-2zM16,12h2v1h-2zM17,12h2v1h-2zM18,12h2v1h-2zM6,13h1v1h-1zM11,13h1v1h-1zM11,13h2v1h-2zM12,13h2v1h-2zM13,13h2v1h-2zM14,13h2v1h-2zM15,13h2v1h-2zM16,13h2v1h-2zM17,13h2v1h-2zM18,13h2v1h-2zM19,13h1v1h-1zM24,13h1v1h-1zM6,14h2v1h-2zM11,14h2v1h-2zM12,14h2v1h-2zM13,14h2v1h-2zM14,14h2v1h-2zM15,14h2v1h-2zM16,14h2v1h-2zM17,14h2v1h-2zM18,14h2v1h-2zM23,14h2v1h-2zM11,15h5v1h-5zM15,15h5v1h-5zM10,16h11v1h-11zM11,17h9v1h-9zM11,18h9v1h-9zM11,19h9v1h-9zM12,20h7v1h-7zM15,21h1v1h-1z"/><path fill="#38b764" d="M12,5h1v1h-1zM18,5h1v1h-1zM15,14h1v1h-1zM13,15h5v1h-5zM13,16h5v1h-5zM12,17h7v1h-7zM13,18h5v1h-5zM13,19h5v1h-5zM15,20h1v1h-1z"/><path fill="#ef7d57" d="M20,11h2v1h-2z"/><path fill="#ffcd75" d="M21,10h1v1h-1zM22,11h1v1h-1z"/><path fill="#b13e53" d="M22,10h1v1h-1z"/><path fill="#1a1c2c" d="M12,7h1v1h-1zM18,7h1v1h-1zM11,8h3v1h-3zM17,8h3v1h-3zM10,9h5v1h-5zM16,9h5v1h-5zM11,10h3v1h-3zM17,10h3v1h-3zM12,11h1v1h-1zM18,11h1v1h-1zM15,13h2v1h-2z"/><path fill="#f4f4f4" d="M11,8h2v1h-2zM17,8h2v1h-2z"/><path fill="#ff9eb7" d="M10,11h2v1h-2zM19,11h2v1h-2z"/></svg>