<svg xmlns="http://www.w3.org/2000/svg" viewBox="0 0 32 32" shape-rendering="crispEdges"><path fill="#ffcd75" d="M20,1h1v1h-1zM5,2h1v1h-1zM19,2h1v1h-1zM21,2h1v1h-1zM4,3h1v1h-1zM6,3h1v1h-1zM14,3h1v1h-1zM15,3h1v1h-1zM16,3h1v1h-1zM17,3h1v1h-1zM18,3h1v1h-1zM20,3h1v1h-1zM28,3h1v1h-1zM5,4h1v1h-1zM11,4h1v1h-1zM13,4h1v1h-1zM14,4h1v1h-1zM16,4h1v1h-1zM17,4h1v1h-1zM18,4h1v1h-1zM19,4h1v1h-1zM27,4h1v1h-1zM29,4h1v1h-1zM10,5h1v1h-1zM12,5h1v1h-1zM13,5h1v1h-1zM15,5h1v1h-1zM16,5h1v1h-1zM17,5h1v1h-1zM18,5h1v1h-1zM19,5h1v1h-1zM28,5h1v1h-1zM11,6h1v1h-1zM13,6h1v1h-1zM14,6h1v1h-1zM15,6h1v1h-1zM16,6h1v1h-1zM17,6h1v1h-1zM18,6h1v1h-1zM19,6h1v1h-1zM13,7h1v1h-1zM14,7h1v1h-1zM15,7h1v1h-1zM16,7h1v1h-1zM17,7h1v1h-1zM18,7h1v1h-1zM19,7h1v1h-1zM14,8h1v1h-1zM15,8h1v1h-1zM16,8h1v1h-1zM17,8h1v1h-1zM18,8h1v1h-1zM17,9h1v1h-1zM3,14h1v1h-1zM2,15h1v1h-1zM4,15h1v1h-1zM3,16h1v1h-1zM27,17h1v1h-1zM26,18h1v1h-1zM28,18h1v1h-1zM27,19h1v1h-1z"/><path fill="#f4f4f4" d="M20,2h1v1h-1zM5,3h1v1h-1zM15,4h1v1h-1zM28,4h1v1h-1zM11,5h1v1h-1zM14,5h1v1h-1zM7,6h1v1h-1zM6,7h1v1h-1zM23,7h1v1h-1zM22,8h1v1h-1zM13,10h1v1h-1zM12,11h1v1h-1zM3,15h1v1h-1zM27,18h1v1h-1z"/><path fill="#b13e53" d="M6,5h1v1h-1zM7,5h1v1h-1zM8,5h1v1h-1zM9,5h1v1h-1zM5,6h1v1h-1zM6,6h1v1h-1zM8,6h1v1h-1zM9,6h1v1h-1zM10,6h1v1h-1zM5,7h1v1h-1zM7,7h1v1h-1zM8,7h1v1h-1zM9,7h1v1h-1zM10,7h1v1h-1zM11,7h1v1h-1zM5,8h1v1h-1zM6,8h1v1h-1zM7,8h1v1h-1zM8,8h1v1h-1zM9,8h1v1h-1zM10,8h1v1h-1zM11,8h1v1h-1zM5,9h1v1h-1zM6,9h1v1h-1zM7,9h1v1h-1zM8,9h1v1h-1zM9,9h1v1h-1zM10,9h1v1h-1zM11,9h1v1h-1zM6,10h1v1h-1zM7,10h1v1h-1zM8,10h1v1h-1zM9,10h1v1h-1zM10,10h1v1h-1zM7,11h1v1h-1zM8,11h1v1h-1zM9,11h1v1h-1zM8,12h1v1h-1zM14,26h1v1h-1zM16,26h1v1h-1zM18,26h1v1h-1zM15,27h1v1h-1zM17,27h1v1h-1zM14,28h1v1h-1zM16,28h1v1h-1zM18,28h1v1h-1zM13,29h1v1h-1zM19,29h1v1h-1z"/><path fill="#41a6f6" d="M22,6h1v1h-1zM23,6h1v1h-1zM24,6h1v1h-1zM25,6h1v1h-1zM26,6h1v1h-1zM21,7h1v1h-1zM22,7h1v1h-1zM24,7h1v1h-1zM25,7h1v1h-1zM26,7h1v1h-1zM27,7h1v1h-1zM21,8h1v1h-1zM23,8h1v1h-1zM24,8h1v1h-1zM25,8h1v1h-1zM26,8h1v1h-1zM27,8h1v1h-1zM21,9h1v1h-1zM22,9h1v1h-1zM23,9h1v1h-1zM24,9h1v1h-1zM25,9h1v1h-1zM26,9h1v1h-1zM27,9h1v1h-1zM21,10h1v1h-1zM22,10h1v1h-1zM23,10h1v1h-1zM24,10h1v1h-1zM25,10h1v1h-1zM26,10h1v1h-1zM27,10h1v1h-1zM22,11h1v1h-1zM23,11h1v1h-1zM24,11h1v1h-1zM25,11h1v1h-1zM26,11h1v1h-1zM23,12h1v1h-1zM24,12h1v1h-1zM25,12h1v1h-1zM24,13h1v1h-1z"/><path fill="#ff9eb7" d="M12,9h1v1h-1zM13,9h1v1h-1zM14,9h1v1h-1zM15,9h1v1h-1zM16,9h1v1h-1zM11,10h1v1h-1zM12,10h1v1h-1zM14,10h1v1h-1zM15,10h1v1h-1zM16,10h1v1h-1zM17,10h1v1h-1zM11,11h1v1h-1zM13,11h1v1h-1zM14,11h1v1h-1zM15,11h1v1h-1zM16,11h1v1h-1zM17,11h1v1h-1zM11,12h1v1h-1zM12,12h1v1h-1zM13,12h1v1h-1zM14,12h1v1h-1zM15,12h1v1h-1zM17,12h1v1h-1zM11,13h1v1h-1zM12,13h1v1h-1zM13,13h1v1h-1zM14,13h1v1h-1zM15,13h1v1h-1zM17,13h1v1h-1zM12,14h1v1h-1zM13,14h1v1h-1zM14,14h1v1h-1zM15,14h1v1h-1zM13,15h1v1h-1zM14,15h1v1h-1zM15,15h1v1h-1zM14,16h1v1h-1z"/><path fill="#566c86" d="M16,12h1v1h-1zM16,13h1v1h-1zM8,14h1v1h-1zM16,14h1v1h-1zM9,15h1v1h-1zM16,15h1v1h-1zM24,15h1v1h-1zM9,16h1v1h-1zM16,16h1v1h-1zM23,16h1v1h-1zM10,17h1v1h-1zM16,17h1v1h-1zM23,17h1v1h-1zM11,18h1v1h-1zM14,18h1v1h-1zM16,18h1v1h-1zM22,18h1v1h-1zM11,19h1v1h-1zM14,19h1v1h-1zM16,19h1v1h-1zM21,19h1v1h-1zM12,20h1v1h-1zM15,20h1v1h-1zM16,20h1v1h-1zM20,20h1v1h-1zM13,21h1v1h-1zM15,21h1v1h-1zM16,21h1v1h-1zM20,21h1v1h-1zM13,22h1v1h-1zM15,22h1v1h-1zM16,22h1v1h-1zM19,22h1v1h-1zM14,23h1v1h-1zM15,23h1v1h-1zM16,23h1v1h-1zM18,23h1v1h-1zM15,24h1v1h-1zM16,24h1v1h-1zM17,24h1v1h-1zM15,25h1v1h-1zM16,25h1v1h-1zM17,25h1v1h-1z"/><path fill="#333c57" d="M8,13h1v1h-1zM24,14h1v1h-1zM14,17h1v1h-1z"/></svg>