<svg xmlns="http://www.w3.org/2000/svg" viewBox="0 0 32 32" shape-rendering="crispEdges"><path fill="#a7f070" d="M15,0h1v1h-1zM14,1h1v1h-1zM15,1h1v1h-1zM16,1h1v1h-1zM4,2h1v1h-1zM16,2h1v1h-1zM3,3h1v1h-1zM9,3h1v1h-1zM16,3h1v1h-1zM29,3h1v1h-1zM9,4h1v1h-1zM14,4h1v1h-1zM16,4h1v1h-1zM28,4h1v1h-1zM9,5h1v1h-1zM13,5h1v1h-1zM14,5h1v1h-1zM16,5h1v1h-1zM23,5h1v1h-1zM7,6h1v1h-1zM9,6h1v1h-1zM16,6h1v1h-1zM23,6h1v1h-1zM6,7h1v1h-1zM7,7h1v1h-1zM9,7h1v1h-1zM16,7h1v1h-1zM9,8h1v1h-1zM16,8h1v1h-1zM27,8h1v1h-1zM9,9h1v1h-1zM16,9h1v1h-1zM23,9h1v1h-1zM26,9h1v1h-1zM27,9h1v1h-1zM9,10h1v1h-1zM16,10h1v1h-1zM23,10h1v1h-1zM9,11h1v1h-1zM16,11h1v1h-1zM20,11h1v1h-1zM23,11h1v1h-1zM9,12h1v1h-1zM16,12h1v1h-1zM19,12h1v1h-1zM20,12h1v1h-1zM23,12h1v1h-1zM9,13h1v1h-1zM16,13h1v1h-1zM23,13h1v1h-1zM9,14h1v1h-1zM13,14h1v1h-1zM16,14h1v1h-1zM23,14h1v1h-1zM9,15h1v1h-1zM12,15h1v1h-1zM13,15h1v1h-1zM16,15h1v1h-1zM23,15h1v1h-1zM9,16h1v1h-1zM16,16h1v1h-1zM20,16h1v1h-1zM23,16h1v1h-1zM9,17h1v1h-1zM16,17h1v1h-1zM21,17h1v1h-1zM23,17h1v1h-1zM9,18h1v1h-1zM16,18h1v1h-1zM23,18h1v1h-1zM9,19h1v1h-1zM16,19h1v1h-1zM23,19h1v1h-1zM9,20h1v1h-1zM16,20h1v1h-1zM23,20h1v1h-1zM9,21h1v1h-1zM16,21h1v1h-1zM23,21h1v1h-1zM9,22h1v1h-1zM16,22h1v1h-1zM23,22h1v1h-1zM9,23h1v1h-1zM16,23h1v1h-1zM23,23h1v1h-1zM9,24h1v1h-1zM16,24h1v1h-1zM23,24h1v1h-1zM9,25h1v1h-1zM16,25h1v1h-1zM23,25h1v1h-1zM9,26h1v1h-1zM16,26h1v1h-1zM23,26h1v1h-1zM9,27h1v1h-1zM16,27h1v1h-1zM23,27h1v1h-1zM9,28h1v1h-1zM16,28h1v1h-1zM23,28h1v1h-1z"/><path fill="#38b764" d="M17,1h1v1h-1zM18,1h1v1h-1zM17,2h1v1h-1zM18,2h1v1h-1zM10,3h1v1h-1zM11,3h1v1h-1zM17,3h1v1h-1zM18,3h1v1h-1zM10,4h1v1h-1zM11,4h1v1h-1zM17,4h1v1h-1zM18,4h1v1h-1zM10,5h1v1h-1zM11,5h1v1h-1zM17,5h1v1h-1zM18,5h1v1h-1zM24,5h1v1h-1zM25,5h1v1h-1zM10,6h1v1h-1zM11,6h1v1h-1zM24,6h1v1h-1zM25,6h1v1h-1zM10,7h1v1h-1zM11,7h1v1h-1zM17,7h1v1h-1zM18,7h1v1h-1zM17,8h1v1h-1zM18,8h1v1h-1zM10,9h1v1h-1zM11,9h1v1h-1zM17,9h1v1h-1zM18,9h1v1h-1zM24,9h1v1h-1zM25,9h1v1h-1zM10,10h1v1h-1zM11,10h1v1h-1zM17,10h1v1h-1zM18,10h1v1h-1zM10,11h1v1h-1zM11,11h1v1h-1zM17,11h1v1h-1zM18,11h1v1h-1zM24,11h1v1h-1zM25,11h1v1h-1zM10,12h1v1h-1zM11,12h1v1h-1zM17,12h1v1h-1zM18,12h1v1h-1zM24,12h1v1h-1zM25,12h1v1h-1zM10,13h1v1h-1zM11,13h1v1h-1zM24,13h1v1h-1zM25,13h1v1h-1zM10,14h1v1h-1zM11,14h1v1h-1zM17,14h1v1h-1zM18,14h1v1h-1zM24,14h1v1h-1zM25,14h1v1h-1zM10,15h1v1h-1zM11,15h1v1h-1zM17,15h1v1h-1zM18,15h1v1h-1zM24,15h1v1h-1zM25,15h1v1h-1zM17,16h1v1h-1zM18,16h1v1h-1zM24,16h1v1h-1zM25,16h1v1h-1zM10,17h1v1h-1zM11,17h1v1h-1zM17,17h1v1h-1zM18,17h1v1h-1zM24,17h1v1h-1zM25,17h1v1h-1zM10,18h1v1h-1zM11,18h1v1h-1zM17,18h1v1h-1zM18,18h1v1h-1zM10,19h1v1h-1zM11,19h1v1h-1zM17,19h1v1h-1zM18,19h1v1h-1zM24,19h1v1h-1zM25,19h1v1h-1zM10,20h1v1h-1zM11,20h1v1h-1zM24,20h1v1h-1zM25,20h1v1h-1zM10,21h1v1h-1zM11,21h1v1h-1zM17,21h1v1h-1zM18,21h1v1h-1zM24,21h1v1h-1zM25,21h1v1h-1zM10,22h1v1h-1zM11,22h1v1h-1zM17,22h1v1h-1zM18,22h1v1h-1zM24,22h1v1h-1zM25,22h1v1h-1zM10,23h1v1h-1zM11,23h1v1h-1zM17,23h1v1h-1zM18,23h1v1h-1zM24,23h1v1h-1zM25,23h1v1h-1zM17,24h1v1h-1zM18,24h1v1h-1zM24,24h1v1h-1zM25,24h1v1h-1zM10,25h1v1h-1zM11,25h1v1h-1zM17,25h1v1h-1zM18,25h1v1h-1zM24,25h1v1h-1zM25,25h1v1h-1zM10,26h1v1h-1zM11,26h1v1h-1zM17,26h1v1h-1zM18,26h1v1h-1zM10,27h1v1h-1zM11,27h1v1h-1zM17,27h1v1h-1zM18,27h1v1h-1zM24,27h1v1h-1zM25,27h1v1h-1zM10,28h1v1h-1zM11,28h1v1h-1zM17,28h1v1h-1zM18,28h1v1h-1zM24,28h1v1h-1zM25,28h1v1h-1z"/><path fill="#257179" d="M15,6h1v1h-1zM17,6h1v1h-1zM18,6h1v1h-1zM19,6h1v1h-1zM8,8h1v1h-1zM10,8h1v1h-1zM11,8h1v1h-1zM12,8h1v1h-1zM22,10h1v1h-1zM24,10h1v1h-1zM25,10h1v1h-1zM26,10h1v1h-1zM15,13h1v1h-1zM17,13h1v1h-1zM18,13h1v1h-1zM19,13h1v1h-1zM8,16h1v1h-1zM10,16h1v1h-1zM11,16h1v1h-1zM12,16h1v1h-1zM22,18h1v1h-1zM24,18h1v1h-1zM25,18h1v1h-1zM26,18h1v1h-1zM15,20h1v1h-1zM17,20h1v1h-1zM18,20h1v1h-1zM19,20h1v1h-1zM8,24h1v1h-1zM10,24h1v1h-1zM11,24h1v1h-1zM12,24h1v1h-1zM22,26h1v1h-1zM24,26h1v1h-1zM25,26h1v1h-1zM26,26h1v1h-1z"/><path fill="#1a1c2c" d="M20,7h1v1h-1zM23,7h1v1h-1z"/><path fill="#ffcd75" d="M21,7h1v1h-1zM24,7h1v1h-1zM20,8h1v1h-1zM21,8h1v1h-1zM23,8h1v1h-1zM24,8h1v1h-1zM25,8h1v1h-1z"/><path fill="#ef7d57" d="M25,7h1v1h-1zM22,8h1v1h-1z"/><path fill="#94b0c2" d="M6,28h1v1h-1zM14,29h1v1h-1z"/><path fill="#566c86" d="M5,29h1v1h-1zM6,29h1v1h-1zM7,29h1v1h-1zM8,29h1v1h-1zM9,29h1v1h-1zM26,29h1v1h-1zM27,29h1v1h-1zM28,29h1v1h-1zM29,29h1v1h-1zM5,30h1v1h-1zM6,30h1v1h-1zM7,30h1v1h-1zM8,30h1v1h-1zM9,30h1v1h-1zM13,30h1v1h-1zM14,30h1v1h-1zM15,30h1v1h-1zM16,30h1v1h-1zM17,30h1v1h-1zM26,30h1v1h-1zM27,30h1v1h-1zM28,30h1v1h-1zM29,30h1v1h-1zM5,31h1v1h-1zM6,31h1v1h-1zM7,31h1v1h-1zM8,31h1v1h-1zM9,31h1v1h-1zM13,31h1v1h-1zM14,31h1v1h-1zM15,31h1v1h-1zM16,31h1v1h-1zM17,31h1v1h-1zM26,31h1v1h-1zM27,31h1v1h-1zM28,31h1v1h-1zM29,31h1v1h-1z"/></svg>