<svg xmlns="http://www.w3.org/2000/svg" viewBox="0 0 32 32" shape-rendering="crispEdges"><path fill="#c8e6c9" d="M0,0h2v1h-2ZM4,0h3v1h-3ZM9,0h3v1h-3ZM14,0h5v1h-5ZM21,0h3v1h-3ZM26,0h3v1h-3ZM31,0h1v1h-1ZM0,1h2v1h-2ZM4,1h3v1h-3ZM9,1h3v1h-3ZM14,1h5v1h-5ZM21,1h3v1h-3ZM26,1h3v1h-3ZM31,1h1v1h-1ZM0,2h2v1h-2ZM4,2h3v1h-3ZM9,2h3v1h-3ZM14,2h2v1h-2ZM17,2h2v1h-2ZM21,2h3v1h-3ZM26,2h3v1h-3ZM31,2h1v1h-1ZM4,3h1v1h-1ZM9,3h1v1h-1ZM14,3h3v1h-3ZM21,3h1v1h-1ZM26,3h1v1h-1ZM31,3h1v1h-1ZM0,4h2v1h-2ZM6,4h1v1h-1ZM11,4h1v1h-1ZM16,4h3v1h-3ZM23,4h1v1h-1ZM28,4h1v1h-1ZM0,5h2v1h-2ZM4,5h3v1h-3ZM9,5h3v1h-3ZM14,5h5v1h-5ZM21,5h1v1h-1ZM23,5h1v1h-1ZM26,5h3v1h-3ZM31,5h1v1h-1ZM0,6h2v1h-2ZM4,6h1v1h-1ZM6,6h1v1h-1ZM9,6h3v1h-3ZM14,6h5v1h-5ZM21,6h3v1h-3ZM26,6h3v1h-3ZM31,6h1v1h-1ZM4,7h1v1h-1ZM9,7h1v1h-1ZM14,7h3v1h-3ZM21,7h1v1h-1ZM26,7h1v1h-1ZM31,7h1v1h-1ZM0,8h2v1h-2ZM6,8h1v1h-1ZM11,8h1v1h-1ZM16,8h1v1h-1ZM18,8h1v1h-1ZM23,8h1v1h-1ZM28,8h1v1h-1ZM0,9h2v1h-2ZM4,9h3v1h-3ZM9,9h3v1h-3ZM14,9h5v1h-5ZM21,9h3v1h-3ZM26,9h3v1h-3ZM31,9h1v1h-1ZM0,10h1v1h-1ZM4,10h2v1h-2ZM9,10h2v1h-2ZM14,10h4v1h-4ZM21,10h2v1h-2ZM26,10h2v1h-2ZM31,10h1v1h-1ZM0,11h2v1h-2ZM5,11h2v1h-2ZM10,11h1v1h-1ZM15,11h4v1h-4ZM22,11h2v1h-2ZM27,11h2v1h-2ZM0,12h2v1h-2ZM4,12h3v1h-3ZM9,12h3v1h-3ZM14,12h5v1h-5ZM21,12h3v1h-3ZM26,12h3v1h-3ZM31,12h1v1h-1ZM0,13h2v1h-2ZM4,13h3v1h-3ZM9,13h3v1h-3ZM14,13h5v1h-5ZM21,13h2v1h-2ZM26,13h3v1h-3ZM31,13h1v1h-1ZM0,14h2v1h-2ZM5,14h2v1h-2ZM9,14h3v1h-3ZM14,14h5v1h-5ZM21,14h3v1h-3ZM26,14h3v1h-3ZM31,14h1v1h-1ZM0,15h2v1h-2ZM4,15h3v1h-3ZM9,15h3v1h-3ZM14,15h5v1h-5ZM21,15h3v1h-3ZM26,15h3v1h-3ZM31,15h1v1h-1ZM4,16h1v1h-1ZM9,16h1v1h-1ZM14,16h3v1h-3ZM26,16h1v1h-1ZM31,16h1v1h-1ZM0,17h2v1h-2ZM6,17h1v1h-1ZM11,17h1v1h-1ZM16,17h3v1h-3ZM23,17h1v1h-1ZM28,17h1v1h-1ZM0,18h2v1h-2ZM4,18h3v1h-3ZM9,18h3v1h-3ZM14,18h1v1h-1ZM16,18h3v1h-3ZM21,18h3v1h-3ZM26,18h3v1h-3ZM31,18h1v1h-1ZM0,19h2v1h-2ZM4,19h3v1h-3ZM9,19h3v1h-3ZM14,19h5v1h-5ZM21,19h3v1h-3ZM26,19h3v1h-3ZM31,19h1v1h-1ZM0,20h2v1h-2ZM4,20h2v1h-2ZM9,20h3v1h-3ZM14,20h5v1h-5ZM21,20h3v1h-3ZM27,20h2v1h-2ZM31,20h1v1h-1ZM0,21h2v1h-2ZM4,21h3v1h-3ZM9,21h3v1h-3ZM14,21h5v1h-5ZM21,21h3v1h-3ZM26,21h3v1h-3ZM31,21h1v1h-1ZM0,22h2v1h-2ZM4,22h3v1h-3ZM9,22h3v1h-3ZM14,22h5v1h-5ZM21,22h3v1h-3ZM26,22h3v1h-3ZM31,22h1v1h-1ZM0,23h2v1h-2ZM4,23h3v1h-3ZM9,23h3v1h-3ZM14,23h5v1h-5ZM21,23h3v1h-3ZM26,23h3v1h-3ZM31,23h1v1h-1ZM0,24h2v1h-2ZM4,24h3v1h-3ZM9,24h3v1h-3ZM14,24h5v1h-5ZM21,24h3v1h-3ZM26,24h3v1h-3ZM31,24h1v1h-1ZM0,25h2v1h-2ZM4,25h3v1h-3ZM9,25h3v1h-3ZM14,25h5v1h-5ZM21,25h3v1h-3ZM26,25h3v1h-3ZM31,25h1v1h-1ZM0,26h2v1h-2ZM4,26h3v1h-3ZM9,26h1v1h-1ZM22,26h2v1h-2ZM26,26h3v1h-3ZM31,26h1v1h-1ZM0,27h2v1h-2ZM4,27h3v1h-3ZM23,27h1v1h-1ZM26,27h3v1h-3ZM31,27h1v1h-1ZM0,28h8v1h-8ZM24,28h8v1h-8ZM0,29h8v1h-8ZM24,29h8v1h-8ZM0,30h8v1h-8ZM24,30h8v1h-8ZM0,31h8v1h-8ZM24,31h8v1h-8Z"/><path fill="#38b764" d="M2,0h2v1h-2ZM12,0h2v1h-2ZM24,0h2v1h-2ZM2,1h2v1h-2ZM12,1h2v1h-2ZM24,1h2v1h-2ZM2,2h2v1h-2ZM12,2h2v1h-2ZM24,2h2v1h-2ZM0,3h4v1h-4ZM10,3h4v1h-4ZM22,3h4v1h-4ZM2,4h4v1h-4ZM12,4h4v1h-4ZM24,4h4v1h-4ZM2,6h2v1h-2ZM12,6h2v1h-2ZM24,6h2v1h-2ZM0,7h4v1h-4ZM10,7h4v1h-4ZM22,7h4v1h-4ZM2,8h4v1h-4ZM12,8h4v1h-4ZM24,8h4v1h-4ZM2,9h2v1h-2ZM12,9h2v1h-2ZM24,9h2v1h-2ZM1,10h3v1h-3ZM11,10h3v1h-3ZM23,10h3v1h-3ZM2,11h3v1h-3ZM12,11h3v1h-3ZM24,11h3v1h-3ZM2,13h2v1h-2ZM12,13h2v1h-2ZM24,13h2v1h-2ZM2,14h2v1h-2ZM12,14h2v1h-2ZM24,14h2v1h-2ZM2,15h2v1h-2ZM12,15h2v1h-2ZM24,15h2v1h-2ZM0,16h4v1h-4ZM10,16h4v1h-4ZM22,16h4v1h-4ZM2,17h4v1h-4ZM12,17h4v1h-4ZM24,17h4v1h-4ZM2,18h2v1h-2ZM12,18h2v1h-2ZM24,18h2v1h-2ZM2,20h2v1h-2ZM12,20h2v1h-2ZM24,20h2v1h-2ZM2,21h2v1h-2ZM12,21h2v1h-2ZM24,21h2v1h-2ZM2,22h2v1h-2ZM12,22h2v1h-2ZM24,22h2v1h-2ZM2,23h2v1h-2ZM12,23h2v1h-2ZM24,23h2v1h-2ZM2,24h2v1h-2ZM12,24h2v1h-2ZM24,24h2v1h-2ZM2,25h2v1h-2ZM12,25h2v1h-2ZM24,25h2v1h-2ZM2,26h2v1h-2ZM12,26h2v1h-2ZM24,26h2v1h-2ZM2,27h2v1h-2ZM12,27h2v1h-2ZM24,27h2v1h-2Z"/><path fill="#a7f070" d="M7,0h2v1h-2ZM19,0h2v1h-2ZM29,0h2v1h-2ZM7,1h2v1h-2ZM19,1h2v1h-2ZM29,1h2v1h-2ZM7,2h2v1h-2ZM19,2h2v1h-2ZM29,2h2v1h-2ZM5,3h4v1h-4ZM17,3h4v1h-4ZM28,3h3v1h-3ZM7,4h3v1h-3ZM19,4h4v1h-4ZM29,4h3v1h-3ZM7,6h2v1h-2ZM19,6h2v1h-2ZM29,6h2v1h-2ZM5,7h4v1h-4ZM17,7h4v1h-4ZM27,7h4v1h-4ZM7,8h4v1h-4ZM19,8h4v1h-4ZM29,8h3v1h-3ZM7,9h2v1h-2ZM19,9h2v1h-2ZM29,9h2v1h-2ZM6,10h3v1h-3ZM18,10h3v1h-3ZM29,10h2v1h-2ZM7,11h3v1h-3ZM19,11h3v1h-3ZM29,11h3v1h-3ZM7,13h2v1h-2ZM19,13h2v1h-2ZM29,13h2v1h-2ZM7,14h2v1h-2ZM19,14h2v1h-2ZM29,14h2v1h-2ZM7,15h2v1h-2ZM19,15h2v1h-2ZM29,15h2v1h-2ZM5,16h4v1h-4ZM17,16h4v1h-4ZM27,16h4v1h-4ZM7,17h4v1h-4ZM19,17h4v1h-4ZM29,17h3v1h-3ZM7,18h2v1h-2ZM19,18h2v1h-2ZM29,18h2v1h-2ZM7,20h2v1h-2ZM19,20h2v1h-2ZM29,20h2v1h-2ZM7,21h2v1h-2ZM19,21h2v1h-2ZM29,21h2v1h-2ZM7,22h2v1h-2ZM19,22h2v1h-2ZM29,22h2v1h-2ZM7,23h2v1h-2ZM19,23h2v1h-2ZM29,23h2v1h-2ZM7,24h2v1h-2ZM19,24h2v1h-2ZM29,24h2v1h-2ZM7,25h2v1h-2ZM19,25h2v1h-2ZM29,25h2v1h-2ZM7,26h2v1h-2ZM19,26h2v1h-2ZM29,26h2v1h-2ZM7,27h2v1h-2ZM19,27h2v1h-2ZM29,27h2v1h-2Z"/><path fill="#ffcd75" d="M16,2h1v1h-1ZM27,3h1v1h-1ZM10,4h1v1h-1ZM22,5h1v1h-1ZM5,6h1v1h-1ZM17,8h1v1h-1ZM28,10h1v1h-1ZM11,11h1v1h-1ZM23,13h1v1h-1ZM4,14h1v1h-1ZM21,16h1v1h-1ZM15,18h1v1h-1ZM6,20h1v1h-1ZM26,20h1v1h-1Z"/><path fill="#257179" d="M2,5h2v1h-2ZM7,5h2v1h-2ZM12,5h2v1h-2ZM19,5h2v1h-2ZM24,5h2v1h-2ZM29,5h2v1h-2ZM2,12h2v1h-2ZM7,12h2v1h-2ZM12,12h2v1h-2ZM19,12h2v1h-2ZM24,12h2v1h-2ZM29,12h2v1h-2ZM2,19h2v1h-2ZM7,19h2v1h-2ZM12,19h2v1h-2ZM19,19h2v1h-2ZM24,19h2v1h-2ZM29,19h2v1h-2Z"/><path fill="#ffecd2" d="M10,26h2v1h-2ZM14,26h5v1h-5ZM21,26h1v1h-1ZM9,27h3v1h-3ZM14,27h5v1h-5ZM21,27h2v1h-2ZM9,28h14v1h-14ZM9,29h14v1h-14ZM9,30h14v1h-14ZM9,31h14v1h-14Z"/><path fill="#8b5e34" d="M8,28h1v1h-1ZM23,28h1v1h-1ZM8,29h1v1h-1ZM23,29h1v1h-1ZM8,30h1v1h-1ZM23,30h1v1h-1ZM8,31h1v1h-1ZM23,31h1v1h-1Z"/></svg>