<svg xmlns="http://www.w3.org/2000/svg" width="32" height="32" viewBox="0 0 32 32" shape-rendering="crispEdges">
<path fill="#f4f4f4" d="M14 6h1v1h-1zM11 7h7v1h-7zM10 8h9v1h-9zM8 9h13v1h-13zM9 10h11v1h-11zM7 11h15v1h-15zM7 12h1v1h-1zM9 12h3v1h-3zM13 12h3v1h-3zM17 12h3v1h-3zM21 12h1v1h-1zM7 13h15v1h-15zM6 14h3v1h-3zM12 14h5v1h-5zM20 14h3v1h-3zM7 15h6v1h-6zM15 15h7v1h-7zM7 16h2v1h-2zM10 16h9v1h-9zM20 16h2v1h-2zM7 17h15v1h-15zM8 18h2v1h-2zM11 18h7v1h-7zM19 18h2v1h-2zM8 19h13v1h-13zM9 20h2v1h-2zM12 20h5v1h-5zM18 20h2v1h-2zM11 21h7v1h-7zM14 22h1v1h-1z"/><path fill="#8b5e34" d="M24 6h2v1h-2zM23 7h3v1h-3zM22 8h2v1h-2zM21 9h2v1h-2zM20 10h2v1h-2zM22 16h2v1h-2zM22 17h2v1h-2zM23 18h2v1h-2zM24 19h2v1h-2zM24 20h2v1h-2zM25 21h2v1h-2zM26 22h2v1h-2zM26 23h2v1h-2zM23 24h2v1h-2zM26 24h1v1h-1zM24 25h3v1h-3zM25 26h2v1h-2zM26 27h2v1h-2z"/><path fill="#b13e53" d="M10 7h1v1h-1zM18 7h1v1h-1zM9 8h1v1h-1zM19 8h1v1h-1zM8 10h1v1h-1zM8 12h1v1h-1zM20 12h1v1h-1zM9 14h1v1h-1zM19 14h1v1h-1zM9 16h1v1h-1zM19 16h1v1h-1zM10 18h1v1h-1zM18 18h1v1h-1zM11 20h1v1h-1zM17 20h1v1h-1zM25 28h3v1h-3z"/><path fill="#1a1c2c" d="M12 12h1v1h-1zM16 12h1v1h-1zM13 15h2v1h-2z"/><path fill="#ff9eb7" d="M10 14h2v1h-2zM17 14h2v1h-2z"/>
</svg>