<svg xmlns="http://www.w3.org/2000/svg" viewBox="0 0 32 32" shape-rendering="crispEdges"><path fill="#333c57" d="M15,0h1v1h-1zM8,1h1v1h-1zM15,1h1v1h-1zM22,1h1v1h-1zM8,2h1v1h-1zM22,2h1v1h-1z"/><path fill="#1a1c2c" d="M15,3h1v1h-1zM15,4h1v1h-1zM11,5h1v1h-1zM15,5h1v1h-1zM19,5h1v1h-1zM15,6h1v1h-1zM10,7h1v1h-1zM15,7h1v1h-1zM20,7h1v1h-1zM15,8h1v1h-1zM10,9h1v1h-1zM15,9h1v1h-1zM20,9h1v1h-1zM15,10h1v1h-1zM10,11h1v1h-1zM12,11h1v1h-1zM15,11h1v1h-1zM18,11h1v1h-1zM20,11h1v1h-1zM15,12h1v1h-1zM5,13h21v1h-21zM15,14h1v1h-1zM11,15h1v1h-1zM14,15h3v1h-3zM19,15h1v1h-1zM15,16h1v1h-1zM10,17h1v1h-1zM15,17h1v1h-1zM20,17h1v1h-1zM15,18h1v1h-1zM10,19h1v1h-1zM15,19h1v1h-1zM20,19h1v1h-1zM15,20h1v1h-1zM11,21h1v1h-1zM15,21h1v1h-1zM19,21h1v1h-1zM15,22h1v1h-1zM15,23h1v1h-1z"/><path fill="#b13e53" d="M11,4h4v1h-4zM16,4h4v1h-4zM9,5h2v1h-2zM12,5h1v1h-1zM18,5h1v1h-1zM20,5h2v1h-2zM8,6h3v1h-3zM20,6h3v1h-3zM7,7h2v1h-2zM22,7h2v1h-2zM7,8h2v1h-2zM22,8h2v1h-2zM6,9h2v1h-2zM23,9h2v1h-2zM6,10h2v1h-2zM23,10h2v1h-2zM6,11h1v1h-1zM24,11h1v1h-1zM6,12h1v1h-1zM24,12h1v1h-1zM6,14h1v1h-1zM24,14h1v1h-1zM6,15h1v1h-1zM24,15h1v1h-1zM6,16h2v1h-2zM23,16h2v1h-2zM6,17h2v1h-2zM23,17h2v1h-2zM7,18h2v1h-2zM22,18h2v1h-2zM7,19h2v1h-2zM22,19h2v1h-2zM8,20h3v1h-3zM20,20h3v1h-3zM9,21h2v1h-2zM12,21h1v1h-1zM18,21h1v1h-1zM20,21h2v1h-2zM11,22h4v1h-4zM16,22h4v1h-4z"/><path fill="#ef7d57" d="M13,5h2v1h-2zM16,5h2v1h-2zM11,6h4v1h-4zM16,6h4v1h-4zM9,7h1v1h-1zM11,7h4v1h-4zM16,7h4v1h-4zM21,7h1v1h-1zM9,8h6v1h-6zM16,8h6v1h-6zM8,9h2v1h-2zM11,9h4v1h-4zM16,9h4v1h-4zM21,9h2v1h-2zM8,10h4v1h-4zM13,10h2v1h-2zM16,10h2v1h-2zM19,10h4v1h-4zM7,11h3v1h-3zM11,11h1v1h-1zM13,11h2v1h-2zM16,11h2v1h-2zM19,11h1v1h-1zM21,11h3v1h-3zM7,12h3v1h-3zM11,12h4v1h-4zM16,12h4v1h-4zM21,12h3v1h-3zM7,14h8v1h-8zM16,14h8v1h-8zM7,15h4v1h-4zM12,15h2v1h-2zM17,15h2v1h-2zM20,15h4v1h-4zM8,16h7v1h-7zM16,16h7v1h-7zM8,17h2v1h-2zM11,17h4v1h-4zM16,17h4v1h-4zM21,17h2v1h-2zM9,18h6v1h-6zM16,18h6v1h-6zM9,19h1v1h-1zM11,19h4v1h-4zM16,19h4v1h-4zM21,19h1v1h-1zM11,20h4v1h-4zM16,20h4v1h-4zM13,21h2v1h-2zM16,21h2v1h-2z"/><path fill="#f4f4f4" d="M12,10h1v1h-1zM18,10h1v1h-1z"/><path fill="#ff9eb7" d="M10,12h1v1h-1zM20,12h1v1h-1z"/><path fill="#566c86" d="M10,24h11v1h-11z"/><path fill="#94b0c2" d="M12,25h7v1h-7z"/></svg>