<svg xmlns="http://www.w3.org/2000/svg" viewBox="0 0 32 32" shape-rendering="crispEdges"><path fill="#8b5e34" d="M10,1h1v1h-1zM22,1h1v1h-1zM8,2h2v1h-2zM11,2h2v1h-2zM20,2h2v1h-2zM23,2h2v1h-2zM8,3h1v1h-1zM12,3h1v1h-1zM16,3h1v1h-1zM20,3h1v1h-1zM24,3h1v1h-1zM7,4h1v1h-1zM12,4h9v1h-9zM25,4h1v1h-1zM8,5h1v1h-1zM11,5h11v1h-11zM24,5h1v1h-1zM8,6h17v1h-17zM9,7h15v1h-15zM9,8h15v1h-15zM9,9h3v1h-3zM15,9h4v1h-4zM22,9h2v1h-2zM8,10h4v1h-4zM15,10h1v1h-1zM17,10h2v1h-2zM22,10h3v1h-3zM9,11h3v1h-3zM22,11h2v1h-2zM11,12h2v1h-2zM20,12h2v1h-2zM9,13h3v1h-3zM21,13h3v1h-3zM10,14h3v1h-3zM20,14h3v1h-3zM11,15h3v1h-3zM19,15h3v1h-3zM9,16h1v1h-1zM12,16h9v1h-9zM23,16h1v1h-1zM8,17h3v1h-3zM13,17h7v1h-7zM22,17h3v1h-3zM7,18h19v1h-19zM7,19h9v1h-9zM17,19h9v1h-9zM6,20h7v1h-7zM20,20h7v1h-7zM7,21h5v1h-5zM21,21h5v1h-5zM7,22h5v1h-5zM21,22h5v1h-5zM8,23h3v1h-3zM22,23h3v1h-3zM9,24h3v1h-3zM21,24h3v1h-3zM10,25h3v1h-3zM20,25h3v1h-3zM10,26h5v1h-5zM18,26h5v1h-5zM9,27h7v1h-7zM17,27h7v1h-7zM10,28h5v1h-5zM16,28h1v1h-1zM18,28h5v1h-5zM12,29h1v1h-1zM20,29h1v1h-1z"/><path fill="#ffecd2" d="M10,2h1v1h-1zM22,2h1v1h-1zM9,3h3v1h-3zM21,3h3v1h-3zM8,4h4v1h-4zM21,4h4v1h-4zM9,5h2v1h-2zM22,5h2v1h-2zM16,10h1v1h-1zM15,11h4v1h-4zM13,12h2v1h-2zM18,12h2v1h-2zM12,13h3v1h-3zM18,13h3v1h-3zM13,14h1v1h-1zM15,14h3v1h-3zM19,14h1v1h-1zM14,15h1v1h-1zM18,15h1v1h-1z"/><path fill="#f4f4f4" d="M12,9h1v1h-1zM19,9h1v1h-1z"/><path fill="#1a1c2c" d="M13,9h2v1h-2zM20,9h2v1h-2zM12,10h3v1h-3zM19,10h3v1h-3zM12,11h3v1h-3zM19,11h3v1h-3zM15,12h3v1h-3zM15,13h3v1h-3zM14,14h1v1h-1zM18,14h1v1h-1zM15,15h3v1h-3z"/><path fill="#ff9eb7" d="M9,12h2v1h-2zM22,12h2v1h-2z"/><path fill="#ef7d57" d="M16,19h1v1h-1zM13,20h1v1h-1zM18,20h2v1h-2zM12,21h2v1h-2zM18,21h3v1h-3zM12,22h3v1h-3zM17,22h4v1h-4zM11,23h5v1h-5zM17,23h5v1h-5zM12,24h9v1h-9zM13,25h7v1h-7zM15,26h3v1h-3zM16,27h1v1h-1z"/><path fill="#ff6b8a" d="M14,20h1v1h-1z"/><path fill="#b13e53" d="M15,20h3v1h-3zM14,21h4v1h-4zM15,22h2v1h-2zM16,23h1v1h-1z"/></svg>