<svg xmlns="http://www.w3.org/2000/svg" viewBox="0 0 32 32" shape-rendering="crispEdges"><path fill="#ffcd75" d="M26,3h1v1h-1ZM6,4h1v1h-1ZM12,6h8v1h-8ZM28,6h1v1h-1ZM3,7h1v1h-1ZM11,7h1v1h-1ZM15,7h2v1h-2ZM20,7h1v1h-1ZM11,8h1v1h-1ZM15,8h2v1h-2ZM20,8h1v1h-1ZM15,9h2v1h-2ZM12,10h3v1h-3ZM17,10h3v1h-3ZM11,11h10v1h-10ZM11,12h10v1h-10ZM2,15h1v1h-1ZM10,15h12v1h-12ZM10,16h12v1h-12ZM29,16h1v1h-1ZM10,19h12v1h-12ZM10,20h12v1h-12ZM12,23h1v1h-1ZM14,23h4v1h-4ZM19,23h1v1h-1ZM15,24h2v1h-2ZM8,26h1v1h-1ZM24,27h1v1h-1Z"/><path fill="#1a1c2c" d="M12,4h1v1h-1ZM20,4h1v1h-1ZM13,5h1v1h-1ZM19,5h1v1h-1ZM13,8h2v1h-2ZM17,8h2v1h-2ZM13,9h2v1h-2ZM17,9h2v1h-2ZM10,13h12v1h-12ZM10,14h12v1h-12ZM10,17h12v1h-12ZM10,18h12v1h-12ZM11,21h10v1h-10ZM10,22h12v1h-12ZM10,23h1v1h-1ZM13,23h1v1h-1ZM18,23h1v1h-1ZM21,23h1v1h-1ZM13,24h1v1h-1ZM18,24h1v1h-1Z"/><path fill="#f4f4f4" d="M12,7h3v1h-3ZM17,7h3v1h-3ZM12,8h1v1h-1ZM19,8h1v1h-1ZM5,9h4v1h-4ZM23,9h4v1h-4ZM6,11h2v1h-2ZM24,11h2v1h-2Z"/><path fill="#ff9eb7" d="M11,9h2v1h-2ZM19,9h2v1h-2Z"/><path fill="#94b0c2" d="M4,10h6v1h-6ZM22,10h6v1h-6ZM4,11h2v1h-2ZM8,11h2v1h-2ZM22,11h2v1h-2ZM26,11h2v1h-2ZM4,12h6v1h-6ZM22,12h6v1h-6ZM4,13h6v1h-6ZM22,13h6v1h-6ZM5,14h4v1h-4ZM23,14h4v1h-4Z"/><path fill="#b13e53" d="M15,10h2v1h-2Z"/><path fill="#ef7d57" d="M15,25h2v1h-2Z"/></svg>