<svg xmlns="http://www.w3.org/2000/svg" viewBox="0 0 32 32" shape-rendering="crispEdges"><path fill="#8b5e34" d="M6,3h23v1h-23zM6,5h23v1h-23zM3,7h26v1h-26zM3,8h1v1h-1zM16,8h1v1h-1zM28,8h1v1h-1zM3,9h1v1h-1zM16,9h1v1h-1zM28,9h1v1h-1zM3,10h1v1h-1zM16,10h1v1h-1zM28,10h1v1h-1zM3,11h1v1h-1zM16,11h1v1h-1zM28,11h1v1h-1zM3,12h1v1h-1zM16,12h1v1h-1zM28,12h1v1h-1zM3,13h1v1h-1zM16,13h1v1h-1zM28,13h1v1h-1zM3,14h1v1h-1zM16,14h1v1h-1zM28,14h1v1h-1zM3,15h1v1h-1zM16,15h1v1h-1zM28,15h1v1h-1zM3,16h1v1h-1zM16,16h1v1h-1zM28,16h1v1h-1zM3,17h1v1h-1zM16,17h1v1h-1zM28,17h1v1h-1zM3,18h14v1h-14zM28,18h1v1h-1zM3,19h1v1h-1zM16,19h1v1h-1zM28,19h1v1h-1zM3,20h1v1h-1zM16,20h1v1h-1zM28,20h1v1h-1zM3,21h1v1h-1zM16,21h1v1h-1zM3,22h1v1h-1zM16,22h1v1h-1zM28,22h1v1h-1zM3,23h1v1h-1zM16,23h1v1h-1zM28,23h1v1h-1zM3,24h1v1h-1zM12,24h1v1h-1zM28,24h1v1h-1zM3,25h1v1h-1zM16,25h1v1h-1zM28,25h1v1h-1zM3,26h1v1h-1zM14,26h1v1h-1zM16,26h1v1h-1zM28,26h1v1h-1zM3,27h1v1h-1zM16,27h1v1h-1zM28,27h1v1h-1zM3,28h26v1h-26z"/><path fill="#ef7d57" d="M29,3h1v1h-1zM29,5h1v1h-1zM4,21h5v1h-5zM24,25h1v1h-1z"/><path fill="#f4f4f4" d="M4,8h12v1h-12zM4,9h12v1h-12zM4,10h2v1h-2zM7,10h4v1h-4zM12,10h4v1h-4zM4,11h3v1h-3zM8,11h2v1h-2zM11,11h1v1h-1zM13,11h3v1h-3zM4,12h1v1h-1zM7,12h1v1h-1zM12,12h1v1h-1zM15,12h1v1h-1zM4,13h4v1h-4zM13,13h3v1h-3zM4,14h1v1h-1zM6,14h3v1h-3zM12,14h1v1h-1zM14,14h2v1h-2zM4,15h6v1h-6zM11,15h5v1h-5zM4,16h5v1h-5zM10,16h6v1h-6zM4,17h12v1h-12z"/><path fill="#1a1c2c" d="M17,8h11v1h-11zM17,9h11v1h-11zM17,10h2v1h-2zM22,10h3v1h-3zM26,10h2v1h-2zM7,11h1v1h-1zM12,11h1v1h-1zM17,11h3v1h-3zM21,11h3v1h-3zM27,11h1v1h-1zM9,12h2v1h-2zM17,12h2v1h-2zM20,12h1v1h-1zM22,12h1v1h-1zM8,13h1v1h-1zM11,13h1v1h-1zM17,13h2v1h-2zM22,13h2v1h-2zM27,13h1v1h-1zM17,14h2v1h-2zM22,14h3v1h-3zM26,14h2v1h-2zM17,15h1v1h-1zM19,15h3v1h-3zM23,15h5v1h-5zM17,16h2v1h-2zM20,16h1v1h-1zM22,16h6v1h-6zM17,17h11v1h-11zM17,18h11v1h-11zM9,19h7v1h-7zM17,19h4v1h-4zM22,19h4v1h-4zM27,19h1v1h-1zM9,20h3v1h-3zM13,20h3v1h-3zM17,20h3v1h-3zM23,20h2v1h-2zM9,21h2v1h-2zM14,21h2v1h-2zM17,21h2v1h-2zM9,22h1v1h-1zM15,22h1v1h-1zM17,22h3v1h-3zM23,22h2v1h-2zM9,23h2v1h-2zM17,23h4v1h-4zM22,23h4v1h-4zM27,23h1v1h-1zM9,24h3v1h-3zM17,24h6v1h-6zM27,24h1v1h-1zM4,25h9v1h-9zM17,25h6v1h-6zM27,25h1v1h-1zM4,26h10v1h-10zM15,26h1v1h-1zM17,26h6v1h-6zM27,26h1v1h-1zM4,27h12v1h-12zM17,27h11v1h-11z"/><path fill="#ffecd2" d="M6,10h1v1h-1zM11,10h1v1h-1zM8,12h1v1h-1zM5,14h1v1h-1zM13,14h1v1h-1zM9,16h1v1h-1z"/><path fill="#b13e53" d="M19,10h3v1h-3zM10,11h1v1h-1zM20,11h1v1h-1zM24,11h3v1h-3zM11,12h1v1h-1zM19,12h1v1h-1zM21,12h1v1h-1zM23,12h5v1h-5zM9,13h2v1h-2zM12,13h1v1h-1zM19,13h3v1h-3zM24,13h3v1h-3zM9,14h3v1h-3zM19,14h3v1h-3zM25,14h1v1h-1zM10,15h1v1h-1zM18,15h1v1h-1zM22,15h1v1h-1zM19,16h1v1h-1zM21,16h1v1h-1zM20,20h3v1h-3zM25,20h3v1h-3zM19,21h10v1h-10zM20,22h3v1h-3zM25,22h3v1h-3zM21,23h1v1h-1zM26,23h1v1h-1z"/><path fill="#38b764" d="M25,10h1v1h-1zM21,19h1v1h-1zM26,19h1v1h-1zM12,20h1v1h-1zM11,21h3v1h-3zM10,22h5v1h-5zM11,23h5v1h-5zM13,24h4v1h-4zM13,25h3v1h-3z"/><path fill="#ff9eb7" d="M5,12h2v1h-2zM13,12h2v1h-2z"/><path fill="#ffcd75" d="M4,19h5v1h-5zM4,20h5v1h-5zM4,22h5v1h-5zM4,23h5v1h-5zM4,24h5v1h-5zM23,24h4v1h-4zM23,25h1v1h-1zM25,25h2v1h-2zM23,26h4v1h-4z"/></svg>