<svg xmlns="http://www.w3.org/2000/svg" viewBox="0 0 32 32" shape-rendering="crispEdges"><path fill="#566c86" d="M21 12h3v1h-3zM22 13h1v1h-1zM22 14h1v1h-1zM22 15h1v1h-1zM22 16h1v1h-1zM8 20h1v1h-1zM24 20h1v1h-1zM24 23h1v1h-1zM4 24h1v1h-1zM8 24h2v1h-2zM12 24h1v1h-1zM20 24h1v1h-1zM23 24h3v1h-3zM28 24h1v1h-1zM8 25h1v1h-1zM24 25h1v1h-1zM8 28h1v1h-1zM24 28h1v1h-1zM0 29h6v1h-6zM11 29h11v1h-11zM27 29h5v1h-5z"/><path fill="#ff9eb7" d="M26 12h1v1h-1zM14 20h1v1h-1zM18 20h1v1h-1z"/><path fill="#8b5e34" d="M24 13h1v1h-1zM26 13h1v1h-1zM14 14h4v1h-4zM24 14h1v1h-1zM27 14h1v1h-1zM14 15h4v1h-4zM24 15h4v1h-4z"/><path fill="#ffcd75" d="M25 13h1v1h-1zM27 13h1v1h-1z"/><path fill="#f4f4f4" d="M25 14h2v1h-2z"/><path fill="#b13e53" d="M14 16h3v1h-3zM16 17h2v1h-2zM15 18h1v1h-1zM18 18h1v1h-1zM19 19h2v1h-2zM21 20h1v1h-1zM14 21h1v1h-1zM13 22h1v1h-1zM20 22h2v1h-2zM7 23h13v1h-13zM22 23h2v1h-2zM7 24h1v1h-1z"/><path fill="#1a1c2c" d="M6 19h5v1h-5zM15 19h1v1h-1zM17 19h1v1h-1zM22 19h5v1h-5zM5 20h1v1h-1zM11 20h1v1h-1zM16 20h1v1h-1zM27 20h1v1h-1zM4 21h1v1h-1zM12 21h1v1h-1zM20 21h1v1h-1zM28 21h1v1h-1zM3 22h1v1h-1zM19 22h1v1h-1zM29 22h1v1h-1zM3 23h1v1h-1zM29 23h1v1h-1zM3 24h1v1h-1zM13 24h1v1h-1zM19 24h1v1h-1zM29 24h1v1h-1zM3 25h1v1h-1zM13 25h1v1h-1zM19 25h1v1h-1zM29 25h1v1h-1zM3 26h1v1h-1zM13 26h1v1h-1zM19 26h1v1h-1zM29 26h1v1h-1zM4 27h1v1h-1zM12 27h1v1h-1zM20 27h1v1h-1zM28 27h1v1h-1zM5 28h1v1h-1zM11 28h1v1h-1zM21 28h1v1h-1zM27 28h1v1h-1zM6 29h5v1h-5zM22 29h5v1h-5z"/></svg>