<svg xmlns="http://www.w3.org/2000/svg" viewBox="0 0 32 32" shape-rendering="crispEdges"><path fill="#b13e53" d="M18,1h2v1h-2zM18,2h1v1h-1zM19,3h1v1h-1zM19,4h1v1h-1zM20,5h1v1h-1zM19,6h1v1h-1zM19,7h1v1h-1z"/><path fill="#333c57" d="M10,5h10v1h-10zM21,5h1v1h-1zM10,6h9v1h-9zM20,6h2v1h-2zM14,15h1v1h-1zM18,15h1v1h-1zM13,16h1v1h-1zM15,16h1v1h-1zM17,16h1v1h-1zM19,16h1v1h-1zM15,18h1v1h-1zM17,18h1v1h-1zM16,19h1v1h-1z"/><path fill="#94b0c2" d="M10,7h1v1h-1zM21,7h1v1h-1zM10,8h1v1h-1zM21,8h1v1h-1zM10,9h1v1h-1zM21,9h1v1h-1zM10,10h1v1h-1zM21,10h1v1h-1zM10,11h1v1h-1zM21,11h1v1h-1zM10,12h1v1h-1zM21,12h1v1h-1zM10,13h1v1h-1zM21,13h1v1h-1zM10,14h1v1h-1zM21,14h1v1h-1zM10,15h1v1h-1zM21,15h1v1h-1zM10,16h1v1h-1zM21,16h1v1h-1zM10,17h1v1h-1zM21,17h1v1h-1zM10,18h1v1h-1zM21,18h1v1h-1zM10,19h1v1h-1zM21,19h1v1h-1zM10,20h1v1h-1zM21,20h1v1h-1zM10,21h1v1h-1zM21,21h1v1h-1zM10,22h1v1h-1zM21,22h1v1h-1zM10,23h2v1h-2zM20,23h2v1h-2zM10,24h1v1h-1zM12,24h1v1h-1zM21,24h1v1h-1zM10,25h1v1h-1zM13,25h1v1h-1zM21,25h1v1h-1zM13,26h6v1h-6z"/><path fill="#ffecd2" d="M11,8h10v1h-10zM11,9h10v1h-10zM11,10h10v1h-10zM11,11h10v1h-10zM11,12h10v1h-10zM11,13h10v1h-10z"/><path fill="#ef7d57" d="M11,14h10v1h-10zM11,15h3v1h-3zM15,15h3v1h-3zM19,15h2v1h-2zM11,16h2v1h-2zM14,16h1v1h-1zM16,16h1v1h-1zM18,16h1v1h-1zM20,16h1v1h-1zM11,17h1v1h-1zM14,17h5v1h-5zM11,18h4v1h-4zM16,18h1v1h-1zM18,18h3v1h-3zM11,19h5v1h-5zM17,19h4v1h-4zM11,20h10v1h-10zM11,21h10v1h-10zM11,22h10v1h-10zM12,23h4v1h-4zM18,23h2v1h-2zM13,24h1v1h-1zM16,24h2v1h-2zM14,25h1v1h-1z"/><path fill="#ff9eb7" d="M12,17h2v1h-2zM19,17h2v1h-2z"/><path fill="#5c3a1e" d="M16,23h1v1h-1zM14,24h1v1h-1zM18,24h1v1h-1zM15,25h1v1h-1zM17,25h1v1h-1z"/><path fill="#8b5e34" d="M17,23h1v1h-1zM15,24h1v1h-1zM19,24h1v1h-1zM16,25h1v1h-1zM18,25h1v1h-1z"/></svg>