<svg xmlns="http://www.w3.org/2000/svg" viewBox="0 0 32 32" shape-rendering="crispEdges"><path fill="#ffcd75" d="M14,0h1v1h-1zM13,1h1v1h-1zM14,1h1v1h-1zM15,1h1v1h-1zM18,1h1v1h-1zM8,2h1v1h-1zM14,2h1v1h-1zM17,2h1v1h-1zM18,2h1v1h-1zM19,2h1v1h-1zM5,3h1v1h-1zM7,3h1v1h-1zM8,3h1v1h-1zM9,3h1v1h-1zM18,3h1v1h-1zM4,4h1v1h-1zM5,4h1v1h-1zM6,4h1v1h-1zM8,4h1v1h-1zM23,4h1v1h-1zM5,5h1v1h-1zM22,5h1v1h-1zM23,5h1v1h-1zM24,5h1v1h-1zM23,6h1v1h-1zM6,9h1v1h-1zM20,9h1v1h-1zM5,10h1v1h-1zM6,10h1v1h-1zM7,10h1v1h-1zM8,10h1v1h-1zM9,10h1v1h-1zM10,10h1v1h-1zM11,10h1v1h-1zM12,10h1v1h-1zM13,10h1v1h-1zM14,10h1v1h-1zM15,10h1v1h-1zM16,10h1v1h-1zM17,10h1v1h-1zM18,10h1v1h-1zM19,10h1v1h-1zM20,10h1v1h-1zM6,11h1v1h-1zM7,11h1v1h-1zM8,11h1v1h-1zM9,11h1v1h-1zM10,11h1v1h-1zM12,11h1v1h-1zM13,11h1v1h-1zM14,11h1v1h-1zM15,11h1v1h-1zM16,11h1v1h-1zM18,11h1v1h-1zM19,11h1v1h-1zM20,11h1v1h-1zM5,12h1v1h-1zM6,12h1v1h-1zM7,12h1v1h-1zM8,12h1v1h-1zM11,12h1v1h-1zM12,12h1v1h-1zM16,12h1v1h-1zM17,12h1v1h-1zM20,12h1v1h-1z"/><path fill="#ffecd2" d="M8,7h1v1h-1zM9,7h1v1h-1zM10,7h1v1h-1zM11,7h1v1h-1zM12,7h1v1h-1zM14,7h1v1h-1zM15,7h1v1h-1zM16,7h1v1h-1zM17,7h1v1h-1zM18,7h1v1h-1zM7,8h1v1h-1zM8,8h1v1h-1zM12,8h1v1h-1zM14,8h1v1h-1zM18,8h1v1h-1zM19,8h1v1h-1zM7,9h1v1h-1zM8,9h1v1h-1zM11,9h1v1h-1zM12,9h1v1h-1zM14,9h1v1h-1zM19,9h1v1h-1z"/><path fill="#94b0c2" d="M13,7h1v1h-1zM9,8h1v1h-1zM10,8h1v1h-1zM11,8h1v1h-1zM13,8h1v1h-1zM15,8h1v1h-1zM16,8h1v1h-1zM17,8h1v1h-1zM9,9h1v1h-1zM10,9h1v1h-1zM13,9h1v1h-1zM15,9h1v1h-1zM16,9h1v1h-1zM17,9h1v1h-1zM18,9h1v1h-1z"/><path fill="#ef7d57" d="M5,9h1v1h-1zM5,11h1v1h-1zM25,22h1v1h-1zM26,22h1v1h-1zM27,22h1v1h-1zM28,22h1v1h-1z"/><path fill="#1a1c2c" d="M11,11h1v1h-1zM17,11h1v1h-1zM13,12h1v1h-1zM14,12h1v1h-1zM15,12h1v1h-1z"/><path fill="#ff9eb7" d="M9,12h1v1h-1zM10,12h1v1h-1zM18,12h1v1h-1zM19,12h1v1h-1zM4,15h1v1h-1zM4,17h1v1h-1z"/><path fill="#5d275d" d="M4,14h1v1h-1zM4,16h1v1h-1z"/><path fill="#b13e53" d="M5,14h1v1h-1zM6,14h1v1h-1zM7,14h1v1h-1zM8,14h1v1h-1zM9,14h1v1h-1zM10,14h1v1h-1zM11,14h1v1h-1zM12,14h1v1h-1zM13,14h1v1h-1zM14,14h1v1h-1zM15,14h1v1h-1zM16,14h1v1h-1zM17,14h1v1h-1zM18,14h1v1h-1zM19,14h1v1h-1zM20,14h1v1h-1zM5,15h1v1h-1zM6,15h1v1h-1zM7,15h1v1h-1zM8,15h1v1h-1zM9,15h1v1h-1zM10,15h1v1h-1zM11,15h1v1h-1zM12,15h1v1h-1zM13,15h1v1h-1zM14,15h1v1h-1zM15,15h1v1h-1zM16,15h1v1h-1zM17,15h1v1h-1zM18,15h1v1h-1zM19,15h1v1h-1zM20,15h1v1h-1zM5,16h1v1h-1zM6,16h1v1h-1zM7,16h1v1h-1zM8,16h1v1h-1zM9,16h1v1h-1zM10,16h1v1h-1zM11,16h1v1h-1zM12,16h1v1h-1zM13,16h1v1h-1zM14,16h1v1h-1zM15,16h1v1h-1zM16,16h1v1h-1zM17,16h1v1h-1zM18,16h1v1h-1zM19,16h1v1h-1zM20,16h1v1h-1zM5,17h1v1h-1zM6,17h1v1h-1zM7,17h1v1h-1zM8,17h1v1h-1zM9,17h1v1h-1zM10,17h1v1h-1zM11,17h1v1h-1zM12,17h1v1h-1zM13,17h1v1h-1zM14,17h1v1h-1zM15,17h1v1h-1zM16,17h1v1h-1zM17,17h1v1h-1zM18,17h1v1h-1zM19,17h1v1h-1zM20,17h1v1h-1z"/><path fill="#257179" d="M3,19h1v1h-1zM3,21h1v1h-1z"/><path fill="#38b764" d="M4,19h1v1h-1zM5,19h1v1h-1zM6,19h1v1h-1zM7,19h1v1h-1zM8,19h1v1h-1zM9,19h1v1h-1zM10,19h1v1h-1zM11,19h1v1h-1zM12,19h1v1h-1zM13,19h1v1h-1zM14,19h1v1h-1zM15,19h1v1h-1zM16,19h1v1h-1zM17,19h1v1h-1zM18,19h1v1h-1zM19,19h1v1h-1zM20,19h1v1h-1zM4,20h1v1h-1zM5,20h1v1h-1zM6,20h1v1h-1zM7,20h1v1h-1zM8,20h1v1h-1zM9,20h1v1h-1zM10,20h1v1h-1zM11,20h1v1h-1zM12,20h1v1h-1zM13,20h1v1h-1zM14,20h1v1h-1zM15,20h1v1h-1zM16,20h1v1h-1zM17,20h1v1h-1zM18,20h1v1h-1zM19,20h1v1h-1zM20,20h1v1h-1zM4,21h1v1h-1zM5,21h1v1h-1zM6,21h1v1h-1zM7,21h1v1h-1zM8,21h1v1h-1zM9,21h1v1h-1zM10,21h1v1h-1zM11,21h1v1h-1zM12,21h1v1h-1zM13,21h1v1h-1zM14,21h1v1h-1zM15,21h1v1h-1zM16,21h1v1h-1zM17,21h1v1h-1zM18,21h1v1h-1zM19,21h1v1h-1zM20,21h1v1h-1zM4,22h1v1h-1zM5,22h1v1h-1zM6,22h1v1h-1zM7,22h1v1h-1zM8,22h1v1h-1zM9,22h1v1h-1zM10,22h1v1h-1zM11,22h1v1h-1zM12,22h1v1h-1zM13,22h1v1h-1zM14,22h1v1h-1zM15,22h1v1h-1zM16,22h1v1h-1zM17,22h1v1h-1zM18,22h1v1h-1zM19,22h1v1h-1zM20,22h1v1h-1z"/><path fill="#a7f070" d="M3,20h1v1h-1zM3,22h1v1h-1z"/><path fill="#8b5e34" d="M24,23h1v1h-1zM25,23h1v1h-1zM26,23h1v1h-1zM27,23h1v1h-1zM28,23h1v1h-1zM30,23h1v1h-1zM31,23h1v1h-1zM25,24h1v1h-1zM26,24h1v1h-1zM27,24h1v1h-1zM28,24h1v1h-1zM30,24h1v1h-1zM31,24h1v1h-1z"/><path fill="#29366f" d="M2,24h1v1h-1zM2,26h1v1h-1z"/><path fill="#3b5dc9" d="M3,24h1v1h-1zM4,24h1v1h-1zM5,24h1v1h-1zM6,24h1v1h-1zM7,24h1v1h-1zM8,24h1v1h-1zM9,24h1v1h-1zM10,24h1v1h-1zM11,24h1v1h-1zM12,24h1v1h-1zM13,24h1v1h-1zM14,24h1v1h-1zM15,24h1v1h-1zM16,24h1v1h-1zM17,24h1v1h-1zM18,24h1v1h-1zM19,24h1v1h-1zM20,24h1v1h-1zM3,25h1v1h-1zM4,25h1v1h-1zM5,25h1v1h-1zM6,25h1v1h-1zM7,25h1v1h-1zM8,25h1v1h-1zM9,25h1v1h-1zM10,25h1v1h-1zM11,25h1v1h-1zM12,25h1v1h-1zM13,25h1v1h-1zM14,25h1v1h-1zM15,25h1v1h-1zM16,25h1v1h-1zM17,25h1v1h-1zM18,25h1v1h-1zM19,25h1v1h-1zM20,25h1v1h-1zM3,26h1v1h-1zM4,26h1v1h-1zM5,26h1v1h-1zM6,26h1v1h-1zM7,26h1v1h-1zM8,26h1v1h-1zM9,26h1v1h-1zM10,26h1v1h-1zM11,26h1v1h-1zM12,26h1v1h-1zM13,26h1v1h-1zM14,26h1v1h-1zM15,26h1v1h-1zM16,26h1v1h-1zM17,26h1v1h-1zM18,26h1v1h-1zM19,26h1v1h-1zM20,26h1v1h-1zM3,27h1v1h-1zM4,27h1v1h-1zM5,27h1v1h-1zM6,27h1v1h-1zM7,27h1v1h-1zM8,27h1v1h-1zM9,27h1v1h-1zM10,27h1v1h-1zM11,27h1v1h-1zM12,27h1v1h-1zM13,27h1v1h-1zM14,27h1v1h-1zM15,27h1v1h-1zM16,27h1v1h-1zM17,27h1v1h-1zM18,27h1v1h-1zM19,27h1v1h-1zM20,27h1v1h-1z"/><path fill="#41a6f6" d="M2,25h1v1h-1zM2,27h1v1h-1z"/><path fill="#566c86" d="M24,25h1v1h-1zM25,25h1v1h-1zM26,25h1v1h-1zM27,25h1v1h-1zM28,25h1v1h-1zM29,25h1v1h-1z"/></svg>