<svg xmlns="http://www.w3.org/2000/svg" viewBox="0 0 32 32" shape-rendering="crispEdges"><path fill="#f4f4f4" d="M27,4h1v1h-1zM27,5h2v1h-2zM26,6h3v1h-3zM26,8h3v1h-3zM26,9h3v1h-3zM25,10h1v1h-1zM25,11h2v1h-2zM25,12h3v1h-3zM25,13h1v1h-1zM25,14h3v1h-3zM21,15h1v1h-1zM25,15h3v1h-3zM21,16h1v1h-1zM21,17h1v1h-1zM7,18h1v1h-1zM11,18h1v1h-1zM20,18h3v1h-3zM20,19h3v1h-3zM20,21h3v1h-3zM20,22h3v1h-3zM20,23h3v1h-3z"/><path fill="#b13e53" d="M26,7h3v1h-3zM26,13h2v1h-2zM9,15h1v1h-1zM6,16h1v1h-1zM9,16h4v1h-4zM5,17h5v1h-5zM11,17h3v1h-3zM5,18h2v1h-2zM8,18h3v1h-3zM12,18h2v1h-2zM5,19h2v1h-2zM8,19h3v1h-3zM12,19h2v1h-2zM4,20h11v1h-11zM20,20h3v1h-3zM6,21h7v1h-7zM5,22h2v1h-2zM8,22h3v1h-3zM12,22h2v1h-2zM5,23h3v1h-3zM11,23h3v1h-3zM6,24h7v1h-7zM9,25h1v1h-1z"/><path fill="#94b0c2" d="M26,10h3v1h-3zM25,16h3v1h-3zM20,24h3v1h-3z"/><path fill="#5d275d" d="M9,14h1v1h-1zM6,15h3v1h-3zM12,15h1v1h-1zM5,16h1v1h-1zM13,16h1v1h-1zM4,17h1v1h-1zM14,17h1v1h-1zM4,18h1v1h-1zM14,18h1v1h-1zM4,19h1v1h-1zM14,19h1v1h-1zM3,20h1v1h-1zM15,20h1v1h-1zM4,21h1v1h-1zM14,21h1v1h-1zM4,22h1v1h-1zM14,22h1v1h-1zM4,23h1v1h-1zM14,23h1v1h-1zM5,24h1v1h-1zM13,24h1v1h-1zM6,25h3v1h-3zM10,25h3v1h-3zM9,26h1v1h-1z"/><path fill="#1a1c2c" d="M10,15h2v1h-2zM7,16h2v1h-2zM10,17h1v1h-1zM7,19h1v1h-1zM11,19h1v1h-1zM7,22h1v1h-1zM11,22h1v1h-1zM8,23h3v1h-3z"/><path fill="#ffcd75" d="M17,15h1v1h-1zM16,16h1v1h-1zM18,16h1v1h-1zM17,17h1v1h-1zM0,27h32v1h-32z"/><path fill="#566c86" d="M0,18h1v1h-1zM0,22h1v1h-1z"/><path fill="#333c57" d="M1,19h1v1h-1zM0,20h1v1h-1zM1,21h1v1h-1z"/><path fill="#ff9eb7" d="M5,21h1v1h-1zM13,21h1v1h-1z"/><path fill="#ef7d57" d="M0,28h32v1h-32zM0,29h32v1h-32zM0,30h32v1h-32zM0,31h32v1h-32z"/></svg>