<svg xmlns="http://www.w3.org/2000/svg" width="16" height="16" viewBox="0 0 16 16" shape-rendering="crispEdges">
<!-- 面包 -->
<path fill="#1a1c2c" d="M3 3h8v1h-8zM2 4h1v1h-1zM11 4h1v1h-1zM1 5h1v1h-1zM12 5h1v1h-1zM1 6h1v1h-1zM12 6h1v1h-1zM1 7h1v1h-1zM12 7h1v1h-1zM1 8h1v1h-1zM12 8h1v1h-1zM2 9h1v1h-1zM12 9h1v1h-1zM3 10h10v1h-10z"/>
<path fill="#d4a56a" d="M3 4h8v1h-8zM2 5h10v1h-10zM2 6h10v1h-10z"/>
<path fill="#ffcd75" d="M3 4h3v1h-3zM2 5h3v1h-3z"/>
<path fill="#a8775e" d="M2 7h10v1h-10zM2 8h10v1h-10zM3 9h9v1h-9z"/>
<path fill="#6b3e2e" d="M10 8h2v1h-2zM10 9h2v1h-2z"/>
<path fill="#f4f4f4" d="M3 5h1v1h-1z"/>
</svg>