<svg xmlns="http://www.w3.org/2000/svg" viewBox="0 0 32 32" shape-rendering="crispEdges"><path fill="#38b764" d="M3,3h1v1h-1ZM7,3h4v1h-4ZM6,4h1v1h-1ZM9,4h3v1h-3ZM6,5h1v1h-1ZM9,5h2v1h-2ZM9,6h2v1h-2ZM10,7h2v1h-2ZM11,8h2v1h-2ZM12,9h2v1h-2ZM12,10h2v1h-2ZM11,11h2v1h-2ZM10,12h2v1h-2ZM10,13h2v1h-2ZM10,14h2v1h-2ZM11,15h2v1h-2ZM16,15h1v1h-1ZM12,16h9v1h-9ZM10,17h13v1h-13ZM26,17h2v1h-2ZM9,18h15v1h-15ZM25,18h1v1h-1ZM28,18h1v1h-1ZM9,19h16v1h-16ZM29,19h1v1h-1ZM8,20h17v1h-17ZM29,20h1v1h-1ZM9,21h15v1h-15ZM30,21h1v1h-1ZM9,22h1v1h-1ZM30,22h1v1h-1ZM30,23h1v1h-1ZM29,24h1v1h-1ZM11,25h2v1h-2ZM15,25h2v1h-2ZM19,25h2v1h-2ZM29,25h1v1h-1ZM11,26h2v1h-2ZM15,26h2v1h-2ZM19,26h2v1h-2ZM11,27h2v1h-2ZM15,27h2v1h-2ZM19,27h2v1h-2ZM11,28h2v1h-2ZM15,28h2v1h-2ZM19,28h2v1h-2Z"/><path fill="#a7f070" d="M4,3h3v1h-3ZM4,4h2v1h-2ZM10,22h14v1h-14ZM10,23h14v1h-14ZM10,24h14v1h-14ZM0,30h32v1h-32ZM0,31h32v1h-32Z"/><path fill="#f4f4f4" d="M7,4h1v1h-1Z"/><path fill="#1a1c2c" d="M8,4h1v1h-1Z"/><path fill="#ff9eb7" d="M7,5h2v1h-2Z"/><path fill="#257179" d="M10,29h3v1h-3ZM14,29h3v1h-3ZM18,29h3v1h-3Z"/></svg>