<svg xmlns="http://www.w3.org/2000/svg" viewBox="0 0 32 32" shape-rendering="crispEdges"><path fill="#ff9eb7" d="M12,3h7v1h-7zM13,8h1v1h-1zM20,8h1v1h-1zM13,9h1v1h-1zM20,9h1v1h-1z"/><path fill="#b13e53" d="M12,4h8v1h-8zM12,5h2v1h-2zM15,5h2v1h-2zM18,5h3v1h-3zM11,6h3v1h-3zM15,6h4v1h-4zM20,6h1v1h-1zM11,7h4v1h-4zM16,7h2v1h-2zM19,7h1v1h-1zM11,8h2v1h-2zM15,8h1v1h-1zM18,8h1v1h-1zM11,9h2v1h-2zM14,9h6v1h-6zM11,10h9v1h-9z"/><path fill="#41a6f6" d="M22,4h1v1h-1zM22,5h1v1h-1zM5,21h8v1h-8z"/><path fill="#333c57" d="M14,5h1v1h-1zM17,5h1v1h-1z"/><path fill="#1a1c2c" d="M14,6h1v1h-1zM19,6h1v1h-1zM15,7h1v1h-1zM18,7h1v1h-1zM14,8h1v1h-1zM16,8h2v1h-2zM19,8h1v1h-1z"/><path fill="#ffecd2" d="M8,12h8v1h-8z"/><path fill="#ffcd75" d="M7,13h3v1h-3zM11,13h2v1h-2zM14,13h3v1h-3zM7,14h10v1h-10zM7,15h10v1h-10zM7,16h10v1h-10zM7,17h10v1h-10zM7,18h10v1h-10zM7,19h10v1h-10zM7,20h10v1h-10z"/><path fill="#ef7d57" d="M10,13h1v1h-1zM13,13h1v1h-1z"/><path fill="#a7f070" d="M16,21h8v1h-8z"/><path fill="#3b5dc9" d="M4,22h3v1h-3zM8,22h2v1h-2zM11,22h3v1h-3zM4,23h10v1h-10zM4,24h10v1h-10zM4,25h10v1h-10zM4,26h10v1h-10zM4,27h10v1h-10zM4,28h10v1h-10zM4,29h10v1h-10z"/><path fill="#29366f" d="M7,22h1v1h-1zM10,22h1v1h-1z"/><path fill="#38b764" d="M15,22h3v1h-3zM19,22h2v1h-2zM22,22h3v1h-3zM15,23h10v1h-10zM15,24h10v1h-10zM15,25h10v1h-10zM15,26h10v1h-10zM15,27h10v1h-10zM15,28h10v1h-10zM15,29h10v1h-10z"/><path fill="#257179" d="M18,22h1v1h-1zM21,22h1v1h-1z"/></svg>