<svg xmlns="http://www.w3.org/2000/svg" width="32" height="32" viewBox="0 0 32 32" shape-rendering="crispEdges">
<path fill="#f4f4f4" d="M11 1h1v1h-1zM20 1h1v1h-1zM10 2h3v1h-3zM19 2h3v1h-3zM10 3h1v1h-1zM12 3h1v1h-1zM19 3h1v1h-1zM21 3h1v1h-1zM10 4h1v1h-1zM12 4h1v1h-1zM19 4h1v1h-1zM21 4h1v1h-1zM10 5h1v1h-1zM12 5h1v1h-1zM19 5h1v1h-1zM21 5h1v1h-1zM10 6h1v1h-1zM12 6h1v1h-1zM19 6h1v1h-1zM21 6h1v1h-1zM10 7h1v1h-1zM21 7h1v1h-1zM10 8h12v1h-12zM9 9h14v1h-14zM8 10h16v1h-16zM8 11h16v1h-16zM8 12h4v1h-4zM14 12h5v1h-5zM21 12h3v1h-3zM8 13h3v1h-3zM14 13h4v1h-4zM21 13h3v1h-3zM8 14h1v1h-1zM14 14h4v1h-4zM23 14h1v1h-1zM11 15h4v1h-4zM17 15h4v1h-4zM9 16h6v1h-6zM17 16h6v1h-6zM9 17h5v1h-5zM15 17h2v1h-2zM18 17h5v1h-5zM9 18h14v1h-14zM10 19h12v1h-12zM11 20h10v1h-10zM12 21h8v1h-8zM12 22h8v1h-8zM23 22h1v1h-1zM12 23h8v1h-8zM22 23h3v1h-3zM12 24h8v1h-8zM22 24h2v1h-2zM11 25h10v1h-10zM12 26h8v1h-8z"/><path fill="#ff9eb7" d="M11 3h1v1h-1zM20 3h1v1h-1zM11 4h1v1h-1zM20 4h1v1h-1zM11 5h1v1h-1zM20 5h1v1h-1zM11 6h1v1h-1zM20 6h1v1h-1zM9 14h2v1h-2zM21 14h2v1h-2zM9 15h2v1h-2zM15 15h2v1h-2zM21 15h2v1h-2z"/><path fill="#94b0c2" d="M11 7h10v1h-10zM10 21h2v1h-2zM20 21h2v1h-2zM10 22h2v1h-2zM20 22h2v1h-2zM10 23h2v1h-2zM20 23h2v1h-2zM10 24h2v1h-2zM20 24h2v1h-2zM11 27h3v1h-3zM18 27h3v1h-3zM11 28h3v1h-3zM18 28h3v1h-3z"/><path fill="#1a1c2c" d="M12 12h2v1h-2zM19 12h2v1h-2zM11 13h3v1h-3zM18 13h3v1h-3zM11 14h3v1h-3zM18 14h3v1h-3zM15 16h2v1h-2zM14 17h1v1h-1zM17 17h1v1h-1z"/>
</svg>