<svg xmlns="http://www.w3.org/2000/svg" viewBox="0 0 32 32" shape-rendering="crispEdges"><path fill="#1a1c2c" d="M14,2h1v1h-1zM18,2h1v1h-1zM15,4h1v1h-1zM17,4h1v1h-1zM15,5h1v1h-1zM17,5h1v1h-1zM15,6h3v1h-3zM16,7h1v1h-1zM15,8h3v1h-3zM15,9h1v1h-1zM17,9h1v1h-1zM15,10h1v1h-1zM17,10h1v1h-1zM15,11h1v1h-1zM17,11h1v1h-1zM15,13h1v1h-1zM17,13h1v1h-1zM15,14h1v1h-1zM17,14h1v1h-1zM15,15h1v1h-1zM17,15h1v1h-1zM15,16h1v1h-1zM17,16h1v1h-1zM15,17h1v1h-1zM17,17h1v1h-1zM15,18h1v1h-1zM17,18h1v1h-1zM15,20h1v1h-1zM17,20h1v1h-1z"/><path fill="#ffcd75" d="M14,3h1v1h-1zM18,3h1v1h-1zM2,5h2v1h-2zM29,6h2v1h-2zM11,10h1v1h-1zM21,10h1v1h-1zM6,13h1v1h-1zM26,13h1v1h-1zM14,24h1v1h-1zM18,24h1v1h-1z"/><path fill="#5d275d" d="M9,7h1v1h-1zM23,7h1v1h-1zM6,8h3v1h-3zM10,8h3v1h-3zM20,8h3v1h-3zM24,8h3v1h-3zM5,9h1v1h-1zM13,9h1v1h-1zM19,9h1v1h-1zM27,9h1v1h-1zM4,10h1v1h-1zM14,10h1v1h-1zM18,10h1v1h-1zM28,10h1v1h-1zM4,11h1v1h-1zM14,11h1v1h-1zM18,11h1v1h-1zM28,11h1v1h-1zM3,12h1v1h-1zM15,12h1v1h-1zM17,12h1v1h-1zM29,12h1v1h-1zM4,13h1v1h-1zM14,13h1v1h-1zM18,13h1v1h-1zM28,13h1v1h-1zM4,14h1v1h-1zM14,14h1v1h-1zM18,14h1v1h-1zM28,14h1v1h-1zM5,15h1v1h-1zM13,15h1v1h-1zM19,15h1v1h-1zM27,15h1v1h-1zM6,16h3v1h-3zM11,16h2v1h-2zM20,16h2v1h-2zM24,16h3v1h-3z"/><path fill="#f4f4f4" d="M15,7h1v1h-1zM17,7h1v1h-1zM7,10h2v1h-2zM24,10h2v1h-2zM3,14h1v1h-1zM29,14h1v1h-1zM2,15h3v1h-3zM28,15h3v1h-3zM3,16h1v1h-1zM29,16h1v1h-1zM10,18h1v1h-1zM22,18h1v1h-1zM9,19h3v1h-3zM21,19h3v1h-3zM10,20h1v1h-1zM22,20h1v1h-1z"/><path fill="#ff9eb7" d="M9,8h1v1h-1zM14,8h1v1h-1zM18,8h1v1h-1zM23,8h1v1h-1zM6,9h7v1h-7zM20,9h7v1h-7zM5,10h2v1h-2zM10,10h1v1h-1zM12,10h2v1h-2zM19,10h2v1h-2zM22,10h1v1h-1zM26,10h2v1h-2zM5,11h2v1h-2zM12,11h2v1h-2zM19,11h2v1h-2zM26,11h2v1h-2zM4,12h2v1h-2zM13,12h2v1h-2zM18,12h2v1h-2zM27,12h2v1h-2zM5,13h1v1h-1zM12,13h2v1h-2zM19,13h2v1h-2zM27,13h1v1h-1zM5,14h4v1h-4zM10,14h4v1h-4zM19,14h4v1h-4zM24,14h4v1h-4zM6,15h7v1h-7zM20,15h7v1h-7zM9,16h1v1h-1zM23,16h1v1h-1zM1,18h1v1h-1zM30,19h1v1h-1z"/><path fill="#333c57" d="M16,9h1v1h-1zM16,10h1v1h-1zM16,11h1v1h-1zM16,12h1v1h-1zM16,13h1v1h-1zM16,14h1v1h-1zM16,15h1v1h-1zM16,16h1v1h-1zM16,17h1v1h-1zM16,18h1v1h-1zM16,19h1v1h-1zM16,20h1v1h-1z"/><path fill="#41a6f6" d="M9,10h1v1h-1zM23,10h1v1h-1zM7,11h5v1h-5zM21,11h5v1h-5zM6,12h7v1h-7zM20,12h7v1h-7zM7,13h5v1h-5zM21,13h5v1h-5zM9,14h1v1h-1zM23,14h1v1h-1zM10,17h1v1h-1zM22,17h1v1h-1zM7,18h3v1h-3zM11,18h3v1h-3zM19,18h3v1h-3zM23,18h3v1h-3zM6,19h3v1h-3zM12,19h3v1h-3zM18,19h3v1h-3zM24,19h3v1h-3zM7,20h3v1h-3zM11,20h3v1h-3zM19,20h3v1h-3zM23,20h3v1h-3zM10,21h1v1h-1zM22,21h1v1h-1z"/><path fill="#73eff7" d="M10,16h1v1h-1zM22,16h1v1h-1zM7,17h3v1h-3zM11,17h3v1h-3zM19,17h3v1h-3zM23,17h3v1h-3zM6,18h1v1h-1zM14,18h1v1h-1zM18,18h1v1h-1zM26,18h1v1h-1zM5,19h1v1h-1zM15,19h1v1h-1zM17,19h1v1h-1zM27,19h1v1h-1zM6,20h1v1h-1zM14,20h1v1h-1zM18,20h1v1h-1zM26,20h1v1h-1zM7,21h3v1h-3zM11,21h3v1h-3zM19,21h3v1h-3zM23,21h3v1h-3zM10,22h1v1h-1zM22,22h1v1h-1zM4,24h1v1h-1zM28,25h1v1h-1z"/></svg>