<svg xmlns="http://www.w3.org/2000/svg" viewBox="0 0 32 32" shape-rendering="crispEdges"><path fill="#ffcd75" d="M12,5h8v1h-8ZM11,6h10v1h-10ZM11,9h10v1h-10ZM5,10h1v1h-1ZM7,10h2v1h-2ZM10,10h2v1h-2ZM13,10h2v1h-2ZM16,10h2v1h-2ZM19,10h2v1h-2ZM22,10h2v1h-2ZM25,10h2v1h-2ZM5,11h2v1h-2ZM8,11h2v1h-2ZM11,11h2v1h-2ZM14,11h2v1h-2ZM17,11h2v1h-2ZM20,11h2v1h-2ZM23,11h2v1h-2ZM26,11h1v1h-1ZM0,28h5v1h-5ZM6,28h16v1h-16ZM23,28h9v1h-9ZM0,29h12v1h-12ZM13,29h19v1h-19ZM0,30h32v1h-32ZM0,31h32v1h-32Z"/><path fill="#b13e53" d="M11,7h10v1h-10ZM7,11h1v1h-1ZM10,11h1v1h-1ZM13,11h1v1h-1ZM16,11h1v1h-1ZM19,11h1v1h-1ZM22,11h1v1h-1ZM25,11h1v1h-1ZM6,12h1v1h-1ZM10,12h1v1h-1ZM21,12h1v1h-1ZM25,12h1v1h-1ZM28,24h1v1h-1ZM26,25h3v1h-3Z"/><path fill="#ef7d57" d="M11,8h10v1h-10ZM6,10h1v1h-1ZM9,10h1v1h-1ZM12,10h1v1h-1ZM15,10h1v1h-1ZM18,10h1v1h-1ZM21,10h1v1h-1ZM24,10h1v1h-1Z"/><path fill="#38b764" d="M13,12h2v1h-2ZM17,12h2v1h-2ZM13,13h2v1h-2ZM17,13h2v1h-2ZM9,14h1v1h-1ZM13,14h2v1h-2ZM17,14h2v1h-2ZM9,15h2v1h-2ZM13,15h2v1h-2ZM17,15h2v1h-2ZM9,16h6v1h-6ZM17,16h2v1h-2ZM21,16h1v1h-1ZM9,17h5v1h-5ZM21,17h2v1h-2ZM9,18h5v1h-5ZM19,18h4v1h-4ZM14,19h1v1h-1ZM17,19h2v1h-2ZM20,19h3v1h-3ZM13,20h2v1h-2ZM18,20h5v1h-5ZM13,21h2v1h-2ZM17,21h2v1h-2ZM13,22h2v1h-2ZM17,22h2v1h-2ZM13,23h2v1h-2ZM17,23h2v1h-2ZM13,24h2v1h-2ZM17,24h2v1h-2ZM29,24h1v1h-1ZM13,25h2v1h-2ZM17,25h2v1h-2ZM13,26h2v1h-2ZM17,26h2v1h-2ZM13,27h2v1h-2ZM17,27h2v1h-2Z"/><path fill="#a7f070" d="M15,12h2v1h-2ZM15,13h2v1h-2ZM10,14h1v1h-1ZM15,14h2v1h-2ZM15,15h2v1h-2ZM15,16h2v1h-2ZM22,16h1v1h-1ZM16,17h1v1h-1ZM16,18h1v1h-1ZM15,19h2v1h-2ZM16,20h1v1h-1ZM15,21h1v1h-1ZM15,22h2v1h-2ZM15,23h2v1h-2ZM15,24h2v1h-2ZM15,25h2v1h-2ZM15,26h2v1h-2ZM15,27h2v1h-2Z"/><path fill="#f4f4f4" d="M14,17h1v1h-1ZM17,17h1v1h-1Z"/><path fill="#1a1c2c" d="M15,17h1v1h-1ZM18,17h1v1h-1ZM14,18h2v1h-2ZM17,18h2v1h-2ZM15,20h1v1h-1ZM17,20h1v1h-1ZM16,21h1v1h-1Z"/><path fill="#ff9eb7" d="M13,19h1v1h-1ZM19,19h1v1h-1Z"/><path fill="#ffecd2" d="M0,27h13v1h-13ZM19,27h13v1h-13ZM5,28h1v1h-1ZM22,28h1v1h-1ZM12,29h1v1h-1Z"/></svg>