<svg xmlns="http://www.w3.org/2000/svg" viewBox="0 0 32 32" shape-rendering="crispEdges"><path fill="#ff9eb7" d="M15,5h1v1h-1zM16,5h1v1h-1zM14,6h1v1h-1zM17,6h1v1h-1zM14,7h1v1h-1zM17,7h1v1h-1zM13,17h1v1h-1zM18,17h1v1h-1z"/><path fill="#ffcd75" d="M15,6h1v1h-1zM16,6h1v1h-1z"/><path fill="#b13e53" d="M15,7h1v1h-1zM16,7h1v1h-1z"/><path fill="#38b764" d="M13,8h1v1h-1zM14,8h1v1h-1zM17,8h1v1h-1zM18,8h1v1h-1zM13,9h1v1h-1zM14,9h1v1h-1zM17,9h1v1h-1zM18,9h1v1h-1zM21,9h1v1h-1zM13,10h1v1h-1zM18,10h1v1h-1zM21,10h1v1h-1zM22,10h1v1h-1zM10,11h1v1h-1zM13,11h1v1h-1zM14,11h1v1h-1zM17,11h1v1h-1zM18,11h1v1h-1zM19,11h1v1h-1zM20,11h1v1h-1zM22,11h1v1h-1zM9,12h1v1h-1zM10,12h1v1h-1zM14,12h1v1h-1zM17,12h1v1h-1zM19,12h1v1h-1zM20,12h1v1h-1zM22,12h1v1h-1zM9,13h1v1h-1zM11,13h1v1h-1zM12,13h1v1h-1zM13,13h1v1h-1zM14,13h1v1h-1zM17,13h1v1h-1zM18,13h1v1h-1zM19,13h1v1h-1zM20,13h1v1h-1zM21,13h1v1h-1zM22,13h1v1h-1zM9,14h1v1h-1zM11,14h1v1h-1zM12,14h1v1h-1zM13,14h1v1h-1zM18,14h1v1h-1zM9,15h1v1h-1zM10,15h1v1h-1zM11,15h1v1h-1zM12,15h1v1h-1zM13,15h1v1h-1zM14,15h1v1h-1zM17,15h1v1h-1zM18,15h1v1h-1zM14,17h1v1h-1zM17,17h1v1h-1zM13,18h1v1h-1zM18,18h1v1h-1zM13,19h1v1h-1zM14,19h1v1h-1zM17,19h1v1h-1zM18,19h1v1h-1zM14,20h1v1h-1zM17,20h1v1h-1zM13,21h1v1h-1zM14,21h1v1h-1zM17,21h1v1h-1zM18,21h1v1h-1zM13,22h1v1h-1zM14,22h1v1h-1zM17,22h1v1h-1zM18,22h1v1h-1zM13,23h1v1h-1zM14,23h1v1h-1zM17,23h1v1h-1zM18,23h1v1h-1z"/><path fill="#a7f070" d="M15,8h1v1h-1zM16,8h1v1h-1zM15,9h1v1h-1zM16,9h1v1h-1zM22,9h1v1h-1zM15,10h1v1h-1zM16,10h1v1h-1zM9,11h1v1h-1zM15,11h1v1h-1zM16,11h1v1h-1zM15,12h1v1h-1zM16,12h1v1h-1zM21,12h1v1h-1zM15,13h1v1h-1zM16,13h1v1h-1zM10,14h1v1h-1zM15,14h1v1h-1zM16,14h1v1h-1zM15,15h1v1h-1zM16,15h1v1h-1zM15,16h1v1h-1zM16,16h1v1h-1zM15,17h1v1h-1zM16,17h1v1h-1zM15,19h1v1h-1zM16,19h1v1h-1zM15,20h1v1h-1zM16,20h1v1h-1zM15,21h1v1h-1zM16,21h1v1h-1zM15,22h1v1h-1zM16,22h1v1h-1zM15,23h1v1h-1zM16,23h1v1h-1z"/><path fill="#f4f4f4" d="M14,10h1v1h-1zM17,10h1v1h-1zM21,11h1v1h-1zM13,12h1v1h-1zM18,12h1v1h-1zM10,13h1v1h-1zM14,14h1v1h-1zM17,14h1v1h-1zM13,16h1v1h-1zM18,16h1v1h-1zM13,20h1v1h-1zM18,20h1v1h-1z"/><path fill="#1a1c2c" d="M14,16h1v1h-1zM17,16h1v1h-1zM14,18h1v1h-1zM15,18h1v1h-1zM16,18h1v1h-1zM17,18h1v1h-1z"/><path fill="#8b5e34" d="M9,23h1v1h-1zM10,23h1v1h-1zM11,23h1v1h-1zM12,23h1v1h-1zM19,23h1v1h-1zM20,23h1v1h-1zM21,23h1v1h-1zM22,23h1v1h-1zM10,25h1v1h-1zM11,25h1v1h-1zM12,25h1v1h-1zM13,25h1v1h-1zM14,25h1v1h-1zM15,25h1v1h-1zM16,25h1v1h-1zM17,25h1v1h-1zM18,25h1v1h-1zM19,25h1v1h-1zM20,25h1v1h-1zM21,25h1v1h-1zM10,27h1v1h-1zM11,27h1v1h-1zM12,27h1v1h-1zM13,27h1v1h-1zM14,27h1v1h-1zM15,27h1v1h-1zM16,27h1v1h-1zM17,27h1v1h-1zM18,27h1v1h-1zM19,27h1v1h-1zM20,27h1v1h-1zM21,27h1v1h-1zM10,28h1v1h-1zM11,28h1v1h-1zM12,28h1v1h-1zM13,28h1v1h-1zM14,28h1v1h-1zM15,28h1v1h-1zM16,28h1v1h-1zM17,28h1v1h-1zM18,28h1v1h-1zM19,28h1v1h-1zM20,28h1v1h-1zM21,28h1v1h-1zM11,29h1v1h-1zM12,29h1v1h-1zM13,29h1v1h-1zM14,29h1v1h-1zM15,29h1v1h-1zM16,29h1v1h-1zM17,29h1v1h-1zM18,29h1v1h-1zM19,29h1v1h-1zM20,29h1v1h-1zM11,30h1v1h-1zM12,30h1v1h-1zM13,30h1v1h-1zM14,30h1v1h-1zM15,30h1v1h-1zM16,30h1v1h-1zM17,30h1v1h-1zM18,30h1v1h-1zM19,30h1v1h-1zM20,30h1v1h-1z"/><path fill="#ef7d57" d="M10,24h1v1h-1zM11,24h1v1h-1zM12,24h1v1h-1zM13,24h1v1h-1zM14,24h1v1h-1zM15,24h1v1h-1zM16,24h1v1h-1zM17,24h1v1h-1zM18,24h1v1h-1zM19,24h1v1h-1zM20,24h1v1h-1zM21,24h1v1h-1zM10,26h1v1h-1zM11,26h1v1h-1zM12,26h1v1h-1zM13,26h1v1h-1zM14,26h1v1h-1zM15,26h1v1h-1zM16,26h1v1h-1zM17,26h1v1h-1zM18,26h1v1h-1zM19,26h1v1h-1zM20,26h1v1h-1zM21,26h1v1h-1z"/></svg>