<svg xmlns="http://www.w3.org/2000/svg" viewBox="0 0 32 32" shape-rendering="crispEdges"><path fill="#38b764" d="M14,3h1v1h-1zM17,3h1v1h-1zM15,4h2v1h-2z"/><path fill="#b13e53" d="M14,5h4v1h-4zM14,6h4v1h-4zM14,7h4v1h-4zM14,8h4v1h-4z"/><path fill="#8b5e34" d="M8,10h1v1h-1zM11,10h1v1h-1zM14,10h1v1h-1zM17,10h1v1h-1zM20,10h1v1h-1zM23,10h1v1h-1zM8,11h1v1h-1zM11,11h1v1h-1zM14,11h1v1h-1zM17,11h1v1h-1zM20,11h1v1h-1zM23,11h1v1h-1zM8,12h1v1h-1zM14,12h1v1h-1zM20,12h1v1h-1z"/><path fill="#5c3a1e" d="M19,10h1v1h-1zM26,10h1v1h-1zM19,11h1v1h-1zM26,11h1v1h-1zM18,12h1v1h-1zM26,12h1v1h-1zM17,13h1v1h-1zM26,13h1v1h-1zM16,14h1v1h-1zM26,14h1v1h-1zM16,15h1v1h-1zM26,15h1v1h-1zM15,16h1v1h-1zM26,16h1v1h-1zM14,17h1v1h-1zM26,17h1v1h-1zM13,18h1v1h-1zM26,18h1v1h-1zM12,19h1v1h-1zM26,19h1v1h-1zM12,20h1v1h-1zM26,20h1v1h-1zM11,21h1v1h-1zM26,21h1v1h-1zM10,22h1v1h-1zM26,22h1v1h-1zM9,23h1v1h-1zM26,23h1v1h-1zM9,24h1v1h-1zM26,24h1v1h-1zM8,25h1v1h-1zM26,25h1v1h-1zM7,26h1v1h-1zM26,26h1v1h-1zM6,27h1v1h-1zM26,27h1v1h-1zM5,28h22v1h-22z"/><path fill="#f4f4f4" d="M21,10h2v1h-2zM24,10h2v1h-2zM18,11h1v1h-1zM21,11h2v1h-2zM24,11h2v1h-2zM16,12h2v1h-2zM19,12h1v1h-1zM21,12h5v1h-5zM14,13h3v1h-3zM18,13h8v1h-8zM13,14h3v1h-3zM17,14h9v1h-9zM11,15h5v1h-5zM17,15h9v1h-9zM9,16h6v1h-6zM16,16h10v1h-10zM7,17h7v1h-7zM15,17h11v1h-11z"/><path fill="#ef7d57" d="M6,18h7v1h-7zM14,18h12v1h-12zM6,19h6v1h-6zM13,19h13v1h-13zM6,20h6v1h-6zM13,20h13v1h-13zM6,23h3v1h-3zM10,23h16v1h-16zM6,24h3v1h-3zM10,24h3v1h-3zM15,24h3v1h-3zM20,24h6v1h-6zM6,25h2v1h-2zM9,25h2v1h-2zM13,25h7v1h-7zM22,25h4v1h-4zM6,26h1v1h-1zM8,26h7v1h-7zM17,26h9v1h-9zM7,27h19v1h-19z"/><path fill="#ffecd2" d="M6,21h5v1h-5zM12,21h14v1h-14zM6,22h4v1h-4zM11,22h15v1h-15z"/><path fill="#1a1c2c" d="M13,24h2v1h-2zM18,24h2v1h-2zM15,26h2v1h-2z"/><path fill="#ff9eb7" d="M11,25h2v1h-2zM20,25h2v1h-2z"/></svg>