<svg xmlns="http://www.w3.org/2000/svg" viewBox="0 0 32 32" shape-rendering="crispEdges"><path fill="#29366f" d="M0,0h32v1h-32zM0,1h14v1h-14zM15,1h17v1h-17zM0,2h2v1h-2zM3,2h24v1h-24zM28,2h4v1h-4zM0,3h21v1h-21zM22,3h10v1h-10zM0,4h7v1h-7zM8,4h24v1h-24zM0,5h10v1h-10zM11,5h18v1h-18zM30,5h2v1h-2zM0,6h24v1h-24zM25,6h7v1h-7zM0,7h4v1h-4zM5,7h27v1h-27zM0,8h30v1h-30zM31,8h1v1h-1zM0,9h32v1h-32zM0,10h1v1h-1zM2,10h30v1h-30zM0,11h32v1h-32zM0,12h15v1h-15zM16,12h16v1h-16zM0,13h13v1h-13zM14,13h18v1h-18zM0,14h16v1h-16zM17,14h2v1h-2zM20,14h7v1h-7zM28,14h4v1h-4zM0,15h14v1h-14zM18,15h8v1h-8zM27,15h5v1h-5zM0,16h14v1h-14zM19,16h6v1h-6zM26,16h6v1h-6zM0,17h14v1h-14zM19,17h2v1h-2zM23,17h1v1h-1zM25,17h7v1h-7zM0,18h13v1h-13zM20,18h1v1h-1zM24,18h8v1h-8zM0,19h13v1h-13zM20,19h1v1h-1zM23,19h9v1h-9zM0,20h13v1h-13zM20,20h12v1h-12zM0,21h14v1h-14zM19,21h13v1h-13zM0,22h14v1h-14zM19,22h13v1h-13zM0,23h11v1h-11zM22,23h10v1h-10zM0,24h10v1h-10zM23,24h9v1h-9z"/><path fill="#f4f4f4" d="M14,1h1v1h-1zM2,2h1v1h-1zM27,2h1v1h-1zM21,3h1v1h-1zM7,4h1v1h-1zM10,5h1v1h-1zM29,5h1v1h-1zM24,6h1v1h-1zM4,7h1v1h-1zM30,8h1v1h-1zM1,10h1v1h-1zM21,17h1v1h-1zM21,18h1v1h-1zM22,19h1v1h-1z"/><path fill="#ffcd75" d="M15,12h1v1h-1zM13,13h1v1h-1zM16,15h1v1h-1zM16,17h1v1h-1zM15,18h3v1h-3zM15,19h3v1h-3zM15,20h3v1h-3zM15,21h3v1h-3z"/><path fill="#b13e53" d="M16,14h1v1h-1zM14,15h1v1h-1zM14,16h1v1h-1zM16,16h1v1h-1zM18,16h1v1h-1zM13,18h1v1h-1zM19,18h1v1h-1zM13,19h1v1h-1zM19,19h1v1h-1zM13,20h1v1h-1zM19,20h1v1h-1zM14,22h5v1h-5z"/><path fill="#ef7d57" d="M19,14h1v1h-1zM15,15h1v1h-1zM17,15h1v1h-1zM15,16h1v1h-1zM17,16h1v1h-1zM14,17h2v1h-2zM17,17h2v1h-2zM14,18h1v1h-1zM18,18h1v1h-1zM14,19h1v1h-1zM18,19h1v1h-1zM14,20h1v1h-1zM18,20h1v1h-1zM14,21h1v1h-1zM18,21h1v1h-1z"/><path fill="#8b5e34" d="M27,14h1v1h-1zM26,15h1v1h-1zM25,16h1v1h-1zM24,17h1v1h-1zM23,18h1v1h-1zM12,23h9v1h-9zM11,24h11v1h-11z"/><path fill="#ff9eb7" d="M22,17h1v1h-1zM22,18h1v1h-1z"/><path fill="#ffecd2" d="M21,19h1v1h-1z"/><path fill="#566c86" d="M11,23h1v1h-1zM21,23h1v1h-1zM0,25h32v1h-32zM13,26h1v1h-1zM15,26h1v1h-1zM17,26h1v1h-1zM19,26h1v1h-1z"/><path fill="#94b0c2" d="M10,24h1v1h-1zM22,24h1v1h-1z"/><path fill="#333c57" d="M0,26h13v1h-13zM14,26h1v1h-1zM16,26h1v1h-1zM18,26h1v1h-1zM20,26h12v1h-12zM0,27h32v1h-32zM0,28h32v1h-32zM0,29h32v1h-32zM0,30h32v1h-32zM0,31h32v1h-32z"/></svg>