<svg xmlns="http://www.w3.org/2000/svg" viewBox="0 0 32 32" shape-rendering="crispEdges"><path fill="#b13e53" d="M16,3h1v1h-1zM13,4h1v1h-1zM16,4h4v1h-4zM19,5h2v1h-2zM14,6h2v1h-2zM20,6h2v1h-2zM12,7h6v1h-6zM20,7h2v1h-2zM11,8h2v1h-2zM14,8h1v1h-1zM16,8h1v1h-1zM18,8h1v1h-1zM21,8h2v1h-2zM11,9h3v1h-3zM15,9h3v1h-3zM21,9h2v1h-2zM11,10h1v1h-1zM15,10h3v1h-3zM21,10h1v1h-1zM10,11h2v1h-2zM14,11h1v1h-1zM20,11h2v1h-2zM10,12h2v1h-2zM14,12h2v1h-2zM19,12h3v1h-3zM11,13h2v1h-2zM15,13h6v1h-6zM11,14h2v1h-2zM17,14h2v1h-2zM12,15h2v1h-2zM13,16h4v1h-4zM19,16h1v1h-1zM16,17h1v1h-1zM15,19h2v1h-2z"/><path fill="#ffcd75" d="M27,3h1v1h-1zM5,5h1v1h-1zM4,6h1v1h-1zM6,6h1v1h-1zM5,7h1v1h-1zM26,7h1v1h-1zM25,8h1v1h-1zM27,8h1v1h-1zM26,9h1v1h-1zM3,14h1v1h-1zM24,15h1v1h-1z"/><path fill="#f4f4f4" d="M14,4h2v1h-2zM12,5h7v1h-7zM11,6h3v1h-3zM16,6h4v1h-4zM10,7h2v1h-2zM18,7h2v1h-2zM22,7h1v1h-1zM10,8h1v1h-1zM20,8h1v1h-1zM10,9h1v1h-1zM19,9h2v1h-2zM9,10h2v1h-2zM14,10h1v1h-1zM18,10h1v1h-1zM22,10h2v1h-2zM12,11h2v1h-2zM16,11h1v1h-1zM18,11h2v1h-2zM22,11h1v1h-1zM12,12h2v1h-2zM17,12h2v1h-2zM22,12h1v1h-1zM10,13h1v1h-1zM13,13h2v1h-2zM21,13h2v1h-2zM13,14h4v1h-4zM19,14h3v1h-3zM14,15h7v1h-7zM17,16h2v1h-2zM15,18h1v1h-1zM15,20h1v1h-1zM15,21h1v1h-1zM15,22h1v1h-1zM15,23h1v1h-1zM15,24h1v1h-1zM15,25h1v1h-1zM15,26h1v1h-1zM15,27h1v1h-1zM15,28h1v1h-1zM15,29h1v1h-1z"/><path fill="#1a1c2c" d="M13,8h1v1h-1zM15,8h1v1h-1zM17,8h1v1h-1zM19,8h1v1h-1zM14,9h1v1h-1zM18,9h1v1h-1zM15,11h1v1h-1zM17,11h1v1h-1zM16,12h1v1h-1z"/><path fill="#ff9eb7" d="M12,10h2v1h-2zM19,10h2v1h-2zM13,18h1v1h-1zM18,18h1v1h-1zM12,19h3v1h-3zM17,19h3v1h-3zM13,20h1v1h-1zM18,20h1v1h-1z"/><path fill="#94b0c2" d="M16,18h1v1h-1zM16,20h1v1h-1zM16,21h1v1h-1zM16,22h1v1h-1zM16,23h1v1h-1zM16,24h1v1h-1zM16,25h1v1h-1zM16,26h1v1h-1zM16,27h1v1h-1zM16,28h1v1h-1zM16,29h1v1h-1z"/></svg>