<svg xmlns="http://www.w3.org/2000/svg" viewBox="0 0 32 32" shape-rendering="crispEdges"><path fill="#b13e53" d="M10 11h12v1h-12zM9 12h14v1h-14zM9 13h1v1h-1zM15 13h1v1h-1zM21 13h2v1h-2zM9 14h1v1h-1zM15 14h1v1h-1zM21 14h2v1h-2zM9 15h1v1h-1zM15 15h1v1h-1zM21 15h2v1h-2zM9 16h1v1h-1zM15 16h1v1h-1zM21 16h2v1h-2zM9 17h14v1h-14zM5 18h22v1h-22zM4 19h24v1h-24zM5 20h21v1h-21zM5 21h10v1h-10zM16 21h1v1h-1zM18 21h8v1h-8zM4 22h10v1h-10zM15 22h1v1h-1zM17 22h1v1h-1zM19 22h9v1h-9zM4 23h24v1h-24zM4 24h6v1h-6zM11 24h11v1h-11zM23 24h5v1h-5zM5 25h3v1h-3zM13 25h7v1h-7zM25 25h2v1h-2z"/><path fill="#41a6f6" d="M10 13h5v1h-5zM10 14h5v1h-5zM10 15h5v1h-5zM10 16h5v1h-5z"/><path fill="#73eff7" d="M16 13h5v1h-5zM16 14h5v1h-5zM16 15h5v1h-5zM16 16h5v1h-5z"/><path fill="#ef7d57" d="M4 20h1v1h-1zM4 21h1v1h-1z"/><path fill="#ffcd75" d="M26 20h2v1h-2zM26 21h2v1h-2z"/><path fill="#1a1c2c" d="M15 21h1v1h-1zM17 21h1v1h-1zM16 22h1v1h-1zM10 24h1v1h-1zM22 24h1v1h-1zM8 25h5v1h-5zM20 25h5v1h-5zM8 26h2v1h-2zM11 26h2v1h-2zM20 26h2v1h-2zM23 26h2v1h-2zM7 27h2v1h-2zM12 27h2v1h-2zM19 27h2v1h-2zM24 27h2v1h-2zM8 28h2v1h-2zM11 28h2v1h-2zM20 28h2v1h-2zM23 28h2v1h-2zM8 29h5v1h-5zM20 29h5v1h-5zM10 30h1v1h-1zM22 30h1v1h-1z"/><path fill="#94b0c2" d="M1 22h1v1h-1zM0 23h1v1h-1zM1 24h1v1h-1zM2 25h1v1h-1z"/><path fill="#ff9eb7" d="M14 22h1v1h-1zM18 22h1v1h-1z"/><path fill="#566c86" d="M10 26h1v1h-1zM22 26h1v1h-1zM9 27h3v1h-3zM21 27h3v1h-3zM0 28h8v1h-8zM10 28h1v1h-1zM13 28h7v1h-7zM22 28h1v1h-1zM25 28h7v1h-7z"/></svg>