<svg xmlns="http://www.w3.org/2000/svg" viewBox="0 0 32 32" shape-rendering="crispEdges"><path fill="#29366f" d="M0,0h32v1h-32zM0,1h15v1h-15zM17,1h15v1h-15zM0,2h11v1h-11zM13,2h3v1h-3zM18,2h14v1h-14zM0,3h12v1h-12zM15,3h1v1h-1zM17,3h15v1h-15zM0,4h12v1h-12zM13,4h1v1h-1zM19,4h13v1h-13zM0,5h12v1h-12zM13,5h1v1h-1zM15,5h1v1h-1zM17,5h1v1h-1zM21,5h11v1h-11zM0,6h12v1h-12zM13,6h1v1h-1zM15,6h1v1h-1zM17,6h1v1h-1zM19,6h1v1h-1zM21,6h11v1h-11zM0,7h12v1h-12zM13,7h1v1h-1zM15,7h1v1h-1zM17,7h1v1h-1zM19,7h1v1h-1zM21,7h11v1h-11zM0,8h12v1h-12zM13,8h1v1h-1zM15,8h1v1h-1zM17,8h1v1h-1zM19,8h1v1h-1zM21,8h11v1h-11zM0,9h12v1h-12zM13,9h1v1h-1zM15,9h1v1h-1zM17,9h1v1h-1zM19,9h1v1h-1zM21,9h11v1h-11zM0,10h12v1h-12zM13,10h1v1h-1zM15,10h1v1h-1zM17,10h1v1h-1zM19,10h1v1h-1zM21,10h11v1h-11zM0,11h12v1h-12zM13,11h1v1h-1zM15,11h1v1h-1zM17,11h1v1h-1zM19,11h1v1h-1zM21,11h11v1h-11zM0,12h9v1h-9zM23,12h9v1h-9zM0,13h8v1h-8zM24,13h8v1h-8zM0,14h6v1h-6zM26,14h6v1h-6zM0,15h6v1h-6zM26,15h6v1h-6zM0,16h6v1h-6zM9,16h1v1h-1zM11,16h2v1h-2zM19,16h1v1h-1zM21,16h2v1h-2zM26,16h6v1h-6zM0,17h6v1h-6zM8,17h2v1h-2zM12,17h2v1h-2zM18,17h2v1h-2zM22,17h2v1h-2zM26,17h6v1h-6zM0,18h6v1h-6zM9,18h2v1h-2zM12,18h1v1h-1zM19,18h2v1h-2zM22,18h1v1h-1zM26,18h6v1h-6zM0,19h6v1h-6zM26,19h6v1h-6zM0,20h6v1h-6zM26,20h6v1h-6zM0,21h6v1h-6zM26,21h6v1h-6zM0,22h8v1h-8zM24,22h8v1h-8zM0,23h9v1h-9zM23,23h9v1h-9zM0,24h10v1h-10zM11,24h2v1h-2zM14,24h2v1h-2zM17,24h2v1h-2zM20,24h2v1h-2zM23,24h9v1h-9zM0,25h10v1h-10zM11,25h2v1h-2zM14,25h2v1h-2zM17,25h2v1h-2zM20,25h2v1h-2zM23,25h9v1h-9zM0,26h10v1h-10zM11,26h2v1h-2zM14,26h2v1h-2zM17,26h2v1h-2zM20,26h2v1h-2zM23,26h9v1h-9zM0,27h10v1h-10zM11,27h2v1h-2zM14,27h2v1h-2zM17,27h2v1h-2zM20,27h2v1h-2zM23,27h9v1h-9zM0,28h10v1h-10zM11,28h2v1h-2zM14,28h2v1h-2zM17,28h2v1h-2zM20,28h2v1h-2zM23,28h9v1h-9zM0,29h10v1h-10zM11,29h2v1h-2zM14,29h2v1h-2zM17,29h2v1h-2zM20,29h2v1h-2zM23,29h9v1h-9zM0,30h10v1h-10zM11,30h2v1h-2zM14,30h2v1h-2zM17,30h2v1h-2zM20,30h2v1h-2zM23,30h9v1h-9zM0,31h32v1h-32z"/><path fill="#73eff7" d="M15,1h2v1h-2zM16,2h2v1h-2zM16,3h1v1h-1zM16,4h1v1h-1zM16,5h1v1h-1zM16,6h1v1h-1zM16,7h1v1h-1zM16,8h1v1h-1zM16,9h1v1h-1zM16,10h1v1h-1zM16,11h1v1h-1zM7,15h1v1h-1z"/><path fill="#b13e53" d="M11,2h2v1h-2zM12,3h1v1h-1zM12,4h1v1h-1zM12,5h1v1h-1zM19,5h2v1h-2zM12,6h1v1h-1zM20,6h1v1h-1zM12,7h1v1h-1zM20,7h1v1h-1zM12,8h1v1h-1zM20,8h1v1h-1zM12,9h1v1h-1zM20,9h1v1h-1zM12,10h1v1h-1zM20,10h1v1h-1zM12,11h1v1h-1zM20,11h1v1h-1z"/><path fill="#ffcd75" d="M13,3h2v1h-2zM14,4h2v1h-2zM14,5h1v1h-1zM14,6h1v1h-1zM14,7h1v1h-1zM14,8h1v1h-1zM14,9h1v1h-1zM14,10h1v1h-1zM14,11h1v1h-1zM9,12h14v1h-14zM6,14h1v1h-1zM25,14h1v1h-1zM6,15h1v1h-1zM25,15h1v1h-1zM6,16h1v1h-1zM8,16h1v1h-1zM13,16h1v1h-1zM18,16h1v1h-1zM23,16h1v1h-1zM25,16h1v1h-1zM6,17h1v1h-1zM25,17h1v1h-1zM6,18h1v1h-1zM8,18h1v1h-1zM13,18h1v1h-1zM18,18h1v1h-1zM23,18h1v1h-1zM25,18h1v1h-1zM6,19h1v1h-1zM25,19h1v1h-1zM6,20h1v1h-1zM10,20h1v1h-1zM25,20h1v1h-1zM6,21h1v1h-1zM25,21h1v1h-1zM9,23h14v1h-14zM10,24h1v1h-1zM13,24h1v1h-1zM16,24h1v1h-1zM19,24h1v1h-1zM22,24h1v1h-1zM10,25h1v1h-1zM13,25h1v1h-1zM16,25h1v1h-1zM19,25h1v1h-1zM22,25h1v1h-1zM10,26h1v1h-1zM13,26h1v1h-1zM16,26h1v1h-1zM19,26h1v1h-1zM22,26h1v1h-1zM10,27h1v1h-1zM13,27h1v1h-1zM16,27h1v1h-1zM19,27h1v1h-1zM22,27h1v1h-1zM10,28h1v1h-1zM13,28h1v1h-1zM16,28h1v1h-1zM19,28h1v1h-1zM22,28h1v1h-1zM10,29h1v1h-1zM13,29h1v1h-1zM16,29h1v1h-1zM19,29h1v1h-1zM22,29h1v1h-1z"/><path fill="#a7f070" d="M17,4h2v1h-2zM18,5h1v1h-1zM18,6h1v1h-1zM18,7h1v1h-1zM18,8h1v1h-1zM18,9h1v1h-1zM18,10h1v1h-1zM18,11h1v1h-1zM24,15h1v1h-1z"/><path fill="#5d275d" d="M8,13h16v1h-16zM7,14h8v1h-8zM16,14h1v1h-1zM18,14h7v1h-7zM8,15h16v1h-16zM7,16h1v1h-1zM14,16h4v1h-4zM24,16h1v1h-1zM7,17h1v1h-1zM14,17h4v1h-4zM24,17h1v1h-1zM7,18h1v1h-1zM14,18h4v1h-4zM24,18h1v1h-1zM7,19h18v1h-18zM7,20h3v1h-3zM11,20h3v1h-3zM15,20h2v1h-2zM18,20h4v1h-4zM23,20h2v1h-2zM7,21h8v1h-8zM17,21h8v1h-8zM8,22h16v1h-16z"/><path fill="#f4f4f4" d="M15,14h1v1h-1zM17,14h1v1h-1zM10,16h1v1h-1zM20,16h1v1h-1zM10,17h1v1h-1zM20,17h1v1h-1z"/><path fill="#1a1c2c" d="M11,17h1v1h-1zM21,17h1v1h-1zM11,18h1v1h-1zM21,18h1v1h-1zM14,20h1v1h-1zM17,20h1v1h-1zM15,21h2v1h-2z"/><path fill="#ef7d57" d="M22,20h1v1h-1zM10,30h1v1h-1zM13,30h1v1h-1zM16,30h1v1h-1zM19,30h1v1h-1zM22,30h1v1h-1z"/></svg>