<svg xmlns="http://www.w3.org/2000/svg" width="32" height="32" viewBox="0 0 32 32" shape-rendering="crispEdges">
<path fill="#333c57" d="M4 1h1v1h-1zM4 2h1v1h-1zM4 3h1v1h-1zM15 16h2v1h-2zM14 17h4v1h-4zM3 24h26v1h-26z"/>
<path fill="#b13e53" d="M5 1h3v1h-3zM5 2h2v1h-2zM3 3h1v1h-1zM5 3h4v1h-4zM23 3h6v1h-6zM3 4h6v1h-6zM23 4h6v1h-6zM3 5h6v1h-6zM23 5h6v1h-6z"/>
<path fill="#566c86" d="M4 6h1v1h-1zM8 6h1v1h-1zM23 6h1v1h-1zM27 6h1v1h-1zM4 7h1v1h-1zM8 7h1v1h-1zM23 7h1v1h-1zM27 7h1v1h-1zM4 8h1v1h-1zM8 8h1v1h-1zM23 8h1v1h-1zM27 8h1v1h-1zM4 9h1v1h-1zM8 9h2v1h-2zM11 9h1v1h-1zM13 9h1v1h-1zM15 9h1v1h-1zM17 9h1v1h-1zM19 9h1v1h-1zM21 9h1v1h-1zM23 9h1v1h-1zM27 9h1v1h-1zM4 10h1v1h-1zM8 10h2v1h-2zM22 10h2v1h-2zM27 10h1v1h-1zM4 11h1v1h-1zM8 11h2v1h-2zM22 11h2v1h-2zM27 11h1v1h-1zM4 12h1v1h-1zM8 12h2v1h-2zM22 12h2v1h-2zM27 12h1v1h-1zM4 13h1v1h-1zM8 13h2v1h-2zM22 13h2v1h-2zM27 13h1v1h-1zM4 14h1v1h-1zM8 14h2v1h-2zM22 14h2v1h-2zM27 14h1v1h-1zM4 15h1v1h-1zM8 15h2v1h-2zM22 15h2v1h-2zM27 15h1v1h-1zM4 16h1v1h-1zM8 16h2v1h-2zM22 16h2v1h-2zM27 16h1v1h-1zM4 17h1v1h-1zM8 17h2v1h-2zM22 17h2v1h-2zM27 17h1v1h-1zM4 18h1v1h-1zM8 18h2v1h-2zM22 18h2v1h-2zM27 18h1v1h-1zM4 19h1v1h-1zM8 19h2v1h-2zM22 19h2v1h-2zM27 19h1v1h-1zM4 20h1v1h-1zM8 20h2v1h-2zM22 20h2v1h-2zM27 20h1v1h-1zM4 21h1v1h-1zM8 21h3v1h-3zM13 21h1v1h-1zM16 21h1v1h-1zM19 21h1v1h-1zM22 21h2v1h-2zM27 21h1v1h-1zM4 22h1v1h-1zM8 22h2v1h-2zM22 22h2v1h-2zM27 22h1v1h-1zM4 23h1v1h-1zM8 23h2v1h-2zM12 23h1v1h-1zM15 23h1v1h-1zM18 23h1v1h-1zM21 23h3v1h-3zM27 23h1v1h-1z"/>
<path fill="#94b0c2" d="M5 6h3v1h-3zM24 6h3v1h-3zM5 7h3v1h-3zM24 7h3v1h-3zM5 8h3v1h-3zM24 8h3v1h-3zM5 9h3v1h-3zM24 9h3v1h-3zM5 10h1v1h-1zM7 10h1v1h-1zM10 10h12v1h-12zM24 10h1v1h-1zM26 10h1v1h-1zM5 11h3v1h-3zM10 11h12v1h-12zM24 11h3v1h-3zM5 12h3v1h-3zM10 12h12v1h-12zM24 12h3v1h-3zM5 13h3v1h-3zM10 13h1v1h-1zM13 13h6v1h-6zM21 13h1v1h-1zM24 13h3v1h-3zM5 14h1v1h-1zM7 14h1v1h-1zM10 14h1v1h-1zM13 14h6v1h-6zM21 14h1v1h-1zM24 14h1v1h-1zM26 14h1v1h-1zM5 15h3v1h-3zM10 15h12v1h-12zM24 15h3v1h-3zM5 16h3v1h-3zM10 16h5v1h-5zM17 16h5v1h-5zM24 16h3v1h-3zM5 17h3v1h-3zM10 17h4v1h-4zM18 17h4v1h-4zM24 17h3v1h-3zM5 18h3v1h-3zM10 18h4v1h-4zM18 18h4v1h-4zM24 18h3v1h-3zM5 19h3v1h-3zM10 19h4v1h-4zM18 19h4v1h-4zM24 19h3v1h-3zM5 20h3v1h-3zM10 20h4v1h-4zM18 20h4v1h-4zM24 20h3v1h-3zM5 21h3v1h-3zM11 21h2v1h-2zM18 21h1v1h-1zM20 21h2v1h-2zM24 21h3v1h-3zM5 22h3v1h-3zM10 22h4v1h-4zM18 22h4v1h-4zM24 22h3v1h-3zM5 23h3v1h-3zM10 23h2v1h-2zM13 23h1v1h-1zM19 23h2v1h-2zM24 23h3v1h-3z"/>
<path fill="#ffcd75" d="M6 10h1v1h-1zM25 10h1v1h-1zM11 13h2v1h-2zM19 13h2v1h-2zM6 14h1v1h-1zM11 14h2v1h-2zM19 14h2v1h-2zM25 14h1v1h-1z"/>
<path fill="#1a1c2c" d="M14 18h4v1h-4zM14 19h4v1h-4zM14 20h4v1h-4zM14 21h2v1h-2zM17 21h1v1h-1zM14 22h4v1h-4zM14 23h1v1h-1zM16 23h2v1h-2z"/>
</svg>