<svg xmlns="http://www.w3.org/2000/svg" viewBox="0 0 32 32" shape-rendering="crispEdges"><path fill="#333c57" d="M16,0h1v1h-1Z"/><path fill="#b13e53" d="M17,0h5v1h-5ZM17,1h4v1h-4ZM17,2h2v1h-2Z"/><path fill="#3b5dc9" d="M15,1h1v1h-1ZM14,2h1v1h-1ZM16,2h1v1h-1ZM13,3h2v1h-2ZM16,3h3v1h-3ZM12,4h2v1h-2ZM15,4h5v1h-5ZM11,5h3v1h-3ZM15,5h6v1h-6ZM11,6h2v1h-2ZM14,6h8v1h-8ZM10,7h3v1h-3ZM14,7h9v1h-9ZM9,8h15v1h-15ZM8,9h16v1h-16Z"/><path fill="#41a6f6" d="M16,1h1v1h-1ZM15,2h1v1h-1ZM15,3h1v1h-1ZM14,4h1v1h-1ZM14,5h1v1h-1ZM13,6h1v1h-1ZM13,7h1v1h-1Z"/><path fill="#566c86" d="M8,10h16v1h-16ZM8,11h1v1h-1ZM10,11h1v1h-1ZM12,11h1v1h-1ZM14,11h1v1h-1ZM16,11h1v1h-1ZM20,11h1v1h-1ZM8,12h1v1h-1ZM12,12h1v1h-1ZM16,12h1v1h-1ZM20,12h1v1h-1ZM8,13h16v1h-16ZM10,14h1v1h-1ZM14,14h1v1h-1ZM18,14h1v1h-1ZM22,14h1v1h-1ZM10,15h1v1h-1ZM14,15h1v1h-1ZM18,15h1v1h-1ZM22,15h1v1h-1ZM8,16h6v1h-6ZM18,16h5v1h-5ZM10,17h1v1h-1ZM12,17h1v1h-1ZM20,17h1v1h-1ZM12,18h1v1h-1ZM15,18h2v1h-2ZM20,18h1v1h-1ZM8,19h6v1h-6ZM18,19h5v1h-5ZM10,20h1v1h-1ZM18,20h1v1h-1ZM22,20h1v1h-1ZM10,21h1v1h-1ZM14,21h1v1h-1ZM18,21h1v1h-1ZM22,21h1v1h-1ZM8,22h16v1h-16ZM8,23h1v1h-1ZM10,23h1v1h-1ZM12,23h1v1h-1ZM14,23h1v1h-1ZM16,23h1v1h-1ZM20,23h1v1h-1ZM8,24h1v1h-1ZM12,24h1v1h-1ZM16,24h1v1h-1ZM20,24h1v1h-1ZM8,25h16v1h-16ZM10,26h1v1h-1ZM14,26h1v1h-1ZM18,26h1v1h-1ZM22,26h1v1h-1ZM10,27h1v1h-1ZM14,27h1v1h-1ZM18,27h1v1h-1ZM22,27h1v1h-1ZM8,28h16v1h-16ZM8,29h1v1h-1ZM10,29h1v1h-1ZM12,29h1v1h-1ZM14,29h1v1h-1ZM16,29h1v1h-1ZM20,29h1v1h-1Z"/><path fill="#94b0c2" d="M9,11h1v1h-1ZM11,11h1v1h-1ZM13,11h1v1h-1ZM15,11h1v1h-1ZM17,11h3v1h-3ZM21,11h3v1h-3ZM9,12h3v1h-3ZM13,12h3v1h-3ZM17,12h3v1h-3ZM21,12h2v1h-2ZM9,14h1v1h-1ZM11,14h3v1h-3ZM15,14h3v1h-3ZM19,14h3v1h-3ZM23,14h1v1h-1ZM8,15h2v1h-2ZM11,15h3v1h-3ZM17,15h1v1h-1ZM19,15h3v1h-3ZM14,16h1v1h-1ZM17,16h1v1h-1ZM9,17h1v1h-1ZM11,17h1v1h-1ZM13,17h1v1h-1ZM18,17h2v1h-2ZM21,17h3v1h-3ZM9,18h3v1h-3ZM13,18h1v1h-1ZM18,18h2v1h-2ZM21,18h3v1h-3ZM8,20h2v1h-2ZM11,20h3v1h-3ZM19,20h3v1h-3ZM23,20h1v1h-1ZM9,21h1v1h-1ZM11,21h3v1h-3ZM15,21h3v1h-3ZM19,21h3v1h-3ZM23,21h1v1h-1ZM9,23h1v1h-1ZM11,23h1v1h-1ZM13,23h1v1h-1ZM15,23h1v1h-1ZM17,23h3v1h-3ZM21,23h3v1h-3ZM9,24h3v1h-3ZM13,24h3v1h-3ZM17,24h3v1h-3ZM21,24h3v1h-3ZM8,26h2v1h-2ZM11,26h3v1h-3ZM15,26h3v1h-3ZM19,26h3v1h-3ZM23,26h1v1h-1ZM8,27h2v1h-2ZM11,27h3v1h-3ZM15,27h3v1h-3ZM19,27h3v1h-3ZM23,27h1v1h-1ZM9,29h1v1h-1ZM11,29h1v1h-1ZM13,29h1v1h-1ZM15,29h1v1h-1ZM17,29h3v1h-3ZM21,29h3v1h-3Z"/><path fill="#38b764" d="M23,12h1v1h-1ZM24,13h1v1h-1ZM8,14h1v1h-1ZM24,14h1v1h-1ZM7,15h1v1h-1ZM23,15h1v1h-1ZM7,16h1v1h-1ZM23,16h1v1h-1ZM8,17h1v1h-1ZM24,17h1v1h-1ZM8,18h1v1h-1ZM24,18h1v1h-1ZM7,19h1v1h-1ZM23,19h1v1h-1ZM7,20h1v1h-1ZM8,21h1v1h-1ZM0,30h32v1h-32ZM0,31h32v1h-32Z"/><path fill="#a7f070" d="M25,13h1v1h-1ZM6,15h1v1h-1ZM25,17h1v1h-1ZM6,19h1v1h-1Z"/><path fill="#ffcd75" d="M15,15h2v1h-2ZM15,16h2v1h-2ZM14,17h4v1h-4ZM14,18h1v1h-1ZM17,18h1v1h-1ZM14,19h4v1h-4ZM14,20h4v1h-4Z"/></svg>