<svg xmlns="http://www.w3.org/2000/svg" width="32" height="32" viewBox="0 0 32 32" shape-rendering="crispEdges">
<path fill="#1a1c2c" d="M8 5h2v1h-2zM22 5h2v1h-2zM8 6h1v1h-1zM23 6h1v1h-1zM7 7h4v1h-4zM21 7h4v1h-4zM9 8h14v1h-14zM8 9h16v1h-16zM8 10h16v1h-16zM8 11h3v1h-3zM13 11h5v1h-5zM20 11h4v1h-4zM8 12h3v1h-3zM13 12h5v1h-5zM20 12h4v1h-4zM8 13h1v1h-1zM14 13h1v1h-1zM17 13h1v1h-1zM21 13h1v1h-1zM8 14h6v1h-6zM15 14h2v1h-2zM18 14h6v1h-6zM8 15h16v1h-16zM9 16h14v1h-14zM27 16h1v1h-1zM10 17h12v1h-12zM26 17h2v1h-2zM23 18h4v1h-4zM23 19h1v1h-1zM23 20h1v1h-1zM23 21h1v1h-1zM23 22h1v1h-1zM10 24h3v1h-3zM19 24h3v1h-3zM10 25h3v1h-3zM19 25h3v1h-3z"/><path fill="#333c57" d="M9 6h1v1h-1zM22 6h1v1h-1zM15 13h2v1h-2zM14 14h1v1h-1zM17 14h1v1h-1zM10 18h12v1h-12zM10 19h5v1h-5zM17 19h5v1h-5zM10 20h4v1h-4zM15 20h2v1h-2zM18 20h4v1h-4zM10 21h5v1h-5zM17 21h5v1h-5zM10 22h12v1h-12zM10 23h12v1h-12zM13 24h6v1h-6z"/><path fill="#ffcd75" d="M26 6h1v1h-1zM25 7h3v1h-3zM5 8h1v1h-1zM26 8h1v1h-1zM4 9h3v1h-3zM5 10h1v1h-1zM11 11h2v1h-2zM18 11h2v1h-2zM11 12h2v1h-2zM18 12h2v1h-2zM11 13h3v1h-3zM18 13h3v1h-3zM15 19h2v1h-2zM14 20h1v1h-1zM17 20h1v1h-1zM15 21h2v1h-2z"/><path fill="#ff9eb7" d="M9 13h2v1h-2zM22 13h2v1h-2z"/>
</svg>