<svg xmlns="http://www.w3.org/2000/svg" width="32" height="32" viewBox="0 0 32 32" shape-rendering="crispEdges">
<path fill="#ef7d57" d="M8 4h2v1h-2zM22 4h2v1h-2zM7 5h1v1h-1zM9 5h2v1h-2zM21 5h1v1h-1zM23 5h2v1h-2zM11 6h9v1h-9zM9 7h11v1h-11zM8 8h12v1h-12zM7 9h4v1h-4zM13 9h6v1h-6zM7 10h4v1h-4zM13 10h6v1h-6zM7 11h2v1h-2zM11 11h4v1h-4zM17 11h3v1h-3zM11 12h3v1h-3zM18 12h2v1h-2zM9 15h10v1h-10zM9 16h10v1h-10zM9 17h10v1h-10zM11 18h8v1h-8zM11 19h8v1h-8zM11 20h8v1h-8zM11 21h8v1h-8zM10 25h3v1h-3zM10 26h3v1h-3zM10 27h3v1h-3z"/>
<path fill="#c2711f" d="M8 5h1v1h-1zM22 5h1v1h-1zM20 6h1v1h-1zM20 7h3v1h-3zM20 8h4v1h-4zM21 9h4v1h-4zM21 10h4v1h-4zM20 11h1v1h-1zM23 11h2v1h-2zM14 12h1v1h-1zM17 12h1v1h-1zM20 12h1v1h-1zM9 13h14v1h-14zM11 14h10v1h-10zM19 15h4v1h-4zM19 16h4v1h-4zM19 17h4v1h-4zM19 18h4v1h-4zM25 18h1v1h-1zM19 19h4v1h-4zM24 19h2v1h-2zM19 20h6v1h-6zM19 21h5v1h-5zM9 22h15v1h-15zM9 23h15v1h-15zM9 24h15v1h-15zM19 25h3v1h-3zM19 26h3v1h-3zM19 27h3v1h-3z"/>
<path fill="#1a1c2c" d="M11 9h1v1h-1zM20 9h1v1h-1zM11 10h1v1h-1zM20 10h1v1h-1zM15 12h2v1h-2z"/>
<path fill="#a7f070" d="M12 9h1v1h-1zM19 9h1v1h-1zM12 10h1v1h-1zM19 10h1v1h-1z"/>
<path fill="#94b0c2" d="M9 11h2v1h-2zM21 11h2v1h-2zM8 12h3v1h-3zM21 12h3v1h-3z"/>
<path fill="#b13e53" d="M15 11h2v1h-2z"/>
</svg>