<svg xmlns="http://www.w3.org/2000/svg" viewBox="0 0 32 32" shape-rendering="crispEdges"><path fill="#ef7d57" d="M3,11h2v1h-2ZM10,11h2v1h-2ZM4,12h1v1h-1ZM10,12h1v1h-1ZM5,13h1v1h-1ZM9,13h1v1h-1ZM5,14h1v1h-1ZM9,14h1v1h-1ZM6,23h1v1h-1ZM8,23h1v1h-1ZM12,23h1v1h-1ZM14,23h1v1h-1ZM17,24h1v1h-1ZM19,24h1v1h-1ZM22,24h1v1h-1ZM25,24h1v1h-1Z"/><path fill="#38b764" d="M7,15h1v1h-1ZM5,16h2v1h-2ZM8,16h2v1h-2ZM13,17h1v1h-1ZM11,18h5v1h-5ZM3,19h1v1h-1ZM11,19h5v1h-5ZM22,19h1v1h-1ZM10,20h6v1h-6ZM21,20h3v1h-3ZM4,21h1v1h-1ZM10,21h5v1h-5ZM20,21h4v1h-4ZM5,22h2v1h-2ZM8,22h2v1h-2ZM11,22h5v1h-5ZM21,22h2v1h-2ZM27,22h2v1h-2ZM7,23h1v1h-1ZM13,23h1v1h-1ZM22,23h1v1h-1ZM27,23h2v1h-2ZM4,24h13v1h-13ZM20,24h2v1h-2ZM23,24h2v1h-2ZM26,24h2v1h-2ZM2,25h12v1h-12ZM15,25h15v1h-15ZM2,26h12v1h-12ZM15,26h15v1h-15ZM2,27h12v1h-12ZM15,27h15v1h-15Z"/><path fill="#a7f070" d="M7,16h1v1h-1ZM7,17h1v1h-1ZM7,18h1v1h-1ZM18,18h1v1h-1ZM7,19h1v1h-1ZM16,19h5v1h-5ZM5,20h5v1h-5ZM16,20h5v1h-5ZM25,20h1v1h-1ZM5,21h2v1h-2ZM8,21h2v1h-2ZM15,21h5v1h-5ZM24,21h3v1h-3ZM7,22h1v1h-1ZM16,22h5v1h-5ZM23,22h4v1h-4ZM16,23h5v1h-5ZM24,23h3v1h-3ZM18,24h1v1h-1ZM14,25h1v1h-1ZM14,26h1v1h-1ZM14,27h1v1h-1Z"/><path fill="#f4f4f4" d="M4,17h3v1h-3ZM8,17h3v1h-3ZM4,18h1v1h-1ZM10,18h1v1h-1ZM4,19h1v1h-1ZM10,19h1v1h-1Z"/><path fill="#1a1c2c" d="M5,18h2v1h-2ZM8,18h2v1h-2ZM5,19h2v1h-2ZM8,19h2v1h-2Z"/><path fill="#ff9eb7" d="M3,20h2v1h-2Z"/><path fill="#b13e53" d="M7,21h1v1h-1Z"/></svg>