<svg xmlns="http://www.w3.org/2000/svg" width="16" height="16" viewBox="0 0 16 16" shape-rendering="crispEdges">
<!-- 奶酪 -->
<path fill="#1a1c2c" d="M2 3h10v1h-10zM1 4h1v1h-1zM12 4h1v1h-1zM1 5h1v1h-1zM12 5h1v1h-1zM1 6h1v1h-1zM12 6h1v1h-1zM1 7h1v1h-1zM12 7h1v1h-1zM1 8h1v1h-1zM12 8h1v1h-1zM2 9h1v1h-1zM11 9h1v1h-1zM3 10h8v1h-8z"/>
<path fill="#ffcd75" d="M2 4h10v1h-10zM2 5h10v1h-10zM2 6h10v1h-10zM2 7h10v1h-10zM2 8h10v1h-10zM3 9h8v1h-8z"/>
<path fill="#f4f4f4" d="M2 4h2v1h-2zM2 5h1v1h-1z"/>
<path fill="#d4a56a" d="M10 7h2v1h-2zM10 8h2v1h-2zM9 9h2v1h-2z"/>
<path fill="#ef7d57" d="M5 6h2v1h-2zM4 7h2v1h-2zM8 8h1v1h-1z"/>
</svg>