<svg xmlns="http://www.w3.org/2000/svg" viewBox="0 0 32 32" shape-rendering="crispEdges"><path fill="#a7f070" d="M18,1h1v1h-1zM17,2h1v1h-1zM19,2h1v1h-1zM19,3h1v1h-1z"/><path fill="#38b764" d="M16,2h1v1h-1zM18,2h1v1h-1zM16,3h1v1h-1zM17,3h1v1h-1zM18,3h1v1h-1zM15,4h1v1h-1zM16,4h1v1h-1zM15,5h1v1h-1zM16,5h1v1h-1zM14,6h1v1h-1zM15,6h1v1h-1zM16,6h1v1h-1zM17,6h1v1h-1zM13,7h1v1h-1zM18,7h1v1h-1zM12,8h1v1h-1zM19,8h1v1h-1zM11,9h1v1h-1zM20,9h1v1h-1zM10,10h1v1h-1zM21,10h1v1h-1zM10,11h1v1h-1zM21,11h1v1h-1z"/><path fill="#b13e53" d="M8,12h1v1h-1zM9,12h1v1h-1zM10,12h1v1h-1zM11,12h1v1h-1zM12,12h1v1h-1zM19,12h1v1h-1zM20,12h1v1h-1zM21,12h1v1h-1zM22,12h1v1h-1zM23,12h1v1h-1zM7,13h1v1h-1zM8,13h1v1h-1zM9,13h1v1h-1zM10,13h1v1h-1zM11,13h1v1h-1zM12,13h1v1h-1zM13,13h1v1h-1zM18,13h1v1h-1zM19,13h1v1h-1zM20,13h1v1h-1zM21,13h1v1h-1zM22,13h1v1h-1zM23,13h1v1h-1zM24,13h1v1h-1zM6,14h1v1h-1zM7,14h1v1h-1zM8,14h1v1h-1zM11,14h1v1h-1zM12,14h1v1h-1zM13,14h1v1h-1zM14,14h1v1h-1zM17,14h1v1h-1zM18,14h1v1h-1zM19,14h1v1h-1zM22,14h1v1h-1zM23,14h1v1h-1zM24,14h1v1h-1zM25,14h1v1h-1zM6,15h1v1h-1zM7,15h1v1h-1zM8,15h1v1h-1zM10,15h1v1h-1zM11,15h1v1h-1zM12,15h1v1h-1zM13,15h1v1h-1zM14,15h1v1h-1zM17,15h1v1h-1zM18,15h1v1h-1zM19,15h1v1h-1zM21,15h1v1h-1zM22,15h1v1h-1zM24,15h1v1h-1zM25,15h1v1h-1zM6,16h1v1h-1zM7,16h1v1h-1zM9,16h1v1h-1zM10,16h1v1h-1zM11,16h1v1h-1zM13,16h1v1h-1zM14,16h1v1h-1zM17,16h1v1h-1zM18,16h1v1h-1zM20,16h1v1h-1zM21,16h1v1h-1zM22,16h1v1h-1zM24,16h1v1h-1zM25,16h1v1h-1zM6,17h1v1h-1zM8,17h1v1h-1zM10,17h1v1h-1zM12,17h1v1h-1zM14,17h1v1h-1zM17,17h1v1h-1zM19,17h1v1h-1zM21,17h1v1h-1zM23,17h1v1h-1zM25,17h1v1h-1zM6,18h1v1h-1zM7,18h1v1h-1zM8,18h1v1h-1zM12,18h1v1h-1zM13,18h1v1h-1zM14,18h1v1h-1zM17,18h1v1h-1zM18,18h1v1h-1zM19,18h1v1h-1zM23,18h1v1h-1zM24,18h1v1h-1zM25,18h1v1h-1zM7,19h1v1h-1zM8,19h1v1h-1zM9,19h1v1h-1zM10,19h1v1h-1zM11,19h1v1h-1zM12,19h1v1h-1zM13,19h1v1h-1zM18,19h1v1h-1zM19,19h1v1h-1zM20,19h1v1h-1zM21,19h1v1h-1zM22,19h1v1h-1zM23,19h1v1h-1zM24,19h1v1h-1zM8,20h1v1h-1zM9,20h1v1h-1zM10,20h1v1h-1zM11,20h1v1h-1zM12,20h1v1h-1zM19,20h1v1h-1zM20,20h1v1h-1zM21,20h1v1h-1zM22,20h1v1h-1zM23,20h1v1h-1z"/><path fill="#f4f4f4" d="M9,14h1v1h-1zM10,14h1v1h-1zM20,14h1v1h-1zM21,14h1v1h-1zM9,15h1v1h-1zM20,15h1v1h-1z"/><path fill="#1a1c2c" d="M23,15h1v1h-1zM8,16h1v1h-1zM12,16h1v1h-1zM19,16h1v1h-1zM23,16h1v1h-1zM9,17h1v1h-1zM11,17h1v1h-1zM20,17h1v1h-1zM22,17h1v1h-1zM9,18h1v1h-1zM10,18h1v1h-1zM11,18h1v1h-1zM20,18h1v1h-1zM21,18h1v1h-1zM22,18h1v1h-1z"/><path fill="#ff9eb7" d="M7,17h1v1h-1zM13,17h1v1h-1zM18,17h1v1h-1zM24,17h1v1h-1z"/></svg>