<svg xmlns="http://www.w3.org/2000/svg" viewBox="0 0 32 32" shape-rendering="crispEdges"><path fill="#ff9eb7" d="M15,0h1v1h-1zM16,0h1v1h-1zM14,1h1v1h-1zM15,1h1v1h-1zM16,1h1v1h-1zM17,1h1v1h-1zM13,2h1v1h-1zM14,2h1v1h-1zM15,2h1v1h-1zM17,2h1v1h-1zM18,2h1v1h-1zM13,3h1v1h-1zM14,3h1v1h-1zM15,3h1v1h-1zM17,3h1v1h-1zM18,3h1v1h-1zM14,4h1v1h-1zM15,4h1v1h-1zM16,4h1v1h-1zM17,4h1v1h-1zM14,5h1v1h-1zM15,5h1v1h-1zM16,5h1v1h-1zM17,5h1v1h-1zM10,6h1v1h-1zM11,6h1v1h-1zM20,6h1v1h-1zM21,6h1v1h-1zM8,7h1v1h-1zM9,7h1v1h-1zM10,7h1v1h-1zM11,7h1v1h-1zM20,7h1v1h-1zM21,7h1v1h-1zM22,7h1v1h-1zM23,7h1v1h-1zM6,8h1v1h-1zM7,8h1v1h-1zM9,8h1v1h-1zM10,8h1v1h-1zM11,8h1v1h-1zM12,8h1v1h-1zM19,8h1v1h-1zM20,8h1v1h-1zM21,8h1v1h-1zM22,8h1v1h-1zM24,8h1v1h-1zM25,8h1v1h-1zM5,9h1v1h-1zM6,9h1v1h-1zM7,9h1v1h-1zM8,9h1v1h-1zM10,9h1v1h-1zM11,9h1v1h-1zM12,9h1v1h-1zM19,9h1v1h-1zM20,9h1v1h-1zM21,9h1v1h-1zM23,9h1v1h-1zM24,9h1v1h-1zM25,9h1v1h-1zM26,9h1v1h-1zM5,10h1v1h-1zM6,10h1v1h-1zM7,10h1v1h-1zM8,10h1v1h-1zM9,10h1v1h-1zM10,10h1v1h-1zM11,10h1v1h-1zM12,10h1v1h-1zM19,10h1v1h-1zM20,10h1v1h-1zM21,10h1v1h-1zM22,10h1v1h-1zM23,10h1v1h-1zM24,10h1v1h-1zM25,10h1v1h-1zM26,10h1v1h-1zM13,14h1v1h-1zM18,14h1v1h-1zM11,18h1v1h-1zM12,18h1v1h-1zM19,18h1v1h-1zM20,18h1v1h-1zM9,19h1v1h-1zM10,19h1v1h-1zM11,19h1v1h-1zM12,19h1v1h-1zM19,19h1v1h-1zM20,19h1v1h-1zM21,19h1v1h-1zM22,19h1v1h-1zM7,20h1v1h-1zM8,20h1v1h-1zM10,20h1v1h-1zM11,20h1v1h-1zM12,20h1v1h-1zM13,20h1v1h-1zM18,20h1v1h-1zM19,20h1v1h-1zM20,20h1v1h-1zM21,20h1v1h-1zM23,20h1v1h-1zM24,20h1v1h-1zM6,21h1v1h-1zM7,21h1v1h-1zM8,21h1v1h-1zM9,21h1v1h-1zM11,21h1v1h-1zM12,21h1v1h-1zM13,21h1v1h-1zM18,21h1v1h-1zM19,21h1v1h-1zM20,21h1v1h-1zM22,21h1v1h-1zM23,21h1v1h-1zM24,21h1v1h-1zM25,21h1v1h-1zM1,22h1v1h-1zM6,22h1v1h-1zM7,22h1v1h-1zM8,22h1v1h-1zM9,22h1v1h-1zM10,22h1v1h-1zM21,22h1v1h-1zM22,22h1v1h-1zM23,22h1v1h-1zM24,22h1v1h-1zM25,22h1v1h-1zM2,23h1v1h-1zM4,25h1v1h-1zM3,26h1v1h-1zM4,26h1v1h-1zM3,27h1v1h-1zM4,27h1v1h-1zM28,27h1v1h-1zM27,28h1v1h-1zM28,28h1v1h-1zM27,29h1v1h-1zM28,29h1v1h-1z"/><path fill="#f4f4f4" d="M16,2h1v1h-1zM16,3h1v1h-1zM8,8h1v1h-1zM23,8h1v1h-1zM9,9h1v1h-1zM22,9h1v1h-1zM9,20h1v1h-1zM22,20h1v1h-1zM10,21h1v1h-1zM21,21h1v1h-1z"/><path fill="#ffcd75" d="M14,11h1v1h-1zM17,11h1v1h-1zM13,12h1v1h-1zM14,12h1v1h-1zM15,12h1v1h-1zM16,12h1v1h-1zM17,12h1v1h-1zM18,12h1v1h-1zM13,13h1v1h-1zM18,13h1v1h-1zM14,14h1v1h-1zM17,14h1v1h-1zM13,15h1v1h-1zM14,15h1v1h-1zM17,15h1v1h-1zM18,15h1v1h-1zM14,16h1v1h-1zM17,16h1v1h-1z"/><path fill="#1a1c2c" d="M14,13h1v1h-1zM17,13h1v1h-1zM15,15h1v1h-1zM16,15h1v1h-1z"/><path fill="#ef7d57" d="M15,13h1v1h-1zM16,13h1v1h-1zM15,14h1v1h-1zM16,14h1v1h-1z"/></svg>