<svg xmlns="http://www.w3.org/2000/svg" viewBox="0 0 32 32" shape-rendering="crispEdges"><path fill="#ffcd75" d="M15,2h2v1h-2zM14,3h4v1h-4zM15,4h2v1h-2zM11,8h10v1h-10z"/><path fill="#f4f4f4" d="M11,5h10v1h-10zM11,6h10v1h-10zM12,7h1v1h-1zM14,7h4v1h-4zM19,7h2v1h-2zM12,10h3v1h-3zM17,10h3v1h-3zM12,11h8v1h-8zM12,12h9v1h-9zM12,13h9v1h-9zM12,14h8v1h-8zM12,15h8v1h-8zM12,16h8v1h-8zM10,19h12v1h-12zM8,22h16v1h-16zM8,23h16v1h-16zM0,26h4v1h-4zM8,26h4v1h-4zM16,26h4v1h-4zM24,26h4v1h-4zM0,27h4v1h-4zM8,27h4v1h-4zM16,27h4v1h-4zM24,27h4v1h-4zM4,28h4v1h-4zM12,28h4v1h-4zM20,28h4v1h-4zM28,28h4v1h-4zM4,29h4v1h-4zM12,29h4v1h-4zM20,29h4v1h-4zM28,29h4v1h-4zM4,30h4v1h-4zM12,30h4v1h-4zM20,30h4v1h-4zM28,30h4v1h-4zM4,31h4v1h-4zM12,31h4v1h-4zM20,31h4v1h-4zM28,31h4v1h-4z"/><path fill="#94b0c2" d="M11,7h1v1h-1zM13,9h1v1h-1zM15,9h2v1h-2zM18,9h1v1h-1zM11,12h1v1h-1zM11,13h1v1h-1zM11,17h10v1h-10zM11,18h10v1h-10zM9,20h14v1h-14zM9,21h14v1h-14zM8,24h16v1h-16zM8,25h16v1h-16z"/><path fill="#1a1c2c" d="M13,7h1v1h-1zM18,7h1v1h-1zM14,9h1v1h-1zM17,9h1v1h-1zM15,10h2v1h-2zM4,26h4v1h-4zM12,26h4v1h-4zM20,26h4v1h-4zM28,26h4v1h-4zM4,27h4v1h-4zM12,27h4v1h-4zM20,27h4v1h-4zM28,27h4v1h-4zM0,28h4v1h-4zM8,28h4v1h-4zM16,28h4v1h-4zM24,28h4v1h-4zM0,29h4v1h-4zM8,29h4v1h-4zM16,29h4v1h-4zM24,29h4v1h-4zM0,30h4v1h-4zM8,30h4v1h-4zM16,30h4v1h-4zM24,30h4v1h-4zM0,31h4v1h-4zM8,31h4v1h-4zM16,31h4v1h-4zM24,31h4v1h-4z"/></svg>