<svg xmlns="http://www.w3.org/2000/svg" width="16" height="16" viewBox="0 0 16 16" shape-rendering="crispEdges">
<!-- 小鸡（农场） -->
<path fill="#1a1c2c" d="M6 1h3v1h-3zM5 2h1v1h-1zM9 2h1v1h-1zM4 3h1v1h-1zM10 3h1v1h-1zM4 4h1v1h-1zM10 4h1v1h-1zM3 5h1v1h-1zM10 5h1v1h-1zM3 6h1v1h-1zM11 6h1v1h-1zM3 7h1v1h-1zM11 7h1v1h-1zM4 8h1v1h-1zM10 8h1v1h-1zM4 9h2v1h-2zM8 9h2v1h-2zM5 10h1v1h-1zM9 10h1v1h-1z"/>
<path fill="#f4f4f4" d="M6 2h3v1h-3zM5 3h5v1h-5zM5 4h5v1h-5zM4 5h6v1h-6zM4 6h7v1h-7zM4 7h7v1h-7zM5 8h5v1h-5z"/>
<path fill="#ffcd75" d="M5 3h1v1h-1zM5 4h1v1h-1zM4 5h1v1h-1z"/>
<path fill="#1a1c2c" d="M7 3h1v1h-1z"/>
<path fill="#b13e53" d="M6 1h1v1h-1zM7 1h1v1h-1z"/>
<path fill="#ef7d57" d="M10 5h1v1h-1zM10 6h1v1h-1zM11 5h1v1h-1z"/>
<path fill="#d4a56a" d="M9 7h2v1h-2zM9 8h1v1h-1z"/>
<path fill="#ffcd75" d="M5 9h3v1h-3zM6 10h3v1h-3z"/>
</svg>