<svg xmlns="http://www.w3.org/2000/svg" viewBox="0 0 32 32" shape-rendering="crispEdges"><path fill="#8b5e34" d="M7,1h1v1h-1zM24,1h1v1h-1zM6,2h3v1h-3zM23,2h3v1h-3zM5,3h1v1h-1zM7,3h1v1h-1zM9,3h1v1h-1zM22,3h1v1h-1zM24,3h1v1h-1zM26,3h1v1h-1zM7,4h1v1h-1zM24,4h1v1h-1zM7,5h1v1h-1zM24,5h1v1h-1zM15,14h2v1h-2z"/><path fill="#b13e53" d="M10,3h12v1h-12zM9,4h14v1h-14zM7,6h1v1h-1zM24,6h1v1h-1zM5,8h1v1h-1zM26,8h1v1h-1zM5,9h1v1h-1zM26,9h1v1h-1zM5,10h1v1h-1zM10,10h4v1h-4zM18,10h4v1h-4zM26,10h1v1h-1zM5,11h1v1h-1zM10,11h1v1h-1zM13,11h1v1h-1zM18,11h1v1h-1zM21,11h1v1h-1zM26,11h1v1h-1zM5,12h1v1h-1zM10,12h1v1h-1zM13,12h1v1h-1zM18,12h1v1h-1zM21,12h1v1h-1zM26,12h1v1h-1zM10,13h4v1h-4zM18,13h4v1h-4zM10,21h3v1h-3zM19,21h3v1h-3zM10,22h3v1h-3zM19,22h3v1h-3z"/><path fill="#ef7d57" d="M8,5h16v1h-16zM6,7h1v1h-1zM14,7h1v1h-1zM16,7h2v1h-2zM25,7h1v1h-1zM6,8h1v1h-1zM9,8h1v1h-1zM15,8h1v1h-1zM22,8h1v1h-1zM25,8h1v1h-1zM6,9h1v1h-1zM9,9h1v1h-1zM22,9h1v1h-1zM25,9h1v1h-1zM6,10h1v1h-1zM9,10h1v1h-1zM22,10h1v1h-1zM25,10h1v1h-1zM6,11h1v1h-1zM9,11h1v1h-1zM22,11h1v1h-1zM25,11h1v1h-1zM6,12h1v1h-1zM9,12h1v1h-1zM22,12h1v1h-1zM25,12h1v1h-1zM6,13h1v1h-1zM9,13h1v1h-1zM22,13h1v1h-1zM25,13h1v1h-1zM6,14h1v1h-1zM9,14h1v1h-1zM14,14h1v1h-1zM17,14h1v1h-1zM22,14h1v1h-1zM25,14h1v1h-1zM9,15h1v1h-1zM14,15h4v1h-4zM22,15h1v1h-1zM9,16h1v1h-1zM15,16h2v1h-2zM22,16h1v1h-1zM9,17h1v1h-1zM22,17h1v1h-1zM11,23h2v1h-2zM19,23h2v1h-2z"/><path fill="#ffcd75" d="M9,6h14v1h-14zM8,7h6v1h-6zM15,7h1v1h-1zM18,7h6v1h-6zM8,8h1v1h-1zM10,8h5v1h-5zM16,8h6v1h-6zM23,8h1v1h-1zM8,9h1v1h-1zM14,9h4v1h-4zM23,9h1v1h-1zM8,10h1v1h-1zM14,10h4v1h-4zM23,10h1v1h-1zM8,11h1v1h-1zM14,11h4v1h-4zM23,11h1v1h-1zM8,12h1v1h-1zM14,12h4v1h-4zM23,12h1v1h-1zM8,13h1v1h-1zM14,13h4v1h-4zM23,13h1v1h-1zM8,14h1v1h-1zM10,14h4v1h-4zM18,14h4v1h-4zM23,14h1v1h-1zM8,15h1v1h-1zM12,15h2v1h-2zM18,15h2v1h-2zM23,15h1v1h-1zM8,16h1v1h-1zM12,16h2v1h-2zM18,16h2v1h-2zM23,16h1v1h-1zM8,17h1v1h-1zM10,17h3v1h-3zM14,17h4v1h-4zM19,17h3v1h-3zM23,17h1v1h-1zM8,18h5v1h-5zM19,18h5v1h-5zM9,19h4v1h-4zM19,19h4v1h-4zM9,20h14v1h-14zM13,21h6v1h-6z"/><path fill="#333c57" d="M10,9h4v1h-4zM18,9h4v1h-4zM14,16h1v1h-1zM17,16h1v1h-1zM13,18h1v1h-1zM18,18h1v1h-1zM13,19h1v1h-1zM18,19h1v1h-1z"/><path fill="#94b0c2" d="M3,11h2v1h-2zM27,11h2v1h-2zM4,14h1v1h-1zM7,14h1v1h-1zM24,14h1v1h-1zM27,14h1v1h-1zM5,15h2v1h-2zM25,15h2v1h-2z"/><path fill="#f4f4f4" d="M11,11h1v1h-1zM19,11h1v1h-1zM15,18h1v1h-1z"/><path fill="#1a1c2c" d="M12,11h1v1h-1zM20,11h1v1h-1zM11,12h2v1h-2zM19,12h2v1h-2z"/><path fill="#ff9eb7" d="M10,15h2v1h-2zM20,15h2v1h-2zM10,16h2v1h-2zM20,16h2v1h-2z"/><path fill="#73eff7" d="M13,17h1v1h-1zM18,17h1v1h-1zM14,18h1v1h-1zM16,18h2v1h-2zM14,19h4v1h-4z"/></svg>