<svg xmlns="http://www.w3.org/2000/svg" viewBox="0 0 32 32" shape-rendering="crispEdges"><path fill="#ffcd75" d="M16,3h1v1h-1zM15,4h1v1h-1zM16,4h1v1h-1zM17,4h1v1h-1zM16,5h1v1h-1zM15,7h1v1h-1zM14,12h1v1h-1zM17,12h1v1h-1zM16,17h1v1h-1zM19,17h1v1h-1zM18,19h1v1h-1zM10,24h1v1h-1zM9,25h1v1h-1zM10,25h1v1h-1zM11,25h1v1h-1zM12,25h1v1h-1zM21,25h1v1h-1zM10,26h1v1h-1zM20,26h1v1h-1zM21,26h1v1h-1zM22,26h1v1h-1zM23,26h1v1h-1z"/><path fill="#38b764" d="M15,6h1v1h-1zM17,6h1v1h-1zM14,7h1v1h-1zM16,7h1v1h-1zM17,7h1v1h-1zM18,7h1v1h-1zM13,8h1v1h-1zM14,8h1v1h-1zM16,8h1v1h-1zM18,8h1v1h-1zM19,8h1v1h-1zM12,9h1v1h-1zM13,9h1v1h-1zM14,9h1v1h-1zM15,9h1v1h-1zM16,9h1v1h-1zM18,9h1v1h-1zM19,9h1v1h-1zM20,9h1v1h-1zM11,10h1v1h-1zM12,10h1v1h-1zM13,10h1v1h-1zM15,10h1v1h-1zM16,10h1v1h-1zM17,10h1v1h-1zM19,10h1v1h-1zM20,10h1v1h-1zM21,10h1v1h-1zM13,11h1v1h-1zM14,11h1v1h-1zM16,11h1v1h-1zM17,11h1v1h-1zM19,11h1v1h-1zM12,12h1v1h-1zM13,12h1v1h-1zM15,12h1v1h-1zM16,12h1v1h-1zM18,12h1v1h-1zM19,12h1v1h-1zM20,12h1v1h-1zM11,13h1v1h-1zM12,13h1v1h-1zM13,13h1v1h-1zM14,13h1v1h-1zM15,13h1v1h-1zM17,13h1v1h-1zM18,13h1v1h-1zM19,13h1v1h-1zM20,13h1v1h-1zM21,13h1v1h-1zM10,14h1v1h-1zM11,14h1v1h-1zM12,14h1v1h-1zM13,14h1v1h-1zM15,14h1v1h-1zM16,14h1v1h-1zM17,14h1v1h-1zM19,14h1v1h-1zM20,14h1v1h-1zM21,14h1v1h-1zM22,14h1v1h-1zM9,15h1v1h-1zM10,15h1v1h-1zM11,15h1v1h-1zM12,15h1v1h-1zM14,15h1v1h-1zM15,15h1v1h-1zM16,15h1v1h-1zM17,15h1v1h-1zM18,15h1v1h-1zM20,15h1v1h-1zM21,15h1v1h-1zM22,15h1v1h-1zM23,15h1v1h-1zM12,16h1v1h-1zM13,16h1v1h-1zM14,16h1v1h-1zM16,16h1v1h-1zM17,16h1v1h-1zM18,16h1v1h-1zM19,16h1v1h-1zM20,16h1v1h-1zM11,17h1v1h-1zM13,17h1v1h-1zM14,17h1v1h-1zM15,17h1v1h-1zM17,17h1v1h-1zM18,17h1v1h-1zM20,17h1v1h-1zM21,17h1v1h-1zM10,18h1v1h-1zM12,18h1v1h-1zM13,18h1v1h-1zM15,18h1v1h-1zM16,18h1v1h-1zM17,18h1v1h-1zM18,18h1v1h-1zM19,18h1v1h-1zM22,18h1v1h-1zM9,19h1v1h-1zM10,19h1v1h-1zM11,19h1v1h-1zM12,19h1v1h-1zM14,19h1v1h-1zM15,19h1v1h-1zM16,19h1v1h-1zM19,19h1v1h-1zM20,19h1v1h-1zM22,19h1v1h-1zM23,19h1v1h-1zM8,20h1v1h-1zM9,20h1v1h-1zM10,20h1v1h-1zM11,20h1v1h-1zM12,20h1v1h-1zM13,20h1v1h-1zM14,20h1v1h-1zM15,20h1v1h-1zM16,20h1v1h-1zM17,20h1v1h-1zM18,20h1v1h-1zM19,20h1v1h-1zM20,20h1v1h-1zM21,20h1v1h-1zM22,20h1v1h-1zM23,20h1v1h-1zM24,20h1v1h-1z"/><path fill="#f4f4f4" d="M16,6h1v1h-1zM14,10h1v1h-1zM18,10h1v1h-1zM13,15h1v1h-1zM19,15h1v1h-1zM11,18h1v1h-1zM21,18h1v1h-1z"/><path fill="#b13e53" d="M15,8h1v1h-1zM17,8h1v1h-1zM18,11h1v1h-1zM14,14h1v1h-1zM12,17h1v1h-1zM20,18h1v1h-1zM21,19h1v1h-1zM9,24h1v1h-1zM11,24h1v1h-1zM12,24h1v1h-1zM9,26h1v1h-1zM11,26h1v1h-1zM12,26h1v1h-1z"/><path fill="#3b5dc9" d="M17,9h1v1h-1zM15,16h1v1h-1zM13,19h1v1h-1zM20,25h1v1h-1zM22,25h1v1h-1zM23,25h1v1h-1z"/><path fill="#73eff7" d="M15,11h1v1h-1zM16,13h1v1h-1zM18,14h1v1h-1zM14,18h1v1h-1zM17,19h1v1h-1z"/><path fill="#8b5e34" d="M15,21h1v1h-1zM16,21h1v1h-1zM17,21h1v1h-1zM15,22h1v1h-1zM16,22h1v1h-1zM17,22h1v1h-1zM15,23h1v1h-1zM16,23h1v1h-1zM17,23h1v1h-1zM15,24h1v1h-1zM16,24h1v1h-1zM17,24h1v1h-1z"/></svg>