<svg xmlns="http://www.w3.org/2000/svg" viewBox="0 0 32 32" shape-rendering="crispEdges"><path fill="#ffecd2" d="M15,5h1v1h-1zM11,6h5v1h-5zM15,6h5v1h-5zM9,7h7v1h-7zM15,7h7v1h-7zM8,8h8v1h-8zM15,8h8v1h-8zM7,9h9v1h-9zM15,9h1v1h-1zM15,9h9v1h-9zM6,10h7v1h-7zM12,10h2v1h-2zM13,10h2v1h-2zM14,10h2v1h-2zM15,10h1v1h-1zM15,10h2v1h-2zM16,10h2v1h-2zM17,10h2v1h-2zM18,10h7v1h-7zM6,11h6v1h-6zM11,11h2v1h-2zM12,11h2v1h-2zM13,11h2v1h-2zM14,11h2v1h-2zM15,11h1v1h-1zM15,11h2v1h-2zM16,11h2v1h-2zM17,11h2v1h-2zM18,11h2v1h-2zM19,11h6v1h-6zM5,12h6v1h-6zM10,12h2v1h-2zM11,12h2v1h-2zM12,12h2v1h-2zM13,12h2v1h-2zM14,12h2v1h-2zM15,12h1v1h-1zM15,12h2v1h-2zM16,12h2v1h-2zM17,12h2v1h-2zM18,12h2v1h-2zM19,12h2v1h-2zM20,12h6v1h-6zM5,13h5v1h-5zM9,13h2v1h-2zM10,13h2v1h-2zM11,13h2v1h-2zM12,13h2v1h-2zM13,13h2v1h-2zM14,13h2v1h-2zM15,13h1v1h-1zM15,13h1v1h-1zM15,13h2v1h-2zM16,13h2v1h-2zM17,13h2v1h-2zM18,13h2v1h-2zM19,13h2v1h-2zM20,13h2v1h-2zM21,13h5v1h-5zM5,14h5v1h-5zM9,14h2v1h-2zM10,14h2v1h-2zM11,14h2v1h-2zM12,14h2v1h-2zM13,14h1v1h-1zM13,14h2v1h-2zM14,14h1v1h-1zM14,14h2v1h-2zM15,14h1v1h-1zM15,14h1v1h-1zM15,14h2v1h-2zM16,14h1v1h-1zM16,14h2v1h-2zM17,14h1v1h-1zM17,14h2v1h-2zM18,14h2v1h-2zM19,14h2v1h-2zM20,14h2v1h-2zM21,14h5v1h-5zM5,15h5v1h-5zM9,15h2v1h-2zM10,15h2v1h-2zM11,15h2v1h-2zM12,15h2v1h-2zM13,15h1v1h-1zM13,15h2v1h-2zM14,15h1v1h-1zM14,15h2v1h-2zM15,15h1v1h-1zM15,15h1v1h-1zM15,15h2v1h-2zM16,15h1v1h-1zM16,15h1v1h-1zM16,15h2v1h-2zM17,15h1v1h-1zM17,15h1v1h-1zM17,15h2v1h-2zM18,15h1v1h-1zM18,15h2v1h-2zM19,15h1v1h-1zM19,15h2v1h-2zM20,15h1v1h-1zM20,15h2v1h-2zM21,15h1v1h-1zM21,15h2v1h-2zM22,15h2v1h-2zM23,15h2v1h-2zM24,15h2v1h-2zM4,16h5v1h-5zM8,16h2v1h-2zM9,16h2v1h-2zM10,16h2v1h-2zM11,16h2v1h-2zM12,16h1v1h-1zM12,16h2v1h-2zM13,16h1v1h-1zM13,16h2v1h-2zM14,16h1v1h-1zM14,16h2v1h-2zM15,16h1v1h-1zM15,16h1v1h-1zM15,16h2v1h-2zM16,16h1v1h-1zM16,16h2v1h-2zM17,16h1v1h-1zM17,16h2v1h-2zM18,16h1v1h-1zM18,16h2v1h-2zM19,16h2v1h-2zM20,16h2v1h-2zM21,16h2v1h-2zM22,16h5v1h-5zM5,17h5v1h-5zM9,17h2v1h-2zM10,17h2v1h-2zM11,17h2v1h-2zM12,17h2v1h-2zM13,17h1v1h-1zM13,17h2v1h-2zM14,17h1v1h-1zM14,17h2v1h-2zM15,17h1v1h-1zM15,17h2v1h-2zM16,17h1v1h-1zM16,17h2v1h-2zM17,17h1v1h-1zM17,17h2v1h-2zM18,17h2v1h-2zM19,17h2v1h-2zM20,17h2v1h-2zM21,17h5v1h-5zM5,18h5v1h-5zM9,18h2v1h-2zM10,18h2v1h-2zM11,18h2v1h-2zM12,18h2v1h-2zM13,18h1v1h-1zM13,18h2v1h-2zM14,18h1v1h-1zM14,18h2v1h-2zM15,18h1v1h-1zM15,18h2v1h-2zM16,18h1v1h-1zM16,18h2v1h-2zM17,18h1v1h-1zM17,18h2v1h-2zM18,18h2v1h-2zM19,18h2v1h-2zM20,18h2v1h-2zM21,18h5v1h-5zM5,19h5v1h-5zM9,19h2v1h-2zM10,19h2v1h-2zM11,19h2v1h-2zM12,19h2v1h-2zM13,19h2v1h-2zM14,19h2v1h-2zM15,19h1v1h-1zM15,19h2v1h-2zM16,19h2v1h-2zM17,19h2v1h-2zM18,19h2v1h-2zM19,19h2v1h-2zM20,19h2v1h-2zM21,19h5v1h-5zM5,20h6v1h-6zM10,20h2v1h-2zM11,20h2v1h-2zM12,20h2v1h-2zM13,20h2v1h-2zM14,20h2v1h-2zM15,20h2v1h-2zM16,20h2v1h-2zM17,20h2v1h-2zM18,20h2v1h-2zM19,20h2v1h-2zM20,20h6v1h-6zM6,21h6v1h-6zM11,21h2v1h-2zM12,21h2v1h-2zM13,21h2v1h-2zM14,21h2v1h-2zM15,21h2v1h-2zM16,21h2v1h-2zM17,21h2v1h-2zM18,21h2v1h-2zM19,21h6v1h-6zM6,22h7v1h-7zM12,22h2v1h-2zM13,22h2v1h-2zM14,22h2v1h-2zM15,22h2v1h-2zM16,22h2v1h-2zM17,22h2v1h-2zM18,22h7v1h-7zM7,23h9v1h-9zM15,23h9v1h-9zM8,24h15v1h-15zM9,25h13v1h-13zM11,26h9v1h-9zM15,27h1v1h-1z"/><path fill="#ef7d57" d="M15,7h1v1h-1zM11,8h9v1h-9zM10,9h11v1h-11zM9,10h13v1h-13zM8,11h8v1h-8zM15,11h8v1h-8zM7,12h6v1h-6zM12,12h2v1h-2zM13,12h2v1h-2zM14,12h2v1h-2zM15,12h2v1h-2zM16,12h2v1h-2zM17,12h2v1h-2zM18,12h6v1h-6zM7,13h5v1h-5zM11,13h2v1h-2zM12,13h2v1h-2zM13,13h2v1h-2zM14,13h2v1h-2zM15,13h2v1h-2zM16,13h2v1h-2zM17,13h2v1h-2zM18,13h2v1h-2zM19,13h5v1h-5zM7,14h5v1h-5zM11,14h2v1h-2zM12,14h2v1h-2zM13,14h2v1h-2zM14,14h2v1h-2zM15,14h2v1h-2zM16,14h2v1h-2zM17,14h2v1h-2zM18,14h2v1h-2zM19,14h5v1h-5zM7,15h5v1h-5zM11,15h2v1h-2zM12,15h2v1h-2zM13,15h2v1h-2zM14,15h2v1h-2zM15,15h2v1h-2zM16,15h2v1h-2zM17,15h2v1h-2zM18,15h2v1h-2zM19,15h5v1h-5zM6,16h1v1h-1zM6,16h2v1h-2zM7,16h2v1h-2zM8,16h2v1h-2zM9,16h2v1h-2zM10,16h1v1h-1zM10,16h2v1h-2zM11,16h1v1h-1zM11,16h2v1h-2zM12,16h1v1h-1zM12,16h2v1h-2zM13,16h1v1h-1zM13,16h2v1h-2zM14,16h1v1h-1zM14,16h2v1h-2zM15,16h1v1h-1zM15,16h2v1h-2zM16,16h1v1h-1zM16,16h2v1h-2zM17,16h2v1h-2zM18,16h2v1h-2zM19,16h2v1h-2zM20,16h5v1h-5zM7,17h5v1h-5zM11,17h2v1h-2zM12,17h2v1h-2zM13,17h2v1h-2zM14,17h2v1h-2zM15,17h2v1h-2zM16,17h1v1h-1zM16,17h2v1h-2zM17,17h2v1h-2zM18,17h2v1h-2zM19,17h5v1h-5zM7,18h5v1h-5zM11,18h2v1h-2zM12,18h2v1h-2zM13,18h2v1h-2zM14,18h2v1h-2zM15,18h2v1h-2zM16,18h1v1h-1zM16,18h2v1h-2zM17,18h2v1h-2zM18,18h2v1h-2zM19,18h5v1h-5zM7,19h5v1h-5zM11,19h2v1h-2zM12,19h2v1h-2zM13,19h2v1h-2zM14,19h2v1h-2zM15,19h2v1h-2zM16,19h1v1h-1zM16,19h2v1h-2zM17,19h2v1h-2zM18,19h2v1h-2zM19,19h5v1h-5zM7,20h6v1h-6zM12,20h2v1h-2zM13,20h2v1h-2zM14,20h2v1h-2zM15,20h2v1h-2zM16,20h1v1h-1zM16,20h2v1h-2zM17,20h2v1h-2zM18,20h6v1h-6zM8,21h8v1h-8zM15,21h2v1h-2zM16,21h7v1h-7zM9,22h8v1h-8zM16,22h6v1h-6zM10,23h7v1h-7zM16,23h5v1h-5zM11,24h6v1h-6zM16,24h4v1h-4zM15,25h2v1h-2zM16,26h1v1h-1z"/><path fill="#8b5e34" d="M14,15h2v1h-2zM15,15h2v1h-2zM14,16h1v1h-1zM14,16h2v1h-2zM15,16h2v1h-2zM16,16h1v1h-1zM14,17h2v1h-2zM15,17h2v1h-2z"/><path fill="#f4f4f4" d="M18,9h1v1h-1zM20,9h1v1h-1zM10,10h1v1h-1zM12,10h1v1h-1zM19,10h1v1h-1zM11,11h1v1h-1zM8,14h1v1h-1zM9,15h1v1h-1zM8,16h1v1h-1zM20,19h1v1h-1zM22,19h1v1h-1zM21,20h1v1h-1zM11,21h1v1h-1zM13,21h1v1h-1zM12,22h1v1h-1z"/><path fill="#1a1c2c" d="M13,13h1v1h-1zM18,13h1v1h-1zM12,14h1v1h-1zM14,14h1v1h-1zM17,14h1v1h-1zM19,14h1v1h-1zM15,18h2v1h-2z"/><path fill="#ff9eb7" d="M11,16h2v1h-2zM19,16h2v1h-2z"/></svg>