<svg xmlns="http://www.w3.org/2000/svg" width="16" height="16" viewBox="0 0 16 16" shape-rendering="crispEdges">
<!-- Clawd v3 纯色块极简 -->
<path fill="#D97757" d="M2 2h12v1h-12zM2 3h1v1h-1zM12 3h2v1h-2zM2 4h1v1h-1zM4 4h8v1h-8zM13 4h1v1h-1zM2 5h1v1h-1zM5 5h4v1h-4zM11 5h1v1h-1zM13 5h1v1h-1zM2 6h1v1h-1zM5 6h4v1h-4zM11 6h1v1h-1zM13 6h1v1h-1zM2 7h1v1h-1zM4 7h8v1h-8zM13 7h1v1h-1zM2 8h1v1h-1zM4 8h3v1h-3zM9 8h3v1h-3zM13 8h1v1h-1zM2 9h1v1h-1zM4 9h8v1h-8zM13 9h1v1h-1zM2 10h1v1h-1zM5 10h6v1h-6zM13 10h1v1h-1zM2 11h1v1h-1zM5 11h6v1h-6zM13 11h1v1h-1zM2 12h1v1h-1zM6 12h4v1h-4zM13 12h1v1h-1zM2 13h1v1h-1zM6 13h4v1h-4zM13 13h1v1h-1z"/>
<path fill="#E8956F" d="M3 3h9v1h-9zM3 4h1v1h-1zM12 4h1v1h-1zM3 5h1v1h-1zM9 5h1v1h-1zM12 5h1v1h-1zM3 6h1v1h-1zM9 6h1v1h-1zM12 6h1v1h-1zM3 7h1v1h-1zM12 7h1v1h-1zM3 8h1v1h-1zM12 8h1v1h-1zM3 9h1v1h-1zM12 9h1v1h-1z"/>
<path fill="#1A1A1A" d="M4 5h1v1h-1zM10 5h1v1h-1zM4 6h1v1h-1zM10 6h1v1h-1z"/>
<path fill="#C46A4A" d="M7 8h2v1h-2zM3 10h2v1h-2zM11 10h2v1h-2zM3 11h2v1h-2zM11 11h2v1h-2zM3 12h2v1h-2zM11 12h2v1h-2zM3 13h2v1h-2zM11 13h2v1h-2z"/>
</svg>