<svg xmlns="http://www.w3.org/2000/svg" width="16" height="16" viewBox="0 0 16 16" shape-rendering="crispEdges">
<!-- Clawd 像素吉祥物 16x16 v2 -->
<path fill="#8B4513" d="M2 1h10v1h-10zM1 2h1v1h-1zM12 2h1v1h-1zM14 3h1v1h-1zM13 4h1v1h-1zM13 5h1v1h-1zM14 6h1v1h-1zM14 7h1v1h-1zM14 8h1v1h-1zM1 9h1v1h-1zM13 9h2v1h-2zM2 10h1v1h-1zM6 10h1v1h-1zM9 10h1v1h-1zM13 10h1v1h-1zM2 11h1v1h-1zM6 11h1v1h-1zM9 11h1v1h-1zM13 11h1v1h-1zM2 12h1v1h-1zM6 12h1v1h-1zM9 12h1v1h-1zM13 12h1v1h-1zM2 13h2v1h-2zM6 13h2v1h-2zM9 13h2v1h-2zM12 13h2v1h-2z"/>
<path fill="#E8956F" d="M2 2h9v1h-9zM1 3h1v1h-1zM1 4h1v1h-1zM1 5h1v1h-1zM1 6h1v1h-1zM1 7h1v1h-1z"/>
<path fill="#D97757" d="M11 2h1v1h-1zM2 3h10v1h-10zM13 3h1v1h-1zM2 4h3v1h-3zM6 4h3v1h-3zM10 4h2v1h-2zM2 5h3v1h-3zM6 5h3v1h-3zM10 5h2v1h-2zM2 6h11v1h-11zM2 7h4v1h-4zM8 7h5v1h-5zM2 8h11v1h-11z"/>
<path fill="#C46A4A" d="M12 3h1v1h-1zM12 4h1v1h-1zM12 5h1v1h-1zM13 6h1v1h-1zM6 7h2v1h-2zM13 7h1v1h-1zM1 8h1v1h-1zM13 8h1v1h-1zM2 9h11v1h-11zM3 10h1v1h-1zM7 10h1v1h-1zM10 10h1v1h-1zM12 10h1v1h-1zM3 11h1v1h-1zM7 11h1v1h-1zM10 11h1v1h-1zM12 11h1v1h-1zM3 12h1v1h-1zM7 12h1v1h-1zM10 12h1v1h-1zM12 12h1v1h-1z"/>
<path fill="#1A1A1A" d="M5 4h1v1h-1zM9 4h1v1h-1zM5 5h1v1h-1zM9 5h1v1h-1z"/>
</svg>