<svg xmlns="http://www.w3.org/2000/svg" width="32" height="32" viewBox="0 0 32 32" shape-rendering="crispEdges">
<!-- Clawd 32x32 高精版 -->
<path fill="#8B4513" d="M4 4h24v1h-24zM4 5h1v1h-1zM27 5h1v1h-1zM4 6h1v1h-1zM27 6h1v1h-1zM4 7h1v1h-1zM27 7h1v1h-1zM4 8h1v1h-1zM27 8h1v1h-1zM4 9h1v1h-1zM27 9h1v1h-1zM4 10h1v1h-1zM27 10h1v1h-1zM4 11h1v1h-1zM27 11h1v1h-1zM4 12h1v1h-1zM27 12h1v1h-1zM4 13h1v1h-1zM27 13h1v1h-1zM4 14h1v1h-1zM27 14h1v1h-1zM4 15h1v1h-1zM27 15h1v1h-1zM4 16h1v1h-1zM27 16h1v1h-1zM4 17h1v1h-1zM27 17h1v1h-1zM4 18h24v1h-24zM5 19h1v1h-1zM9 19h2v1h-2zM14 19h1v1h-1zM17 19h1v1h-1zM21 19h2v1h-2zM26 19h1v1h-1zM5 20h1v1h-1zM9 20h2v1h-2zM14 20h1v1h-1zM17 20h1v1h-1zM21 20h2v1h-2zM26 20h1v1h-1zM5 21h1v1h-1zM9 21h2v1h-2zM14 21h1v1h-1zM17 21h1v1h-1zM21 21h2v1h-2zM26 21h1v1h-1zM5 22h1v1h-1zM9 22h2v1h-2zM14 22h1v1h-1zM17 22h1v1h-1zM21 22h2v1h-2zM26 22h1v1h-1zM5 23h1v1h-1zM9 23h2v1h-2zM14 23h1v1h-1zM17 23h1v1h-1zM21 23h2v1h-2zM26 23h1v1h-1zM5 24h10v1h-10zM17 24h10v1h-10z"/>
<path fill="#E8956F" d="M5 5h22v1h-22zM5 6h22v1h-22zM5 7h2v1h-2zM5 8h2v1h-2zM5 9h2v1h-2zM9 9h1v1h-1zM21 9h1v1h-1zM5 10h2v1h-2zM5 11h2v1h-2zM5 12h2v1h-2zM5 13h2v1h-2zM5 14h2v1h-2zM5 15h2v1h-2z"/>
<path fill="#D97757" d="M7 7h18v1h-18zM7 8h18v1h-18zM7 9h2v1h-2zM11 9h10v1h-10zM23 9h2v1h-2zM7 10h2v1h-2zM11 10h10v1h-10zM23 10h2v1h-2zM7 11h2v1h-2zM11 11h10v1h-10zM23 11h2v1h-2zM7 12h18v1h-18zM7 13h18v1h-18zM7 14h6v1h-6zM19 14h6v1h-6zM7 15h18v1h-18z"/>
<path fill="#C46A4A" d="M25 7h2v1h-2zM25 8h2v1h-2zM25 9h2v1h-2zM25 10h2v1h-2zM25 11h2v1h-2zM25 12h2v1h-2zM25 13h2v1h-2zM13 14h6v1h-6zM25 14h2v1h-2zM25 15h2v1h-2zM5 16h22v1h-22zM5 17h22v1h-22zM6 19h3v1h-3zM11 19h3v1h-3zM18 19h3v1h-3zM23 19h3v1h-3zM6 20h3v1h-3zM11 20h3v1h-3zM18 20h3v1h-3zM23 20h3v1h-3zM6 21h3v1h-3zM11 21h3v1h-3zM18 21h3v1h-3zM23 21h3v1h-3zM6 22h3v1h-3zM11 22h3v1h-3zM18 22h3v1h-3zM23 22h3v1h-3zM6 23h3v1h-3zM11 23h3v1h-3zM18 23h3v1h-3zM23 23h3v1h-3z"/>
<path fill="#1A1A1A" d="M10 9h1v1h-1zM22 9h1v1h-1zM9 10h2v1h-2zM21 10h2v1h-2zM9 11h2v1h-2zM21 11h2v1h-2z"/>
</svg>