<svg xmlns="http://www.w3.org/2000/svg" viewBox="0 0 32 32" shape-rendering="crispEdges">
<path fill="#38b764" d="M15,5h1v1h-1zM17,5h1v1h-1zM14,6h1v1h-1zM15,6h1v1h-1zM16,6h1v1h-1zM17,6h1v1h-1zM18,6h1v1h-1zM14,7h1v1h-1zM15,7h1v1h-1zM16,7h1v1h-1zM17,7h1v1h-1zM18,7h1v1h-1zM15,8h1v1h-1zM16,8h1v1h-1zM17,8h1v1h-1zM16,9h1v1h-1zM16,19h1v1h-1zM15,20h1v1h-1zM16,20h1v1h-1zM17,20h1v1h-1zM14,21h1v1h-1zM15,21h1v1h-1zM16,21h1v1h-1zM17,21h1v1h-1zM18,21h1v1h-1zM14,22h1v1h-1zM15,22h1v1h-1zM16,22h1v1h-1zM17,22h1v1h-1zM18,22h1v1h-1zM15,23h1v1h-1zM17,23h1v1h-1zM8,11h1v1h-1zM10,11h1v1h-1zM7,12h1v1h-1zM8,12h1v1h-1zM9,12h1v1h-1zM10,12h1v1h-1zM11,12h1v1h-1zM7,13h1v1h-1zM8,13h1v1h-1zM9,13h1v1h-1zM10,13h1v1h-1zM11,13h1v1h-1zM7,14h1v1h-1zM8,14h1v1h-1zM9,14h1v1h-1zM10,14h1v1h-1zM11,14h1v1h-1zM8,15h1v1h-1zM9,15h1v1h-1zM10,15h1v1h-1zM9,15h1v1h-1zM20,11h1v1h-1zM22,11h1v1h-1zM19,12h1v1h-1zM20,12h1v1h-1zM21,12h1v1h-1zM22,12h1v1h-1zM23,12h1v1h-1zM19,13h1v1h-1zM20,13h1v1h-1zM21,13h1v1h-1zM22,13h1v1h-1zM23,13h1v1h-1zM19,14h1v1h-1zM20,14h1v1h-1zM21,14h1v1h-1zM22,14h1v1h-1zM23,14h1v1h-1zM20,15h1v1h-1zM21,15h1v1h-1zM22,15h1v1h-1zM15,14h1v1h-1zM16,14h1v1h-1zM15,15h1v1h-1zM16,15h1v1h-1zM15,15h1v1h-1zM16,15h1v1h-1zM15,18h1v1h-1zM16,18h1v1h-1zM16,19h1v1h-1zM16,20h1v1h-1zM17,20h1v1h-1zM17,21h1v1h-1zM17,22h1v1h-1zM17,23h1v1h-1zM17,24h1v1h-1zM18,24h1v1h-1zM17,25h1v1h-1zM18,25h1v1h-1zM17,26h1v1h-1zM18,26h1v1h-1zM18,27h1v1h-1zM18,28h1v1h-1zM18,29h1v1h-1z"/>
<path fill="#a7f070" d="M16,6h1v1h-1zM16,7h1v1h-1zM16,21h1v1h-1zM16,22h1v1h-1zM9,12h1v1h-1zM10,13h1v1h-1zM11,14h1v1h-1zM21,12h1v1h-1zM20,13h1v1h-1zM19,14h1v1h-1z"/>
<path fill="#1a1c2c" d="M14,15h1v1h-1zM17,15h1v1h-1zM14,15h1v1h-1zM17,15h1v1h-1zM14,14h1v1h-1zM17,14h1v1h-1zM21,11h1v1h-1zM22,12h1v1h-1z"/>
<path fill="#333c57" d="M15,16h1v1h-1zM16,16h1v1h-1z"/>
<path fill="#ff9eb7" d="M13,16h1v1h-1zM18,16h1v1h-1z"/>
<path fill="#ffcd75" d="M5,4h1v1h-1zM5,6h1v1h-1zM4,5h1v1h-1zM6,5h1v1h-1zM5,5h1v1h-1zM27,6h1v1h-1zM27,8h1v1h-1zM26,7h1v1h-1zM28,7h1v1h-1zM27,7h1v1h-1zM4,19h1v1h-1zM4,21h1v1h-1zM3,20h1v1h-1zM5,20h1v1h-1zM4,20h1v1h-1zM28,21h1v1h-1zM28,23h1v1h-1zM27,22h1v1h-1zM29,22h1v1h-1zM28,22h1v1h-1z"/>
<path fill="#b13e53" d="M21,11h1v1h-1zM22,11h1v1h-1zM21,12h1v1h-1zM22,12h1v1h-1z"/>
</svg>