<svg xmlns="http://www.w3.org/2000/svg" viewBox="0 0 32 32" shape-rendering="crispEdges"><path fill="#ef7d57" d="M15,8h1v1h-1zM14,9h4v1h-4zM12,10h8v1h-8zM11,11h11v1h-11zM10,12h13v1h-13zM24,12h2v1h-2zM10,13h17v1h-17zM10,14h17v1h-17zM10,15h17v1h-17zM10,16h13v1h-13zM24,16h2v1h-2zM11,17h11v1h-11zM12,18h8v1h-8zM14,19h4v1h-4zM15,20h1v1h-1z"/><path fill="#1a1c2c" d="M13,10h1v1h-1zM13,11h1v1h-1zM16,11h1v1h-1zM18,11h1v1h-1zM13,12h1v1h-1zM16,12h1v1h-1zM18,12h1v1h-1zM21,12h1v1h-1zM11,13h3v1h-3zM16,13h1v1h-1zM18,13h1v1h-1zM21,13h2v1h-2zM11,14h3v1h-3zM16,14h1v1h-1zM18,14h1v1h-1zM21,14h2v1h-2zM10,15h1v1h-1zM13,15h1v1h-1zM16,15h1v1h-1zM18,15h1v1h-1zM21,15h2v1h-2zM13,16h1v1h-1zM16,16h1v1h-1zM18,16h1v1h-1zM21,16h1v1h-1zM13,17h1v1h-1zM16,17h1v1h-1zM18,17h1v1h-1zM13,18h1v1h-1z"/><path fill="#f4f4f4" d="M14,10h1v1h-1zM14,11h2v1h-2zM19,11h1v1h-1zM14,12h2v1h-2zM19,12h2v1h-2zM11,13h1v1h-1zM14,13h2v1h-2zM19,13h2v1h-2zM23,13h1v1h-1zM14,14h2v1h-2zM19,14h2v1h-2zM23,14h1v1h-1zM14,15h2v1h-2zM19,15h2v1h-2zM23,15h1v1h-1zM14,16h2v1h-2zM19,16h2v1h-2zM14,17h2v1h-2zM19,17h1v1h-1zM14,18h1v1h-1z"/><path fill="#ff9eb7" d="M6,12h1v1h-1zM3,13h1v1h-1zM5,13h3v1h-3zM3,14h1v1h-1zM5,14h2v1h-2zM3,15h1v1h-1zM5,15h2v1h-2zM3,16h1v1h-1zM5,16h2v1h-2zM11,16h1v1h-1zM3,17h1v1h-1zM5,17h2v1h-2zM3,18h1v1h-1zM5,18h2v1h-2zM3,19h1v1h-1zM5,19h2v1h-2z"/><path fill="#5d275d" d="M4,12h1v1h-1zM4,13h1v1h-1zM4,14h1v1h-1zM7,14h1v1h-1zM4,15h1v1h-1zM7,15h1v1h-1zM4,16h1v1h-1zM7,16h1v1h-1zM4,17h1v1h-1zM7,17h1v1h-1zM4,18h1v1h-1zM7,18h1v1h-1zM4,19h1v1h-1zM7,19h1v1h-1z"/></svg>