<svg xmlns="http://www.w3.org/2000/svg" viewBox="0 0 32 32" shape-rendering="crispEdges"><path fill="#ffcd75" d="M11,3h10v1h-10ZM9,4h14v1h-14ZM7,5h5v1h-5ZM20,5h5v1h-5ZM6,6h4v1h-4ZM22,6h4v1h-4ZM5,7h3v1h-3ZM24,7h3v1h-3ZM4,8h3v1h-3ZM25,8h3v1h-3ZM4,9h2v1h-2ZM26,9h2v1h-2ZM3,10h3v1h-3ZM26,10h3v1h-3ZM3,11h2v1h-2ZM27,11h2v1h-2ZM3,12h2v1h-2ZM27,12h2v1h-2ZM3,13h2v1h-2ZM27,13h2v1h-2ZM3,14h2v1h-2ZM27,14h2v1h-2ZM3,15h2v1h-2ZM27,15h2v1h-2ZM3,16h2v1h-2ZM27,16h2v1h-2ZM3,17h2v1h-2ZM27,17h2v1h-2ZM3,18h2v1h-2ZM27,18h2v1h-2ZM3,19h3v1h-3ZM26,19h3v1h-3ZM4,20h2v1h-2ZM26,20h2v1h-2ZM4,21h3v1h-3ZM25,21h3v1h-3ZM5,22h3v1h-3ZM24,22h3v1h-3ZM6,23h4v1h-4ZM22,23h4v1h-4ZM7,24h5v1h-5ZM20,24h5v1h-5ZM9,25h14v1h-14ZM11,26h10v1h-10Z"/><path fill="#f4f4f4" d="M12,5h8v1h-8ZM10,6h5v1h-5ZM17,6h5v1h-5ZM8,7h7v1h-7ZM17,7h7v1h-7ZM7,8h1v1h-1ZM10,8h5v1h-5ZM17,8h8v1h-8ZM6,9h2v1h-2ZM9,9h6v1h-6ZM17,9h9v1h-9ZM6,10h9v1h-9ZM17,10h9v1h-9ZM5,11h10v1h-10ZM17,11h10v1h-10ZM5,12h10v1h-10ZM17,12h10v1h-10ZM5,13h10v1h-10ZM17,13h10v1h-10ZM6,14h1v1h-1ZM9,14h6v1h-6ZM17,14h6v1h-6ZM24,14h2v1h-2ZM6,15h1v1h-1ZM9,15h6v1h-6ZM17,15h6v1h-6ZM24,15h2v1h-2ZM5,16h10v1h-10ZM17,16h10v1h-10ZM5,17h10v1h-10ZM17,17h10v1h-10ZM5,18h10v1h-10ZM17,18h10v1h-10ZM6,19h9v1h-9ZM17,19h9v1h-9ZM6,20h9v1h-9ZM17,20h9v1h-9ZM7,21h18v1h-18ZM8,22h7v1h-7ZM17,22h7v1h-7ZM10,23h5v1h-5ZM17,23h5v1h-5ZM12,24h8v1h-8Z"/><path fill="#333c57" d="M15,6h2v1h-2ZM5,14h1v1h-1ZM26,14h1v1h-1ZM5,15h1v1h-1ZM26,15h1v1h-1ZM15,23h2v1h-2Z"/><path fill="#1a1c2c" d="M15,7h2v1h-2ZM15,8h2v1h-2ZM7,14h2v1h-2ZM15,14h2v1h-2ZM23,14h1v1h-1ZM7,15h2v1h-2ZM15,15h2v1h-2ZM23,15h1v1h-1ZM15,22h2v1h-2Z"/><path fill="#73eff7" d="M8,8h2v1h-2ZM8,9h1v1h-1Z"/><path fill="#b13e53" d="M15,9h2v1h-2ZM15,10h2v1h-2ZM15,11h2v1h-2ZM15,12h2v1h-2ZM15,13h2v1h-2Z"/><path fill="#3b5dc9" d="M15,16h2v1h-2ZM15,17h2v1h-2ZM15,18h2v1h-2ZM15,19h2v1h-2ZM15,20h2v1h-2Z"/></svg>