<svg xmlns="http://www.w3.org/2000/svg" viewBox="0 0 32 32" shape-rendering="crispEdges"><path fill="#8b5e34" d="M13,4h1v1h-1zM16,4h1v1h-1zM13,5h1v1h-1zM16,5h1v1h-1zM11,6h2v1h-2zM14,6h2v1h-2zM17,6h1v1h-1zM19,6h1v1h-1zM21,6h1v1h-1zM11,7h2v1h-2zM14,7h1v1h-1zM17,7h1v1h-1zM19,7h1v1h-1zM21,7h1v1h-1zM8,8h3v1h-3zM20,8h2v1h-2zM8,9h2v1h-2zM23,9h1v1h-1zM9,10h1v1h-1zM22,10h2v1h-2zM6,11h1v1h-1zM22,11h2v1h-2zM6,12h1v1h-1zM22,12h2v1h-2zM6,13h2v1h-2zM22,13h1v1h-1zM6,14h1v1h-1zM22,14h2v1h-2zM6,15h2v1h-2zM22,15h1v1h-1zM24,15h1v1h-1zM22,16h2v1h-2zM6,17h2v1h-2zM22,17h1v1h-1zM8,18h2v1h-2zM23,18h1v1h-1zM9,19h1v1h-1zM22,19h2v1h-2zM10,20h1v1h-1zM12,20h1v1h-1zM17,20h1v1h-1zM19,20h3v1h-3zM8,21h1v1h-1zM10,21h1v1h-1zM12,21h1v1h-1zM19,21h3v1h-3zM11,22h1v1h-1zM13,22h1v1h-1zM15,22h2v1h-2zM18,22h1v1h-1zM11,23h1v1h-1zM13,23h4v1h-4zM18,23h1v1h-1zM13,25h1v1h-1zM18,27h1v1h-1zM15,28h1v1h-1z"/><path fill="#ef7d57" d="M13,6h1v1h-1zM16,6h1v1h-1zM18,6h1v1h-1zM13,7h1v1h-1zM15,7h2v1h-2zM18,7h1v1h-1zM11,8h9v1h-9zM10,9h12v1h-12zM8,10h1v1h-1zM10,10h7v1h-7zM19,10h3v1h-3zM8,11h4v1h-4zM14,11h3v1h-3zM18,11h4v1h-4zM8,12h4v1h-4zM13,12h1v1h-1zM15,12h1v1h-1zM17,12h1v1h-1zM19,12h1v1h-1zM8,13h5v1h-5zM14,13h3v1h-3zM18,13h2v1h-2zM21,13h1v1h-1zM23,13h1v1h-1zM8,14h3v1h-3zM13,14h1v1h-1zM16,14h2v1h-2zM21,14h1v1h-1zM8,15h6v1h-6zM15,15h1v1h-1zM17,15h2v1h-2zM20,15h2v1h-2zM23,15h1v1h-1zM8,16h3v1h-3zM13,16h2v1h-2zM16,16h6v1h-6zM8,17h3v1h-3zM12,17h4v1h-4zM18,17h4v1h-4zM23,17h1v1h-1zM10,18h6v1h-6zM17,18h1v1h-1zM20,18h2v1h-2zM8,19h1v1h-1zM10,19h3v1h-3zM15,19h3v1h-3zM19,19h3v1h-3zM11,20h1v1h-1zM14,20h3v1h-3zM18,20h1v1h-1zM11,21h1v1h-1zM13,21h6v1h-6zM16,26h1v1h-1zM11,27h1v1h-1z"/><path fill="#5c3a1e" d="M17,10h2v1h-2zM12,11h2v1h-2zM17,11h1v1h-1zM20,12h2v1h-2zM20,13h1v1h-1zM14,14h2v1h-2zM20,14h1v1h-1zM19,15h1v1h-1zM11,16h2v1h-2zM11,17h1v1h-1zM16,17h2v1h-2zM16,18h1v1h-1zM18,18h2v1h-2zM13,19h2v1h-2zM18,19h1v1h-1zM13,20h1v1h-1z"/><path fill="#1a1c2c" d="M12,12h1v1h-1zM14,12h1v1h-1zM16,12h1v1h-1zM18,12h1v1h-1zM13,13h1v1h-1zM17,13h1v1h-1zM14,15h1v1h-1zM16,15h1v1h-1zM15,16h1v1h-1z"/><path fill="#ff9eb7" d="M11,14h2v1h-2zM18,14h2v1h-2z"/></svg>