<svg xmlns="http://www.w3.org/2000/svg" viewBox="0 0 32 32" shape-rendering="crispEdges"><path fill="#41a6f6" d="M0,0h32v1h-32ZM0,1h32v1h-32ZM0,2h8v1h-8ZM9,2h23v1h-23ZM0,3h20v1h-20ZM21,3h11v1h-11ZM0,4h32v1h-32ZM0,5h12v1h-12ZM13,5h19v1h-19ZM0,6h17v1h-17ZM18,6h14v1h-14ZM0,7h25v1h-25ZM26,7h6v1h-6ZM0,8h14v1h-14ZM16,8h16v1h-16ZM0,9h13v1h-13ZM17,9h15v1h-15ZM0,10h5v1h-5ZM6,10h7v1h-7ZM16,10h16v1h-16ZM0,11h32v1h-32ZM0,12h22v1h-22ZM25,12h7v1h-7ZM0,13h21v1h-21ZM25,13h7v1h-7ZM0,14h6v1h-6ZM9,14h13v1h-13ZM24,14h8v1h-8ZM0,15h7v1h-7ZM8,15h24v1h-24ZM0,16h32v1h-32ZM0,17h32v1h-32ZM0,18h32v1h-32ZM0,19h1v1h-1ZM2,19h4v1h-4ZM7,19h25v1h-25Z"/><path fill="#f4f4f4" d="M8,2h1v1h-1ZM20,3h1v1h-1ZM12,5h1v1h-1ZM17,6h1v1h-1ZM25,7h1v1h-1ZM5,10h1v1h-1Z"/><path fill="#ef7d57" d="M14,8h2v1h-2ZM13,9h1v1h-1ZM15,9h1v1h-1ZM13,10h3v1h-3ZM9,22h1v1h-1ZM13,22h1v1h-1ZM9,23h2v1h-2ZM12,23h2v1h-2ZM9,24h5v1h-5ZM10,25h3v1h-3ZM10,26h3v1h-3ZM10,27h3v1h-3Z"/><path fill="#ffcd75" d="M14,9h1v1h-1ZM0,28h7v1h-7ZM8,28h8v1h-8ZM17,28h15v1h-15Z"/><path fill="#1a1c2c" d="M16,9h1v1h-1ZM24,13h1v1h-1ZM8,14h1v1h-1Z"/><path fill="#73eff7" d="M22,12h3v1h-3ZM21,13h1v1h-1ZM23,13h1v1h-1ZM22,14h2v1h-2Z"/><path fill="#257179" d="M22,13h1v1h-1Z"/><path fill="#b13e53" d="M6,14h2v1h-2ZM7,15h1v1h-1ZM1,19h1v1h-1ZM6,19h1v1h-1ZM1,20h2v1h-2ZM5,20h2v1h-2ZM2,21h1v1h-1ZM5,21h1v1h-1ZM2,22h4v1h-4ZM3,23h2v1h-2ZM3,24h2v1h-2ZM3,25h2v1h-2ZM3,26h2v1h-2ZM3,27h2v1h-2Z"/><path fill="#3b5dc9" d="M0,20h1v1h-1ZM3,20h2v1h-2ZM7,20h25v1h-25ZM0,21h2v1h-2ZM3,21h2v1h-2ZM6,21h10v1h-10ZM17,21h1v1h-1ZM19,21h4v1h-4ZM24,21h8v1h-8ZM0,22h2v1h-2ZM6,22h3v1h-3ZM10,22h3v1h-3ZM14,22h1v1h-1ZM16,22h2v1h-2ZM20,22h2v1h-2ZM24,22h2v1h-2ZM27,22h2v1h-2ZM30,22h2v1h-2ZM0,23h3v1h-3ZM5,23h2v1h-2ZM8,23h1v1h-1ZM11,23h1v1h-1ZM14,23h2v1h-2ZM17,23h2v1h-2ZM23,23h3v1h-3ZM27,23h2v1h-2ZM30,23h2v1h-2ZM0,24h3v1h-3ZM5,24h3v1h-3ZM14,24h1v1h-1ZM16,24h4v1h-4ZM22,24h4v1h-4ZM30,24h2v1h-2ZM0,25h3v1h-3ZM5,25h2v1h-2ZM8,25h2v1h-2ZM13,25h3v1h-3ZM17,25h3v1h-3ZM22,25h5v1h-5ZM29,25h3v1h-3ZM0,26h3v1h-3ZM5,26h3v1h-3ZM9,26h1v1h-1ZM13,26h2v1h-2ZM16,26h4v1h-4ZM22,26h5v1h-5ZM29,26h3v1h-3ZM0,27h3v1h-3ZM5,27h2v1h-2ZM8,27h2v1h-2ZM13,27h3v1h-3ZM17,27h3v1h-3ZM22,27h5v1h-5ZM29,27h3v1h-3Z"/><path fill="#38b764" d="M16,21h1v1h-1ZM15,22h1v1h-1ZM16,23h1v1h-1ZM8,24h1v1h-1ZM15,24h1v1h-1ZM7,25h1v1h-1ZM16,25h1v1h-1ZM8,26h1v1h-1ZM15,26h1v1h-1ZM7,27h1v1h-1ZM16,27h1v1h-1ZM7,28h1v1h-1ZM16,28h1v1h-1Z"/><path fill="#ff9eb7" d="M18,21h1v1h-1ZM23,21h1v1h-1ZM18,22h2v1h-2ZM22,22h2v1h-2ZM19,23h4v1h-4ZM20,24h2v1h-2ZM20,25h2v1h-2ZM20,26h2v1h-2ZM20,27h2v1h-2Z"/><path fill="#5d275d" d="M26,22h1v1h-1ZM29,22h1v1h-1ZM26,23h1v1h-1ZM29,23h1v1h-1ZM26,24h4v1h-4ZM27,25h2v1h-2ZM27,26h2v1h-2ZM27,27h2v1h-2Z"/><path fill="#a7f070" d="M7,23h1v1h-1Z"/><path fill="#ffecd2" d="M0,29h32v1h-32ZM0,30h32v1h-32ZM0,31h32v1h-32Z"/></svg>