<svg xmlns="http://www.w3.org/2000/svg" width="32" height="32" viewBox="0 0 32 32" shape-rendering="crispEdges">
<path fill="#ef7d57" d="M6 6h3v1h-3zM16 6h3v1h-3zM6 7h1v1h-1zM8 7h1v1h-1zM16 7h1v1h-1zM18 7h1v1h-1zM6 8h13v1h-13zM6 9h6v1h-6zM16 9h2v1h-2zM8 10h3v1h-3zM17 10h1v1h-1zM8 11h3v1h-3zM17 11h1v1h-1zM28 11h1v1h-1zM8 12h1v1h-1zM11 12h1v1h-1zM16 12h1v1h-1zM27 12h2v1h-2zM8 13h4v1h-4zM16 13h2v1h-2zM27 13h1v1h-1zM8 14h4v1h-4zM16 14h2v1h-2zM22 14h5v1h-5zM8 15h4v1h-4zM16 15h2v1h-2zM22 15h5v1h-5zM8 16h19v1h-19zM8 17h19v1h-19zM8 18h19v1h-19zM8 19h19v1h-19zM9 27h3v1h-3zM14 27h3v1h-3zM22 27h3v1h-3z"/><path fill="#ffecd2" d="M7 7h1v1h-1zM17 7h1v1h-1z"/><path fill="#f4f4f4" d="M12 9h4v1h-4zM11 10h6v1h-6zM12 11h4v1h-4zM12 12h4v1h-4zM12 13h1v1h-1zM15 13h1v1h-1zM12 14h1v1h-1zM15 14h1v1h-1zM12 15h1v1h-1zM15 15h1v1h-1zM8 20h19v1h-19zM8 21h19v1h-19zM8 22h19v1h-19zM9 23h3v1h-3zM14 23h3v1h-3zM22 23h3v1h-3zM9 24h3v1h-3zM14 24h3v1h-3zM22 24h3v1h-3zM9 25h3v1h-3zM14 25h3v1h-3zM22 25h3v1h-3zM9 26h3v1h-3zM14 26h3v1h-3zM22 26h3v1h-3z"/><path fill="#1a1c2c" d="M11 11h1v1h-1zM16 11h1v1h-1zM13 13h2v1h-2z"/><path fill="#ff9eb7" d="M9 12h2v1h-2zM17 12h2v1h-2zM13 14h2v1h-2zM13 15h2v1h-2z"/>
</svg>