<svg xmlns="http://www.w3.org/2000/svg" viewBox="0 0 32 32" shape-rendering="crispEdges"><path fill="#ff9eb7" d="M12,2h8v1h-8ZM10,3h12v1h-12ZM9,4h1v1h-1ZM24,4h1v1h-1ZM7,5h18v1h-18ZM6,6h20v1h-20ZM5,8h22v1h-22ZM4,9h24v1h-24ZM5,11h4v1h-4ZM11,11h10v1h-10ZM23,11h4v1h-4ZM5,12h10v1h-10ZM17,12h10v1h-10ZM7,14h18v1h-18ZM8,15h16v1h-16ZM10,17h12v1h-12ZM12,18h8v1h-8Z"/><path fill="#f4f4f4" d="M8,4h1v1h-1ZM10,4h14v1h-14ZM5,7h22v1h-22ZM4,8h1v1h-1ZM27,8h1v1h-1ZM4,10h8v1h-8ZM14,10h4v1h-4ZM20,10h8v1h-8ZM6,13h8v1h-8ZM15,13h2v1h-2ZM18,13h8v1h-8ZM9,16h14v1h-14ZM15,20h2v1h-2ZM15,22h2v1h-2ZM15,24h2v1h-2ZM15,26h2v1h-2Z"/><path fill="#1a1c2c" d="M12,10h2v1h-2ZM18,10h2v1h-2ZM15,12h2v1h-2ZM14,13h1v1h-1ZM17,13h1v1h-1Z"/><path fill="#ff7fa0" d="M9,11h2v1h-2ZM21,11h2v1h-2Z"/><path fill="#94b0c2" d="M15,19h2v1h-2ZM15,21h2v1h-2ZM15,23h2v1h-2ZM15,25h2v1h-2ZM15,27h2v1h-2Z"/></svg>