<svg xmlns="http://www.w3.org/2000/svg" width="16" height="16" viewBox="0 0 16 16" shape-rendering="crispEdges">
<!-- 奶牛（农场） -->
<path fill="#1a1c2c" d="M2 1h2v1h-2zM10 1h2v1h-2zM1 2h1v1h-1zM4 2h1v1h-1zM9 2h1v1h-1zM12 2h1v1h-1zM1 3h1v1h-1zM12 3h1v1h-1zM2 4h1v1h-1zM11 4h1v1h-1zM2 5h1v1h-1zM12 5h1v1h-1zM1 6h1v1h-1zM13 6h1v1h-1zM1 7h1v1h-1zM13 7h1v1h-1zM1 8h1v1h-1zM13 8h1v1h-1zM2 9h1v1h-1zM12 9h1v1h-1zM2 10h2v1h-2zM7 10h2v1h-2zM11 10h2v1h-2z"/>
<path fill="#f4f4f4" d="M2 2h2v1h-2zM10 2h2v1h-2zM2 3h10v1h-10zM3 4h8v1h-8zM3 5h9v1h-9zM2 6h11v1h-11zM2 7h11v1h-11zM2 8h11v1h-11zM3 9h9v1h-9z"/>
<path fill="#333c57" d="M5 5h3v1h-3zM4 6h4v1h-4zM8 7h3v1h-3zM9 8h3v1h-3z"/>
<path fill="#1a1c2c" d="M5 3h1v1h-1zM8 3h1v1h-1z"/>
<path fill="#d4a56a" d="M4 9h3v1h-3zM9 9h2v1h-2z"/>
<path fill="#ffcd75" d="M5 4h1v1h-1z"/>
<path fill="#b13e53" d="M3 1h1v1h-1zM10 1h1v1h-1z"/>
</svg>