<svg xmlns="http://www.w3.org/2000/svg" viewBox="0 0 32 32" shape-rendering="crispEdges"><path fill="#41a6f6" d="M0,0h32v1h-32zM0,1h21v1h-21zM22,1h10v1h-10zM0,2h2v1h-2zM4,2h18v1h-18zM23,2h9v1h-9zM0,3h1v1h-1zM5,3h16v1h-16zM22,3h10v1h-10zM0,4h1v1h-1zM5,4h15v1h-15zM21,4h11v1h-11zM0,5h20v1h-20zM23,5h9v1h-9zM0,6h20v1h-20zM23,6h9v1h-9zM0,7h13v1h-13zM19,7h1v1h-1zM23,7h9v1h-9zM0,8h11v1h-11zM23,8h9v1h-9zM0,9h9v1h-9zM23,9h9v1h-9zM0,10h7v1h-7zM25,10h7v1h-7zM0,11h7v1h-7zM25,11h7v1h-7zM0,12h5v1h-5zM27,12h5v1h-5zM0,13h5v1h-5zM27,13h5v1h-5zM0,14h5v1h-5zM27,14h5v1h-5zM0,15h7v1h-7zM25,15h7v1h-7zM0,16h7v1h-7zM25,16h7v1h-7zM0,17h7v1h-7zM25,17h7v1h-7zM0,18h7v1h-7zM25,18h7v1h-7zM0,19h7v1h-7zM25,19h7v1h-7zM0,20h7v1h-7zM25,20h7v1h-7zM0,21h7v1h-7zM25,21h7v1h-7zM0,22h7v1h-7zM25,22h7v1h-7zM0,23h1v1h-1zM2,23h1v1h-1zM4,23h1v1h-1zM6,23h1v1h-1zM26,23h1v1h-1zM28,23h1v1h-1zM30,23h2v1h-2zM0,24h1v1h-1zM31,24h1v1h-1z"/><path fill="#94b0c2" d="M21,1h1v1h-1zM22,2h1v1h-1zM21,3h1v1h-1zM20,4h1v1h-1z"/><path fill="#f4f4f4" d="M2,2h2v1h-2zM1,3h4v1h-4zM1,4h4v1h-4zM1,23h1v1h-1zM3,23h1v1h-1zM5,23h1v1h-1zM25,23h1v1h-1zM27,23h1v1h-1zM29,23h1v1h-1zM1,24h6v1h-6zM25,24h6v1h-6zM1,25h1v1h-1zM3,25h1v1h-1zM5,25h1v1h-1zM25,25h1v1h-1zM27,25h1v1h-1zM29,25h1v1h-1z"/><path fill="#333c57" d="M20,5h3v1h-3zM14,19h4v1h-4z"/><path fill="#566c86" d="M20,6h3v1h-3zM20,7h3v1h-3zM20,8h3v1h-3zM20,9h3v1h-3zM20,10h3v1h-3z"/><path fill="#ef7d57" d="M13,7h6v1h-6zM8,15h16v1h-16zM13,16h6v1h-6zM13,17h6v1h-6zM8,18h1v1h-1zM13,18h6v1h-6zM23,18h1v1h-1zM8,19h1v1h-1zM13,19h1v1h-1zM18,19h1v1h-1zM23,19h1v1h-1zM8,20h6v1h-6zM18,20h6v1h-6zM8,21h6v1h-6zM18,21h6v1h-6zM8,22h6v1h-6zM18,22h6v1h-6zM8,23h6v1h-6zM18,23h6v1h-6zM8,24h6v1h-6zM18,24h6v1h-6zM29,26h1v1h-1z"/><path fill="#b13e53" d="M11,8h9v1h-9zM9,9h11v1h-11zM7,10h13v1h-13zM23,10h2v1h-2zM7,11h18v1h-18zM5,12h22v1h-22zM5,13h22v1h-22zM5,14h22v1h-22zM3,26h1v1h-1z"/><path fill="#8b5e34" d="M7,15h1v1h-1zM24,15h1v1h-1zM7,16h1v1h-1zM10,16h2v1h-2zM20,16h1v1h-1zM24,16h1v1h-1zM7,17h1v1h-1zM9,17h4v1h-4zM19,17h4v1h-4zM24,17h1v1h-1zM7,18h1v1h-1zM9,18h2v1h-2zM12,18h1v1h-1zM20,18h1v1h-1zM24,18h1v1h-1zM7,19h1v1h-1zM10,19h2v1h-2zM20,19h1v1h-1zM24,19h1v1h-1zM7,20h1v1h-1zM14,20h4v1h-4zM24,20h1v1h-1zM7,21h1v1h-1zM14,21h4v1h-4zM24,21h1v1h-1zM7,22h1v1h-1zM14,22h3v1h-3zM24,22h1v1h-1zM7,23h1v1h-1zM14,23h4v1h-4zM24,23h1v1h-1zM7,24h1v1h-1zM14,24h4v1h-4zM24,24h1v1h-1z"/><path fill="#ffcd75" d="M8,16h2v1h-2zM12,16h1v1h-1zM19,16h1v1h-1zM21,16h3v1h-3zM8,17h1v1h-1zM23,17h1v1h-1zM11,18h1v1h-1zM19,18h1v1h-1zM21,18h2v1h-2zM9,19h1v1h-1zM12,19h1v1h-1zM19,19h1v1h-1zM21,19h2v1h-2zM17,22h1v1h-1zM27,26h1v1h-1z"/><path fill="#38b764" d="M0,25h1v1h-1zM2,25h1v1h-1zM4,25h1v1h-1zM6,25h7v1h-7zM19,25h6v1h-6zM26,25h1v1h-1zM28,25h1v1h-1zM30,25h2v1h-2zM0,26h3v1h-3zM4,26h1v1h-1zM6,26h2v1h-2zM9,26h4v1h-4zM19,26h8v1h-8zM28,26h1v1h-1zM30,26h2v1h-2zM0,27h13v1h-13zM19,27h13v1h-13zM0,28h12v1h-12zM20,28h12v1h-12zM0,29h13v1h-13zM19,29h13v1h-13zM0,30h12v1h-12zM20,30h12v1h-12zM0,31h13v1h-13zM19,31h13v1h-13z"/><path fill="#ffecd2" d="M13,25h6v1h-6zM13,26h6v1h-6zM13,27h6v1h-6zM12,28h8v1h-8zM13,29h6v1h-6zM12,30h8v1h-8zM13,31h6v1h-6z"/><path fill="#ff9eb7" d="M5,26h1v1h-1z"/><path fill="#73eff7" d="M8,26h1v1h-1z"/></svg>