<svg xmlns="http://www.w3.org/2000/svg" viewBox="0 0 32 32" shape-rendering="crispEdges"><path fill="#b13e53" d="M3,9h2v1h-2ZM6,9h2v1h-2ZM23,9h2v1h-2ZM26,9h2v1h-2ZM3,10h1v1h-1ZM6,10h1v1h-1ZM23,10h1v1h-1ZM26,10h1v1h-1ZM4,11h4v1h-4ZM12,11h2v1h-2ZM18,11h2v1h-2ZM24,11h4v1h-4ZM5,12h3v1h-3ZM12,12h2v1h-2ZM16,12h1v1h-1ZM18,12h2v1h-2ZM24,12h3v1h-3ZM5,13h3v1h-3ZM12,13h9v1h-9ZM24,13h3v1h-3ZM6,14h2v1h-2ZM11,14h11v1h-11ZM24,14h2v1h-2ZM10,15h13v1h-13ZM9,16h15v1h-15ZM6,17h2v1h-2ZM9,17h7v1h-7ZM17,17h9v1h-9ZM5,18h1v1h-1ZM8,18h2v1h-2ZM12,18h2v1h-2ZM19,18h1v1h-1ZM22,18h3v1h-3ZM26,18h1v1h-1ZM9,19h4v1h-4ZM20,19h4v1h-4ZM6,20h2v1h-2ZM9,20h3v1h-3ZM21,20h5v1h-5ZM5,21h1v1h-1ZM10,21h3v1h-3ZM20,21h3v1h-3ZM26,21h1v1h-1ZM11,22h3v1h-3ZM19,22h3v1h-3ZM7,23h2v1h-2ZM12,23h4v1h-4ZM17,23h4v1h-4ZM23,23h2v1h-2ZM6,24h1v1h-1ZM16,24h1v1h-1ZM25,24h1v1h-1Z"/><path fill="#ef7d57" d="M4,10h1v1h-1ZM7,10h1v1h-1ZM24,10h1v1h-1ZM27,10h1v1h-1ZM16,17h1v1h-1ZM14,18h5v1h-5ZM13,19h1v1h-1ZM15,19h2v1h-2ZM18,19h2v1h-2ZM12,20h3v1h-3ZM17,20h4v1h-4ZM13,21h7v1h-7ZM14,22h5v1h-5ZM16,23h1v1h-1Z"/><path fill="#ff9eb7" d="M10,18h2v1h-2ZM20,18h2v1h-2Z"/><path fill="#333c57" d="M14,19h1v1h-1ZM17,19h1v1h-1ZM15,20h2v1h-2Z"/><path fill="#f4f4f4" d="M11,7h4v1h-4ZM17,7h4v1h-4ZM11,8h1v1h-1ZM14,8h1v1h-1ZM17,8h1v1h-1ZM20,8h1v1h-1ZM11,9h1v1h-1ZM14,9h1v1h-1ZM17,9h1v1h-1ZM20,9h1v1h-1ZM11,10h4v1h-4ZM17,10h4v1h-4Z"/><path fill="#1a1c2c" d="M12,8h2v1h-2ZM18,8h2v1h-2ZM12,9h2v1h-2ZM18,9h2v1h-2Z"/></svg>