<svg xmlns="http://www.w3.org/2000/svg" viewBox="0 0 32 32" shape-rendering="crispEdges">
  <path fill="#ffcd75" d="M7,6h1v1h-1zM7,7h1v1h-1zM7,8h1v1h-1zM7,9h1v1h-1zM7,10h1v1h-1zM7,11h1v1h-1zM7,12h1v1h-1zM7,13h1v1h-1zM7,14h1v1h-1zM7,15h1v1h-1zM8,6h1v1h-1zM8,7h1v1h-1zM8,8h1v1h-1zM8,9h1v1h-1zM8,10h1v1h-1zM8,11h1v1h-1zM8,12h1v1h-1zM8,13h1v1h-1zM8,14h1v1h-1zM8,15h1v1h-1zM11,9h1v1h-1zM11,10h1v1h-1zM11,11h1v1h-1zM11,12h1v1h-1zM11,13h1v1h-1zM11,14h1v1h-1zM11,15h1v1h-1zM12,9h1v1h-1zM12,10h1v1h-1zM12,11h1v1h-1zM12,12h1v1h-1zM12,13h1v1h-1zM12,14h1v1h-1zM12,15h1v1h-1zM15,6h1v1h-1zM15,7h1v1h-1zM15,8h1v1h-1zM15,9h1v1h-1zM15,10h1v1h-1zM15,11h1v1h-1zM15,12h1v1h-1zM15,13h1v1h-1zM15,14h1v1h-1zM15,15h1v1h-1zM16,6h1v1h-1zM16,7h1v1h-1zM16,8h1v1h-1zM16,9h1v1h-1zM16,10h1v1h-1zM16,11h1v1h-1zM16,12h1v1h-1zM16,13h1v1h-1zM16,14h1v1h-1zM16,15h1v1h-1zM19,9h1v1h-1zM19,10h1v1h-1zM19,11h1v1h-1zM19,12h1v1h-1zM19,13h1v1h-1zM19,14h1v1h-1zM19,15h1v1h-1zM20,9h1v1h-1zM20,10h1v1h-1zM20,11h1v1h-1zM20,12h1v1h-1zM20,13h1v1h-1zM20,14h1v1h-1zM20,15h1v1h-1zM23,6h1v1h-1zM23,7h1v1h-1zM23,8h1v1h-1zM23,9h1v1h-1zM23,10h1v1h-1zM23,11h1v1h-1zM23,12h1v1h-1zM23,13h1v1h-1zM23,14h1v1h-1zM23,15h1v1h-1zM24,6h1v1h-1zM24,7h1v1h-1zM24,8h1v1h-1zM24,9h1v1h-1zM24,10h1v1h-1zM24,11h1v1h-1zM24,12h1v1h-1zM24,13h1v1h-1zM24,14h1v1h-1zM24,15h1v1h-1zM7,12h1v1h-1zM7,13h1v1h-1zM7,14h1v1h-1zM7,15h1v1h-1zM8,12h1v1h-1zM8,13h1v1h-1zM8,14h1v1h-1zM8,15h1v1h-1zM9,12h1v1h-1zM9,13h1v1h-1zM9,14h1v1h-1zM9,15h1v1h-1zM10,12h1v1h-1zM10,13h1v1h-1zM10,14h1v1h-1zM10,15h1v1h-1zM11,12h1v1h-1zM11,13h1v1h-1zM11,14h1v1h-1zM11,15h1v1h-1zM12,12h1v1h-1zM12,13h1v1h-1zM12,14h1v1h-1zM12,15h1v1h-1zM13,12h1v1h-1zM13,13h1v1h-1zM13,14h1v1h-1zM13,15h1v1h-1zM14,12h1v1h-1zM14,13h1v1h-1zM14,14h1v1h-1zM14,15h1v1h-1zM15,12h1v1h-1zM15,13h1v1h-1zM15,14h1v1h-1zM15,15h1v1h-1zM16,12h1v1h-1zM16,13h1v1h-1zM16,14h1v1h-1zM16,15h1v1h-1zM17,12h1v1h-1zM17,13h1v1h-1zM17,14h1v1h-1zM17,15h1v1h-1zM18,12h1v1h-1zM18,13h1v1h-1zM18,14h1v1h-1zM18,15h1v1h-1zM19,12h1v1h-1zM19,13h1v1h-1zM19,14h1v1h-1zM19,15h1v1h-1zM20,12h1v1h-1zM20,13h1v1h-1zM20,14h1v1h-1zM20,15h1v1h-1zM21,12h1v1h-1zM21,13h1v1h-1zM21,14h1v1h-1zM21,15h1v1h-1zM22,12h1v1h-1zM22,13h1v1h-1zM22,14h1v1h-1zM22,15h1v1h-1zM23,12h1v1h-1zM23,13h1v1h-1zM23,14h1v1h-1zM23,15h1v1h-1zM24,12h1v1h-1zM24,13h1v1h-1zM24,14h1v1h-1zM24,15h1v1h-1zM9,12h1v1h-1zM9,13h1v1h-1zM9,14h1v1h-1zM9,15h1v1h-1zM10,12h1v1h-1zM10,13h1v1h-1zM10,14h1v1h-1zM10,15h1v1h-1zM13,12h1v1h-1zM13,13h1v1h-1zM13,14h1v1h-1zM13,15h1v1h-1zM14,12h1v1h-1zM14,13h1v1h-1zM14,14h1v1h-1zM14,15h1v1h-1zM17,12h1v1h-1zM17,13h1v1h-1zM17,14h1v1h-1zM17,15h1v1h-1zM18,12h1v1h-1zM18,13h1v1h-1zM18,14h1v1h-1zM18,15h1v1h-1zM21,12h1v1h-1zM21,13h1v1h-1zM21,14h1v1h-1zM21,15h1v1h-1zM22,12h1v1h-1zM22,13h1v1h-1zM22,14h1v1h-1zM22,15h1v1h-1zM6,12h1v1h-1zM6,13h1v1h-1zM6,14h1v1h-1zM6,15h1v1h-1zM6,16h1v1h-1zM7,12h1v1h-1zM7,13h1v1h-1zM7,14h1v1h-1zM7,15h1v1h-1zM7,16h1v1h-1zM8,12h1v1h-1zM8,13h1v1h-1zM8,14h1v1h-1zM8,15h1v1h-1zM8,16h1v1h-1zM9,12h1v1h-1zM9,13h1v1h-1zM9,14h1v1h-1zM9,15h1v1h-1zM9,16h1v1h-1zM10,12h1v1h-1zM10,13h1v1h-1zM10,14h1v1h-1zM10,15h1v1h-1zM10,16h1v1h-1zM11,12h1v1h-1zM11,13h1v1h-1zM11,14h1v1h-1zM11,15h1v1h-1zM11,16h1v1h-1zM12,12h1v1h-1zM12,13h1v1h-1zM12,14h1v1h-1zM12,15h1v1h-1zM12,16h1v1h-1zM13,12h1v1h-1zM13,13h1v1h-1zM13,14h1v1h-1zM13,15h1v1h-1zM13,16h1v1h-1zM14,12h1v1h-1zM14,13h1v1h-1zM14,14h1v1h-1zM14,15h1v1h-1zM14,16h1v1h-1zM15,12h1v1h-1zM15,13h1v1h-1zM15,14h1v1h-1zM15,15h1v1h-1zM15,16h1v1h-1zM16,12h1v1h-1zM16,13h1v1h-1zM16,14h1v1h-1zM16,15h1v1h-1zM16,16h1v1h-1zM17,12h1v1h-1zM17,13h1v1h-1zM17,14h1v1h-1zM17,15h1v1h-1zM17,16h1v1h-1zM18,12h1v1h-1zM18,13h1v1h-1zM18,14h1v1h-1zM18,15h1v1h-1zM18,16h1v1h-1zM19,12h1v1h-1zM19,13h1v1h-1zM19,14h1v1h-1zM19,15h1v1h-1zM19,16h1v1h-1zM20,12h1v1h-1zM20,13h1v1h-1zM20,14h1v1h-1zM20,15h1v1h-1zM20,16h1v1h-1zM21,12h1v1h-1zM21,13h1v1h-1zM21,14h1v1h-1zM21,15h1v1h-1zM21,16h1v1h-1zM22,12h1v1h-1zM22,13h1v1h-1zM22,14h1v1h-1zM22,15h1v1h-1zM22,16h1v1h-1zM23,12h1v1h-1zM23,13h1v1h-1zM23,14h1v1h-1zM23,15h1v1h-1zM23,16h1v1h-1zM24,12h1v1h-1zM24,13h1v1h-1zM24,14h1v1h-1zM24,15h1v1h-1zM24,16h1v1h-1zM25,12h1v1h-1zM25,13h1v1h-1zM25,14h1v1h-1zM25,15h1v1h-1zM25,16h1v1h-1z"/>
  <path fill="#ef7d57" d="M8,6h1v1h-1zM8,7h1v1h-1zM8,8h1v1h-1zM8,9h1v1h-1zM8,10h1v1h-1zM8,11h1v1h-1zM8,12h1v1h-1zM8,13h1v1h-1zM8,14h1v1h-1zM8,15h1v1h-1zM12,9h1v1h-1zM12,10h1v1h-1zM12,11h1v1h-1zM12,12h1v1h-1zM12,13h1v1h-1zM12,14h1v1h-1zM12,15h1v1h-1zM16,6h1v1h-1zM16,7h1v1h-1zM16,8h1v1h-1zM16,9h1v1h-1zM16,10h1v1h-1zM16,11h1v1h-1zM16,12h1v1h-1zM16,13h1v1h-1zM16,14h1v1h-1zM16,15h1v1h-1zM20,9h1v1h-1zM20,10h1v1h-1zM20,11h1v1h-1zM20,12h1v1h-1zM20,13h1v1h-1zM20,14h1v1h-1zM20,15h1v1h-1zM24,6h1v1h-1zM24,7h1v1h-1zM24,8h1v1h-1zM24,9h1v1h-1zM24,10h1v1h-1zM24,11h1v1h-1zM24,12h1v1h-1zM24,13h1v1h-1zM24,14h1v1h-1zM24,15h1v1h-1zM7,13h1v1h-1zM8,13h1v1h-1zM9,13h1v1h-1zM10,13h1v1h-1zM11,13h1v1h-1zM12,13h1v1h-1zM13,13h1v1h-1zM14,13h1v1h-1zM15,13h1v1h-1zM16,13h1v1h-1zM17,13h1v1h-1zM18,13h1v1h-1zM19,13h1v1h-1zM20,13h1v1h-1zM21,13h1v1h-1zM22,13h1v1h-1zM23,13h1v1h-1zM24,13h1v1h-1zM7,15h1v1h-1zM8,15h1v1h-1zM9,15h1v1h-1zM10,15h1v1h-1zM11,15h1v1h-1zM12,15h1v1h-1zM13,15h1v1h-1zM14,15h1v1h-1zM15,15h1v1h-1zM16,15h1v1h-1zM17,15h1v1h-1zM18,15h1v1h-1zM19,15h1v1h-1zM20,15h1v1h-1zM21,15h1v1h-1zM22,15h1v1h-1zM23,15h1v1h-1zM24,15h1v1h-1zM6,13h1v1h-1zM7,13h1v1h-1zM8,13h1v1h-1zM9,13h1v1h-1zM10,13h1v1h-1zM11,13h1v1h-1zM12,13h1v1h-1zM13,13h1v1h-1zM14,13h1v1h-1zM15,13h1v1h-1zM16,13h1v1h-1zM17,13h1v1h-1zM18,13h1v1h-1zM19,13h1v1h-1zM20,13h1v1h-1zM21,13h1v1h-1zM22,13h1v1h-1zM23,13h1v1h-1zM24,13h1v1h-1zM25,13h1v1h-1zM6,15h1v1h-1zM7,15h1v1h-1zM8,15h1v1h-1zM9,15h1v1h-1zM10,15h1v1h-1zM11,15h1v1h-1zM12,15h1v1h-1zM13,15h1v1h-1zM14,15h1v1h-1zM15,15h1v1h-1zM16,15h1v1h-1zM17,15h1v1h-1zM18,15h1v1h-1zM19,15h1v1h-1zM20,15h1v1h-1zM21,15h1v1h-1zM22,15h1v1h-1zM23,15h1v1h-1zM24,15h1v1h-1zM25,15h1v1h-1zM6,12h1v1h-1zM6,13h1v1h-1zM6,14h1v1h-1zM6,15h1v1h-1zM6,16h1v1h-1zM6,17h1v1h-1zM6,18h1v1h-1zM6,19h1v1h-1zM25,12h1v1h-1zM25,13h1v1h-1zM25,14h1v1h-1zM25,15h1v1h-1zM25,16h1v1h-1zM25,17h1v1h-1zM25,18h1v1h-1zM25,19h1v1h-1z"/>
  <path fill="#b13e53" d="M7,6h1v1h-1zM8,6h1v1h-1zM7,7h1v1h-1zM8,7h1v1h-1zM23,6h1v1h-1zM24,6h1v1h-1zM23,7h1v1h-1zM24,7h1v1h-1zM10,16h1v1h-1zM14,16h1v1h-1zM18,16h1v1h-1zM22,16h1v1h-1zM6,17h1v1h-1zM6,18h1v1h-1zM6,19h1v1h-1zM7,17h1v1h-1zM7,18h1v1h-1zM7,19h1v1h-1zM8,17h1v1h-1zM8,18h1v1h-1zM8,19h1v1h-1zM9,17h1v1h-1zM9,18h1v1h-1zM9,19h1v1h-1zM10,17h1v1h-1zM10,18h1v1h-1zM10,19h1v1h-1zM11,17h1v1h-1zM11,18h1v1h-1zM11,19h1v1h-1zM12,17h1v1h-1zM12,18h1v1h-1zM12,19h1v1h-1zM13,17h1v1h-1zM13,18h1v1h-1zM13,19h1v1h-1zM14,17h1v1h-1zM14,18h1v1h-1zM14,19h1v1h-1zM15,17h1v1h-1zM15,18h1v1h-1zM15,19h1v1h-1zM16,17h1v1h-1zM16,18h1v1h-1zM16,19h1v1h-1zM17,17h1v1h-1zM17,18h1v1h-1zM17,19h1v1h-1zM18,17h1v1h-1zM18,18h1v1h-1zM18,19h1v1h-1zM19,17h1v1h-1zM19,18h1v1h-1zM19,19h1v1h-1zM20,17h1v1h-1zM20,18h1v1h-1zM20,19h1v1h-1zM21,17h1v1h-1zM21,18h1v1h-1zM21,19h1v1h-1zM22,17h1v1h-1zM22,18h1v1h-1zM22,19h1v1h-1zM23,17h1v1h-1zM23,18h1v1h-1zM23,19h1v1h-1zM24,17h1v1h-1zM24,18h1v1h-1zM24,19h1v1h-1zM25,17h1v1h-1zM25,18h1v1h-1zM25,19h1v1h-1z"/>
  <path fill="#73eff7" d="M11,9h1v1h-1zM12,9h1v1h-1zM11,10h1v1h-1zM12,10h1v1h-1zM8,16h1v1h-1zM12,16h1v1h-1zM16,16h1v1h-1zM20,16h1v1h-1z"/>
  <path fill="#38b764" d="M15,6h1v1h-1zM16,6h1v1h-1zM15,7h1v1h-1zM16,7h1v1h-1z"/>
  <path fill="#3b5dc9" d="M19,9h1v1h-1zM20,9h1v1h-1zM19,10h1v1h-1zM20,10h1v1h-1z"/>
  <path fill="#5d275d" d="M6,19h1v1h-1zM7,19h1v1h-1zM8,19h1v1h-1zM9,19h1v1h-1zM10,19h1v1h-1zM11,19h1v1h-1zM12,19h1v1h-1zM13,19h1v1h-1zM14,19h1v1h-1zM15,19h1v1h-1zM16,19h1v1h-1zM17,19h1v1h-1zM18,19h1v1h-1zM19,19h1v1h-1zM20,19h1v1h-1zM21,19h1v1h-1zM22,19h1v1h-1zM23,19h1v1h-1zM24,19h1v1h-1zM25,19h1v1h-1z"/>
  <path fill="#f4f4f4" d="M3,8h1v1h-1zM2,9h1v1h-1zM3,9h1v1h-1zM4,9h1v1h-1zM3,10h1v1h-1zM28,6h1v1h-1zM27,7h1v1h-1zM28,7h1v1h-1zM29,7h1v1h-1zM28,8h1v1h-1zM4,22h1v1h-1zM3,23h1v1h-1zM4,23h1v1h-1zM5,23h1v1h-1zM4,24h1v1h-1zM27,22h1v1h-1zM26,23h1v1h-1zM27,23h1v1h-1zM28,23h1v1h-1zM27,24h1v1h-1z"/>
</svg>
