<svg xmlns="http://www.w3.org/2000/svg" viewBox="0 0 32 32" shape-rendering="crispEdges">
  <path fill="#73eff7" d="M15,3h1v1h-1zM16,3h1v1h-1zM14,0h1v1h-1zM17,0h1v1h-1zM13,1h1v1h-1zM18,1h1v1h-1zM12,2h1v1h-1zM19,2h1v1h-1zM2,12h1v1h-1zM29,14h1v1h-1z"/>
  <path fill="#c3a5e0" d="M14,4h1v1h-1zM14,5h1v1h-1zM15,4h1v1h-1zM15,5h1v1h-1zM16,4h1v1h-1zM16,5h1v1h-1zM17,4h1v1h-1zM17,5h1v1h-1zM13,6h1v1h-1zM13,7h1v1h-1zM14,6h1v1h-1zM14,7h1v1h-1zM15,6h1v1h-1zM15,7h1v1h-1zM16,6h1v1h-1zM16,7h1v1h-1zM17,6h1v1h-1zM17,7h1v1h-1zM18,6h1v1h-1zM18,7h1v1h-1zM13,6h1v1h-1zM13,7h1v1h-1zM14,6h1v1h-1zM14,7h1v1h-1zM15,6h1v1h-1zM15,7h1v1h-1zM16,6h1v1h-1zM16,7h1v1h-1zM17,6h1v1h-1zM17,7h1v1h-1zM18,6h1v1h-1zM18,7h1v1h-1zM14,4h1v1h-1zM14,5h1v1h-1zM15,4h1v1h-1zM15,5h1v1h-1zM16,4h1v1h-1zM16,5h1v1h-1zM17,4h1v1h-1zM17,5h1v1h-1zM12,10h1v1h-1zM13,11h1v1h-1zM6,24h1v1h-1zM6,23h1v1h-1zM7,22h1v1h-1zM25,24h1v1h-1zM25,23h1v1h-1zM13,22h1v1h-1zM18,22h1v1h-1zM19,23h1v1h-1zM4,8h1v1h-1zM28,6h1v1h-1zM5,19h1v1h-1zM23,4h1v1h-1z"/>
  <path fill="#5d275d" d="M11,8h1v1h-1zM11,9h1v1h-1zM11,10h1v1h-1zM11,11h1v1h-1zM11,12h1v1h-1zM11,13h1v1h-1zM11,14h1v1h-1zM11,15h1v1h-1zM11,16h1v1h-1zM11,17h1v1h-1zM12,8h1v1h-1zM12,9h1v1h-1zM12,10h1v1h-1zM12,11h1v1h-1zM12,12h1v1h-1zM12,13h1v1h-1zM12,14h1v1h-1zM12,15h1v1h-1zM12,16h1v1h-1zM12,17h1v1h-1zM13,8h1v1h-1zM13,9h1v1h-1zM13,10h1v1h-1zM13,11h1v1h-1zM13,12h1v1h-1zM13,13h1v1h-1zM13,14h1v1h-1zM13,15h1v1h-1zM13,16h1v1h-1zM13,17h1v1h-1zM14,8h1v1h-1zM14,9h1v1h-1zM14,10h1v1h-1zM14,11h1v1h-1zM14,12h1v1h-1zM14,13h1v1h-1zM14,14h1v1h-1zM14,15h1v1h-1zM14,16h1v1h-1zM14,17h1v1h-1zM15,8h1v1h-1zM15,9h1v1h-1zM15,10h1v1h-1zM15,11h1v1h-1zM15,12h1v1h-1zM15,13h1v1h-1zM15,14h1v1h-1zM15,15h1v1h-1zM15,16h1v1h-1zM15,17h1v1h-1zM12,7h1v1h-1zM11,8h1v1h-1zM10,9h1v1h-1zM10,10h1v1h-1zM9,11h1v1h-1zM9,12h1v1h-1zM10,13h1v1h-1zM10,14h1v1h-1zM10,15h1v1h-1zM10,16h1v1h-1zM10,17h1v1h-1zM14,8h1v1h-1zM14,9h1v1h-1zM14,10h1v1h-1zM14,11h1v1h-1zM14,12h1v1h-1zM14,13h1v1h-1zM14,14h1v1h-1zM14,15h1v1h-1zM14,16h1v1h-1zM14,17h1v1h-1zM15,8h1v1h-1zM15,9h1v1h-1zM15,10h1v1h-1zM15,11h1v1h-1zM15,12h1v1h-1zM15,13h1v1h-1zM15,14h1v1h-1zM15,15h1v1h-1zM15,16h1v1h-1zM15,17h1v1h-1zM16,8h1v1h-1zM16,9h1v1h-1zM16,10h1v1h-1zM16,11h1v1h-1zM16,12h1v1h-1zM16,13h1v1h-1zM16,14h1v1h-1zM16,15h1v1h-1zM16,16h1v1h-1zM16,17h1v1h-1zM17,8h1v1h-1zM17,9h1v1h-1zM17,10h1v1h-1zM17,11h1v1h-1zM17,12h1v1h-1zM17,13h1v1h-1zM17,14h1v1h-1zM17,15h1v1h-1zM17,16h1v1h-1zM17,17h1v1h-1zM12,18h1v1h-1zM13,18h1v1h-1zM14,18h1v1h-1zM15,18h1v1h-1zM16,18h1v1h-1zM17,18h1v1h-1zM18,18h1v1h-1zM19,18h1v1h-1zM7,24h1v1h-1zM7,23h1v1h-1zM24,24h1v1h-1zM24,23h1v1h-1zM24,22h1v1h-1zM12,22h1v1h-1zM13,23h1v1h-1zM19,22h1v1h-1zM27,10h1v1h-1zM3,15h1v1h-1zM26,18h1v1h-1zM8,5h1v1h-1z"/>
  <path fill="#333c57" d="M16,8h1v1h-1zM16,9h1v1h-1zM16,10h1v1h-1zM16,11h1v1h-1zM16,12h1v1h-1zM16,13h1v1h-1zM16,14h1v1h-1zM16,15h1v1h-1zM16,16h1v1h-1zM16,17h1v1h-1zM17,8h1v1h-1zM17,9h1v1h-1zM17,10h1v1h-1zM17,11h1v1h-1zM17,12h1v1h-1zM17,13h1v1h-1zM17,14h1v1h-1zM17,15h1v1h-1zM17,16h1v1h-1zM17,17h1v1h-1zM18,8h1v1h-1zM18,9h1v1h-1zM18,10h1v1h-1zM18,11h1v1h-1zM18,12h1v1h-1zM18,13h1v1h-1zM18,14h1v1h-1zM18,15h1v1h-1zM18,16h1v1h-1zM18,17h1v1h-1zM19,8h1v1h-1zM19,9h1v1h-1zM19,10h1v1h-1zM19,11h1v1h-1zM19,12h1v1h-1zM19,13h1v1h-1zM19,14h1v1h-1zM19,15h1v1h-1zM19,16h1v1h-1zM19,17h1v1h-1zM20,8h1v1h-1zM20,9h1v1h-1zM20,10h1v1h-1zM20,11h1v1h-1zM20,12h1v1h-1zM20,13h1v1h-1zM20,14h1v1h-1zM20,15h1v1h-1zM20,16h1v1h-1zM20,17h1v1h-1zM19,7h1v1h-1zM20,8h1v1h-1zM21,9h1v1h-1zM21,10h1v1h-1zM22,11h1v1h-1zM22,12h1v1h-1zM21,13h1v1h-1zM21,14h1v1h-1zM21,15h1v1h-1zM21,16h1v1h-1zM21,17h1v1h-1zM14,20h1v1h-1zM15,20h1v1h-1zM16,20h1v1h-1zM17,20h1v1h-1zM15,21h1v1h-1zM16,21h1v1h-1z"/>
  <path fill="#29366f" d="M13,8h1v1h-1zM13,9h1v1h-1zM13,10h1v1h-1zM13,11h1v1h-1zM13,12h1v1h-1zM13,13h1v1h-1zM13,14h1v1h-1zM13,15h1v1h-1zM13,16h1v1h-1zM13,17h1v1h-1zM14,8h1v1h-1zM14,9h1v1h-1zM14,10h1v1h-1zM14,11h1v1h-1zM14,12h1v1h-1zM14,13h1v1h-1zM14,14h1v1h-1zM14,15h1v1h-1zM14,16h1v1h-1zM14,17h1v1h-1zM15,8h1v1h-1zM15,9h1v1h-1zM15,10h1v1h-1zM15,11h1v1h-1zM15,12h1v1h-1zM15,13h1v1h-1zM15,14h1v1h-1zM15,15h1v1h-1zM15,16h1v1h-1zM15,17h1v1h-1zM16,8h1v1h-1zM16,9h1v1h-1zM16,10h1v1h-1zM16,11h1v1h-1zM16,12h1v1h-1zM16,13h1v1h-1zM16,14h1v1h-1zM16,15h1v1h-1zM16,16h1v1h-1zM16,17h1v1h-1zM17,8h1v1h-1zM17,9h1v1h-1zM17,10h1v1h-1zM17,11h1v1h-1zM17,12h1v1h-1zM17,13h1v1h-1zM17,14h1v1h-1zM17,15h1v1h-1zM17,16h1v1h-1zM17,17h1v1h-1zM18,8h1v1h-1zM18,9h1v1h-1zM18,10h1v1h-1zM18,11h1v1h-1zM18,12h1v1h-1zM18,13h1v1h-1zM18,14h1v1h-1zM18,15h1v1h-1zM18,16h1v1h-1zM18,17h1v1h-1zM13,19h1v1h-1zM14,19h1v1h-1zM15,19h1v1h-1zM16,19h1v1h-1zM17,19h1v1h-1zM18,19h1v1h-1z"/>
  <path fill="#f4f4f4" d="M15,3h1v1h-1zM16,3h1v1h-1zM14,7h1v1h-1zM15,8h1v1h-1zM16,9h1v1h-1zM15,11h1v1h-1zM14,12h1v1h-1zM16,14h1v1h-1zM17,15h1v1h-1zM14,12h1v1h-1zM15,1h1v1h-1zM16,1h1v1h-1z"/>
</svg>
