<svg xmlns="http://www.w3.org/2000/svg" width="32" height="32" viewBox="0 0 32 32" shape-rendering="crispEdges">
<path fill="#257179" d="M13 4h6v1h-6zM11 5h10v1h-10zM9 6h3v1h-3zM20 6h3v1h-3zM8 7h3v1h-3zM21 7h3v1h-3zM8 8h2v1h-2zM22 8h2v1h-2zM7 9h2v1h-2zM23 9h2v1h-2zM7 10h1v1h-1zM24 10h1v1h-1zM6 11h2v1h-2zM24 11h2v1h-2zM6 12h2v1h-2zM24 12h2v1h-2zM6 13h2v1h-2zM24 13h2v1h-2zM6 14h2v1h-2zM24 14h2v1h-2zM6 15h2v1h-2zM24 15h2v1h-2zM6 16h2v1h-2zM24 16h2v1h-2zM7 17h1v1h-1zM24 17h1v1h-1zM7 18h2v1h-2zM23 18h2v1h-2zM8 19h2v1h-2zM22 19h2v1h-2zM8 20h3v1h-3zM21 20h3v1h-3zM9 21h3v1h-3zM20 21h3v1h-3zM11 22h10v1h-10zM13 23h6v1h-6z"/>
<path fill="#f4f4f4" d="M12 6h2v1h-2zM11 7h2v1h-2zM10 8h2v1h-2zM10 9h1v1h-1zM16 14h1v1h-1z"/>
<path fill="#41a6f6" d="M14 6h6v1h-6zM13 7h8v1h-8zM12 8h2v1h-2zM18 8h4v1h-4zM9 9h1v1h-1zM11 9h1v1h-1zM17 9h6v1h-6zM8 10h3v1h-3zM17 10h7v1h-7zM8 11h3v1h-3zM18 11h6v1h-6zM8 12h2v1h-2zM19 12h5v1h-5zM8 13h2v1h-2zM19 13h5v1h-5z"/>
<path fill="#73eff7" d="M14 8h4v1h-4zM12 9h5v1h-5zM11 10h6v1h-6zM11 11h7v1h-7zM10 12h9v1h-9zM10 13h7v1h-7zM18 13h1v1h-1zM13 14h3v1h-3zM17 14h2v1h-2zM13 15h2v1h-2zM16 15h3v1h-3zM14 16h4v1h-4z"/>
<path fill="#94b0c2" d="M17 13h1v1h-1zM15 15h1v1h-1zM10 25h2v1h-2zM10 26h1v1h-1z"/>
<path fill="#29366f" d="M8 14h5v1h-5zM8 15h5v1h-5zM8 16h6v1h-6zM8 17h9v1h-9zM9 18h8v1h-8zM10 19h8v1h-8zM11 20h7v1h-7zM12 21h6v1h-6z"/>
<path fill="#3b5dc9" d="M19 14h5v1h-5zM19 15h5v1h-5zM18 16h6v1h-6zM17 17h7v1h-7zM17 18h6v1h-6zM18 19h4v1h-4zM18 20h3v1h-3zM18 21h2v1h-2z"/>
<path fill="#566c86" d="M10 24h12v1h-12zM9 26h1v1h-1zM11 26h12v1h-12z"/>
<path fill="#333c57" d="M9 25h1v1h-1zM12 25h11v1h-11zM10 27h12v1h-12z"/>
</svg>