<svg xmlns="http://www.w3.org/2000/svg" width="32" height="32" viewBox="0 0 32 32" shape-rendering="crispEdges">
<path fill="#257179" d="M15 4h1v1h-1zM11 5h4v1h-4zM16 5h4v1h-4zM19 6h2v1h-2zM21 7h1v1h-1zM8 8h1v1h-1zM22 8h1v1h-1zM7 9h1v1h-1zM22 9h2v1h-2zM7 10h1v1h-1zM23 10h1v1h-1zM7 11h1v1h-1zM23 11h1v1h-1zM7 12h1v1h-1zM23 12h1v1h-1zM6 13h1v1h-1zM24 13h1v1h-1zM7 14h1v1h-1zM23 14h1v1h-1zM7 15h1v1h-1zM23 15h1v1h-1zM7 16h1v1h-1zM23 16h1v1h-1zM7 17h2v1h-2zM22 17h2v1h-2zM8 18h1v1h-1zM22 18h1v1h-1zM9 19h1v1h-1zM21 19h1v1h-1zM10 20h2v1h-2zM19 20h2v1h-2zM11 21h4v1h-4zM16 21h4v1h-4zM15 22h1v1h-1z"/><path fill="#29366f" d="M15 5h1v1h-1zM13 6h6v1h-6zM11 7h3v1h-3zM15 7h6v1h-6zM11 8h11v1h-11zM9 9h4v1h-4zM14 9h4v1h-4zM19 9h3v1h-3zM8 10h4v1h-4zM15 10h1v1h-1zM17 10h6v1h-6zM8 11h3v1h-3zM12 11h1v1h-1zM16 11h7v1h-7zM8 12h3v1h-3zM13 12h1v1h-1zM15 12h1v1h-1zM18 12h2v1h-2zM21 12h2v1h-2zM7 13h3v1h-3zM12 13h1v1h-1zM14 13h1v1h-1zM17 13h1v1h-1zM19 13h2v1h-2zM22 13h2v1h-2zM8 14h1v1h-1zM10 14h1v1h-1zM13 14h2v1h-2zM16 14h1v1h-1zM20 14h3v1h-3zM8 15h5v1h-5zM16 15h1v1h-1zM18 15h5v1h-5zM8 16h4v1h-4zM15 16h4v1h-4zM20 16h3v1h-3zM9 17h11v1h-11zM9 18h3v1h-3zM13 18h6v1h-6zM10 19h8v1h-8zM12 20h6v1h-6zM15 21h1v1h-1z"/><path fill="#f4f4f4" d="M10 6h3v1h-3zM9 7h1v1h-1zM14 7h1v1h-1zM10 8h1v1h-1zM13 9h1v1h-1zM18 9h1v1h-1zM16 10h1v1h-1zM11 11h1v1h-1zM20 12h1v1h-1zM21 13h1v1h-1zM9 14h1v1h-1zM17 15h1v1h-1zM19 16h1v1h-1zM12 18h1v1h-1z"/><path fill="#94b0c2" d="M10 7h1v1h-1zM9 8h1v1h-1zM8 9h1v1h-1zM11 24h10v1h-10z"/><path fill="#5d275d" d="M12 10h2v1h-2zM13 11h2v1h-2zM11 12h2v1h-2zM14 12h1v1h-1zM17 12h1v1h-1zM10 13h1v1h-1zM15 13h2v1h-2zM18 13h1v1h-1zM11 14h1v1h-1zM17 14h3v1h-3zM13 15h3v1h-3zM12 16h3v1h-3z"/><path fill="#3b5dc9" d="M14 10h1v1h-1zM15 11h1v1h-1zM16 12h1v1h-1zM11 13h1v1h-1zM13 13h1v1h-1zM12 14h1v1h-1zM15 14h1v1h-1z"/><path fill="#333c57" d="M20 17h2v1h-2zM19 18h3v1h-3zM18 19h3v1h-3zM18 20h1v1h-1zM9 26h14v1h-14zM8 28h16v1h-16z"/><path fill="#566c86" d="M11 23h10v1h-10zM9 25h14v1h-14zM8 27h16v1h-16z"/>
</svg>