<svg xmlns="http://www.w3.org/2000/svg" viewBox="0 0 32 32" shape-rendering="crispEdges"><path fill="#38b764" d="M16,3h2v1h-2zM16,4h1v1h-1z"/><path fill="#ff6b7f" d="M15,5h1v1h-1z"/><path fill="#b13e53" d="M16,5h1v1h-1zM15,6h2v1h-2zM11,11h1v1h-1zM15,14h1v1h-1zM8,20h16v1h-16zM9,21h14v1h-14zM10,23h12v1h-12zM11,25h10v1h-10zM12,27h8v1h-8z"/><path fill="#f4f4f4" d="M14,7h4v1h-4zM12,9h5v1h-5zM18,9h2v1h-2zM14,12h1v1h-1zM10,13h3v1h-3zM14,13h1v1h-1zM16,13h1v1h-1zM20,13h2v1h-2zM10,14h4v1h-4zM16,14h2v1h-2zM20,14h2v1h-2zM10,15h2v1h-2zM14,15h5v1h-5zM21,15h1v1h-1z"/><path fill="#ffecd2" d="M13,8h6v1h-6zM11,10h3v1h-3zM15,10h6v1h-6zM12,11h4v1h-4zM17,11h2v1h-2zM20,11h1v1h-1zM11,12h3v1h-3zM15,12h6v1h-6zM18,13h1v1h-1zM19,14h1v1h-1zM9,16h3v1h-3zM13,16h2v1h-2zM16,16h1v1h-1zM19,16h4v1h-4zM9,17h4v1h-4zM14,17h2v1h-2zM17,17h6v1h-6zM9,18h14v1h-14z"/><path fill="#a7f070" d="M17,9h1v1h-1zM18,16h1v1h-1z"/><path fill="#41a6f6" d="M14,10h1v1h-1z"/><path fill="#ef7d57" d="M16,11h1v1h-1zM12,16h1v1h-1z"/><path fill="#ffcd75" d="M19,11h1v1h-1z"/><path fill="#1a1c2c" d="M13,13h1v1h-1zM15,13h1v1h-1zM17,13h1v1h-1zM19,13h1v1h-1zM14,14h1v1h-1zM18,14h1v1h-1zM15,16h1v1h-1zM17,16h1v1h-1zM16,17h1v1h-1z"/><path fill="#ff9eb7" d="M12,15h2v1h-2zM19,15h2v1h-2zM8,19h16v1h-16zM10,22h12v1h-12zM11,24h10v1h-10zM12,26h8v1h-8zM13,28h6v1h-6z"/><path fill="#3b5dc9" d="M13,17h1v1h-1z"/></svg>