<svg xmlns="http://www.w3.org/2000/svg" viewBox="0 0 32 32" shape-rendering="crispEdges"><path fill="#f4f4f4" d="M14,3h1v1h-1zM15,3h1v1h-1zM16,3h1v1h-1zM17,3h1v1h-1zM14,4h1v1h-1zM15,4h1v1h-1zM16,4h1v1h-1zM17,4h1v1h-1zM10,5h1v1h-1zM11,5h1v1h-1zM12,5h1v1h-1zM13,5h1v1h-1zM14,5h1v1h-1zM15,5h1v1h-1zM16,5h1v1h-1zM17,5h1v1h-1zM18,5h1v1h-1zM19,5h1v1h-1zM20,5h1v1h-1zM21,5h1v1h-1zM25,5h1v1h-1zM26,5h1v1h-1zM10,6h1v1h-1zM11,6h1v1h-1zM12,6h1v1h-1zM19,6h1v1h-1zM20,6h1v1h-1zM21,6h1v1h-1zM10,7h1v1h-1zM11,7h1v1h-1zM12,7h1v1h-1zM19,7h1v1h-1zM20,7h1v1h-1zM21,7h1v1h-1zM9,9h1v1h-1zM10,9h1v1h-1zM11,9h1v1h-1zM20,9h1v1h-1zM21,9h1v1h-1zM22,9h1v1h-1zM9,10h1v1h-1zM10,10h1v1h-1zM11,10h1v1h-1zM20,10h1v1h-1zM21,10h1v1h-1zM22,10h1v1h-1zM9,11h1v1h-1zM10,11h1v1h-1zM11,11h1v1h-1zM14,11h1v1h-1zM17,11h1v1h-1zM20,11h1v1h-1zM21,11h1v1h-1zM22,11h1v1h-1zM9,12h1v1h-1zM10,12h1v1h-1zM11,12h1v1h-1zM20,12h1v1h-1zM21,12h1v1h-1zM22,12h1v1h-1zM10,14h1v1h-1zM11,14h1v1h-1zM12,14h1v1h-1zM19,14h1v1h-1zM20,14h1v1h-1zM21,14h1v1h-1zM10,15h1v1h-1zM11,15h1v1h-1zM12,15h1v1h-1zM19,15h1v1h-1zM20,15h1v1h-1zM21,15h1v1h-1zM10,16h1v1h-1zM11,16h1v1h-1zM12,16h1v1h-1zM13,16h1v1h-1zM14,16h1v1h-1zM15,16h1v1h-1zM16,16h1v1h-1zM17,16h1v1h-1zM18,16h1v1h-1zM19,16h1v1h-1zM20,16h1v1h-1zM21,16h1v1h-1zM14,17h1v1h-1zM15,17h1v1h-1zM16,17h1v1h-1zM17,17h1v1h-1zM14,18h1v1h-1zM15,18h1v1h-1zM16,18h1v1h-1zM17,18h1v1h-1z"/><path fill="#ffcd75" d="M24,6h1v1h-1zM26,6h1v1h-1zM14,7h1v1h-1zM15,7h1v1h-1zM16,7h1v1h-1zM17,7h1v1h-1zM13,8h1v1h-1zM14,8h1v1h-1zM15,8h1v1h-1zM16,8h1v1h-1zM17,8h1v1h-1zM18,8h1v1h-1zM12,9h1v1h-1zM13,9h1v1h-1zM14,9h1v1h-1zM15,9h1v1h-1zM16,9h1v1h-1zM17,9h1v1h-1zM18,9h1v1h-1zM19,9h1v1h-1zM12,10h1v1h-1zM13,10h1v1h-1zM15,10h1v1h-1zM16,10h1v1h-1zM18,10h1v1h-1zM19,10h1v1h-1zM12,11h1v1h-1zM15,11h1v1h-1zM16,11h1v1h-1zM19,11h1v1h-1zM12,12h1v1h-1zM13,12h1v1h-1zM14,12h1v1h-1zM17,12h1v1h-1zM18,12h1v1h-1zM19,12h1v1h-1zM13,13h1v1h-1zM14,13h1v1h-1zM15,13h1v1h-1zM16,13h1v1h-1zM17,13h1v1h-1zM18,13h1v1h-1zM14,14h1v1h-1zM15,14h1v1h-1zM16,14h1v1h-1zM17,14h1v1h-1z"/><path fill="#1a1c2c" d="M25,6h1v1h-1zM27,6h1v1h-1zM14,10h1v1h-1zM17,10h1v1h-1zM15,12h1v1h-1zM16,12h1v1h-1z"/><path fill="#ff9eb7" d="M13,11h1v1h-1zM18,11h1v1h-1z"/><path fill="#38b764" d="M15,19h1v1h-1zM16,19h1v1h-1zM15,20h1v1h-1zM16,20h1v1h-1zM19,20h1v1h-1zM20,20h1v1h-1zM15,21h1v1h-1zM16,21h1v1h-1zM17,21h1v1h-1zM18,21h1v1h-1zM19,21h1v1h-1zM11,22h1v1h-1zM12,22h1v1h-1zM15,22h1v1h-1zM16,22h1v1h-1zM12,23h1v1h-1zM13,23h1v1h-1zM14,23h1v1h-1zM15,23h1v1h-1zM16,23h1v1h-1zM15,24h1v1h-1zM16,24h1v1h-1zM15,25h1v1h-1zM16,25h1v1h-1zM15,26h1v1h-1zM16,26h1v1h-1zM15,27h1v1h-1zM16,27h1v1h-1zM15,28h1v1h-1zM16,28h1v1h-1z"/><path fill="#a7f070" d="M20,21h1v1h-1zM11,23h1v1h-1z"/></svg>