<svg xmlns="http://www.w3.org/2000/svg" viewBox="0 0 32 32" shape-rendering="crispEdges"><path fill="#b13e53" d="M16,5h1v1h-1zM12,6h9v1h-9zM10,7h13v1h-13zM9,8h7v1h-7zM17,8h7v1h-7zM8,9h5v1h-5zM20,9h5v1h-5zM7,10h3v1h-3zM22,10h4v1h-4zM6,11h4v1h-4zM23,11h4v1h-4zM6,12h4v1h-4zM23,12h4v1h-4zM5,13h5v1h-5zM23,13h5v1h-5zM5,14h4v1h-4zM24,14h4v1h-4zM5,15h5v1h-5zM16,15h1v1h-1zM23,15h5v1h-5zM5,16h5v1h-5zM23,16h5v1h-5zM5,17h5v1h-5zM14,17h1v1h-1zM18,17h1v1h-1zM23,17h5v1h-5zM4,18h5v1h-5zM15,18h3v1h-3zM24,18h5v1h-5zM5,19h8v1h-8zM20,19h8v1h-8zM5,20h11v1h-11zM17,20h11v1h-11zM5,21h10v1h-10zM18,21h10v1h-10zM5,22h9v1h-9zM19,22h9v1h-9zM5,23h9v1h-9zM19,23h9v1h-9zM6,24h8v1h-8zM19,24h8v1h-8zM6,25h9v1h-9zM18,25h9v1h-9zM7,26h19v1h-19zM8,27h17v1h-17zM9,28h15v1h-15zM10,29h13v1h-13zM12,30h9v1h-9zM16,31h1v1h-1z"/><path fill="#ffecd2" d="M16,8h1v1h-1zM13,9h7v1h-7zM15,10h2v1h-2zM11,11h1v1h-1zM13,11h1v1h-1zM15,11h2v1h-2zM18,11h2v1h-2zM22,11h1v1h-1zM10,12h1v1h-1zM14,12h5v1h-5zM22,12h1v1h-1zM15,13h3v1h-3zM14,14h5v1h-5zM10,15h2v1h-2zM13,15h3v1h-3zM17,15h3v1h-3zM21,15h2v1h-2zM10,16h1v1h-1zM12,16h9v1h-9zM22,16h1v1h-1zM11,17h3v1h-3zM15,17h3v1h-3zM19,17h3v1h-3zM11,18h4v1h-4zM18,18h4v1h-4zM13,19h7v1h-7zM16,20h1v1h-1z"/><path fill="#ffcd75" d="M10,10h5v1h-5zM17,10h5v1h-5zM10,11h1v1h-1zM14,11h1v1h-1zM17,11h1v1h-1zM21,11h1v1h-1zM11,16h1v1h-1zM21,16h1v1h-1zM10,17h1v1h-1zM22,17h1v1h-1zM9,18h2v1h-2zM22,18h2v1h-2zM15,21h3v1h-3zM14,22h5v1h-5zM14,23h5v1h-5zM14,24h5v1h-5zM15,25h3v1h-3z"/><path fill="#f4f4f4" d="M12,11h1v1h-1zM20,11h1v1h-1zM11,12h1v1h-1zM13,12h1v1h-1zM19,12h3v1h-3zM10,13h1v1h-1zM14,13h1v1h-1zM18,13h5v1h-5zM11,14h1v1h-1zM13,14h1v1h-1zM19,14h3v1h-3zM12,15h1v1h-1zM20,15h1v1h-1z"/><path fill="#1a1c2c" d="M12,12h1v1h-1zM11,13h3v1h-3zM12,14h1v1h-1z"/><path fill="#ff9eb7" d="M9,14h2v1h-2zM22,14h2v1h-2z"/></svg>