<svg xmlns="http://www.w3.org/2000/svg" width="32" height="32" viewBox="0 0 32 32" shape-rendering="crispEdges">
<path fill="#f4f4f4" d="M15 5h2v1h-2zM15 6h2v1h-2zM15 7h2v1h-2zM9 8h1v1h-1zM14 8h4v1h-4zM22 8h1v1h-1zM13 9h6v1h-6zM10 11h2v1h-2zM15 11h2v1h-2zM20 11h2v1h-2zM10 14h1v1h-1zM21 14h1v1h-1z"/>
<path fill="#73eff7" d="M13 10h6v1h-6zM13 11h2v1h-2zM17 11h2v1h-2zM13 12h6v1h-6zM13 13h6v1h-6zM14 16h1v1h-1zM16 16h2v1h-2z"/>
<path fill="#41a6f6" d="M12 11h1v1h-1zM19 11h1v1h-1zM12 12h1v1h-1zM19 12h1v1h-1zM12 13h1v1h-1zM19 13h1v1h-1zM13 14h6v1h-6zM14 15h4v1h-4zM15 16h1v1h-1z"/>
<path fill="#ef7d57" d="M12 16h1v1h-1zM19 16h1v1h-1zM18 18h1v1h-1zM19 19h1v1h-1zM11 20h1v1h-1zM10 21h1v1h-1zM20 21h2v1h-2zM10 22h1v1h-1zM20 22h2v1h-2zM20 23h1v1h-1zM20 24h1v1h-1zM10 25h1v1h-1zM21 25h1v1h-1zM11 26h10v1h-10zM12 28h8v1h-8z"/>
<path fill="#ffcd75" d="M13 17h1v1h-1zM18 17h1v1h-1zM13 18h1v1h-1zM12 19h1v1h-1zM20 20h1v1h-1zM11 21h1v1h-1zM11 22h1v1h-1zM10 23h2v1h-2zM21 23h1v1h-1zM10 24h2v1h-2zM21 24h1v1h-1zM12 25h8v1h-8zM11 27h10v1h-10z"/>
</svg>