<svg xmlns="http://www.w3.org/2000/svg" viewBox="0 0 32 32" shape-rendering="crispEdges"><path fill="#f4f4f4" d="M16,2h1v1h-1ZM14,3h5v1h-5ZM16,4h1v1h-1ZM12,5h8v1h-8ZM12,6h2v1h-2ZM18,6h2v1h-2ZM16,7h1v1h-1ZM16,8h1v1h-1ZM16,9h1v1h-1ZM16,10h1v1h-1ZM16,11h1v1h-1ZM10,12h1v1h-1ZM22,12h1v1h-1ZM11,13h1v1h-1ZM21,13h1v1h-1ZM11,14h1v1h-1ZM21,14h1v1h-1ZM12,15h1v1h-1ZM20,15h1v1h-1ZM13,16h1v1h-1ZM19,16h1v1h-1ZM14,17h1v1h-1ZM18,17h1v1h-1ZM14,18h1v1h-1ZM18,18h1v1h-1ZM15,19h1v1h-1ZM17,19h1v1h-1ZM16,20h1v1h-1Z"/><path fill="#73eff7" d="M14,6h4v1h-4ZM15,7h1v1h-1ZM15,8h1v1h-1ZM15,9h1v1h-1ZM15,10h1v1h-1ZM15,11h1v1h-1Z"/><path fill="#94b0c2" d="M10,7h5v1h-5ZM17,7h5v1h-5ZM9,8h6v1h-6ZM17,8h6v1h-6ZM8,9h7v1h-7ZM17,9h7v1h-7ZM7,10h8v1h-8ZM17,10h8v1h-8ZM6,11h9v1h-9ZM17,11h9v1h-9ZM5,12h5v1h-5ZM11,12h11v1h-11ZM23,12h5v1h-5ZM6,13h1v1h-1ZM15,13h2v1h-2ZM26,13h1v1h-1ZM7,14h1v1h-1ZM15,14h2v1h-2ZM25,14h1v1h-1ZM7,15h1v1h-1ZM15,15h2v1h-2ZM25,15h1v1h-1ZM8,16h1v1h-1ZM15,16h2v1h-2ZM24,16h1v1h-1ZM9,17h1v1h-1ZM15,17h2v1h-2ZM23,17h1v1h-1ZM10,18h1v1h-1ZM15,18h2v1h-2ZM22,18h1v1h-1ZM10,19h1v1h-1ZM16,19h1v1h-1ZM22,19h1v1h-1ZM11,20h1v1h-1ZM15,20h1v1h-1ZM21,20h1v1h-1ZM12,21h1v1h-1ZM15,21h2v1h-2ZM20,21h1v1h-1ZM13,22h1v1h-1ZM15,22h2v1h-2ZM19,22h1v1h-1ZM14,23h3v1h-3ZM18,23h1v1h-1ZM14,24h3v1h-3ZM18,24h1v1h-1ZM15,25h3v1h-3ZM16,26h1v1h-1Z"/><path fill="#b13e53" d="M4,10h1v1h-1Z"/><path fill="#3b5dc9" d="M28,10h1v1h-1Z"/><path fill="#ef7d57" d="M3,11h1v1h-1Z"/><path fill="#41a6f6" d="M29,11h1v1h-1Z"/><path fill="#a7f070" d="M3,13h1v1h-1Z"/><path fill="#566c86" d="M5,13h1v1h-1ZM7,13h4v1h-4ZM12,13h3v1h-3ZM17,13h4v1h-4ZM22,13h4v1h-4ZM6,14h1v1h-1ZM8,14h3v1h-3ZM12,14h3v1h-3ZM17,14h4v1h-4ZM22,14h3v1h-3ZM8,15h4v1h-4ZM13,15h2v1h-2ZM17,15h3v1h-3ZM21,15h4v1h-4ZM7,16h1v1h-1ZM9,16h4v1h-4ZM14,16h1v1h-1ZM17,16h2v1h-2ZM20,16h4v1h-4ZM8,17h1v1h-1ZM10,17h4v1h-4ZM17,17h1v1h-1ZM19,17h4v1h-4ZM9,18h1v1h-1ZM11,18h3v1h-3ZM17,18h1v1h-1ZM19,18h3v1h-3ZM11,19h4v1h-4ZM18,19h4v1h-4ZM10,20h1v1h-1ZM12,20h3v1h-3ZM17,20h4v1h-4ZM11,21h1v1h-1ZM13,21h2v1h-2ZM17,21h3v1h-3ZM12,22h1v1h-1ZM14,22h1v1h-1ZM17,22h2v1h-2ZM13,23h1v1h-1ZM17,23h1v1h-1ZM17,24h1v1h-1ZM14,25h1v1h-1ZM15,26h1v1h-1Z"/><path fill="#5d275d" d="M29,13h1v1h-1Z"/><path fill="#ffcd75" d="M5,14h1v1h-1Z"/><path fill="#38b764" d="M27,14h1v1h-1Z"/></svg>