<svg xmlns="http://www.w3.org/2000/svg" viewBox="0 0 32 32" shape-rendering="crispEdges"><path fill="#333c57" d="M10,3h16v1h-16zM9,4h1v1h-1zM18,4h2v1h-2zM26,4h1v1h-1zM8,5h1v1h-1zM25,5h1v1h-1zM7,6h1v1h-1zM13,6h2v1h-2zM24,6h2v1h-2zM6,7h1v1h-1zM25,7h1v1h-1zM5,8h1v1h-1zM8,8h2v1h-2zM25,8h1v1h-1zM4,9h1v1h-1zM25,9h1v1h-1zM3,10h17v1h-17zM25,10h1v1h-1zM4,11h1v1h-1zM19,11h1v1h-1zM25,11h1v1h-1zM4,12h1v1h-1zM19,12h1v1h-1zM25,12h1v1h-1zM4,13h1v1h-1zM19,13h1v1h-1zM25,13h1v1h-1zM4,14h1v1h-1zM19,14h1v1h-1zM25,14h1v1h-1zM4,15h1v1h-1zM19,15h1v1h-1zM25,15h1v1h-1zM4,16h1v1h-1zM19,16h1v1h-1zM25,16h1v1h-1zM4,17h1v1h-1zM19,17h1v1h-1zM25,17h1v1h-1zM4,18h1v1h-1zM19,18h1v1h-1zM25,18h1v1h-1zM4,19h1v1h-1zM19,19h1v1h-1zM25,19h1v1h-1zM4,20h1v1h-1zM19,20h1v1h-1zM25,20h1v1h-1zM4,21h1v1h-1zM19,21h1v1h-1zM24,21h2v1h-2zM4,22h1v1h-1zM19,22h1v1h-1zM23,22h1v1h-1zM4,23h1v1h-1zM19,23h1v1h-1zM22,23h1v1h-1zM4,24h1v1h-1zM19,24h1v1h-1zM21,24h1v1h-1zM4,25h22v1h-22z"/><path fill="#f4f4f4" d="M10,4h8v1h-8zM21,4h5v1h-5zM9,5h11v1h-11zM22,5h3v1h-3zM8,6h5v1h-5zM15,6h5v1h-5zM23,6h1v1h-1zM7,7h13v1h-13zM6,8h2v1h-2zM10,8h10v1h-10zM5,9h15v1h-15zM9,15h1v1h-1zM14,15h1v1h-1z"/><path fill="#566c86" d="M20,4h1v1h-1zM20,5h2v1h-2zM20,6h3v1h-3zM20,7h4v1h-4zM20,8h1v1h-1zM23,8h2v1h-2zM20,9h5v1h-5zM20,10h5v1h-5zM20,11h5v1h-5zM20,12h5v1h-5zM20,13h5v1h-5zM20,14h5v1h-5zM20,15h5v1h-5zM20,16h5v1h-5zM20,17h3v1h-3zM20,18h5v1h-5zM20,19h5v1h-5zM21,20h4v1h-4zM22,21h2v1h-2zM24,22h2v1h-2zM24,23h2v1h-2zM25,24h1v1h-1z"/><path fill="#1a1c2c" d="M21,8h2v1h-2zM7,13h2v1h-2zM15,13h2v1h-2zM7,14h2v1h-2zM15,14h2v1h-2zM9,16h1v1h-1zM14,16h1v1h-1zM23,17h2v1h-2zM10,18h1v1h-1zM12,18h1v1h-1zM10,19h3v1h-3zM7,21h2v1h-2zM15,21h2v1h-2zM7,22h2v1h-2zM15,22h2v1h-2z"/><path fill="#94b0c2" d="M5,11h14v1h-14zM5,12h14v1h-14zM5,13h2v1h-2zM9,13h6v1h-6zM17,13h2v1h-2zM5,14h2v1h-2zM9,14h6v1h-6zM17,14h2v1h-2zM5,15h4v1h-4zM10,15h4v1h-4zM15,15h4v1h-4zM5,16h4v1h-4zM10,16h4v1h-4zM15,16h4v1h-4zM5,17h3v1h-3zM9,17h6v1h-6zM16,17h3v1h-3zM5,18h5v1h-5zM11,18h1v1h-1zM13,18h6v1h-6zM5,19h5v1h-5zM13,19h6v1h-6zM5,20h14v1h-14zM5,21h2v1h-2zM9,21h6v1h-6zM17,21h2v1h-2zM5,22h2v1h-2zM9,22h6v1h-6zM17,22h2v1h-2zM5,23h14v1h-14zM5,24h14v1h-14z"/><path fill="#ffcd75" d="M1,12h1v1h-1zM0,13h1v1h-1zM2,13h1v1h-1zM1,14h1v1h-1zM28,20h1v1h-1zM27,21h1v1h-1zM29,21h1v1h-1zM28,22h1v1h-1z"/><path fill="#ff9eb7" d="M8,17h1v1h-1zM15,17h1v1h-1z"/></svg>