<svg xmlns="http://www.w3.org/2000/svg" viewBox="0 0 32 32" shape-rendering="crispEdges"><path fill="#a7f070" d="M16,5h1v1h-1ZM14,6h1v1h-1ZM18,6h1v1h-1ZM20,11h2v1h-2ZM11,12h2v1h-2ZM20,12h2v1h-2ZM10,13h3v1h-3ZM14,13h2v1h-2ZM17,13h1v1h-1ZM22,13h1v1h-1ZM9,14h2v1h-2ZM13,14h1v1h-1ZM15,14h2v1h-2ZM18,14h2v1h-2ZM22,14h2v1h-2ZM9,15h1v1h-1ZM12,15h9v1h-9ZM23,15h1v1h-1ZM9,16h1v1h-1ZM12,16h9v1h-9ZM23,16h1v1h-1ZM9,17h1v1h-1ZM12,17h9v1h-9ZM23,17h1v1h-1ZM8,18h2v1h-2ZM12,18h9v1h-9ZM23,18h2v1h-2ZM9,19h1v1h-1ZM11,19h11v1h-11ZM23,19h1v1h-1ZM9,20h1v1h-1ZM12,20h9v1h-9ZM23,20h1v1h-1ZM9,21h1v1h-1ZM12,21h9v1h-9ZM23,21h1v1h-1ZM9,22h1v1h-1ZM12,22h9v1h-9ZM23,22h1v1h-1ZM12,23h9v1h-9ZM10,24h1v1h-1ZM13,24h7v1h-7ZM22,24h1v1h-1ZM14,25h5v1h-5ZM25,26h1v1h-1ZM6,27h1v1h-1ZM24,27h1v1h-1ZM7,28h1v1h-1ZM16,28h1v1h-1ZM27,28h1v1h-1Z"/><path fill="#38b764" d="M13,7h6v1h-6ZM12,8h8v1h-8ZM12,9h2v1h-2ZM16,9h2v1h-2ZM12,10h1v1h-1ZM15,10h4v1h-4ZM13,11h3v1h-3ZM18,11h1v1h-1ZM19,13h1v1h-1ZM21,13h1v1h-1ZM11,14h1v1h-1ZM20,14h1v1h-1ZM10,15h2v1h-2ZM21,15h2v1h-2ZM10,16h2v1h-2ZM21,16h2v1h-2ZM10,17h2v1h-2ZM21,17h2v1h-2ZM10,18h2v1h-2ZM21,18h2v1h-2ZM10,19h1v1h-1ZM22,19h1v1h-1ZM10,20h2v1h-2ZM21,20h2v1h-2ZM10,21h2v1h-2ZM21,21h2v1h-2ZM10,22h2v1h-2ZM21,22h2v1h-2ZM10,23h2v1h-2ZM21,23h2v1h-2ZM11,24h2v1h-2ZM20,24h2v1h-2ZM11,25h3v1h-3ZM19,25h3v1h-3ZM12,26h9v1h-9ZM13,27h7v1h-7Z"/><path fill="#f4f4f4" d="M14,9h1v1h-1ZM18,9h1v1h-1ZM13,13h1v1h-1ZM16,13h1v1h-1ZM18,13h1v1h-1ZM20,13h1v1h-1ZM12,14h1v1h-1ZM14,14h1v1h-1ZM17,14h1v1h-1ZM21,14h1v1h-1Z"/><path fill="#1a1c2c" d="M15,9h1v1h-1ZM19,9h1v1h-1Z"/><path fill="#ff9eb7" d="M13,10h2v1h-2ZM19,10h2v1h-2Z"/><path fill="#b13e53" d="M16,11h2v1h-2Z"/><path fill="#ffecd2" d="M0,29h32v1h-32ZM0,30h32v1h-32ZM0,31h32v1h-32Z"/></svg>