<svg xmlns="http://www.w3.org/2000/svg" viewBox="0 0 32 32" shape-rendering="crispEdges"><path fill="#41a6f6" d="M14,5h4v1h-4zM12,6h7v1h-7zM10,7h10v1h-10zM9,8h12v1h-12zM6,9h2v1h-2zM21,9h3v1h-3zM22,10h3v1h-3zM23,11h2v1h-2zM10,12h14v1h-14zM11,13h13v1h-13zM13,14h11v1h-11zM15,15h9v1h-9zM17,16h6v1h-6zM19,17h3v1h-3zM8,23h16v1h-16z"/><path fill="#3b5dc9" d="M11,4h1v1h-1zM4,5h1v1h-1zM11,5h2v1h-2zM4,6h3v1h-3zM12,6h2v1h-2zM5,7h4v1h-4zM6,8h1v1h-1zM8,9h13v1h-13zM8,10h14v1h-14zM9,11h14v1h-14zM15,12h2v1h-2zM14,13h1v1h-1z"/><path fill="#f4f4f4" d="M19,7h1v1h-1zM12,10h6v1h-6zM13,11h7v1h-7zM14,12h8v1h-8zM16,13h6v1h-6zM18,14h4v1h-4z"/><path fill="#1a1c2c" d="M19,8h1v1h-1zM22,10h1v1h-1z"/><path fill="#ff9eb7" d="M20,9h1v1h-1z"/><path fill="#73eff7" d="M11,18h1v1h-1zM23,18h1v1h-1zM8,19h1v1h-1zM15,20h1v1h-1zM9,21h1v1h-1zM12,21h1v1h-1zM19,21h1v1h-1zM10,22h13v1h-13z"/></svg>