<svg xmlns="http://www.w3.org/2000/svg" viewBox="0 0 32 32" shape-rendering="crispEdges"><path fill="#ff9eb7" d="M16,6h1v1h-1zM12,7h1v1h-1zM14,7h3v1h-3zM18,7h3v1h-3zM10,8h5v1h-5zM16,8h3v1h-3zM20,8h3v1h-3zM9,9h3v1h-3zM13,9h5v1h-5zM19,9h5v1h-5zM8,10h2v1h-2zM11,10h3v1h-3zM15,10h6v1h-6zM22,10h3v1h-3zM8,11h8v1h-8zM17,11h3v1h-3zM21,11h4v1h-4zM7,12h4v1h-4zM12,12h14v1h-14zM7,13h7v1h-7zM19,13h7v1h-7zM7,14h6v1h-6zM20,14h6v1h-6zM7,15h6v1h-6zM20,15h6v1h-6zM6,16h7v1h-7zM20,16h7v1h-7zM8,17h1v1h-1zM10,17h1v1h-1zM21,17h1v1h-1zM23,17h1v1h-1zM9,18h1v1h-1zM22,18h1v1h-1z"/><path fill="#ffcd75" d="M13,7h1v1h-1zM20,11h1v1h-1z"/><path fill="#b13e53" d="M17,7h1v1h-1zM12,9h1v1h-1zM21,10h1v1h-1zM11,12h1v1h-1zM11,21h2v1h-2zM20,21h2v1h-2z"/><path fill="#73eff7" d="M15,8h1v1h-1zM19,8h1v1h-1zM10,10h1v1h-1z"/><path fill="#a7f070" d="M18,9h1v1h-1zM14,10h1v1h-1zM16,11h1v1h-1z"/><path fill="#ef7d57" d="M7,17h1v1h-1zM9,17h1v1h-1zM11,17h2v1h-2zM20,17h1v1h-1zM22,17h1v1h-1zM24,17h2v1h-2zM7,18h2v1h-2zM10,18h3v1h-3zM20,18h2v1h-2zM23,18h3v1h-3zM7,19h7v1h-7zM19,19h7v1h-7zM7,20h6v1h-6zM15,20h3v1h-3zM20,20h6v1h-6zM8,21h3v1h-3zM13,21h7v1h-7zM22,21h3v1h-3zM8,22h7v1h-7zM17,22h8v1h-8zM9,23h15v1h-15zM10,24h13v1h-13zM12,25h9v1h-9zM16,26h1v1h-1z"/><path fill="#1a1c2c" d="M13,20h2v1h-2zM18,20h2v1h-2zM15,22h2v1h-2z"/></svg>