<svg xmlns="http://www.w3.org/2000/svg" viewBox="0 0 24 24" width="24" height="24">
  <!-- Button base -->
  <rect x="4" y="4" width="16" height="16" fill="#334155"/>
  <rect x="3" y="5" width="1" height="14" fill="#334155"/>
  <rect x="20" y="5" width="1" height="14" fill="#334155"/>
  <rect x="5" y="3" width="14" height="1" fill="#334155"/>
  <rect x="5" y="20" width="14" height="1" fill="#334155"/>
  <!-- Bottom/right shadow -->
  <rect x="4" y="19" width="16" height="1" fill="#1e293b"/>
  <rect x="5" y="20" width="14" height="1" fill="#1e293b"/>
  <rect x="19" y="5" width="1" height="14" fill="#1e293b"/>
  <rect x="20" y="6" width="1" height="13" fill="#1e293b"/>
  <!-- Top/left highlight -->
  <rect x="4" y="4" width="16" height="1" fill="#475569"/>
  <rect x="5" y="3" width="14" height="1" fill="#475569"/>
  <rect x="4" y="5" width="1" height="14" fill="#475569"/>
  <rect x="3" y="6" width="1" height="13" fill="#475569"/>
  <!-- Arrow pointing down -->
  <rect x="11" y="7" width="2" height="1" fill="#94a3b8"/>
  <rect x="11" y="8" width="2" height="1" fill="#94a3b8"/>
  <rect x="11" y="9" width="2" height="1" fill="#94a3b8"/>
  <rect x="11" y="10" width="2" height="1" fill="#94a3b8"/>
  <rect x="11" y="11" width="2" height="1" fill="#94a3b8"/>
  <rect x="11" y="12" width="2" height="1" fill="#94a3b8"/>
  <rect x="8" y="13" width="8" height="1" fill="#94a3b8"/>
  <rect x="9" y="14" width="6" height="1" fill="#94a3b8"/>
  <rect x="10" y="15" width="4" height="1" fill="#94a3b8"/>
  <rect x="11" y="16" width="2" height="1" fill="#94a3b8"/>
</svg>
