<svg xmlns="http://www.w3.org/2000/svg" width="32" height="32" viewBox="0 0 32 32" shape-rendering="crispEdges">
<path fill="#ef7d57" d="M10 3h1v1h-1zM14 3h1v1h-1zM10 4h1v1h-1zM14 4h1v1h-1zM16 8h1v1h-1zM15 9h1v1h-1zM27 12h2v1h-2z"/>
<path fill="#257179" d="M3 5h1v1h-1zM3 6h3v1h-3zM4 7h3v1h-3zM5 8h3v1h-3zM5 9h3v1h-3zM5 10h3v1h-3zM5 11h2v1h-2z"/>
<path fill="#38b764" d="M9 5h7v1h-7zM9 6h1v1h-1zM11 6h2v1h-2zM14 6h2v1h-2zM9 7h1v1h-1zM14 7h2v1h-2zM9 8h2v1h-2zM14 8h1v1h-1zM9 9h2v1h-2zM14 9h1v1h-1zM9 10h7v1h-7zM8 11h9v1h-9zM8 12h2v1h-2zM15 12h2v1h-2zM8 13h2v1h-2zM15 13h2v1h-2zM8 14h2v1h-2zM15 14h2v1h-2zM8 15h2v1h-2zM15 15h2v1h-2zM23 15h4v1h-4zM8 16h2v1h-2zM15 16h2v1h-2zM20 16h4v1h-4zM8 17h2v1h-2zM15 17h6v1h-6zM9 18h3v1h-3zM13 18h3v1h-3zM9 19h3v1h-3zM13 19h3v1h-3zM9 20h3v1h-3zM13 20h3v1h-3zM9 21h3v1h-3zM13 21h4v1h-4z"/>
<path fill="#f4f4f4" d="M10 6h1v1h-1zM13 6h1v1h-1z"/>
<path fill="#1a1c2c" d="M10 7h1v1h-1zM13 7h1v1h-1z"/>
<path fill="#a7f070" d="M11 7h2v1h-2zM12 8h2v1h-2zM11 9h3v1h-3zM27 13h1v1h-1zM25 14h2v1h-2zM8 21h1v1h-1zM12 21h1v1h-1z"/>
<path fill="#ffcd75" d="M16 7h1v1h-1zM15 8h1v1h-1zM10 12h5v1h-5zM10 13h5v1h-5zM10 14h5v1h-5zM10 15h5v1h-5zM10 16h5v1h-5zM10 17h5v1h-5zM8 22h1v1h-1zM11 22h2v1h-2zM16 22h1v1h-1z"/>
<path fill="#333c57" d="M11 8h1v1h-1z"/>
<path fill="#b13e53" d="M17 8h1v1h-1zM16 9h1v1h-1z"/>
</svg>