<svg xmlns="http://www.w3.org/2000/svg" width="32" height="32" viewBox="0 0 32 32" shape-rendering="crispEdges">
<path fill="#ef7d57" d="M8 0h1v1h-1zM23 0h1v1h-1zM9 1h2v1h-2zM21 1h2v1h-2zM27 22h1v1h-1zM27 23h1v1h-1z"/><path fill="#38b764" d="M10 2h12v1h-12zM8 3h16v1h-16zM7 4h18v1h-18zM6 5h20v1h-20zM6 6h20v1h-20zM6 7h3v1h-3zM13 7h6v1h-6zM23 7h3v1h-3zM6 8h3v1h-3zM13 8h6v1h-6zM23 8h3v1h-3zM6 9h3v1h-3zM13 9h6v1h-6zM23 9h3v1h-3zM6 10h3v1h-3zM13 10h6v1h-6zM23 10h3v1h-3zM6 11h20v1h-20zM6 12h1v1h-1zM9 12h4v1h-4zM14 12h4v1h-4zM19 12h5v1h-5zM6 13h1v1h-1zM9 13h15v1h-15zM7 14h6v1h-6zM14 14h4v1h-4zM19 14h6v1h-6zM7 15h7v1h-7zM18 15h7v1h-7zM8 16h16v1h-16zM10 17h12v1h-12zM11 18h10v1h-10zM10 19h3v1h-3zM19 19h3v1h-3zM10 20h3v1h-3zM19 20h3v1h-3zM10 21h3v1h-3zM19 21h3v1h-3zM10 22h3v1h-3zM19 22h3v1h-3zM23 22h2v1h-2zM11 23h10v1h-10zM22 23h1v1h-1zM25 23h2v1h-2zM10 24h3v1h-3zM19 24h3v1h-3zM10 25h3v1h-3zM19 25h3v1h-3z"/><path fill="#f4f4f4" d="M9 7h2v1h-2zM19 7h2v1h-2zM9 8h1v1h-1zM19 8h1v1h-1z"/><path fill="#1a1c2c" d="M11 7h2v1h-2zM21 7h2v1h-2zM10 8h3v1h-3zM20 8h3v1h-3zM9 9h4v1h-4zM19 9h4v1h-4zM9 10h4v1h-4zM19 10h4v1h-4zM13 12h1v1h-1zM18 12h1v1h-1zM13 14h1v1h-1zM18 14h1v1h-1zM14 15h4v1h-4z"/><path fill="#b13e53" d="M7 12h2v1h-2zM24 12h2v1h-2zM7 13h2v1h-2zM24 13h2v1h-2z"/><path fill="#257179" d="M5 18h1v1h-1zM26 18h1v1h-1zM4 19h4v1h-4zM24 19h4v1h-4zM3 20h6v1h-6zM23 20h6v1h-6z"/><path fill="#ffcd75" d="M13 19h6v1h-6zM13 20h6v1h-6zM13 21h6v1h-6zM13 22h6v1h-6zM28 23h1v1h-1z"/><path fill="#a7f070" d="M10 26h3v1h-3zM19 26h3v1h-3z"/>
</svg>