<svg xmlns="http://www.w3.org/2000/svg" viewBox="0 0 32 32" shape-rendering="crispEdges"><path fill="#38b764" d="M13,3h1v1h-1ZM18,3h1v1h-1ZM12,4h2v1h-2ZM18,4h2v1h-2Z"/><path fill="#41a6f6" d="M14,3h4v1h-4ZM14,4h4v1h-4ZM14,5h4v1h-4ZM15,6h2v1h-2ZM15,7h2v1h-2ZM15,8h2v1h-2ZM15,9h2v1h-2ZM15,10h2v1h-2ZM15,27h2v1h-2Z"/><path fill="#94b0c2" d="M8,7h7v1h-7ZM17,7h7v1h-7ZM7,8h5v1h-5ZM13,8h2v1h-2ZM17,8h2v1h-2ZM20,8h5v1h-5ZM6,9h6v1h-6ZM13,9h2v1h-2ZM17,9h2v1h-2ZM20,9h6v1h-6ZM5,10h7v1h-7ZM13,10h2v1h-2ZM17,10h2v1h-2ZM20,10h7v1h-7ZM6,11h6v1h-6ZM13,11h2v1h-2ZM17,11h2v1h-2ZM20,11h6v1h-6ZM7,12h5v1h-5ZM13,12h2v1h-2ZM17,12h2v1h-2ZM20,12h5v1h-5ZM8,13h7v1h-7ZM17,13h7v1h-7Z"/><path fill="#f4f4f4" d="M12,8h1v1h-1ZM19,8h1v1h-1ZM12,9h1v1h-1ZM19,9h1v1h-1ZM12,10h1v1h-1ZM19,10h1v1h-1ZM12,11h1v1h-1ZM19,11h1v1h-1ZM12,12h1v1h-1ZM19,12h1v1h-1ZM13,15h1v1h-1ZM18,15h1v1h-1ZM13,16h1v1h-1ZM18,16h1v1h-1ZM13,17h1v1h-1ZM18,17h1v1h-1ZM13,18h1v1h-1ZM18,18h1v1h-1Z"/><path fill="#3b5dc9" d="M15,11h2v1h-2ZM15,12h2v1h-2ZM15,13h2v1h-2ZM15,14h2v1h-2ZM15,15h2v1h-2ZM15,16h2v1h-2ZM15,17h2v1h-2ZM15,18h2v1h-2ZM15,19h2v1h-2ZM15,20h2v1h-2ZM15,21h2v1h-2ZM15,22h2v1h-2ZM15,23h2v1h-2ZM15,24h2v1h-2ZM15,25h2v1h-2ZM15,26h2v1h-2Z"/><path fill="#73eff7" d="M9,14h6v1h-6ZM17,14h6v1h-6ZM8,15h5v1h-5ZM14,15h1v1h-1ZM17,15h1v1h-1ZM19,15h5v1h-5ZM7,16h6v1h-6ZM14,16h1v1h-1ZM17,16h1v1h-1ZM19,16h6v1h-6ZM8,17h5v1h-5ZM14,17h1v1h-1ZM17,17h1v1h-1ZM19,17h5v1h-5ZM9,18h4v1h-4ZM14,18h1v1h-1ZM17,18h1v1h-1ZM19,18h4v1h-4ZM10,19h5v1h-5ZM17,19h5v1h-5Z"/></svg>