<svg xmlns="http://www.w3.org/2000/svg" viewBox="0 0 32 32" shape-rendering="crispEdges"><path fill="#73eff7" d="M11,1h2v1h-2zM10,2h1v1h-1zM13,2h1v1h-1z"/><path fill="#41a6f6" d="M20,1h2v1h-2zM19,2h1v1h-1zM22,2h1v1h-1z"/><path fill="#8b5e34" d="M8,4h2v1h-2zM8,5h4v1h-4zM10,6h4v1h-4zM12,7h4v1h-4zM14,8h1v1h-1zM17,9h3v1h-3zM18,10h4v1h-4zM20,11h2v1h-2z"/><path fill="#5c3a1e" d="M23,4h2v1h-2zM21,5h4v1h-4zM19,6h4v1h-4zM17,7h4v1h-4zM15,8h4v1h-4zM13,9h4v1h-4zM11,10h4v1h-4zM11,11h2v1h-2z"/><path fill="#f4f4f4" d="M15,10h3v1h-3zM13,11h7v1h-7zM8,12h2v1h-2zM11,12h2v1h-2zM14,12h5v1h-5zM20,12h2v1h-2zM23,12h2v1h-2zM8,13h3v1h-3zM13,13h7v1h-7zM22,13h3v1h-3zM8,14h6v1h-6zM19,14h6v1h-6zM10,15h13v1h-13zM12,16h9v1h-9z"/><path fill="#566c86" d="M8,11h1v1h-1zM24,11h1v1h-1zM7,12h1v1h-1zM25,12h1v1h-1zM7,13h1v1h-1zM25,13h1v1h-1zM7,14h1v1h-1zM25,14h1v1h-1zM8,15h1v1h-1zM24,15h1v1h-1zM11,16h1v1h-1zM21,16h1v1h-1z"/><path fill="#ffecd2" d="M9,11h1v1h-1zM23,11h1v1h-1zM9,15h1v1h-1zM23,15h1v1h-1z"/><path fill="#ffcd75" d="M10,11h1v1h-1zM22,11h1v1h-1zM10,12h1v1h-1zM22,12h1v1h-1zM7,17h18v1h-18zM7,21h18v1h-18z"/><path fill="#1a1c2c" d="M13,12h1v1h-1zM19,12h1v1h-1zM14,14h5v1h-5z"/><path fill="#ff9eb7" d="M11,13h2v1h-2zM20,13h2v1h-2z"/><path fill="#5d275d" d="M7,15h1v1h-1zM7,16h2v1h-2zM23,16h2v1h-2zM7,18h2v1h-2zM23,18h2v1h-2zM7,19h2v1h-2zM23,19h2v1h-2zM7,20h2v1h-2zM23,20h2v1h-2zM7,22h2v1h-2zM23,22h2v1h-2zM7,23h2v1h-2zM23,23h2v1h-2zM7,24h2v1h-2zM23,24h2v1h-2zM7,25h2v1h-2zM23,25h2v1h-2z"/><path fill="#b13e53" d="M9,16h2v1h-2zM22,16h1v1h-1zM9,18h14v1h-14zM9,19h14v1h-14zM9,20h14v1h-14zM9,22h14v1h-14zM9,23h14v1h-14zM9,24h14v1h-14zM9,25h14v1h-14z"/><path fill="#333c57" d="M7,26h18v1h-18z"/></svg>