<svg xmlns="http://www.w3.org/2000/svg" viewBox="0 0 32 32" shape-rendering="crispEdges"><path fill="#ef7d57" d="M19,4h1v1h-1zM25,11h1v1h-1zM25,12h4v1h-4zM25,13h4v1h-4zM26,14h3v1h-3zM13,18h1v1h-1zM11,19h2v1h-2zM14,19h2v1h-2zM10,20h1v1h-1zM16,20h1v1h-1zM9,21h1v1h-1zM17,21h1v1h-1zM10,22h1v1h-1zM16,22h1v1h-1zM11,23h2v1h-2zM14,23h2v1h-2zM13,24h1v1h-1zM10,27h4v1h-4zM17,27h4v1h-4z"/><path fill="#ffcd75" d="M20,4h1v1h-1zM19,5h2v1h-2zM19,6h1v1h-1zM21,6h1v1h-1zM16,7h7v1h-7zM14,8h11v1h-11zM13,9h13v1h-13zM13,10h8v1h-8zM24,10h2v1h-2zM13,11h8v1h-8zM24,11h1v1h-1zM12,12h9v1h-9zM24,12h1v1h-1zM13,13h12v1h-12zM13,14h9v1h-9zM24,14h2v1h-2zM13,15h13v1h-13zM14,16h11v1h-11zM15,17h8v1h-8zM11,18h2v1h-2zM14,18h7v1h-7zM9,19h2v1h-2zM13,19h1v1h-1zM16,19h6v1h-6zM8,20h2v1h-2zM11,20h5v1h-5zM17,20h6v1h-6zM8,21h1v1h-1zM10,21h7v1h-7zM18,21h5v1h-5zM7,22h3v1h-3zM11,22h5v1h-5zM17,22h7v1h-7zM8,23h3v1h-3zM13,23h1v1h-1zM16,23h7v1h-7zM8,24h5v1h-5zM14,24h9v1h-9zM9,25h13v1h-13zM11,26h9v1h-9zM15,27h1v1h-1z"/><path fill="#f4f4f4" d="M21,10h2v1h-2zM2,28h2v1h-2zM7,28h2v1h-2zM12,28h2v1h-2zM17,28h2v1h-2zM22,28h2v1h-2zM27,28h2v1h-2z"/><path fill="#1a1c2c" d="M23,10h1v1h-1zM21,11h3v1h-3zM21,12h3v1h-3z"/><path fill="#ff9eb7" d="M22,14h2v1h-2z"/><path fill="#73eff7" d="M0,28h2v1h-2zM4,28h3v1h-3zM9,28h3v1h-3zM14,28h3v1h-3zM19,28h3v1h-3zM24,28h3v1h-3zM29,28h3v1h-3z"/><path fill="#41a6f6" d="M0,29h32v1h-32zM0,30h32v1h-32zM0,31h32v1h-32z"/></svg>