<svg xmlns="http://www.w3.org/2000/svg" viewBox="0 0 32 32" shape-rendering="crispEdges"><path fill="#f4f4f4" d="M13,4h6v1h-6ZM12,5h8v1h-8ZM11,6h10v1h-10ZM11,7h3v1h-3ZM16,7h1v1h-1ZM19,7h2v1h-2ZM11,8h2v1h-2ZM16,8h1v1h-1ZM20,8h1v1h-1ZM11,9h2v1h-2ZM16,9h1v1h-1ZM20,9h1v1h-1ZM13,10h2v1h-2ZM17,10h3v1h-3ZM12,11h3v1h-3ZM17,11h3v1h-3ZM14,23h4v1h-4Z"/><path fill="#ffcd75" d="M14,7h2v1h-2ZM17,7h2v1h-2ZM13,8h1v1h-1ZM19,8h1v1h-1ZM13,9h1v1h-1ZM19,9h1v1h-1ZM15,10h2v1h-2ZM15,11h2v1h-2ZM15,12h1v1h-1ZM13,24h1v1h-1ZM18,24h1v1h-1ZM13,25h1v1h-1ZM18,25h1v1h-1ZM13,26h1v1h-1ZM18,26h1v1h-1ZM12,27h3v1h-3ZM17,27h3v1h-3Z"/><path fill="#1a1c2c" d="M14,8h2v1h-2ZM17,8h2v1h-2ZM14,9h2v1h-2ZM17,9h2v1h-2Z"/><path fill="#ff9eb7" d="M11,10h2v1h-2ZM20,10h2v1h-2Z"/><path fill="#8b5e34" d="M0,11h2v1h-2ZM30,11h2v1h-2ZM1,12h4v1h-4ZM27,12h4v1h-4ZM1,13h9v1h-9ZM11,13h10v1h-10ZM22,13h9v1h-9ZM3,14h7v1h-7ZM11,14h10v1h-10ZM22,14h7v1h-7ZM3,15h26v1h-26ZM5,16h8v1h-8ZM19,16h8v1h-8ZM5,17h8v1h-8ZM19,17h8v1h-8ZM10,18h3v1h-3ZM19,18h3v1h-3ZM11,19h2v1h-2ZM19,19h2v1h-2ZM11,20h10v1h-10ZM13,21h6v1h-6ZM13,22h6v1h-6Z"/><path fill="#333c57" d="M0,12h1v1h-1ZM31,12h1v1h-1ZM1,14h1v1h-1ZM29,14h1v1h-1ZM3,16h1v1h-1ZM27,16h1v1h-1Z"/><path fill="#ef7d57" d="M14,12h1v1h-1ZM13,16h6v1h-6ZM13,17h6v1h-6ZM13,18h6v1h-6ZM13,19h6v1h-6Z"/></svg>