<svg xmlns="http://www.w3.org/2000/svg" viewBox="0 0 32 32" shape-rendering="crispEdges"><path fill="#29366f" d="M0,0h14v1h-14ZM15,0h17v1h-17ZM0,1h4v1h-4ZM5,1h4v1h-4ZM10,1h16v1h-16ZM27,1h5v1h-5ZM0,2h1v1h-1ZM2,2h30v1h-30ZM0,3h28v1h-28ZM29,3h3v1h-3ZM0,4h13v1h-13ZM19,4h13v1h-13ZM0,5h10v1h-10ZM22,5h10v1h-10ZM0,6h9v1h-9ZM23,6h9v1h-9ZM0,7h8v1h-8ZM24,7h6v1h-6ZM31,7h1v1h-1ZM0,8h7v1h-7ZM25,8h7v1h-7ZM0,9h6v1h-6ZM26,9h6v1h-6ZM0,10h3v1h-3ZM4,10h1v1h-1ZM27,10h5v1h-5ZM0,11h5v1h-5ZM27,11h5v1h-5ZM0,12h5v1h-5ZM27,12h5v1h-5ZM0,13h4v1h-4ZM28,13h4v1h-4ZM0,14h4v1h-4ZM28,14h3v1h-3ZM0,15h4v1h-4ZM28,15h4v1h-4ZM0,16h4v1h-4ZM28,16h4v1h-4ZM0,17h4v1h-4ZM28,17h4v1h-4ZM1,18h3v1h-3ZM28,18h4v1h-4ZM0,19h5v1h-5ZM27,19h5v1h-5ZM0,20h5v1h-5ZM27,20h5v1h-5ZM0,21h5v1h-5ZM27,21h5v1h-5ZM0,22h6v1h-6ZM26,22h6v1h-6ZM0,23h7v1h-7ZM25,23h7v1h-7ZM0,24h8v1h-8ZM24,24h5v1h-5ZM30,24h2v1h-2ZM0,25h9v1h-9ZM23,25h9v1h-9ZM0,26h10v1h-10ZM22,26h10v1h-10ZM0,27h2v1h-2ZM3,27h10v1h-10ZM19,27h12v1h-12ZM0,28h27v1h-27ZM28,28h4v1h-4ZM0,29h32v1h-32ZM0,30h7v1h-7ZM8,30h12v1h-12ZM21,30h11v1h-11ZM0,31h16v1h-16ZM17,31h7v1h-7ZM25,31h7v1h-7Z"/><path fill="#f4f4f4" d="M14,0h1v1h-1ZM4,1h1v1h-1ZM9,1h1v1h-1ZM26,1h1v1h-1ZM1,2h1v1h-1ZM28,3h1v1h-1ZM13,5h6v1h-6ZM10,6h10v1h-10ZM9,7h1v1h-1ZM30,7h1v1h-1ZM7,8h4v1h-4ZM8,9h1v1h-1ZM3,10h1v1h-1ZM31,14h1v1h-1ZM0,18h1v1h-1ZM20,19h4v1h-4ZM12,22h4v1h-4ZM29,24h1v1h-1ZM13,25h6v1h-6ZM13,26h6v1h-6ZM2,27h1v1h-1ZM31,27h1v1h-1ZM27,28h1v1h-1ZM7,30h1v1h-1ZM20,30h1v1h-1ZM16,31h1v1h-1ZM24,31h1v1h-1Z"/><path fill="#3b5dc9" d="M13,4h6v1h-6ZM10,5h3v1h-3ZM19,5h3v1h-3ZM9,6h1v1h-1ZM22,6h1v1h-1ZM8,7h1v1h-1ZM23,7h1v1h-1ZM24,8h1v1h-1ZM6,9h1v1h-1ZM25,9h1v1h-1ZM5,10h1v1h-1ZM22,10h1v1h-1ZM26,10h1v1h-1ZM5,11h1v1h-1ZM22,11h1v1h-1ZM26,11h1v1h-1ZM5,12h1v1h-1ZM22,12h2v1h-2ZM26,12h1v1h-1ZM4,13h1v1h-1ZM22,13h1v1h-1ZM27,13h1v1h-1ZM4,14h1v1h-1ZM21,14h2v1h-2ZM27,14h1v1h-1ZM4,15h1v1h-1ZM13,15h2v1h-2ZM27,15h1v1h-1ZM4,16h1v1h-1ZM9,16h1v1h-1ZM13,16h3v1h-3ZM27,16h1v1h-1ZM4,17h1v1h-1ZM9,17h2v1h-2ZM13,17h3v1h-3ZM27,17h1v1h-1ZM4,18h1v1h-1ZM8,18h3v1h-3ZM13,18h4v1h-4ZM27,18h1v1h-1ZM5,19h1v1h-1ZM9,19h2v1h-2ZM13,19h3v1h-3ZM26,19h1v1h-1ZM5,20h1v1h-1ZM9,20h7v1h-7ZM26,20h1v1h-1ZM5,21h1v1h-1ZM10,21h5v1h-5ZM26,21h1v1h-1ZM6,22h1v1h-1ZM25,22h1v1h-1ZM7,23h1v1h-1ZM24,23h1v1h-1ZM8,24h1v1h-1ZM23,24h1v1h-1ZM9,25h1v1h-1ZM22,25h1v1h-1ZM10,26h3v1h-3ZM19,26h3v1h-3ZM13,27h6v1h-6Z"/><path fill="#41a6f6" d="M20,6h2v1h-2ZM10,7h13v1h-13ZM11,8h13v1h-13ZM7,9h1v1h-1ZM13,9h4v1h-4ZM22,9h3v1h-3ZM6,10h3v1h-3ZM13,10h4v1h-4ZM23,10h3v1h-3ZM6,11h2v1h-2ZM13,11h3v1h-3ZM23,11h3v1h-3ZM6,12h2v1h-2ZM11,12h5v1h-5ZM24,12h2v1h-2ZM5,13h5v1h-5ZM13,13h3v1h-3ZM23,13h4v1h-4ZM5,14h5v1h-5ZM13,14h5v1h-5ZM23,14h4v1h-4ZM5,15h5v1h-5ZM15,15h3v1h-3ZM21,15h6v1h-6ZM5,16h4v1h-4ZM16,16h3v1h-3ZM22,16h5v1h-5ZM5,17h4v1h-4ZM16,17h3v1h-3ZM22,17h5v1h-5ZM5,18h3v1h-3ZM17,18h2v1h-2ZM22,18h5v1h-5ZM6,19h3v1h-3ZM16,19h3v1h-3ZM24,19h2v1h-2ZM6,20h3v1h-3ZM16,20h4v1h-4ZM22,20h4v1h-4ZM6,21h4v1h-4ZM15,21h5v1h-5ZM22,21h4v1h-4ZM7,22h5v1h-5ZM16,22h9v1h-9ZM8,23h16v1h-16ZM9,24h14v1h-14ZM10,25h3v1h-3ZM19,25h3v1h-3Z"/><path fill="#38b764" d="M9,9h4v1h-4ZM17,9h5v1h-5ZM10,10h1v1h-1ZM12,10h1v1h-1ZM17,10h1v1h-1ZM19,10h3v1h-3ZM8,11h5v1h-5ZM16,11h6v1h-6ZM8,12h3v1h-3ZM16,12h1v1h-1ZM18,12h2v1h-2ZM21,12h1v1h-1ZM10,13h3v1h-3ZM16,13h6v1h-6ZM10,14h1v1h-1ZM12,14h1v1h-1ZM18,14h3v1h-3ZM10,15h2v1h-2ZM18,15h3v1h-3ZM10,16h3v1h-3ZM19,16h3v1h-3ZM11,17h2v1h-2ZM19,17h1v1h-1ZM21,17h1v1h-1ZM11,18h2v1h-2ZM19,18h3v1h-3ZM11,19h2v1h-2ZM19,19h1v1h-1ZM20,20h2v1h-2ZM20,21h2v1h-2Z"/><path fill="#a7f070" d="M9,10h1v1h-1ZM11,10h1v1h-1ZM18,10h1v1h-1ZM17,12h1v1h-1ZM20,12h1v1h-1ZM11,14h1v1h-1ZM12,15h1v1h-1ZM20,17h1v1h-1Z"/></svg>