<svg xmlns="http://www.w3.org/2000/svg" width="32" height="32" viewBox="0 0 32 32" shape-rendering="crispEdges">
<path fill="#f4f4f4" d="M13 5h6v1h-6zM11 6h10v1h-10zM10 7h12v1h-12zM4 8h3v1h-3zM9 8h1v1h-1zM22 8h1v1h-1zM25 8h3v1h-3zM4 9h1v1h-1zM6 9h1v1h-1zM8 9h1v1h-1zM23 9h1v1h-1zM25 9h1v1h-1zM27 9h1v1h-1zM4 10h1v1h-1zM6 10h1v1h-1zM8 10h3v1h-3zM12 10h2v1h-2zM15 10h2v1h-2zM18 10h2v1h-2zM21 10h3v1h-3zM25 10h1v1h-1zM27 10h1v1h-1zM4 11h1v1h-1zM6 11h1v1h-1zM8 11h16v1h-16zM25 11h1v1h-1zM27 11h1v1h-1zM4 12h1v1h-1zM6 12h1v1h-1zM25 12h1v1h-1zM27 12h1v1h-1zM4 13h1v1h-1zM6 13h1v1h-1zM25 13h1v1h-1zM27 13h1v1h-1zM4 14h1v1h-1zM6 14h1v1h-1zM8 14h2v1h-2zM11 14h2v1h-2zM14 14h2v1h-2zM17 14h2v1h-2zM20 14h4v1h-4zM25 14h1v1h-1zM27 14h1v1h-1zM4 15h3v1h-3zM8 15h16v1h-16zM25 15h3v1h-3zM8 16h1v1h-1zM23 16h1v1h-1zM8 17h1v1h-1zM23 17h1v1h-1zM8 18h3v1h-3zM12 18h2v1h-2zM15 18h2v1h-2zM18 18h2v1h-2zM21 18h3v1h-3zM9 19h14v1h-14zM12 22h8v1h-8zM13 23h6v1h-6z"/><path fill="#b13e53" d="M10 8h12v1h-12zM9 9h14v1h-14z"/><path fill="#ff9eb7" d="M5 9h1v1h-1zM26 9h1v1h-1zM5 10h1v1h-1zM26 10h1v1h-1zM5 11h1v1h-1zM26 11h1v1h-1zM5 12h1v1h-1zM26 12h1v1h-1zM5 13h1v1h-1zM26 13h1v1h-1zM5 14h1v1h-1zM26 14h1v1h-1zM4 21h1v1h-1zM6 21h1v1h-1zM5 22h1v1h-1zM25 22h1v1h-1zM27 22h1v1h-1zM26 23h1v1h-1z"/><path fill="#ffcd75" d="M11 10h1v1h-1zM14 10h1v1h-1zM17 10h1v1h-1zM20 10h1v1h-1zM5 20h1v1h-1zM5 21h1v1h-1zM26 21h1v1h-1zM26 22h1v1h-1z"/><path fill="#3b5dc9" d="M8 12h16v1h-16zM8 13h16v1h-16z"/><path fill="#ef7d57" d="M10 14h1v1h-1zM13 14h1v1h-1zM16 14h1v1h-1zM19 14h1v1h-1z"/><path fill="#38b764" d="M9 16h14v1h-14zM9 17h14v1h-14z"/><path fill="#73eff7" d="M11 18h1v1h-1zM14 18h1v1h-1zM17 18h1v1h-1zM20 18h1v1h-1z"/><path fill="#5d275d" d="M10 20h12v1h-12zM11 21h10v1h-10z"/>
</svg>