<svg xmlns="http://www.w3.org/2000/svg" viewBox="0 0 32 32" shape-rendering="crispEdges"><path fill="#f4f4f4" d="M10,4h8v1h-8ZM7,5h14v1h-14ZM5,6h18v1h-18ZM4,7h20v1h-20ZM3,8h9v1h-9ZM18,8h7v1h-7ZM3,9h7v1h-7ZM11,9h2v1h-2ZM20,9h5v1h-5ZM2,10h7v1h-7ZM21,10h5v1h-5ZM1,11h8v1h-8ZM21,11h5v1h-5ZM1,12h8v1h-8ZM21,12h5v1h-5ZM2,13h7v1h-7ZM21,13h4v1h-4ZM3,14h7v1h-7ZM20,14h5v1h-5ZM4,15h8v1h-8ZM18,15h6v1h-6ZM5,16h18v1h-18ZM6,17h16v1h-16ZM5,18h17v1h-17ZM10,19h8v1h-8Z"/><path fill="#ffcd75" d="M12,8h6v1h-6ZM10,9h1v1h-1ZM13,9h7v1h-7ZM9,10h12v1h-12ZM9,11h3v1h-3ZM14,11h2v1h-2ZM18,11h3v1h-3ZM9,12h1v1h-1ZM11,12h8v1h-8ZM20,12h1v1h-1ZM9,13h1v1h-1ZM11,13h3v1h-3ZM16,13h3v1h-3ZM20,13h1v1h-1ZM10,14h3v1h-3ZM14,14h2v1h-2ZM17,14h3v1h-3ZM12,15h6v1h-6Z"/><path fill="#1a1c2c" d="M12,11h2v1h-2ZM16,11h2v1h-2ZM14,13h2v1h-2ZM13,14h1v1h-1ZM16,14h1v1h-1Z"/><path fill="#ff9eb7" d="M10,12h1v1h-1ZM19,12h1v1h-1ZM10,13h1v1h-1ZM19,13h1v1h-1Z"/><path fill="#b13e53" d="M25,13h3v1h-3ZM25,15h3v1h-3ZM26,17h3v1h-3ZM25,19h3v1h-3ZM25,21h3v1h-3ZM26,23h3v1h-3Z"/><path fill="#8b5e34" d="M25,14h4v1h-4ZM26,16h3v1h-3ZM25,20h4v1h-4ZM26,22h3v1h-3Z"/></svg>