<svg xmlns="http://www.w3.org/2000/svg" viewBox="0 0 32 32" shape-rendering="crispEdges"><path fill="#f4f4f4" d="M6,5h1v1h-1zM25,5h1v1h-1zM5,6h1v1h-1zM7,6h1v1h-1zM14,6h4v1h-4zM24,6h1v1h-1zM26,6h1v1h-1zM6,7h1v1h-1zM14,7h2v1h-2zM25,7h1v1h-1zM5,8h1v1h-1zM26,9h1v1h-1zM4,15h1v1h-1zM15,15h2v1h-2zM27,16h1v1h-1zM7,22h1v1h-1zM24,23h1v1h-1z"/><path fill="#a7f070" d="M13,6h1v1h-1zM18,6h1v1h-1zM13,7h1v1h-1zM16,7h3v1h-3zM15,8h2v1h-2zM15,10h2v1h-2zM13,13h6v1h-6zM13,14h2v1h-2zM17,14h2v1h-2zM13,15h2v1h-2zM17,15h2v1h-2zM13,16h6v1h-6zM13,17h6v1h-6z"/><path fill="#38b764" d="M10,8h5v1h-5zM17,8h5v1h-5zM11,9h10v1h-10zM9,10h2v1h-2zM12,10h3v1h-3zM17,10h3v1h-3zM21,10h2v1h-2zM9,11h1v1h-1zM11,11h10v1h-10zM22,11h1v1h-1zM9,12h14v1h-14zM9,13h4v1h-4zM19,13h4v1h-4zM9,14h4v1h-4zM19,14h4v1h-4zM9,15h4v1h-4zM19,15h4v1h-4zM9,16h4v1h-4zM19,16h4v1h-4zM9,17h4v1h-4zM19,17h4v1h-4z"/><path fill="#257179" d="M11,10h1v1h-1zM20,10h1v1h-1zM10,11h1v1h-1zM21,11h1v1h-1zM9,18h1v1h-1zM11,18h10v1h-10zM22,18h1v1h-1zM9,19h14v1h-14zM9,20h14v1h-14zM10,21h1v1h-1zM12,21h8v1h-8zM21,21h1v1h-1zM10,22h12v1h-12zM11,23h10v1h-10zM12,24h8v1h-8zM13,25h6v1h-6z"/><path fill="#ffcd75" d="M15,14h2v1h-2z"/><path fill="#333c57" d="M10,18h1v1h-1zM21,18h1v1h-1zM11,21h1v1h-1zM20,21h1v1h-1z"/></svg>