<svg xmlns="http://www.w3.org/2000/svg" viewBox="0 0 32 32" shape-rendering="crispEdges"><path fill="#b13e53" d="M13,0h2v1h-2ZM13,1h2v1h-2ZM13,2h2v1h-2ZM13,4h2v1h-2ZM15,21h2v1h-2ZM14,22h4v1h-4ZM15,23h2v1h-2Z"/><path fill="#ffcd75" d="M22,1h1v1h-1ZM12,2h1v1h-1ZM15,2h5v1h-5ZM21,2h3v1h-3ZM10,3h15v1h-15ZM8,4h5v1h-5ZM15,4h9v1h-9ZM7,5h18v1h-18ZM6,6h20v1h-20ZM5,7h22v1h-22ZM4,8h24v1h-24ZM4,9h24v1h-24ZM3,10h6v1h-6ZM12,10h8v1h-8ZM23,10h6v1h-6ZM3,11h5v1h-5ZM13,11h6v1h-6ZM24,11h5v1h-5ZM2,12h5v1h-5ZM14,12h4v1h-4ZM25,12h5v1h-5ZM2,13h5v1h-5ZM14,13h4v1h-4ZM25,13h5v1h-5ZM2,14h5v1h-5ZM14,14h4v1h-4ZM25,14h5v1h-5ZM2,15h6v1h-6ZM13,15h6v1h-6ZM24,15h6v1h-6ZM2,16h4v1h-4ZM7,16h2v1h-2ZM12,16h8v1h-8ZM23,16h2v1h-2ZM26,16h4v1h-4ZM2,17h3v1h-3ZM8,17h16v1h-16ZM27,17h3v1h-3ZM2,18h2v1h-2ZM9,18h14v1h-14ZM28,18h2v1h-2ZM2,19h3v1h-3ZM8,19h16v1h-16ZM27,19h3v1h-3ZM3,20h3v1h-3ZM7,20h7v1h-7ZM18,20h7v1h-7ZM26,20h3v1h-3ZM3,21h10v1h-10ZM19,21h10v1h-10ZM4,22h9v1h-9ZM19,22h9v1h-9ZM4,23h9v1h-9ZM19,23h9v1h-9ZM5,24h9v1h-9ZM18,24h9v1h-9ZM6,25h20v1h-20ZM7,26h18v1h-18ZM8,27h16v1h-16ZM10,28h12v1h-12ZM12,29h8v1h-8Z"/><path fill="#f4f4f4" d="M9,10h3v1h-3ZM20,10h3v1h-3ZM8,11h5v1h-5ZM19,11h5v1h-5ZM7,12h3v1h-3ZM12,12h2v1h-2ZM18,12h3v1h-3ZM23,12h2v1h-2ZM7,13h2v1h-2ZM12,13h2v1h-2ZM18,13h2v1h-2ZM23,13h2v1h-2ZM7,14h2v1h-2ZM12,14h2v1h-2ZM18,14h2v1h-2ZM23,14h2v1h-2ZM8,15h5v1h-5ZM19,15h5v1h-5ZM9,16h3v1h-3ZM20,16h3v1h-3Z"/><path fill="#1a1c2c" d="M10,12h2v1h-2ZM21,12h2v1h-2ZM9,13h3v1h-3ZM20,13h3v1h-3ZM9,14h3v1h-3ZM20,14h3v1h-3ZM14,20h4v1h-4ZM13,21h2v1h-2ZM17,21h2v1h-2ZM13,22h1v1h-1ZM18,22h1v1h-1ZM13,23h2v1h-2ZM17,23h2v1h-2ZM14,24h4v1h-4Z"/><path fill="#ff9eb7" d="M6,16h1v1h-1ZM25,16h1v1h-1ZM5,17h3v1h-3ZM24,17h3v1h-3ZM4,18h5v1h-5ZM23,18h5v1h-5ZM5,19h3v1h-3ZM24,19h3v1h-3ZM6,20h1v1h-1ZM25,20h1v1h-1Z"/></svg>