<svg xmlns="http://www.w3.org/2000/svg" viewBox="0 0 32 32" shape-rendering="crispEdges"><path fill="#94b0c2" d="M30,0h2v1h-2ZM28,1h3v1h-3ZM29,2h1v1h-1ZM28,3h2v1h-2ZM25,4h3v1h-3ZM27,5h1v1h-1ZM26,6h1v1h-1ZM25,7h1v1h-1ZM25,8h3v1h-3Z"/><path fill="#f4f4f4" d="M18,1h3v1h-3ZM18,2h3v1h-3ZM18,3h3v1h-3Z"/><path fill="#ffcd75" d="M12,3h6v1h-6ZM10,4h8v1h-8ZM21,4h1v1h-1ZM8,5h9v1h-9ZM22,5h2v1h-2ZM7,6h9v1h-9ZM23,6h2v1h-2ZM6,7h9v1h-9ZM24,7h1v1h-1ZM5,8h9v1h-9ZM4,9h9v1h-9ZM26,9h2v1h-2ZM4,10h8v1h-8ZM27,10h1v1h-1ZM3,11h8v1h-8ZM28,11h1v1h-1ZM3,12h7v1h-7ZM2,13h6v1h-6ZM2,14h6v1h-6ZM24,14h6v1h-6ZM2,15h28v1h-28ZM2,16h28v1h-28ZM2,17h5v1h-5ZM13,17h6v1h-6ZM25,17h5v1h-5ZM2,18h4v1h-4ZM7,18h18v1h-18ZM26,18h4v1h-4ZM2,19h3v1h-3ZM8,19h16v1h-16ZM27,19h3v1h-3ZM2,20h2v1h-2ZM9,20h14v1h-14ZM28,20h2v1h-2ZM3,21h2v1h-2ZM8,21h16v1h-16ZM27,21h2v1h-2ZM3,22h3v1h-3ZM7,22h8v1h-8ZM17,22h8v1h-8ZM26,22h3v1h-3ZM4,23h10v1h-10ZM18,23h10v1h-10ZM4,24h11v1h-11ZM17,24h11v1h-11ZM5,25h22v1h-22ZM6,26h20v1h-20ZM7,27h18v1h-18ZM8,28h16v1h-16ZM10,29h12v1h-12ZM12,30h8v1h-8Z"/><path fill="#3b5dc9" d="M18,4h3v1h-3ZM17,5h5v1h-5ZM16,6h7v1h-7ZM15,7h9v1h-9ZM14,8h11v1h-11ZM13,9h13v1h-13ZM12,10h15v1h-15ZM11,11h17v1h-17ZM10,12h19v1h-19ZM8,13h22v1h-22ZM8,14h16v1h-16Z"/><path fill="#1a1c2c" d="M7,17h6v1h-6ZM19,17h6v1h-6ZM15,22h2v1h-2ZM14,23h1v1h-1ZM17,23h1v1h-1ZM15,24h2v1h-2Z"/><path fill="#ff9eb7" d="M6,18h1v1h-1ZM25,18h1v1h-1ZM5,19h3v1h-3ZM24,19h3v1h-3ZM4,20h5v1h-5ZM23,20h5v1h-5ZM5,21h3v1h-3ZM24,21h3v1h-3ZM6,22h1v1h-1ZM25,22h1v1h-1Z"/><path fill="#b13e53" d="M15,23h2v1h-2Z"/></svg>