<svg xmlns="http://www.w3.org/2000/svg" viewBox="0 0 32 32" shape-rendering="crispEdges"><path fill="#1a1c2c" d="M12,1h8v1h-8ZM10,2h2v1h-2ZM20,2h2v1h-2ZM8,3h2v1h-2ZM22,3h2v1h-2ZM7,4h1v1h-1ZM24,4h1v1h-1ZM6,5h1v1h-1ZM25,5h1v1h-1ZM5,6h1v1h-1ZM26,6h1v1h-1ZM4,7h1v1h-1ZM27,7h1v1h-1ZM3,8h1v1h-1ZM28,8h1v1h-1ZM3,9h1v1h-1ZM28,9h1v1h-1ZM2,10h1v1h-1ZM11,10h2v1h-2ZM21,10h2v1h-2ZM29,10h1v1h-1ZM2,11h1v1h-1ZM10,11h4v1h-4ZM20,11h4v1h-4ZM29,11h1v1h-1ZM1,12h1v1h-1ZM9,12h2v1h-2ZM13,12h2v1h-2ZM19,12h2v1h-2ZM23,12h2v1h-2ZM30,12h1v1h-1ZM1,13h1v1h-1ZM8,13h2v1h-2ZM14,13h2v1h-2ZM18,13h2v1h-2ZM24,13h2v1h-2ZM30,13h1v1h-1ZM1,14h1v1h-1ZM8,14h1v1h-1ZM15,14h1v1h-1ZM18,14h1v1h-1ZM25,14h1v1h-1ZM30,14h1v1h-1ZM1,15h1v1h-1ZM30,15h1v1h-1ZM1,16h1v1h-1ZM30,16h1v1h-1ZM1,17h1v1h-1ZM30,17h1v1h-1ZM1,18h1v1h-1ZM14,18h4v1h-4ZM30,18h1v1h-1ZM1,19h1v1h-1ZM12,19h8v1h-8ZM30,19h1v1h-1ZM2,20h1v1h-1ZM11,20h3v1h-3ZM18,20h3v1h-3ZM29,20h1v1h-1ZM2,21h1v1h-1ZM10,21h2v1h-2ZM20,21h2v1h-2ZM29,21h1v1h-1ZM3,22h1v1h-1ZM9,22h2v1h-2ZM21,22h2v1h-2ZM28,22h1v1h-1ZM3,23h1v1h-1ZM9,23h1v1h-1ZM22,23h1v1h-1ZM28,23h1v1h-1ZM4,24h1v1h-1ZM27,24h1v1h-1ZM5,25h1v1h-1ZM26,25h1v1h-1ZM6,26h1v1h-1ZM25,26h1v1h-1ZM7,27h1v1h-1ZM24,27h1v1h-1ZM8,28h2v1h-2ZM22,28h2v1h-2ZM10,29h2v1h-2ZM20,29h2v1h-2ZM12,30h8v1h-8Z"/><path fill="#ffcd75" d="M12,2h8v1h-8ZM10,3h12v1h-12ZM8,4h16v1h-16ZM7,5h18v1h-18ZM6,6h20v1h-20ZM5,7h22v1h-22ZM4,8h24v1h-24ZM4,9h24v1h-24ZM3,10h8v1h-8ZM13,10h8v1h-8ZM23,10h6v1h-6ZM3,11h7v1h-7ZM14,11h6v1h-6ZM24,11h5v1h-5ZM2,12h7v1h-7ZM11,12h2v1h-2ZM15,12h4v1h-4ZM21,12h2v1h-2ZM25,12h5v1h-5ZM2,13h6v1h-6ZM10,13h4v1h-4ZM16,13h2v1h-2ZM20,13h4v1h-4ZM26,13h4v1h-4ZM2,14h6v1h-6ZM9,14h6v1h-6ZM16,14h2v1h-2ZM19,14h6v1h-6ZM26,14h4v1h-4ZM2,15h28v1h-28ZM2,16h4v1h-4ZM9,16h14v1h-14ZM26,16h4v1h-4ZM2,17h3v1h-3ZM10,17h12v1h-12ZM27,17h3v1h-3ZM2,18h3v1h-3ZM10,18h4v1h-4ZM18,18h4v1h-4ZM27,18h3v1h-3ZM2,19h3v1h-3ZM10,19h2v1h-2ZM20,19h2v1h-2ZM27,19h3v1h-3ZM3,20h3v1h-3ZM9,20h2v1h-2ZM14,20h4v1h-4ZM21,20h2v1h-2ZM26,20h3v1h-3ZM3,21h7v1h-7ZM12,21h8v1h-8ZM22,21h7v1h-7ZM4,22h5v1h-5ZM11,22h10v1h-10ZM23,22h5v1h-5ZM4,23h5v1h-5ZM10,23h12v1h-12ZM23,23h5v1h-5ZM5,24h22v1h-22ZM6,25h20v1h-20ZM7,26h18v1h-18ZM8,27h16v1h-16ZM10,28h12v1h-12ZM12,29h8v1h-8Z"/><path fill="#ff9eb7" d="M6,16h3v1h-3ZM23,16h3v1h-3ZM5,17h5v1h-5ZM22,17h5v1h-5ZM5,18h5v1h-5ZM22,18h5v1h-5ZM5,19h5v1h-5ZM22,19h5v1h-5ZM6,20h3v1h-3ZM23,20h3v1h-3Z"/></svg>