<svg xmlns="http://www.w3.org/2000/svg" viewBox="0 0 32 32" shape-rendering="crispEdges"><path fill="#ffcd75" d="M12,2h8v1h-8ZM9,3h14v1h-14ZM7,4h18v1h-18ZM6,5h20v1h-20ZM5,6h16v1h-16ZM22,6h5v1h-5ZM4,7h17v1h-17ZM24,7h4v1h-4ZM3,8h6v1h-6ZM11,8h11v1h-11ZM26,8h3v1h-3ZM3,9h4v1h-4ZM11,9h13v1h-13ZM26,9h3v1h-3ZM2,10h4v1h-4ZM9,10h21v1h-21ZM2,11h4v1h-4ZM7,11h23v1h-23ZM1,12h9v1h-9ZM11,12h10v1h-10ZM22,12h9v1h-9ZM1,13h8v1h-8ZM12,13h8v1h-8ZM23,13h8v1h-8ZM1,14h7v1h-7ZM13,14h6v1h-6ZM24,14h7v1h-7ZM1,15h8v1h-8ZM12,15h8v1h-8ZM23,15h8v1h-8ZM1,16h6v1h-6ZM8,16h2v1h-2ZM11,16h10v1h-10ZM22,16h2v1h-2ZM25,16h6v1h-6ZM1,17h5v1h-5ZM9,17h14v1h-14ZM26,17h5v1h-5ZM1,18h4v1h-4ZM9,18h14v1h-14ZM27,18h4v1h-4ZM1,19h3v1h-3ZM9,19h14v1h-14ZM28,19h3v1h-3ZM2,20h3v1h-3ZM8,20h16v1h-16ZM27,20h3v1h-3ZM2,21h11v1h-11ZM14,21h4v1h-4ZM19,21h11v1h-11ZM3,22h10v1h-10ZM14,22h4v1h-4ZM19,22h10v1h-10ZM3,23h10v1h-10ZM19,23h10v1h-10ZM4,24h24v1h-24ZM5,25h22v1h-22ZM6,26h20v1h-20ZM7,27h18v1h-18ZM9,28h14v1h-14ZM12,29h8v1h-8Z"/><path fill="#8b5e34" d="M21,6h1v1h-1ZM21,7h3v1h-3ZM9,8h2v1h-2ZM22,8h4v1h-4ZM7,9h4v1h-4ZM24,9h2v1h-2ZM6,10h3v1h-3ZM6,11h1v1h-1Z"/><path fill="#f4f4f4" d="M10,12h1v1h-1ZM21,12h1v1h-1ZM9,13h1v1h-1ZM11,13h1v1h-1ZM20,13h1v1h-1ZM22,13h1v1h-1ZM8,14h1v1h-1ZM12,14h1v1h-1ZM19,14h1v1h-1ZM23,14h1v1h-1ZM9,15h1v1h-1ZM11,15h1v1h-1ZM20,15h1v1h-1ZM22,15h1v1h-1ZM10,16h1v1h-1ZM21,16h1v1h-1Z"/><path fill="#1a1c2c" d="M10,13h1v1h-1ZM21,13h1v1h-1ZM9,14h3v1h-3ZM20,14h3v1h-3ZM10,15h1v1h-1ZM21,15h1v1h-1Z"/><path fill="#b13e53" d="M7,16h1v1h-1ZM24,16h1v1h-1ZM6,17h3v1h-3ZM23,17h3v1h-3ZM5,18h4v1h-4ZM23,18h4v1h-4ZM4,19h5v1h-5ZM23,19h5v1h-5ZM5,20h3v1h-3ZM24,20h3v1h-3ZM13,21h1v1h-1ZM18,21h1v1h-1ZM13,22h1v1h-1ZM18,22h1v1h-1ZM13,23h6v1h-6Z"/></svg>