<svg xmlns="http://www.w3.org/2000/svg" viewBox="0 0 32 32" shape-rendering="crispEdges"><path fill="#b13e53" d="M8,0h1v1h-1ZM10,0h1v1h-1ZM7,1h5v1h-5ZM8,2h3v1h-3ZM23,2h1v1h-1ZM25,2h1v1h-1ZM9,3h1v1h-1ZM22,3h5v1h-5ZM23,4h3v1h-3ZM24,5h1v1h-1ZM7,10h2v1h-2ZM10,10h2v1h-2ZM20,10h2v1h-2ZM23,10h2v1h-2ZM6,11h7v1h-7ZM19,11h7v1h-7ZM6,12h7v1h-7ZM19,12h7v1h-7ZM7,13h5v1h-5ZM20,13h5v1h-5ZM8,14h3v1h-3ZM21,14h3v1h-3ZM9,15h1v1h-1ZM22,15h1v1h-1Z"/><path fill="#ff9eb7" d="M15,1h1v1h-1ZM17,1h1v1h-1ZM14,2h5v1h-5ZM15,3h3v1h-3ZM16,4h1v1h-1ZM7,17h1v1h-1ZM24,17h1v1h-1ZM6,18h3v1h-3ZM23,18h3v1h-3ZM5,19h5v1h-5ZM22,19h5v1h-5ZM6,20h3v1h-3ZM23,20h3v1h-3ZM7,21h1v1h-1ZM24,21h1v1h-1Z"/><path fill="#ffcd75" d="M12,2h2v1h-2ZM19,2h1v1h-1ZM10,3h5v1h-5ZM18,3h4v1h-4ZM8,4h8v1h-8ZM17,4h6v1h-6ZM7,5h17v1h-17ZM6,6h20v1h-20ZM5,7h22v1h-22ZM4,8h24v1h-24ZM4,9h24v1h-24ZM3,10h4v1h-4ZM9,10h1v1h-1ZM12,10h8v1h-8ZM22,10h1v1h-1ZM25,10h4v1h-4ZM3,11h3v1h-3ZM13,11h6v1h-6ZM26,11h3v1h-3ZM2,12h4v1h-4ZM13,12h6v1h-6ZM26,12h4v1h-4ZM2,13h5v1h-5ZM12,13h8v1h-8ZM25,13h5v1h-5ZM2,14h6v1h-6ZM11,14h10v1h-10ZM24,14h6v1h-6ZM2,15h7v1h-7ZM10,15h12v1h-12ZM23,15h7v1h-7ZM2,16h28v1h-28ZM2,17h5v1h-5ZM8,17h16v1h-16ZM25,17h5v1h-5ZM2,18h4v1h-4ZM9,18h14v1h-14ZM26,18h4v1h-4ZM2,19h3v1h-3ZM10,19h3v1h-3ZM19,19h3v1h-3ZM27,19h3v1h-3ZM3,20h3v1h-3ZM9,20h2v1h-2ZM13,20h6v1h-6ZM21,20h2v1h-2ZM26,20h3v1h-3ZM3,21h4v1h-4ZM8,21h16v1h-16ZM25,21h4v1h-4ZM4,22h24v1h-24ZM4,23h24v1h-24ZM5,24h22v1h-22ZM6,25h20v1h-20ZM7,26h18v1h-18ZM8,27h16v1h-16ZM10,28h12v1h-12ZM12,29h8v1h-8Z"/><path fill="#1a1c2c" d="M13,19h6v1h-6ZM11,20h2v1h-2ZM19,20h2v1h-2Z"/></svg>