<svg xmlns="http://www.w3.org/2000/svg" viewBox="0 0 32 32" shape-rendering="crispEdges"><path fill="#ffcd75" d="M12,2h8v1h-8ZM10,3h12v1h-12ZM8,4h16v1h-16ZM7,5h18v1h-18ZM6,6h20v1h-20ZM5,7h22v1h-22ZM4,8h24v1h-24ZM4,9h24v1h-24ZM3,10h2v1h-2ZM14,10h4v1h-4ZM27,10h2v1h-2ZM3,11h2v1h-2ZM27,11h2v1h-2ZM2,12h3v1h-3ZM27,12h3v1h-3ZM2,13h3v1h-3ZM14,13h4v1h-4ZM27,13h3v1h-3ZM2,14h3v1h-3ZM14,14h4v1h-4ZM27,14h3v1h-3ZM2,15h28v1h-28ZM2,16h28v1h-28ZM2,17h5v1h-5ZM8,17h16v1h-16ZM25,17h5v1h-5ZM2,18h4v1h-4ZM9,18h14v1h-14ZM26,18h4v1h-4ZM2,19h3v1h-3ZM10,19h5v1h-5ZM27,19h3v1h-3ZM3,20h3v1h-3ZM9,20h4v1h-4ZM26,20h3v1h-3ZM3,21h4v1h-4ZM8,21h3v1h-3ZM15,21h9v1h-9ZM25,21h4v1h-4ZM4,22h6v1h-6ZM13,22h15v1h-15ZM4,23h6v1h-6ZM11,23h17v1h-17ZM5,24h22v1h-22ZM6,25h20v1h-20ZM7,26h18v1h-18ZM8,27h16v1h-16ZM10,28h12v1h-12ZM12,29h8v1h-8Z"/><path fill="#1a1c2c" d="M5,10h9v1h-9ZM18,10h9v1h-9ZM5,11h2v1h-2ZM9,11h11v1h-11ZM22,11h5v1h-5ZM5,12h22v1h-22ZM5,13h9v1h-9ZM18,13h9v1h-9ZM5,14h9v1h-9ZM18,14h9v1h-9ZM15,19h7v1h-7ZM13,20h10v1h-10ZM11,21h4v1h-4ZM10,22h3v1h-3ZM10,23h1v1h-1Z"/><path fill="#333c57" d="M7,11h2v1h-2ZM20,11h2v1h-2Z"/><path fill="#ff9eb7" d="M7,17h1v1h-1ZM24,17h1v1h-1ZM6,18h3v1h-3ZM23,18h3v1h-3ZM5,19h5v1h-5ZM22,19h5v1h-5ZM6,20h3v1h-3ZM23,20h3v1h-3ZM7,21h1v1h-1ZM24,21h1v1h-1Z"/></svg>