<svg xmlns="http://www.w3.org/2000/svg" viewBox="0 0 32 32" shape-rendering="crispEdges"><path fill="#ffecd2" d="M15,5h1v1h-1ZM12,6h7v1h-7ZM11,7h9v1h-9ZM7,8h1v1h-1ZM11,8h9v1h-9ZM23,8h1v1h-1ZM8,9h2v1h-2ZM11,9h9v1h-9ZM21,9h2v1h-2ZM9,10h13v1h-13ZM11,11h9v1h-9ZM11,12h9v1h-9ZM11,13h9v1h-9ZM12,14h7v1h-7ZM15,15h1v1h-1ZM15,15h2v1h-2ZM11,16h1v1h-1ZM19,16h1v1h-1ZM12,17h1v1h-1ZM18,17h1v1h-1ZM14,21h1v1h-1ZM17,21h1v1h-1ZM14,22h1v1h-1ZM17,22h1v1h-1Z"/><path fill="#ffcd75" d="M11,5h9v1h-9ZM26,5h1v1h-1ZM11,6h9v1h-9ZM10,7h11v1h-11ZM10,8h1v1h-1ZM20,8h1v1h-1ZM10,9h1v1h-1ZM20,9h1v1h-1ZM10,10h1v1h-1ZM20,10h1v1h-1ZM23,10h1v1h-1ZM22,11h1v1h-1ZM24,11h1v1h-1ZM23,12h1v1h-1ZM28,20h1v1h-1Z"/><path fill="#1a1c2c" d="M13,10h2v1h-2ZM17,10h2v1h-2ZM13,11h2v1h-2ZM17,11h2v1h-2Z"/><path fill="#29366f" d="M13,10h1v1h-1ZM17,10h1v1h-1Z"/><path fill="#f4f4f4" d="M5,7h1v1h-1ZM14,10h1v1h-1ZM18,10h1v1h-1ZM23,11h1v1h-1ZM13,16h5v1h-5ZM13,17h5v1h-5ZM3,18h1v1h-1ZM13,18h5v1h-5ZM12,19h7v1h-7ZM11,20h9v1h-9ZM6,24h1v1h-1Z"/><path fill="#b13e53" d="M15,13h2v1h-2Z"/><path fill="#ff9eb7" d="M11,12h2v1h-2ZM19,12h2v1h-2Z"/><path fill="#ef7d57" d="M22,13h1v1h-1ZM21,14h1v1h-1ZM20,15h1v1h-1Z"/><path fill="#73eff7" d="M8,14h2v1h-2ZM21,14h2v1h-2ZM7,15h2v1h-2ZM22,15h2v1h-2ZM9,17h1v1h-1ZM21,17h1v1h-1ZM10,18h1v1h-1ZM20,18h1v1h-1Z"/><path fill="#41a6f6" d="M7,14h1v1h-1ZM10,14h1v1h-1ZM20,14h1v1h-1ZM23,14h1v1h-1ZM9,15h2v1h-2ZM20,15h2v1h-2ZM8,17h1v1h-1ZM10,17h1v1h-1ZM20,17h1v1h-1ZM22,17h1v1h-1ZM9,18h1v1h-1ZM21,18h1v1h-1Z"/></svg>