<svg xmlns="http://www.w3.org/2000/svg" width="16" height="16" viewBox="0 0 16 16" shape-rendering="crispEdges">
<!-- 篱笆 -->
<path fill="#1a1c2c" d="M1 2h2v1h-2zM5 1h2v1h-2zM9 1h2v1h-2zM13 2h2v1h-2zM1 3h1v1h-1zM3 3h1v1h-1zM5 3h1v1h-1zM7 3h1v1h-1zM9 3h1v1h-1zM11 3h1v1h-1zM13 3h1v1h-1zM15 3h1v1h-1zM0 5h16v1h-16zM0 8h16v1h-16zM1 11h1v1h-1zM3 11h1v1h-1zM5 11h1v1h-1zM7 11h1v1h-1zM9 11h1v1h-1zM11 11h1v1h-1zM13 11h1v1h-1zM15 11h1v1h-1z"/>
<path fill="#a8775e" d="M1 3h2v1h-2zM5 2h2v1h-2zM9 2h2v1h-2zM13 3h2v1h-2zM1 4h2v1h-2zM5 3h2v1h-2zM9 3h2v1h-2zM13 4h2v1h-2zM0 6h16v1h-16zM0 7h16v1h-16zM0 9h16v1h-16zM0 10h16v1h-16z"/>
<path fill="#d4a56a" d="M1 4h1v1h-1zM5 3h1v1h-1zM9 3h1v1h-1zM13 4h1v1h-1zM0 6h1v1h-1zM0 9h1v1h-1z"/>
<path fill="#6b3e2e" d="M2 4h1v1h-1zM6 3h1v1h-1zM10 3h1v1h-1zM14 4h1v1h-1zM15 7h1v1h-1zM15 10h1v1h-1z"/>
</svg>