<svg xmlns="http://www.w3.org/2000/svg" width="32" height="32" viewBox="0 0 32 32" shape-rendering="crispEdges">
<path fill="#ffcd75" d="M5 2h1v1h-1zM12 2h1v1h-1zM5 3h1v1h-1zM3 4h1v1h-1zM28 5h1v1h-1zM21 7h1v1h-1zM23 7h1v1h-1zM3 8h1v1h-1zM22 8h1v1h-1zM21 9h1v1h-1zM23 9h1v1h-1zM3 12h1v1h-1zM20 14h1v1h-1zM26 14h1v1h-1zM3 16h1v1h-1zM26 18h1v1h-1zM15 19h1v1h-1zM16 19h1v1h-1zM17 19h1v1h-1zM18 19h1v1h-1zM3 20h1v1h-1zM15 20h1v1h-1zM16 20h1v1h-1zM17 20h1v1h-1zM18 20h1v1h-1zM15 22h1v1h-1zM16 22h1v1h-1zM17 22h1v1h-1zM18 22h1v1h-1zM15 23h1v1h-1zM16 23h1v1h-1zM17 23h1v1h-1zM18 23h1v1h-1zM3 24h1v1h-1zM15 25h1v1h-1zM16 25h1v1h-1zM17 25h1v1h-1zM18 25h1v1h-1zM15 26h1v1h-1zM16 26h1v1h-1zM17 26h1v1h-1zM18 26h1v1h-1z"/><path fill="#f4f4f4" d="M17 2h1v1h-1zM15 4h1v1h-1zM19 4h1v1h-1zM17 6h1v1h-1z"/><path fill="#41a6f6" d="M16 3h1v1h-1zM18 3h1v1h-1zM16 5h1v1h-1zM18 5h1v1h-1z"/><path fill="#b13e53" d="M4 4h1v1h-1zM6 4h1v1h-1zM7 4h1v1h-1zM3 5h1v1h-1zM4 5h1v1h-1zM6 5h1v1h-1zM7 5h1v1h-1zM22 5h1v1h-1zM3 6h1v1h-1zM4 6h1v1h-1zM6 6h1v1h-1zM7 6h1v1h-1zM4 8h1v1h-1zM6 8h1v1h-1zM7 8h1v1h-1zM19 8h1v1h-1zM25 8h1v1h-1zM3 9h1v1h-1zM4 9h1v1h-1zM6 9h1v1h-1zM7 9h1v1h-1zM3 10h1v1h-1zM4 10h1v1h-1zM6 10h1v1h-1zM7 10h1v1h-1zM22 11h1v1h-1zM4 12h1v1h-1zM6 12h1v1h-1zM7 12h1v1h-1zM3 13h1v1h-1zM4 13h1v1h-1zM6 13h1v1h-1zM7 13h1v1h-1zM3 14h1v1h-1zM4 14h1v1h-1zM6 14h1v1h-1zM7 14h1v1h-1zM4 16h1v1h-1zM6 16h1v1h-1zM7 16h1v1h-1zM3 17h1v1h-1zM4 17h1v1h-1zM6 17h1v1h-1zM7 17h1v1h-1zM3 18h1v1h-1zM4 18h1v1h-1zM6 18h1v1h-1zM7 18h1v1h-1zM14 18h1v1h-1zM15 18h1v1h-1zM16 18h1v1h-1zM17 18h1v1h-1zM18 18h1v1h-1zM19 18h1v1h-1zM14 19h1v1h-1zM19 19h1v1h-1zM4 20h1v1h-1zM6 20h1v1h-1zM7 20h1v1h-1zM14 20h1v1h-1zM19 20h1v1h-1zM3 21h1v1h-1zM4 21h1v1h-1zM6 21h1v1h-1zM7 21h1v1h-1zM14 21h1v1h-1zM15 21h1v1h-1zM16 21h1v1h-1zM17 21h1v1h-1zM18 21h1v1h-1zM19 21h1v1h-1zM3 22h1v1h-1zM4 22h1v1h-1zM6 22h1v1h-1zM7 22h1v1h-1zM14 22h1v1h-1zM19 22h1v1h-1zM14 23h1v1h-1zM19 23h1v1h-1zM4 24h1v1h-1zM6 24h1v1h-1zM7 24h1v1h-1zM14 24h1v1h-1zM15 24h1v1h-1zM16 24h1v1h-1zM17 24h1v1h-1zM18 24h1v1h-1zM19 24h1v1h-1zM3 25h1v1h-1zM4 25h1v1h-1zM6 25h1v1h-1zM7 25h1v1h-1zM14 25h1v1h-1zM19 25h1v1h-1zM3 26h1v1h-1zM4 26h1v1h-1zM6 26h1v1h-1zM7 26h1v1h-1zM14 26h1v1h-1zM19 26h1v1h-1zM14 27h1v1h-1zM15 27h1v1h-1zM16 27h1v1h-1zM17 27h1v1h-1zM18 27h1v1h-1zM19 27h1v1h-1zM14 28h1v1h-1zM15 28h1v1h-1zM16 28h1v1h-1zM17 28h1v1h-1zM18 28h1v1h-1zM19 28h1v1h-1zM14 29h1v1h-1zM15 29h1v1h-1zM16 29h1v1h-1zM17 29h1v1h-1zM18 29h1v1h-1zM19 29h1v1h-1z"/><path fill="#333c57" d="M5 4h1v1h-1zM5 5h1v1h-1zM5 6h1v1h-1zM5 7h1v1h-1zM5 8h1v1h-1zM5 9h1v1h-1zM5 10h1v1h-1zM5 11h1v1h-1zM5 12h1v1h-1zM5 13h1v1h-1zM5 14h1v1h-1zM5 15h1v1h-1zM5 16h1v1h-1zM5 17h1v1h-1zM5 18h1v1h-1zM5 19h1v1h-1zM5 20h1v1h-1zM5 21h1v1h-1zM5 22h1v1h-1zM5 23h1v1h-1zM5 24h1v1h-1zM5 25h1v1h-1zM5 26h1v1h-1zM5 27h1v1h-1z"/><path fill="#73eff7" d="M17 4h1v1h-1z"/><path fill="#ef7d57" d="M20 6h1v1h-1zM24 6h1v1h-1zM20 10h1v1h-1zM24 10h1v1h-1zM29 10h1v1h-1z"/><path fill="#38b764" d="M25 15h1v1h-1zM27 15h1v1h-1zM25 17h1v1h-1zM27 17h1v1h-1z"/><path fill="#a7f070" d="M26 16h1v1h-1z"/>
</svg>