<svg xmlns="http://www.w3.org/2000/svg" viewBox="0 0 32 32" shape-rendering="crispEdges"><rect width="32" height="32" fill="#29366f"/><path fill="#f4f4f4" d="M6,3h1v1h-1zM16,3h1v1h-1zM10,4h1v1h-1zM22,4h1v1h-1zM3,6h1v1h-1zM6,6h1v1h-1zM9,6h1v1h-1zM12,6h1v1h-1zM20,6h1v1h-1zM11,8h1v1h-1zM21,8h1v1h-1zM6,9h1v1h-1zM9,10h1v1h-1zM10,10h1v1h-1zM16,10h1v1h-1zM22,10h1v1h-1zM23,10h1v1h-1zM26,13h1v1h-1zM13,14h1v1h-1zM19,14h1v1h-1zM11,15h1v1h-1zM21,15h1v1h-1zM16,16h1v1h-1zM23,16h1v1h-1zM26,16h1v1h-1zM29,16h1v1h-1z"/><path fill="#73eff7" d="M6,4h1v1h-1zM5,5h1v1h-1zM7,7h1v1h-1zM6,8h1v1h-1zM11,10h1v1h-1zM12,10h1v1h-1zM13,10h1v1h-1zM14,10h1v1h-1zM15,10h1v1h-1zM17,11h1v1h-1zM18,12h1v1h-1zM19,13h1v1h-1zM20,14h1v1h-1z"/><path fill="#b13e53" d="M16,4h1v1h-1zM16,5h1v1h-1zM21,5h1v1h-1zM16,6h1v1h-1zM16,7h1v1h-1zM19,7h1v1h-1zM16,8h1v1h-1zM18,8h1v1h-1zM16,9h1v1h-1zM17,9h1v1h-1zM26,14h1v1h-1zM25,15h1v1h-1zM24,16h1v1h-1zM27,17h1v1h-1z"/><path fill="#41a6f6" d="M7,5h1v1h-1zM4,6h1v1h-1zM8,6h1v1h-1zM5,7h1v1h-1z"/><path fill="#ffcd75" d="M11,5h1v1h-1zM13,7h1v1h-1zM14,8h1v1h-1zM15,9h1v1h-1zM16,11h1v1h-1zM16,12h1v1h-1zM16,13h1v1h-1zM16,14h1v1h-1zM16,15h1v1h-1zM15,25h1v1h-1zM9,26h1v1h-1zM17,26h1v1h-1zM28,26h1v1h-1zM3,27h1v1h-1zM22,27h1v1h-1z"/><path fill="#ff9eb7" d="M17,10h1v1h-1zM18,10h1v1h-1zM19,10h1v1h-1zM20,10h1v1h-1zM21,10h1v1h-1zM15,11h1v1h-1zM14,12h1v1h-1zM13,13h1v1h-1zM12,14h1v1h-1z"/><path fill="#ef7d57" d="M27,15h1v1h-1zM28,16h1v1h-1zM25,17h1v1h-1zM26,18h1v1h-1z"/><path fill="#333c57" d="M14,24h1v1h-1zM15,24h1v1h-1zM16,24h1v1h-1zM17,24h1v1h-1zM18,24h1v1h-1zM8,25h1v1h-1zM9,25h1v1h-1zM10,25h1v1h-1zM14,25h1v1h-1zM16,25h1v1h-1zM17,25h1v1h-1zM18,25h1v1h-1zM27,25h1v1h-1zM28,25h1v1h-1zM29,25h1v1h-1zM2,26h1v1h-1zM3,26h1v1h-1zM4,26h1v1h-1zM5,26h1v1h-1zM8,26h1v1h-1zM10,26h1v1h-1zM14,26h1v1h-1zM15,26h1v1h-1zM16,26h1v1h-1zM18,26h1v1h-1zM21,26h1v1h-1zM22,26h1v1h-1zM23,26h1v1h-1zM24,26h1v1h-1zM27,26h1v1h-1zM29,26h1v1h-1zM2,27h1v1h-1zM4,27h1v1h-1zM5,27h1v1h-1zM8,27h1v1h-1zM9,27h1v1h-1zM10,27h1v1h-1zM14,27h1v1h-1zM15,27h1v1h-1zM16,27h1v1h-1zM17,27h1v1h-1zM18,27h1v1h-1zM21,27h1v1h-1zM23,27h1v1h-1zM24,27h1v1h-1zM27,27h1v1h-1zM28,27h1v1h-1zM29,27h1v1h-1zM0,28h1v1h-1zM1,28h1v1h-1zM2,28h1v1h-1zM3,28h1v1h-1zM4,28h1v1h-1zM5,28h1v1h-1zM6,28h1v1h-1zM7,28h1v1h-1zM8,28h1v1h-1zM9,28h1v1h-1zM10,28h1v1h-1zM11,28h1v1h-1zM12,28h1v1h-1zM13,28h1v1h-1zM14,28h1v1h-1zM15,28h1v1h-1zM16,28h1v1h-1zM17,28h1v1h-1zM18,28h1v1h-1zM19,28h1v1h-1zM20,28h1v1h-1zM21,28h1v1h-1zM22,28h1v1h-1zM23,28h1v1h-1zM24,28h1v1h-1zM25,28h1v1h-1zM26,28h1v1h-1zM27,28h1v1h-1zM28,28h1v1h-1zM29,28h1v1h-1zM30,28h1v1h-1zM31,28h1v1h-1zM0,29h1v1h-1zM1,29h1v1h-1zM2,29h1v1h-1zM3,29h1v1h-1zM4,29h1v1h-1zM5,29h1v1h-1zM6,29h1v1h-1zM7,29h1v1h-1zM8,29h1v1h-1zM9,29h1v1h-1zM10,29h1v1h-1zM11,29h1v1h-1zM12,29h1v1h-1zM13,29h1v1h-1zM14,29h1v1h-1zM15,29h1v1h-1zM16,29h1v1h-1zM17,29h1v1h-1zM18,29h1v1h-1zM19,29h1v1h-1zM20,29h1v1h-1zM21,29h1v1h-1zM22,29h1v1h-1zM23,29h1v1h-1zM24,29h1v1h-1zM25,29h1v1h-1zM26,29h1v1h-1zM27,29h1v1h-1zM28,29h1v1h-1zM29,29h1v1h-1zM30,29h1v1h-1zM31,29h1v1h-1zM0,30h1v1h-1zM1,30h1v1h-1zM2,30h1v1h-1zM3,30h1v1h-1zM4,30h1v1h-1zM5,30h1v1h-1zM6,30h1v1h-1zM7,30h1v1h-1zM8,30h1v1h-1zM9,30h1v1h-1zM10,30h1v1h-1zM11,30h1v1h-1zM12,30h1v1h-1zM13,30h1v1h-1zM14,30h1v1h-1zM15,30h1v1h-1zM16,30h1v1h-1zM17,30h1v1h-1zM18,30h1v1h-1zM19,30h1v1h-1zM20,30h1v1h-1zM21,30h1v1h-1zM22,30h1v1h-1zM23,30h1v1h-1zM24,30h1v1h-1zM25,30h1v1h-1zM26,30h1v1h-1zM27,30h1v1h-1zM28,30h1v1h-1zM29,30h1v1h-1zM30,30h1v1h-1zM31,30h1v1h-1zM0,31h1v1h-1zM1,31h1v1h-1zM2,31h1v1h-1zM3,31h1v1h-1zM4,31h1v1h-1zM5,31h1v1h-1zM6,31h1v1h-1zM7,31h1v1h-1zM8,31h1v1h-1zM9,31h1v1h-1zM10,31h1v1h-1zM11,31h1v1h-1zM12,31h1v1h-1zM13,31h1v1h-1zM14,31h1v1h-1zM15,31h1v1h-1zM16,31h1v1h-1zM17,31h1v1h-1zM18,31h1v1h-1zM19,31h1v1h-1zM20,31h1v1h-1zM21,31h1v1h-1zM22,31h1v1h-1zM23,31h1v1h-1zM24,31h1v1h-1zM25,31h1v1h-1zM26,31h1v1h-1zM27,31h1v1h-1zM28,31h1v1h-1zM29,31h1v1h-1zM30,31h1v1h-1zM31,31h1v1h-1z"/><path fill="#1a1c2c" d="M0,26h1v1h-1zM1,26h1v1h-1zM6,26h1v1h-1zM7,26h1v1h-1zM11,26h1v1h-1zM12,26h1v1h-1zM13,26h1v1h-1zM19,26h1v1h-1zM20,26h1v1h-1zM25,26h1v1h-1zM26,26h1v1h-1zM30,26h1v1h-1zM31,26h1v1h-1zM0,27h1v1h-1zM1,27h1v1h-1zM6,27h1v1h-1zM7,27h1v1h-1zM11,27h1v1h-1zM12,27h1v1h-1zM13,27h1v1h-1zM19,27h1v1h-1zM20,27h1v1h-1zM25,27h1v1h-1zM26,27h1v1h-1zM30,27h1v1h-1zM31,27h1v1h-1z"/></svg>