<svg xmlns="http://www.w3.org/2000/svg" width="16" height="16" viewBox="0 0 16 16" shape-rendering="crispEdges">
<!-- 钓竿 -->
<path fill="#1a1c2c" d="M10 0h1v1h-1zM11 0h1v1h-1zM9 1h1v1h-1zM11 1h1v1h-1zM9 2h1v1h-1zM11 2h1v1h-1zM9 3h1v1h-1zM11 3h1v1h-1zM8 4h1v1h-1zM10 4h1v1h-1zM8 5h1v1h-1zM10 5h1v1h-1zM7 6h1v1h-1zM9 6h1v1h-1zM7 7h1v1h-1zM9 7h1v1h-1zM6 8h1v1h-1zM8 8h1v1h-1zM5 9h1v1h-1zM7 9h1v1h-1zM4 10h1v1h-1zM7 10h1v1h-1zM4 11h1v1h-1zM6 11h1v1h-1z"/>
<path fill="#a8775e" d="M10 1h1v1h-1zM10 2h1v1h-1zM10 3h1v1h-1zM9 4h1v1h-1zM9 5h1v1h-1zM8 6h1v1h-1zM8 7h1v1h-1zM7 8h1v1h-1zM6 9h1v1h-1zM5 10h2v1h-2zM5 11h1v1h-1z"/>
<path fill="#d4a56a" d="M10 0h1v1h-1z"/>
<path fill="#6b3e2e" d="M7 8h1v1h-1z"/>
<!-- 鱼线 -->
<path fill="#94b0c2" d="M11 1h1v1h-1zM12 2h1v1h-1zM12 3h1v1h-1zM12 4h1v1h-1zM12 5h1v1h-1zM12 6h1v1h-1zM12 7h1v1h-1z"/>
<!-- 鱼钩 -->
<path fill="#566c86" d="M11 8h2v1h-2zM11 9h1v1h-1zM13 9h1v1h-1zM12 10h1v1h-1z"/>
<path fill="#f4f4f4" d="M11 0h1v1h-1z"/>
</svg>