<svg xmlns="http://www.w3.org/2000/svg" viewBox="0 0 32 32" shape-rendering="crispEdges"><path fill="#ff9eb7" d="M8,2h5v1h-5ZM7,3h2v1h-2ZM11,3h2v1h-2ZM7,4h2v1h-2ZM11,4h2v1h-2ZM8,5h5v1h-5ZM9,6h2v1h-2ZM9,7h2v1h-2ZM10,8h2v1h-2ZM10,9h2v1h-2ZM11,10h2v1h-2ZM11,11h2v1h-2ZM12,12h2v1h-2ZM13,13h2v1h-2ZM14,14h8v1h-8ZM25,14h2v1h-2ZM13,15h13v1h-13ZM12,16h6v1h-6ZM22,16h4v1h-4ZM12,17h6v1h-6ZM22,17h2v1h-2ZM12,18h6v1h-6ZM22,18h2v1h-2ZM12,19h12v1h-12ZM13,20h10v1h-10ZM14,21h8v1h-8ZM17,22h1v1h-1ZM20,22h1v1h-1ZM17,23h1v1h-1ZM20,23h1v1h-1ZM17,24h1v1h-1ZM21,24h2v1h-2ZM17,25h1v1h-1ZM17,26h1v1h-1ZM17,27h1v1h-1Z"/><path fill="#f4f4f4" d="M9,3h1v1h-1ZM9,4h1v1h-1Z"/><path fill="#1a1c2c" d="M10,3h1v1h-1ZM16,3h1v1h-1ZM10,4h1v1h-1ZM15,4h2v1h-2Z"/><path fill="#ef7d57" d="M13,3h3v1h-3ZM13,4h2v1h-2ZM15,28h5v1h-5Z"/><path fill="#e8849f" d="M18,16h4v1h-4ZM18,17h4v1h-4ZM18,18h4v1h-4Z"/></svg>