<svg xmlns="http://www.w3.org/2000/svg" viewBox="0 0 16 16" width="16" height="16">
  <!-- Potion bottle -->
  <!-- Cork/stopper -->
  <rect x="6" y="0" width="1" height="1" fill="#92400e"/>
  <rect x="7" y="0" width="1" height="1" fill="#b45309"/>
  <rect x="8" y="0" width="1" height="1" fill="#92400e"/>
  <rect x="9" y="0" width="1" height="1" fill="#78350f"/>
  <!-- Bottle neck -->
  <rect x="6" y="1" width="1" height="1" fill="#e879a8"/>
  <rect x="7" y="1" width="1" height="1" fill="#f9a8d4"/>
  <rect x="8" y="1" width="1" height="1" fill="#e879a8"/>
  <rect x="9" y="1" width="1" height="1" fill="#e879a8"/>
  <rect x="6" y="2" width="1" height="1" fill="#e879a8"/>
  <rect x="7" y="2" width="1" height="1" fill="#f9a8d4"/>
  <rect x="8" y="2" width="1" height="1" fill="#e879a8"/>
  <rect x="9" y="2" width="1" height="1" fill="#e879a8"/>
  <rect x="6" y="3" width="1" height="1" fill="#e879a8"/>
  <rect x="7" y="3" width="1" height="1" fill="#f9a8d4"/>
  <rect x="8" y="3" width="1" height="1" fill="#e879a8"/>
  <rect x="9" y="3" width="1" height="1" fill="#e879a8"/>
  <!-- Bottle shoulder -->
  <rect x="5" y="4" width="1" height="1" fill="#f472b6"/>
  <rect x="6" y="4" width="1" height="1" fill="#f472b6"/>
  <rect x="7" y="4" width="1" height="1" fill="#f9a8d4"/>
  <rect x="8" y="4" width="1" height="1" fill="#f472b6"/>
  <rect x="9" y="4" width="1" height="1" fill="#f472b6"/>
  <rect x="10" y="4" width="1" height="1" fill="#f472b6"/>
  <!-- Bottle body (with liquid) -->
  <rect x="4" y="5" width="1" height="1" fill="#f472b6"/>
  <rect x="5" y="5" width="1" height="1" fill="#f472b6"/>
  <rect x="6" y="5" width="1" height="1" fill="#f9a8d4"/>
  <rect x="7" y="5" width="1" height="1" fill="#f9a8d4"/>
  <rect x="8" y="5" width="1" height="1" fill="#f472b6"/>
  <rect x="9" y="5" width="1" height="1" fill="#f472b6"/>
  <rect x="10" y="5" width="1" height="1" fill="#f472b6"/>
  <rect x="11" y="5" width="1" height="1" fill="#db2777"/>
  <!-- Liquid line -->
  <rect x="4" y="6" width="1" height="1" fill="#f472b6"/>
  <rect x="5" y="6" width="1" height="1" fill="#f472b6"/>
  <rect x="6" y="6" width="1" height="1" fill="#f472b6"/>
  <rect x="7" y="6" width="1" height="1" fill="#f472b6"/>
  <rect x="8" y="6" width="1" height="1" fill="#f472b6"/>
  <rect x="9" y="6" width="1" height="1" fill="#db2777"/>
  <rect x="10" y="6" width="1" height="1" fill="#db2777"/>
  <rect x="11" y="6" width="1" height="1" fill="#db2777"/>
  <!-- Liquid body -->
  <rect x="3" y="7" width="1" height="1" fill="#f472b6"/>
  <rect x="4" y="7" width="1" height="1" fill="#f472b6"/>
  <rect x="5" y="7" width="1" height="1" fill="#ec4899"/>
  <rect x="6" y="7" width="1" height="1" fill="#ec4899"/>
  <rect x="7" y="7" width="1" height="1" fill="#f472b6"/>
  <rect x="8" y="7" width="1" height="1" fill="#ec4899"/>
  <rect x="9" y="7" width="1" height="1" fill="#db2777"/>
  <rect x="10" y="7" width="1" height="1" fill="#db2777"/>
  <rect x="11" y="7" width="1" height="1" fill="#db2777"/>
  <rect x="12" y="7" width="1" height="1" fill="#db2777"/>
  <rect x="3" y="8" width="1" height="1" fill="#f472b6"/>
  <rect x="4" y="8" width="1" height="1" fill="#ec4899"/>
  <rect x="5" y="8" width="1" height="1" fill="#ec4899"/>
  <rect x="6" y="8" width="1" height="1" fill="#db2777"/>
  <rect x="7" y="8" width="1" height="1" fill="#ec4899"/>
  <rect x="8" y="8" width="1" height="1" fill="#db2777"/>
  <rect x="9" y="8" width="1" height="1" fill="#db2777"/>
  <rect x="10" y="8" width="1" height="1" fill="#be185d"/>
  <rect x="11" y="8" width="1" height="1" fill="#be185d"/>
  <rect x="12" y="8" width="1" height="1" fill="#db2777"/>
  <rect x="3" y="9" width="1" height="1" fill="#f472b6"/>
  <rect x="4" y="9" width="1" height="1" fill="#ec4899"/>
  <rect x="5" y="9" width="1" height="1" fill="#db2777"/>
  <rect x="6" y="9" width="1" height="1" fill="#db2777"/>
  <rect x="7" y="9" width="1" height="1" fill="#ec4899"/>
  <rect x="8" y="9" width="1" height="1" fill="#db2777"/>
  <rect x="9" y="9" width="1" height="1" fill="#be185d"/>
  <rect x="10" y="9" width="1" height="1" fill="#be185d"/>
  <rect x="11" y="9" width="1" height="1" fill="#be185d"/>
  <rect x="12" y="9" width="1" height="1" fill="#db2777"/>
  <rect x="3" y="10" width="1" height="1" fill="#ec4899"/>
  <rect x="4" y="10" width="1" height="1" fill="#db2777"/>
  <rect x="5" y="10" width="1" height="1" fill="#db2777"/>
  <rect x="6" y="10" width="1" height="1" fill="#db2777"/>
  <rect x="7" y="10" width="1" height="1" fill="#db2777"/>
  <rect x="8" y="10" width="1" height="1" fill="#be185d"/>
  <rect x="9" y="10" width="1" height="1" fill="#be185d"/>
  <rect x="10" y="10" width="1" height="1" fill="#be185d"/>
  <rect x="11" y="10" width="1" height="1" fill="#be185d"/>
  <rect x="12" y="10" width="1" height="1" fill="#be185d"/>
  <rect x="3" y="11" width="1" height="1" fill="#ec4899"/>
  <rect x="4" y="11" width="1" height="1" fill="#db2777"/>
  <rect x="5" y="11" width="1" height="1" fill="#db2777"/>
  <rect x="6" y="11" width="1" height="1" fill="#be185d"/>
  <rect x="7" y="11" width="1" height="1" fill="#db2777"/>
  <rect x="8" y="11" width="1" height="1" fill="#be185d"/>
  <rect x="9" y="11" width="1" height="1" fill="#be185d"/>
  <rect x="10" y="11" width="1" height="1" fill="#9d174d"/>
  <rect x="11" y="11" width="1" height="1" fill="#be185d"/>
  <rect x="12" y="11" width="1" height="1" fill="#be185d"/>
  <!-- Bottle bottom -->
  <rect x="4" y="12" width="1" height="1" fill="#db2777"/>
  <rect x="5" y="12" width="1" height="1" fill="#be185d"/>
  <rect x="6" y="12" width="1" height="1" fill="#be185d"/>
  <rect x="7" y="12" width="1" height="1" fill="#be185d"/>
  <rect x="8" y="12" width="1" height="1" fill="#9d174d"/>
  <rect x="9" y="12" width="1" height="1" fill="#9d174d"/>
  <rect x="10" y="12" width="1" height="1" fill="#9d174d"/>
  <rect x="11" y="12" width="1" height="1" fill="#9d174d"/>
  <!-- Base -->
  <rect x="3" y="13" width="1" height="1" fill="#be185d"/>
  <rect x="4" y="13" width="1" height="1" fill="#be185d"/>
  <rect x="5" y="13" width="1" height="1" fill="#9d174d"/>
  <rect x="6" y="13" width="1" height="1" fill="#9d174d"/>
  <rect x="7" y="13" width="1" height="1" fill="#9d174d"/>
  <rect x="8" y="13" width="1" height="1" fill="#9d174d"/>
  <rect x="9" y="13" width="1" height="1" fill="#9d174d"/>
  <rect x="10" y="13" width="1" height="1" fill="#9d174d"/>
  <rect x="11" y="13" width="1" height="1" fill="#9d174d"/>
  <rect x="12" y="13" width="1" height="1" fill="#9d174d"/>
  <!-- Bubbles -->
  <rect x="6" y="9" width="1" height="1" fill="#f9a8d4"/>
  <rect x="9" y="11" width="1" height="1" fill="#f472b6"/>
  <rect x="5" y="11" width="1" height="1" fill="#f472b6"/>
</svg>