<svg xmlns="http://www.w3.org/2000/svg" width="32" height="32" viewBox="0 0 32 32" shape-rendering="crispEdges">
<path fill="#ef7d57" d="M7 4h1v1h-1zM21 4h1v1h-1zM6 5h3v1h-3zM20 5h3v1h-3zM6 6h1v1h-1zM8 6h2v1h-2zM19 6h2v1h-2zM22 6h1v1h-1zM6 7h1v1h-1zM9 7h11v1h-11zM22 7h1v1h-1zM8 8h13v1h-13zM7 9h15v1h-15zM7 10h3v1h-3zM13 10h4v1h-4zM20 10h2v1h-2zM7 11h3v1h-3zM13 11h4v1h-4zM20 11h2v1h-2zM7 12h1v1h-1zM7 13h1v1h-1zM10 13h1v1h-1zM18 13h2v1h-2zM26 13h2v1h-2zM7 14h4v1h-4zM18 14h4v1h-4zM25 14h2v1h-2zM8 15h3v1h-3zM18 15h3v1h-3zM24 15h3v1h-3zM9 16h3v1h-3zM17 16h5v1h-5zM23 16h4v1h-4zM8 17h3v1h-3zM18 17h9v1h-9zM8 18h3v1h-3zM18 18h11v1h-11zM8 19h3v1h-3zM18 19h11v1h-11zM8 20h3v1h-3zM18 20h5v1h-5zM25 20h3v1h-3zM8 21h4v1h-4zM17 21h6v1h-6zM9 22h13v1h-13zM10 23h3v1h-3zM16 23h3v1h-3zM10 24h3v1h-3zM16 24h3v1h-3zM10 25h3v1h-3zM16 25h3v1h-3zM10 26h3v1h-3zM16 26h3v1h-3z"/><path fill="#ffe0a8" d="M7 6h1v1h-1zM21 6h1v1h-1zM7 7h2v1h-2zM20 7h2v1h-2z"/><path fill="#f4f4f4" d="M10 10h1v1h-1zM17 10h1v1h-1zM13 12h4v1h-4zM11 13h3v1h-3zM16 13h2v1h-2zM28 13h1v1h-1zM11 14h3v1h-3zM16 14h2v1h-2zM27 14h2v1h-2zM11 15h7v1h-7zM27 15h2v1h-2zM12 16h5v1h-5zM27 16h2v1h-2zM11 17h7v1h-7zM27 17h2v1h-2zM11 18h7v1h-7zM11 19h7v1h-7zM11 20h7v1h-7zM12 21h5v1h-5z"/><path fill="#1a1c2c" d="M11 10h2v1h-2zM18 10h2v1h-2zM10 11h3v1h-3zM17 11h3v1h-3zM10 12h3v1h-3zM17 12h3v1h-3zM14 13h2v1h-2zM14 14h2v1h-2z"/><path fill="#ff9eb7" d="M8 12h2v1h-2zM20 12h2v1h-2zM8 13h2v1h-2zM20 13h2v1h-2z"/><path fill="#333c57" d="M10 27h3v1h-3zM16 27h3v1h-3z"/>
</svg>