<svg xmlns="http://www.w3.org/2000/svg" width="16" height="16" viewBox="0 0 16 16" shape-rendering="crispEdges">
<!-- 煎蛋 -->
<path fill="#1a1c2c" d="M5 1h3v1h-3zM3 2h2v1h-2zM8 2h2v1h-2zM2 3h1v1h-1zM10 3h2v1h-2zM1 4h1v1h-1zM12 4h1v1h-1zM1 5h1v1h-1zM12 5h1v1h-1zM1 6h1v1h-1zM13 6h1v1h-1zM1 7h1v1h-1zM13 7h1v1h-1zM1 8h1v1h-1zM13 8h1v1h-1zM2 9h1v1h-1zM12 9h1v1h-1zM3 10h1v1h-1zM11 10h1v1h-1zM4 11h7v1h-7z"/>
<path fill="#f4f4f4" d="M5 2h3v1h-3zM3 3h7v1h-7zM2 4h10v1h-10zM2 5h10v1h-10zM2 6h11v1h-11zM2 7h11v1h-11zM2 8h11v1h-11zM3 9h9v1h-9zM4 10h7v1h-7z"/>
<path fill="#ffcd75" d="M5 5h4v1h-4zM4 6h5v1h-5zM4 7h5v1h-5zM5 8h4v1h-4z"/>
<path fill="#ef7d57" d="M6 6h2v1h-2zM6 7h2v1h-2z"/>
<path fill="#d4a56a" d="M11 7h1v1h-1zM11 8h1v1h-1zM10 9h1v1h-1z"/>
</svg>