<svg xmlns="http://www.w3.org/2000/svg" viewBox="0 0 32 32" shape-rendering="crispEdges"><path fill="#38b764" d="M14,3h4v1h-4zM13,4h6v1h-6zM8,5h4v1h-4zM20,5h4v1h-4zM8,8h3v1h-3zM10,8h2v1h-2zM11,8h10v1h-10zM20,8h2v1h-2zM21,8h3v1h-3zM9,9h14v1h-14zM8,10h16v1h-16zM8,11h16v1h-16zM8,12h16v1h-16zM9,13h14v1h-14zM10,14h12v1h-12zM10,15h12v1h-12zM10,16h12v1h-12zM7,17h18v1h-18zM6,18h20v1h-20z"/><path fill="#f4f4f4" d="M7,6h3v1h-3zM9,6h4v1h-4zM19,6h3v1h-3zM21,6h4v1h-4zM7,7h6v1h-6zM19,7h6v1h-6zM12,14h8v1h-8zM12,15h8v1h-8zM13,16h6v1h-6zM13,17h6v1h-6z"/><path fill="#1a1c2c" d="M9,6h2v1h-2zM21,6h2v1h-2zM9,7h2v1h-2zM21,7h2v1h-2zM10,12h1v1h-1zM21,12h1v1h-1zM11,13h10v1h-10z"/><path fill="#ff9eb7" d="M9,11h1v1h-1zM22,11h1v1h-1z"/><path fill="#a7f070" d="M16,3h1v1h-1zM6,19h5v1h-5zM21,19h5v1h-5zM5,20h5v1h-5zM22,20h5v1h-5z"/></svg>