<svg xmlns="http://www.w3.org/2000/svg" width="32" height="32" viewBox="0 0 32 32" shape-rendering="crispEdges">
<path fill="#1a1c2c" d="M0 0h22v1h-22zM23 0h9v1h-9zM0 1h2v1h-2zM3 1h12v1h-12zM16 1h15v1h-15zM0 2h7v1h-7zM8 2h16v1h-16zM26 2h6v1h-6zM2 3h22v1h-22zM26 3h2v1h-2zM29 3h3v1h-3zM5 4h3v1h-3zM9 4h3v1h-3zM13 4h19v1h-19zM5 5h2v1h-2zM10 5h9v1h-9zM20 5h12v1h-12zM6 6h2v1h-2zM9 6h23v1h-23zM8 7h12v1h-12zM21 7h5v1h-5zM27 7h5v1h-5zM0 8h2v1h-2zM9 8h4v1h-4zM14 8h5v1h-5zM22 8h10v1h-10zM0 9h3v1h-3zM10 9h10v1h-10zM21 9h11v1h-11zM1 10h3v1h-3zM12 10h3v1h-3zM16 10h4v1h-4zM21 10h4v1h-4zM26 10h4v1h-4zM31 10h1v1h-1zM0 11h4v1h-4zM13 11h1v1h-1zM15 11h4v1h-4zM20 11h4v1h-4zM25 11h4v1h-4zM30 11h2v1h-2zM0 12h3v1h-3zM4 12h1v1h-1zM15 12h3v1h-3zM19 12h1v1h-1zM21 12h2v1h-2zM24 12h4v1h-4zM29 12h3v1h-3zM0 13h2v1h-2zM3 13h4v1h-4zM8 13h1v1h-1zM16 13h1v1h-1zM18 13h4v1h-4zM23 13h4v1h-4zM28 13h4v1h-4zM0 14h1v1h-1zM2 14h4v1h-4zM7 14h3v1h-3zM18 14h3v1h-3zM22 14h4v1h-4zM27 14h4v1h-4zM1 15h2v1h-2zM4 15h1v1h-1zM6 15h4v1h-4zM19 15h1v1h-1zM21 15h4v1h-4zM26 15h4v1h-4zM31 15h1v1h-1zM0 16h4v1h-4zM5 16h4v1h-4zM10 16h3v1h-3zM20 16h4v1h-4zM25 16h4v1h-4zM30 16h2v1h-2zM0 17h3v1h-3zM4 17h4v1h-4zM9 17h4v1h-4zM14 17h1v1h-1zM22 17h1v1h-1zM24 17h4v1h-4zM29 17h3v1h-3zM0 18h2v1h-2zM3 18h4v1h-4zM8 18h2v1h-2zM11 18h1v1h-1zM13 18h3v1h-3zM23 18h4v1h-4zM29 18h3v1h-3zM0 19h1v1h-1zM2 19h2v1h-2zM5 19h1v1h-1zM7 19h4v1h-4zM12 19h3v1h-3zM17 19h1v1h-1zM25 19h1v1h-1zM29 19h2v1h-2zM1 20h4v1h-4zM6 20h4v1h-4zM11 20h3v1h-3zM17 20h2v1h-2zM26 20h3v1h-3zM31 20h1v1h-1zM0 21h4v1h-4zM5 21h4v1h-4zM10 21h4v1h-4zM16 21h3v1h-3zM28 21h1v1h-1zM30 21h2v1h-2z"/><path fill="#f4f4f4" d="M22 0h1v1h-1zM2 1h1v1h-1zM15 1h1v1h-1zM31 1h1v1h-1zM7 2h1v1h-1zM24 2h2v1h-2zM24 3h2v1h-2zM28 3h1v1h-1zM3 4h2v1h-2zM12 4h1v1h-1zM3 5h2v1h-2zM8 5h1v1h-1zM19 5h1v1h-1zM1 6h1v1h-1zM26 7h1v1h-1zM13 8h1v1h-1zM20 8h1v1h-1zM30 10h1v1h-1zM20 12h1v1h-1zM10 14h2v1h-2zM3 15h1v1h-1zM10 15h2v1h-2zM25 15h1v1h-1zM10 18h1v1h-1zM27 18h2v1h-2zM4 19h1v1h-1zM27 19h2v1h-2zM0 20h1v1h-1zM15 20h1v1h-1zM29 20h1v1h-1zM14 22h1v1h-1zM5 24h1v1h-1zM17 25h1v1h-1zM22 26h1v1h-1zM1 28h1v1h-1zM14 28h2v1h-2zM28 28h1v1h-1zM14 29h2v1h-2zM8 30h1v1h-1zM18 30h1v1h-1z"/><path fill="#5d275d" d="M0 3h2v1h-2zM2 4h1v1h-1zM5 6h1v1h-1zM0 7h2v1h-2zM5 7h3v1h-3zM2 8h1v1h-1zM4 8h5v1h-5zM3 9h2v1h-2zM7 9h3v1h-3zM4 10h2v1h-2zM8 10h1v1h-1zM10 10h2v1h-2zM4 11h5v1h-5zM12 11h1v1h-1zM5 12h4v1h-4zM13 12h2v1h-2zM9 13h1v1h-1zM15 13h1v1h-1zM16 14h2v1h-2zM12 15h1v1h-1zM18 15h1v1h-1zM13 16h2v1h-2zM19 16h1v1h-1zM15 17h1v1h-1zM20 17h2v1h-2zM16 18h2v1h-2zM22 18h1v1h-1zM18 19h1v1h-1zM23 19h2v1h-2zM19 20h1v1h-1zM25 20h1v1h-1zM20 21h2v1h-2zM26 21h2v1h-2zM22 22h1v1h-1zM28 22h1v1h-1zM23 23h2v1h-2zM29 23h1v1h-1zM25 24h1v1h-1zM30 24h2v1h-2zM26 25h2v1h-2zM28 26h1v1h-1zM29 27h1v1h-1zM30 28h2v1h-2z"/><path fill="#3b5dc9" d="M0 4h2v1h-2zM2 5h1v1h-1zM0 6h1v1h-1zM3 6h2v1h-2zM2 7h1v1h-1zM3 8h1v1h-1zM9 10h1v1h-1zM10 11h2v1h-2zM9 12h1v1h-1zM12 12h1v1h-1zM10 13h2v1h-2zM13 13h2v1h-2zM12 14h1v1h-1zM15 14h1v1h-1zM13 15h2v1h-2zM16 15h2v1h-2zM15 16h1v1h-1zM18 16h1v1h-1zM16 17h2v1h-2zM19 17h1v1h-1zM18 18h1v1h-1zM20 18h2v1h-2zM19 19h1v1h-1zM22 19h1v1h-1zM20 20h2v1h-2zM23 20h2v1h-2zM22 21h1v1h-1zM25 21h1v1h-1zM23 22h2v1h-2zM26 22h2v1h-2zM25 23h1v1h-1zM28 23h1v1h-1zM26 24h2v1h-2zM29 24h1v1h-1zM28 25h1v1h-1zM30 25h2v1h-2zM29 26h1v1h-1zM30 27h2v1h-2z"/><path fill="#94b0c2" d="M8 4h1v1h-1zM7 5h1v1h-1zM9 5h1v1h-1zM8 6h1v1h-1zM20 7h1v1h-1zM19 8h1v1h-1zM21 8h1v1h-1zM20 9h1v1h-1zM15 19h1v1h-1zM14 20h1v1h-1zM16 20h1v1h-1zM15 21h1v1h-1z"/><path fill="#73eff7" d="M0 5h2v1h-2zM2 6h1v1h-1zM3 7h2v1h-2zM9 11h1v1h-1zM10 12h2v1h-2zM12 13h1v1h-1zM13 14h2v1h-2zM15 15h1v1h-1zM16 16h2v1h-2zM18 17h1v1h-1zM19 18h1v1h-1zM20 19h2v1h-2zM22 20h1v1h-1zM23 21h2v1h-2zM25 22h1v1h-1zM26 23h2v1h-2zM28 24h1v1h-1zM29 25h1v1h-1zM30 26h2v1h-2z"/><path fill="#ff9eb7" d="M5 9h2v1h-2zM6 10h2v1h-2z"/><path fill="#29366f" d="M0 10h1v1h-1zM15 10h1v1h-1zM20 10h1v1h-1zM25 10h1v1h-1zM14 11h1v1h-1zM19 11h1v1h-1zM24 11h1v1h-1zM29 11h1v1h-1zM3 12h1v1h-1zM18 12h1v1h-1zM23 12h1v1h-1zM28 12h1v1h-1zM2 13h1v1h-1zM7 13h1v1h-1zM17 13h1v1h-1zM22 13h1v1h-1zM27 13h1v1h-1zM1 14h1v1h-1zM6 14h1v1h-1zM21 14h1v1h-1zM26 14h1v1h-1zM31 14h1v1h-1zM0 15h1v1h-1zM5 15h1v1h-1zM20 15h1v1h-1zM30 15h1v1h-1zM4 16h1v1h-1zM9 16h1v1h-1zM24 16h1v1h-1zM29 16h1v1h-1zM3 17h1v1h-1zM8 17h1v1h-1zM13 17h1v1h-1zM23 17h1v1h-1zM28 17h1v1h-1zM2 18h1v1h-1zM7 18h1v1h-1zM12 18h1v1h-1zM1 19h1v1h-1zM6 19h1v1h-1zM11 19h1v1h-1zM16 19h1v1h-1zM26 19h1v1h-1zM31 19h1v1h-1zM5 20h1v1h-1zM10 20h1v1h-1zM30 20h1v1h-1zM4 21h1v1h-1zM9 21h1v1h-1zM14 21h1v1h-1zM19 21h1v1h-1zM29 21h1v1h-1zM0 22h14v1h-14zM15 22h7v1h-7zM29 22h3v1h-3zM0 23h23v1h-23zM30 23h2v1h-2zM0 24h5v1h-5zM6 24h19v1h-19zM0 25h17v1h-17zM18 25h8v1h-8zM0 26h22v1h-22zM25 26h3v1h-3zM0 27h22v1h-22zM26 27h3v1h-3zM0 28h1v1h-1zM2 28h12v1h-12zM16 28h5v1h-5zM27 28h1v1h-1zM29 28h1v1h-1zM0 29h14v1h-14zM16 29h5v1h-5zM27 29h5v1h-5zM0 30h8v1h-8zM9 30h9v1h-9zM19 30h3v1h-3zM26 30h6v1h-6zM0 31h32v1h-32z"/><path fill="#333c57" d="M23 26h2v1h-2zM23 27h3v1h-3zM22 28h1v1h-1zM24 28h3v1h-3zM22 29h3v1h-3zM26 29h1v1h-1zM22 30h4v1h-4z"/><path fill="#566c86" d="M22 27h1v1h-1zM21 28h1v1h-1zM23 28h1v1h-1zM21 29h1v1h-1zM25 29h1v1h-1z"/>
</svg>