<svg xmlns="http://www.w3.org/2000/svg" viewBox="0 0 16 16" width="16" height="16">
  <!-- Controller body top -->
  <rect x="4" y="4" width="8" height="1" fill="#94a3b8"/>
  <rect x="3" y="5" width="10" height="1" fill="#94a3b8"/>
  <rect x="2" y="6" width="12" height="1" fill="#94a3b8"/>
  <rect x="2" y="7" width="12" height="1" fill="#94a3b8"/>
  <rect x="2" y="8" width="12" height="1" fill="#94a3b8"/>
  <rect x="2" y="9" width="12" height="1" fill="#94a3b8"/>
  <!-- Grips -->
  <rect x="1" y="8" width="1" height="1" fill="#94a3b8"/>
  <rect x="1" y="9" width="1" height="1" fill="#94a3b8"/>
  <rect x="1" y="10" width="2" height="1" fill="#94a3b8"/>
  <rect x="1" y="11" width="2" height="1" fill="#94a3b8"/>
  <rect x="2" y="12" width="2" height="1" fill="#94a3b8"/>
  <rect x="14" y="8" width="1" height="1" fill="#94a3b8"/>
  <rect x="14" y="9" width="1" height="1" fill="#94a3b8"/>
  <rect x="13" y="10" width="2" height="1" fill="#94a3b8"/>
  <rect x="13" y="11" width="2" height="1" fill="#94a3b8"/>
  <rect x="12" y="12" width="2" height="1" fill="#94a3b8"/>
  <!-- Bottom middle -->
  <rect x="4" y="10" width="8" height="1" fill="#94a3b8"/>
  <rect x="4" y="11" width="8" height="1" fill="#94a3b8"/>
  <!-- D-pad -->
  <rect x="4" y="7" width="1" height="1" fill="#64748b"/>
  <rect x="5" y="6" width="1" height="1" fill="#64748b"/>
  <rect x="5" y="7" width="1" height="1" fill="#64748b"/>
  <rect x="5" y="8" width="1" height="1" fill="#64748b"/>
  <rect x="6" y="7" width="1" height="1" fill="#64748b"/>
  <!-- Buttons -->
  <rect x="10" y="6" width="1" height="1" fill="#64748b"/>
  <rect x="12" y="6" width="1" height="1" fill="#64748b"/>
  <rect x="11" y="5" width="1" height="1" fill="#64748b"/>
  <rect x="11" y="7" width="1" height="1" fill="#64748b"/>
  <!-- Shadow/depth -->
  <rect x="2" y="10" width="12" height="1" fill="#7c8ba5" opacity="0.5"/>
  <rect x="3" y="5" width="10" height="1" fill="#b0bdd0" opacity="0.3"/>
</svg>
