<svg xmlns="http://www.w3.org/2000/svg" width="16" height="16" viewBox="0 0 16 16" shape-rendering="crispEdges">
<path fill="#f4f4f4" d="M5 1h1v1h-1zM4 2h1v1h-1zM6 2h3v1h-3zM5 3h1v1h-1zM7 3h1v1h-1zM7 4h1v1h-1zM7 5h1v1h-1zM7 6h1v1h-1z"/><path fill="#73eff7" d="M6 3h1v1h-1zM8 3h2v1h-2zM6 4h1v1h-1zM8 4h1v1h-1zM6 5h1v1h-1zM8 5h1v1h-1zM6 6h1v1h-1z"/><path fill="#41a6f6" d="M5 4h1v1h-1zM9 4h2v1h-2zM4 5h2v1h-2zM9 5h1v1h-1zM4 6h2v1h-2zM8 6h2v1h-2zM5 7h2v1h-2zM8 7h1v1h-1zM6 8h1v1h-1z"/><path fill="#3b5dc9" d="M10 5h2v1h-2zM3 6h1v1h-1zM10 6h2v1h-2zM3 7h2v1h-2zM9 7h2v1h-2zM4 8h2v1h-2zM8 8h2v1h-2zM5 9h3v1h-3zM7 10h1v1h-1z"/><path fill="#29366f" d="M12 6h1v1h-1zM11 7h2v1h-2zM10 8h2v1h-2zM8 9h3v1h-3zM6 10h1v1h-1zM8 10h2v1h-2zM7 11h2v1h-2z"/><path fill="#94b0c2" d="M7 7h1v1h-1zM7 8h1v1h-1z"/><path fill="#257179" d="M7 12h1v1h-1z"/>
</svg>