<svg xmlns="http://www.w3.org/2000/svg" width="16" height="16" viewBox="0 0 16 16" shape-rendering="crispEdges">
<path fill="#16213e" d="M6 2h4v1h-4zM6 13h4v1h-4z"/>
<path fill="#0f3460" d="M5 3h2v1h-2zM9 3h2v1h-2zM5 12h6v1h-6z"/>
<path fill="#f8f9fa" d="M7 3h2v1h-2zM6 4h1v1h-1z"/>
<path fill="#3282b8" d="M4 4h2v1h-2zM7 4h5v1h-5zM3 5h2v1h-2zM11 5h2v1h-2zM2 6h1v1h-1zM13 6h1v1h-1zM2 7h1v1h-1zM13 7h1v1h-1zM2 8h1v1h-1zM13 8h1v1h-1zM2 9h1v1h-1zM13 9h1v1h-1zM3 10h10v1h-10zM4 11h8v1h-8z"/>
<path fill="#00b4d8" d="M5 5h6v1h-6zM3 6h10v1h-10zM3 7h10v1h-10zM3 8h10v1h-10zM3 9h10v1h-10z"/>
</svg>