<svg xmlns="http://www.w3.org/2000/svg" width="16" height="16" viewBox="0 0 16 16" shape-rendering="crispEdges">
<path fill="#f8f9fa" d="M4 2h6v1h-6zM3 3h7v1h-7zM2 4h8v1h-8zM2 5h8v1h-8zM2 6h3v1h-3zM7 6h2v1h-2zM2 7h3v1h-3zM7 7h2v1h-2zM2 8h8v1h-8zM3 9h4v1h-4zM9 9h1v1h-1zM3 10h7v1h-7zM3 11h7v1h-7zM3 12h7v1h-7zM5 13h2v1h-2zM9 13h1v1h-1zM5 14h2v1h-2zM9 14h2v1h-2z"/>
<path fill="#e2e8f0" d="M10 2h2v1h-2zM10 3h3v1h-3zM10 4h4v1h-4zM10 5h4v1h-4zM11 6h3v1h-3zM11 7h3v1h-3zM10 8h4v1h-4zM10 9h3v1h-3zM10 10h3v1h-3zM10 11h3v1h-3zM10 12h3v1h-3zM10 13h1v1h-1z"/>
<path fill="#1a1a2e" d="M5 6h2v1h-2zM9 6h2v1h-2zM5 7h2v1h-2zM9 7h2v1h-2zM7 9h2v1h-2z"/>
</svg>