<svg xmlns="http://www.w3.org/2000/svg" viewBox="0 0 32 32" shape-rendering="crispEdges"><path fill="#41a6f6" d="M0,0h32v1h-32zM0,1h32v1h-32zM0,2h32v1h-32zM0,3h32v1h-32zM0,4h9v1h-9zM23,4h9v1h-9zM0,5h9v1h-9zM23,5h9v1h-9zM0,6h9v1h-9zM23,6h9v1h-9zM0,7h10v1h-10zM22,7h10v1h-10zM0,8h12v1h-12zM20,8h12v1h-12zM0,9h12v1h-12zM20,9h12v1h-12zM0,10h12v1h-12zM20,10h12v1h-12zM0,11h4v1h-4zM5,11h7v1h-7zM20,11h12v1h-12zM0,12h5v1h-5zM7,12h5v1h-5zM20,12h12v1h-12zM0,13h4v1h-4zM6,13h6v1h-6zM20,13h12v1h-12zM0,14h6v1h-6zM8,14h4v1h-4zM20,14h5v1h-5zM27,14h5v1h-5zM0,15h7v1h-7zM8,15h4v1h-4zM20,15h6v1h-6zM28,15h4v1h-4zM0,16h5v1h-5zM8,16h4v1h-4zM21,16h3v1h-3zM26,16h6v1h-6zM0,17h7v1h-7zM8,17h4v1h-4zM20,17h4v1h-4zM25,17h7v1h-7zM0,18h7v1h-7zM8,18h4v1h-4zM20,18h4v1h-4zM27,18h5v1h-5zM0,19h5v1h-5zM8,19h4v1h-4zM20,19h4v1h-4zM25,19h7v1h-7zM0,20h7v1h-7zM8,20h4v1h-4zM20,20h4v1h-4zM25,20h7v1h-7zM0,21h7v1h-7zM8,21h4v1h-4zM20,21h4v1h-4zM27,21h5v1h-5zM0,22h5v1h-5zM8,22h4v1h-4zM20,22h4v1h-4zM25,22h7v1h-7zM0,23h7v1h-7zM8,23h4v1h-4zM20,23h12v1h-12zM0,24h12v1h-12zM20,24h12v1h-12zM0,25h10v1h-10zM22,25h10v1h-10zM0,26h8v1h-8zM24,26h8v1h-8zM0,27h8v1h-8zM24,27h8v1h-8zM0,28h6v1h-6zM26,28h6v1h-6zM0,29h6v1h-6zM26,29h6v1h-6zM0,30h32v1h-32zM0,31h32v1h-32z"/><path fill="#f4f4f4" d="M9,4h14v1h-14zM10,6h12v1h-12zM10,7h12v1h-12zM12,8h2v1h-2zM15,8h2v1h-2zM18,8h2v1h-2zM12,9h2v1h-2zM15,9h2v1h-2zM18,9h2v1h-2zM12,10h2v1h-2zM15,10h2v1h-2zM18,10h2v1h-2zM12,11h2v1h-2zM15,11h2v1h-2zM18,11h2v1h-2zM12,12h2v1h-2zM15,12h2v1h-2zM18,12h2v1h-2zM12,13h2v1h-2zM15,13h2v1h-2zM18,13h2v1h-2zM12,14h5v1h-5zM18,14h2v1h-2zM12,15h2v1h-2zM15,15h2v1h-2zM19,15h1v1h-1zM15,16h2v1h-2zM18,16h1v1h-1zM12,17h2v1h-2zM16,17h1v1h-1zM18,17h2v1h-2zM12,18h2v1h-2zM15,18h1v1h-1zM18,18h2v1h-2zM12,19h2v1h-2zM15,19h2v1h-2zM18,19h2v1h-2zM12,20h2v1h-2zM15,20h2v1h-2zM18,20h2v1h-2zM12,21h2v1h-2zM15,21h2v1h-2zM18,21h2v1h-2zM12,22h2v1h-2zM15,22h2v1h-2zM18,22h2v1h-2zM12,23h2v1h-2zM15,23h2v1h-2zM18,23h2v1h-2zM12,24h2v1h-2zM15,24h2v1h-2zM18,24h2v1h-2z"/><path fill="#566c86" d="M9,5h2v1h-2zM21,5h2v1h-2zM9,6h1v1h-1zM22,6h1v1h-1zM10,25h12v1h-12zM6,28h20v1h-20zM6,29h20v1h-20z"/><path fill="#94b0c2" d="M11,5h10v1h-10zM14,8h1v1h-1zM17,8h1v1h-1zM14,9h1v1h-1zM17,9h1v1h-1zM14,10h1v1h-1zM17,10h1v1h-1zM14,11h1v1h-1zM17,11h1v1h-1zM14,12h1v1h-1zM17,12h1v1h-1zM14,13h1v1h-1zM17,13h1v1h-1zM17,14h1v1h-1zM17,15h1v1h-1zM14,16h1v1h-1zM17,16h1v1h-1zM14,17h1v1h-1zM14,18h1v1h-1zM17,18h1v1h-1zM14,19h1v1h-1zM17,19h1v1h-1zM14,20h1v1h-1zM17,20h1v1h-1zM14,21h1v1h-1zM17,21h1v1h-1zM14,22h1v1h-1zM17,22h1v1h-1zM14,23h1v1h-1zM17,23h1v1h-1zM14,24h1v1h-1zM17,24h1v1h-1zM8,26h16v1h-16zM8,27h16v1h-16z"/><path fill="#a7f070" d="M4,11h1v1h-1zM6,12h1v1h-1zM25,14h1v1h-1zM5,16h1v1h-1zM26,18h1v1h-1zM5,19h1v1h-1zM26,21h1v1h-1zM5,22h1v1h-1z"/><path fill="#38b764" d="M5,12h1v1h-1zM4,13h1v1h-1zM26,14h1v1h-1zM27,15h1v1h-1zM6,16h1v1h-1zM25,18h1v1h-1zM6,19h1v1h-1zM25,21h1v1h-1zM6,22h1v1h-1z"/><path fill="#8b5e34" d="M5,13h1v1h-1zM6,14h2v1h-2zM7,15h1v1h-1zM26,15h1v1h-1zM7,16h1v1h-1zM24,16h2v1h-2zM7,17h1v1h-1zM24,17h1v1h-1zM7,18h1v1h-1zM24,18h1v1h-1zM7,19h1v1h-1zM24,19h1v1h-1zM7,20h1v1h-1zM24,20h1v1h-1zM7,21h1v1h-1zM24,21h1v1h-1zM7,22h1v1h-1zM24,22h1v1h-1zM7,23h1v1h-1z"/><path fill="#1a1c2c" d="M14,15h1v1h-1zM18,15h1v1h-1zM15,17h1v1h-1zM17,17h1v1h-1zM16,18h1v1h-1z"/><path fill="#ff9eb7" d="M12,16h2v1h-2zM19,16h2v1h-2z"/></svg>