<svg xmlns="http://www.w3.org/2000/svg" viewBox="0 0 32 32" shape-rendering="crispEdges"><path fill="#333c57" d="M9,2h5v1h-5zM15,2h8v1h-8zM9,3h1v1h-1zM11,3h7v1h-7zM19,3h4v1h-4zM8,5h1v1h-1zM12,5h1v1h-1zM20,5h1v1h-1zM9,7h1v1h-1zM15,7h1v1h-1zM21,7h1v1h-1zM7,8h18v1h-18zM7,9h3v1h-3zM11,9h5v1h-5zM17,9h5v1h-5zM23,9h2v1h-2zM11,11h1v1h-1zM17,11h1v1h-1zM7,14h18v1h-18z"/><path fill="#1a1c2c" d="M14,2h1v1h-1zM10,3h1v1h-1zM18,3h1v1h-1zM8,4h16v1h-16zM9,5h3v1h-3zM13,5h7v1h-7zM21,5h3v1h-3zM7,6h18v1h-18zM7,7h2v1h-2zM10,7h5v1h-5zM16,7h5v1h-5zM22,7h3v1h-3zM10,9h1v1h-1zM16,9h1v1h-1zM22,9h1v1h-1zM8,10h16v1h-16zM8,11h3v1h-3zM12,11h5v1h-5zM18,11h6v1h-6zM9,12h14v1h-14zM9,13h14v1h-14zM13,17h1v1h-1zM19,17h1v1h-1zM12,18h2v1h-2zM18,18h2v1h-2zM14,20h4v1h-4z"/><path fill="#ffcd75" d="M9,15h1v1h-1zM22,15h1v1h-1zM8,16h1v1h-1zM23,16h1v1h-1zM8,20h1v1h-1zM23,20h1v1h-1zM9,21h1v1h-1zM22,21h1v1h-1zM10,22h1v1h-1zM21,22h1v1h-1zM15,25h2v1h-2zM15,27h2v1h-2zM15,29h2v1h-2z"/><path fill="#ffecd2" d="M10,15h12v1h-12zM10,16h12v1h-12zM10,17h2v1h-2zM14,17h4v1h-4zM20,17h2v1h-2zM10,18h2v1h-2zM14,18h4v1h-4zM20,18h2v1h-2zM10,19h1v1h-1zM13,19h6v1h-6zM21,19h1v1h-1zM10,20h4v1h-4zM18,20h4v1h-4zM10,21h12v1h-12zM11,22h10v1h-10zM12,23h8v1h-8z"/><path fill="#f4f4f4" d="M12,17h1v1h-1zM18,17h1v1h-1z"/><path fill="#ff9eb7" d="M11,19h2v1h-2zM19,19h2v1h-2z"/><path fill="#b13e53" d="M9,24h14v1h-14zM9,25h6v1h-6zM17,25h6v1h-6zM8,26h16v1h-16zM8,27h7v1h-7zM17,27h7v1h-7zM8,28h16v1h-16zM7,29h8v1h-8zM17,29h8v1h-8zM7,30h18v1h-18zM7,31h18v1h-18z"/></svg>