<svg xmlns="http://www.w3.org/2000/svg" viewBox="0 0 32 32" shape-rendering="crispEdges"><path fill="#ffcd75" d="M13,0h1v1h-1zM18,0h1v1h-1zM13,1h1v1h-1zM18,1h1v1h-1zM13,2h1v1h-1zM18,2h1v1h-1z"/><path fill="#5c3a1e" d="M14,0h4v1h-4zM14,1h4v1h-4zM14,2h4v1h-4zM13,26h6v1h-6z"/><path fill="#94b0c2" d="M15,3h2v1h-2zM15,4h2v1h-2zM15,5h2v1h-2zM15,6h2v1h-2zM15,7h2v1h-2zM15,8h2v1h-2zM15,9h2v1h-2zM15,10h2v1h-2zM15,11h2v1h-2zM14,12h4v1h-4zM14,13h4v1h-4zM14,14h4v1h-4zM14,15h4v1h-4zM14,16h4v1h-4zM14,17h4v1h-4zM14,18h4v1h-4zM14,19h4v1h-4zM15,20h1v1h-1zM17,20h1v1h-1zM14,21h1v1h-1zM14,23h1v1h-1zM14,24h2v1h-2zM17,24h1v1h-1zM14,25h4v1h-4zM14,27h4v1h-4z"/><path fill="#8b5e34" d="M18,12h1v1h-1zM13,13h1v1h-1zM18,13h2v1h-2zM12,14h2v1h-2zM19,14h2v1h-2zM12,15h1v1h-1zM20,15h1v1h-1zM12,16h1v1h-1zM20,16h1v1h-1zM12,17h1v1h-1zM18,17h1v1h-1zM20,17h1v1h-1zM12,18h2v1h-2zM19,18h2v1h-2zM11,19h3v1h-3zM18,19h4v1h-4zM11,20h1v1h-1zM21,20h1v1h-1zM10,21h1v1h-1zM22,21h1v1h-1zM10,22h1v1h-1zM22,22h1v1h-1zM10,23h1v1h-1zM22,23h1v1h-1zM10,24h1v1h-1zM22,24h1v1h-1zM10,25h1v1h-1zM22,25h1v1h-1zM11,26h1v1h-1zM21,26h1v1h-1zM11,27h2v1h-2zM20,27h2v1h-2zM12,28h2v1h-2zM19,28h2v1h-2zM14,29h5v1h-5z"/><path fill="#ef7d57" d="M18,14h1v1h-1zM13,15h1v1h-1zM18,15h2v1h-2zM13,16h1v1h-1zM18,16h2v1h-2zM13,17h1v1h-1zM19,17h1v1h-1zM18,18h1v1h-1zM12,20h2v1h-2zM19,20h2v1h-2zM11,21h2v1h-2zM18,21h1v1h-1zM20,21h2v1h-2zM11,22h3v1h-3zM19,22h3v1h-3zM11,23h3v1h-3zM18,23h4v1h-4zM11,24h3v1h-3zM18,24h4v1h-4zM11,25h3v1h-3zM18,25h4v1h-4zM12,26h1v1h-1zM19,26h2v1h-2zM13,27h1v1h-1zM18,27h2v1h-2zM14,28h5v1h-5z"/><path fill="#1a1c2c" d="M14,20h1v1h-1zM16,20h1v1h-1zM18,20h1v1h-1zM15,21h3v1h-3zM14,22h5v1h-5zM15,23h3v1h-3zM16,24h1v1h-1z"/><path fill="#ff9eb7" d="M13,21h1v1h-1zM19,21h1v1h-1z"/></svg>