<svg xmlns="http://www.w3.org/2000/svg" viewBox="0 0 32 32" shape-rendering="crispEdges"><path fill="#ef7d57" d="M9,2h1v1h-1zM23,2h1v1h-1zM7,3h2v1h-2zM10,3h2v1h-2zM21,3h2v1h-2zM24,3h2v1h-2zM7,4h1v1h-1zM11,4h1v1h-1zM21,4h1v1h-1zM25,4h1v1h-1zM6,5h1v1h-1zM12,5h1v1h-1zM16,5h1v1h-1zM20,5h1v1h-1zM26,5h1v1h-1zM7,6h1v1h-1zM11,6h11v1h-11zM25,6h1v1h-1zM7,7h2v1h-2zM10,7h13v1h-13zM24,7h2v1h-2zM9,8h7v1h-7zM17,8h7v1h-7zM9,9h3v1h-3zM22,9h2v1h-2zM10,10h2v1h-2zM22,10h1v1h-1zM12,15h1v1h-1zM20,15h1v1h-1zM12,16h9v1h-9zM13,17h2v1h-2zM17,17h3v1h-3zM11,18h3v1h-3zM18,18h4v1h-4zM10,19h5v1h-5zM17,19h6v1h-6zM10,20h3v1h-3zM20,20h3v1h-3zM10,21h2v1h-2zM21,21h2v1h-2zM24,21h1v1h-1zM9,22h3v1h-3zM21,22h3v1h-3zM10,23h1v1h-1zM22,23h1v1h-1zM10,24h2v1h-2zM21,24h2v1h-2zM10,25h2v1h-2zM21,25h2v1h-2zM11,26h2v1h-2zM20,26h2v1h-2zM12,27h4v1h-4zM17,27h4v1h-4zM12,28h3v1h-3zM16,28h1v1h-1zM18,28h3v1h-3z"/><path fill="#ff9eb7" d="M9,3h1v1h-1zM23,3h1v1h-1zM8,4h3v1h-3zM22,4h3v1h-3zM7,5h5v1h-5zM21,5h5v1h-5zM8,6h3v1h-3zM22,6h3v1h-3zM9,7h1v1h-1zM23,7h1v1h-1zM10,12h2v1h-2zM15,12h2v1h-2zM21,12h2v1h-2z"/><path fill="#ffecd2" d="M16,8h1v1h-1zM15,9h4v1h-4zM9,10h1v1h-1zM15,10h4v1h-4zM23,10h1v1h-1zM7,11h5v1h-5zM15,11h4v1h-4zM22,11h4v1h-4zM6,12h4v1h-4zM12,12h3v1h-3zM17,12h4v1h-4zM23,12h4v1h-4zM5,13h10v1h-10zM16,13h1v1h-1zM18,13h10v1h-10zM6,14h10v1h-10zM17,14h10v1h-10zM7,15h5v1h-5zM13,15h7v1h-7zM21,15h5v1h-5zM9,16h1v1h-1zM23,16h1v1h-1zM13,20h7v1h-7zM12,21h9v1h-9zM12,22h9v1h-9zM11,23h11v1h-11zM12,24h9v1h-9zM12,25h9v1h-9zM13,26h7v1h-7zM16,27h1v1h-1z"/><path fill="#f4f4f4" d="M12,9h1v1h-1zM19,9h1v1h-1z"/><path fill="#1a1c2c" d="M13,9h2v1h-2zM20,9h2v1h-2zM12,10h3v1h-3zM19,10h3v1h-3zM12,11h3v1h-3zM19,11h3v1h-3zM15,13h1v1h-1zM17,13h1v1h-1zM16,14h1v1h-1z"/><path fill="#8b5e34" d="M15,17h1v1h-1zM14,18h4v1h-4zM15,19h2v1h-2z"/><path fill="#333c57" d="M16,17h1v1h-1z"/></svg>