<svg xmlns="http://www.w3.org/2000/svg" viewBox="0 0 32 32" shape-rendering="crispEdges"><path fill="#ffcd75" d="M10,2h11v1h-11ZM8,3h5v1h-5ZM20,4h2v1h-2ZM6,5h2v1h-2ZM20,6h2v1h-2ZM5,7h2v1h-2ZM20,8h2v1h-2ZM5,9h2v1h-2ZM20,10h2v1h-2ZM5,11h2v1h-2ZM20,12h2v1h-2ZM5,13h2v1h-2ZM20,14h2v1h-2ZM5,15h2v1h-2ZM20,16h2v1h-2ZM5,17h2v1h-2ZM20,18h2v1h-2ZM4,19h6v1h-6ZM12,19h3v1h-3ZM17,19h5v1h-5Z"/><path fill="#ef7d57" d="M13,3h8v1h-8ZM7,4h1v1h-1ZM9,4h1v1h-1ZM20,5h2v1h-2ZM5,6h3v1h-3ZM20,7h2v1h-2ZM5,8h2v1h-2ZM20,9h2v1h-2ZM5,10h2v1h-2ZM20,11h2v1h-2ZM20,13h2v1h-2ZM5,14h2v1h-2ZM20,15h2v1h-2ZM5,16h2v1h-2ZM20,17h2v1h-2ZM5,18h2v1h-2ZM3,20h5v1h-5ZM10,20h2v1h-2ZM15,20h2v1h-2ZM19,20h4v1h-4Z"/><path fill="#1a1c2c" d="M24,3h2v1h-2ZM24,4h1v1h-1ZM26,6h2v1h-2ZM23,7h2v1h-2ZM26,7h1v1h-1ZM23,8h1v1h-1ZM5,12h2v1h-2ZM10,19h2v1h-2ZM15,19h2v1h-2ZM12,20h3v1h-3Z"/><path fill="#94b0c2" d="M8,4h1v1h-1ZM10,4h1v1h-1ZM12,4h1v1h-1ZM14,4h1v1h-1ZM16,4h1v1h-1ZM18,4h1v1h-1ZM8,5h1v1h-1ZM10,5h1v1h-1ZM12,5h1v1h-1ZM14,5h1v1h-1ZM16,5h1v1h-1ZM18,5h1v1h-1ZM8,6h1v1h-1ZM10,6h1v1h-1ZM12,6h1v1h-1ZM14,6h1v1h-1ZM16,6h1v1h-1ZM18,6h1v1h-1ZM8,7h1v1h-1ZM10,7h1v1h-1ZM12,7h1v1h-1ZM14,7h1v1h-1ZM16,7h1v1h-1ZM18,7h1v1h-1ZM8,8h1v1h-1ZM10,8h1v1h-1ZM12,8h1v1h-1ZM14,8h1v1h-1ZM16,8h1v1h-1ZM18,8h1v1h-1ZM8,9h1v1h-1ZM10,9h1v1h-1ZM12,9h1v1h-1ZM14,9h1v1h-1ZM16,9h1v1h-1ZM18,9h1v1h-1ZM8,10h1v1h-1ZM10,10h1v1h-1ZM12,10h1v1h-1ZM14,10h1v1h-1ZM16,10h1v1h-1ZM18,10h1v1h-1ZM8,11h1v1h-1ZM10,11h1v1h-1ZM12,11h1v1h-1ZM14,11h1v1h-1ZM16,11h1v1h-1ZM18,11h1v1h-1ZM8,12h1v1h-1ZM10,12h1v1h-1ZM12,12h1v1h-1ZM14,12h1v1h-1ZM16,12h1v1h-1ZM18,12h1v1h-1ZM8,13h1v1h-1ZM10,13h1v1h-1ZM12,13h1v1h-1ZM14,13h1v1h-1ZM16,13h1v1h-1ZM18,13h1v1h-1ZM8,14h1v1h-1ZM10,14h1v1h-1ZM12,14h1v1h-1ZM14,14h1v1h-1ZM16,14h1v1h-1ZM18,14h1v1h-1ZM8,15h1v1h-1ZM10,15h1v1h-1ZM12,15h1v1h-1ZM14,15h1v1h-1ZM16,15h1v1h-1ZM18,15h1v1h-1ZM8,16h1v1h-1ZM10,16h1v1h-1ZM12,16h1v1h-1ZM14,16h1v1h-1ZM16,16h1v1h-1ZM18,16h1v1h-1ZM8,17h1v1h-1ZM10,17h1v1h-1ZM12,17h1v1h-1ZM14,17h1v1h-1ZM16,17h1v1h-1ZM18,17h1v1h-1ZM8,18h1v1h-1ZM10,18h1v1h-1ZM12,18h1v1h-1ZM14,18h1v1h-1ZM16,18h1v1h-1ZM18,18h1v1h-1Z"/><path fill="#ff9eb7" d="M8,20h2v1h-2ZM17,20h2v1h-2Z"/><path fill="#8b5e34" d="M4,21h18v1h-18Z"/></svg>