<svg xmlns="http://www.w3.org/2000/svg" viewBox="0 0 32 32" shape-rendering="crispEdges"><path fill="#566c86" d="M12,2h8v1h-8zM8,7h2v1h-2zM22,7h2v1h-2zM8,8h2v1h-2zM22,8h2v1h-2zM8,9h2v1h-2zM22,9h2v1h-2zM8,10h2v1h-2zM22,10h2v1h-2zM8,11h2v1h-2zM22,11h2v1h-2zM8,12h2v1h-2zM22,12h2v1h-2z"/><path fill="#333c57" d="M11,3h10v1h-10zM11,4h10v1h-10zM9,5h2v1h-2zM21,5h2v1h-2zM9,6h2v1h-2zM21,6h2v1h-2z"/><path fill="#73eff7" d="M30,8h2v1h-2zM30,9h1v1h-1z"/><path fill="#ffcd75" d="M1,10h2v1h-2zM1,11h1v1h-1z"/><path fill="#29366f" d="M7,12h1v1h-1zM25,12h1v1h-1zM4,13h3v1h-3zM8,13h3v1h-3zM22,13h3v1h-3zM26,13h3v1h-3zM3,14h2v1h-2zM10,14h2v1h-2zM21,14h2v1h-2zM28,14h2v1h-2zM3,15h1v1h-1zM11,15h1v1h-1zM21,15h1v1h-1zM29,15h1v1h-1zM3,16h1v1h-1zM11,16h1v1h-1zM21,16h1v1h-1zM29,16h1v1h-1zM2,17h1v1h-1zM12,17h1v1h-1zM20,17h1v1h-1zM30,17h1v1h-1zM3,18h1v1h-1zM11,18h1v1h-1zM21,18h1v1h-1zM29,18h1v1h-1zM3,19h1v1h-1zM11,19h1v1h-1zM21,19h1v1h-1zM29,19h1v1h-1zM3,20h2v1h-2zM10,20h2v1h-2zM21,20h2v1h-2zM28,20h2v1h-2zM4,21h3v1h-3zM8,21h3v1h-3zM22,21h3v1h-3zM26,21h3v1h-3zM7,22h1v1h-1zM25,22h1v1h-1z"/><path fill="#3b5dc9" d="M7,13h1v1h-1zM25,13h1v1h-1zM5,14h5v1h-5zM23,14h5v1h-5zM4,15h3v1h-3zM8,15h3v1h-3zM22,15h3v1h-3zM26,15h3v1h-3zM4,16h1v1h-1zM10,16h1v1h-1zM22,16h1v1h-1zM28,16h1v1h-1zM3,17h2v1h-2zM10,17h2v1h-2zM21,17h2v1h-2zM28,17h2v1h-2zM5,18h1v1h-1zM9,18h1v1h-1zM23,18h1v1h-1zM27,18h1v1h-1zM4,19h3v1h-3zM8,19h3v1h-3zM22,19h3v1h-3zM26,19h3v1h-3zM5,20h5v1h-5zM23,20h5v1h-5zM7,21h1v1h-1zM25,21h1v1h-1z"/><path fill="#94b0c2" d="M7,15h1v1h-1zM25,15h1v1h-1zM7,16h1v1h-1zM25,16h1v1h-1zM5,17h5v1h-5zM23,17h5v1h-5zM6,18h1v1h-1zM8,18h1v1h-1zM24,18h1v1h-1zM26,18h1v1h-1zM7,19h1v1h-1zM25,19h1v1h-1z"/><path fill="#1a1c2c" d="M5,16h2v1h-2zM8,16h2v1h-2zM23,16h2v1h-2zM26,16h2v1h-2zM7,18h1v1h-1zM25,18h1v1h-1z"/><path fill="#ff9eb7" d="M4,18h1v1h-1zM10,18h1v1h-1zM22,18h1v1h-1zM28,18h1v1h-1z"/><path fill="#a7f070" d="M14,26h2v1h-2zM14,27h1v1h-1z"/><path fill="#b13e53" d="M18,28h2v1h-2zM18,29h1v1h-1z"/></svg>