<svg xmlns="http://www.w3.org/2000/svg" viewBox="0 0 16 16" width="16" height="16">
  <!-- Classic pixel heart -->
  <!-- Top row -->
  <rect x="2" y="2" width="1" height="1" fill="#ef4444"/>
  <rect x="3" y="2" width="1" height="1" fill="#ef4444"/>
  <rect x="4" y="2" width="1" height="1" fill="#ef4444"/>
  <rect x="8" y="2" width="1" height="1" fill="#ef4444"/>
  <rect x="9" y="2" width="1" height="1" fill="#ef4444"/>
  <rect x="10" y="2" width="1" height="1" fill="#ef4444"/>
  <!-- Row 3 -->
  <rect x="1" y="3" width="1" height="1" fill="#ef4444"/>
  <rect x="2" y="3" width="1" height="1" fill="#f87171"/>
  <rect x="3" y="3" width="1" height="1" fill="#fca5a5"/>
  <rect x="4" y="3" width="1" height="1" fill="#f87171"/>
  <rect x="5" y="3" width="1" height="1" fill="#ef4444"/>
  <rect x="7" y="3" width="1" height="1" fill="#ef4444"/>
  <rect x="8" y="3" width="1" height="1" fill="#f87171"/>
  <rect x="9" y="3" width="1" height="1" fill="#f87171"/>
  <rect x="10" y="3" width="1" height="1" fill="#ef4444"/>
  <rect x="11" y="3" width="1" height="1" fill="#ef4444"/>
  <!-- Row 4 -->
  <rect x="1" y="4" width="1" height="1" fill="#ef4444"/>
  <rect x="2" y="4" width="1" height="1" fill="#fca5a5"/>
  <rect x="3" y="4" width="1" height="1" fill="#f87171"/>
  <rect x="4" y="4" width="1" height="1" fill="#ef4444"/>
  <rect x="5" y="4" width="1" height="1" fill="#ef4444"/>
  <rect x="6" y="4" width="1" height="1" fill="#ef4444"/>
  <rect x="7" y="4" width="1" height="1" fill="#ef4444"/>
  <rect x="8" y="4" width="1" height="1" fill="#ef4444"/>
  <rect x="9" y="4" width="1" height="1" fill="#ef4444"/>
  <rect x="10" y="4" width="1" height="1" fill="#dc2626"/>
  <rect x="11" y="4" width="1" height="1" fill="#ef4444"/>
  <rect x="12" y="4" width="1" height="1" fill="#ef4444"/>
  <!-- Row 5 -->
  <rect x="1" y="5" width="1" height="1" fill="#ef4444"/>
  <rect x="2" y="5" width="1" height="1" fill="#f87171"/>
  <rect x="3" y="5" width="1" height="1" fill="#ef4444"/>
  <rect x="4" y="5" width="1" height="1" fill="#ef4444"/>
  <rect x="5" y="5" width="1" height="1" fill="#ef4444"/>
  <rect x="6" y="5" width="1" height="1" fill="#ef4444"/>
  <rect x="7" y="5" width="1" height="1" fill="#ef4444"/>
  <rect x="8" y="5" width="1" height="1" fill="#ef4444"/>
  <rect x="9" y="5" width="1" height="1" fill="#dc2626"/>
  <rect x="10" y="5" width="1" height="1" fill="#dc2626"/>
  <rect x="11" y="5" width="1" height="1" fill="#dc2626"/>
  <rect x="12" y="5" width="1" height="1" fill="#ef4444"/>
  <rect x="13" y="5" width="1" height="1" fill="#ef4444"/>
  <!-- Row 6 -->
  <rect x="1" y="6" width="1" height="1" fill="#ef4444"/>
  <rect x="2" y="6" width="1" height="1" fill="#ef4444"/>
  <rect x="3" y="6" width="1" height="1" fill="#ef4444"/>
  <rect x="4" y="6" width="1" height="1" fill="#ef4444"/>
  <rect x="5" y="6" width="1" height="1" fill="#ef4444"/>
  <rect x="6" y="6" width="1" height="1" fill="#ef4444"/>
  <rect x="7" y="6" width="1" height="1" fill="#ef4444"/>
  <rect x="8" y="6" width="1" height="1" fill="#dc2626"/>
  <rect x="9" y="6" width="1" height="1" fill="#dc2626"/>
  <rect x="10" y="6" width="1" height="1" fill="#dc2626"/>
  <rect x="11" y="6" width="1" height="1" fill="#dc2626"/>
  <rect x="12" y="6" width="1" height="1" fill="#dc2626"/>
  <rect x="13" y="6" width="1" height="1" fill="#ef4444"/>
  <!-- Row 7 -->
  <rect x="2" y="7" width="1" height="1" fill="#ef4444"/>
  <rect x="3" y="7" width="1" height="1" fill="#ef4444"/>
  <rect x="4" y="7" width="1" height="1" fill="#ef4444"/>
  <rect x="5" y="7" width="1" height="1" fill="#ef4444"/>
  <rect x="6" y="7" width="1" height="1" fill="#ef4444"/>
  <rect x="7" y="7" width="1" height="1" fill="#dc2626"/>
  <rect x="8" y="7" width="1" height="1" fill="#dc2626"/>
  <rect x="9" y="7" width="1" height="1" fill="#dc2626"/>
  <rect x="10" y="7" width="1" height="1" fill="#dc2626"/>
  <rect x="11" y="7" width="1" height="1" fill="#dc2626"/>
  <rect x="12" y="7" width="1" height="1" fill="#dc2626"/>
  <!-- Row 8 -->
  <rect x="3" y="8" width="1" height="1" fill="#ef4444"/>
  <rect x="4" y="8" width="1" height="1" fill="#ef4444"/>
  <rect x="5" y="8" width="1" height="1" fill="#ef4444"/>
  <rect x="6" y="8" width="1" height="1" fill="#dc2626"/>
  <rect x="7" y="8" width="1" height="1" fill="#dc2626"/>
  <rect x="8" y="8" width="1" height="1" fill="#dc2626"/>
  <rect x="9" y="8" width="1" height="1" fill="#dc2626"/>
  <rect x="10" y="8" width="1" height="1" fill="#b91c1c"/>
  <rect x="11" y="8" width="1" height="1" fill="#dc2626"/>
  <!-- Row 9 -->
  <rect x="4" y="9" width="1" height="1" fill="#ef4444"/>
  <rect x="5" y="9" width="1" height="1" fill="#dc2626"/>
  <rect x="6" y="9" width="1" height="1" fill="#dc2626"/>
  <rect x="7" y="9" width="1" height="1" fill="#dc2626"/>
  <rect x="8" y="9" width="1" height="1" fill="#dc2626"/>
  <rect x="9" y="9" width="1" height="1" fill="#b91c1c"/>
  <rect x="10" y="9" width="1" height="1" fill="#dc2626"/>
  <!-- Row 10 -->
  <rect x="5" y="10" width="1" height="1" fill="#dc2626"/>
  <rect x="6" y="10" width="1" height="1" fill="#dc2626"/>
  <rect x="7" y="10" width="1" height="1" fill="#dc2626"/>
  <rect x="8" y="10" width="1" height="1" fill="#b91c1c"/>
  <rect x="9" y="10" width="1" height="1" fill="#dc2626"/>
  <!-- Row 11 -->
  <rect x="6" y="11" width="1" height="1" fill="#dc2626"/>
  <rect x="7" y="11" width="1" height="1" fill="#b91c1c"/>
  <rect x="8" y="11" width="1" height="1" fill="#dc2626"/>
  <!-- Row 12 - bottom point -->
  <rect x="7" y="12" width="1" height="1" fill="#b91c1c"/>
</svg>