<svg xmlns="http://www.w3.org/2000/svg" viewBox="0 0 32 32" shape-rendering="crispEdges"><path fill="#8b5e34" d="M15,3h1v1h-1zM12,4h1v1h-1zM14,4h3v1h-3zM18,4h1v1h-1zM9,5h1v1h-1zM11,5h3v1h-3zM17,5h3v1h-3zM21,5h1v1h-1zM8,6h3v1h-3zM20,6h2v1h-2zM6,7h1v1h-1zM24,7h1v1h-1zM6,8h19v1h-19zM5,9h1v1h-1zM25,9h1v1h-1zM7,10h17v1h-17zM9,12h13v1h-13zM11,20h2v1h-2zM19,20h2v1h-2zM12,21h2v1h-2zM18,21h2v1h-2z"/><path fill="#ef7d57" d="M7,7h17v1h-17zM6,9h19v1h-19zM8,11h15v1h-15z"/><path fill="#ffecd2" d="M11,13h10v1h-10zM10,14h12v1h-12zM10,15h12v1h-12zM10,16h12v1h-12zM10,17h12v1h-12zM11,18h10v1h-10zM12,19h8v1h-8z"/><path fill="#1a1c2c" d="M12,14h2v1h-2zM18,14h2v1h-2zM12,15h2v1h-2zM18,15h2v1h-2zM15,16h2v1h-2zM14,17h1v1h-1zM17,17h1v1h-1zM15,18h2v1h-2z"/><path fill="#f4f4f4" d="M12,14h1v1h-1zM18,14h1v1h-1z"/><path fill="#ff9eb7" d="M11,16h1v1h-1zM20,16h1v1h-1z"/><path fill="#38b764" d="M26,14h1v1h-1z"/><path fill="#b13e53" d="M25,15h2v1h-2zM26,15h2v1h-2zM25,16h3v1h-3zM25,17h3v1h-3z"/></svg>