<svg xmlns="http://www.w3.org/2000/svg" viewBox="0 0 32 32" shape-rendering="crispEdges"><path fill="#94b0c2" d="M1 6h1v1h-1zM4 6h1v1h-1zM27 6h1v1h-1zM30 6h1v1h-1zM0 9h1v1h-1zM0 15h1v1h-1z"/><path fill="#566c86" d="M2 7h13v1h-13zM17 7h13v1h-13zM15 8h2v1h-2zM15 9h2v1h-2zM0 10h1v1h-1zM15 10h2v1h-2zM0 11h1v1h-1zM0 12h1v1h-1zM0 13h1v1h-1zM0 14h1v1h-1zM7 21h1v1h-1zM20 21h1v1h-1zM7 22h14v1h-14zM5 23h18v1h-18z"/><path fill="#333c57" d="M15 7h2v1h-2z"/><path fill="#b13e53" d="M6 11h18v1h-18zM1 12h2v1h-2zM5 12h21v1h-21zM1 13h2v1h-2zM5 13h15v1h-15zM25 13h1v1h-1zM2 14h18v1h-18zM26 14h2v1h-2zM2 15h18v1h-18zM26 15h3v1h-3zM2 16h11v1h-11zM14 16h1v1h-1zM16 16h4v1h-4zM26 16h3v1h-3zM5 17h7v1h-7zM13 17h1v1h-1zM15 17h1v1h-1zM17 17h3v1h-3zM25 17h3v1h-3zM5 18h21v1h-21zM5 19h21v1h-21zM6 20h18v1h-18z"/><path fill="#41a6f6" d="M20 13h5v1h-5zM20 14h6v1h-6zM20 15h6v1h-6zM20 16h6v1h-6zM20 17h5v1h-5z"/><path fill="#1a1c2c" d="M13 16h1v1h-1zM15 16h1v1h-1zM14 17h1v1h-1z"/><path fill="#ff9eb7" d="M12 17h1v1h-1zM16 17h1v1h-1z"/></svg>