<svg xmlns="http://www.w3.org/2000/svg" viewBox="0 0 32 32" shape-rendering="crispEdges"><path fill="#b13e53" d="M8,5h16v1h-16ZM7,6h1v1h-1ZM9,6h1v1h-1ZM11,6h1v1h-1ZM13,6h1v1h-1ZM15,6h1v1h-1ZM17,6h1v1h-1ZM19,6h1v1h-1ZM21,6h1v1h-1ZM23,6h1v1h-1ZM6,7h2v1h-2ZM9,7h1v1h-1ZM11,7h1v1h-1ZM13,7h1v1h-1ZM15,7h1v1h-1ZM17,7h1v1h-1ZM19,7h1v1h-1ZM21,7h1v1h-1ZM23,7h3v1h-3ZM7,8h1v1h-1ZM9,8h1v1h-1ZM11,8h1v1h-1ZM13,8h1v1h-1ZM15,8h1v1h-1ZM17,8h1v1h-1ZM19,8h1v1h-1ZM21,8h1v1h-1ZM23,8h1v1h-1ZM8,9h2v1h-2ZM12,9h8v1h-8ZM22,9h2v1h-2Z"/><path fill="#f4f4f4" d="M8,6h1v1h-1ZM10,6h1v1h-1ZM12,6h1v1h-1ZM14,6h1v1h-1ZM16,6h1v1h-1ZM18,6h1v1h-1ZM20,6h1v1h-1ZM22,6h1v1h-1ZM24,6h1v1h-1ZM8,7h1v1h-1ZM10,7h1v1h-1ZM12,7h1v1h-1ZM14,7h1v1h-1ZM16,7h1v1h-1ZM18,7h1v1h-1ZM20,7h1v1h-1ZM22,7h1v1h-1ZM8,8h1v1h-1ZM10,8h1v1h-1ZM12,8h1v1h-1ZM14,8h1v1h-1ZM16,8h1v1h-1ZM18,8h1v1h-1ZM20,8h1v1h-1ZM22,8h1v1h-1ZM24,8h1v1h-1ZM30,9h1v1h-1ZM29,10h2v1h-2ZM29,11h1v1h-1ZM9,14h1v1h-1ZM9,15h1v1h-1ZM9,16h1v1h-1Z"/><path fill="#ffcd75" d="M10,9h2v1h-2ZM20,9h2v1h-2ZM26,10h3v1h-3ZM26,12h3v1h-3ZM8,13h16v1h-16ZM7,15h2v1h-2ZM10,15h14v1h-14ZM7,17h5v1h-5ZM14,17h4v1h-4ZM20,17h5v1h-5ZM7,19h3v1h-3ZM12,19h3v1h-3ZM17,19h3v1h-3ZM22,19h3v1h-3ZM7,21h18v1h-18ZM7,23h18v1h-18Z"/><path fill="#94b0c2" d="M10,10h12v1h-12ZM10,11h12v1h-12ZM9,12h14v1h-14ZM9,25h14v1h-14Z"/><path fill="#1a1c2c" d="M26,11h3v1h-3ZM12,17h2v1h-2ZM18,17h2v1h-2ZM15,19h2v1h-2ZM14,20h1v1h-1ZM17,20h1v1h-1Z"/><path fill="#ef7d57" d="M7,14h2v1h-2ZM10,14h15v1h-15ZM24,15h1v1h-1ZM7,16h2v1h-2ZM10,16h15v1h-15ZM7,18h18v1h-18ZM7,20h7v1h-7ZM15,20h2v1h-2ZM18,20h7v1h-7ZM7,22h18v1h-18ZM8,24h16v1h-16Z"/><path fill="#ff9eb7" d="M10,19h2v1h-2ZM20,19h2v1h-2Z"/></svg>