<svg xmlns="http://www.w3.org/2000/svg" width="32" height="32" viewBox="0 0 32 32" shape-rendering="crispEdges">
<path fill="#ffcd75" d="M14 4h1v1h-1zM16 4h1v1h-1zM18 4h1v1h-1zM14 5h5v1h-5zM9 7h14v1h-14zM9 8h3v1h-3zM13 8h3v1h-3zM17 8h3v1h-3zM21 8h2v1h-2zM9 9h3v1h-3zM13 9h3v1h-3zM17 9h3v1h-3zM21 9h2v1h-2zM9 10h3v1h-3zM19 10h1v1h-1zM21 10h2v1h-2zM9 11h3v1h-3zM19 11h1v1h-1zM21 11h2v1h-2zM9 12h3v1h-3zM19 12h1v1h-1zM21 12h2v1h-2zM9 13h3v1h-3zM19 13h1v1h-1zM21 13h2v1h-2zM9 14h2v1h-2zM13 14h3v1h-3zM17 14h3v1h-3zM22 14h1v1h-1zM11 15h1v1h-1zM13 15h3v1h-3zM17 15h3v1h-3zM21 15h1v1h-1zM9 16h3v1h-3zM13 16h1v1h-1zM18 16h2v1h-2zM21 16h2v1h-2zM9 17h3v1h-3zM13 17h3v1h-3zM17 17h3v1h-3zM21 17h2v1h-2zM10 21h1v1h-1zM22 21h1v1h-1zM9 22h3v1h-3zM21 22h3v1h-3zM10 23h1v1h-1zM22 23h1v1h-1z"/><path fill="#ef7d57" d="M10 6h12v1h-12zM8 8h1v1h-1zM12 8h1v1h-1zM16 8h1v1h-1zM20 8h1v1h-1zM23 8h1v1h-1zM8 9h1v1h-1zM12 9h1v1h-1zM16 9h1v1h-1zM20 9h1v1h-1zM23 9h1v1h-1zM8 10h1v1h-1zM12 10h1v1h-1zM20 10h1v1h-1zM23 10h1v1h-1zM8 11h1v1h-1zM12 11h1v1h-1zM20 11h1v1h-1zM23 11h1v1h-1zM8 12h1v1h-1zM12 12h1v1h-1zM20 12h1v1h-1zM23 12h1v1h-1zM8 13h1v1h-1zM12 13h1v1h-1zM20 13h1v1h-1zM23 13h1v1h-1zM8 14h1v1h-1zM12 14h1v1h-1zM16 14h1v1h-1zM20 14h1v1h-1zM23 14h1v1h-1zM8 15h1v1h-1zM12 15h1v1h-1zM16 15h1v1h-1zM20 15h1v1h-1zM8 16h1v1h-1zM12 16h1v1h-1zM20 16h1v1h-1zM23 16h1v1h-1zM8 17h1v1h-1zM12 17h1v1h-1zM16 17h1v1h-1zM20 17h1v1h-1zM23 17h1v1h-1zM9 18h14v1h-14z"/><path fill="#41a6f6" d="M13 10h6v1h-6zM13 11h1v1h-1zM18 11h1v1h-1zM13 12h1v1h-1zM18 12h1v1h-1zM13 13h6v1h-6z"/><path fill="#73eff7" d="M14 11h4v1h-4zM14 12h4v1h-4z"/><path fill="#1a1c2c" d="M11 14h1v1h-1zM21 14h1v1h-1zM14 16h1v1h-1zM17 16h1v1h-1z"/><path fill="#ff9eb7" d="M9 15h2v1h-2zM22 15h2v1h-2zM15 16h2v1h-2z"/><path fill="#333c57" d="M10 19h13v1h-13zM10 20h1v1h-1zM22 20h1v1h-1z"/><path fill="#8b5e34" d="M8 20h2v1h-2zM11 20h2v1h-2zM20 20h2v1h-2zM23 20h2v1h-2zM8 21h2v1h-2zM11 21h2v1h-2zM20 21h2v1h-2zM23 21h2v1h-2zM7 22h2v1h-2zM12 22h2v1h-2zM19 22h2v1h-2zM24 22h2v1h-2zM8 23h2v1h-2zM11 23h2v1h-2zM20 23h2v1h-2zM23 23h2v1h-2zM8 24h5v1h-5zM20 24h5v1h-5zM10 25h1v1h-1zM22 25h1v1h-1z"/>
</svg>