<svg xmlns="http://www.w3.org/2000/svg" viewBox="0 0 32 32" shape-rendering="crispEdges"><path fill="#b13e53" d="M16 2h1v1h-1zM13 3h7v1h-7zM11 4h11v1h-11zM10 5h13v1h-13zM9 12h6v1h-6zM18 12h6v1h-6zM9 13h7v1h-7zM17 13h7v1h-7zM10 14h13v1h-13z"/><path fill="#ffcd75" d="M10 6h13v1h-13zM9 7h15v1h-15zM9 8h15v1h-15zM10 15h13v1h-13zM11 16h11v1h-11zM14 19h4v1h-4zM15 22h2v1h-2z"/><path fill="#f4f4f4" d="M2 7h1v1h-1zM1 8h4v1h-4zM1 9h4v1h-4zM14 9h1v1h-1zM18 9h1v1h-1zM27 13h1v1h-1zM26 14h4v1h-4zM26 15h4v1h-4zM0 20h3v1h-3zM0 21h3v1h-3z"/><path fill="#3b5dc9" d="M9 9h5v1h-5zM15 9h3v1h-3zM19 9h5v1h-5zM8 10h6v1h-6zM15 10h3v1h-3zM19 10h6v1h-6zM9 11h3v1h-3zM14 11h5v1h-5zM21 11h3v1h-3zM13 17h7v1h-7zM16 18h1v1h-1z"/><path fill="#1a1c2c" d="M14 10h1v1h-1zM18 10h1v1h-1zM15 12h3v1h-3zM16 13h1v1h-1z"/><path fill="#ff9eb7" d="M12 11h2v1h-2zM19 11h2v1h-2z"/><path fill="#ef7d57" d="M15 20h2v1h-2zM15 21h2v1h-2zM13 24h6v1h-6z"/><path fill="#94b0c2" d="M13 21h1v1h-1zM18 21h1v1h-1zM12 22h1v1h-1zM19 22h1v1h-1zM12 23h1v1h-1zM19 23h1v1h-1z"/><path fill="#8b5e34" d="M12 24h1v1h-1zM19 24h1v1h-1zM12 25h8v1h-8zM12 26h8v1h-8zM12 27h8v1h-8z"/></svg>