<svg xmlns="http://www.w3.org/2000/svg" viewBox="0 0 32 32" shape-rendering="crispEdges"><path fill="#ffecd2" d="M9,9h14v1h-14ZM6,11h6v1h-6ZM14,11h4v1h-4ZM20,11h6v1h-6ZM5,13h2v1h-2ZM8,13h1v1h-1ZM10,13h1v1h-1ZM12,13h1v1h-1ZM18,13h1v1h-1ZM20,13h1v1h-1ZM22,13h1v1h-1ZM24,13h3v1h-3ZM4,17h24v1h-24ZM4,19h24v1h-24ZM6,21h20v1h-20ZM9,23h14v1h-14Z"/><path fill="#ef7d57" d="M7,10h18v1h-18ZM5,12h4v1h-4ZM11,12h10v1h-10ZM23,12h4v1h-4ZM5,16h3v1h-3ZM9,16h1v1h-1ZM11,16h1v1h-1ZM13,16h1v1h-1ZM15,16h1v1h-1ZM17,16h1v1h-1ZM19,16h1v1h-1ZM21,16h1v1h-1ZM23,16h4v1h-4ZM4,18h24v1h-24ZM5,20h22v1h-22ZM7,22h18v1h-18Z"/><path fill="#1a1c2c" d="M12,11h2v1h-2ZM18,11h2v1h-2ZM14,13h4v1h-4Z"/><path fill="#ff9eb7" d="M9,12h2v1h-2ZM21,12h2v1h-2Z"/><path fill="#ffcd75" d="M7,13h1v1h-1ZM9,13h1v1h-1ZM11,13h1v1h-1ZM13,13h1v1h-1ZM19,13h1v1h-1ZM21,13h1v1h-1ZM23,13h1v1h-1ZM8,14h1v1h-1ZM10,14h1v1h-1ZM12,14h1v1h-1ZM14,14h1v1h-1ZM16,14h1v1h-1ZM18,14h1v1h-1ZM20,14h1v1h-1ZM22,14h1v1h-1Z"/><path fill="#b13e53" d="M4,14h4v1h-4ZM9,14h1v1h-1ZM11,14h1v1h-1ZM13,14h1v1h-1ZM15,14h1v1h-1ZM17,14h1v1h-1ZM19,14h1v1h-1ZM21,14h1v1h-1ZM23,14h5v1h-5ZM4,15h1v1h-1ZM7,15h1v1h-1ZM9,15h1v1h-1ZM11,15h1v1h-1ZM13,15h1v1h-1ZM15,15h1v1h-1ZM17,15h1v1h-1ZM19,15h1v1h-1ZM21,15h1v1h-1ZM23,15h1v1h-1ZM27,15h1v1h-1ZM8,16h1v1h-1ZM10,16h1v1h-1ZM12,16h1v1h-1ZM14,16h1v1h-1ZM16,16h1v1h-1ZM18,16h1v1h-1ZM20,16h1v1h-1ZM22,16h1v1h-1Z"/><path fill="#8b5e34" d="M5,15h2v1h-2ZM8,15h1v1h-1ZM10,15h1v1h-1ZM12,15h1v1h-1ZM14,15h1v1h-1ZM16,15h1v1h-1ZM18,15h1v1h-1ZM20,15h1v1h-1ZM22,15h1v1h-1ZM24,15h3v1h-3Z"/></svg>