<svg xmlns="http://www.w3.org/2000/svg" viewBox="0 0 32 32" shape-rendering="crispEdges"><path fill="#38b764" d="M18,0h1v1h-1zM17,1h1v1h-1z"/><path fill="#b13e53" d="M16,2h2v1h-2zM16,3h2v1h-2zM13,7h1v1h-1zM19,7h1v1h-1z"/><path fill="#ff9eb7" d="M15,4h3v1h-3zM14,5h5v1h-5zM13,6h1v1h-1zM15,6h3v1h-3zM19,6h1v1h-1zM14,7h5v1h-5zM13,8h2v1h-2zM16,8h1v1h-1zM18,8h2v1h-2zM14,9h2v1h-2zM17,9h2v1h-2zM15,10h3v1h-3zM13,19h1v1h-1zM13,20h1v1h-1z"/><path fill="#333c57" d="M14,6h1v1h-1zM18,6h1v1h-1zM15,8h1v1h-1zM17,8h1v1h-1zM16,9h1v1h-1z"/><path fill="#ffecd2" d="M13,10h2v1h-2zM18,10h2v1h-2zM13,11h7v1h-7zM13,12h7v1h-7zM14,13h5v1h-5zM15,14h3v1h-3z"/><path fill="#a7f070" d="M13,14h2v1h-2zM18,14h2v1h-2zM13,15h7v1h-7zM13,16h7v1h-7zM14,17h5v1h-5zM15,18h3v1h-3zM20,18h1v1h-1zM20,19h1v1h-1z"/><path fill="#8b5e34" d="M9,18h1v1h-1zM11,18h1v1h-1zM13,18h1v1h-1zM19,18h1v1h-1zM21,18h1v1h-1zM10,19h1v1h-1zM12,19h1v1h-1zM14,19h1v1h-1zM16,19h1v1h-1zM18,19h1v1h-1zM11,20h1v1h-1zM15,20h1v1h-1zM17,20h1v1h-1zM19,20h1v1h-1zM21,20h1v1h-1zM12,21h1v1h-1zM14,21h1v1h-1zM16,21h1v1h-1zM18,21h1v1h-1zM20,21h1v1h-1zM11,22h1v1h-1zM13,22h1v1h-1zM15,22h1v1h-1zM17,22h1v1h-1zM19,22h1v1h-1zM12,23h1v1h-1zM14,23h1v1h-1zM16,23h1v1h-1zM18,23h1v1h-1zM13,24h1v1h-1zM15,24h1v1h-1zM17,24h1v1h-1zM19,24h1v1h-1zM14,25h1v1h-1zM16,25h1v1h-1zM18,25h1v1h-1zM13,26h1v1h-1zM15,26h1v1h-1zM17,26h1v1h-1zM14,27h1v1h-1zM16,27h1v1h-1zM15,28h1v1h-1zM16,29h1v1h-1z"/><path fill="#ef7d57" d="M10,18h1v1h-1zM12,18h1v1h-1zM14,18h1v1h-1zM18,18h1v1h-1zM22,18h1v1h-1zM11,19h1v1h-1zM15,19h1v1h-1zM17,19h1v1h-1zM19,19h1v1h-1zM21,19h1v1h-1zM10,20h1v1h-1zM12,20h1v1h-1zM14,20h1v1h-1zM16,20h1v1h-1zM18,20h1v1h-1zM20,20h1v1h-1zM11,21h1v1h-1zM13,21h1v1h-1zM15,21h1v1h-1zM17,21h1v1h-1zM19,21h1v1h-1zM12,22h1v1h-1zM14,22h1v1h-1zM16,22h1v1h-1zM18,22h1v1h-1zM20,22h1v1h-1zM13,23h1v1h-1zM15,23h1v1h-1zM17,23h1v1h-1zM19,23h1v1h-1zM12,24h1v1h-1zM14,24h1v1h-1zM16,24h1v1h-1zM18,24h1v1h-1zM13,25h1v1h-1zM15,25h1v1h-1zM17,25h1v1h-1zM14,26h1v1h-1zM16,26h1v1h-1zM18,26h1v1h-1zM15,27h1v1h-1zM17,27h1v1h-1zM16,28h1v1h-1zM15,29h1v1h-1z"/></svg>