<svg xmlns="http://www.w3.org/2000/svg" viewBox="0 0 32 32" shape-rendering="crispEdges"><path fill="#29366f" d="M0,0h32v1h-32zM0,1h32v1h-32zM0,2h7v1h-7zM8,2h17v1h-17zM26,2h6v1h-6zM0,3h14v1h-14zM15,3h17v1h-17zM0,4h3v1h-3zM4,4h18v1h-18zM23,4h9v1h-9zM0,5h2v1h-2zM6,5h26v1h-26zM0,6h10v1h-10zM11,6h17v1h-17zM29,6h3v1h-3zM0,7h21v1h-21zM22,7h10v1h-10zM0,8h1v1h-1zM2,8h18v1h-18zM21,8h11v1h-11zM0,9h21v1h-21zM22,9h10v1h-10zM0,10h5v1h-5zM6,10h14v1h-14zM21,10h11v1h-11zM0,11h20v1h-20zM21,11h11v1h-11zM0,12h12v1h-12zM21,12h11v1h-11zM0,13h10v1h-10zM22,13h10v1h-10zM0,14h9v1h-9zM23,14h9v1h-9zM0,15h8v1h-8zM24,15h8v1h-8zM0,16h7v1h-7zM25,16h7v1h-7zM0,17h7v1h-7zM25,17h7v1h-7zM0,18h6v1h-6zM26,18h6v1h-6zM0,19h6v1h-6zM26,19h6v1h-6zM0,20h6v1h-6zM26,20h1v1h-1zM28,20h1v1h-1zM30,20h2v1h-2zM0,21h5v1h-5zM30,21h2v1h-2zM0,22h5v1h-5zM30,22h2v1h-2zM0,23h5v1h-5zM30,23h2v1h-2z"/><path fill="#f4f4f4" d="M7,2h1v1h-1zM25,2h1v1h-1zM14,3h1v1h-1zM3,4h1v1h-1zM22,4h1v1h-1zM10,6h1v1h-1zM28,6h1v1h-1zM1,8h1v1h-1zM5,10h1v1h-1zM12,12h8v1h-8zM10,13h10v1h-10zM21,13h1v1h-1zM10,14h3v1h-3zM14,14h3v1h-3zM18,14h3v1h-3zM22,14h1v1h-1zM9,15h1v1h-1zM11,15h1v1h-1zM13,15h1v1h-1zM15,15h1v1h-1zM17,15h1v1h-1zM19,15h1v1h-1zM21,15h1v1h-1zM23,15h1v1h-1zM7,16h2v1h-2zM10,16h3v1h-3zM14,16h3v1h-3zM18,16h3v1h-3zM22,16h3v1h-3zM8,17h1v1h-1zM10,17h1v1h-1zM12,17h1v1h-1zM14,17h1v1h-1zM16,17h1v1h-1zM18,17h1v1h-1zM20,17h1v1h-1zM22,17h1v1h-1zM24,17h1v1h-1zM6,18h1v1h-1zM8,18h3v1h-3zM12,18h3v1h-3zM16,18h3v1h-3zM20,18h3v1h-3zM24,18h2v1h-2zM7,19h1v1h-1zM9,19h1v1h-1zM11,19h1v1h-1zM13,19h1v1h-1zM15,19h1v1h-1zM17,19h1v1h-1zM19,19h1v1h-1zM21,19h1v1h-1zM23,19h1v1h-1zM25,19h1v1h-1zM6,20h1v1h-1zM8,20h3v1h-3zM12,20h2v1h-2zM18,20h1v1h-1zM20,20h3v1h-3zM24,20h2v1h-2zM27,20h1v1h-1zM29,20h1v1h-1zM5,21h1v1h-1zM7,21h1v1h-1zM9,21h1v1h-1zM11,21h1v1h-1zM19,21h1v1h-1zM21,21h1v1h-1zM23,21h1v1h-1zM25,21h5v1h-5zM5,22h4v1h-4zM10,22h3v1h-3zM19,22h2v1h-2zM22,22h3v1h-3zM26,22h1v1h-1zM6,23h1v1h-1zM8,23h1v1h-1zM10,23h1v1h-1zM12,23h1v1h-1zM19,23h2v1h-2zM22,23h1v1h-1zM24,23h1v1h-1zM26,23h2v1h-2zM29,23h1v1h-1zM0,24h32v1h-32zM0,25h32v1h-32zM0,26h32v1h-32zM0,27h32v1h-32zM0,28h32v1h-32zM0,29h32v1h-32zM0,30h32v1h-32zM0,31h32v1h-32z"/><path fill="#73eff7" d="M2,5h1v1h-1zM4,5h1v1h-1z"/><path fill="#a7f070" d="M3,5h1v1h-1zM5,5h1v1h-1z"/><path fill="#94b0c2" d="M21,7h1v1h-1zM20,8h1v1h-1zM21,9h1v1h-1zM20,10h1v1h-1zM20,11h1v1h-1zM9,14h1v1h-1zM13,14h1v1h-1zM17,14h1v1h-1zM21,14h1v1h-1zM8,15h1v1h-1zM10,15h1v1h-1zM12,15h1v1h-1zM14,15h1v1h-1zM16,15h1v1h-1zM18,15h1v1h-1zM20,15h1v1h-1zM22,15h1v1h-1zM9,16h1v1h-1zM13,16h1v1h-1zM17,16h1v1h-1zM21,16h1v1h-1zM7,17h1v1h-1zM9,17h1v1h-1zM11,17h1v1h-1zM13,17h1v1h-1zM15,17h1v1h-1zM17,17h1v1h-1zM19,17h1v1h-1zM21,17h1v1h-1zM23,17h1v1h-1zM7,18h1v1h-1zM11,18h1v1h-1zM15,18h1v1h-1zM19,18h1v1h-1zM23,18h1v1h-1zM6,19h1v1h-1zM8,19h1v1h-1zM10,19h1v1h-1zM12,19h1v1h-1zM14,19h1v1h-1zM16,19h1v1h-1zM18,19h1v1h-1zM20,19h1v1h-1zM22,19h1v1h-1zM24,19h1v1h-1zM7,20h1v1h-1zM11,20h1v1h-1zM19,20h1v1h-1zM23,20h1v1h-1zM6,21h1v1h-1zM8,21h1v1h-1zM10,21h1v1h-1zM12,21h1v1h-1zM20,21h1v1h-1zM22,21h1v1h-1zM24,21h1v1h-1zM9,22h1v1h-1zM21,22h1v1h-1zM25,22h1v1h-1zM5,23h1v1h-1zM7,23h1v1h-1zM9,23h1v1h-1zM11,23h1v1h-1zM21,23h1v1h-1zM23,23h1v1h-1zM25,23h1v1h-1z"/><path fill="#566c86" d="M20,12h1v1h-1zM20,13h1v1h-1z"/><path fill="#333c57" d="M14,20h4v1h-4zM13,21h6v1h-6zM13,22h6v1h-6zM13,23h6v1h-6z"/><path fill="#1a1c2c" d="M27,22h1v1h-1zM29,22h1v1h-1zM28,23h1v1h-1z"/><path fill="#ff9eb7" d="M28,22h1v1h-1z"/></svg>