<svg xmlns="http://www.w3.org/2000/svg" width="32" height="32" viewBox="0 0 32 32" shape-rendering="crispEdges">
<path fill="#38b764" d="M20 2h1v1h-1zM14 3h4v1h-4zM19 3h1v1h-1zM13 4h6v1h-6zM14 5h4v1h-4z"/><path fill="#a7f070" d="M20 3h1v1h-1z"/><path fill="#1a1c2c" d="M24 3h2v1h-2zM27 3h2v1h-2zM23 4h1v1h-1zM26 4h1v1h-1zM29 4h1v1h-1zM3 5h1v1h-1zM5 5h1v1h-1zM2 6h1v1h-1zM4 6h1v1h-1zM6 6h1v1h-1z"/><path fill="#ef7d57" d="M9 6h14v1h-14zM7 7h18v1h-18zM6 8h5v1h-5zM12 8h4v1h-4zM17 8h4v1h-4zM22 8h4v1h-4zM5 9h6v1h-6zM12 9h4v1h-4zM17 9h4v1h-4zM22 9h5v1h-5zM5 10h6v1h-6zM12 10h4v1h-4zM17 10h4v1h-4zM22 10h5v1h-5zM5 11h4v1h-4zM10 11h1v1h-1zM12 11h4v1h-4zM17 11h4v1h-4zM23 11h4v1h-4zM5 12h3v1h-3zM12 12h4v1h-4zM17 12h4v1h-4zM24 12h3v1h-3zM5 13h2v1h-2zM12 13h4v1h-4zM17 13h3v1h-3zM25 13h2v1h-2zM5 14h2v1h-2zM12 14h4v1h-4zM17 14h3v1h-3zM25 14h2v1h-2zM5 15h6v1h-6zM12 15h4v1h-4zM17 15h4v1h-4zM22 15h5v1h-5zM5 16h5v1h-5zM11 16h3v1h-3zM15 16h1v1h-1zM17 16h1v1h-1zM19 16h2v1h-2zM23 16h4v1h-4zM5 17h4v1h-4zM23 17h4v1h-4zM5 18h6v1h-6zM13 18h3v1h-3zM17 18h3v1h-3zM21 18h6v1h-6zM6 19h5v1h-5zM12 19h4v1h-4zM17 19h4v1h-4zM22 19h4v1h-4zM7 20h4v1h-4zM12 20h4v1h-4zM17 20h4v1h-4zM22 20h3v1h-3zM8 21h16v1h-16zM10 22h12v1h-12z"/><path fill="#b13e53" d="M11 8h1v1h-1zM16 8h1v1h-1zM21 8h1v1h-1zM11 9h1v1h-1zM16 9h1v1h-1zM21 9h1v1h-1zM11 10h1v1h-1zM16 10h1v1h-1zM21 10h1v1h-1zM11 11h1v1h-1zM16 11h1v1h-1zM21 11h1v1h-1zM11 12h1v1h-1zM16 12h1v1h-1zM16 13h1v1h-1zM16 14h1v1h-1zM11 15h1v1h-1zM16 15h1v1h-1zM21 15h1v1h-1zM16 16h1v1h-1zM21 16h1v1h-1zM11 18h1v1h-1zM11 19h1v1h-1zM16 19h1v1h-1zM21 19h1v1h-1zM11 20h1v1h-1zM16 20h1v1h-1zM21 20h1v1h-1z"/><path fill="#ffcd75" d="M9 11h1v1h-1zM22 11h1v1h-1zM8 12h3v1h-3zM21 12h3v1h-3zM7 13h5v1h-5zM20 13h5v1h-5zM7 14h5v1h-5zM20 14h5v1h-5zM10 16h1v1h-1zM14 16h1v1h-1zM18 16h1v1h-1zM22 16h1v1h-1zM9 17h14v1h-14zM12 18h1v1h-1zM16 18h1v1h-1zM20 18h1v1h-1z"/>
</svg>