<svg xmlns="http://www.w3.org/2000/svg" viewBox="0 0 32 32" shape-rendering="crispEdges"><path fill="#f4f4f4" d="M16,2h1v1h-1zM16,4h1v1h-1zM16,6h1v1h-1zM14,7h1v1h-1zM11,14h4v1h-4zM16,14h1v1h-1zM18,14h3v1h-3zM11,15h3v1h-3zM16,15h1v1h-1zM19,15h2v1h-2zM11,16h3v1h-3zM16,16h1v1h-1zM19,16h2v1h-2zM11,17h10v1h-10zM11,18h10v1h-10z"/><path fill="#b13e53" d="M16,3h1v1h-1zM16,5h1v1h-1zM15,7h1v1h-1zM17,15h2v1h-2zM17,16h2v1h-2z"/><path fill="#ef7d57" d="M12,7h2v1h-2zM17,7h3v1h-3zM10,9h12v1h-12zM9,10h14v1h-14zM9,11h1v1h-1zM22,11h1v1h-1zM9,12h1v1h-1zM22,12h1v1h-1zM9,13h1v1h-1zM22,13h1v1h-1zM7,14h1v1h-1zM9,14h1v1h-1zM22,14h1v1h-1zM9,15h1v1h-1zM14,15h2v1h-2zM22,15h1v1h-1zM25,15h1v1h-1zM6,16h1v1h-1zM9,16h1v1h-1zM14,16h2v1h-2zM22,16h1v1h-1zM9,17h1v1h-1zM22,17h1v1h-1zM9,18h1v1h-1zM22,18h1v1h-1zM24,18h1v1h-1zM9,19h1v1h-1zM22,19h1v1h-1zM9,20h1v1h-1zM22,20h1v1h-1zM9,21h1v1h-1zM22,21h1v1h-1zM9,22h1v1h-1zM22,22h1v1h-1zM9,23h1v1h-1zM22,23h1v1h-1zM9,24h1v1h-1zM22,24h1v1h-1zM9,25h1v1h-1zM22,25h1v1h-1zM9,26h1v1h-1zM22,26h1v1h-1zM9,27h1v1h-1zM22,27h1v1h-1zM9,28h14v1h-14z"/><path fill="#333c57" d="M16,7h1v1h-1z"/><path fill="#ffcd75" d="M11,8h10v1h-10zM10,11h12v1h-12zM10,12h12v1h-12zM10,13h12v1h-12zM10,14h1v1h-1zM21,14h1v1h-1zM10,15h1v1h-1zM21,15h1v1h-1zM10,16h1v1h-1zM21,16h1v1h-1zM10,17h1v1h-1zM21,17h1v1h-1zM10,18h1v1h-1zM21,18h1v1h-1zM10,19h12v1h-12zM5,20h1v1h-1zM10,20h12v1h-12zM10,21h3v1h-3zM14,21h1v1h-1zM16,21h1v1h-1zM18,21h1v1h-1zM20,21h2v1h-2zM10,22h4v1h-4zM15,22h3v1h-3zM19,22h3v1h-3zM10,23h2v1h-2zM14,23h5v1h-5zM21,23h1v1h-1zM10,24h5v1h-5zM16,24h1v1h-1zM18,24h4v1h-4zM10,25h6v1h-6zM17,25h5v1h-5zM10,26h12v1h-12zM10,27h12v1h-12z"/><path fill="#38b764" d="M15,14h1v1h-1zM17,14h1v1h-1z"/><path fill="#1a1c2c" d="M13,21h1v1h-1zM15,21h1v1h-1zM17,21h1v1h-1zM19,21h1v1h-1zM14,22h1v1h-1zM18,22h1v1h-1zM15,24h1v1h-1zM17,24h1v1h-1zM16,25h1v1h-1z"/><path fill="#ff9eb7" d="M12,23h2v1h-2zM19,23h2v1h-2z"/></svg>