<svg xmlns="http://www.w3.org/2000/svg" width="32" height="32" viewBox="0 0 32 32" shape-rendering="crispEdges">
<path fill="#f4f4f4" d="M5 3h1v1h-1zM12 4h2v1h-2zM11 5h2v1h-2zM25 5h1v1h-1zM10 6h2v1h-2zM8 8h1v1h-1zM26 9h1v1h-1zM15 13h1v1h-1zM7 14h1v1h-1zM15 14h1v1h-1zM24 14h1v1h-1zM3 18h1v1h-1zM27 22h1v1h-1z"/><path fill="#ffcd75" d="M14 4h6v1h-6zM13 5h8v1h-8zM12 6h1v1h-1zM19 6h3v1h-3zM10 7h2v1h-2zM20 7h2v1h-2zM10 8h2v1h-2zM20 8h2v1h-2zM10 9h4v1h-4zM18 9h4v1h-4zM10 10h4v1h-4zM18 10h4v1h-4zM11 11h10v1h-10zM12 12h8v1h-8zM16 13h1v1h-1zM16 14h1v1h-1zM15 15h2v1h-2zM15 16h2v1h-2zM15 17h2v1h-2zM15 18h2v1h-2zM15 19h2v1h-2zM15 20h2v1h-2zM15 21h2v1h-2zM15 22h2v1h-2zM18 22h2v1h-2zM15 23h5v1h-5zM15 24h2v1h-2zM15 25h2v1h-2zM18 25h3v1h-3zM15 26h6v1h-6zM15 27h2v1h-2zM15 28h2v1h-2zM18 28h1v1h-1zM15 29h4v1h-4z"/><path fill="#ef7d57" d="M13 6h6v1h-6zM12 7h2v1h-2zM18 7h2v1h-2zM15 8h2v1h-2zM15 9h2v1h-2zM14 15h1v1h-1zM17 15h1v1h-1zM14 19h1v1h-1zM17 19h1v1h-1zM17 22h1v1h-1zM17 25h1v1h-1zM17 28h1v1h-1z"/>
</svg>