<svg xmlns="http://www.w3.org/2000/svg" viewBox="0 0 32 32" shape-rendering="crispEdges"><path fill="#f4f4f4" d="M5,3h4v1h-4zM8,3h3v1h-3zM10,3h3v1h-3zM12,3h3v1h-3zM14,3h3v1h-3zM16,3h3v1h-3zM18,3h3v1h-3zM20,3h3v1h-3zM22,3h3v1h-3zM24,3h2v1h-2zM6,4h2v1h-2zM7,4h2v1h-2zM8,4h2v1h-2zM9,4h2v1h-2zM10,4h2v1h-2zM11,4h2v1h-2zM12,4h2v1h-2zM13,4h2v1h-2zM14,4h2v1h-2zM15,4h2v1h-2zM16,4h2v1h-2zM17,4h2v1h-2zM18,4h2v1h-2zM19,4h2v1h-2zM20,4h2v1h-2zM21,4h2v1h-2zM22,4h2v1h-2zM23,4h2v1h-2zM24,4h1v1h-1zM6,5h2v1h-2zM7,5h2v1h-2zM8,5h2v1h-2zM9,5h2v1h-2zM10,5h2v1h-2zM11,5h2v1h-2zM12,5h2v1h-2zM13,5h3v1h-3zM15,5h2v1h-2zM16,5h2v1h-2zM17,5h2v1h-2zM18,5h2v1h-2zM19,5h2v1h-2zM20,5h2v1h-2zM21,5h2v1h-2zM22,5h2v1h-2zM23,5h2v1h-2zM6,6h4v1h-4zM9,6h2v1h-2zM10,6h2v1h-2zM11,6h2v1h-2zM12,6h2v1h-2zM13,6h3v1h-3zM15,6h2v1h-2zM16,6h3v1h-3zM18,6h2v1h-2zM19,6h2v1h-2zM20,6h2v1h-2zM21,6h5v1h-5zM5,7h6v1h-6zM10,7h2v1h-2zM11,7h2v1h-2zM12,7h4v1h-4zM15,7h2v1h-2zM16,7h3v1h-3zM18,7h2v1h-2zM19,7h2v1h-2zM20,7h6v1h-6zM5,8h6v1h-6zM10,8h3v1h-3zM12,8h4v1h-4zM15,8h2v1h-2zM16,8h5v1h-5zM20,8h7v1h-7zM4,9h6v1h-6zM9,9h2v1h-2zM10,9h2v1h-2zM13,9h3v1h-3zM15,9h2v1h-2zM16,9h2v1h-2zM19,9h2v1h-2zM20,9h2v1h-2zM21,9h6v1h-6zM9,10h2v1h-2zM15,10h1v1h-1zM20,10h2v1h-2zM12,11h7v1h-7zM11,12h9v1h-9zM11,13h9v1h-9zM11,14h2v1h-2zM12,14h6v1h-6zM17,14h3v1h-3zM10,15h11v1h-11zM11,16h5v1h-5zM15,16h5v1h-5zM11,17h2v1h-2zM12,17h2v1h-2zM13,17h2v1h-2zM14,17h2v1h-2zM15,17h2v1h-2zM16,17h2v1h-2zM17,17h2v1h-2zM18,17h2v1h-2zM11,18h1v1h-1zM11,18h2v1h-2zM12,18h2v1h-2zM13,18h2v1h-2zM14,18h2v1h-2zM15,18h2v1h-2zM16,18h2v1h-2zM17,18h2v1h-2zM18,18h2v1h-2zM19,18h1v1h-1zM11,19h2v1h-2zM12,19h2v1h-2zM13,19h2v1h-2zM14,19h2v1h-2zM15,19h2v1h-2zM16,19h2v1h-2zM17,19h2v1h-2zM18,19h2v1h-2zM11,20h5v1h-5zM15,20h5v1h-5zM10,21h11v1h-11zM11,22h9v1h-9zM11,23h9v1h-9zM11,24h9v1h-9zM12,25h7v1h-7zM15,26h1v1h-1z"/><path fill="#ffecd2" d="M7,3h1v1h-1zM7,3h1v1h-1zM9,3h1v1h-1zM9,3h1v1h-1zM11,3h1v1h-1zM11,3h1v1h-1zM13,3h1v1h-1zM13,3h1v1h-1zM15,3h1v1h-1zM15,3h1v1h-1zM17,3h1v1h-1zM17,3h1v1h-1zM19,3h1v1h-1zM19,3h1v1h-1zM21,3h1v1h-1zM21,3h1v1h-1zM23,3h1v1h-1zM23,3h1v1h-1zM11,26h2v1h-2zM18,26h2v1h-2z"/><path fill="#ff9eb7" d="M10,9h1v1h-1zM20,9h1v1h-1zM10,16h2v1h-2zM19,16h2v1h-2z"/><path fill="#b13e53" d="M12,14h2v1h-2zM17,14h2v1h-2zM12,15h2v1h-2zM17,15h2v1h-2z"/><path fill="#ffcd75" d="M14,17h2v1h-2zM14,18h2v1h-2z"/><path fill="#1a1c2c" d="M14,18h1v1h-1z"/></svg>