<svg xmlns="http://www.w3.org/2000/svg" viewBox="0 0 32 32" shape-rendering="crispEdges"><path fill="#ef7d57" d="M11,12h1v1h-1zM12,12h1v1h-1zM14,12h1v1h-1zM16,12h1v1h-1zM17,12h1v1h-1zM11,13h1v1h-1zM13,13h1v1h-1zM14,13h1v1h-1zM15,13h1v1h-1zM17,13h1v1h-1zM11,14h1v1h-1zM12,14h1v1h-1zM13,14h1v1h-1zM14,14h1v1h-1zM15,14h1v1h-1zM16,14h1v1h-1zM17,14h1v1h-1zM11,15h1v1h-1zM14,15h1v1h-1zM17,15h1v1h-1zM10,16h1v1h-1zM11,16h1v1h-1zM14,16h1v1h-1zM17,16h1v1h-1zM18,16h1v1h-1zM12,17h1v1h-1zM13,17h1v1h-1zM15,17h1v1h-1zM16,17h1v1h-1zM28,17h1v1h-1zM29,17h1v1h-1zM11,18h1v1h-1zM12,18h1v1h-1zM14,18h1v1h-1zM16,18h1v1h-1zM17,18h1v1h-1zM20,18h1v1h-1zM29,18h1v1h-1zM12,19h1v1h-1zM13,19h1v1h-1zM14,19h1v1h-1zM15,19h1v1h-1zM16,19h1v1h-1zM17,19h1v1h-1zM18,19h1v1h-1zM19,19h1v1h-1zM20,19h1v1h-1zM21,19h1v1h-1zM22,19h1v1h-1zM23,19h1v1h-1zM24,19h1v1h-1zM28,19h1v1h-1zM13,20h1v1h-1zM14,20h1v1h-1zM15,20h1v1h-1zM16,20h1v1h-1zM17,20h1v1h-1zM18,20h1v1h-1zM20,20h1v1h-1zM22,20h1v1h-1zM24,20h1v1h-1zM25,20h1v1h-1zM26,20h1v1h-1zM27,20h1v1h-1zM13,21h1v1h-1zM14,21h1v1h-1zM15,21h1v1h-1zM16,21h1v1h-1zM17,21h1v1h-1zM18,21h1v1h-1zM19,21h1v1h-1zM20,21h1v1h-1zM21,21h1v1h-1zM22,21h1v1h-1zM23,21h1v1h-1zM24,21h1v1h-1zM25,21h1v1h-1zM26,21h1v1h-1zM13,22h1v1h-1zM14,22h1v1h-1zM15,22h1v1h-1zM16,22h1v1h-1zM17,22h1v1h-1zM18,22h1v1h-1zM19,22h1v1h-1zM20,22h1v1h-1zM21,22h1v1h-1zM22,22h1v1h-1zM23,22h1v1h-1zM24,22h1v1h-1zM25,22h1v1h-1zM26,22h1v1h-1zM27,22h1v1h-1zM14,23h1v1h-1zM15,23h1v1h-1zM16,23h1v1h-1zM17,23h1v1h-1zM18,23h1v1h-1zM19,23h1v1h-1zM20,23h1v1h-1zM21,23h1v1h-1zM22,23h1v1h-1zM23,23h1v1h-1zM24,23h1v1h-1zM25,23h1v1h-1zM26,23h1v1h-1zM14,24h1v1h-1zM15,24h1v1h-1zM16,24h1v1h-1zM17,24h1v1h-1zM18,24h1v1h-1zM19,24h1v1h-1zM21,24h1v1h-1zM23,24h1v1h-1zM24,24h1v1h-1zM25,24h1v1h-1zM26,24h1v1h-1zM16,25h1v1h-1zM17,25h1v1h-1zM18,25h1v1h-1zM19,25h1v1h-1zM20,25h1v1h-1zM21,25h1v1h-1zM22,25h1v1h-1zM23,25h1v1h-1zM24,25h1v1h-1zM20,26h1v1h-1z"/><path fill="#ff9eb7" d="M12,13h1v1h-1zM16,13h1v1h-1zM10,17h1v1h-1zM11,17h1v1h-1zM14,17h1v1h-1zM17,17h1v1h-1zM18,17h1v1h-1z"/><path fill="#f4f4f4" d="M12,15h1v1h-1zM15,15h1v1h-1z"/><path fill="#1a1c2c" d="M13,15h1v1h-1zM16,15h1v1h-1zM12,16h1v1h-1zM13,16h1v1h-1zM15,16h1v1h-1zM16,16h1v1h-1zM13,18h1v1h-1zM15,18h1v1h-1z"/><path fill="#b13e53" d="M10,18h1v1h-1zM8,19h1v1h-1zM9,19h1v1h-1zM10,19h1v1h-1zM11,19h1v1h-1zM7,20h1v1h-1zM8,20h1v1h-1zM10,20h1v1h-1zM11,20h1v1h-1zM12,20h1v1h-1zM7,21h1v1h-1zM9,21h1v1h-1zM10,21h1v1h-1zM11,21h1v1h-1zM12,21h1v1h-1zM6,22h1v1h-1zM7,22h1v1h-1zM8,22h1v1h-1zM9,22h1v1h-1zM10,22h1v1h-1zM11,22h1v1h-1zM7,23h1v1h-1zM8,23h1v1h-1zM9,23h1v1h-1zM10,23h1v1h-1zM12,23h1v1h-1zM13,23h1v1h-1zM7,24h1v1h-1zM8,24h1v1h-1zM9,24h1v1h-1zM11,24h1v1h-1zM12,24h1v1h-1zM13,24h1v1h-1zM8,25h1v1h-1zM9,25h1v1h-1zM10,25h1v1h-1zM11,25h1v1h-1zM12,25h1v1h-1zM10,26h1v1h-1z"/><path fill="#d4364a" d="M9,20h1v1h-1zM8,21h1v1h-1zM12,22h1v1h-1zM11,23h1v1h-1zM10,24h1v1h-1z"/><path fill="#8b5e34" d="M19,20h1v1h-1zM21,20h1v1h-1zM23,20h1v1h-1zM20,24h1v1h-1zM22,24h1v1h-1z"/></svg>