<svg xmlns="http://www.w3.org/2000/svg" width="32" height="32" viewBox="0 0 32 32" shape-rendering="crispEdges">
<path fill="#b13e53" d="M13 0h6v1h-6zM14 1h4v1h-4zM7 10h3v1h-3zM22 10h3v1h-3zM7 11h3v1h-3zM22 11h3v1h-3zM7 12h3v1h-3zM22 12h3v1h-3zM7 13h3v1h-3zM22 13h3v1h-3zM7 14h3v1h-3zM22 14h3v1h-3zM7 15h3v1h-3zM22 15h3v1h-3zM7 16h3v1h-3zM22 16h3v1h-3zM7 17h3v1h-3zM22 17h3v1h-3zM7 18h3v1h-3zM22 18h3v1h-3zM7 19h3v1h-3zM22 19h3v1h-3zM7 20h3v1h-3zM22 20h3v1h-3zM7 21h3v1h-3zM22 21h3v1h-3zM8 22h3v1h-3zM21 22h3v1h-3z"/><path fill="#94b0c2" d="M12 2h8v1h-8zM11 3h10v1h-10zM10 4h12v1h-12zM10 5h12v1h-12zM10 6h12v1h-12zM10 7h2v1h-2zM20 7h2v1h-2zM10 8h2v1h-2zM20 8h2v1h-2zM10 9h1v1h-1zM13 9h8v1h-8zM26 9h1v1h-1zM10 10h12v1h-12zM26 10h1v1h-1zM10 11h2v1h-2zM20 11h2v1h-2zM26 11h1v1h-1zM10 12h2v1h-2zM20 12h2v1h-2zM26 12h1v1h-1zM10 13h2v1h-2zM20 13h2v1h-2zM26 13h1v1h-1zM10 14h2v1h-2zM20 14h2v1h-2zM26 14h1v1h-1zM10 15h2v1h-2zM20 15h2v1h-2zM26 15h1v1h-1zM10 16h12v1h-12zM26 16h1v1h-1zM26 17h1v1h-1zM11 18h4v1h-4zM17 18h4v1h-4zM11 19h4v1h-4zM17 19h4v1h-4zM11 20h4v1h-4zM17 20h4v1h-4zM11 21h4v1h-4zM17 21h4v1h-4z"/><path fill="#f4f4f4" d="M26 6h1v1h-1zM13 7h1v1h-1zM18 7h1v1h-1zM26 7h1v1h-1z"/><path fill="#333c57" d="M12 7h1v1h-1zM15 7h3v1h-3zM12 8h8v1h-8zM11 22h4v1h-4zM17 22h4v1h-4zM11 23h4v1h-4zM17 23h4v1h-4zM11 24h4v1h-4zM17 24h4v1h-4z"/><path fill="#1a1c2c" d="M14 7h1v1h-1zM19 7h1v1h-1z"/><path fill="#8b5e34" d="M25 8h3v1h-3zM10 17h6v1h-6zM17 17h5v1h-5z"/><path fill="#ff9eb7" d="M11 9h2v1h-2zM21 9h2v1h-2z"/><path fill="#566c86" d="M12 11h8v1h-8zM12 12h8v1h-8zM12 13h8v1h-8zM12 14h8v1h-8zM12 15h8v1h-8z"/><path fill="#3b5dc9" d="M3 12h2v1h-2zM6 12h1v1h-1zM3 13h2v1h-2zM6 13h1v1h-1zM3 14h2v1h-2zM6 14h1v1h-1zM3 16h2v1h-2zM6 16h1v1h-1zM3 17h2v1h-2zM6 17h1v1h-1zM3 18h2v1h-2zM6 18h1v1h-1z"/><path fill="#ffcd75" d="M5 12h1v1h-1zM5 13h1v1h-1zM5 14h1v1h-1zM3 15h4v1h-4zM5 16h1v1h-1zM5 17h1v1h-1zM16 17h1v1h-1zM5 18h1v1h-1z"/>
</svg>