<svg xmlns="http://www.w3.org/2000/svg" viewBox="0 0 32 32" shape-rendering="crispEdges"><path fill="#566c86" d="M7,5h5v1h-5zM11,5h10v1h-10zM20,5h5v1h-5zM7,6h4v1h-4zM10,6h2v1h-2zM11,6h10v1h-10zM20,6h2v1h-2zM21,6h4v1h-4zM7,7h4v1h-4zM10,7h2v1h-2zM11,7h10v1h-10zM20,7h2v1h-2zM21,7h4v1h-4zM7,8h5v1h-5zM20,8h5v1h-5zM10,10h12v1h-12zM10,11h12v1h-12zM10,12h12v1h-12zM11,13h10v1h-10zM12,14h8v1h-8zM12,15h8v1h-8zM10,16h11v1h-11zM10,17h11v1h-11zM10,18h11v1h-11zM11,19h10v1h-10zM12,20h8v1h-8zM12,21h8v1h-8zM13,22h6v1h-6zM13,23h2v1h-2zM17,23h2v1h-2z"/><path fill="#f4f4f4" d="M8,6h3v1h-3zM21,6h3v1h-3zM8,7h3v1h-3zM21,7h3v1h-3zM12,8h1v1h-1zM18,8h1v1h-1zM13,16h6v1h-6zM13,17h6v1h-6zM14,18h4v1h-4zM14,19h4v1h-4z"/><path fill="#94b0c2" d="M10,8h12v1h-12zM10,9h12v1h-12z"/><path fill="#ffecd2" d="M12,8h8v1h-8zM12,9h8v1h-8zM13,10h6v1h-6zM13,11h6v1h-6zM14,12h4v1h-4z"/><path fill="#1a1c2c" d="M12,8h2v1h-2zM18,8h2v1h-2zM12,9h2v1h-2zM18,9h2v1h-2zM14,10h4v1h-4zM14,11h4v1h-4zM15,12h2v1h-2zM14,13h1v1h-1zM17,13h1v1h-1z"/><path fill="#ff9eb7" d="M11,11h1v1h-1zM20,11h1v1h-1z"/><path fill="#8b5e34" d="M8,14h2v1h-2zM8,15h2v1h-2zM8,16h2v1h-2zM8,17h2v1h-2zM8,18h2v1h-2zM8,19h2v1h-2zM8,20h2v1h-2zM8,21h2v1h-2zM8,22h2v1h-2zM8,23h2v1h-2zM8,24h2v1h-2zM8,25h2v1h-2z"/></svg>