<svg xmlns="http://www.w3.org/2000/svg" viewBox="0 0 32 32" shape-rendering="crispEdges"><path fill="#e0f0ff" d="M0,0h32v1h-32zM0,1h32v1h-32zM0,2h20v1h-20zM22,2h10v1h-10zM0,3h2v1h-2zM4,3h28v1h-28zM0,4h32v1h-32zM0,5h8v1h-8zM10,5h22v1h-22zM0,6h4v1h-4zM5,6h7v1h-7zM14,6h14v1h-14zM30,6h2v1h-2zM0,7h3v1h-3zM6,7h26v1h-26zM0,8h2v1h-2zM7,8h15v1h-15zM24,8h8v1h-8zM0,9h3v1h-3zM6,9h26v1h-26zM0,10h4v1h-4zM5,10h10v1h-10zM16,10h16v1h-16zM0,11h14v1h-14zM17,11h15v1h-15zM0,12h10v1h-10zM23,12h5v1h-5zM29,12h3v1h-3zM0,13h8v1h-8zM25,13h2v1h-2zM30,13h2v1h-2zM0,14h6v1h-6zM27,14h1v1h-1zM29,14h3v1h-3zM0,15h6v1h-6zM28,15h4v1h-4zM0,16h5v1h-5zM27,16h5v1h-5zM0,17h6v1h-6zM28,17h4v1h-4zM0,18h6v1h-6zM27,18h1v1h-1zM29,18h3v1h-3zM0,19h8v1h-8zM25,19h2v1h-2zM30,19h2v1h-2zM0,20h10v1h-10zM23,20h5v1h-5zM29,20h3v1h-3zM0,21h16v1h-16zM17,21h15v1h-15zM0,22h3v1h-3zM5,22h27v1h-27zM0,23h27v1h-27zM28,23h4v1h-4zM0,24h26v1h-26zM29,24h3v1h-3zM0,25h25v1h-25zM30,25h2v1h-2zM0,26h26v1h-26zM29,26h3v1h-3zM0,27h25v1h-25zM28,27h4v1h-4zM0,28h5v1h-5zM7,28h25v1h-25zM0,29h15v1h-15zM17,29h15v1h-15zM0,30h32v1h-32zM0,31h32v1h-32z"/><path fill="#73eff7" d="M20,2h2v1h-2zM2,3h2v1h-2zM8,5h2v1h-2zM28,6h2v1h-2zM25,27h2v1h-2zM5,28h2v1h-2zM15,29h2v1h-2z"/><path fill="#38b764" d="M4,6h1v1h-1zM3,7h1v1h-1zM5,7h1v1h-1zM2,8h5v1h-5zM3,9h3v1h-3zM4,10h1v1h-1zM27,23h1v1h-1zM26,24h1v1h-1zM28,24h1v1h-1zM25,25h5v1h-5zM26,26h3v1h-3zM27,27h1v1h-1z"/><path fill="#41a6f6" d="M12,6h2v1h-2zM22,8h2v1h-2zM3,22h2v1h-2z"/><path fill="#2a9d50" d="M4,7h1v1h-1zM27,24h1v1h-1z"/><path fill="#ef7d57" d="M15,10h1v1h-1zM14,11h1v1h-1zM16,12h1v1h-1zM15,13h2v1h-2zM22,13h1v1h-1zM14,14h1v1h-1zM21,14h3v1h-3zM28,14h1v1h-1zM20,15h5v1h-5zM26,15h2v1h-2zM21,16h3v1h-3zM22,17h1v1h-1zM26,17h2v1h-2zM28,18h1v1h-1z"/><path fill="#b13e53" d="M15,11h2v1h-2zM28,12h1v1h-1zM10,13h1v1h-1zM17,13h1v1h-1zM27,13h3v1h-3zM8,14h2v1h-2zM11,14h1v1h-1zM15,14h2v1h-2zM18,14h2v1h-2zM26,14h1v1h-1zM11,15h2v1h-2zM15,15h4v1h-4zM14,16h7v1h-7zM16,17h4v1h-4zM15,18h5v1h-5zM26,18h1v1h-1zM17,19h1v1h-1zM27,19h3v1h-3zM28,20h1v1h-1z"/><path fill="#f4f4f4" d="M10,12h6v1h-6zM17,12h6v1h-6zM8,13h2v1h-2zM11,13h4v1h-4zM18,13h4v1h-4zM23,13h2v1h-2zM6,14h2v1h-2zM10,14h1v1h-1zM12,14h2v1h-2zM20,14h1v1h-1zM24,14h2v1h-2zM6,15h2v1h-2zM9,15h2v1h-2zM14,15h1v1h-1zM25,15h1v1h-1zM5,16h2v1h-2zM9,16h5v1h-5zM24,16h3v1h-3zM8,17h6v1h-6zM20,17h1v1h-1zM23,17h3v1h-3zM6,18h9v1h-9zM20,18h6v1h-6zM8,19h9v1h-9zM18,19h7v1h-7zM10,20h1v1h-1zM12,20h11v1h-11zM16,21h1v1h-1z"/><path fill="#94b0c2" d="M17,14h1v1h-1zM13,15h1v1h-1zM19,15h1v1h-1zM14,17h2v1h-2zM21,17h1v1h-1zM11,20h1v1h-1z"/><path fill="#1a1c2c" d="M8,15h1v1h-1zM7,16h2v1h-2z"/><path fill="#ff9eb7" d="M6,17h2v1h-2z"/></svg>