<svg xmlns="http://www.w3.org/2000/svg" viewBox="0 0 32 32" shape-rendering="crispEdges"><path fill="#1a1c2c" d="M10,1h2v1h-2ZM21,1h2v1h-2ZM11,2h1v1h-1ZM21,2h1v1h-1ZM12,3h1v1h-1ZM20,3h1v1h-1ZM13,4h1v1h-1ZM19,4h1v1h-1ZM12,5h8v1h-8ZM11,6h1v1h-1ZM15,6h2v1h-2ZM20,6h1v1h-1ZM11,7h1v1h-1ZM13,7h6v1h-6ZM20,7h1v1h-1ZM11,8h1v1h-1ZM13,8h6v1h-6ZM20,8h1v1h-1ZM13,9h2v1h-2ZM17,9h2v1h-2ZM16,10h1v1h-1ZM16,11h1v1h-1ZM16,12h1v1h-1ZM7,13h2v1h-2ZM11,13h2v1h-2ZM16,13h1v1h-1ZM19,13h2v1h-2ZM23,13h2v1h-2ZM11,14h2v1h-2ZM16,14h1v1h-1ZM19,14h2v1h-2ZM16,15h1v1h-1ZM16,16h1v1h-1ZM7,17h2v1h-2ZM16,17h1v1h-1ZM23,17h2v1h-2ZM13,18h2v1h-2ZM16,18h3v1h-3ZM13,19h2v1h-2ZM16,19h3v1h-3ZM16,20h1v1h-1ZM7,21h2v1h-2ZM11,21h2v1h-2ZM16,21h1v1h-1ZM19,21h2v1h-2ZM23,21h2v1h-2ZM11,22h2v1h-2ZM16,22h1v1h-1ZM19,22h2v1h-2ZM16,23h1v1h-1ZM16,24h1v1h-1Z"/><path fill="#f4f4f4" d="M12,6h3v1h-3ZM17,6h3v1h-3ZM12,7h1v1h-1ZM19,7h1v1h-1ZM12,8h1v1h-1ZM19,8h1v1h-1Z"/><path fill="#ff9eb7" d="M11,9h2v1h-2ZM19,9h2v1h-2Z"/><path fill="#b13e53" d="M15,9h2v1h-2ZM10,10h6v1h-6ZM17,10h5v1h-5ZM10,11h6v1h-6ZM17,11h5v1h-5ZM9,12h7v1h-7ZM17,12h6v1h-6ZM9,13h2v1h-2ZM13,13h3v1h-3ZM17,13h2v1h-2ZM21,13h2v1h-2ZM9,14h2v1h-2ZM13,14h3v1h-3ZM17,14h2v1h-2ZM21,14h2v1h-2ZM9,15h7v1h-7ZM17,15h6v1h-6ZM9,16h7v1h-7ZM17,16h6v1h-6ZM9,17h7v1h-7ZM17,17h6v1h-6ZM9,18h4v1h-4ZM15,18h1v1h-1ZM19,18h4v1h-4ZM9,19h4v1h-4ZM15,19h1v1h-1ZM19,19h4v1h-4ZM9,20h7v1h-7ZM17,20h6v1h-6ZM9,21h2v1h-2ZM13,21h3v1h-3ZM17,21h2v1h-2ZM21,21h2v1h-2ZM10,22h1v1h-1ZM13,22h3v1h-3ZM17,22h2v1h-2ZM21,22h1v1h-1ZM10,23h6v1h-6ZM17,23h5v1h-5ZM11,24h5v1h-5ZM17,24h4v1h-4Z"/></svg>