<svg xmlns="http://www.w3.org/2000/svg" width="32" height="32" viewBox="0 0 32 32" shape-rendering="crispEdges">
<path fill="#333c57" d="M15 2h2v1h-2zM14 3h1v1h-1zM17 3h1v1h-1zM13 4h6v1h-6zM12 5h8v1h-8zM11 7h10v1h-10zM15 9h2v1h-2zM15 10h2v1h-2zM15 11h2v1h-2zM15 12h2v1h-2zM15 13h2v1h-2zM11 14h10v1h-10zM15 15h2v1h-2zM15 16h2v1h-2zM15 17h2v1h-2zM15 18h2v1h-2zM15 19h2v1h-2zM15 20h2v1h-2zM12 22h8v1h-8zM13 23h6v1h-6z"/>
<path fill="#1a1c2c" d="M12 6h8v1h-8zM11 8h10v1h-10zM11 9h1v1h-1zM20 9h1v1h-1zM11 10h1v1h-1zM20 10h1v1h-1zM11 11h1v1h-1zM20 11h1v1h-1zM11 12h1v1h-1zM20 12h1v1h-1zM11 13h1v1h-1zM20 13h1v1h-1zM11 15h1v1h-1zM20 15h1v1h-1zM11 16h1v1h-1zM20 16h1v1h-1zM11 17h1v1h-1zM20 17h1v1h-1zM11 18h1v1h-1zM20 18h1v1h-1zM11 19h1v1h-1zM20 19h1v1h-1zM11 20h1v1h-1zM20 20h1v1h-1zM11 21h10v1h-10z"/>
<path fill="#ef7d57" d="M12 9h3v1h-3zM17 9h3v1h-3zM12 10h1v1h-1zM19 10h1v1h-1zM12 11h1v1h-1zM19 11h1v1h-1zM12 12h1v1h-1zM19 12h1v1h-1zM12 13h1v1h-1zM19 13h1v1h-1zM12 15h1v1h-1zM19 15h1v1h-1zM12 16h1v1h-1zM19 16h1v1h-1zM12 17h1v1h-1zM19 17h1v1h-1zM12 18h1v1h-1zM19 18h1v1h-1zM12 19h1v1h-1zM19 19h1v1h-1zM12 20h3v1h-3zM17 20h3v1h-3zM14 27h4v1h-4z"/>
<path fill="#ffcd75" d="M10 10h1v1h-1zM13 10h2v1h-2zM17 10h2v1h-2zM21 10h1v1h-1zM13 11h2v1h-2zM17 11h2v1h-2zM9 12h1v1h-1zM13 12h2v1h-2zM17 12h2v1h-2zM22 12h1v1h-1zM13 13h2v1h-2zM17 13h2v1h-2zM10 14h1v1h-1zM21 14h1v1h-1zM13 15h2v1h-2zM17 15h2v1h-2zM9 16h1v1h-1zM13 16h2v1h-2zM17 16h2v1h-2zM22 16h1v1h-1zM13 17h2v1h-2zM17 17h2v1h-2zM10 18h1v1h-1zM13 18h2v1h-2zM17 18h2v1h-2zM21 18h1v1h-1zM13 19h2v1h-2zM17 19h2v1h-2zM13 28h6v1h-6z"/>
<path fill="#b13e53" d="M15 24h2v1h-2zM14 25h4v1h-4zM14 26h4v1h-4zM13 27h1v1h-1zM18 27h1v1h-1z"/>
</svg>