<svg xmlns="http://www.w3.org/2000/svg" width="32" height="32" viewBox="0 0 32 32" shape-rendering="crispEdges">
<path fill="#5d275d" d="M13 3h3v1h-3zM7 5h3v1h-3zM13 5h3v1h-3zM19 6h3v1h-3zM7 7h3v1h-3zM13 7h3v1h-3zM19 8h3v1h-3zM7 9h3v1h-3zM13 9h3v1h-3zM19 10h3v1h-3zM7 11h3v1h-3zM19 12h3v1h-3z"/><path fill="#9b6dff" d="M14 4h1v1h-1zM8 6h1v1h-1zM14 6h1v1h-1zM20 7h1v1h-1zM8 8h1v1h-1zM14 8h1v1h-1zM20 9h1v1h-1zM8 10h1v1h-1zM20 11h1v1h-1z"/><path fill="#f4f4f4" d="M25 7h1v1h-1zM27 7h1v1h-1zM28 8h1v1h-1z"/><path fill="#ffcd75" d="M25 8h1v1h-1zM27 8h1v1h-1zM26 9h1v1h-1z"/><path fill="#1a1c2c" d="M26 8h1v1h-1zM25 9h1v1h-1zM27 9h1v1h-1z"/><path fill="#38b764" d="M14 10h1v1h-1zM14 11h1v1h-1zM8 12h1v1h-1zM14 12h1v1h-1zM8 13h1v1h-1zM14 13h1v1h-1zM20 13h1v1h-1zM8 14h1v1h-1zM14 14h1v1h-1zM20 14h1v1h-1zM8 15h1v1h-1zM14 15h1v1h-1zM20 15h1v1h-1zM8 16h1v1h-1zM14 16h1v1h-1zM20 16h1v1h-1zM8 17h1v1h-1zM14 17h1v1h-1zM20 17h1v1h-1zM8 18h1v1h-1zM13 18h2v1h-2zM20 18h1v1h-1zM8 19h1v1h-1zM14 19h1v1h-1zM20 19h2v1h-2zM7 20h2v1h-2zM14 20h2v1h-2zM20 20h1v1h-1zM8 21h1v1h-1zM14 21h1v1h-1zM19 21h2v1h-2zM8 22h2v1h-2zM14 22h1v1h-1zM20 22h1v1h-1zM8 23h1v1h-1zM14 23h1v1h-1zM20 23h1v1h-1zM8 24h1v1h-1zM14 24h1v1h-1zM20 24h1v1h-1zM8 25h1v1h-1zM14 25h1v1h-1zM20 25h1v1h-1zM8 26h1v1h-1zM14 26h1v1h-1zM20 26h1v1h-1zM8 27h1v1h-1zM14 27h1v1h-1zM20 27h1v1h-1zM8 28h1v1h-1zM14 28h1v1h-1zM20 28h1v1h-1z"/><path fill="#8b5e34" d="M0 29h32v1h-32zM0 30h32v1h-32zM0 31h32v1h-32z"/>
</svg>