<svg xmlns="http://www.w3.org/2000/svg" viewBox="0 0 32 32" shape-rendering="crispEdges"><path fill="#a7f070" d="M14,4h1v1h-1zM17,4h1v1h-1zM13,5h1v1h-1zM14,5h1v1h-1zM15,5h1v1h-1zM16,5h1v1h-1zM17,5h1v1h-1zM18,5h1v1h-1zM12,6h1v1h-1zM13,6h1v1h-1zM14,6h1v1h-1zM15,6h1v1h-1zM16,6h1v1h-1zM17,6h1v1h-1zM18,6h1v1h-1zM19,6h1v1h-1zM12,7h1v1h-1zM13,7h1v1h-1zM14,7h1v1h-1zM15,7h1v1h-1zM16,7h1v1h-1zM17,7h1v1h-1zM18,7h1v1h-1zM19,7h1v1h-1zM13,8h1v1h-1zM14,8h1v1h-1zM15,8h1v1h-1zM16,8h1v1h-1zM17,8h1v1h-1zM18,8h1v1h-1zM15,22h1v1h-1zM16,22h1v1h-1zM8,23h1v1h-1zM9,23h1v1h-1zM10,23h1v1h-1zM11,23h1v1h-1zM12,23h1v1h-1zM13,23h1v1h-1zM14,23h1v1h-1zM15,23h1v1h-1zM16,23h1v1h-1zM17,23h1v1h-1zM18,23h1v1h-1zM19,23h1v1h-1zM20,23h1v1h-1zM21,23h1v1h-1zM22,23h1v1h-1zM23,23h1v1h-1z"/><path fill="#73eff7" d="M9,9h1v1h-1zM22,9h1v1h-1zM8,10h1v1h-1zM9,10h1v1h-1zM22,10h1v1h-1zM23,10h1v1h-1zM7,11h1v1h-1zM8,11h1v1h-1zM9,11h1v1h-1zM22,11h1v1h-1zM23,11h1v1h-1zM24,11h1v1h-1zM8,12h1v1h-1zM9,12h1v1h-1zM22,12h1v1h-1zM23,12h1v1h-1zM9,16h1v1h-1z"/><path fill="#ffecd2" d="M13,9h1v1h-1zM14,9h1v1h-1zM15,9h1v1h-1zM16,9h1v1h-1zM17,9h1v1h-1zM18,9h1v1h-1zM13,10h1v1h-1zM15,10h1v1h-1zM16,10h1v1h-1zM18,10h1v1h-1zM13,11h1v1h-1zM15,11h1v1h-1zM16,11h1v1h-1zM18,11h1v1h-1zM14,12h1v1h-1zM15,12h1v1h-1zM16,12h1v1h-1zM17,12h1v1h-1zM13,13h1v1h-1zM14,13h1v1h-1zM17,13h1v1h-1zM18,13h1v1h-1zM13,14h1v1h-1zM14,14h1v1h-1zM15,14h1v1h-1zM16,14h1v1h-1zM17,14h1v1h-1zM18,14h1v1h-1zM13,15h1v1h-1zM14,15h1v1h-1zM15,15h1v1h-1zM16,15h1v1h-1zM17,15h1v1h-1zM18,15h1v1h-1zM10,16h1v1h-1zM11,16h1v1h-1zM20,16h1v1h-1zM21,16h1v1h-1zM10,17h1v1h-1zM11,17h1v1h-1zM20,17h1v1h-1zM21,17h1v1h-1zM10,18h1v1h-1zM11,18h1v1h-1zM20,18h1v1h-1zM21,18h1v1h-1zM14,21h1v1h-1zM15,21h1v1h-1zM16,21h1v1h-1zM17,21h1v1h-1z"/><path fill="#f4f4f4" d="M14,10h1v1h-1zM17,10h1v1h-1zM8,13h1v1h-1zM7,14h1v1h-1zM10,14h1v1h-1zM8,15h1v1h-1zM9,15h1v1h-1zM8,16h1v1h-1z"/><path fill="#38b764" d="M14,11h1v1h-1zM17,11h1v1h-1zM6,21h1v1h-1zM7,21h1v1h-1zM8,21h1v1h-1zM9,21h1v1h-1zM22,21h1v1h-1zM23,21h1v1h-1zM24,21h1v1h-1zM25,21h1v1h-1zM4,22h1v1h-1zM5,22h1v1h-1zM6,22h1v1h-1zM7,22h1v1h-1zM8,22h1v1h-1zM9,22h1v1h-1zM10,22h1v1h-1zM11,22h1v1h-1zM12,22h1v1h-1zM13,22h1v1h-1zM14,22h1v1h-1zM17,22h1v1h-1zM18,22h1v1h-1zM19,22h1v1h-1zM20,22h1v1h-1zM21,22h1v1h-1zM22,22h1v1h-1zM23,22h1v1h-1zM24,22h1v1h-1zM25,22h1v1h-1zM26,22h1v1h-1zM27,22h1v1h-1zM4,23h1v1h-1zM5,23h1v1h-1zM6,23h1v1h-1zM7,23h1v1h-1zM24,23h1v1h-1zM25,23h1v1h-1zM4,24h1v1h-1zM5,24h1v1h-1zM6,24h1v1h-1zM7,24h1v1h-1zM8,24h1v1h-1zM9,24h1v1h-1zM10,24h1v1h-1zM11,24h1v1h-1zM12,24h1v1h-1zM13,24h1v1h-1zM14,24h1v1h-1zM15,24h1v1h-1zM16,24h1v1h-1zM17,24h1v1h-1zM18,24h1v1h-1zM19,24h1v1h-1zM20,24h1v1h-1zM21,24h1v1h-1zM22,24h1v1h-1zM23,24h1v1h-1zM24,24h1v1h-1zM25,24h1v1h-1zM8,25h1v1h-1zM9,25h1v1h-1zM10,25h1v1h-1zM11,25h1v1h-1zM12,25h1v1h-1zM13,25h1v1h-1zM14,25h1v1h-1zM15,25h1v1h-1zM16,25h1v1h-1zM17,25h1v1h-1zM18,25h1v1h-1zM19,25h1v1h-1zM20,25h1v1h-1zM21,25h1v1h-1zM22,25h1v1h-1zM23,25h1v1h-1z"/><path fill="#ff9eb7" d="M13,12h1v1h-1zM18,12h1v1h-1zM15,13h1v1h-1zM16,13h1v1h-1zM12,16h1v1h-1zM13,16h1v1h-1zM14,16h1v1h-1zM15,16h1v1h-1zM16,16h1v1h-1zM17,16h1v1h-1zM18,16h1v1h-1zM19,16h1v1h-1zM12,17h1v1h-1zM13,17h1v1h-1zM14,17h1v1h-1zM15,17h1v1h-1zM16,17h1v1h-1zM17,17h1v1h-1zM18,17h1v1h-1zM19,17h1v1h-1zM12,18h1v1h-1zM13,18h1v1h-1zM14,18h1v1h-1zM15,18h1v1h-1zM16,18h1v1h-1zM17,18h1v1h-1zM18,18h1v1h-1zM19,18h1v1h-1zM11,19h1v1h-1zM12,19h1v1h-1zM13,19h1v1h-1zM14,19h1v1h-1zM15,19h1v1h-1zM16,19h1v1h-1zM17,19h1v1h-1zM18,19h1v1h-1zM19,19h1v1h-1zM20,19h1v1h-1zM9,20h1v1h-1zM10,20h1v1h-1zM11,20h1v1h-1zM12,20h1v1h-1zM13,20h1v1h-1zM14,20h1v1h-1zM15,20h1v1h-1zM16,20h1v1h-1zM17,20h1v1h-1zM18,20h1v1h-1zM19,20h1v1h-1zM20,20h1v1h-1zM21,20h1v1h-1zM22,20h1v1h-1zM10,21h1v1h-1zM11,21h1v1h-1zM12,21h1v1h-1zM13,21h1v1h-1zM18,21h1v1h-1zM19,21h1v1h-1zM20,21h1v1h-1zM21,21h1v1h-1z"/><path fill="#b13e53" d="M10,19h1v1h-1zM21,19h1v1h-1z"/><path fill="#8b5e34" d="M28,22h1v1h-1zM26,23h1v1h-1zM27,23h1v1h-1zM28,23h1v1h-1zM29,23h1v1h-1zM26,24h1v1h-1zM27,24h1v1h-1zM28,24h1v1h-1zM29,24h1v1h-1z"/></svg>