<svg xmlns="http://www.w3.org/2000/svg" viewBox="0 0 32 32" shape-rendering="crispEdges"><path fill="#38b764" d="M7,7h2v1h-2zM6,8h2v1h-2z"/><path fill="#ffcd75" d="M16,8h1v1h-1zM11,9h11v1h-11zM9,10h11v1h-11zM21,10h3v1h-3zM7,11h10v1h-10zM24,11h2v1h-2zM6,12h10v1h-10zM25,12h2v1h-2zM5,13h11v1h-11zM25,13h3v1h-3zM5,14h11v1h-11zM26,14h2v1h-2zM3,15h1v1h-1zM5,15h4v1h-4zM10,15h5v1h-5zM26,15h3v1h-3zM3,16h7v1h-7zM11,16h3v1h-3zM15,16h1v1h-1zM26,16h3v1h-3zM3,17h1v1h-1zM5,17h4v1h-4zM10,17h2v1h-2zM14,17h1v1h-1zM26,17h3v1h-3zM5,18h3v1h-3zM10,18h5v1h-5zM26,18h2v1h-2zM5,19h11v1h-11zM25,19h3v1h-3zM6,20h10v1h-10zM25,20h2v1h-2zM7,21h10v1h-10zM24,21h2v1h-2zM9,22h11v1h-11zM21,22h3v1h-3zM11,23h11v1h-11zM16,24h1v1h-1z"/><path fill="#ffecd2" d="M20,10h1v1h-1zM17,11h7v1h-7zM16,12h9v1h-9zM16,13h8v1h-8zM16,14h6v1h-6zM24,14h2v1h-2zM16,15h5v1h-5zM16,16h5v1h-5zM16,17h5v1h-5zM17,18h5v1h-5zM24,18h2v1h-2zM16,19h8v1h-8zM16,20h9v1h-9zM17,21h7v1h-7zM20,22h1v1h-1z"/><path fill="#f4f4f4" d="M24,13h1v1h-1zM22,14h2v1h-2zM21,15h5v1h-5zM21,16h5v1h-5zM21,17h5v1h-5zM22,18h2v1h-2zM24,19h1v1h-1z"/><path fill="#1a1c2c" d="M9,15h1v1h-1zM15,15h1v1h-1zM10,16h1v1h-1zM14,16h1v1h-1zM9,17h1v1h-1zM12,17h2v1h-2zM15,17h1v1h-1z"/><path fill="#ff9eb7" d="M8,18h2v1h-2zM15,18h2v1h-2z"/></svg>