<svg xmlns="http://www.w3.org/2000/svg" viewBox="0 0 32 32" shape-rendering="crispEdges"><path fill="#566c86" d="M7,2h1v1h-1zM8,2h1v1h-1zM9,2h1v1h-1zM10,2h1v1h-1zM11,2h1v1h-1zM12,2h1v1h-1zM13,2h1v1h-1zM14,2h1v1h-1zM15,2h1v1h-1zM16,2h1v1h-1zM17,2h1v1h-1zM18,2h1v1h-1zM19,2h1v1h-1zM20,2h1v1h-1zM21,2h1v1h-1zM22,2h1v1h-1zM23,2h1v1h-1zM24,2h1v1h-1zM5,3h1v1h-1zM6,3h1v1h-1zM7,3h1v1h-1zM8,3h1v1h-1zM9,3h1v1h-1zM11,3h1v1h-1zM13,3h1v1h-1zM14,3h1v1h-1zM15,3h1v1h-1zM16,3h1v1h-1zM17,3h1v1h-1zM18,3h1v1h-1zM20,3h1v1h-1zM22,3h1v1h-1zM23,3h1v1h-1zM24,3h1v1h-1zM25,3h1v1h-1zM26,3h1v1h-1zM4,7h1v1h-1zM5,7h1v1h-1zM6,7h1v1h-1zM7,7h1v1h-1zM8,7h1v1h-1zM9,7h1v1h-1zM10,7h1v1h-1zM11,7h1v1h-1zM12,7h1v1h-1zM13,7h1v1h-1zM15,7h1v1h-1zM16,7h1v1h-1zM18,7h1v1h-1zM19,7h1v1h-1zM20,7h1v1h-1zM21,7h1v1h-1zM22,7h1v1h-1zM23,7h1v1h-1zM24,7h1v1h-1zM25,7h1v1h-1zM26,7h1v1h-1zM27,7h1v1h-1z"/><path fill="#1a1c2c" d="M10,3h1v1h-1zM12,3h1v1h-1zM19,3h1v1h-1zM21,3h1v1h-1zM11,4h1v1h-1zM20,4h1v1h-1zM10,5h1v1h-1zM12,5h1v1h-1zM19,5h1v1h-1zM21,5h1v1h-1zM15,6h1v1h-1zM16,6h1v1h-1zM14,7h1v1h-1zM17,7h1v1h-1z"/><path fill="#333c57" d="M3,4h1v1h-1zM4,4h1v1h-1zM5,4h1v1h-1zM6,4h1v1h-1zM7,4h1v1h-1zM8,4h1v1h-1zM9,4h1v1h-1zM10,4h1v1h-1zM12,4h1v1h-1zM13,4h1v1h-1zM14,4h1v1h-1zM15,4h1v1h-1zM16,4h1v1h-1zM17,4h1v1h-1zM18,4h1v1h-1zM19,4h1v1h-1zM21,4h1v1h-1zM22,4h1v1h-1zM23,4h1v1h-1zM24,4h1v1h-1zM25,4h1v1h-1zM26,4h1v1h-1zM27,4h1v1h-1zM28,4h1v1h-1zM3,5h1v1h-1zM4,5h1v1h-1zM5,5h1v1h-1zM6,5h1v1h-1zM7,5h1v1h-1zM11,5h1v1h-1zM13,5h1v1h-1zM14,5h1v1h-1zM15,5h1v1h-1zM16,5h1v1h-1zM17,5h1v1h-1zM18,5h1v1h-1zM20,5h1v1h-1zM24,5h1v1h-1zM25,5h1v1h-1zM26,5h1v1h-1zM27,5h1v1h-1zM28,5h1v1h-1zM2,6h1v1h-1zM3,6h1v1h-1zM4,6h1v1h-1zM5,6h1v1h-1zM6,6h1v1h-1zM7,6h1v1h-1zM8,6h1v1h-1zM9,6h1v1h-1zM10,6h1v1h-1zM11,6h1v1h-1zM12,6h1v1h-1zM13,6h1v1h-1zM14,6h1v1h-1zM17,6h1v1h-1zM18,6h1v1h-1zM19,6h1v1h-1zM20,6h1v1h-1zM21,6h1v1h-1zM22,6h1v1h-1zM23,6h1v1h-1zM24,6h1v1h-1zM25,6h1v1h-1zM26,6h1v1h-1zM27,6h1v1h-1zM28,6h1v1h-1zM29,6h1v1h-1zM6,8h1v1h-1zM7,8h1v1h-1zM8,8h1v1h-1zM9,8h1v1h-1zM10,8h1v1h-1zM11,8h1v1h-1zM12,8h1v1h-1zM13,8h1v1h-1zM14,8h1v1h-1zM15,8h1v1h-1zM16,8h1v1h-1zM17,8h1v1h-1zM18,8h1v1h-1zM19,8h1v1h-1zM20,8h1v1h-1zM21,8h1v1h-1zM22,8h1v1h-1zM23,8h1v1h-1zM24,8h1v1h-1zM25,8h1v1h-1z"/><path fill="#ff9eb7" d="M8,5h1v1h-1zM9,5h1v1h-1zM22,5h1v1h-1zM23,5h1v1h-1z"/><path fill="#ffcd75" d="M15,9h1v1h-1zM16,9h1v1h-1zM17,9h1v1h-1zM15,10h1v1h-1zM17,10h1v1h-1zM14,11h1v1h-1zM15,11h1v1h-1zM16,11h1v1h-1zM14,12h1v1h-1zM16,12h1v1h-1zM13,13h1v1h-1zM14,13h1v1h-1zM15,13h1v1h-1zM16,13h1v1h-1zM17,13h1v1h-1zM18,13h1v1h-1zM13,14h1v1h-1zM14,14h1v1h-1zM16,14h1v1h-1zM17,14h1v1h-1zM18,14h1v1h-1zM16,15h1v1h-1zM17,15h1v1h-1zM18,15h1v1h-1zM16,16h1v1h-1zM18,16h1v1h-1zM15,17h1v1h-1zM16,17h1v1h-1zM17,17h1v1h-1zM15,18h1v1h-1zM17,18h1v1h-1zM14,19h1v1h-1zM15,19h1v1h-1zM16,19h1v1h-1zM14,20h1v1h-1zM16,20h1v1h-1zM13,21h1v1h-1zM14,21h1v1h-1zM15,21h1v1h-1zM14,22h1v1h-1z"/><path fill="#ffecd2" d="M13,10h1v1h-1zM19,10h1v1h-1zM12,14h1v1h-1zM20,14h1v1h-1zM12,18h1v1h-1zM19,18h1v1h-1z"/><path fill="#f4f4f4" d="M16,10h1v1h-1zM15,12h1v1h-1zM15,14h1v1h-1zM17,16h1v1h-1zM16,18h1v1h-1zM15,20h1v1h-1z"/><path fill="#73eff7" d="M9,11h1v1h-1zM3,12h1v1h-1zM9,12h1v1h-1zM3,13h1v1h-1zM27,13h1v1h-1zM22,14h1v1h-1zM27,14h1v1h-1zM6,15h1v1h-1zM22,15h1v1h-1zM6,16h1v1h-1zM26,18h1v1h-1zM26,19h1v1h-1zM8,20h1v1h-1zM8,21h1v1h-1zM24,22h1v1h-1zM24,23h1v1h-1zM10,25h1v1h-1zM10,26h1v1h-1zM28,26h1v1h-1zM23,27h1v1h-1zM28,27h1v1h-1zM5,28h1v1h-1zM23,28h1v1h-1zM5,29h1v1h-1z"/></svg>