<svg xmlns="http://www.w3.org/2000/svg" viewBox="0 0 128 32" width="128" height="32">
  <defs>
    <linearGradient id="g" x1="0" y1="0" x2="0" y2="1">
      <stop offset="0%" stop-color="#4ade80"/>
      <stop offset="100%" stop-color="#22c55e"/>
    </linearGradient>
  </defs>

  <!-- ==================== S ==================== -->
  <!-- Black outline first, then green fill -->
  <!-- S: columns 4-22, rows 4-27 (approx 18w x 24h) -->
  <!-- Top bar -->
  <rect x="7" y="3" width="12" height="1" fill="#000"/>
  <rect x="6" y="4" width="14" height="1" fill="#000"/>
  <rect x="7" y="4" width="12" height="1" fill="url(#g)"/>
  <rect x="6" y="5" width="14" height="1" fill="#000"/>
  <rect x="7" y="5" width="12" height="1" fill="url(#g)"/>
  <rect x="6" y="6" width="14" height="1" fill="#000"/>
  <rect x="7" y="6" width="12" height="1" fill="url(#g)"/>
  <!-- Left side top -->
  <rect x="5" y="7" width="1" height="1" fill="#000"/>
  <rect x="6" y="7" width="4" height="1" fill="#000"/>
  <rect x="6" y="7" width="3" height="1" fill="url(#g)"/>
  <rect x="5" y="8" width="1" height="1" fill="#000"/>
  <rect x="6" y="8" width="4" height="1" fill="#000"/>
  <rect x="6" y="8" width="3" height="1" fill="url(#g)"/>
  <rect x="5" y="9" width="1" height="1" fill="#000"/>
  <rect x="6" y="9" width="4" height="1" fill="#000"/>
  <rect x="6" y="9" width="3" height="1" fill="url(#g)"/>
  <!-- Middle bar -->
  <rect x="6" y="10" width="14" height="1" fill="#000"/>
  <rect x="7" y="10" width="12" height="1" fill="url(#g)"/>
  <rect x="6" y="11" width="14" height="1" fill="#000"/>
  <rect x="7" y="11" width="12" height="1" fill="url(#g)"/>
  <rect x="6" y="12" width="14" height="1" fill="#000"/>
  <rect x="7" y="12" width="12" height="1" fill="url(#g)"/>
  <rect x="6" y="13" width="14" height="1" fill="#000"/>
  <rect x="7" y="13" width="12" height="1" fill="url(#g)"/>
  <!-- Right side bottom -->
  <rect x="16" y="14" width="4" height="1" fill="#000"/>
  <rect x="16" y="14" width="3" height="1" fill="url(#g)"/>
  <rect x="20" y="14" width="1" height="1" fill="#000"/>
  <rect x="16" y="15" width="4" height="1" fill="#000"/>
  <rect x="16" y="15" width="3" height="1" fill="url(#g)"/>
  <rect x="20" y="15" width="1" height="1" fill="#000"/>
  <rect x="16" y="16" width="4" height="1" fill="#000"/>
  <rect x="16" y="16" width="3" height="1" fill="url(#g)"/>
  <rect x="20" y="16" width="1" height="1" fill="#000"/>
  <!-- Bottom bar -->
  <rect x="6" y="17" width="14" height="1" fill="#000"/>
  <rect x="7" y="17" width="12" height="1" fill="url(#g)"/>
  <rect x="6" y="18" width="14" height="1" fill="#000"/>
  <rect x="7" y="18" width="12" height="1" fill="url(#g)"/>
  <rect x="6" y="19" width="14" height="1" fill="#000"/>
  <rect x="7" y="19" width="12" height="1" fill="url(#g)"/>
  <rect x="7" y="20" width="12" height="1" fill="#000"/>

  <!-- ==================== N ==================== -->
  <!-- N starts at x=26 -->
  <rect x="26" y="3" width="4" height="1" fill="#000"/>
  <rect x="26" y="4" width="4" height="17" fill="#000"/>
  <rect x="27" y="4" width="2" height="16" fill="url(#g)"/>
  <rect x="42" y="3" width="4" height="1" fill="#000"/>
  <rect x="42" y="4" width="4" height="17" fill="#000"/>
  <rect x="43" y="4" width="2" height="16" fill="url(#g)"/>
  <!-- Diagonal -->
  <rect x="30" y="4" width="3" height="1" fill="#000"/>
  <rect x="30" y="4" width="2" height="1" fill="url(#g)"/>
  <rect x="31" y="5" width="3" height="1" fill="#000"/>
  <rect x="31" y="5" width="2" height="1" fill="url(#g)"/>
  <rect x="31" y="6" width="3" height="1" fill="#000"/>
  <rect x="32" y="6" width="2" height="1" fill="url(#g)"/>
  <rect x="32" y="7" width="3" height="1" fill="#000"/>
  <rect x="32" y="7" width="2" height="1" fill="url(#g)"/>
  <rect x="33" y="8" width="3" height="1" fill="#000"/>
  <rect x="33" y="8" width="2" height="1" fill="url(#g)"/>
  <rect x="33" y="9" width="3" height="1" fill="#000"/>
  <rect x="34" y="9" width="2" height="1" fill="url(#g)"/>
  <rect x="34" y="10" width="3" height="1" fill="#000"/>
  <rect x="34" y="10" width="2" height="1" fill="url(#g)"/>
  <rect x="35" y="11" width="3" height="1" fill="#000"/>
  <rect x="35" y="11" width="2" height="1" fill="url(#g)"/>
  <rect x="35" y="12" width="3" height="1" fill="#000"/>
  <rect x="36" y="12" width="2" height="1" fill="url(#g)"/>
  <rect x="36" y="13" width="3" height="1" fill="#000"/>
  <rect x="36" y="13" width="2" height="1" fill="url(#g)"/>
  <rect x="37" y="14" width="3" height="1" fill="#000"/>
  <rect x="37" y="14" width="2" height="1" fill="url(#g)"/>
  <rect x="37" y="15" width="3" height="1" fill="#000"/>
  <rect x="38" y="15" width="2" height="1" fill="url(#g)"/>
  <rect x="38" y="16" width="3" height="1" fill="#000"/>
  <rect x="38" y="16" width="2" height="1" fill="url(#g)"/>
  <rect x="39" y="17" width="3" height="1" fill="#000"/>
  <rect x="39" y="17" width="2" height="1" fill="url(#g)"/>
  <rect x="40" y="18" width="3" height="1" fill="#000"/>
  <rect x="40" y="18" width="2" height="1" fill="url(#g)"/>
  <rect x="40" y="19" width="3" height="1" fill="#000"/>
  <rect x="41" y="19" width="2" height="1" fill="url(#g)"/>

  <!-- ==================== A ==================== -->
  <!-- A starts at x=52 -->
  <!-- Top peak -->
  <rect x="60" y="3" width="4" height="1" fill="#000"/>
  <rect x="61" y="3" width="2" height="1" fill="url(#g)"/>
  <rect x="59" y="4" width="6" height="1" fill="#000"/>
  <rect x="60" y="4" width="4" height="1" fill="url(#g)"/>
  <rect x="58" y="5" width="3" height="1" fill="#000"/>
  <rect x="63" y="5" width="3" height="1" fill="#000"/>
  <rect x="58" y="5" width="2" height="1" fill="url(#g)"/>
  <rect x="64" y="5" width="2" height="1" fill="url(#g)"/>
  <rect x="57" y="6" width="3" height="1" fill="#000"/>
  <rect x="64" y="6" width="3" height="1" fill="#000"/>
  <rect x="57" y="6" width="2" height="1" fill="url(#g)"/>
  <rect x="65" y="6" width="2" height="1" fill="url(#g)"/>
  <!-- Legs -->
  <rect x="55" y="7" width="4" height="1" fill="#000"/>
  <rect x="65" y="7" width="4" height="1" fill="#000"/>
  <rect x="56" y="7" width="2" height="1" fill="url(#g)"/>
  <rect x="66" y="7" width="2" height="1" fill="url(#g)"/>
  <rect x="54" y="8" width="4" height="1" fill="#000"/>
  <rect x="66" y="8" width="4" height="1" fill="#000"/>
  <rect x="55" y="8" width="2" height="1" fill="url(#g)"/>
  <rect x="67" y="8" width="2" height="1" fill="url(#g)"/>
  <rect x="53" y="9" width="4" height="1" fill="#000"/>
  <rect x="67" y="9" width="4" height="1" fill="#000"/>
  <rect x="54" y="9" width="2" height="1" fill="url(#g)"/>
  <rect x="68" y="9" width="2" height="1" fill="url(#g)"/>
  <rect x="52" y="10" width="4" height="1" fill="#000"/>
  <rect x="68" y="10" width="4" height="1" fill="#000"/>
  <rect x="53" y="10" width="2" height="1" fill="url(#g)"/>
  <rect x="69" y="10" width="2" height="1" fill="url(#g)"/>
  <!-- Middle bar -->
  <rect x="52" y="11" width="20" height="1" fill="#000"/>
  <rect x="53" y="11" width="18" height="1" fill="url(#g)"/>
  <rect x="52" y="12" width="20" height="1" fill="#000"/>
  <rect x="53" y="12" width="18" height="1" fill="url(#g)"/>
  <rect x="52" y="13" width="20" height="1" fill="#000"/>
  <rect x="53" y="13" width="18" height="1" fill="url(#g)"/>
  <!-- Lower legs -->
  <rect x="52" y="14" width="4" height="1" fill="#000"/>
  <rect x="68" y="14" width="4" height="1" fill="#000"/>
  <rect x="53" y="14" width="2" height="1" fill="url(#g)"/>
  <rect x="69" y="14" width="2" height="1" fill="url(#g)"/>
  <rect x="52" y="15" width="4" height="1" fill="#000"/>
  <rect x="68" y="15" width="4" height="1" fill="#000"/>
  <rect x="53" y="15" width="2" height="1" fill="url(#g)"/>
  <rect x="69" y="15" width="2" height="1" fill="url(#g)"/>
  <rect x="52" y="16" width="4" height="1" fill="#000"/>
  <rect x="68" y="16" width="4" height="1" fill="#000"/>
  <rect x="53" y="16" width="2" height="1" fill="url(#g)"/>
  <rect x="69" y="16" width="2" height="1" fill="url(#g)"/>
  <rect x="52" y="17" width="4" height="1" fill="#000"/>
  <rect x="68" y="17" width="4" height="1" fill="#000"/>
  <rect x="53" y="17" width="2" height="1" fill="url(#g)"/>
  <rect x="69" y="17" width="2" height="1" fill="url(#g)"/>
  <rect x="52" y="18" width="4" height="1" fill="#000"/>
  <rect x="68" y="18" width="4" height="1" fill="#000"/>
  <rect x="53" y="18" width="2" height="1" fill="url(#g)"/>
  <rect x="69" y="18" width="2" height="1" fill="url(#g)"/>
  <rect x="52" y="19" width="4" height="1" fill="#000"/>
  <rect x="68" y="19" width="4" height="1" fill="#000"/>
  <rect x="53" y="19" width="2" height="1" fill="url(#g)"/>
  <rect x="69" y="19" width="2" height="1" fill="url(#g)"/>
  <rect x="52" y="20" width="4" height="1" fill="#000"/>
  <rect x="68" y="20" width="4" height="1" fill="#000"/>

  <!-- ==================== K ==================== -->
  <!-- K starts at x=78 -->
  <!-- Left vertical bar -->
  <rect x="78" y="3" width="4" height="1" fill="#000"/>
  <rect x="78" y="4" width="4" height="17" fill="#000"/>
  <rect x="79" y="4" width="2" height="16" fill="url(#g)"/>
  <!-- Upper diagonal (going right-up from middle) -->
  <rect x="82" y="10" width="3" height="1" fill="#000"/>
  <rect x="82" y="10" width="2" height="1" fill="url(#g)"/>
  <rect x="83" y="9" width="3" height="1" fill="#000"/>
  <rect x="83" y="9" width="2" height="1" fill="url(#g)"/>
  <rect x="84" y="8" width="3" height="1" fill="#000"/>
  <rect x="84" y="8" width="2" height="1" fill="url(#g)"/>
  <rect x="85" y="7" width="3" height="1" fill="#000"/>
  <rect x="85" y="7" width="2" height="1" fill="url(#g)"/>
  <rect x="86" y="6" width="3" height="1" fill="#000"/>
  <rect x="86" y="6" width="2" height="1" fill="url(#g)"/>
  <rect x="87" y="5" width="3" height="1" fill="#000"/>
  <rect x="87" y="5" width="2" height="1" fill="url(#g)"/>
  <rect x="88" y="4" width="3" height="1" fill="#000"/>
  <rect x="88" y="4" width="2" height="1" fill="url(#g)"/>
  <rect x="88" y="3" width="4" height="1" fill="#000"/>
  <!-- Lower diagonal -->
  <rect x="82" y="12" width="3" height="1" fill="#000"/>
  <rect x="82" y="12" width="2" height="1" fill="url(#g)"/>
  <rect x="83" y="13" width="3" height="1" fill="#000"/>
  <rect x="83" y="13" width="2" height="1" fill="url(#g)"/>
  <rect x="84" y="14" width="3" height="1" fill="#000"/>
  <rect x="84" y="14" width="2" height="1" fill="url(#g)"/>
  <rect x="85" y="15" width="3" height="1" fill="#000"/>
  <rect x="85" y="15" width="2" height="1" fill="url(#g)"/>
  <rect x="86" y="16" width="3" height="1" fill="#000"/>
  <rect x="86" y="16" width="2" height="1" fill="url(#g)"/>
  <rect x="87" y="17" width="3" height="1" fill="#000"/>
  <rect x="87" y="17" width="2" height="1" fill="url(#g)"/>
  <rect x="88" y="18" width="3" height="1" fill="#000"/>
  <rect x="88" y="18" width="2" height="1" fill="url(#g)"/>
  <rect x="89" y="19" width="3" height="1" fill="#000"/>
  <rect x="89" y="19" width="2" height="1" fill="url(#g)"/>
  <rect x="89" y="20" width="4" height="1" fill="#000"/>
  <!-- Middle connection -->
  <rect x="82" y="11" width="3" height="1" fill="#000"/>
  <rect x="82" y="11" width="2" height="1" fill="url(#g)"/>

  <!-- ==================== E ==================== -->
  <!-- E starts at x=98 -->
  <!-- Left vertical bar -->
  <rect x="98" y="3" width="4" height="1" fill="#000"/>
  <rect x="98" y="4" width="4" height="17" fill="#000"/>
  <rect x="99" y="4" width="2" height="16" fill="url(#g)"/>
  <!-- Top bar -->
  <rect x="102" y="3" width="14" height="1" fill="#000"/>
  <rect x="102" y="4" width="14" height="1" fill="#000"/>
  <rect x="102" y="4" width="12" height="1" fill="url(#g)"/>
  <rect x="102" y="5" width="14" height="1" fill="#000"/>
  <rect x="102" y="5" width="12" height="1" fill="url(#g)"/>
  <rect x="102" y="6" width="14" height="1" fill="#000"/>
  <rect x="102" y="6" width="12" height="1" fill="url(#g)"/>
  <!-- Middle bar -->
  <rect x="102" y="10" width="12" height="1" fill="#000"/>
  <rect x="102" y="10" width="10" height="1" fill="url(#g)"/>
  <rect x="102" y="11" width="12" height="1" fill="#000"/>
  <rect x="102" y="11" width="10" height="1" fill="url(#g)"/>
  <rect x="102" y="12" width="12" height="1" fill="#000"/>
  <rect x="102" y="12" width="10" height="1" fill="url(#g)"/>
  <!-- Bottom bar -->
  <rect x="102" y="17" width="14" height="1" fill="#000"/>
  <rect x="102" y="17" width="12" height="1" fill="url(#g)"/>
  <rect x="102" y="18" width="14" height="1" fill="#000"/>
  <rect x="102" y="18" width="12" height="1" fill="url(#g)"/>
  <rect x="102" y="19" width="14" height="1" fill="#000"/>
  <rect x="102" y="19" width="12" height="1" fill="url(#g)"/>
  <rect x="102" y="20" width="14" height="1" fill="#000"/>
</svg>
