<svg xmlns="http://www.w3.org/2000/svg" viewBox="0 0 32 32" shape-rendering="crispEdges"><path fill="#b13e53" d="M5,4h22v1h-22zM4,5h2v1h-2zM14,5h14v1h-14zM4,6h2v1h-2zM14,6h14v1h-14zM4,7h24v1h-24zM3,8h26v1h-26zM3,9h2v1h-2zM9,9h1v1h-1zM14,9h1v1h-1zM19,9h1v1h-1zM24,9h1v1h-1zM28,9h1v1h-1zM3,10h2v1h-2zM9,10h1v1h-1zM14,10h1v1h-1zM19,10h1v1h-1zM24,10h1v1h-1zM28,10h1v1h-1zM3,11h2v1h-2zM9,11h1v1h-1zM14,11h1v1h-1zM19,11h1v1h-1zM24,11h1v1h-1zM28,11h1v1h-1zM3,12h2v1h-2zM9,12h1v1h-1zM14,12h1v1h-1zM19,12h1v1h-1zM24,12h1v1h-1zM28,12h1v1h-1zM3,14h26v1h-26zM3,15h2v1h-2zM9,15h1v1h-1zM14,15h1v1h-1zM19,15h1v1h-1zM24,15h1v1h-1zM28,15h1v1h-1zM3,16h2v1h-2zM9,16h1v1h-1zM14,16h1v1h-1zM19,16h1v1h-1zM24,16h1v1h-1zM28,16h1v1h-1zM3,17h2v1h-2zM9,17h1v1h-1zM14,17h1v1h-1zM19,17h1v1h-1zM24,17h1v1h-1zM28,17h1v1h-1zM3,18h2v1h-2zM9,18h1v1h-1zM14,18h1v1h-1zM19,18h1v1h-1zM24,18h1v1h-1zM28,18h1v1h-1zM3,19h22v1h-22zM28,19h1v1h-1zM4,20h21v1h-21zM4,21h8v1h-8zM13,21h4v1h-4zM18,21h7v1h-7zM3,22h7v1h-7zM12,22h6v1h-6zM20,22h5v1h-5zM28,22h1v1h-1zM3,23h10v1h-10zM17,23h8v1h-8zM28,23h1v1h-1zM3,24h22v1h-22zM28,24h1v1h-1zM3,25h3v1h-3zM10,25h11v1h-11zM25,25h4v1h-4zM3,26h3v1h-3zM10,26h11v1h-11zM25,26h4v1h-4z"/><path fill="#ffecd2" d="M6,5h8v1h-8zM6,6h8v1h-8z"/><path fill="#41a6f6" d="M5,9h4v1h-4zM10,9h4v1h-4zM15,9h4v1h-4zM20,9h4v1h-4zM25,9h3v1h-3zM5,10h4v1h-4zM10,10h4v1h-4zM15,10h4v1h-4zM20,10h4v1h-4zM25,10h3v1h-3zM5,11h4v1h-4zM10,11h4v1h-4zM15,11h4v1h-4zM20,11h4v1h-4zM25,11h3v1h-3zM5,12h4v1h-4zM10,12h4v1h-4zM15,12h4v1h-4zM20,12h4v1h-4zM25,12h3v1h-3zM25,15h3v1h-3zM25,16h1v1h-1zM27,16h1v1h-1zM25,17h1v1h-1zM27,17h1v1h-1zM25,18h1v1h-1zM27,18h1v1h-1zM25,19h1v1h-1zM27,19h1v1h-1zM25,20h1v1h-1zM27,20h1v1h-1zM25,21h1v1h-1zM27,21h1v1h-1zM25,22h1v1h-1zM27,22h1v1h-1zM25,23h1v1h-1zM27,23h1v1h-1zM25,24h3v1h-3z"/><path fill="#333c57" d="M3,13h26v1h-26zM26,16h1v1h-1zM26,17h1v1h-1zM26,18h1v1h-1zM26,19h1v1h-1zM26,20h1v1h-1zM26,21h1v1h-1zM26,22h1v1h-1zM26,23h1v1h-1zM0,30h32v1h-32zM0,31h32v1h-32z"/><path fill="#73eff7" d="M5,15h4v1h-4zM10,15h4v1h-4zM15,15h4v1h-4zM20,15h4v1h-4zM5,16h4v1h-4zM10,16h4v1h-4zM15,16h4v1h-4zM20,16h4v1h-4zM5,17h4v1h-4zM10,17h4v1h-4zM15,17h4v1h-4zM20,17h4v1h-4zM5,18h4v1h-4zM10,18h4v1h-4zM15,18h4v1h-4zM20,18h4v1h-4z"/><path fill="#ffcd75" d="M3,20h1v1h-1zM28,20h1v1h-1zM3,21h1v1h-1zM28,21h1v1h-1z"/><path fill="#1a1c2c" d="M12,21h1v1h-1zM17,21h1v1h-1zM13,23h4v1h-4zM7,25h2v1h-2zM22,25h2v1h-2zM6,26h1v1h-1zM8,26h2v1h-2zM21,26h1v1h-1zM23,26h2v1h-2zM6,27h2v1h-2zM9,27h1v1h-1zM21,27h2v1h-2zM24,27h1v1h-1zM7,28h2v1h-2zM22,28h2v1h-2z"/><path fill="#ff9eb7" d="M10,22h2v1h-2zM18,22h2v1h-2z"/><path fill="#566c86" d="M7,26h1v1h-1zM22,26h1v1h-1zM0,27h6v1h-6zM8,27h1v1h-1zM10,27h11v1h-11zM23,27h1v1h-1zM25,27h7v1h-7zM0,28h6v1h-6zM10,28h11v1h-11zM25,28h7v1h-7zM0,29h32v1h-32z"/></svg>