<svg xmlns="http://www.w3.org/2000/svg" viewBox="0 0 32 32" shape-rendering="crispEdges"><path fill="#8b5e34" d="M15,3h2v1h-2ZM15,4h2v1h-2ZM16,5h1v1h-1ZM15,6h2v1h-2ZM15,7h2v1h-2ZM16,8h1v1h-1ZM15,9h2v1h-2ZM15,10h2v1h-2ZM16,11h1v1h-1ZM15,12h2v1h-2ZM15,13h2v1h-2ZM16,14h1v1h-1ZM15,15h2v1h-2ZM15,16h2v1h-2ZM30,16h1v1h-1ZM2,17h1v1h-1ZM15,17h2v1h-2ZM29,17h1v1h-1ZM2,18h2v1h-2ZM8,18h1v1h-1ZM11,18h1v1h-1ZM14,18h1v1h-1ZM17,18h1v1h-1ZM20,18h1v1h-1ZM23,18h1v1h-1ZM28,18h1v1h-1ZM3,19h3v1h-3ZM11,19h1v1h-1ZM23,19h1v1h-1ZM26,19h3v1h-3ZM4,20h6v1h-6ZM11,20h3v1h-3ZM15,20h2v1h-2ZM18,20h6v1h-6ZM25,20h3v1h-3ZM4,21h11v1h-11ZM17,21h11v1h-11ZM7,22h1v1h-1ZM11,22h1v1h-1ZM15,22h1v1h-1ZM19,22h1v1h-1ZM23,22h1v1h-1ZM8,23h1v1h-1ZM12,23h1v1h-1ZM16,23h1v1h-1ZM20,23h1v1h-1ZM24,23h1v1h-1Z"/><path fill="#f4f4f4" d="M8,5h2v1h-2ZM11,5h2v1h-2ZM14,5h2v1h-2ZM17,5h7v1h-7ZM19,6h1v1h-1ZM22,6h1v1h-1ZM17,7h7v1h-7ZM8,8h2v1h-2ZM11,8h2v1h-2ZM14,8h2v1h-2ZM17,8h7v1h-7ZM19,9h1v1h-1ZM22,9h1v1h-1ZM17,10h7v1h-7ZM8,11h2v1h-2ZM11,11h2v1h-2ZM14,11h2v1h-2ZM17,11h7v1h-7ZM19,12h1v1h-1ZM22,12h1v1h-1ZM17,13h7v1h-7ZM8,14h2v1h-2ZM11,14h2v1h-2ZM14,14h2v1h-2ZM17,14h7v1h-7ZM19,15h1v1h-1ZM22,15h1v1h-1ZM17,16h7v1h-7ZM13,19h1v1h-1ZM17,19h1v1h-1Z"/><path fill="#b13e53" d="M10,5h1v1h-1ZM13,5h1v1h-1ZM8,6h7v1h-7ZM17,6h2v1h-2ZM20,6h2v1h-2ZM23,6h2v1h-2ZM8,7h7v1h-7ZM10,8h1v1h-1ZM13,8h1v1h-1ZM8,9h7v1h-7ZM17,9h2v1h-2ZM20,9h2v1h-2ZM23,9h2v1h-2ZM8,10h7v1h-7ZM10,11h1v1h-1ZM13,11h1v1h-1ZM8,12h7v1h-7ZM17,12h2v1h-2ZM20,12h2v1h-2ZM23,12h2v1h-2ZM8,13h7v1h-7ZM2,14h1v1h-1ZM10,14h1v1h-1ZM13,14h1v1h-1ZM2,15h1v1h-1ZM8,15h7v1h-7ZM17,15h2v1h-2ZM20,15h2v1h-2ZM23,15h2v1h-2ZM8,16h7v1h-7ZM7,18h1v1h-1ZM19,18h1v1h-1ZM6,19h2v1h-2ZM19,19h1v1h-1Z"/><path fill="#ffcd75" d="M0,13h1v1h-1ZM1,14h1v1h-1ZM0,15h1v1h-1ZM0,16h1v1h-1ZM1,17h1v1h-1ZM13,18h1v1h-1ZM25,18h1v1h-1ZM12,19h1v1h-1ZM24,19h2v1h-2Z"/><path fill="#ef7d57" d="M0,14h1v1h-1ZM1,16h1v1h-1ZM30,17h1v1h-1ZM8,19h1v1h-1ZM20,19h1v1h-1ZM10,20h1v1h-1ZM24,20h1v1h-1Z"/><path fill="#1a1c2c" d="M1,15h1v1h-1ZM14,19h1v1h-1ZM18,19h1v1h-1Z"/><path fill="#94b0c2" d="M6,18h1v1h-1ZM9,18h1v1h-1ZM12,18h1v1h-1ZM15,18h1v1h-1ZM18,18h1v1h-1ZM21,18h1v1h-1ZM24,18h1v1h-1Z"/><path fill="#3b5dc9" d="M10,18h1v1h-1ZM22,18h1v1h-1ZM9,19h2v1h-2ZM21,19h2v1h-2Z"/><path fill="#38b764" d="M16,18h1v1h-1ZM15,19h2v1h-2Z"/><path fill="#333c57" d="M14,20h1v1h-1ZM17,20h1v1h-1ZM15,21h2v1h-2Z"/><path fill="#41a6f6" d="M0,22h1v1h-1ZM4,22h1v1h-1ZM8,22h1v1h-1ZM12,22h1v1h-1ZM16,22h1v1h-1ZM20,22h1v1h-1ZM24,22h1v1h-1ZM28,22h1v1h-1ZM0,23h1v1h-1ZM2,23h3v1h-3ZM6,23h2v1h-2ZM10,23h2v1h-2ZM14,23h2v1h-2ZM18,23h2v1h-2ZM22,23h2v1h-2ZM26,23h3v1h-3ZM30,23h2v1h-2ZM1,24h3v1h-3ZM5,24h3v1h-3ZM9,24h3v1h-3ZM13,24h3v1h-3ZM17,24h3v1h-3ZM21,24h3v1h-3ZM25,24h3v1h-3ZM29,24h3v1h-3ZM0,25h3v1h-3ZM4,25h3v1h-3ZM8,25h3v1h-3ZM12,25h3v1h-3ZM16,25h3v1h-3ZM20,25h3v1h-3ZM24,25h3v1h-3ZM28,25h3v1h-3ZM0,26h2v1h-2ZM3,26h3v1h-3ZM7,26h3v1h-3ZM11,26h3v1h-3ZM15,26h3v1h-3ZM19,26h3v1h-3ZM23,26h3v1h-3ZM27,26h3v1h-3ZM31,26h1v1h-1ZM0,27h1v1h-1ZM2,27h3v1h-3ZM6,27h3v1h-3ZM10,27h3v1h-3ZM14,27h3v1h-3ZM18,27h3v1h-3ZM22,27h3v1h-3ZM26,27h3v1h-3ZM30,27h2v1h-2ZM1,28h3v1h-3ZM5,28h3v1h-3ZM9,28h3v1h-3ZM13,28h3v1h-3ZM17,28h3v1h-3ZM21,28h3v1h-3ZM25,28h3v1h-3ZM29,28h3v1h-3ZM0,29h3v1h-3ZM4,29h3v1h-3ZM8,29h3v1h-3ZM12,29h3v1h-3ZM16,29h3v1h-3ZM20,29h3v1h-3ZM24,29h3v1h-3ZM28,29h3v1h-3ZM0,30h2v1h-2ZM3,30h3v1h-3ZM7,30h3v1h-3ZM11,30h3v1h-3ZM15,30h3v1h-3ZM19,30h3v1h-3ZM23,30h3v1h-3ZM27,30h3v1h-3ZM31,30h1v1h-1ZM0,31h1v1h-1ZM2,31h3v1h-3ZM6,31h3v1h-3ZM10,31h3v1h-3ZM14,31h3v1h-3ZM18,31h3v1h-3ZM22,31h3v1h-3ZM26,31h3v1h-3ZM30,31h2v1h-2Z"/><path fill="#73eff7" d="M1,22h1v1h-1ZM5,22h1v1h-1ZM9,22h1v1h-1ZM13,22h1v1h-1ZM17,22h1v1h-1ZM21,22h1v1h-1ZM25,22h1v1h-1ZM29,22h1v1h-1ZM1,23h1v1h-1ZM5,23h1v1h-1ZM9,23h1v1h-1ZM13,23h1v1h-1ZM17,23h1v1h-1ZM21,23h1v1h-1ZM25,23h1v1h-1ZM29,23h1v1h-1ZM0,24h1v1h-1ZM4,24h1v1h-1ZM8,24h1v1h-1ZM12,24h1v1h-1ZM16,24h1v1h-1ZM20,24h1v1h-1ZM24,24h1v1h-1ZM28,24h1v1h-1ZM3,25h1v1h-1ZM7,25h1v1h-1ZM11,25h1v1h-1ZM15,25h1v1h-1ZM19,25h1v1h-1ZM23,25h1v1h-1ZM27,25h1v1h-1ZM31,25h1v1h-1ZM2,26h1v1h-1ZM6,26h1v1h-1ZM10,26h1v1h-1ZM14,26h1v1h-1ZM18,26h1v1h-1ZM22,26h1v1h-1ZM26,26h1v1h-1ZM30,26h1v1h-1ZM1,27h1v1h-1ZM5,27h1v1h-1ZM9,27h1v1h-1ZM13,27h1v1h-1ZM17,27h1v1h-1ZM21,27h1v1h-1ZM25,27h1v1h-1ZM29,27h1v1h-1ZM0,28h1v1h-1ZM4,28h1v1h-1ZM8,28h1v1h-1ZM12,28h1v1h-1ZM16,28h1v1h-1ZM20,28h1v1h-1ZM24,28h1v1h-1ZM28,28h1v1h-1ZM3,29h1v1h-1ZM7,29h1v1h-1ZM11,29h1v1h-1ZM15,29h1v1h-1ZM19,29h1v1h-1ZM23,29h1v1h-1ZM27,29h1v1h-1ZM31,29h1v1h-1ZM2,30h1v1h-1ZM6,30h1v1h-1ZM10,30h1v1h-1ZM14,30h1v1h-1ZM18,30h1v1h-1ZM22,30h1v1h-1ZM26,30h1v1h-1ZM30,30h1v1h-1ZM1,31h1v1h-1ZM5,31h1v1h-1ZM9,31h1v1h-1ZM13,31h1v1h-1ZM17,31h1v1h-1ZM21,31h1v1h-1ZM25,31h1v1h-1ZM29,31h1v1h-1Z"/></svg>