<svg xmlns="http://www.w3.org/2000/svg" viewBox="0 0 32 32" shape-rendering="crispEdges">
<path fill="#41a6f6" d="M0,22h1v1h-1zM1,22h1v1h-1zM2,22h1v1h-1zM3,22h1v1h-1zM4,22h1v1h-1zM5,22h1v1h-1zM6,22h1v1h-1zM7,22h1v1h-1zM8,22h1v1h-1zM9,22h1v1h-1zM10,22h1v1h-1zM11,22h1v1h-1zM12,22h1v1h-1zM13,22h1v1h-1zM14,22h1v1h-1zM15,22h1v1h-1zM16,22h1v1h-1zM17,22h1v1h-1zM18,22h1v1h-1zM19,22h1v1h-1zM20,22h1v1h-1zM21,22h1v1h-1zM22,22h1v1h-1zM23,22h1v1h-1zM24,22h1v1h-1zM25,22h1v1h-1zM26,22h1v1h-1zM27,22h1v1h-1zM28,22h1v1h-1zM29,22h1v1h-1zM30,22h1v1h-1zM31,22h1v1h-1zM0,23h1v1h-1zM1,23h1v1h-1zM2,23h1v1h-1zM3,23h1v1h-1zM4,23h1v1h-1zM5,23h1v1h-1zM6,23h1v1h-1zM7,23h1v1h-1zM8,23h1v1h-1zM9,23h1v1h-1zM10,23h1v1h-1zM11,23h1v1h-1zM12,23h1v1h-1zM13,23h1v1h-1zM14,23h1v1h-1zM15,23h1v1h-1zM16,23h1v1h-1zM17,23h1v1h-1zM18,23h1v1h-1zM19,23h1v1h-1zM20,23h1v1h-1zM21,23h1v1h-1zM22,23h1v1h-1zM23,23h1v1h-1zM24,23h1v1h-1zM25,23h1v1h-1zM26,23h1v1h-1zM27,23h1v1h-1zM28,23h1v1h-1zM29,23h1v1h-1zM30,23h1v1h-1zM31,23h1v1h-1zM0,24h1v1h-1zM1,24h1v1h-1zM2,24h1v1h-1zM3,24h1v1h-1zM4,24h1v1h-1zM5,24h1v1h-1zM6,24h1v1h-1zM7,24h1v1h-1zM8,24h1v1h-1zM9,24h1v1h-1zM10,24h1v1h-1zM11,24h1v1h-1zM12,24h1v1h-1zM13,24h1v1h-1zM14,24h1v1h-1zM15,24h1v1h-1zM16,24h1v1h-1zM17,24h1v1h-1zM18,24h1v1h-1zM19,24h1v1h-1zM20,24h1v1h-1zM21,24h1v1h-1zM22,24h1v1h-1zM23,24h1v1h-1zM24,24h1v1h-1zM25,24h1v1h-1zM26,24h1v1h-1zM27,24h1v1h-1zM28,24h1v1h-1zM29,24h1v1h-1zM30,24h1v1h-1zM31,24h1v1h-1zM0,25h1v1h-1zM1,25h1v1h-1zM2,25h1v1h-1zM3,25h1v1h-1zM4,25h1v1h-1zM5,25h1v1h-1zM6,25h1v1h-1zM7,25h1v1h-1zM8,25h1v1h-1zM9,25h1v1h-1zM10,25h1v1h-1zM11,25h1v1h-1zM12,25h1v1h-1zM13,25h1v1h-1zM14,25h1v1h-1zM15,25h1v1h-1zM16,25h1v1h-1zM17,25h1v1h-1zM18,25h1v1h-1zM19,25h1v1h-1zM20,25h1v1h-1zM21,25h1v1h-1zM22,25h1v1h-1zM23,25h1v1h-1zM24,25h1v1h-1zM25,25h1v1h-1zM26,25h1v1h-1zM27,25h1v1h-1zM28,25h1v1h-1zM29,25h1v1h-1zM30,25h1v1h-1zM31,25h1v1h-1zM0,26h1v1h-1zM1,26h1v1h-1zM2,26h1v1h-1zM3,26h1v1h-1zM4,26h1v1h-1zM5,26h1v1h-1zM6,26h1v1h-1zM7,26h1v1h-1zM8,26h1v1h-1zM9,26h1v1h-1zM10,26h1v1h-1zM11,26h1v1h-1zM12,26h1v1h-1zM13,26h1v1h-1zM14,26h1v1h-1zM15,26h1v1h-1zM16,26h1v1h-1zM17,26h1v1h-1zM18,26h1v1h-1zM19,26h1v1h-1zM20,26h1v1h-1zM21,26h1v1h-1zM22,26h1v1h-1zM23,26h1v1h-1zM24,26h1v1h-1zM25,26h1v1h-1zM26,26h1v1h-1zM27,26h1v1h-1zM28,26h1v1h-1zM29,26h1v1h-1zM30,26h1v1h-1zM31,26h1v1h-1zM0,27h1v1h-1zM1,27h1v1h-1zM2,27h1v1h-1zM3,27h1v1h-1zM4,27h1v1h-1zM5,27h1v1h-1zM6,27h1v1h-1zM7,27h1v1h-1zM8,27h1v1h-1zM9,27h1v1h-1zM10,27h1v1h-1zM11,27h1v1h-1zM12,27h1v1h-1zM13,27h1v1h-1zM14,27h1v1h-1zM15,27h1v1h-1zM16,27h1v1h-1zM17,27h1v1h-1zM18,27h1v1h-1zM19,27h1v1h-1zM20,27h1v1h-1zM21,27h1v1h-1zM22,27h1v1h-1zM23,27h1v1h-1zM24,27h1v1h-1zM25,27h1v1h-1zM26,27h1v1h-1zM27,27h1v1h-1zM28,27h1v1h-1zM29,27h1v1h-1zM30,27h1v1h-1zM31,27h1v1h-1zM0,28h1v1h-1zM1,28h1v1h-1zM2,28h1v1h-1zM3,28h1v1h-1zM4,28h1v1h-1zM5,28h1v1h-1zM6,28h1v1h-1zM7,28h1v1h-1zM8,28h1v1h-1zM9,28h1v1h-1zM10,28h1v1h-1zM11,28h1v1h-1zM12,28h1v1h-1zM13,28h1v1h-1zM14,28h1v1h-1zM15,28h1v1h-1zM16,28h1v1h-1zM17,28h1v1h-1zM18,28h1v1h-1zM19,28h1v1h-1zM20,28h1v1h-1zM21,28h1v1h-1zM22,28h1v1h-1zM23,28h1v1h-1zM24,28h1v1h-1zM25,28h1v1h-1zM26,28h1v1h-1zM27,28h1v1h-1zM28,28h1v1h-1zM29,28h1v1h-1zM30,28h1v1h-1zM31,28h1v1h-1zM0,29h1v1h-1zM1,29h1v1h-1zM2,29h1v1h-1zM3,29h1v1h-1zM4,29h1v1h-1zM5,29h1v1h-1zM6,29h1v1h-1zM7,29h1v1h-1zM8,29h1v1h-1zM9,29h1v1h-1zM10,29h1v1h-1zM11,29h1v1h-1zM12,29h1v1h-1zM13,29h1v1h-1zM14,29h1v1h-1zM15,29h1v1h-1zM16,29h1v1h-1zM17,29h1v1h-1zM18,29h1v1h-1zM19,29h1v1h-1zM20,29h1v1h-1zM21,29h1v1h-1zM22,29h1v1h-1zM23,29h1v1h-1zM24,29h1v1h-1zM25,29h1v1h-1zM26,29h1v1h-1zM27,29h1v1h-1zM28,29h1v1h-1zM29,29h1v1h-1zM30,29h1v1h-1zM31,29h1v1h-1zM0,30h1v1h-1zM1,30h1v1h-1zM2,30h1v1h-1zM3,30h1v1h-1zM4,30h1v1h-1zM5,30h1v1h-1zM6,30h1v1h-1zM7,30h1v1h-1zM8,30h1v1h-1zM9,30h1v1h-1zM10,30h1v1h-1zM11,30h1v1h-1zM12,30h1v1h-1zM13,30h1v1h-1zM14,30h1v1h-1zM15,30h1v1h-1zM16,30h1v1h-1zM17,30h1v1h-1zM18,30h1v1h-1zM19,30h1v1h-1zM20,30h1v1h-1zM21,30h1v1h-1zM22,30h1v1h-1zM23,30h1v1h-1zM24,30h1v1h-1zM25,30h1v1h-1zM26,30h1v1h-1zM27,30h1v1h-1zM28,30h1v1h-1zM29,30h1v1h-1zM30,30h1v1h-1zM31,30h1v1h-1zM0,31h1v1h-1zM1,31h1v1h-1zM2,31h1v1h-1zM3,31h1v1h-1zM4,31h1v1h-1zM5,31h1v1h-1zM6,31h1v1h-1zM7,31h1v1h-1zM8,31h1v1h-1zM9,31h1v1h-1zM10,31h1v1h-1zM11,31h1v1h-1zM12,31h1v1h-1zM13,31h1v1h-1zM14,31h1v1h-1zM15,31h1v1h-1zM16,31h1v1h-1zM17,31h1v1h-1zM18,31h1v1h-1zM19,31h1v1h-1zM20,31h1v1h-1zM21,31h1v1h-1zM22,31h1v1h-1zM23,31h1v1h-1zM24,31h1v1h-1zM25,31h1v1h-1zM26,31h1v1h-1zM27,31h1v1h-1zM28,31h1v1h-1zM29,31h1v1h-1zM30,31h1v1h-1zM31,31h1v1h-1zM12,21h1v1h-1zM13,21h1v1h-1zM12,20h1v1h-1z"/>
<path fill="#73eff7" d="M2,24h1v1h-1zM3,24h1v1h-1zM6,24h1v1h-1zM7,24h1v1h-1zM10,24h1v1h-1zM11,24h1v1h-1zM14,24h1v1h-1zM15,24h1v1h-1zM18,24h1v1h-1zM19,24h1v1h-1zM22,24h1v1h-1zM23,24h1v1h-1zM26,24h1v1h-1zM27,24h1v1h-1zM0,27h1v1h-1zM1,27h1v1h-1zM5,27h1v1h-1zM6,27h1v1h-1zM10,27h1v1h-1zM11,27h1v1h-1zM15,27h1v1h-1zM16,27h1v1h-1zM20,27h1v1h-1zM21,27h1v1h-1zM25,27h1v1h-1zM26,27h1v1h-1zM30,27h1v1h-1zM31,27h1v1h-1z"/>
<path fill="#38b764" d="M12,20h1v1h-1zM10,21h1v1h-1zM11,21h1v1h-1zM12,21h1v1h-1zM13,21h1v1h-1zM14,21h1v1h-1zM9,22h1v1h-1zM10,22h1v1h-1zM11,22h1v1h-1zM12,22h1v1h-1zM13,22h1v1h-1zM14,22h1v1h-1zM15,22h1v1h-1zM9,23h1v1h-1zM10,23h1v1h-1zM11,23h1v1h-1zM12,23h1v1h-1zM13,23h1v1h-1zM14,23h1v1h-1zM15,23h1v1h-1zM8,24h1v1h-1zM9,24h1v1h-1zM10,24h1v1h-1zM11,24h1v1h-1zM12,24h1v1h-1zM13,24h1v1h-1zM14,24h1v1h-1zM15,24h1v1h-1zM16,24h1v1h-1zM9,25h1v1h-1zM10,25h1v1h-1zM11,25h1v1h-1zM12,25h1v1h-1zM13,25h1v1h-1zM14,25h1v1h-1zM15,25h1v1h-1zM9,26h1v1h-1zM10,26h1v1h-1zM11,26h1v1h-1zM12,26h1v1h-1zM13,26h1v1h-1zM14,26h1v1h-1zM15,26h1v1h-1zM10,27h1v1h-1zM11,27h1v1h-1zM12,27h1v1h-1zM13,27h1v1h-1zM14,27h1v1h-1zM12,28h1v1h-1zM9,22h1v1h-1zM10,22h1v1h-1zM9,22h1v1h-1z"/>
<path fill="#257179" d="M12,21h1v1h-1zM10,22h1v1h-1zM11,22h1v1h-1zM12,22h1v1h-1zM13,22h1v1h-1zM14,22h1v1h-1zM10,23h1v1h-1zM11,23h1v1h-1zM12,23h1v1h-1zM13,23h1v1h-1zM14,23h1v1h-1zM9,24h1v1h-1zM10,24h1v1h-1zM11,24h1v1h-1zM12,24h1v1h-1zM13,24h1v1h-1zM14,24h1v1h-1zM15,24h1v1h-1zM10,25h1v1h-1zM11,25h1v1h-1zM12,25h1v1h-1zM13,25h1v1h-1zM14,25h1v1h-1zM10,26h1v1h-1zM11,26h1v1h-1zM12,26h1v1h-1zM13,26h1v1h-1zM14,26h1v1h-1zM12,27h1v1h-1z"/>
<path fill="#ff9eb7" d="M14,10h1v1h-1zM15,10h1v1h-1zM16,10h1v1h-1zM17,10h1v1h-1zM14,11h1v1h-1zM15,11h1v1h-1zM16,11h1v1h-1zM17,11h1v1h-1zM13,12h1v1h-1zM14,12h1v1h-1zM15,12h1v1h-1zM16,12h1v1h-1zM17,12h1v1h-1zM18,12h1v1h-1zM13,13h1v1h-1zM14,13h1v1h-1zM15,13h1v1h-1zM16,13h1v1h-1zM17,13h1v1h-1zM18,13h1v1h-1zM12,14h1v1h-1zM13,14h1v1h-1zM14,14h1v1h-1zM15,14h1v1h-1zM16,14h1v1h-1zM17,14h1v1h-1zM18,14h1v1h-1zM19,14h1v1h-1zM12,15h1v1h-1zM13,15h1v1h-1zM14,15h1v1h-1zM15,15h1v1h-1zM16,15h1v1h-1zM17,15h1v1h-1zM18,15h1v1h-1zM19,15h1v1h-1zM11,16h1v1h-1zM12,16h1v1h-1zM13,16h1v1h-1zM14,16h1v1h-1zM15,16h1v1h-1zM16,16h1v1h-1zM17,16h1v1h-1zM18,16h1v1h-1zM19,16h1v1h-1zM20,16h1v1h-1zM11,17h1v1h-1zM12,17h1v1h-1zM13,17h1v1h-1zM14,17h1v1h-1zM15,17h1v1h-1zM16,17h1v1h-1zM17,17h1v1h-1zM18,17h1v1h-1zM19,17h1v1h-1zM20,17h1v1h-1zM11,18h1v1h-1zM12,18h1v1h-1zM13,18h1v1h-1zM14,18h1v1h-1zM15,18h1v1h-1zM16,18h1v1h-1zM17,18h1v1h-1zM18,18h1v1h-1zM19,18h1v1h-1zM20,18h1v1h-1zM11,19h1v1h-1zM12,19h1v1h-1zM13,19h1v1h-1zM14,19h1v1h-1zM15,19h1v1h-1zM16,19h1v1h-1zM17,19h1v1h-1zM18,19h1v1h-1zM19,19h1v1h-1zM20,19h1v1h-1zM12,20h1v1h-1zM13,20h1v1h-1zM14,20h1v1h-1zM15,20h1v1h-1zM16,20h1v1h-1zM17,20h1v1h-1zM18,20h1v1h-1zM19,20h1v1h-1zM12,21h1v1h-1zM13,21h1v1h-1zM14,21h1v1h-1zM15,21h1v1h-1zM16,21h1v1h-1zM17,21h1v1h-1zM18,21h1v1h-1zM19,21h1v1h-1zM13,16h1v1h-1zM18,16h1v1h-1z"/>
<path fill="#f4f4f4" d="M15,10h1v1h-1zM16,10h1v1h-1zM14,12h1v1h-1zM17,12h1v1h-1zM13,14h1v1h-1zM18,14h1v1h-1zM11,16h1v1h-1zM20,16h1v1h-1zM11,18h1v1h-1zM20,18h1v1h-1z"/>
<path fill="#ffcd75" d="M15,11h1v1h-1zM16,11h1v1h-1zM14,11h1v1h-1zM17,11h1v1h-1z"/>
<path fill="#1a1c2c" d="M14,15h1v1h-1zM17,15h1v1h-1zM15,17h1v1h-1zM16,17h1v1h-1zM14,17h1v1h-1zM17,17h1v1h-1zM9,21h1v1h-1zM10,21h1v1h-1z"/>
<path fill="#b13e53" d="M13,16h1v1h-1zM18,16h1v1h-1z"/>
<path fill="#a7f070" d="M9,23h1v1h-1zM10,23h1v1h-1z"/>
</svg>