<svg xmlns="http://www.w3.org/2000/svg" viewBox="0 0 32 32" shape-rendering="crispEdges">
  <path fill="#ffcd75" d="M22,26h1v1h-1zM21,25h1v1h-1zM20,24h1v1h-1zM19,23h1v1h-1zM18,22h1v1h-1zM17,21h1v1h-1zM16,20h1v1h-1zM15,19h1v1h-1zM14,18h1v1h-1zM13,17h1v1h-1zM12,16h1v1h-1zM11,15h1v1h-1zM9,12h1v1h-1zM9,13h1v1h-1zM9,14h1v1h-1zM10,12h1v1h-1zM10,13h1v1h-1zM10,14h1v1h-1zM11,12h1v1h-1zM11,13h1v1h-1zM11,14h1v1h-1zM10,10h1v1h-1zM10,11h1v1h-1zM10,15h1v1h-1zM10,16h1v1h-1zM7,13h1v1h-1zM8,13h1v1h-1zM12,13h1v1h-1zM13,13h1v1h-1zM8,11h1v1h-1zM12,11h1v1h-1zM8,14h1v1h-1zM12,14h1v1h-1zM6,6h1v1h-1zM3,10h1v1h-1zM14,8h1v1h-1zM9,6h1v1h-1zM16,13h1v1h-1z"/>
  <path fill="#ef7d57" d="M23,26h1v1h-1zM22,25h1v1h-1zM21,24h1v1h-1zM20,23h1v1h-1zM19,22h1v1h-1zM18,21h1v1h-1zM17,20h1v1h-1zM16,19h1v1h-1zM15,18h1v1h-1zM14,17h1v1h-1zM13,16h1v1h-1zM12,15h1v1h-1zM21,26h1v1h-1zM22,25h1v1h-1zM18,23h1v1h-1zM19,22h1v1h-1zM15,20h1v1h-1zM16,19h1v1h-1zM12,17h1v1h-1zM13,16h1v1h-1z"/>
  <path fill="#f4f4f4" d="M10,12h1v1h-1zM10,13h1v1h-1zM11,13h1v1h-1zM2,7h1v1h-1zM5,5h1v1h-1zM15,7h1v1h-1zM4,15h1v1h-1zM16,10h1v1h-1z"/>
  <path fill="#73eff7" d="M6,10h1v1h-1zM4,8h1v1h-1zM8,7h1v1h-1zM13,9h1v1h-1zM15,11h1v1h-1z"/>
  <path fill="#ff9eb7" d="M5,12h1v1h-1zM3,14h1v1h-1zM7,8h1v1h-1zM14,10h1v1h-1zM12,7h1v1h-1zM22,24h1v1h-1zM21,23h1v1h-1zM21,24h1v1h-1zM20,24h1v1h-1zM25,24h1v1h-1zM26,23h1v1h-1zM25,23h1v1h-1zM26,24h1v1h-1zM20,25h1v1h-1zM26,25h1v1h-1zM19,26h1v1h-1zM27,26h1v1h-1z"/>
  <path fill="#b13e53" d="M23,24h1v1h-1zM24,24h1v1h-1z"/>
</svg>
