<svg xmlns="http://www.w3.org/2000/svg" width="32" height="32" viewBox="0 0 32 32" shape-rendering="crispEdges">
<path fill="#f4f4f4" d="M12 0h1v1h-1zM27 2h1v1h-1zM4 4h1v1h-1zM22 6h1v1h-1zM7 7h1v1h-1zM4 11h11v1h-11zM4 12h11v1h-11zM4 13h1v1h-1zM6 13h1v1h-1zM8 13h1v1h-1zM10 13h1v1h-1zM12 13h3v1h-3zM4 14h2v1h-2zM7 14h1v1h-1zM9 14h1v1h-1zM11 14h1v1h-1zM13 14h2v1h-2zM4 15h11v1h-11zM4 16h1v1h-1zM7 16h1v1h-1zM10 16h1v1h-1zM13 16h2v1h-2zM4 17h11v1h-11zM4 18h1v1h-1zM6 18h1v1h-1zM8 18h1v1h-1zM10 18h1v1h-1zM12 18h3v1h-3zM4 19h2v1h-2zM7 19h1v1h-1zM9 19h1v1h-1zM11 19h4v1h-4zM4 20h11v1h-11zM4 21h1v1h-1zM6 21h1v1h-1zM8 21h1v1h-1zM10 21h1v1h-1zM12 21h1v1h-1zM14 21h1v1h-1zM4 22h5v1h-5zM12 22h3v1h-3zM4 23h4v1h-4zM9 23h3v1h-3zM13 23h2v1h-2zM4 24h4v1h-4zM9 24h3v1h-3zM13 24h2v1h-2z"/><path fill="#ffcd75" d="M14 1h1v1h-1zM24 1h1v1h-1zM10 3h1v1h-1zM11 4h1v1h-1zM15 5h2v1h-2zM23 5h1v1h-1zM14 6h1v1h-1zM17 6h1v1h-1zM15 7h2v1h-2zM15 9h2v1h-2zM15 10h2v1h-2zM15 11h2v1h-2zM3 12h1v1h-1zM15 12h2v1h-2zM15 13h2v1h-2zM3 14h1v1h-1zM15 14h2v1h-2zM15 15h2v1h-2zM15 16h2v1h-2zM15 17h2v1h-2zM15 18h2v1h-2zM15 19h2v1h-2zM15 20h2v1h-2zM15 21h2v1h-2zM15 22h2v1h-2zM15 23h2v1h-2zM15 24h2v1h-2zM15 25h2v1h-2zM3 26h26v1h-26z"/><path fill="#73eff7" d="M8 2h1v1h-1zM17 2h1v1h-1zM15 3h1v1h-1zM20 3h1v1h-1zM26 4h1v1h-1zM6 5h1v1h-1zM6 19h1v1h-1zM8 19h1v1h-1zM10 19h1v1h-1zM19 19h1v1h-1zM21 19h1v1h-1zM23 19h1v1h-1zM9 22h3v1h-3zM8 23h1v1h-1zM12 23h1v1h-1zM8 24h1v1h-1zM12 24h1v1h-1z"/><path fill="#ef7d57" d="M15 6h2v1h-2z"/><path fill="#5d275d" d="M3 9h12v1h-12zM3 10h12v1h-12zM3 11h1v1h-1zM3 13h1v1h-1zM5 13h1v1h-1zM7 13h1v1h-1zM9 13h1v1h-1zM11 13h1v1h-1zM3 15h1v1h-1zM3 16h1v1h-1zM5 16h2v1h-2zM8 16h2v1h-2zM11 16h2v1h-2zM3 17h1v1h-1zM3 18h1v1h-1zM3 19h1v1h-1zM3 20h1v1h-1zM3 21h1v1h-1zM5 21h1v1h-1zM7 21h1v1h-1zM9 21h1v1h-1zM11 21h1v1h-1zM13 21h1v1h-1zM3 22h1v1h-1zM3 23h1v1h-1zM3 24h1v1h-1zM3 25h12v1h-12z"/><path fill="#29366f" d="M17 9h12v1h-12zM17 10h12v1h-12zM28 11h1v1h-1zM28 12h1v1h-1zM18 13h1v1h-1zM20 13h1v1h-1zM22 13h1v1h-1zM24 13h1v1h-1zM28 13h1v1h-1zM28 14h1v1h-1zM28 15h1v1h-1zM18 16h2v1h-2zM21 16h2v1h-2zM24 16h2v1h-2zM28 16h1v1h-1zM28 17h1v1h-1zM28 18h1v1h-1zM28 19h1v1h-1zM28 20h1v1h-1zM18 21h1v1h-1zM20 21h1v1h-1zM22 21h1v1h-1zM24 21h1v1h-1zM26 21h1v1h-1zM28 21h1v1h-1zM28 22h1v1h-1zM28 23h1v1h-1zM28 24h1v1h-1zM17 25h12v1h-12z"/><path fill="#ffe0a8" d="M17 11h11v1h-11zM17 12h11v1h-11zM17 13h1v1h-1zM19 13h1v1h-1zM21 13h1v1h-1zM23 13h1v1h-1zM25 13h3v1h-3zM17 14h2v1h-2zM20 14h1v1h-1zM22 14h1v1h-1zM24 14h1v1h-1zM26 14h2v1h-2zM17 15h11v1h-11zM17 16h1v1h-1zM20 16h1v1h-1zM23 16h1v1h-1zM26 16h2v1h-2zM17 17h11v1h-11zM17 18h1v1h-1zM19 18h1v1h-1zM21 18h1v1h-1zM23 18h1v1h-1zM25 18h3v1h-3zM17 19h2v1h-2zM20 19h1v1h-1zM22 19h1v1h-1zM24 19h4v1h-4zM17 20h11v1h-11zM17 21h1v1h-1zM19 21h1v1h-1zM21 21h1v1h-1zM23 21h1v1h-1zM25 21h1v1h-1zM27 21h1v1h-1zM17 22h11v1h-11zM17 23h11v1h-11zM17 24h11v1h-11z"/><path fill="#3b5dc9" d="M6 14h1v1h-1zM8 14h1v1h-1zM10 14h1v1h-1zM12 14h1v1h-1zM19 14h1v1h-1zM21 14h1v1h-1zM23 14h1v1h-1zM25 14h1v1h-1z"/><path fill="#b13e53" d="M5 18h1v1h-1zM7 18h1v1h-1zM9 18h1v1h-1zM11 18h1v1h-1z"/><path fill="#41a6f6" d="M18 18h1v1h-1zM20 18h1v1h-1zM22 18h1v1h-1zM24 18h1v1h-1z"/>
</svg>