<svg xmlns="http://www.w3.org/2000/svg" viewBox="0 0 32 32" shape-rendering="crispEdges"><path fill="#f4f4f4" d="M9,3h4v1h-4zM16,3h1v1h-1zM21,3h1v1h-1zM9,4h3v1h-3zM13,4h7v1h-7zM21,4h2v1h-2zM8,5h2v1h-2zM11,5h10v1h-10zM22,5h4v1h-4zM10,6h12v1h-12zM23,6h3v1h-3zM10,7h13v1h-13zM24,7h2v1h-2zM9,8h17v1h-17zM9,9h17v1h-17zM9,10h4v1h-4zM14,10h6v1h-6zM21,10h5v1h-5zM8,11h4v1h-4zM14,11h5v1h-5zM21,11h5v1h-5zM9,12h1v1h-1zM12,12h8v1h-8zM22,12h4v1h-4zM9,13h1v1h-1zM12,13h2v1h-2zM15,13h1v1h-1zM17,13h1v1h-1zM19,13h1v1h-1zM22,13h4v1h-4zM9,14h6v1h-6zM16,14h1v1h-1zM18,14h8v1h-8zM8,15h18v1h-18zM8,16h18v1h-18zM8,17h1v1h-1zM24,17h2v1h-2zM8,18h2v1h-2zM23,18h3v1h-3zM7,19h8v1h-8zM18,19h8v1h-8zM6,20h9v1h-9zM18,20h7v1h-7zM6,21h19v1h-19zM8,22h17v1h-17zM8,23h17v1h-17zM9,24h15v1h-15zM9,25h15v1h-15zM10,26h13v1h-13zM11,27h11v1h-11zM11,28h11v1h-11zM11,29h4v1h-4zM16,29h1v1h-1zM18,29h4v1h-4z"/><path fill="#ffcd75" d="M24,3h1v1h-1zM26,3h1v1h-1zM24,4h3v1h-3zM15,18h3v1h-3zM15,19h3v1h-3zM15,20h1v1h-1zM17,20h1v1h-1z"/><path fill="#ef7d57" d="M25,3h1v1h-1z"/><path fill="#ff9eb7" d="M10,5h1v1h-1zM21,5h1v1h-1zM9,6h1v1h-1zM22,6h1v1h-1zM10,12h2v1h-2zM20,12h2v1h-2zM10,13h2v1h-2zM16,13h1v1h-1zM20,13h2v1h-2z"/><path fill="#1a1c2c" d="M13,10h1v1h-1zM20,10h1v1h-1zM12,11h2v1h-2zM19,11h2v1h-2zM14,13h1v1h-1zM18,13h1v1h-1zM15,14h1v1h-1zM17,14h1v1h-1zM16,20h1v1h-1z"/><path fill="#b13e53" d="M9,17h15v1h-15zM10,18h5v1h-5zM18,18h5v1h-5z"/></svg>