<svg xmlns="http://www.w3.org/2000/svg" width="32" height="32" viewBox="0 0 32 32" shape-rendering="crispEdges">
<path fill="#b13e53" d="M15 1h2v1h-2zM14 2h4v1h-4zM14 3h4v1h-4zM15 4h2v1h-2zM12 5h3v1h-3zM17 5h3v1h-3zM11 6h4v1h-4zM17 6h4v1h-4zM10 7h3v1h-3zM14 7h1v1h-1zM17 7h1v1h-1zM19 7h3v1h-3zM3 8h3v1h-3zM10 8h5v1h-5zM17 8h5v1h-5zM27 8h3v1h-3zM4 9h3v1h-3zM9 9h6v1h-6zM17 9h6v1h-6zM26 9h3v1h-3zM5 10h6v1h-6zM12 10h2v1h-2zM18 10h2v1h-2zM21 10h3v1h-3zM26 10h3v1h-3zM7 11h6v1h-6zM14 11h1v1h-1zM17 11h1v1h-1zM19 11h6v1h-6zM10 12h2v1h-2zM13 12h2v1h-2zM17 12h2v1h-2zM20 12h2v1h-2zM12 13h3v1h-3zM17 13h3v1h-3zM9 14h4v1h-4zM14 14h1v1h-1zM17 14h1v1h-1zM19 14h4v1h-4zM7 15h8v1h-8zM17 15h8v1h-8zM6 16h9v1h-9zM17 16h9v1h-9zM11 17h4v1h-4zM17 17h4v1h-4zM12 18h3v1h-3zM17 18h3v1h-3zM13 19h6v1h-6zM14 20h4v1h-4zM28 24h1v1h-1zM2 26h1v1h-1z"/><path fill="#333c57" d="M15 5h2v1h-2zM15 6h2v1h-2zM15 7h2v1h-2zM15 8h2v1h-2zM15 9h2v1h-2zM14 10h4v1h-4zM13 11h1v1h-1zM15 11h2v1h-2zM18 11h1v1h-1zM12 12h1v1h-1zM15 12h2v1h-2zM19 12h1v1h-1zM11 13h1v1h-1zM15 13h2v1h-2zM20 13h1v1h-1zM15 14h2v1h-2zM15 15h2v1h-2zM15 16h2v1h-2zM15 17h2v1h-2zM15 18h2v1h-2z"/><path fill="#ef7d57" d="M13 7h1v1h-1zM18 7h1v1h-1zM11 10h1v1h-1zM20 10h1v1h-1zM13 14h1v1h-1zM18 14h1v1h-1zM4 22h2v1h-2zM4 23h2v1h-2z"/><path fill="#ffcd75" d="M27 18h2v1h-2zM27 19h2v1h-2z"/><path fill="#8b5e34" d="M15 21h2v1h-2zM15 22h2v1h-2zM15 23h2v1h-2zM15 24h2v1h-2zM15 25h2v1h-2z"/>
</svg>