<svg xmlns="http://www.w3.org/2000/svg" width="16" height="16" viewBox="0 0 16 16" shape-rendering="crispEdges">
<!-- 枫糖浆 -->
<path fill="#1a1c2c" d="M6 1h4v1h-4zM5 2h1v1h-1zM10 2h1v1h-1zM5 3h1v1h-1zM10 3h1v1h-1zM4 4h1v1h-1zM11 4h1v1h-1zM4 5h1v1h-1zM11 5h1v1h-1zM4 6h1v1h-1zM11 6h1v1h-1zM4 7h1v1h-1zM11 7h1v1h-1zM4 8h1v1h-1zM11 8h1v1h-1zM4 9h1v1h-1zM11 9h1v1h-1zM4 10h1v1h-1zM11 10h1v1h-1zM5 11h6v1h-6z"/>
<path fill="#a8775e" d="M6 2h4v1h-4zM6 3h4v1h-4z"/>
<path fill="#d4a56a" d="M6 1h3v1h-3z"/>
<path fill="#ef7d57" d="M5 4h6v1h-6zM5 5h6v1h-6zM5 6h6v1h-6zM5 7h6v1h-6zM5 8h6v1h-6zM5 9h6v1h-6zM5 10h6v1h-6z"/>
<path fill="#ffcd75" d="M5 4h2v1h-2zM5 5h1v1h-1z"/>
<path fill="#b13e53" d="M9 8h2v1h-2zM9 9h2v1h-2zM9 10h2v1h-2z"/>
<path fill="#f4f4f4" d="M6 5h1v1h-1z"/>
<path fill="#38b764" d="M9 1h1v1h-1z"/>
</svg>