<svg xmlns="http://www.w3.org/2000/svg" viewBox="0 0 32 32" shape-rendering="crispEdges"><path fill="#f4f4f4" d="M19,1h2v1h-2zM19,3h2v1h-2zM11,5h1v1h-1zM14,5h1v1h-1zM17,5h1v1h-1zM19,5h2v1h-2zM10,6h9v1h-9zM21,6h1v1h-1zM10,7h12v1h-12zM10,8h9v1h-9zM21,8h1v1h-1zM12,9h1v1h-1zM16,9h1v1h-1zM19,9h2v1h-2zM19,11h2v1h-2zM19,13h2v1h-2zM10,14h1v1h-1zM12,14h2v1h-2zM15,14h3v1h-3zM21,14h1v1h-1zM19,15h2v1h-2zM19,17h2v1h-2zM19,19h2v1h-2z"/><path fill="#38b764" d="M19,2h2v1h-2zM19,4h2v1h-2zM19,6h2v1h-2zM19,8h2v1h-2zM19,10h2v1h-2zM19,12h2v1h-2zM11,14h1v1h-1zM14,14h1v1h-1zM18,14h3v1h-3zM10,15h9v1h-9zM21,15h1v1h-1zM10,16h12v1h-12zM10,17h9v1h-9zM21,17h1v1h-1zM10,18h12v1h-12zM10,19h3v1h-3zM14,19h4v1h-4zM21,19h1v1h-1zM10,20h1v1h-1zM13,20h6v1h-6zM21,20h1v1h-1zM10,21h4v1h-4zM15,21h2v1h-2zM18,21h4v1h-4zM10,22h5v1h-5zM17,22h5v1h-5zM10,23h12v1h-12z"/><path fill="#94b0c2" d="M9,5h2v1h-2zM12,5h2v1h-2zM15,5h2v1h-2zM18,5h1v1h-1zM21,5h2v1h-2zM9,6h1v1h-1zM22,6h1v1h-1zM9,7h1v1h-1zM22,7h1v1h-1zM9,8h1v1h-1zM22,8h1v1h-1zM9,9h1v1h-1zM22,9h1v1h-1zM9,10h1v1h-1zM22,10h1v1h-1zM9,11h1v1h-1zM22,11h1v1h-1zM9,12h1v1h-1zM22,12h1v1h-1zM9,13h1v1h-1zM22,13h1v1h-1zM9,14h1v1h-1zM22,14h1v1h-1zM9,15h1v1h-1zM22,15h1v1h-1zM9,16h1v1h-1zM22,16h1v1h-1zM9,17h1v1h-1zM22,17h1v1h-1zM9,18h1v1h-1zM22,18h1v1h-1zM9,19h1v1h-1zM22,19h1v1h-1zM9,20h1v1h-1zM22,20h1v1h-1zM9,21h1v1h-1zM22,21h1v1h-1zM9,22h1v1h-1zM22,22h1v1h-1zM9,23h1v1h-1zM22,23h1v1h-1zM9,24h1v1h-1zM22,24h1v1h-1zM9,25h1v1h-1zM22,25h1v1h-1zM9,26h1v1h-1zM22,26h1v1h-1zM10,27h12v1h-12z"/><path fill="#ffecd2" d="M10,9h2v1h-2zM13,9h3v1h-3zM17,9h2v1h-2zM21,9h1v1h-1zM10,10h9v1h-9zM21,10h1v1h-1zM10,11h9v1h-9zM21,11h1v1h-1zM10,12h9v1h-9zM21,12h1v1h-1zM10,13h9v1h-9zM21,13h1v1h-1z"/><path fill="#1a1c2c" d="M13,19h1v1h-1zM18,19h1v1h-1zM14,21h1v1h-1zM17,21h1v1h-1zM15,22h2v1h-2z"/><path fill="#ff9eb7" d="M11,20h2v1h-2zM19,20h2v1h-2zM26,23h2v1h-2zM25,24h1v1h-1zM27,24h2v1h-2zM25,25h4v1h-4zM26,26h2v1h-2z"/><path fill="#257179" d="M10,24h12v1h-12zM10,25h12v1h-12zM10,26h12v1h-12z"/><path fill="#b13e53" d="M26,24h1v1h-1z"/></svg>