<svg xmlns="http://www.w3.org/2000/svg" viewBox="0 0 32 32" shape-rendering="crispEdges"><path fill="#29366f" d="M10,0h1v1h-1zM21,0h1v1h-1zM11,1h1v1h-1zM20,1h1v1h-1zM12,2h1v1h-1zM19,2h1v1h-1zM13,3h1v1h-1zM18,3h1v1h-1zM14,4h1v1h-1zM17,4h1v1h-1zM16,5h1v1h-1zM15,6h2v1h-2zM14,7h1v1h-1zM17,7h1v1h-1zM13,8h1v1h-1zM18,8h1v1h-1zM12,9h1v1h-1zM19,9h1v1h-1z"/><path fill="#3b5dc9" d="M11,0h2v1h-2zM19,0h2v1h-2zM12,1h2v1h-2zM18,1h2v1h-2zM13,2h2v1h-2zM17,2h2v1h-2zM14,3h4v1h-4zM15,4h2v1h-2zM14,5h2v1h-2zM17,5h1v1h-1zM13,6h2v1h-2zM17,6h2v1h-2zM12,7h2v1h-2zM18,7h2v1h-2zM11,8h2v1h-2zM19,8h2v1h-2zM10,9h2v1h-2zM20,9h2v1h-2z"/><path fill="#f4f4f4" d="M4,10h1v1h-1zM3,11h1v1h-1zM5,11h1v1h-1zM4,12h1v1h-1zM27,12h1v1h-1zM11,13h1v1h-1zM26,13h1v1h-1zM28,13h1v1h-1zM10,14h1v1h-1zM15,14h1v1h-1zM27,14h1v1h-1zM10,15h1v1h-1zM14,15h3v1h-3zM12,16h7v1h-7zM14,17h3v1h-3zM15,18h1v1h-1z"/><path fill="#ef7d57" d="M15,11h1v1h-1zM12,12h7v1h-7zM12,13h1v1h-1zM18,13h2v1h-2zM11,14h1v1h-1zM19,14h2v1h-2zM9,15h1v1h-1zM20,15h2v1h-2zM9,16h1v1h-1zM21,16h1v1h-1zM9,17h1v1h-1zM21,17h1v1h-1zM8,18h2v1h-2zM21,18h2v1h-2zM9,19h1v1h-1zM21,19h1v1h-1zM9,20h1v1h-1zM21,20h1v1h-1zM9,21h2v1h-2zM20,21h2v1h-2zM10,22h2v1h-2zM19,22h2v1h-2zM11,23h2v1h-2zM18,23h2v1h-2zM12,24h7v1h-7zM15,25h1v1h-1z"/><path fill="#ffcd75" d="M13,13h5v1h-5zM12,14h3v1h-3zM16,14h3v1h-3zM2,15h1v1h-1zM11,15h3v1h-3zM17,15h3v1h-3zM10,16h2v1h-2zM19,16h2v1h-2zM29,16h1v1h-1zM10,17h2v1h-2zM13,17h1v1h-1zM17,17h1v1h-1zM19,17h2v1h-2zM10,18h5v1h-5zM16,18h5v1h-5zM10,19h1v1h-1zM12,19h7v1h-7zM20,19h1v1h-1zM10,20h4v1h-4zM15,20h2v1h-2zM18,20h3v1h-3zM11,21h4v1h-4zM17,21h3v1h-3zM6,22h1v1h-1zM12,22h7v1h-7zM25,22h1v1h-1zM13,23h5v1h-5z"/><path fill="#1a1c2c" d="M12,17h1v1h-1zM18,17h1v1h-1zM14,20h1v1h-1zM17,20h1v1h-1zM15,21h2v1h-2z"/><path fill="#ff9eb7" d="M11,19h1v1h-1zM19,19h1v1h-1z"/></svg>