<svg xmlns="http://www.w3.org/2000/svg" viewBox="0 0 32 32" shape-rendering="crispEdges">
  <path fill="#5d275d" d="M8,6h1v1h-1zM8,7h1v1h-1zM8,8h1v1h-1zM8,9h1v1h-1zM8,10h1v1h-1zM7,11h1v1h-1zM7,12h1v1h-1zM7,13h1v1h-1zM22,6h1v1h-1zM22,7h1v1h-1zM22,8h1v1h-1zM22,9h1v1h-1zM22,10h1v1h-1zM23,11h1v1h-1zM23,12h1v1h-1zM23,13h1v1h-1zM11,4h1v1h-1zM11,5h1v1h-1zM12,4h1v1h-1zM12,5h1v1h-1zM13,4h1v1h-1zM13,5h1v1h-1zM14,4h1v1h-1zM14,5h1v1h-1zM15,4h1v1h-1zM15,5h1v1h-1zM16,4h1v1h-1zM16,5h1v1h-1zM17,4h1v1h-1zM17,5h1v1h-1zM18,4h1v1h-1zM18,5h1v1h-1zM19,4h1v1h-1zM19,5h1v1h-1zM20,4h1v1h-1zM20,5h1v1h-1zM9,6h1v1h-1zM9,7h1v1h-1zM9,8h1v1h-1zM9,9h1v1h-1zM9,10h1v1h-1zM9,11h1v1h-1zM9,12h1v1h-1zM9,13h1v1h-1zM10,6h1v1h-1zM10,7h1v1h-1zM10,8h1v1h-1zM10,9h1v1h-1zM10,10h1v1h-1zM10,11h1v1h-1zM10,12h1v1h-1zM10,13h1v1h-1zM20,6h1v1h-1zM20,7h1v1h-1zM20,8h1v1h-1zM20,9h1v1h-1zM20,10h1v1h-1zM20,11h1v1h-1zM20,12h1v1h-1zM20,13h1v1h-1zM21,6h1v1h-1zM21,7h1v1h-1zM21,8h1v1h-1zM21,9h1v1h-1zM21,10h1v1h-1zM21,11h1v1h-1zM21,12h1v1h-1zM21,13h1v1h-1zM7,8h1v1h-1zM7,9h1v1h-1zM7,10h1v1h-1zM7,11h1v1h-1zM7,12h1v1h-1zM7,13h1v1h-1zM25,10h1v1h-1zM25,11h1v1h-1zM25,12h1v1h-1zM25,13h1v1h-1zM25,14h1v1h-1z"/>
  <path fill="#c3a5e0" d="M7,7h1v1h-1zM7,8h1v1h-1zM7,9h1v1h-1zM7,10h1v1h-1zM6,11h1v1h-1zM6,12h1v1h-1zM6,13h1v1h-1zM6,14h1v1h-1zM23,7h1v1h-1zM23,8h1v1h-1zM23,9h1v1h-1zM23,10h1v1h-1zM24,11h1v1h-1zM24,12h1v1h-1zM24,13h1v1h-1zM24,14h1v1h-1zM10,5h1v1h-1zM11,5h1v1h-1zM12,5h1v1h-1zM13,5h1v1h-1zM14,5h1v1h-1zM15,5h1v1h-1zM16,5h1v1h-1zM17,5h1v1h-1zM18,5h1v1h-1zM19,5h1v1h-1zM20,5h1v1h-1zM21,5h1v1h-1zM8,6h1v1h-1zM21,6h1v1h-1zM24,8h1v1h-1zM24,9h1v1h-1zM24,10h1v1h-1zM24,11h1v1h-1zM24,12h1v1h-1zM24,13h1v1h-1zM6,10h1v1h-1zM6,11h1v1h-1zM6,12h1v1h-1zM6,13h1v1h-1zM6,14h1v1h-1z"/>
  <path fill="#ffecd2" d="M11,6h1v1h-1zM11,7h1v1h-1zM11,8h1v1h-1zM11,9h1v1h-1zM11,10h1v1h-1zM11,11h1v1h-1zM11,12h1v1h-1zM11,13h1v1h-1zM12,6h1v1h-1zM12,7h1v1h-1zM12,8h1v1h-1zM12,9h1v1h-1zM12,10h1v1h-1zM12,11h1v1h-1zM12,12h1v1h-1zM12,13h1v1h-1zM13,6h1v1h-1zM13,7h1v1h-1zM13,8h1v1h-1zM13,9h1v1h-1zM13,10h1v1h-1zM13,11h1v1h-1zM13,12h1v1h-1zM13,13h1v1h-1zM14,6h1v1h-1zM14,7h1v1h-1zM14,8h1v1h-1zM14,9h1v1h-1zM14,10h1v1h-1zM14,11h1v1h-1zM14,12h1v1h-1zM14,13h1v1h-1zM15,6h1v1h-1zM15,7h1v1h-1zM15,8h1v1h-1zM15,9h1v1h-1zM15,10h1v1h-1zM15,11h1v1h-1zM15,12h1v1h-1zM15,13h1v1h-1zM16,6h1v1h-1zM16,7h1v1h-1zM16,8h1v1h-1zM16,9h1v1h-1zM16,10h1v1h-1zM16,11h1v1h-1zM16,12h1v1h-1zM16,13h1v1h-1zM17,6h1v1h-1zM17,7h1v1h-1zM17,8h1v1h-1zM17,9h1v1h-1zM17,10h1v1h-1zM17,11h1v1h-1zM17,12h1v1h-1zM17,13h1v1h-1zM18,6h1v1h-1zM18,7h1v1h-1zM18,8h1v1h-1zM18,9h1v1h-1zM18,10h1v1h-1zM18,11h1v1h-1zM18,12h1v1h-1zM18,13h1v1h-1zM19,6h1v1h-1zM19,7h1v1h-1zM19,8h1v1h-1zM19,9h1v1h-1zM19,10h1v1h-1zM19,11h1v1h-1zM19,12h1v1h-1zM19,13h1v1h-1zM12,5h1v1h-1zM13,5h1v1h-1zM14,5h1v1h-1zM15,5h1v1h-1zM16,5h1v1h-1zM17,5h1v1h-1zM18,5h1v1h-1zM12,14h1v1h-1zM12,15h1v1h-1zM12,16h1v1h-1zM13,14h1v1h-1zM13,15h1v1h-1zM13,16h1v1h-1zM14,14h1v1h-1zM14,15h1v1h-1zM14,16h1v1h-1zM15,14h1v1h-1zM15,15h1v1h-1zM15,16h1v1h-1zM16,14h1v1h-1zM16,15h1v1h-1zM16,16h1v1h-1zM17,14h1v1h-1zM17,15h1v1h-1zM17,16h1v1h-1zM18,14h1v1h-1zM18,15h1v1h-1zM18,16h1v1h-1z"/>
  <path fill="#1a1c2c" d="M12,8h1v1h-1zM12,9h1v1h-1zM13,8h1v1h-1zM13,9h1v1h-1zM17,8h1v1h-1zM17,9h1v1h-1zM18,8h1v1h-1zM18,9h1v1h-1zM12,7h1v1h-1zM13,7h1v1h-1zM17,7h1v1h-1zM18,7h1v1h-1z"/>
  <path fill="#3b5dc9" d="M12,8h1v1h-1zM17,8h1v1h-1z"/>
  <path fill="#f4f4f4" d="M12,8h1v1h-1zM17,8h1v1h-1zM12,14h1v1h-1zM14,14h1v1h-1zM16,14h1v1h-1zM18,14h1v1h-1zM13,15h1v1h-1zM15,15h1v1h-1zM17,15h1v1h-1zM28,4h1v1h-1z"/>
  <path fill="#ff9eb7" d="M11,10h1v1h-1zM12,10h1v1h-1zM19,10h1v1h-1zM18,10h1v1h-1zM14,11h1v1h-1zM15,11h1v1h-1zM16,11h1v1h-1zM13,15h1v1h-1zM14,15h1v1h-1zM17,15h1v1h-1zM18,15h1v1h-1z"/>
  <path fill="#257179" d="M12,17h1v1h-1zM12,18h1v1h-1zM13,17h1v1h-1zM13,18h1v1h-1zM14,17h1v1h-1zM14,18h1v1h-1zM15,17h1v1h-1zM15,18h1v1h-1zM16,17h1v1h-1zM16,18h1v1h-1zM17,17h1v1h-1zM17,18h1v1h-1zM18,17h1v1h-1zM18,18h1v1h-1zM11,19h1v1h-1zM11,20h1v1h-1zM12,19h1v1h-1zM12,20h1v1h-1zM13,19h1v1h-1zM13,20h1v1h-1zM14,19h1v1h-1zM14,20h1v1h-1zM15,19h1v1h-1zM15,20h1v1h-1zM16,19h1v1h-1zM16,20h1v1h-1zM17,19h1v1h-1zM17,20h1v1h-1zM18,19h1v1h-1zM18,20h1v1h-1zM19,19h1v1h-1zM19,20h1v1h-1zM14,24h1v1h-1zM15,24h1v1h-1zM16,24h1v1h-1zM10,26h1v1h-1zM20,26h1v1h-1zM14,25h1v1h-1zM16,25h1v1h-1z"/>
  <path fill="#73eff7" d="M12,21h1v1h-1zM12,22h1v1h-1zM13,21h1v1h-1zM13,22h1v1h-1zM14,21h1v1h-1zM14,22h1v1h-1zM15,21h1v1h-1zM15,22h1v1h-1zM16,21h1v1h-1zM16,22h1v1h-1zM17,21h1v1h-1zM17,22h1v1h-1zM18,21h1v1h-1zM18,22h1v1h-1zM13,23h1v1h-1zM14,23h1v1h-1zM15,23h1v1h-1zM16,23h1v1h-1zM17,23h1v1h-1zM12,24h1v1h-1zM11,25h1v1h-1zM18,24h1v1h-1zM19,25h1v1h-1zM13,25h1v1h-1zM17,25h1v1h-1zM13,18h1v1h-1zM15,18h1v1h-1zM17,18h1v1h-1zM14,20h1v1h-1zM16,20h1v1h-1zM4,5h1v1h-1zM5,5h1v1h-1zM4,6h1v1h-1zM27,8h1v1h-1zM3,12h1v1h-1zM26,15h1v1h-1zM27,15h1v1h-1zM5,20h1v1h-1z"/>
</svg>
