<svg xmlns="http://www.w3.org/2000/svg" viewBox="0 0 32 32" shape-rendering="crispEdges"><path fill="#f4f4f4" d="M20,3h1v1h-1zM20,5h1v1h-1zM13,7h3v1h-3zM17,7h4v1h-4zM11,9h11v1h-11zM9,11h7v1h-7zM17,11h7v1h-7zM9,12h3v1h-3zM13,12h4v1h-4zM18,12h1v1h-1zM21,12h3v1h-3zM9,13h4v1h-4zM15,13h9v1h-9zM10,15h1v1h-1zM20,15h1v1h-1zM10,16h1v1h-1zM10,17h1v1h-1zM20,17h1v1h-1zM10,18h1v1h-1zM10,19h1v1h-1zM20,19h1v1h-1zM10,20h1v1h-1zM10,21h1v1h-1zM10,22h1v1h-1zM10,23h1v1h-1zM10,24h1v1h-1zM10,25h1v1h-1zM10,26h1v1h-1z"/><path fill="#38b764" d="M15,4h3v1h-3z"/><path fill="#b13e53" d="M20,4h1v1h-1zM15,5h1v1h-1zM17,5h1v1h-1zM15,6h3v1h-3zM20,6h1v1h-1zM16,7h1v1h-1zM20,8h1v1h-1zM20,10h1v1h-1zM20,12h1v1h-1zM20,14h1v1h-1zM20,16h1v1h-1zM20,18h1v1h-1zM20,20h1v1h-1z"/><path fill="#ff6b7f" d="M16,5h1v1h-1z"/><path fill="#ffecd2" d="M14,6h1v1h-1zM18,6h1v1h-1zM12,8h8v1h-8zM10,10h10v1h-10zM21,10h2v1h-2z"/><path fill="#8b5e34" d="M16,11h1v1h-1zM12,12h1v1h-1zM17,12h1v1h-1zM19,12h1v1h-1zM13,13h2v1h-2z"/><path fill="#94b0c2" d="M9,14h1v1h-1zM23,14h1v1h-1zM22,15h1v1h-1zM22,16h1v1h-1zM22,17h1v1h-1zM22,18h1v1h-1zM22,19h1v1h-1zM22,20h1v1h-1zM22,21h1v1h-1zM11,22h1v1h-1zM21,22h1v1h-1zM11,23h1v1h-1zM21,23h1v1h-1zM11,24h1v1h-1zM21,24h1v1h-1zM11,25h1v1h-1zM21,25h1v1h-1zM11,26h1v1h-1zM21,26h1v1h-1zM11,27h1v1h-1zM21,27h1v1h-1zM11,28h1v1h-1zM14,28h5v1h-5zM21,28h1v1h-1zM12,29h9v1h-9zM11,30h11v1h-11z"/><path fill="#ff9eb7" d="M10,14h10v1h-10zM21,14h2v1h-2zM11,15h9v1h-9zM21,15h1v1h-1zM11,16h9v1h-9zM21,16h1v1h-1zM11,17h9v1h-9zM21,17h1v1h-1zM11,18h9v1h-9zM21,18h1v1h-1zM11,19h2v1h-2zM14,19h1v1h-1zM16,19h1v1h-1zM18,19h1v1h-1zM21,19h1v1h-1zM11,20h3v1h-3zM15,20h3v1h-3zM19,20h1v1h-1zM21,20h1v1h-1zM11,21h11v1h-11zM12,22h3v1h-3zM16,22h1v1h-1zM18,22h3v1h-3zM12,23h4v1h-4zM17,23h4v1h-4zM12,24h9v1h-9zM12,25h9v1h-9zM12,26h9v1h-9zM12,27h9v1h-9zM12,28h2v1h-2zM19,28h2v1h-2z"/><path fill="#1a1c2c" d="M13,19h1v1h-1zM15,19h1v1h-1zM17,19h1v1h-1zM19,19h1v1h-1zM14,20h1v1h-1zM18,20h1v1h-1zM15,22h1v1h-1zM17,22h1v1h-1zM16,23h1v1h-1z"/></svg>