<svg xmlns="http://www.w3.org/2000/svg" viewBox="0 0 32 32" shape-rendering="crispEdges"><path fill="#ef7d57" d="M24,3h1v1h-1zM29,7h1v1h-1z"/><path fill="#f4f4f4" d="M14,4h1v1h-1zM15,4h1v1h-1zM19,4h1v1h-1zM20,4h1v1h-1zM15,5h1v1h-1zM20,5h1v1h-1zM15,6h1v1h-1zM20,6h1v1h-1zM15,7h1v1h-1zM20,7h1v1h-1zM14,8h1v1h-1zM15,8h1v1h-1zM19,8h1v1h-1zM20,8h1v1h-1zM14,9h1v1h-1zM15,9h1v1h-1zM19,9h1v1h-1zM20,9h1v1h-1zM14,10h1v1h-1zM15,10h1v1h-1zM16,10h1v1h-1zM17,10h1v1h-1zM18,10h1v1h-1zM19,10h1v1h-1zM20,10h1v1h-1zM14,11h1v1h-1zM15,11h1v1h-1zM16,11h1v1h-1zM17,11h1v1h-1zM18,11h1v1h-1zM19,11h1v1h-1zM20,11h1v1h-1zM14,12h1v1h-1zM15,12h1v1h-1zM17,12h1v1h-1zM19,12h1v1h-1zM20,12h1v1h-1zM16,13h1v1h-1zM18,13h1v1h-1zM14,14h1v1h-1zM15,14h1v1h-1zM19,14h1v1h-1zM20,14h1v1h-1zM14,15h1v1h-1zM15,15h1v1h-1zM16,15h1v1h-1zM17,15h1v1h-1zM18,15h1v1h-1zM19,15h1v1h-1zM20,15h1v1h-1zM13,16h1v1h-1zM14,16h1v1h-1zM16,16h1v1h-1zM17,16h1v1h-1zM18,16h1v1h-1zM19,16h1v1h-1zM20,16h1v1h-1zM21,16h1v1h-1zM13,17h1v1h-1zM17,17h1v1h-1zM18,17h1v1h-1zM19,17h1v1h-1zM20,17h1v1h-1zM21,17h1v1h-1zM13,18h1v1h-1zM14,18h1v1h-1zM16,18h1v1h-1zM17,18h1v1h-1zM18,18h1v1h-1zM19,18h1v1h-1zM20,18h1v1h-1zM21,18h1v1h-1zM13,19h1v1h-1zM14,19h1v1h-1zM15,19h1v1h-1zM16,19h1v1h-1zM17,19h1v1h-1zM18,19h1v1h-1zM19,19h1v1h-1zM20,19h1v1h-1zM21,19h1v1h-1zM13,20h1v1h-1zM14,20h1v1h-1zM15,20h1v1h-1zM16,20h1v1h-1zM17,20h1v1h-1zM18,20h1v1h-1zM19,20h1v1h-1zM20,20h1v1h-1zM21,20h1v1h-1zM22,20h1v1h-1zM13,21h1v1h-1zM14,21h1v1h-1zM15,21h1v1h-1zM16,21h1v1h-1zM17,21h1v1h-1zM18,21h1v1h-1zM19,21h1v1h-1zM20,21h1v1h-1zM21,21h1v1h-1zM22,21h1v1h-1zM13,22h1v1h-1zM14,22h1v1h-1zM15,22h1v1h-1zM16,22h1v1h-1zM17,22h1v1h-1zM18,22h1v1h-1zM19,22h1v1h-1zM20,22h1v1h-1zM21,22h1v1h-1zM13,23h1v1h-1zM14,23h1v1h-1zM15,23h1v1h-1zM16,23h1v1h-1zM17,23h1v1h-1zM18,23h1v1h-1zM19,23h1v1h-1zM20,23h1v1h-1zM21,23h1v1h-1zM13,24h1v1h-1zM14,24h1v1h-1zM15,24h1v1h-1zM16,24h1v1h-1zM17,24h1v1h-1zM18,24h1v1h-1zM19,24h1v1h-1zM20,24h1v1h-1zM21,24h1v1h-1zM13,25h1v1h-1zM14,25h1v1h-1zM20,25h1v1h-1zM21,25h1v1h-1z"/><path fill="#ff9eb7" d="M14,5h1v1h-1zM19,5h1v1h-1zM14,6h1v1h-1zM19,6h1v1h-1zM14,7h1v1h-1zM19,7h1v1h-1zM14,13h1v1h-1zM15,13h1v1h-1zM17,13h1v1h-1zM19,13h1v1h-1zM20,13h1v1h-1z"/><path fill="#ffcd75" d="M26,5h1v1h-1zM5,6h1v1h-1zM6,6h1v1h-1zM7,6h1v1h-1zM5,7h1v1h-1zM6,7h1v1h-1zM7,7h1v1h-1zM4,8h1v1h-1zM5,8h1v1h-1zM6,8h1v1h-1zM7,8h1v1h-1zM8,8h1v1h-1zM4,9h1v1h-1zM5,9h1v1h-1zM6,9h1v1h-1zM3,10h1v1h-1zM4,10h1v1h-1zM5,10h1v1h-1zM6,10h1v1h-1zM11,10h1v1h-1zM28,10h1v1h-1zM3,11h1v1h-1zM4,11h1v1h-1zM5,11h1v1h-1zM6,11h1v1h-1zM11,11h1v1h-1zM3,12h1v1h-1zM4,12h1v1h-1zM5,12h1v1h-1zM6,12h1v1h-1zM11,12h1v1h-1zM12,12h1v1h-1zM3,13h1v1h-1zM4,13h1v1h-1zM5,13h1v1h-1zM6,13h1v1h-1zM11,13h1v1h-1zM12,13h1v1h-1zM3,14h1v1h-1zM4,14h1v1h-1zM5,14h1v1h-1zM6,14h1v1h-1zM11,14h1v1h-1zM27,14h1v1h-1zM3,15h1v1h-1zM4,15h1v1h-1zM5,15h1v1h-1zM6,15h1v1h-1zM11,15h1v1h-1zM3,16h1v1h-1zM4,16h1v1h-1zM5,16h1v1h-1zM6,16h1v1h-1zM11,16h1v1h-1zM15,16h1v1h-1zM3,17h1v1h-1zM4,17h1v1h-1zM5,17h1v1h-1zM6,17h1v1h-1zM11,17h1v1h-1zM14,17h1v1h-1zM15,17h1v1h-1zM16,17h1v1h-1zM3,18h1v1h-1zM4,18h1v1h-1zM5,18h1v1h-1zM6,18h1v1h-1zM11,18h1v1h-1zM15,18h1v1h-1zM3,19h1v1h-1zM4,19h1v1h-1zM5,19h1v1h-1zM6,19h1v1h-1zM11,19h1v1h-1zM3,20h1v1h-1zM4,20h1v1h-1zM5,20h1v1h-1zM6,20h1v1h-1zM11,20h1v1h-1zM3,21h1v1h-1zM4,21h1v1h-1zM5,21h1v1h-1zM6,21h1v1h-1zM11,21h1v1h-1zM3,22h1v1h-1zM4,22h1v1h-1zM5,22h1v1h-1zM6,22h1v1h-1zM11,22h1v1h-1zM3,23h1v1h-1zM4,23h1v1h-1zM5,23h1v1h-1zM6,23h1v1h-1zM11,23h1v1h-1zM3,24h1v1h-1zM4,24h1v1h-1zM5,24h1v1h-1zM6,24h1v1h-1zM7,24h1v1h-1zM8,24h1v1h-1zM9,24h1v1h-1zM10,24h1v1h-1zM11,24h1v1h-1zM4,25h1v1h-1zM5,25h1v1h-1zM6,25h1v1h-1zM7,25h1v1h-1zM8,25h1v1h-1zM4,26h1v1h-1zM5,26h1v1h-1zM6,26h1v1h-1zM7,26h1v1h-1zM8,26h1v1h-1z"/><path fill="#1a1c2c" d="M16,12h1v1h-1zM18,12h1v1h-1z"/><path fill="#333c57" d="M16,14h1v1h-1zM17,14h1v1h-1zM18,14h1v1h-1z"/></svg>