<svg xmlns="http://www.w3.org/2000/svg" width="32" height="32" viewBox="0 0 32 32" shape-rendering="crispEdges">
<path fill="#1a1c2c" d="M0 0h7v1h-7zM8 0h24v1h-24zM0 1h6v1h-6zM9 1h6v1h-6zM16 1h16v1h-16zM0 2h3v1h-3zM4 2h3v1h-3zM8 2h12v1h-12zM21 2h11v1h-11zM0 3h22v1h-22zM23 3h4v1h-4zM28 3h4v1h-4zM0 4h9v1h-9zM10 4h9v1h-9zM26 4h6v1h-6zM0 5h18v1h-18zM27 5h5v1h-5zM0 6h1v1h-1zM2 6h16v1h-16zM27 6h5v1h-5zM0 7h14v1h-14zM15 7h3v1h-3zM27 7h5v1h-5z"/>
<path fill="#94b0c2" d="M7 0h1v1h-1zM6 1h1v1h-1zM8 1h1v1h-1zM7 2h1v1h-1zM26 7h1v1h-1zM25 8h1v1h-1zM27 8h1v1h-1zM26 9h1v1h-1z"/>
<path fill="#f4f4f4" d="M7 1h1v1h-1zM15 1h1v1h-1zM3 2h1v1h-1zM20 2h1v1h-1zM27 3h1v1h-1zM9 4h1v1h-1zM20 5h2v1h-2zM23 5h1v1h-1zM1 6h1v1h-1zM20 6h1v1h-1zM14 7h1v1h-1zM26 8h1v1h-1zM20 9h1v1h-1zM5 10h1v1h-1zM2 11h1v1h-1zM28 12h1v1h-1z"/>
<path fill="#ffcd75" d="M22 3h1v1h-1zM19 4h3v1h-3zM23 4h1v1h-1zM25 4h1v1h-1zM18 5h2v1h-2zM18 6h1v1h-1zM18 7h1v1h-1zM20 7h1v1h-1zM17 8h1v1h-1zM19 8h1v1h-1zM18 9h1v1h-1zM18 10h1v1h-1zM20 10h1v1h-1zM18 11h2v1h-2zM19 12h3v1h-3zM23 12h1v1h-1zM25 12h1v1h-1zM22 13h1v1h-1z"/>
<path fill="#ef7d57" d="M22 4h1v1h-1zM24 4h1v1h-1zM22 5h1v1h-1zM24 5h3v1h-3zM19 6h1v1h-1zM21 6h6v1h-6zM19 7h1v1h-1zM21 7h5v1h-5zM18 8h1v1h-1zM20 8h5v1h-5zM19 9h1v1h-1zM21 9h5v1h-5zM19 10h1v1h-1zM21 10h6v1h-6zM20 11h7v1h-7zM22 12h1v1h-1zM24 12h1v1h-1z"/>
<path fill="#333c57" d="M0 8h17v1h-17zM28 8h4v1h-4zM0 9h18v1h-18zM27 9h5v1h-5zM0 10h5v1h-5zM6 10h12v1h-12zM27 10h5v1h-5zM0 11h2v1h-2zM3 11h15v1h-15zM27 11h5v1h-5zM0 12h19v1h-19zM26 12h2v1h-2zM29 12h3v1h-3zM0 13h22v1h-22zM23 13h9v1h-9zM0 14h32v1h-32zM0 15h32v1h-32z"/>
<path fill="#29366f" d="M0 16h32v1h-32zM0 17h32v1h-32zM0 18h32v1h-32zM0 19h32v1h-32zM0 20h32v1h-32zM0 21h32v1h-32zM0 22h32v1h-32zM0 23h32v1h-32z"/>
<path fill="#257179" d="M0 24h32v1h-32zM0 25h32v1h-32zM0 26h32v1h-32zM0 27h32v1h-32zM0 28h32v1h-32zM0 29h32v1h-32zM0 30h32v1h-32zM0 31h32v1h-32z"/>
</svg>