<svg xmlns="http://www.w3.org/2000/svg" viewBox="0 0 32 32" shape-rendering="crispEdges"><path fill="#ffcd75" d="M7,7h1v1h-1zM6,8h1v1h-1zM27,12h1v1h-1zM28,13h1v1h-1zM4,14h1v1h-1zM3,15h1v1h-1zM25,17h3v1h-3zM25,18h1v1h-1zM25,19h1v1h-1zM5,20h1v1h-1zM25,20h3v1h-3zM4,21h1v1h-1zM6,21h1v1h-1zM5,22h1v1h-1z"/><path fill="#8b5e34" d="M10,9h12v1h-12zM9,10h1v1h-1zM22,10h1v1h-1zM9,11h1v1h-1zM11,11h10v1h-10zM22,11h1v1h-1zM8,12h1v1h-1zM23,12h1v1h-1zM8,13h1v1h-1zM11,13h1v1h-1zM13,13h1v1h-1zM20,13h1v1h-1zM23,13h1v1h-1zM8,14h1v1h-1zM11,14h1v1h-1zM13,14h1v1h-1zM18,14h1v1h-1zM20,14h1v1h-1zM23,14h1v1h-1zM8,15h1v1h-1zM11,15h1v1h-1zM13,15h6v1h-6zM20,15h1v1h-1zM23,15h1v1h-1zM8,16h1v1h-1zM11,16h1v1h-1zM13,16h1v1h-1zM18,16h1v1h-1zM20,16h1v1h-1zM23,16h2v1h-2zM8,17h1v1h-1zM11,17h1v1h-1zM13,17h6v1h-6zM20,17h1v1h-1zM23,17h1v1h-1zM8,18h1v1h-1zM11,18h1v1h-1zM13,18h1v1h-1zM18,18h1v1h-1zM20,18h1v1h-1zM23,18h1v1h-1zM8,19h1v1h-1zM11,19h1v1h-1zM13,19h6v1h-6zM20,19h1v1h-1zM23,19h1v1h-1zM8,20h1v1h-1zM11,20h2v1h-2zM19,20h2v1h-2zM23,20h1v1h-1zM8,21h1v1h-1zM11,21h10v1h-10zM23,21h2v1h-2zM9,22h1v1h-1zM22,22h1v1h-1zM9,23h1v1h-1zM22,23h1v1h-1zM10,24h12v1h-12z"/><path fill="#ef7d57" d="M10,10h12v1h-12zM10,11h1v1h-1zM21,11h1v1h-1zM9,12h2v1h-2zM14,12h4v1h-4zM21,12h2v1h-2zM9,13h2v1h-2zM12,13h1v1h-1zM14,13h1v1h-1zM17,13h3v1h-3zM21,13h2v1h-2zM9,14h2v1h-2zM12,14h1v1h-1zM14,14h4v1h-4zM19,14h1v1h-1zM21,14h2v1h-2zM9,15h2v1h-2zM12,15h1v1h-1zM19,15h1v1h-1zM21,15h2v1h-2zM25,15h4v1h-4zM9,16h2v1h-2zM12,16h1v1h-1zM14,16h4v1h-4zM19,16h1v1h-1zM21,16h2v1h-2zM25,16h4v1h-4zM9,17h2v1h-2zM12,17h1v1h-1zM19,17h1v1h-1zM21,17h2v1h-2zM24,17h1v1h-1zM28,17h1v1h-1zM9,18h2v1h-2zM12,18h1v1h-1zM14,18h4v1h-4zM19,18h1v1h-1zM21,18h2v1h-2zM24,18h1v1h-1zM28,18h1v1h-1zM9,19h2v1h-2zM12,19h1v1h-1zM19,19h1v1h-1zM21,19h2v1h-2zM24,19h1v1h-1zM28,19h1v1h-1zM9,20h2v1h-2zM13,20h6v1h-6zM21,20h2v1h-2zM24,20h1v1h-1zM28,20h1v1h-1zM9,21h2v1h-2zM21,21h2v1h-2zM25,21h4v1h-4zM10,22h12v1h-12zM25,22h4v1h-4zM10,23h12v1h-12z"/><path fill="#ff9eb7" d="M11,12h2v1h-2zM19,12h2v1h-2z"/><path fill="#1a1c2c" d="M13,12h1v1h-1zM18,12h1v1h-1z"/><path fill="#333c57" d="M15,13h2v1h-2z"/><path fill="#38b764" d="M4,15h1v1h-1zM6,22h1v1h-1z"/><path fill="#d4a017" d="M26,18h2v1h-2zM26,19h2v1h-2z"/><path fill="#566c86" d="M5,26h1v1h-1zM26,26h1v1h-1zM7,28h1v1h-1zM24,28h1v1h-1z"/><path fill="#94b0c2" d="M6,26h20v1h-20zM6,27h20v1h-20zM8,28h16v1h-16z"/></svg>