<svg xmlns="http://www.w3.org/2000/svg" width="16" height="16" viewBox="0 0 16 16" shape-rendering="crispEdges">
<path fill="#e63946" d="M3 2h10v1h-10zM2 3h3v1h-3zM7 3h7v1h-7zM1 4h8v1h-8zM11 4h4v1h-4z"/>
<path fill="#f8f9fa" d="M5 3h2v1h-2zM9 4h2v1h-2zM3 5h1v1h-1zM7 6h2v1h-2z"/>
<path fill="#b91c1c" d="M1 5h2v1h-2zM4 5h11v1h-11zM1 6h6v1h-6zM9 6h6v1h-6zM2 7h12v1h-12zM3 8h10v1h-10z"/>
<path fill="#fef3c7" d="M3 9h10v1h-10zM6 10h2v1h-2zM6 11h2v1h-2zM6 12h2v1h-2zM6 13h2v1h-2zM6 14h2v1h-2z"/>
<path fill="#fde68a" d="M8 10h2v1h-2zM8 11h2v1h-2zM8 12h2v1h-2zM8 13h2v1h-2zM8 14h2v1h-2z"/>
</svg>