<svg xmlns="http://www.w3.org/2000/svg" width="16" height="16" viewBox="0 0 16 16" shape-rendering="crispEdges">
<path fill="#b13e53" d="M5 1h6v1h-6zM3 2h1v1h-1zM6 2h7v1h-7zM2 3h7v1h-7zM11 3h3v1h-3zM2 4h5v1h-5zM9 4h5v1h-5zM1 5h2v1h-2zM5 5h6v1h-6zM13 5h2v1h-2zM1 6h14v1h-14zM1 7h14v1h-14zM2 8h12v1h-12zM3 9h10v1h-10zM5 13h1v1h-1zM10 13h1v1h-1z"/><path fill="#f4f4f4" d="M4 2h2v1h-2zM9 3h2v1h-2zM7 4h2v1h-2zM3 5h2v1h-2zM11 5h2v1h-2zM5 11h6v1h-6zM5 12h1v1h-1zM7 12h2v1h-2zM10 12h1v1h-1zM6 13h1v1h-1zM9 13h1v1h-1zM6 14h4v1h-4z"/><path fill="#ffcd75" d="M4 10h8v1h-8z"/><path fill="#1a1c2c" d="M6 12h1v1h-1zM9 12h1v1h-1zM7 13h2v1h-2z"/>
</svg>