<svg xmlns="http://www.w3.org/2000/svg" viewBox="0 0 32 32" shape-rendering="crispEdges"><path fill="#1a1c2c" d="M20,4h2v1h-2ZM20,5h1v1h-1ZM25,5h2v1h-2ZM25,6h1v1h-1ZM22,7h3v1h-3ZM22,8h1v1h-1ZM21,9h1v1h-1ZM13,21h2v1h-2ZM18,21h2v1h-2ZM14,23h4v1h-4Z"/><path fill="#5c3a1e" d="M5,10h22v1h-22ZM5,13h22v1h-22ZM6,15h9v1h-9ZM17,15h9v1h-9ZM5,19h10v1h-10ZM17,19h10v1h-10ZM5,22h6v1h-6ZM13,22h7v1h-7ZM22,22h5v1h-5Z"/><path fill="#8b5e34" d="M5,11h22v1h-22ZM5,12h22v1h-22ZM5,14h10v1h-10ZM17,14h10v1h-10ZM5,17h10v1h-10ZM17,17h10v1h-10ZM5,18h9v1h-9ZM18,18h9v1h-9ZM5,20h22v1h-22ZM5,21h8v1h-8ZM15,21h3v1h-3ZM20,21h7v1h-7ZM5,23h9v1h-9ZM18,23h9v1h-9ZM5,24h22v1h-22Z"/><path fill="#ff9eb7" d="M15,14h2v1h-2ZM15,18h2v1h-2ZM11,22h2v1h-2ZM20,22h2v1h-2Z"/><path fill="#ffcd75" d="M5,15h1v1h-1ZM26,15h1v1h-1ZM5,16h22v1h-22ZM5,25h22v1h-22Z"/><path fill="#f4f4f4" d="M15,15h2v1h-2ZM15,17h2v1h-2ZM14,18h1v1h-1ZM17,18h1v1h-1ZM15,19h2v1h-2Z"/></svg>