<svg xmlns="http://www.w3.org/2000/svg" viewBox="0 0 32 32" shape-rendering="crispEdges"><path fill="#ef7d57" d="M22,3h1v1h-1zM3,20h1v1h-1z"/><path fill="#b13e53" d="M24,4h1v1h-1zM24,5h1v1h-1zM23,6h1v1h-1zM24,6h1v1h-1z"/><path fill="#ffcd75" d="M7,6h1v1h-1zM6,7h1v1h-1zM7,7h1v1h-1zM8,7h1v1h-1zM7,8h1v1h-1zM4,27h1v1h-1z"/><path fill="#1a1c2c" d="M15,8h1v1h-1zM16,8h1v1h-1zM15,9h1v1h-1zM17,9h1v1h-1zM15,10h1v1h-1zM18,10h1v1h-1zM15,11h1v1h-1zM18,11h1v1h-1zM15,12h1v1h-1zM16,12h1v1h-1zM17,12h1v1h-1zM15,13h1v1h-1zM16,13h1v1h-1zM17,13h1v1h-1zM15,14h1v1h-1zM18,14h1v1h-1zM15,15h1v1h-1zM18,15h1v1h-1zM15,16h1v1h-1zM17,16h1v1h-1zM15,17h1v1h-1zM15,18h1v1h-1zM15,19h1v1h-1zM15,20h1v1h-1zM15,21h1v1h-1zM12,22h1v1h-1zM15,22h1v1h-1zM10,23h1v1h-1zM11,23h1v1h-1zM12,23h1v1h-1zM13,23h1v1h-1zM14,23h1v1h-1zM15,23h1v1h-1zM9,24h1v1h-1zM10,24h1v1h-1zM11,24h1v1h-1zM12,24h1v1h-1zM13,24h1v1h-1zM14,24h1v1h-1zM15,24h1v1h-1zM10,25h1v1h-1zM11,25h1v1h-1zM12,25h1v1h-1zM13,25h1v1h-1zM14,25h1v1h-1zM12,26h1v1h-1z"/><path fill="#a7f070" d="M27,8h1v1h-1z"/><path fill="#41a6f6" d="M6,12h1v1h-1zM6,13h1v1h-1zM5,14h1v1h-1zM6,14h1v1h-1z"/><path fill="#73eff7" d="M25,13h1v1h-1zM24,14h1v1h-1zM25,14h1v1h-1zM26,14h1v1h-1zM25,15h1v1h-1zM28,23h1v1h-1z"/><path fill="#5d275d" d="M26,18h1v1h-1zM26,19h1v1h-1zM25,20h1v1h-1zM26,20h1v1h-1z"/><path fill="#ff9eb7" d="M20,24h1v1h-1zM19,25h1v1h-1zM20,25h1v1h-1zM21,25h1v1h-1zM20,26h1v1h-1z"/></svg>