<svg xmlns="http://www.w3.org/2000/svg" viewBox="0 0 16 16" width="16" height="16">
  <!-- Music note stem -->
  <rect x="10" y="2" width="1" height="8" fill="#64748b"/>
  <!-- Flag -->
  <rect x="11" y="2" width="1" height="1" fill="#64748b"/>
  <rect x="12" y="2" width="1" height="1" fill="#64748b"/>
  <rect x="12" y="3" width="1" height="1" fill="#64748b"/>
  <rect x="13" y="3" width="1" height="1" fill="#64748b"/>
  <rect x="13" y="4" width="1" height="1" fill="#64748b"/>
  <rect x="12" y="5" width="1" height="1" fill="#64748b"/>
  <!-- Note head -->
  <rect x="7" y="9" width="1" height="1" fill="#64748b"/>
  <rect x="8" y="9" width="1" height="1" fill="#64748b"/>
  <rect x="9" y="9" width="1" height="1" fill="#64748b"/>
  <rect x="7" y="10" width="1" height="1" fill="#64748b"/>
  <rect x="8" y="10" width="1" height="1" fill="#64748b"/>
  <rect x="9" y="10" width="1" height="1" fill="#64748b"/>
  <rect x="10" y="10" width="1" height="1" fill="#64748b"/>
  <rect x="8" y="11" width="1" height="1" fill="#64748b"/>
  <rect x="9" y="11" width="1" height="1" fill="#64748b"/>
  <!-- Red diagonal slash -->
  <rect x="2" y="2" width="1" height="1" fill="#ef4444"/>
  <rect x="3" y="3" width="1" height="1" fill="#ef4444"/>
  <rect x="4" y="4" width="1" height="1" fill="#ef4444"/>
  <rect x="5" y="5" width="1" height="1" fill="#ef4444"/>
  <rect x="6" y="6" width="1" height="1" fill="#ef4444"/>
  <rect x="7" y="7" width="1" height="1" fill="#ef4444"/>
  <rect x="8" y="8" width="1" height="1" fill="#ef4444"/>
  <rect x="9" y="9" width="1" height="1" fill="#ef4444"/>
  <rect x="10" y="10" width="1" height="1" fill="#ef4444"/>
  <rect x="11" y="11" width="1" height="1" fill="#ef4444"/>
  <rect x="12" y="12" width="1" height="1" fill="#ef4444"/>
  <rect x="13" y="13" width="1" height="1" fill="#ef4444"/>
  <!-- Slash outline for visibility -->
  <rect x="3" y="2" width="1" height="1" fill="#dc2626"/>
  <rect x="4" y="3" width="1" height="1" fill="#dc2626"/>
  <rect x="5" y="4" width="1" height="1" fill="#dc2626"/>
  <rect x="6" y="5" width="1" height="1" fill="#dc2626"/>
  <rect x="7" y="6" width="1" height="1" fill="#dc2626"/>
  <rect x="8" y="7" width="1" height="1" fill="#dc2626"/>
  <rect x="9" y="8" width="1" height="1" fill="#dc2626"/>
  <rect x="10" y="9" width="1" height="1" fill="#dc2626"/>
  <rect x="11" y="10" width="1" height="1" fill="#dc2626"/>
  <rect x="12" y="11" width="1" height="1" fill="#dc2626"/>
  <rect x="13" y="12" width="1" height="1" fill="#dc2626"/>
</svg>
