<svg xmlns="http://www.w3.org/2000/svg" viewBox="0 0 16 16" width="16" height="16">
  <!-- Music note stem -->
  <rect x="10" y="2" width="1" height="8" fill="#e2e8f0"/>
  <!-- Flag -->
  <rect x="11" y="2" width="1" height="1" fill="#e2e8f0"/>
  <rect x="12" y="2" width="1" height="1" fill="#e2e8f0"/>
  <rect x="12" y="3" width="1" height="1" fill="#e2e8f0"/>
  <rect x="13" y="3" width="1" height="1" fill="#e2e8f0"/>
  <rect x="13" y="4" width="1" height="1" fill="#e2e8f0"/>
  <rect x="12" y="5" width="1" height="1" fill="#e2e8f0"/>
  <!-- Note head (filled circle-ish) -->
  <rect x="7" y="9" width="1" height="1" fill="#e2e8f0"/>
  <rect x="8" y="9" width="1" height="1" fill="#e2e8f0"/>
  <rect x="9" y="9" width="1" height="1" fill="#e2e8f0"/>
  <rect x="7" y="10" width="1" height="1" fill="#e2e8f0"/>
  <rect x="8" y="10" width="1" height="1" fill="#e2e8f0"/>
  <rect x="9" y="10" width="1" height="1" fill="#e2e8f0"/>
  <rect x="10" y="10" width="1" height="1" fill="#e2e8f0"/>
  <rect x="8" y="11" width="1" height="1" fill="#e2e8f0"/>
  <rect x="9" y="11" width="1" height="1" fill="#e2e8f0"/>
  <!-- Sound waves -->
  <rect x="4" y="6" width="1" height="1" fill="#94a3b8"/>
  <rect x="3" y="5" width="1" height="1" fill="#94a3b8"/>
  <rect x="3" y="7" width="1" height="1" fill="#94a3b8"/>
  <rect x="5" y="7" width="1" height="1" fill="#94a3b8"/>
  <rect x="5" y="5" width="1" height="1" fill="#94a3b8"/>
</svg>
