<svg xmlns="http://www.w3.org/2000/svg" viewBox="0 0 32 32" shape-rendering="crispEdges"><path fill="#41a6f6" d="M15,11h1v1h-1zM11,12h9v1h-9zM9,13h13v1h-13zM8,14h15v1h-15zM7,15h17v1h-17zM7,16h17v1h-17zM6,17h19v1h-19zM7,18h17v1h-17zM7,19h17v1h-17zM8,20h15v1h-15zM9,21h3v1h-3zM11,21h9v1h-9zM19,21h3v1h-3zM10,22h11v1h-11zM15,23h1v1h-1z"/><path fill="#f4f4f4" d="M6,5h1v1h-1zM27,7h1v1h-1zM4,8h1v1h-1zM3,12h1v1h-1zM11,15h1v1h-1zM19,15h1v1h-1zM15,16h1v1h-1zM11,17h9v1h-9zM10,18h11v1h-11zM9,19h13v1h-13zM10,20h11v1h-11zM11,21h9v1h-9zM15,22h1v1h-1z"/><path fill="#ffcd75" d="M5,2h1v1h-1zM2,4h1v1h-1zM15,5h1v1h-1zM28,5h1v1h-1zM15,6h1v1h-1zM15,7h1v1h-1zM15,8h1v1h-1zM15,9h1v1h-1zM15,10h1v1h-1zM26,10h1v1h-1z"/><path fill="#ef7d57" d="M14,6h1v1h-1zM16,8h1v1h-1zM14,10h1v1h-1z"/><path fill="#3b5dc9" d="M26,13h1v1h-1zM25,14h1v1h-1zM24,15h1v1h-1zM25,16h1v1h-1zM26,17h1v1h-1z"/><path fill="#1a1c2c" d="M11,14h1v1h-1zM19,14h1v1h-1zM10,15h3v1h-3zM18,15h3v1h-3zM11,16h1v1h-1zM19,16h1v1h-1zM14,19h1v1h-1zM17,19h1v1h-1zM15,20h2v1h-2z"/><path fill="#ff9eb7" d="M9,17h2v1h-2zM20,17h2v1h-2z"/></svg>