<svg xmlns="http://www.w3.org/2000/svg" viewBox="0 0 32 32" shape-rendering="crispEdges"><path fill="#1a1c2c" d="M12,4h8v1h-8zM11,5h10v1h-10zM10,7h12v1h-12zM12,9h2v1h-2zM18,9h2v1h-2zM10,10h12v1h-12zM10,11h12v1h-12zM11,12h10v1h-10zM12,13h8v1h-8zM11,24h4v1h-4zM17,24h4v1h-4z"/><path fill="#333c57" d="M10,6h12v1h-12zM10,8h12v1h-12z"/><path fill="#ffecd2" d="M10,9h12v1h-12z"/><path fill="#f4f4f4" d="M12,9h1v1h-1zM18,9h1v1h-1z"/><path fill="#ff9eb7" d="M11,8h1v1h-1zM20,8h1v1h-1z"/><path fill="#29366f" d="M10,14h12v1h-12zM9,15h14v1h-14zM7,16h16v1h-16zM9,17h14v1h-14zM9,19h14v1h-14zM10,20h12v1h-12zM10,21h12v1h-12zM11,22h4v1h-4zM17,22h4v1h-4zM11,23h4v1h-4zM17,23h4v1h-4z"/><path fill="#b13e53" d="M22,7h3v1h-3zM23,8h3v1h-3zM24,9h3v1h-3zM25,10h2v1h-2zM9,18h14v1h-14z"/><path fill="#566c86" d="M5,15h3v1h-3zM5,16h1v1h-1zM7,16h1v1h-1zM5,17h3v1h-3z"/><path fill="#94b0c2" d="M6,16h1v1h-1z"/></svg>