<svg xmlns="http://www.w3.org/2000/svg" viewBox="0 0 32 32" shape-rendering="crispEdges"><path fill="#1a1c2c" d="M0,0h32v1h-32ZM0,1h15v1h-15ZM16,1h14v1h-14ZM31,1h1v1h-1ZM0,2h5v1h-5ZM6,2h14v1h-14ZM21,2h11v1h-11ZM0,3h10v1h-10ZM11,3h14v1h-14ZM26,3h6v1h-6ZM0,4h2v1h-2ZM3,4h9v1h-9ZM20,4h12v1h-12ZM0,5h11v1h-11ZM29,5h3v1h-3ZM0,6h3v1h-3ZM11,6h2v1h-2ZM29,6h3v1h-3ZM0,7h2v1h-2ZM12,7h2v1h-2ZM19,7h2v1h-2ZM28,7h4v1h-4Z"/><path fill="#f4f4f4" d="M15,1h1v1h-1ZM30,1h1v1h-1ZM5,2h1v1h-1ZM20,2h1v1h-1ZM10,3h1v1h-1ZM25,3h1v1h-1ZM2,4h1v1h-1ZM28,5h1v1h-1ZM0,25h32v1h-32ZM0,26h32v1h-32ZM0,27h32v1h-32ZM0,28h32v1h-32ZM0,29h32v1h-32ZM0,30h32v1h-32ZM0,31h32v1h-32Z"/><path fill="#73eff7" d="M12,4h8v1h-8ZM13,6h16v1h-16ZM4,8h7v1h-7ZM22,8h5v1h-5ZM15,9h6v1h-6ZM8,11h4v1h-4Z"/><path fill="#38b764" d="M11,5h9v1h-9ZM3,6h8v1h-8ZM2,7h10v1h-10ZM21,7h7v1h-7ZM5,9h5v1h-5ZM6,10h6v1h-6ZM24,10h5v1h-5ZM18,11h5v1h-5Z"/><path fill="#5d275d" d="M20,5h8v1h-8ZM14,7h5v1h-5Z"/><path fill="#29366f" d="M0,8h4v1h-4ZM11,8h11v1h-11ZM27,8h5v1h-5ZM0,9h5v1h-5ZM10,9h5v1h-5ZM21,9h11v1h-11ZM0,10h6v1h-6ZM12,10h12v1h-12ZM29,10h3v1h-3ZM0,11h8v1h-8ZM12,11h6v1h-6ZM23,11h9v1h-9ZM0,12h32v1h-32ZM0,13h32v1h-32ZM0,14h32v1h-32ZM0,15h32v1h-32ZM0,16h32v1h-32ZM0,17h32v1h-32ZM0,18h32v1h-32ZM0,19h32v1h-32ZM0,20h6v1h-6ZM7,20h7v1h-7ZM15,20h9v1h-9ZM25,20h7v1h-7ZM0,21h6v1h-6ZM7,21h7v1h-7ZM15,21h9v1h-9ZM25,21h7v1h-7ZM0,22h5v1h-5ZM8,22h5v1h-5ZM16,22h7v1h-7ZM26,22h6v1h-6ZM0,23h4v1h-4ZM9,23h3v1h-3ZM17,23h5v1h-5ZM27,23h5v1h-5Z"/><path fill="#333c57" d="M6,20h1v1h-1ZM14,20h1v1h-1ZM24,20h1v1h-1ZM6,21h1v1h-1ZM14,21h1v1h-1ZM24,21h1v1h-1ZM5,22h3v1h-3ZM13,22h3v1h-3ZM23,22h3v1h-3ZM4,23h5v1h-5ZM12,23h5v1h-5ZM22,23h5v1h-5Z"/><path fill="#94b0c2" d="M0,24h32v1h-32Z"/></svg>