<svg xmlns="http://www.w3.org/2000/svg" width="32" height="32" viewBox="0 0 32 32" shape-rendering="crispEdges">
<path fill="#73eff7" d="M6 4h1v1h-1zM9 6h1v1h-1zM0 17h2v1h-2zM5 17h2v1h-2zM10 17h2v1h-2zM15 17h2v1h-2zM20 17h2v1h-2zM25 17h2v1h-2zM30 17h2v1h-2z"/>
<path fill="#f4f4f4" d="M10 4h1v1h-1zM7 5h1v1h-1zM4 6h1v1h-1zM6 7h11v1h-11zM5 8h3v1h-3zM17 8h2v1h-2zM20 10h2v1h-2zM22 11h2v1h-2zM26 11h6v1h-6zM25 12h1v1h-1z"/>
<path fill="#29366f" d="M8 8h9v1h-9zM15 9h3v1h-3zM0 24h20v1h-20zM21 24h11v1h-11zM0 25h32v1h-32zM0 26h12v1h-12zM13 26h19v1h-19zM0 27h32v1h-32zM0 28h32v1h-32zM0 29h32v1h-32zM0 30h32v1h-32zM0 31h32v1h-32z"/>
<path fill="#3b5dc9" d="M19 8h1v1h-1zM5 9h10v1h-10zM8 10h2v1h-2zM13 10h3v1h-3zM6 11h2v1h-2zM13 11h4v1h-4zM5 12h13v1h-13zM4 13h15v1h-15zM3 14h17v1h-17zM0 18h32v1h-32zM0 19h32v1h-32zM0 20h32v1h-32zM0 21h32v1h-32zM0 22h32v1h-32zM0 23h32v1h-32zM20 24h1v1h-1zM12 26h1v1h-1z"/>
<path fill="#41a6f6" d="M20 8h5v1h-5zM18 9h5v1h-5zM4 10h4v1h-4zM10 10h3v1h-3zM8 11h5v1h-5zM24 12h1v1h-1zM26 12h6v1h-6zM22 13h9v1h-9zM0 14h3v1h-3zM20 14h12v1h-12zM0 15h32v1h-32zM0 16h32v1h-32zM2 17h3v1h-3zM7 17h3v1h-3zM12 17h3v1h-3zM17 17h3v1h-3zM22 17h3v1h-3zM27 17h3v1h-3z"/>
</svg>