<svg xmlns="http://www.w3.org/2000/svg" viewBox="0 0 32 32" shape-rendering="crispEdges"><path fill="#5d275d" d="M15,2h2v1h-2ZM14,3h3v1h-3ZM18,3h1v1h-1ZM12,4h9v1h-9ZM11,5h11v1h-11ZM9,6h15v1h-15ZM9,7h15v1h-15ZM8,8h1v1h-1ZM14,8h4v1h-4ZM23,8h2v1h-2ZM15,9h2v1h-2ZM24,9h1v1h-1ZM15,10h2v1h-2ZM24,10h1v1h-1ZM7,11h1v1h-1ZM15,11h2v1h-2ZM24,11h2v1h-2ZM8,12h1v1h-1ZM14,12h4v1h-4ZM23,12h2v1h-2ZM10,13h12v1h-12ZM24,13h1v1h-1ZM8,14h7v1h-7ZM17,14h8v1h-8ZM9,15h6v1h-6ZM17,15h7v1h-7ZM9,16h15v1h-15ZM11,17h11v1h-11ZM8,18h2v1h-2ZM14,18h4v1h-4ZM20,18h1v1h-1ZM22,18h2v1h-2ZM7,19h2v1h-2ZM16,19h1v1h-1ZM23,19h2v1h-2ZM7,20h1v1h-1ZM24,20h1v1h-1ZM7,21h2v1h-2ZM23,21h2v1h-2ZM9,22h1v1h-1ZM22,22h1v1h-1ZM9,23h2v1h-2ZM18,23h1v1h-1ZM21,23h2v1h-2ZM10,24h3v1h-3ZM19,24h3v1h-3Z"/><path fill="#f4f4f4" d="M9,8h5v1h-5ZM18,8h5v1h-5ZM8,9h2v1h-2ZM14,9h1v1h-1ZM17,9h2v1h-2ZM23,9h1v1h-1ZM8,10h3v1h-3ZM14,10h1v1h-1ZM17,10h3v1h-3ZM23,10h1v1h-1ZM8,11h3v1h-3ZM14,11h1v1h-1ZM17,11h3v1h-3ZM23,11h1v1h-1ZM9,12h5v1h-5ZM18,12h5v1h-5Z"/><path fill="#1a1c2c" d="M10,9h4v1h-4ZM19,9h4v1h-4ZM11,10h3v1h-3ZM20,10h3v1h-3ZM11,11h3v1h-3ZM20,11h3v1h-3ZM15,14h1v1h-1ZM15,15h2v1h-2Z"/><path fill="#ff9eb7" d="M8,13h2v1h-2ZM22,13h2v1h-2ZM12,18h2v1h-2ZM18,18h2v1h-2ZM12,19h2v1h-2ZM18,19h2v1h-2ZM11,20h2v1h-2ZM19,20h2v1h-2ZM11,21h1v1h-1ZM20,21h1v1h-1ZM11,22h2v1h-2ZM19,22h2v1h-2ZM13,23h1v1h-1ZM13,24h6v1h-6Z"/><path fill="#b13e53" d="M16,14h1v1h-1Z"/><path fill="#ffecd2" d="M8,20h1v1h-1ZM23,20h1v1h-1ZM12,21h1v1h-1ZM19,21h1v1h-1ZM8,22h1v1h-1ZM23,22h1v1h-1ZM12,23h1v1h-1ZM19,23h1v1h-1Z"/></svg>