<svg xmlns="http://www.w3.org/2000/svg" viewBox="0 0 32 32" shape-rendering="crispEdges"><path fill="#ffecd2" d="M0,0h32v1h-32zM0,1h32v1h-32zM0,2h32v1h-32zM0,3h13v1h-13zM14,3h1v1h-1zM18,3h1v1h-1zM20,3h12v1h-12zM0,4h10v1h-10zM11,4h2v1h-2zM20,4h12v1h-12zM0,5h12v1h-12zM13,5h1v1h-1zM17,5h1v1h-1zM21,5h11v1h-11zM0,6h11v1h-11zM13,6h2v1h-2zM16,6h2v1h-2zM19,6h1v1h-1zM21,6h2v1h-2zM24,6h8v1h-8zM0,7h7v1h-7zM8,7h2v1h-2zM11,7h1v1h-1zM13,7h9v1h-9zM23,7h9v1h-9zM0,8h9v1h-9zM10,8h12v1h-12zM25,8h7v1h-7zM0,9h8v1h-8zM10,9h14v1h-14zM25,9h1v1h-1zM27,9h5v1h-5zM0,10h7v1h-7zM8,10h16v1h-16zM25,10h7v1h-7zM0,11h5v1h-5zM6,11h19v1h-19zM26,11h6v1h-6zM0,12h7v1h-7zM8,12h18v1h-18zM27,12h5v1h-5zM0,13h6v1h-6zM7,13h21v1h-21zM29,13h3v1h-3zM0,14h6v1h-6zM7,14h18v1h-18zM27,14h5v1h-5zM0,15h25v1h-25zM27,15h1v1h-1zM29,15h3v1h-3zM0,16h4v1h-4zM8,16h18v1h-18zM27,16h5v1h-5zM0,17h6v1h-6zM7,17h25v1h-25zM0,18h7v1h-7zM8,18h16v1h-16zM25,18h1v1h-1zM27,18h5v1h-5zM0,19h8v1h-8zM9,19h16v1h-16zM26,19h1v1h-1zM28,19h4v1h-4zM0,20h3v1h-3zM4,20h1v1h-1zM6,20h1v1h-1zM8,20h16v1h-16zM25,20h7v1h-7zM0,21h8v1h-8zM9,21h13v1h-13zM23,21h1v1h-1zM25,21h1v1h-1zM27,21h5v1h-5zM0,22h9v1h-9zM11,22h12v1h-12zM24,22h8v1h-8zM0,23h10v1h-10zM11,23h2v1h-2zM15,23h3v1h-3zM19,23h1v1h-1zM21,23h1v1h-1zM23,23h2v1h-2zM26,23h6v1h-6zM0,24h8v1h-8zM9,24h2v1h-2zM13,24h1v1h-1zM15,24h1v1h-1zM17,24h1v1h-1zM19,24h1v1h-1zM21,24h5v1h-5zM27,24h5v1h-5zM0,25h12v1h-12zM17,25h1v1h-1zM21,25h6v1h-6zM28,25h4v1h-4zM0,26h5v1h-5zM6,26h6v1h-6zM13,26h1v1h-1zM18,26h3v1h-3zM22,26h10v1h-10zM0,27h6v1h-6zM7,27h9v1h-9zM17,27h15v1h-15zM0,28h32v1h-32zM0,29h32v1h-32zM0,30h32v1h-32zM0,31h32v1h-32z"/><path fill="#ffcd75" d="M13,3h1v1h-1zM15,3h3v1h-3zM19,3h1v1h-1zM13,4h2v1h-2zM18,4h2v1h-2zM12,5h1v1h-1zM20,5h1v1h-1z"/><path fill="#a7f070" d="M10,4h1v1h-1zM18,6h1v1h-1zM12,7h1v1h-1zM26,9h1v1h-1zM24,10h1v1h-1zM5,11h1v1h-1zM7,12h1v1h-1zM24,18h1v1h-1zM8,19h1v1h-1zM27,19h1v1h-1zM5,20h1v1h-1zM13,23h1v1h-1zM20,23h1v1h-1zM26,24h1v1h-1zM12,26h1v1h-1zM21,26h1v1h-1zM6,27h1v1h-1z"/><path fill="#ef7d57" d="M15,4h3v1h-3z"/><path fill="#8b5e34" d="M14,5h3v1h-3zM18,5h2v1h-2zM11,6h2v1h-2zM20,6h1v1h-1zM10,7h1v1h-1zM22,7h1v1h-1zM9,8h1v1h-1zM23,8h1v1h-1zM8,9h1v1h-1zM24,9h1v1h-1zM7,10h1v1h-1zM25,11h1v1h-1zM26,12h1v1h-1zM6,13h1v1h-1zM6,14h1v1h-1zM26,14h1v1h-1zM26,15h1v1h-1zM6,16h1v1h-1zM26,16h1v1h-1zM6,17h1v1h-1zM7,18h1v1h-1zM26,18h1v1h-1zM25,19h1v1h-1zM7,20h1v1h-1zM24,20h1v1h-1zM8,21h1v1h-1zM24,21h1v1h-1zM9,22h1v1h-1zM23,22h1v1h-1zM10,23h1v1h-1zM22,23h1v1h-1zM11,24h2v1h-2zM20,24h1v1h-1zM14,25h3v1h-3zM18,25h1v1h-1z"/><path fill="#38b764" d="M15,6h1v1h-1zM23,6h1v1h-1zM7,7h1v1h-1zM22,8h1v1h-1zM9,9h1v1h-1zM28,13h1v1h-1zM25,14h1v1h-1zM25,15h1v1h-1zM28,15h1v1h-1zM4,16h1v1h-1zM7,16h1v1h-1zM3,20h1v1h-1zM22,21h1v1h-1zM10,22h1v1h-1zM25,23h1v1h-1zM8,24h1v1h-1zM16,24h1v1h-1zM27,25h1v1h-1zM5,26h1v1h-1zM16,27h1v1h-1z"/><path fill="#5d275d" d="M24,8h1v1h-1zM5,16h1v1h-1zM26,21h1v1h-1zM14,26h1v1h-1z"/><path fill="#f4f4f4" d="M14,23h1v1h-1zM18,23h1v1h-1z"/><path fill="#1a1c2c" d="M14,24h1v1h-1zM18,24h1v1h-1zM15,26h3v1h-3z"/><path fill="#ff9eb7" d="M12,25h2v1h-2zM19,25h2v1h-2z"/></svg>