<svg xmlns="http://www.w3.org/2000/svg" viewBox="0 0 32 32" shape-rendering="crispEdges"><path fill="#f4f4f4" d="M14,5h3v1h-3zM14,6h3v1h-3zM13,7h5v1h-5zM12,8h7v1h-7zM11,9h5v1h-5zM17,9h3v1h-3zM10,10h4v1h-4zM15,10h6v1h-6zM10,11h8v1h-8zM19,11h2v1h-2zM9,12h6v1h-6zM16,12h1v1h-1zM18,12h4v1h-4zM8,13h6v1h-6zM17,13h6v1h-6zM7,14h6v1h-6zM14,14h1v1h-1zM16,14h8v1h-8zM6,15h7v1h-7zM14,15h3v1h-3zM18,15h1v1h-1zM20,15h5v1h-5zM6,16h5v1h-5zM13,16h2v1h-2zM16,16h2v1h-2zM20,16h5v1h-5z"/><path fill="#ffecd2" d="M16,9h1v1h-1zM14,10h1v1h-1zM18,11h1v1h-1zM17,12h1v1h-1zM13,14h1v1h-1zM19,15h1v1h-1z"/><path fill="#b13e53" d="M15,12h1v1h-1zM14,13h3v1h-3zM15,14h1v1h-1z"/><path fill="#1a1c2c" d="M13,15h1v1h-1zM17,15h1v1h-1zM15,16h1v1h-1z"/><path fill="#ff9eb7" d="M11,16h2v1h-2zM18,16h2v1h-2z"/><path fill="#333c57" d="M5,17h21v1h-21zM4,18h23v1h-23zM3,19h25v1h-25zM2,20h27v1h-27zM2,21h27v1h-27zM1,22h29v1h-29zM26,25h1v1h-1zM23,26h3v1h-3zM27,26h3v1h-3zM22,27h1v1h-1zM30,27h1v1h-1zM23,28h3v1h-3zM27,28h3v1h-3zM26,29h1v1h-1z"/><path fill="#8b5e34" d="M26,26h1v1h-1zM23,27h7v1h-7zM26,28h1v1h-1z"/></svg>