<svg xmlns="http://www.w3.org/2000/svg" viewBox="0 0 32 32" shape-rendering="crispEdges"><path fill="#94b0c2" d="M16,8h1v1h-1ZM12,9h2v1h-2ZM15,9h6v1h-6ZM10,10h3v1h-3ZM18,10h5v1h-5ZM9,11h3v1h-3ZM21,11h3v1h-3ZM8,12h3v1h-3ZM22,12h3v1h-3ZM7,13h3v1h-3ZM23,13h3v1h-3ZM7,14h2v1h-2ZM24,14h2v1h-2ZM7,15h2v1h-2ZM24,15h2v1h-2ZM6,16h2v1h-2ZM25,16h2v1h-2ZM7,17h2v1h-2ZM24,17h2v1h-2ZM7,18h2v1h-2ZM24,18h2v1h-2ZM7,19h3v1h-3ZM23,19h3v1h-3ZM8,20h3v1h-3ZM22,20h2v1h-2ZM9,21h3v1h-3ZM21,21h3v1h-3ZM10,22h6v1h-6ZM17,22h6v1h-6ZM12,23h9v1h-9ZM16,24h1v1h-1Z"/><path fill="#f4f4f4" d="M14,9h1v1h-1ZM5,10h1v1h-1ZM13,10h5v1h-5ZM12,11h9v1h-9ZM11,12h1v1h-1ZM13,12h2v1h-2ZM17,12h3v1h-3ZM21,12h1v1h-1ZM27,12h1v1h-1ZM10,13h8v1h-8ZM20,13h3v1h-3ZM9,14h3v1h-3ZM14,14h8v1h-8ZM23,14h1v1h-1ZM9,15h7v1h-7ZM18,15h5v1h-5ZM8,16h3v1h-3ZM12,16h8v1h-8ZM22,16h3v1h-3ZM9,17h5v1h-5ZM16,17h8v1h-8ZM9,18h1v1h-1ZM11,18h8v1h-8ZM20,18h4v1h-4ZM10,19h3v1h-3ZM14,19h3v1h-3ZM19,19h4v1h-4ZM11,20h11v1h-11ZM24,20h1v1h-1ZM12,21h9v1h-9ZM8,22h1v1h-1ZM16,22h1v1h-1Z"/><path fill="#3b5dc9" d="M12,12h1v1h-1ZM23,15h1v1h-1ZM14,17h2v1h-2Z"/><path fill="#38b764" d="M15,12h1v1h-1ZM18,13h2v1h-2Z"/><path fill="#a7f070" d="M16,12h1v1h-1Z"/><path fill="#ffcd75" d="M20,12h1v1h-1ZM20,16h2v1h-2ZM19,18h1v1h-1Z"/><path fill="#b13e53" d="M12,14h2v1h-2ZM16,15h1v1h-1ZM17,19h1v1h-1Z"/><path fill="#41a6f6" d="M22,14h1v1h-1Z"/><path fill="#ef7d57" d="M17,15h1v1h-1ZM11,16h1v1h-1ZM18,19h1v1h-1Z"/><path fill="#5d275d" d="M10,18h1v1h-1Z"/><path fill="#73eff7" d="M13,19h1v1h-1Z"/></svg>