<svg xmlns="http://www.w3.org/2000/svg" width="32" height="32" viewBox="0 0 32 32" shape-rendering="crispEdges">
<path fill="#8b5e34" d="M9 3h1v1h-1zM22 3h1v1h-1zM10 4h1v1h-1zM21 4h1v1h-1zM10 5h1v1h-1zM21 5h1v1h-1zM9 6h14v1h-14zM8 7h16v1h-16zM8 8h16v1h-16zM8 9h1v1h-1zM14 9h4v1h-4zM23 9h1v1h-1zM8 10h1v1h-1zM14 10h4v1h-4zM23 10h1v1h-1zM14 11h4v1h-4zM14 12h4v1h-4zM14 13h4v1h-4zM9 14h6v1h-6zM17 14h6v1h-6zM9 15h4v1h-4zM19 15h4v1h-4zM9 16h3v1h-3zM20 16h3v1h-3zM5 17h1v1h-1zM9 17h3v1h-3zM20 17h3v1h-3zM26 17h1v1h-1zM6 18h1v1h-1zM9 18h3v1h-3zM20 18h3v1h-3zM25 18h1v1h-1zM10 19h2v1h-2zM20 19h2v1h-2zM11 20h1v1h-1zM20 20h1v1h-1zM11 21h1v1h-1zM20 21h1v1h-1zM11 22h1v1h-1zM20 22h1v1h-1zM6 25h21v1h-21zM6 26h21v1h-21z"/><path fill="#ef7d57" d="M11 5h10v1h-10zM6 11h3v1h-3zM23 11h3v1h-3zM5 12h4v1h-4zM23 12h4v1h-4zM5 13h4v1h-4zM23 13h4v1h-4zM5 14h4v1h-4zM23 14h4v1h-4zM5 15h4v1h-4zM14 15h4v1h-4zM23 15h4v1h-4zM5 16h4v1h-4zM23 16h4v1h-4zM6 17h3v1h-3zM23 17h3v1h-3z"/><path fill="#1a1c2c" d="M9 9h5v1h-5zM18 9h5v1h-5zM9 10h1v1h-1zM13 10h1v1h-1zM18 10h1v1h-1zM22 10h1v1h-1zM9 11h1v1h-1zM11 11h1v1h-1zM13 11h1v1h-1zM18 11h1v1h-1zM20 11h1v1h-1zM22 11h1v1h-1zM9 12h1v1h-1zM13 12h1v1h-1zM18 12h1v1h-1zM22 12h1v1h-1zM9 13h5v1h-5zM18 13h5v1h-5z"/><path fill="#f4f4f4" d="M10 10h1v1h-1zM19 10h1v1h-1z"/><path fill="#ffcd75" d="M11 10h2v1h-2zM20 10h2v1h-2zM10 11h1v1h-1zM12 11h1v1h-1zM19 11h1v1h-1zM21 11h1v1h-1zM10 12h3v1h-3zM19 12h3v1h-3zM15 14h2v1h-2z"/><path fill="#ffe0a8" d="M13 15h1v1h-1zM18 15h1v1h-1zM12 16h8v1h-8zM12 17h8v1h-8zM12 18h8v1h-8zM12 19h8v1h-8zM12 20h8v1h-8zM12 21h8v1h-8zM12 22h8v1h-8z"/><path fill="#333c57" d="M10 23h12v1h-12zM9 24h2v1h-2zM12 24h2v1h-2zM19 24h2v1h-2zM22 24h2v1h-2z"/>
</svg>