<svg xmlns="http://www.w3.org/2000/svg" viewBox="0 0 32 32" shape-rendering="crispEdges"><path fill="#41a6f6" d="M0,0h15v1h-15zM17,0h15v1h-15zM0,1h15v1h-15zM17,1h15v1h-15zM0,2h15v1h-15zM17,2h15v1h-15zM0,3h13v1h-13zM14,3h1v1h-1zM17,3h1v1h-1zM19,3h13v1h-13zM0,4h13v1h-13zM19,4h13v1h-13zM0,5h13v1h-13zM19,5h13v1h-13zM0,6h11v1h-11zM12,6h2v1h-2zM18,6h2v1h-2zM21,6h11v1h-11zM0,7h11v1h-11zM21,7h11v1h-11zM0,8h12v1h-12zM20,8h12v1h-12zM0,9h13v1h-13zM19,9h13v1h-13zM0,10h9v1h-9zM10,10h3v1h-3zM19,10h3v1h-3zM23,10h9v1h-9zM0,11h9v1h-9zM23,11h9v1h-9zM0,12h10v1h-10zM22,12h10v1h-10zM0,13h11v1h-11zM21,13h11v1h-11zM0,14h11v1h-11zM21,14h11v1h-11zM0,15h7v1h-7zM8,15h3v1h-3zM21,15h3v1h-3zM25,15h7v1h-7zM0,16h7v1h-7zM25,16h7v1h-7zM0,17h8v1h-8zM24,17h8v1h-8zM0,18h9v1h-9zM23,18h9v1h-9zM0,19h9v1h-9zM23,19h9v1h-9zM0,20h9v1h-9zM23,20h9v1h-9zM0,21h5v1h-5zM6,21h3v1h-3zM23,21h3v1h-3zM27,21h5v1h-5zM0,22h5v1h-5zM27,22h5v1h-5zM0,23h6v1h-6zM26,23h6v1h-6zM0,24h7v1h-7zM25,24h7v1h-7zM0,25h7v1h-7zM25,25h7v1h-7zM0,26h7v1h-7zM25,26h7v1h-7zM0,27h7v1h-7zM25,27h7v1h-7zM0,28h11v1h-11zM21,28h11v1h-11zM0,29h10v1h-10zM22,29h10v1h-10z"/><path fill="#ffcd75" d="M15,0h2v1h-2zM15,1h2v1h-2zM15,2h2v1h-2zM15,3h2v1h-2zM15,25h2v1h-2z"/><path fill="#ef7d57" d="M13,3h1v1h-1zM18,3h1v1h-1zM11,6h1v1h-1zM20,6h1v1h-1zM9,10h1v1h-1zM22,10h1v1h-1zM7,15h1v1h-1zM24,15h1v1h-1zM5,21h1v1h-1zM26,21h1v1h-1z"/><path fill="#b13e53" d="M13,4h6v1h-6zM13,5h6v1h-6zM14,6h4v1h-4zM11,7h10v1h-10zM12,8h8v1h-8zM13,9h2v1h-2zM17,9h2v1h-2zM13,10h6v1h-6zM9,11h14v1h-14zM10,12h12v1h-12zM11,13h3v1h-3zM15,13h2v1h-2zM18,13h3v1h-3zM11,14h10v1h-10zM11,15h10v1h-10zM7,16h18v1h-18zM8,17h16v1h-16zM9,18h14v1h-14zM9,19h4v1h-4zM14,19h4v1h-4zM19,19h4v1h-4zM9,20h14v1h-14zM9,21h14v1h-14zM5,22h22v1h-22zM6,23h20v1h-20zM7,24h18v1h-18zM7,25h4v1h-4zM12,25h2v1h-2zM18,25h2v1h-2zM21,25h4v1h-4zM7,26h7v1h-7zM18,26h7v1h-7zM7,27h7v1h-7zM18,27h7v1h-7z"/><path fill="#1a1c2c" d="M15,9h2v1h-2zM14,13h1v1h-1zM17,13h1v1h-1zM13,19h1v1h-1zM18,19h1v1h-1zM11,25h1v1h-1zM20,25h1v1h-1z"/><path fill="#333c57" d="M14,25h1v1h-1zM17,25h1v1h-1zM14,26h4v1h-4zM14,27h4v1h-4z"/><path fill="#94b0c2" d="M11,28h10v1h-10z"/><path fill="#566c86" d="M10,29h12v1h-12zM0,30h32v1h-32zM0,31h32v1h-32z"/></svg>