<svg xmlns="http://www.w3.org/2000/svg" viewBox="0 0 32 32" shape-rendering="crispEdges"><path fill="#94b0c2" d="M8,27h16v1h-16zM6,28h3v1h-3zM8,28h2v1h-2zM9,28h2v1h-2zM10,28h2v1h-2zM11,28h2v1h-2zM12,28h2v1h-2zM13,28h2v1h-2zM14,28h2v1h-2zM15,28h2v1h-2zM16,28h2v1h-2zM17,28h2v1h-2zM18,28h2v1h-2zM19,28h2v1h-2zM20,28h2v1h-2zM21,28h2v1h-2zM22,28h2v1h-2zM23,28h3v1h-3zM6,29h20v1h-20z"/><path fill="#566c86" d="M7,30h18v1h-18z"/><path fill="#ef7d57" d="M12,12h8v1h-8zM11,13h10v1h-10zM11,14h10v1h-10zM11,15h10v1h-10zM11,16h10v1h-10zM11,17h10v1h-10zM10,18h12v1h-12zM10,19h12v1h-12zM10,20h12v1h-12zM10,21h12v1h-12zM10,22h12v1h-12zM9,23h14v1h-14zM9,24h14v1h-14zM9,25h14v1h-14zM9,26h14v1h-14z"/><path fill="#8b5e34" d="M13,13h6v1h-6zM12,18h8v1h-8zM10,19h1v1h-1zM22,19h1v1h-1zM10,20h1v1h-1zM11,23h10v1h-10zM9,24h1v1h-1zM23,24h1v1h-1zM9,25h1v1h-1zM23,25h1v1h-1zM9,26h1v1h-1z"/><path fill="#ffcd75" d="M14,10h4v1h-4zM13,11h5v1h-5z"/><path fill="#5d275d" d="M5,25h3v1h-3zM5,26h3v1h-3z"/><path fill="#b13e53" d="M24,24h3v1h-3zM24,25h3v1h-3zM24,26h3v1h-3z"/><path fill="#38b764" d="M25,23h2v1h-2z"/><path fill="#1a1c2c" d="M13,14h2v1h-2zM17,14h2v1h-2zM13,15h2v1h-2zM17,15h2v1h-2zM15,16h2v1h-2z"/><path fill="#f4f4f4" d="M13,14h1v1h-1zM17,14h1v1h-1z"/><path fill="#ff9eb7" d="M12,16h2v1h-2zM19,16h2v1h-2z"/></svg>