<svg xmlns="http://www.w3.org/2000/svg" viewBox="0 0 32 32" shape-rendering="crispEdges"><path fill="#38b764" d="M2,0h1v1h-1zM28,0h1v1h-1zM2,1h1v1h-1zM28,1h1v1h-1zM2,2h1v1h-1zM28,2h1v1h-1zM2,3h1v1h-1zM28,3h1v1h-1zM2,4h1v1h-1zM28,4h1v1h-1zM7,5h2v1h-2zM28,5h1v1h-1zM2,6h1v1h-1zM7,6h2v1h-2zM28,6h1v1h-1zM2,7h1v1h-1zM7,7h2v1h-2zM28,7h1v1h-1zM2,8h1v1h-1zM7,8h2v1h-2zM2,9h1v1h-1zM7,9h2v1h-2zM28,9h1v1h-1zM2,10h1v1h-1zM28,10h1v1h-1zM2,11h1v1h-1zM7,11h2v1h-2zM28,11h1v1h-1zM2,12h1v1h-1zM7,12h2v1h-2zM28,12h1v1h-1zM2,13h1v1h-1zM7,13h2v1h-2zM28,13h1v1h-1zM2,14h1v1h-1zM7,14h2v1h-2zM28,14h1v1h-1zM7,15h2v1h-2zM28,15h1v1h-1zM2,16h1v1h-1zM7,16h2v1h-2zM28,16h1v1h-1zM2,17h1v1h-1zM7,17h2v1h-2zM28,17h1v1h-1zM2,18h1v1h-1zM7,18h2v1h-2zM2,19h1v1h-1zM7,19h2v1h-2zM28,19h1v1h-1zM2,20h1v1h-1zM28,20h1v1h-1zM2,21h1v1h-1zM7,21h2v1h-2zM28,21h1v1h-1zM2,22h1v1h-1zM7,22h2v1h-2zM28,22h1v1h-1zM2,23h1v1h-1zM7,23h2v1h-2zM28,23h1v1h-1zM2,24h1v1h-1zM7,24h2v1h-2zM28,24h1v1h-1zM7,25h2v1h-2zM28,25h1v1h-1zM2,26h1v1h-1zM7,26h2v1h-2zM28,26h1v1h-1zM2,27h1v1h-1zM7,27h2v1h-2zM28,27h1v1h-1zM2,28h1v1h-1zM2,29h1v1h-1zM22,29h1v1h-1zM28,29h1v1h-1zM2,30h1v1h-1zM9,30h1v1h-1zM28,30h1v1h-1zM2,31h1v1h-1zM28,31h1v1h-1z"/><path fill="#a7f070" d="M4,3h1v1h-1zM3,4h2v1h-2zM30,6h1v1h-1zM29,7h2v1h-2zM0,13h1v1h-1zM10,13h1v1h-1zM0,14h2v1h-2zM9,14h1v1h-1zM14,14h1v1h-1zM9,15h2v1h-2zM13,15h1v1h-1zM26,16h1v1h-1zM26,17h2v1h-2zM8,29h1v1h-1zM14,30h1v1h-1zM20,30h1v1h-1z"/><path fill="#257179" d="M1,5h3v1h-3zM27,8h3v1h-3zM6,10h4v1h-4zM1,15h3v1h-3zM27,18h3v1h-3zM6,20h4v1h-4zM1,25h3v1h-3zM27,28h3v1h-3z"/><path fill="#1a1c2c" d="M9,6h3v1h-3zM20,6h3v1h-3zM9,7h1v1h-1zM11,7h1v1h-1zM20,7h1v1h-1zM22,7h1v1h-1zM9,8h3v1h-3zM20,8h3v1h-3zM11,11h3v1h-3zM18,11h3v1h-3zM11,12h1v1h-1zM13,12h1v1h-1zM18,12h1v1h-1zM20,12h1v1h-1zM12,13h1v1h-1zM19,13h1v1h-1zM15,14h2v1h-2zM9,19h2v1h-2zM21,19h3v1h-3zM10,20h1v1h-1zM21,20h3v1h-3zM9,21h2v1h-2zM21,21h3v1h-3zM9,22h2v1h-2zM21,22h3v1h-3zM11,26h3v1h-3zM18,26h3v1h-3zM11,27h3v1h-3zM18,27h3v1h-3zM11,28h1v1h-1zM13,28h1v1h-1zM18,28h1v1h-1zM20,28h1v1h-1z"/><path fill="#333c57" d="M10,7h1v1h-1zM21,7h1v1h-1zM14,15h1v1h-1zM17,15h1v1h-1zM15,16h2v1h-2zM12,28h1v1h-1zM19,28h1v1h-1z"/><path fill="#f4f4f4" d="M12,7h8v1h-8zM12,8h8v1h-8zM9,9h14v1h-14zM10,10h13v1h-13zM9,11h2v1h-2zM14,11h4v1h-4zM21,11h2v1h-2zM9,12h2v1h-2zM12,12h1v1h-1zM14,12h4v1h-4zM19,12h1v1h-1zM21,12h2v1h-2zM9,13h1v1h-1zM11,13h1v1h-1zM13,13h6v1h-6zM20,13h3v1h-3zM12,14h2v1h-2zM17,14h3v1h-3zM22,14h1v1h-1zM11,15h2v1h-2zM15,15h2v1h-2zM18,15h5v1h-5zM9,16h6v1h-6zM17,16h6v1h-6zM10,17h12v1h-12zM11,18h10v1h-10zM11,19h10v1h-10zM11,20h2v1h-2zM19,20h2v1h-2zM11,21h2v1h-2zM19,21h2v1h-2zM11,22h2v1h-2zM19,22h2v1h-2zM10,23h3v1h-3zM19,23h3v1h-3zM10,24h3v1h-3zM19,24h3v1h-3zM10,25h12v1h-12zM10,26h1v1h-1zM14,26h4v1h-4zM21,26h1v1h-1zM14,27h4v1h-4zM14,28h4v1h-4z"/><path fill="#ff9eb7" d="M10,14h2v1h-2zM20,14h2v1h-2z"/><path fill="#94b0c2" d="M13,20h6v1h-6zM13,21h6v1h-6zM13,22h6v1h-6zM13,23h6v1h-6zM13,24h6v1h-6z"/></svg>