<svg xmlns="http://www.w3.org/2000/svg" viewBox="0 0 32 32" shape-rendering="crispEdges"><path fill="#1a1c2c" d="M9,1h1v1h-1zM23,1h1v1h-1zM7,2h5v1h-5zM21,2h5v1h-5zM7,3h5v1h-5zM21,3h5v1h-5zM6,4h7v1h-7zM20,4h7v1h-7zM7,5h5v1h-5zM21,5h5v1h-5zM7,6h5v1h-5zM21,6h5v1h-5zM9,7h1v1h-1zM23,7h1v1h-1zM12,8h1v1h-1zM20,8h1v1h-1zM10,9h1v1h-1zM13,9h2v1h-2zM18,9h2v1h-2zM22,9h1v1h-1zM9,10h7v1h-7zM17,10h7v1h-7zM10,11h5v1h-5zM18,11h5v1h-5zM12,12h1v1h-1zM15,12h3v1h-3zM20,12h1v1h-1zM16,13h1v1h-1zM15,14h1v1h-1zM17,14h1v1h-1zM10,16h1v1h-1zM22,16h1v1h-1zM10,17h2v1h-2zM21,17h3v1h-3zM10,18h3v1h-3zM20,18h5v1h-5zM10,19h3v1h-3zM20,19h5v1h-5zM7,20h1v1h-1zM10,20h4v1h-4zM19,20h7v1h-7zM10,21h3v1h-3zM20,21h5v1h-5zM10,22h3v1h-3zM20,22h5v1h-5zM10,23h2v1h-2zM21,23h3v1h-3zM10,24h1v1h-1zM22,24h1v1h-1zM13,25h1v1h-1zM19,25h1v1h-1zM11,26h5v1h-5zM17,26h5v1h-5zM10,27h13v1h-13zM11,28h5v1h-5zM17,28h5v1h-5zM13,29h1v1h-1zM19,29h1v1h-1z"/><path fill="#f4f4f4" d="M16,3h1v1h-1zM13,4h7v1h-7zM12,5h9v1h-9zM12,6h9v1h-9zM10,7h13v1h-13zM9,8h3v1h-3zM13,8h7v1h-7zM21,8h3v1h-3zM9,9h1v1h-1zM11,9h2v1h-2zM15,9h3v1h-3zM20,9h2v1h-2zM23,9h1v1h-1zM8,10h1v1h-1zM16,10h1v1h-1zM24,10h1v1h-1zM9,11h1v1h-1zM15,11h3v1h-3zM23,11h1v1h-1zM11,12h1v1h-1zM13,12h2v1h-2zM18,12h2v1h-2zM21,12h1v1h-1zM9,13h2v1h-2zM12,13h4v1h-4zM17,13h7v1h-7zM11,14h4v1h-4zM16,14h1v1h-1zM18,14h5v1h-5zM11,15h11v1h-11zM12,16h9v1h-9zM16,17h1v1h-1zM13,18h7v1h-7zM13,19h7v1h-7zM14,20h5v1h-5zM13,21h7v1h-7zM13,22h7v1h-7zM12,23h9v1h-9zM11,24h11v1h-11zM12,25h1v1h-1zM14,25h5v1h-5zM20,25h1v1h-1zM16,26h1v1h-1z"/><path fill="#a7f070" d="M5,12h1v1h-1zM6,13h1v1h-1zM11,13h1v1h-1zM7,14h1v1h-1zM10,14h1v1h-1zM7,18h1v1h-1zM7,22h1v1h-1z"/><path fill="#ff9eb7" d="M9,12h2v1h-2zM22,12h2v1h-2z"/><path fill="#38b764" d="M8,14h2v1h-2zM8,15h2v1h-2zM8,16h2v1h-2zM8,17h2v1h-2zM8,18h2v1h-2zM8,19h2v1h-2zM8,20h2v1h-2zM8,21h2v1h-2zM8,22h2v1h-2zM8,23h2v1h-2zM8,24h2v1h-2zM8,25h2v1h-2zM8,26h2v1h-2zM8,27h2v1h-2z"/></svg>