<svg xmlns="http://www.w3.org/2000/svg" viewBox="0 0 32 32" shape-rendering="crispEdges"><path fill="#b13e53" d="M12,4h9v1h-9zM8,5h17v1h-17zM6,6h4v1h-4zM23,6h4v1h-4zM4,7h3v1h-3zM26,7h3v1h-3zM3,8h2v1h-2zM28,8h2v1h-2zM2,9h2v1h-2zM29,9h1v1h-1zM2,10h1v1h-1zM15,28h2v1h-2zM15,29h2v1h-2zM14,30h4v1h-4zM14,31h1v1h-1zM17,31h1v1h-1z"/><path fill="#ffecd2" d="M10,6h6v1h-6zM17,6h6v1h-6zM7,7h2v1h-2zM10,7h6v1h-6zM17,7h6v1h-6zM24,7h2v1h-2zM5,8h5v1h-5zM11,8h5v1h-5zM17,8h5v1h-5zM23,8h5v1h-5zM4,9h6v1h-6zM11,9h5v1h-5zM17,9h5v1h-5zM23,9h6v1h-6zM4,10h5v1h-5zM12,10h4v1h-4zM17,10h5v1h-5zM23,10h6v1h-6zM2,11h2v1h-2zM5,11h5v1h-5zM11,11h5v1h-5zM17,11h5v1h-5zM23,11h5v1h-5zM29,11h1v1h-1zM2,12h2v1h-2zM5,12h3v1h-3zM13,12h3v1h-3zM17,12h3v1h-3zM22,12h6v1h-6zM29,12h1v1h-1zM2,13h3v1h-3zM6,13h2v1h-2zM13,13h3v1h-3zM17,13h2v1h-2zM22,13h5v1h-5zM28,13h2v1h-2zM2,14h4v1h-4zM14,14h2v1h-2zM17,14h1v1h-1zM23,14h3v1h-3zM27,14h3v1h-3zM2,15h5v1h-5zM8,15h4v1h-4zM13,15h3v1h-3zM17,15h3v1h-3zM21,15h4v1h-4zM26,15h4v1h-4zM2,16h5v1h-5zM11,16h1v1h-1zM13,16h3v1h-3zM17,16h3v1h-3zM23,16h2v1h-2zM26,16h4v1h-4zM2,17h6v1h-6zM9,17h3v1h-3zM18,17h2v1h-2zM21,17h3v1h-3zM25,17h5v1h-5zM4,18h5v1h-5zM10,18h3v1h-3zM14,18h2v1h-2zM17,18h2v1h-2zM20,18h3v1h-3zM24,18h5v1h-5zM2,19h1v1h-1zM5,19h5v1h-5zM11,19h2v1h-2zM15,19h1v1h-1zM17,19h1v1h-1zM20,19h2v1h-2zM23,19h5v1h-5zM2,20h3v1h-3zM7,20h3v1h-3zM13,20h1v1h-1zM15,20h1v1h-1zM17,20h1v1h-1zM19,20h1v1h-1zM23,20h3v1h-3zM28,20h2v1h-2zM2,21h5v1h-5zM8,21h3v1h-3zM13,21h1v1h-1zM19,21h1v1h-1zM22,21h3v1h-3zM26,21h4v1h-4zM2,22h6v1h-6zM9,22h3v1h-3zM13,22h1v1h-1zM15,22h1v1h-1zM17,22h1v1h-1zM19,22h1v1h-1zM21,22h3v1h-3zM25,22h5v1h-5zM2,23h7v1h-7zM11,23h2v1h-2zM14,23h1v1h-1zM18,23h1v1h-1zM20,23h2v1h-2zM24,23h6v1h-6zM6,24h5v1h-5zM13,24h1v1h-1zM19,24h1v1h-1zM22,24h5v1h-5zM3,25h3v1h-3zM10,25h3v1h-3zM20,25h3v1h-3zM27,25h3v1h-3z"/><path fill="#8b5e34" d="M16,6h1v1h-1zM9,7h1v1h-1zM16,7h1v1h-1zM23,7h1v1h-1zM10,8h1v1h-1zM16,8h1v1h-1zM22,8h1v1h-1zM10,9h1v1h-1zM16,9h1v1h-1zM22,9h1v1h-1zM3,10h1v1h-1zM10,10h1v1h-1zM16,10h1v1h-1zM22,10h1v1h-1zM29,10h1v1h-1zM4,11h1v1h-1zM16,11h1v1h-1zM22,11h1v1h-1zM28,11h1v1h-1zM4,12h1v1h-1zM16,12h1v1h-1zM21,12h1v1h-1zM28,12h1v1h-1zM5,13h1v1h-1zM16,13h1v1h-1zM27,13h1v1h-1zM6,14h1v1h-1zM11,14h1v1h-1zM16,14h1v1h-1zM26,14h1v1h-1zM7,15h1v1h-1zM12,15h1v1h-1zM16,15h1v1h-1zM20,15h1v1h-1zM25,15h1v1h-1zM12,16h1v1h-1zM16,16h1v1h-1zM25,16h1v1h-1zM0,17h2v1h-2zM8,17h1v1h-1zM12,17h1v1h-1zM20,17h1v1h-1zM24,17h1v1h-1zM31,17h1v1h-1zM2,18h2v1h-2zM9,18h1v1h-1zM13,18h1v1h-1zM16,18h1v1h-1zM19,18h1v1h-1zM23,18h1v1h-1zM29,18h2v1h-2zM3,19h2v1h-2zM10,19h1v1h-1zM16,19h1v1h-1zM22,19h1v1h-1zM28,19h2v1h-2zM5,20h2v1h-2zM10,20h1v1h-1zM14,20h1v1h-1zM16,20h1v1h-1zM18,20h1v1h-1zM22,20h1v1h-1zM26,20h2v1h-2zM7,21h1v1h-1zM11,21h2v1h-2zM18,21h1v1h-1zM20,21h2v1h-2zM25,21h1v1h-1zM8,22h1v1h-1zM12,22h1v1h-1zM14,22h1v1h-1zM16,22h1v1h-1zM18,22h1v1h-1zM20,22h1v1h-1zM24,22h1v1h-1zM0,23h2v1h-2zM9,23h2v1h-2zM13,23h1v1h-1zM19,23h1v1h-1zM22,23h2v1h-2zM31,23h1v1h-1zM2,24h4v1h-4zM11,24h2v1h-2zM20,24h2v1h-2zM27,24h4v1h-4zM6,25h4v1h-4zM23,25h4v1h-4zM10,26h2v1h-2zM21,26h2v1h-2z"/><path fill="#566c86" d="M9,10h1v1h-1zM11,10h1v1h-1zM10,11h1v1h-1zM9,12h3v1h-3zM20,12h1v1h-1zM8,13h5v1h-5zM21,13h1v1h-1zM7,14h1v1h-1zM13,14h1v1h-1zM18,14h5v1h-5z"/><path fill="#257179" d="M8,12h1v1h-1zM12,12h1v1h-1zM19,13h2v1h-2zM8,14h3v1h-3zM12,14h1v1h-1zM7,16h4v1h-4zM20,16h3v1h-3zM13,17h5v1h-5z"/><path fill="#1a1c2c" d="M13,19h2v1h-2zM18,19h2v1h-2zM15,21h2v1h-2z"/><path fill="#ff9eb7" d="M11,20h2v1h-2zM20,20h2v1h-2z"/><path fill="#333c57" d="M14,21h1v1h-1zM17,21h1v1h-1z"/><path fill="#d4a017" d="M15,23h3v1h-3zM14,24h5v1h-5zM13,25h2v1h-2zM18,25h2v1h-2zM12,26h2v1h-2zM19,26h2v1h-2zM15,27h2v1h-2z"/><path fill="#ffcd75" d="M15,26h2v1h-2z"/></svg>