<svg xmlns="http://www.w3.org/2000/svg" width="32" height="32" viewBox="0 0 32 32" shape-rendering="crispEdges">
<path fill="#ffcd75" d="M16 2h1v1h-1zM8 10h1v1h-1zM14 16h4v1h-4zM14 17h4v1h-4zM14 18h4v1h-4zM14 19h4v1h-4zM14 20h6v1h-6zM14 21h6v1h-6zM19 22h2v1h-2zM19 23h2v1h-2zM19 24h2v1h-2z"/><path fill="#b13e53" d="M15 3h2v1h-2zM12 4h8v1h-8zM11 5h6v1h-6zM11 6h7v1h-7zM11 7h8v1h-8zM11 8h3v1h-3zM16 8h5v1h-5zM12 9h9v1h-9zM13 10h8v1h-8zM11 11h10v1h-10zM11 12h7v1h-7zM12 13h6v1h-6zM12 14h6v1h-6zM12 15h6v1h-6zM12 16h2v1h-2zM12 17h2v1h-2zM12 18h2v1h-2zM12 19h2v1h-2zM12 20h2v1h-2zM20 20h2v1h-2zM12 21h2v1h-2zM20 21h2v1h-2zM12 22h1v1h-1zM21 22h1v1h-1zM12 23h1v1h-1zM21 23h1v1h-1z"/><path fill="#3b5dc9" d="M17 5h4v1h-4zM18 6h4v1h-4zM19 7h3v1h-3zM13 22h3v1h-3zM13 23h3v1h-3zM15 24h1v1h-1zM15 25h1v1h-1z"/><path fill="#f4f4f4" d="M14 8h1v1h-1z"/><path fill="#1a1c2c" d="M15 8h1v1h-1z"/><path fill="#ef7d57" d="M8 9h4v1h-4zM9 10h2v1h-2z"/><path fill="#ff9eb7" d="M11 10h2v1h-2z"/><path fill="#38b764" d="M18 12h6v1h-6zM18 13h6v1h-6zM18 14h6v1h-6zM18 15h6v1h-6zM18 16h6v1h-6zM18 17h6v1h-6zM18 18h6v1h-6zM18 19h6v1h-6zM16 22h3v1h-3zM16 23h3v1h-3zM16 24h1v1h-1zM16 25h1v1h-1z"/><path fill="#8b5e34" d="M4 24h9v1h-9zM21 24h7v1h-7zM3 25h10v1h-10zM19 25h10v1h-10z"/><path fill="#333c57" d="M13 24h2v1h-2zM17 24h2v1h-2zM13 25h2v1h-2zM17 25h2v1h-2z"/>
</svg>