<svg xmlns="http://www.w3.org/2000/svg" viewBox="0 0 32 32" shape-rendering="crispEdges"><path fill="#257179" d="M12,2h1v1h-1ZM14,2h5v1h-5ZM20,2h1v1h-1ZM10,3h2v1h-2ZM21,3h2v1h-2ZM9,4h1v1h-1ZM23,4h1v1h-1ZM7,5h2v1h-2ZM13,5h3v1h-3ZM18,5h2v1h-2ZM24,5h2v1h-2ZM6,6h1v1h-1ZM11,6h2v1h-2ZM20,6h2v1h-2ZM26,6h1v1h-1ZM5,7h1v1h-1ZM10,7h1v1h-1ZM22,7h1v1h-1ZM27,7h1v1h-1ZM5,8h1v1h-1ZM9,8h1v1h-1ZM23,8h1v1h-1ZM27,8h1v1h-1ZM4,9h1v1h-1ZM8,9h1v1h-1ZM14,9h1v1h-1ZM17,9h3v1h-3ZM24,9h1v1h-1ZM28,9h1v1h-1ZM3,10h1v1h-1ZM11,10h4v1h-4ZM17,10h5v1h-5ZM25,10h1v1h-1ZM29,10h1v1h-1ZM3,11h1v1h-1ZM9,11h4v1h-4ZM20,11h4v1h-4ZM29,11h1v1h-1ZM2,12h1v1h-1ZM6,12h1v1h-1ZM9,12h2v1h-2ZM22,12h2v1h-2ZM26,12h1v1h-1ZM30,12h1v1h-1ZM5,13h1v1h-1ZM8,13h2v1h-2ZM23,13h2v1h-2ZM27,13h1v1h-1ZM2,14h1v1h-1ZM5,14h1v1h-1ZM7,14h3v1h-3ZM23,14h3v1h-3ZM27,14h1v1h-1ZM30,14h1v1h-1ZM7,15h2v1h-2ZM24,15h2v1h-2ZM7,16h2v1h-2ZM24,16h2v1h-2Z"/><path fill="#38b764" d="M13,3h7v1h-7ZM11,4h2v1h-2ZM20,4h2v1h-2ZM9,5h2v1h-2ZM23,5h1v1h-1ZM13,6h7v1h-7ZM7,7h1v1h-1ZM11,7h3v1h-3ZM19,7h3v1h-3ZM6,8h1v1h-1ZM10,8h1v1h-1ZM22,8h1v1h-1ZM26,8h1v1h-1ZM5,9h1v1h-1ZM9,9h1v1h-1ZM23,9h1v1h-1ZM27,9h1v1h-1ZM8,10h1v1h-1ZM24,10h1v1h-1ZM4,11h1v1h-1ZM13,11h1v1h-1ZM15,11h2v1h-2ZM18,11h2v1h-2ZM25,11h1v1h-1ZM28,11h1v1h-1ZM4,12h1v1h-1ZM7,12h1v1h-1ZM11,12h2v1h-2ZM19,12h3v1h-3ZM25,12h1v1h-1ZM28,12h1v1h-1ZM3,13h1v1h-1ZM6,13h2v1h-2ZM10,13h2v1h-2ZM20,13h3v1h-3ZM25,13h2v1h-2ZM29,13h1v1h-1ZM3,14h1v1h-1ZM6,14h1v1h-1ZM10,14h2v1h-2ZM21,14h2v1h-2ZM26,14h1v1h-1ZM29,14h1v1h-1ZM9,15h2v1h-2ZM22,15h2v1h-2ZM9,16h2v1h-2ZM22,16h2v1h-2Z"/><path fill="#73eff7" d="M13,4h3v1h-3ZM18,4h2v1h-2ZM11,5h2v1h-2ZM20,5h2v1h-2ZM10,6h1v1h-1ZM22,6h2v1h-2ZM14,7h5v1h-5ZM7,8h2v1h-2ZM11,8h1v1h-1ZM14,8h6v1h-6ZM24,8h2v1h-2ZM6,9h1v1h-1ZM10,9h2v1h-2ZM15,9h2v1h-2ZM22,9h1v1h-1ZM26,9h1v1h-1ZM9,10h2v1h-2ZM22,10h2v1h-2ZM5,11h1v1h-1ZM8,11h1v1h-1ZM24,11h1v1h-1ZM5,12h1v1h-1ZM8,12h1v1h-1ZM24,12h1v1h-1ZM27,12h1v1h-1ZM4,13h1v1h-1ZM28,13h1v1h-1ZM4,14h1v1h-1ZM28,14h1v1h-1ZM5,15h2v1h-2ZM26,15h2v1h-2ZM5,16h2v1h-2ZM26,16h2v1h-2Z"/><path fill="#ffcd75" d="M16,4h1v1h-1ZM17,5h1v1h-1ZM8,6h1v1h-1ZM24,6h1v1h-1ZM9,7h1v1h-1ZM25,7h1v1h-1ZM12,8h1v1h-1ZM20,8h1v1h-1ZM13,9h1v1h-1ZM21,9h1v1h-1ZM6,10h1v1h-1ZM26,10h1v1h-1ZM7,11h1v1h-1ZM27,11h1v1h-1ZM15,15h2v1h-2Z"/><path fill="#3b5dc9" d="M17,4h1v1h-1ZM16,5h1v1h-1ZM9,6h1v1h-1ZM25,6h1v1h-1ZM8,7h1v1h-1ZM24,7h1v1h-1ZM13,8h1v1h-1ZM21,8h1v1h-1ZM12,9h1v1h-1ZM20,9h1v1h-1ZM7,10h1v1h-1ZM15,10h2v1h-2ZM27,10h1v1h-1ZM6,11h1v1h-1ZM14,11h1v1h-1ZM17,11h1v1h-1ZM26,11h1v1h-1ZM13,12h6v1h-6ZM12,13h1v1h-1ZM15,13h2v1h-2ZM19,13h1v1h-1ZM12,14h1v1h-1ZM15,14h2v1h-2ZM19,14h1v1h-1ZM13,15h2v1h-2ZM17,15h2v1h-2ZM13,16h6v1h-6ZM12,17h8v1h-8ZM12,18h8v1h-8ZM12,19h2v1h-2ZM18,19h2v1h-2ZM12,20h2v1h-2ZM18,20h2v1h-2ZM12,21h2v1h-2ZM18,21h2v1h-2ZM12,22h2v1h-2ZM18,22h2v1h-2ZM13,23h6v1h-6Z"/><path fill="#a7f070" d="M23,7h1v1h-1ZM7,9h1v1h-1ZM25,9h1v1h-1ZM5,10h1v1h-1ZM3,15h2v1h-2ZM28,15h2v1h-2Z"/><path fill="#f4f4f4" d="M13,13h2v1h-2ZM17,13h2v1h-2ZM13,14h1v1h-1ZM18,14h1v1h-1Z"/><path fill="#1a1c2c" d="M14,14h1v1h-1ZM17,14h1v1h-1Z"/><path fill="#ff9eb7" d="M12,15h1v1h-1ZM19,15h1v1h-1Z"/><path fill="#29366f" d="M14,19h4v1h-4ZM14,20h4v1h-4ZM14,21h4v1h-4ZM14,22h4v1h-4Z"/><path fill="#ef7d57" d="M14,24h1v1h-1ZM17,24h1v1h-1ZM14,25h1v1h-1ZM17,25h1v1h-1ZM13,26h6v1h-6Z"/></svg>