<svg xmlns="http://www.w3.org/2000/svg" viewBox="0 0 32 32" shape-rendering="crispEdges"><path fill="#38b764" d="M17,3h2v1h-2zM16,4h4v1h-4zM16,5h4v1h-4z"/><path fill="#8b5e34" d="M15,5h1v1h-1zM15,6h1v1h-1z"/><path fill="#ff9eb7" d="M12,8h3v1h-3zM10,9h6v1h-6zM9,10h7v1h-7zM8,11h8v1h-8zM7,12h9v1h-9zM6,13h10v1h-10zM6,14h10v1h-10zM6,15h10v1h-10zM6,16h4v1h-4zM11,16h5v1h-5zM5,17h6v1h-6zM12,17h4v1h-4zM6,18h4v1h-4zM11,18h3v1h-3zM6,19h2v1h-2zM11,19h5v1h-5zM6,20h2v1h-2zM11,20h5v1h-5zM6,21h10v1h-10zM7,22h9v1h-9zM8,23h8v1h-8zM9,24h7v1h-7zM10,25h6v1h-6zM12,26h4v1h-4z"/><path fill="#ef7d57" d="M17,8h4v1h-4zM16,9h7v1h-7zM16,10h8v1h-8zM16,11h9v1h-9zM16,12h10v1h-10zM16,13h11v1h-11zM16,14h11v1h-11zM16,15h11v1h-11zM16,16h5v1h-5zM22,16h5v1h-5zM16,17h4v1h-4zM21,17h6v1h-6zM16,18h5v1h-5zM22,18h5v1h-5zM16,19h4v1h-4zM23,19h4v1h-4zM16,20h4v1h-4zM23,20h4v1h-4zM16,21h11v1h-11zM16,22h10v1h-10zM16,23h9v1h-9zM16,24h8v1h-8zM16,25h7v1h-7zM16,26h5v1h-5zM16,27h1v1h-1z"/><path fill="#1a1c2c" d="M10,16h1v1h-1zM21,16h1v1h-1zM11,17h1v1h-1zM20,17h1v1h-1zM10,18h1v1h-1zM14,18h2v1h-2zM21,18h1v1h-1z"/><path fill="#b13e53" d="M8,19h3v1h-3zM20,19h3v1h-3zM8,20h3v1h-3zM20,20h3v1h-3z"/></svg>