<svg xmlns="http://www.w3.org/2000/svg" viewBox="0 0 32 32" shape-rendering="crispEdges"><path fill="#f4f4f4" d="M15,6h1v1h-1zM12,7h7v1h-7zM11,8h9v1h-9zM11,9h9v1h-9zM11,10h9v1h-9zM10,11h3v1h-3zM12,11h7v1h-7zM18,11h3v1h-3zM6,12h3v1h-3zM11,12h9v1h-9zM22,12h3v1h-3zM3,13h1v1h-1zM5,13h4v1h-4zM11,13h9v1h-9zM22,13h4v1h-4zM27,13h1v1h-1zM4,14h5v1h-5zM11,14h9v1h-9zM22,14h5v1h-5zM7,15h1v1h-1zM12,15h2v1h-2zM13,15h2v1h-2zM14,15h2v1h-2zM15,15h1v1h-1zM15,15h2v1h-2zM16,15h3v1h-3zM23,15h1v1h-1zM12,16h2v1h-2zM13,16h2v1h-2zM14,16h2v1h-2zM15,16h1v1h-1zM15,16h2v1h-2zM16,16h3v1h-3zM10,17h4v1h-4zM13,17h2v1h-2zM14,17h2v1h-2zM15,17h2v1h-2zM16,17h5v1h-5zM10,18h11v1h-11zM9,19h13v1h-13zM10,20h11v1h-11zM10,21h11v1h-11zM12,22h7v1h-7zM11,23h2v1h-2zM15,23h1v1h-1zM17,23h2v1h-2zM11,24h2v1h-2zM17,24h2v1h-2zM11,25h2v1h-2zM17,25h2v1h-2zM11,26h2v1h-2zM17,26h2v1h-2z"/><path fill="#94b0c2" d="M3,14h1v1h-1zM27,14h1v1h-1zM4,15h3v1h-3zM24,15h3v1h-3z"/><path fill="#b13e53" d="M11,6h1v1h-1zM10,7h1v1h-1z"/><path fill="#ef7d57" d="M12,6h1v1h-1zM11,7h1v1h-1z"/><path fill="#ffcd75" d="M4,3h1v1h-1zM28,3h1v1h-1zM2,5h1v1h-1zM13,6h1v1h-1zM27,6h1v1h-1zM12,7h1v1h-1zM29,8h1v1h-1zM1,10h1v1h-1zM11,27h2v1h-2zM17,27h2v1h-2z"/><path fill="#38b764" d="M14,6h1v1h-1zM13,7h1v1h-1z"/><path fill="#3b5dc9" d="M15,6h1v1h-1zM14,7h1v1h-1z"/><path fill="#5d275d" d="M16,6h1v1h-1zM15,7h1v1h-1z"/><path fill="#1a1c2c" d="M11,9h1v1h-1zM19,9h1v1h-1zM12,10h1v1h-1zM18,10h1v1h-1zM11,11h3v1h-3zM17,11h3v1h-3zM12,12h1v1h-1zM18,12h1v1h-1z"/><path fill="#ff9eb7" d="M10,13h2v1h-2zM19,13h2v1h-2z"/></svg>