<svg xmlns="http://www.w3.org/2000/svg" viewBox="0 0 32 32" shape-rendering="crispEdges"><path fill="#1a1c2c" d="M16,2h1v1h-1zM15,3h3v1h-3zM16,4h1v1h-1zM12,5h9v1h-9zM11,6h11v1h-11zM10,7h6v1h-6zM17,7h6v1h-6zM10,8h2v1h-2zM13,8h2v1h-2zM18,8h5v1h-5zM9,9h6v1h-6zM17,9h7v1h-7zM10,10h1v1h-1zM13,10h2v1h-2zM17,10h3v1h-3zM22,10h1v1h-1zM10,11h3v1h-3zM20,11h3v1h-3zM11,12h3v1h-3zM19,12h3v1h-3zM12,13h1v1h-1zM20,13h1v1h-1zM8,15h2v1h-2zM22,15h2v1h-2zM7,16h4v1h-4zM22,16h3v1h-3zM7,17h4v1h-4zM22,17h3v1h-3zM8,18h2v1h-2zM22,18h2v1h-2zM8,19h3v1h-3zM22,19h2v1h-2zM8,20h3v1h-3zM22,20h2v1h-2zM10,21h1v1h-1zM22,21h1v1h-1zM10,22h2v1h-2zM21,22h2v1h-2zM11,23h2v1h-2zM20,23h2v1h-2zM12,24h2v1h-2zM19,24h2v1h-2zM13,25h3v1h-3zM17,25h3v1h-3zM16,26h1v1h-1z"/><path fill="#f4f4f4" d="M16,7h1v1h-1zM12,8h1v1h-1zM15,8h3v1h-3zM15,9h2v1h-2zM15,10h2v1h-2zM13,11h2v1h-2zM18,11h2v1h-2zM14,12h2v1h-2zM17,12h2v1h-2zM16,15h1v1h-1zM14,16h5v1h-5zM13,17h7v1h-7zM13,18h7v1h-7zM13,19h7v1h-7zM12,20h9v1h-9zM13,21h7v1h-7zM13,22h7v1h-7zM13,23h7v1h-7zM14,24h5v1h-5zM16,25h1v1h-1z"/><path fill="#ff9eb7" d="M11,10h2v1h-2zM20,10h2v1h-2z"/><path fill="#ffcd75" d="M15,11h3v1h-3z"/><path fill="#333c57" d="M16,12h1v1h-1zM13,13h7v1h-7zM12,14h9v1h-9zM11,15h5v1h-5zM17,15h5v1h-5zM11,16h3v1h-3zM19,16h3v1h-3zM11,17h2v1h-2zM20,17h2v1h-2zM10,18h3v1h-3zM20,18h2v1h-2zM11,19h2v1h-2zM20,19h2v1h-2zM11,20h1v1h-1zM21,20h1v1h-1zM11,21h2v1h-2zM20,21h2v1h-2zM12,22h1v1h-1zM20,22h1v1h-1z"/><path fill="#ef7d57" d="M12,26h3v1h-3zM18,26h3v1h-3zM11,27h4v1h-4zM18,27h4v1h-4z"/></svg>