<svg xmlns="http://www.w3.org/2000/svg" viewBox="0 0 32 32" shape-rendering="crispEdges"><path fill="#ef7d57" d="M15,7h1v1h-1zM13,8h1v1h-1zM17,8h1v1h-1zM15,10h1v1h-1zM12,11h7v1h-7zM11,12h9v1h-9zM10,13h11v1h-11zM9,14h13v1h-13zM5,15h2v1h-2zM9,15h13v1h-13zM24,15h2v1h-2zM9,16h13v1h-13zM8,17h15v1h-15zM9,18h13v1h-13zM9,19h13v1h-13zM9,20h13v1h-13zM10,21h11v1h-11zM11,22h9v1h-9zM12,23h7v1h-7zM13,24h1v1h-1zM15,24h1v1h-1zM17,24h1v1h-1zM12,25h1v1h-1zM14,25h3v1h-3zM18,25h1v1h-1z"/><path fill="#ffcd75" d="M15,5h1v1h-1zM14,7h1v1h-1zM16,7h1v1h-1zM5,14h1v1h-1zM7,14h1v1h-1zM23,14h1v1h-1zM25,14h1v1h-1zM15,15h1v1h-1zM13,16h5v1h-5zM12,17h3v1h-3zM14,17h2v1h-2zM15,17h4v1h-4zM12,18h7v1h-7zM11,19h9v1h-9zM12,20h7v1h-7zM12,21h7v1h-7zM13,22h5v1h-5zM15,23h1v1h-1zM14,26h1v1h-1zM16,26h1v1h-1zM15,27h1v1h-1z"/><path fill="#b13e53" d="M15,6h1v1h-1zM14,8h1v1h-1zM16,8h1v1h-1zM15,26h1v1h-1z"/><path fill="#1a1c2c" d="M12,12h1v1h-1zM18,12h1v1h-1zM11,13h3v1h-3zM17,13h3v1h-3zM10,14h5v1h-5zM16,14h5v1h-5zM11,15h3v1h-3zM17,15h3v1h-3zM12,16h1v1h-1zM18,16h1v1h-1z"/><path fill="#f4f4f4" d="M11,13h2v1h-2zM17,13h2v1h-2z"/><path fill="#ff9eb7" d="M10,17h2v1h-2zM20,17h2v1h-2z"/></svg>