<svg xmlns="http://www.w3.org/2000/svg" width="32" height="32" viewBox="0 0 32 32" shape-rendering="crispEdges">
<path fill="#ffcd75" d="M13 3h1v1h-1zM18 3h1v1h-1zM15 4h2v1h-2zM14 5h1v1h-1zM17 5h1v1h-1zM15 6h2v1h-2zM15 8h1v1h-1zM1 13h1v1h-1zM30 13h1v1h-1zM0 14h11v1h-11zM15 14h2v1h-2zM21 14h11v1h-11zM1 15h8v1h-8zM23 15h8v1h-8zM1 16h1v1h-1zM30 16h1v1h-1zM9 20h14v1h-14zM14 22h4v1h-4zM4 23h5v1h-5zM23 23h5v1h-5zM15 25h2v1h-2z"/>
<path fill="#ef7d57" d="M13 4h1v1h-1zM18 4h1v1h-1zM15 5h2v1h-2zM15 7h2v1h-2zM16 8h1v1h-1zM15 9h2v1h-2zM15 11h2v1h-2zM4 12h10v1h-10zM18 12h10v1h-10zM2 13h11v1h-11zM19 13h11v1h-11zM0 15h1v1h-1zM31 15h1v1h-1zM11 18h10v1h-10zM10 19h12v1h-12zM13 21h6v1h-6zM5 22h5v1h-5zM22 22h5v1h-5zM15 24h2v1h-2z"/>
<path fill="#b13e53" d="M14 6h1v1h-1zM17 6h1v1h-1zM14 7h1v1h-1zM17 7h1v1h-1zM14 9h1v1h-1zM17 9h1v1h-1zM10 10h12v1h-12zM7 11h8v1h-8zM17 11h8v1h-8zM14 12h1v1h-1zM17 12h1v1h-1zM14 13h1v1h-1zM17 13h1v1h-1zM14 14h1v1h-1zM17 14h1v1h-1zM14 15h4v1h-4zM2 16h5v1h-5zM13 16h6v1h-6zM25 16h5v1h-5zM12 17h8v1h-8zM7 21h4v1h-4zM21 21h4v1h-4zM14 23h4v1h-4z"/>
<path fill="#1a1c2c" d="M14 8h1v1h-1zM17 8h1v1h-1z"/>
<path fill="#f4f4f4" d="M15 12h2v1h-2zM15 13h2v1h-2z"/>
</svg>