<svg xmlns="http://www.w3.org/2000/svg" viewBox="0 0 32 32" shape-rendering="crispEdges"><path fill="#41a6f6" d="M15,1h2v1h-2zM15,2h1v1h-1zM15,3h1v1h-1z"/><path fill="#a7f070" d="M27,1h2v1h-2zM27,2h1v1h-1zM27,3h1v1h-1z"/><path fill="#b13e53" d="M8,2h2v1h-2zM8,3h1v1h-1zM8,4h1v1h-1z"/><path fill="#ffcd75" d="M22,3h2v1h-2zM22,4h1v1h-1zM22,5h1v1h-1z"/><path fill="#1a1c2c" d="M2,6h28v1h-28zM2,7h1v1h-1zM29,7h1v1h-1zM2,8h28v1h-28zM7,9h2v1h-2zM10,9h2v1h-2zM16,9h2v1h-2zM19,9h2v1h-2zM22,9h2v1h-2zM7,10h2v1h-2zM10,10h2v1h-2zM16,10h2v1h-2zM19,10h2v1h-2zM22,10h2v1h-2zM7,11h2v1h-2zM10,11h2v1h-2zM16,11h2v1h-2zM19,11h2v1h-2zM22,11h2v1h-2zM7,12h2v1h-2zM10,12h2v1h-2zM16,12h2v1h-2zM19,12h2v1h-2zM22,12h2v1h-2zM7,13h2v1h-2zM10,13h2v1h-2zM16,13h2v1h-2zM19,13h2v1h-2zM22,13h2v1h-2zM7,14h2v1h-2zM10,14h2v1h-2zM16,14h2v1h-2zM19,14h2v1h-2zM22,14h2v1h-2zM7,15h2v1h-2zM10,15h2v1h-2zM16,15h2v1h-2zM19,15h2v1h-2zM22,15h2v1h-2zM7,16h2v1h-2zM10,16h2v1h-2zM16,16h2v1h-2zM19,16h2v1h-2zM22,16h2v1h-2zM7,17h2v1h-2zM10,17h2v1h-2zM16,17h2v1h-2zM19,17h2v1h-2zM22,17h2v1h-2zM7,18h2v1h-2zM10,18h2v1h-2zM16,18h2v1h-2zM19,18h2v1h-2zM22,18h2v1h-2zM14,21h1v1h-1zM16,21h1v1h-1zM15,23h1v1h-1z"/><path fill="#333c57" d="M3,7h26v1h-26zM5,27h21v1h-21z"/><path fill="#94b0c2" d="M5,9h1v1h-1zM14,9h1v1h-1zM5,10h1v1h-1zM14,10h1v1h-1zM5,11h1v1h-1zM14,11h1v1h-1zM5,12h1v1h-1zM14,12h1v1h-1zM5,13h1v1h-1zM14,13h1v1h-1zM5,14h1v1h-1zM14,14h1v1h-1zM5,15h1v1h-1zM14,15h1v1h-1zM5,16h1v1h-1zM14,16h1v1h-1zM5,17h1v1h-1zM14,17h1v1h-1zM5,18h1v1h-1zM14,18h1v1h-1zM5,19h1v1h-1zM8,19h1v1h-1zM11,19h1v1h-1zM14,19h1v1h-1zM17,19h1v1h-1zM20,19h1v1h-1zM23,19h1v1h-1zM5,20h1v1h-1zM8,20h1v1h-1zM11,20h1v1h-1zM14,20h1v1h-1zM17,20h1v1h-1zM20,20h1v1h-1zM23,20h1v1h-1zM5,21h1v1h-1zM8,21h1v1h-1zM11,21h1v1h-1zM17,21h1v1h-1zM20,21h1v1h-1zM23,21h1v1h-1zM5,22h1v1h-1zM8,22h1v1h-1zM11,22h1v1h-1zM14,22h1v1h-1zM20,22h1v1h-1zM23,22h1v1h-1zM5,23h1v1h-1zM8,23h1v1h-1zM11,23h1v1h-1zM14,23h1v1h-1zM17,23h1v1h-1zM20,23h1v1h-1zM23,23h1v1h-1zM5,24h1v1h-1zM8,24h1v1h-1zM11,24h1v1h-1zM14,24h1v1h-1zM17,24h1v1h-1zM20,24h1v1h-1zM23,24h1v1h-1zM5,25h1v1h-1zM8,25h1v1h-1zM11,25h1v1h-1zM14,25h1v1h-1zM17,25h1v1h-1zM20,25h1v1h-1zM23,25h1v1h-1zM5,26h1v1h-1zM8,26h1v1h-1zM11,26h1v1h-1zM14,26h1v1h-1zM17,26h1v1h-1zM20,26h1v1h-1zM23,26h1v1h-1z"/><path fill="#f4f4f4" d="M6,9h1v1h-1zM9,9h1v1h-1zM12,9h2v1h-2zM15,9h1v1h-1zM18,9h1v1h-1zM21,9h1v1h-1zM24,9h2v1h-2zM6,10h1v1h-1zM9,10h1v1h-1zM12,10h2v1h-2zM15,10h1v1h-1zM18,10h1v1h-1zM21,10h1v1h-1zM24,10h2v1h-2zM6,11h1v1h-1zM9,11h1v1h-1zM12,11h2v1h-2zM15,11h1v1h-1zM18,11h1v1h-1zM21,11h1v1h-1zM24,11h2v1h-2zM6,12h1v1h-1zM9,12h1v1h-1zM12,12h2v1h-2zM15,12h1v1h-1zM18,12h1v1h-1zM21,12h1v1h-1zM24,12h2v1h-2zM6,13h1v1h-1zM9,13h1v1h-1zM12,13h2v1h-2zM15,13h1v1h-1zM18,13h1v1h-1zM21,13h1v1h-1zM24,13h2v1h-2zM6,14h1v1h-1zM9,14h1v1h-1zM12,14h2v1h-2zM15,14h1v1h-1zM18,14h1v1h-1zM21,14h1v1h-1zM24,14h2v1h-2zM6,15h1v1h-1zM9,15h1v1h-1zM12,15h2v1h-2zM15,15h1v1h-1zM18,15h1v1h-1zM21,15h1v1h-1zM24,15h2v1h-2zM6,16h1v1h-1zM9,16h1v1h-1zM12,16h2v1h-2zM15,16h1v1h-1zM18,16h1v1h-1zM21,16h1v1h-1zM24,16h2v1h-2zM6,17h1v1h-1zM9,17h1v1h-1zM12,17h2v1h-2zM15,17h1v1h-1zM18,17h1v1h-1zM21,17h1v1h-1zM24,17h2v1h-2zM6,18h1v1h-1zM9,18h1v1h-1zM12,18h2v1h-2zM15,18h1v1h-1zM18,18h1v1h-1zM21,18h1v1h-1zM24,18h2v1h-2zM6,19h2v1h-2zM9,19h2v1h-2zM12,19h2v1h-2zM15,19h2v1h-2zM18,19h2v1h-2zM21,19h2v1h-2zM24,19h2v1h-2zM6,20h2v1h-2zM9,20h2v1h-2zM12,20h2v1h-2zM15,20h2v1h-2zM18,20h2v1h-2zM21,20h2v1h-2zM24,20h2v1h-2zM6,21h2v1h-2zM9,21h2v1h-2zM12,21h2v1h-2zM15,21h1v1h-1zM18,21h2v1h-2zM21,21h2v1h-2zM24,21h2v1h-2zM6,22h2v1h-2zM9,22h2v1h-2zM12,22h1v1h-1zM15,22h2v1h-2zM18,22h2v1h-2zM21,22h2v1h-2zM24,22h2v1h-2zM6,23h2v1h-2zM9,23h2v1h-2zM12,23h2v1h-2zM16,23h1v1h-1zM18,23h2v1h-2zM21,23h2v1h-2zM24,23h2v1h-2zM6,24h2v1h-2zM9,24h2v1h-2zM12,24h2v1h-2zM15,24h2v1h-2zM18,24h2v1h-2zM21,24h2v1h-2zM24,24h2v1h-2zM6,25h2v1h-2zM9,25h2v1h-2zM12,25h2v1h-2zM15,25h2v1h-2zM18,25h2v1h-2zM21,25h2v1h-2zM24,25h2v1h-2zM6,26h2v1h-2zM9,26h2v1h-2zM12,26h2v1h-2zM15,26h2v1h-2zM18,26h2v1h-2zM21,26h2v1h-2zM24,26h2v1h-2z"/><path fill="#ff9eb7" d="M13,22h1v1h-1zM17,22h1v1h-1z"/></svg>