<svg xmlns="http://www.w3.org/2000/svg" viewBox="0 0 32 32" shape-rendering="crispEdges"><path fill="#8b5e34" d="M15,0h1v1h-1ZM15,1h1v1h-1ZM15,2h1v1h-1ZM15,3h1v1h-1Z"/><path fill="#73eff7" d="M4,3h1v1h-1ZM5,11h5v1h-5ZM5,12h2v1h-2ZM8,12h3v1h-3ZM12,12h1v1h-1ZM16,12h1v1h-1ZM20,12h1v1h-1ZM5,13h1v1h-1ZM7,13h3v1h-3ZM5,14h5v1h-5ZM5,15h5v1h-5ZM5,16h5v1h-5ZM3,22h1v1h-1ZM12,29h2v1h-2Z"/><path fill="#b13e53" d="M27,3h1v1h-1ZM13,4h6v1h-6ZM13,5h6v1h-6ZM2,6h1v1h-1ZM13,6h6v1h-6ZM13,7h6v1h-6ZM10,8h1v1h-1ZM12,8h1v1h-1ZM14,8h1v1h-1ZM16,8h1v1h-1ZM18,8h1v1h-1ZM20,8h1v1h-1ZM10,18h1v1h-1ZM12,18h1v1h-1ZM14,18h1v1h-1ZM16,18h1v1h-1ZM18,18h1v1h-1ZM20,18h1v1h-1ZM8,28h2v1h-2Z"/><path fill="#ffcd75" d="M28,5h1v1h-1ZM11,8h1v1h-1ZM13,8h1v1h-1ZM15,8h1v1h-1ZM17,8h1v1h-1ZM19,8h1v1h-1ZM21,8h1v1h-1ZM10,9h12v1h-12ZM10,10h12v1h-12ZM10,11h12v1h-12ZM11,12h1v1h-1ZM15,12h1v1h-1ZM19,12h1v1h-1ZM21,12h1v1h-1ZM10,13h3v1h-3ZM15,13h2v1h-2ZM19,13h3v1h-3ZM13,14h1v1h-1ZM15,14h1v1h-1ZM17,14h1v1h-1ZM21,14h1v1h-1ZM10,15h12v1h-12ZM11,16h1v1h-1ZM13,16h1v1h-1ZM15,16h1v1h-1ZM19,16h1v1h-1ZM21,16h1v1h-1ZM10,17h5v1h-5ZM17,17h5v1h-5ZM11,18h1v1h-1ZM13,18h1v1h-1ZM15,18h1v1h-1ZM17,18h1v1h-1ZM19,18h1v1h-1ZM21,18h1v1h-1ZM10,19h12v1h-12ZM16,28h2v1h-2Z"/><path fill="#ff9eb7" d="M29,8h1v1h-1ZM22,11h5v1h-5ZM22,12h3v1h-3ZM26,12h1v1h-1ZM22,13h2v1h-2ZM25,13h2v1h-2ZM10,14h3v1h-3ZM14,14h1v1h-1ZM16,14h1v1h-1ZM18,14h3v1h-3ZM22,14h5v1h-5ZM22,15h5v1h-5ZM22,16h5v1h-5ZM20,29h2v1h-2Z"/><path fill="#f4f4f4" d="M7,12h1v1h-1ZM13,12h1v1h-1ZM17,12h1v1h-1ZM25,12h1v1h-1ZM6,13h1v1h-1ZM24,13h1v1h-1Z"/><path fill="#1a1c2c" d="M14,12h1v1h-1ZM18,12h1v1h-1ZM13,13h2v1h-2ZM17,13h2v1h-2ZM14,16h1v1h-1ZM17,16h1v1h-1ZM15,17h2v1h-2Z"/><path fill="#a7f070" d="M1,15h1v1h-1ZM10,16h1v1h-1ZM12,16h1v1h-1ZM16,16h1v1h-1ZM18,16h1v1h-1ZM20,16h1v1h-1ZM7,20h5v1h-5ZM7,21h5v1h-5ZM7,22h5v1h-5ZM7,23h5v1h-5ZM7,24h5v1h-5ZM24,28h2v1h-2Z"/><path fill="#ef7d57" d="M30,18h1v1h-1ZM20,20h5v1h-5ZM20,21h5v1h-5ZM20,22h5v1h-5ZM20,23h5v1h-5ZM20,24h5v1h-5ZM14,30h2v1h-2Z"/><path fill="#38b764" d="M18,30h2v1h-2Z"/></svg>