<svg xmlns="http://www.w3.org/2000/svg" viewBox="0 0 32 32" shape-rendering="crispEdges"><path fill="#38b764" d="M15,0h2v1h-2zM15,1h2v1h-2zM13,2h1v1h-1zM15,2h2v1h-2zM18,2h1v1h-1zM11,3h1v1h-1zM13,3h1v1h-1zM18,3h1v1h-1zM20,3h1v1h-1zM11,4h10v1h-10z"/><path fill="#a7f070" d="M14,1h1v1h-1zM17,1h1v1h-1zM12,2h1v1h-1zM14,2h1v1h-1zM17,2h1v1h-1zM19,2h1v1h-1zM12,3h1v1h-1zM19,3h1v1h-1zM12,5h8v1h-8z"/><path fill="#ffcd75" d="M11,6h10v1h-10zM10,7h1v1h-1zM12,7h2v1h-2zM15,7h2v1h-2zM18,7h2v1h-2zM21,7h1v1h-1zM11,8h2v1h-2zM14,8h2v1h-2zM17,8h2v1h-2zM20,8h2v1h-2zM10,9h2v1h-2zM13,9h2v1h-2zM16,9h2v1h-2zM19,9h2v1h-2zM22,9h1v1h-1zM9,10h2v1h-2zM12,10h2v1h-2zM15,10h2v1h-2zM18,10h2v1h-2zM21,10h2v1h-2zM8,11h2v1h-2zM11,11h2v1h-2zM14,11h2v1h-2zM17,11h2v1h-2zM20,11h2v1h-2zM23,11h1v1h-1zM7,12h2v1h-2zM10,12h2v1h-2zM13,12h2v1h-2zM16,12h2v1h-2zM19,12h2v1h-2zM22,12h3v1h-3zM7,13h1v1h-1zM9,13h2v1h-2zM12,13h2v1h-2zM15,13h2v1h-2zM18,13h2v1h-2zM21,13h2v1h-2zM24,13h1v1h-1zM6,14h4v1h-4zM11,14h2v1h-2zM14,14h2v1h-2zM17,14h2v1h-2zM20,14h2v1h-2zM23,14h3v1h-3zM6,15h3v1h-3zM10,15h2v1h-2zM13,15h2v1h-2zM16,15h2v1h-2zM19,15h2v1h-2zM22,15h4v1h-4zM6,16h2v1h-2zM9,16h2v1h-2zM21,16h2v1h-2zM24,16h2v1h-2zM6,17h4v1h-4zM15,17h1v1h-1zM21,17h1v1h-1zM23,17h3v1h-3zM6,18h3v1h-3zM10,18h2v1h-2zM13,18h2v1h-2zM16,18h2v1h-2zM19,18h2v1h-2zM22,18h4v1h-4zM6,19h2v1h-2zM9,19h1v1h-1zM12,19h2v1h-2zM15,19h2v1h-2zM18,19h2v1h-2zM22,19h1v1h-1zM24,19h2v1h-2zM6,20h4v1h-4zM11,20h2v1h-2zM14,20h2v1h-2zM17,20h1v1h-1zM20,20h2v1h-2zM23,20h3v1h-3zM7,21h2v1h-2zM10,21h2v1h-2zM13,21h1v1h-1zM19,21h2v1h-2zM22,21h3v1h-3zM7,22h1v1h-1zM9,22h2v1h-2zM12,22h2v1h-2zM15,22h2v1h-2zM18,22h2v1h-2zM21,22h2v1h-2zM24,22h1v1h-1zM8,23h2v1h-2zM11,23h2v1h-2zM14,23h2v1h-2zM17,23h2v1h-2zM20,23h2v1h-2zM23,23h1v1h-1zM8,24h1v1h-1zM10,24h2v1h-2zM13,24h2v1h-2zM16,24h2v1h-2zM19,24h2v1h-2zM22,24h2v1h-2zM9,25h2v1h-2zM12,25h2v1h-2zM15,25h2v1h-2zM18,25h2v1h-2zM21,25h2v1h-2zM11,26h2v1h-2zM14,26h2v1h-2zM17,26h2v1h-2zM20,26h2v1h-2zM10,27h2v1h-2zM13,27h2v1h-2zM16,27h2v1h-2zM19,27h2v1h-2zM11,28h10v1h-10z"/><path fill="#ef7d57" d="M11,7h1v1h-1zM14,7h1v1h-1zM17,7h1v1h-1zM20,7h1v1h-1zM10,8h1v1h-1zM13,8h1v1h-1zM16,8h1v1h-1zM19,8h1v1h-1zM9,9h1v1h-1zM12,9h1v1h-1zM15,9h1v1h-1zM18,9h1v1h-1zM21,9h1v1h-1zM8,10h1v1h-1zM11,10h1v1h-1zM14,10h1v1h-1zM17,10h1v1h-1zM20,10h1v1h-1zM23,10h1v1h-1zM10,11h1v1h-1zM13,11h1v1h-1zM16,11h1v1h-1zM19,11h1v1h-1zM22,11h1v1h-1zM9,12h1v1h-1zM12,12h1v1h-1zM15,12h1v1h-1zM18,12h1v1h-1zM21,12h1v1h-1zM8,13h1v1h-1zM11,13h1v1h-1zM14,13h1v1h-1zM17,13h1v1h-1zM20,13h1v1h-1zM23,13h1v1h-1zM10,14h1v1h-1zM13,14h1v1h-1zM16,14h1v1h-1zM19,14h1v1h-1zM22,14h1v1h-1zM9,15h1v1h-1zM12,15h1v1h-1zM15,15h1v1h-1zM18,15h1v1h-1zM21,15h1v1h-1zM8,16h1v1h-1zM23,16h1v1h-1zM10,17h1v1h-1zM16,17h1v1h-1zM22,17h1v1h-1zM9,18h1v1h-1zM12,18h1v1h-1zM15,18h1v1h-1zM18,18h1v1h-1zM21,18h1v1h-1zM8,19h1v1h-1zM14,19h1v1h-1zM17,19h1v1h-1zM23,19h1v1h-1zM10,20h1v1h-1zM16,20h1v1h-1zM19,20h1v1h-1zM22,20h1v1h-1zM9,21h1v1h-1zM12,21h1v1h-1zM18,21h1v1h-1zM21,21h1v1h-1zM8,22h1v1h-1zM11,22h1v1h-1zM14,22h1v1h-1zM17,22h1v1h-1zM20,22h1v1h-1zM23,22h1v1h-1zM10,23h1v1h-1zM13,23h1v1h-1zM16,23h1v1h-1zM19,23h1v1h-1zM22,23h1v1h-1zM9,24h1v1h-1zM12,24h1v1h-1zM15,24h1v1h-1zM18,24h1v1h-1zM21,24h1v1h-1zM11,25h1v1h-1zM14,25h1v1h-1zM17,25h1v1h-1zM20,25h1v1h-1zM10,26h1v1h-1zM13,26h1v1h-1zM16,26h1v1h-1zM19,26h1v1h-1zM12,27h1v1h-1zM15,27h1v1h-1zM18,27h1v1h-1zM21,27h1v1h-1z"/><path fill="#1a1c2c" d="M11,16h1v1h-1zM13,16h5v1h-5zM19,16h2v1h-2zM11,17h4v1h-4zM17,17h4v1h-4zM13,20h1v1h-1zM18,20h1v1h-1zM14,21h4v1h-4z"/><path fill="#333c57" d="M12,16h1v1h-1zM18,16h1v1h-1z"/><path fill="#ff9eb7" d="M10,19h2v1h-2zM20,19h2v1h-2z"/></svg>