<svg xmlns="http://www.w3.org/2000/svg" width="32" height="32" viewBox="0 0 32 32" shape-rendering="crispEdges">
<path fill="#94b0c2" d="M28 4h1v1h-1zM27 5h1v1h-1zM29 5h1v1h-1zM28 6h1v1h-1zM28 8h2v1h-2zM20 10h1v1h-1zM18 11h1v1h-1zM17 13h1v1h-1z"/><path fill="#f4f4f4" d="M24 5h1v1h-1zM22 6h5v1h-5zM22 7h1v1h-1zM24 7h1v1h-1zM26 7h1v1h-1zM21 8h1v1h-1zM24 8h2v1h-2zM22 9h2v1h-2zM25 9h2v1h-2zM22 10h5v1h-5zM24 11h1v1h-1z"/><path fill="#b13e53" d="M10 6h1v1h-1zM7 7h7v1h-7zM6 8h9v1h-9zM5 9h11v1h-11zM5 10h3v1h-3zM9 10h3v1h-3zM13 10h3v1h-3zM5 11h11v1h-11zM4 12h2v1h-2zM8 12h5v1h-5zM15 12h2v1h-2zM5 13h4v1h-4zM11 13h5v1h-5zM5 14h11v1h-11zM5 15h11v1h-11zM6 16h9v1h-9zM7 17h7v1h-7zM10 18h1v1h-1z"/><path fill="#1a1c2c" d="M23 7h1v1h-1zM25 7h1v1h-1zM24 9h1v1h-1zM8 10h1v1h-1zM12 10h1v1h-1zM9 13h2v1h-2z"/><path fill="#ff9eb7" d="M22 8h2v1h-2zM26 8h2v1h-2zM6 12h2v1h-2zM13 12h2v1h-2z"/><path fill="#8b5e34" d="M9 19h3v1h-3zM9 20h3v1h-3zM9 21h3v1h-3zM9 22h3v1h-3zM9 23h3v1h-3z"/><path fill="#333c57" d="M9 24h3v1h-3z"/>
</svg>