<svg xmlns="http://www.w3.org/2000/svg" width="32" height="32" viewBox="0 0 32 32" shape-rendering="crispEdges">
<path fill="#1a1c2c" d="M11 3h10v1h-10zM10 4h5v1h-5zM16 4h1v1h-1zM18 4h4v1h-4zM9 5h7v1h-7zM17 5h6v1h-6zM8 6h16v1h-16zM11 9h3v1h-3zM8 10h6v1h-6zM19 10h2v1h-2zM11 11h3v1h-3zM20 11h1v1h-1zM14 13h4v1h-4zM11 27h4v1h-4zM17 27h4v1h-4zM11 28h4v1h-4zM17 28h4v1h-4zM11 29h4v1h-4zM17 29h4v1h-4z"/><path fill="#f4f4f4" d="M15 4h1v1h-1zM17 4h1v1h-1zM16 5h1v1h-1zM19 11h1v1h-1zM9 19h14v1h-14zM9 20h14v1h-14zM9 23h14v1h-14zM9 24h14v1h-14z"/><path fill="#ffecd2" d="M10 7h12v1h-12zM10 8h12v1h-12zM10 9h1v1h-1zM14 9h8v1h-8zM14 10h5v1h-5zM21 10h1v1h-1zM10 11h1v1h-1zM14 11h5v1h-5zM21 11h1v1h-1zM10 12h1v1h-1zM13 12h7v1h-7zM10 13h4v1h-4zM18 13h4v1h-4zM10 14h12v1h-12zM11 15h10v1h-10zM12 16h8v1h-8z"/><path fill="#ff9eb7" d="M11 12h2v1h-2zM20 12h2v1h-2z"/><path fill="#94b0c2" d="M25 12h1v1h-1zM25 13h1v1h-1z"/><path fill="#8b5e34" d="M24 14h3v1h-3z"/><path fill="#566c86" d="M25 15h1v1h-1zM25 16h1v1h-1zM25 17h1v1h-1zM25 18h1v1h-1zM25 19h1v1h-1zM25 20h1v1h-1zM25 21h1v1h-1z"/><path fill="#b13e53" d="M9 17h14v1h-14zM9 18h14v1h-14zM9 21h14v1h-14zM9 22h14v1h-14zM9 25h14v1h-14zM9 26h14v1h-14z"/>
</svg>