<svg xmlns="http://www.w3.org/2000/svg" viewBox="0 0 32 32" shape-rendering="crispEdges"><path fill="#b13e53" d="M15,4h1v1h-1zM16,4h1v1h-1zM15,5h1v1h-1zM16,5h1v1h-1zM14,6h1v1h-1zM17,6h1v1h-1zM13,7h1v1h-1zM18,7h1v1h-1zM12,8h1v1h-1zM19,8h1v1h-1zM11,9h1v1h-1zM20,9h1v1h-1zM10,10h1v1h-1zM13,10h1v1h-1zM14,10h1v1h-1zM21,10h1v1h-1zM9,11h1v1h-1zM13,11h1v1h-1zM14,11h1v1h-1zM22,11h1v1h-1zM8,12h1v1h-1zM23,12h1v1h-1zM7,13h1v1h-1zM17,13h1v1h-1zM18,13h1v1h-1zM24,13h1v1h-1zM6,14h1v1h-1zM18,14h1v1h-1zM25,14h1v1h-1zM6,15h1v1h-1zM25,15h1v1h-1zM5,16h1v1h-1zM11,16h1v1h-1zM12,16h1v1h-1zM26,16h1v1h-1zM4,17h1v1h-1zM11,17h1v1h-1zM12,17h1v1h-1zM27,17h1v1h-1zM3,18h1v1h-1zM28,18h1v1h-1zM2,19h1v1h-1zM29,19h1v1h-1zM1,20h1v1h-1zM30,20h1v1h-1z"/><path fill="#ffcd75" d="M15,6h1v1h-1zM16,6h1v1h-1zM14,7h1v1h-1zM15,7h1v1h-1zM16,7h1v1h-1zM17,7h1v1h-1zM13,8h1v1h-1zM14,8h1v1h-1zM15,8h1v1h-1zM18,8h1v1h-1zM12,9h1v1h-1zM13,9h1v1h-1zM14,9h1v1h-1zM16,9h1v1h-1zM17,9h1v1h-1zM18,9h1v1h-1zM19,9h1v1h-1zM11,10h1v1h-1zM12,10h1v1h-1zM15,10h1v1h-1zM16,10h1v1h-1zM17,10h1v1h-1zM20,10h1v1h-1zM10,11h1v1h-1zM11,11h1v1h-1zM12,11h1v1h-1zM15,11h1v1h-1zM16,11h1v1h-1zM17,11h1v1h-1zM19,11h1v1h-1zM20,11h1v1h-1zM21,11h1v1h-1zM9,12h1v1h-1zM10,12h1v1h-1zM11,12h1v1h-1zM14,12h1v1h-1zM16,12h1v1h-1zM17,12h1v1h-1zM19,12h1v1h-1zM20,12h1v1h-1zM21,12h1v1h-1zM22,12h1v1h-1zM8,13h1v1h-1zM9,13h1v1h-1zM10,13h1v1h-1zM13,13h1v1h-1zM14,13h1v1h-1zM15,13h1v1h-1zM16,13h1v1h-1zM21,13h1v1h-1zM22,13h1v1h-1zM23,13h1v1h-1zM7,14h1v1h-1zM8,14h1v1h-1zM9,14h1v1h-1zM10,14h1v1h-1zM11,14h1v1h-1zM12,14h1v1h-1zM13,14h1v1h-1zM16,14h1v1h-1zM19,14h1v1h-1zM20,14h1v1h-1zM21,14h1v1h-1zM22,14h1v1h-1zM23,14h1v1h-1zM24,14h1v1h-1zM7,15h1v1h-1zM8,15h1v1h-1zM9,15h1v1h-1zM11,15h1v1h-1zM12,15h1v1h-1zM14,15h1v1h-1zM17,15h1v1h-1zM18,15h1v1h-1zM20,15h1v1h-1zM21,15h1v1h-1zM22,15h1v1h-1zM23,15h1v1h-1zM24,15h1v1h-1zM6,16h1v1h-1zM7,16h1v1h-1zM8,16h1v1h-1zM9,16h1v1h-1zM10,16h1v1h-1zM13,16h1v1h-1zM14,16h1v1h-1zM15,16h1v1h-1zM16,16h1v1h-1zM17,16h1v1h-1zM18,16h1v1h-1zM19,16h1v1h-1zM20,16h1v1h-1zM21,16h1v1h-1zM22,16h1v1h-1zM23,16h1v1h-1zM24,16h1v1h-1zM25,16h1v1h-1zM5,17h1v1h-1zM6,17h1v1h-1zM7,17h1v1h-1zM8,17h1v1h-1zM9,17h1v1h-1zM10,17h1v1h-1zM15,17h1v1h-1zM16,17h1v1h-1zM17,17h1v1h-1zM18,17h1v1h-1zM20,17h1v1h-1zM21,17h1v1h-1zM22,17h1v1h-1zM23,17h1v1h-1zM24,17h1v1h-1zM25,17h1v1h-1zM26,17h1v1h-1zM4,18h1v1h-1zM5,18h1v1h-1zM6,18h1v1h-1zM8,18h1v1h-1zM9,18h1v1h-1zM11,18h1v1h-1zM12,18h1v1h-1zM14,18h1v1h-1zM15,18h1v1h-1zM17,18h1v1h-1zM18,18h1v1h-1zM20,18h1v1h-1zM21,18h1v1h-1zM23,18h1v1h-1zM24,18h1v1h-1zM25,18h1v1h-1zM26,18h1v1h-1zM27,18h1v1h-1zM3,19h1v1h-1zM4,19h1v1h-1zM5,19h1v1h-1zM6,19h1v1h-1zM7,19h1v1h-1zM8,19h1v1h-1zM9,19h1v1h-1zM10,19h1v1h-1zM11,19h1v1h-1zM12,19h1v1h-1zM13,19h1v1h-1zM14,19h1v1h-1zM15,19h1v1h-1zM16,19h1v1h-1zM17,19h1v1h-1zM18,19h1v1h-1zM19,19h1v1h-1zM20,19h1v1h-1zM21,19h1v1h-1zM22,19h1v1h-1zM23,19h1v1h-1zM24,19h1v1h-1zM25,19h1v1h-1zM26,19h1v1h-1zM27,19h1v1h-1zM28,19h1v1h-1zM2,20h1v1h-1zM3,20h1v1h-1zM4,20h1v1h-1zM5,20h1v1h-1zM6,20h1v1h-1zM7,20h1v1h-1zM8,20h1v1h-1zM9,20h1v1h-1zM10,20h1v1h-1zM11,20h1v1h-1zM12,20h1v1h-1zM13,20h1v1h-1zM14,20h1v1h-1zM15,20h1v1h-1zM16,20h1v1h-1zM17,20h1v1h-1zM18,20h1v1h-1zM19,20h1v1h-1zM20,20h1v1h-1zM21,20h1v1h-1zM22,20h1v1h-1zM23,20h1v1h-1zM24,20h1v1h-1zM25,20h1v1h-1zM26,20h1v1h-1zM27,20h1v1h-1zM28,20h1v1h-1zM29,20h1v1h-1zM16,24h1v1h-1zM16,25h1v1h-1zM16,26h1v1h-1z"/><path fill="#38b764" d="M16,8h1v1h-1zM17,8h1v1h-1zM15,14h1v1h-1zM19,17h1v1h-1z"/><path fill="#ffecd2" d="M15,9h1v1h-1zM18,10h1v1h-1zM19,10h1v1h-1zM12,12h1v1h-1zM15,12h1v1h-1zM10,15h1v1h-1zM13,15h1v1h-1zM19,15h1v1h-1zM13,17h1v1h-1zM14,17h1v1h-1zM7,18h1v1h-1zM10,18h1v1h-1zM16,18h1v1h-1zM19,18h1v1h-1zM22,18h1v1h-1zM16,27h1v1h-1z"/><path fill="#8b5e34" d="M18,11h1v1h-1zM13,18h1v1h-1zM0,23h1v1h-1zM1,23h1v1h-1zM2,23h1v1h-1zM3,23h1v1h-1zM4,23h1v1h-1zM5,23h1v1h-1zM6,23h1v1h-1zM7,23h1v1h-1zM8,23h1v1h-1zM9,23h1v1h-1zM10,23h1v1h-1zM11,23h1v1h-1zM12,23h1v1h-1zM13,23h1v1h-1zM14,23h1v1h-1zM15,23h1v1h-1zM16,23h1v1h-1zM17,23h1v1h-1zM18,23h1v1h-1zM19,23h1v1h-1zM20,23h1v1h-1zM21,23h1v1h-1zM22,23h1v1h-1zM23,23h1v1h-1zM24,23h1v1h-1zM25,23h1v1h-1zM26,23h1v1h-1zM27,23h1v1h-1zM28,23h1v1h-1zM29,23h1v1h-1zM30,23h1v1h-1zM31,23h1v1h-1z"/><path fill="#1a1c2c" d="M13,12h1v1h-1zM18,12h1v1h-1zM14,14h1v1h-1zM17,14h1v1h-1zM15,15h1v1h-1zM16,15h1v1h-1z"/><path fill="#ff9eb7" d="M11,13h1v1h-1zM12,13h1v1h-1zM19,13h1v1h-1zM20,13h1v1h-1z"/><path fill="#ef7d57" d="M0,21h1v1h-1zM1,21h1v1h-1zM2,21h1v1h-1zM3,21h1v1h-1zM4,21h1v1h-1zM5,21h1v1h-1zM6,21h1v1h-1zM7,21h1v1h-1zM8,21h1v1h-1zM9,21h1v1h-1zM10,21h1v1h-1zM11,21h1v1h-1zM12,21h1v1h-1zM13,21h1v1h-1zM14,21h1v1h-1zM15,21h1v1h-1zM16,21h1v1h-1zM17,21h1v1h-1zM18,21h1v1h-1zM19,21h1v1h-1zM20,21h1v1h-1zM21,21h1v1h-1zM22,21h1v1h-1zM23,21h1v1h-1zM24,21h1v1h-1zM25,21h1v1h-1zM26,21h1v1h-1zM27,21h1v1h-1zM28,21h1v1h-1zM29,21h1v1h-1zM30,21h1v1h-1zM31,21h1v1h-1zM0,22h1v1h-1zM1,22h1v1h-1zM2,22h1v1h-1zM3,22h1v1h-1zM4,22h1v1h-1zM5,22h1v1h-1zM6,22h1v1h-1zM7,22h1v1h-1zM8,22h1v1h-1zM9,22h1v1h-1zM10,22h1v1h-1zM11,22h1v1h-1zM12,22h1v1h-1zM13,22h1v1h-1zM14,22h1v1h-1zM15,22h1v1h-1zM16,22h1v1h-1zM17,22h1v1h-1zM18,22h1v1h-1zM19,22h1v1h-1zM20,22h1v1h-1zM21,22h1v1h-1zM22,22h1v1h-1zM23,22h1v1h-1zM24,22h1v1h-1zM25,22h1v1h-1zM26,22h1v1h-1zM27,22h1v1h-1zM28,22h1v1h-1zM29,22h1v1h-1zM30,22h1v1h-1zM31,22h1v1h-1z"/></svg>