<svg xmlns="http://www.w3.org/2000/svg" viewBox="0 0 32 32" shape-rendering="crispEdges"><path fill="#38b764" d="M15,7h1v1h-1ZM15,8h5v1h-5ZM15,9h6v1h-6ZM15,10h7v1h-7ZM15,11h8v1h-8ZM15,12h9v1h-9ZM15,13h9v1h-9ZM15,14h9v1h-9ZM15,15h9v1h-9ZM15,16h10v1h-10ZM15,17h9v1h-9ZM15,18h9v1h-9ZM15,19h9v1h-9ZM15,20h9v1h-9ZM15,21h8v1h-8ZM15,22h7v1h-7ZM15,23h6v1h-6ZM15,24h5v1h-5ZM15,25h1v1h-1Z"/><path fill="#257179" d="M11,8h4v1h-4ZM10,9h5v1h-5ZM9,10h6v1h-6ZM8,11h7v1h-7ZM7,12h8v1h-8ZM7,13h8v1h-8ZM7,14h8v1h-8ZM7,15h8v1h-8ZM6,16h9v1h-9ZM7,17h8v1h-8ZM7,18h8v1h-8ZM7,19h8v1h-8ZM7,20h8v1h-8ZM8,21h7v1h-7ZM9,22h6v1h-6ZM10,23h5v1h-5ZM11,24h4v1h-4Z"/><path fill="#333c57" d="M12,14h1v1h-1ZM17,14h1v1h-1ZM11,17h1v1h-1ZM18,18h1v1h-1ZM14,20h1v1h-1Z"/><path fill="#1a1c2c" d="M13,15h1v1h-1ZM17,15h1v1h-1ZM12,16h1v1h-1ZM14,16h1v1h-1ZM16,16h1v1h-1ZM18,16h1v1h-1ZM14,19h3v1h-3Z"/><path fill="#ff9eb7" d="M11,18h2v1h-2ZM19,18h2v1h-2Z"/><path fill="#ef7d57" d="M4,12h1v1h-1ZM3,13h1v1h-1ZM6,13h1v1h-1ZM5,14h1v1h-1ZM14,15h1v1h-1ZM16,15h1v1h-1ZM13,16h1v1h-1ZM15,16h1v1h-1ZM18,16h1v1h-1ZM20,16h1v1h-1ZM17,17h1v1h-1ZM19,17h1v1h-1ZM22,17h1v1h-1ZM24,17h1v1h-1ZM21,18h1v1h-1ZM23,18h1v1h-1ZM26,18h1v1h-1ZM25,19h1v1h-1ZM27,19h1v1h-1Z"/><path fill="#ffcd75" d="M4,3h1v1h-1ZM3,4h1v1h-1ZM5,4h1v1h-1ZM4,5h1v1h-1ZM27,7h1v1h-1ZM26,8h3v1h-3ZM3,12h1v1h-1ZM4,13h2v1h-2ZM6,14h1v1h-1ZM13,15h1v1h-1ZM15,15h1v1h-1ZM14,16h1v1h-1ZM16,16h2v1h-2ZM19,16h1v1h-1ZM18,17h1v1h-1ZM20,17h2v1h-2ZM23,17h1v1h-1ZM22,18h1v1h-1ZM24,18h2v1h-2ZM27,18h1v1h-1ZM26,19h1v1h-1Z"/><path fill="#f4f4f4" d="M4,4h1v1h-1Z"/></svg>