<svg xmlns="http://www.w3.org/2000/svg" viewBox="0 0 32 32" shape-rendering="crispEdges"><path fill="#ff9eb7" d="M11,2h10v1h-10ZM10,3h1v1h-1ZM13,3h9v1h-9ZM10,4h12v1h-12ZM10,5h12v1h-12ZM10,6h12v1h-12ZM10,7h2v1h-2ZM14,7h4v1h-4ZM20,7h2v1h-2ZM10,8h12v1h-12ZM10,9h1v1h-1ZM12,9h3v1h-3ZM17,9h3v1h-3ZM21,9h1v1h-1ZM10,10h4v1h-4ZM15,10h2v1h-2ZM18,10h4v1h-4ZM10,19h1v1h-1ZM10,20h1v1h-1Z"/><path fill="#f4f4f4" d="M11,3h2v1h-2ZM10,11h12v1h-12Z"/><path fill="#1a1c2c" d="M12,7h2v1h-2ZM18,7h2v1h-2ZM15,9h2v1h-2ZM14,10h1v1h-1ZM17,10h1v1h-1Z"/><path fill="#ffb3c8" d="M11,9h1v1h-1ZM20,9h1v1h-1Z"/><path fill="#ffecd2" d="M10,12h12v1h-12ZM10,13h12v1h-12ZM10,14h12v1h-12ZM10,15h12v1h-12ZM10,16h12v1h-12ZM10,17h12v1h-12ZM10,18h12v1h-12ZM11,19h11v1h-11ZM21,20h1v1h-1ZM21,21h1v1h-1Z"/><path fill="#8b5e34" d="M14,20h4v1h-4ZM14,21h4v1h-4ZM14,22h4v1h-4ZM14,23h4v1h-4ZM14,24h4v1h-4ZM14,25h4v1h-4ZM14,26h4v1h-4ZM15,27h2v1h-2Z"/></svg>