<svg xmlns="http://www.w3.org/2000/svg" width="16" height="16" viewBox="0 0 16 16" shape-rendering="crispEdges">
<!-- 土豆 -->
<path fill="#1a1c2c" d="M5 3h5v1h-5zM4 4h1v1h-1zM10 4h1v1h-1zM3 5h1v1h-1zM11 5h1v1h-1zM3 6h1v1h-1zM11 6h1v1h-1zM3 7h1v1h-1zM11 7h1v1h-1zM3 8h1v1h-1zM11 8h1v1h-1zM4 9h1v1h-1zM11 9h1v1h-1zM5 10h1v1h-1zM10 10h1v1h-1zM6 11h4v1h-4z"/>
<path fill="#d4a56a" d="M5 4h5v1h-5zM4 5h7v1h-7zM4 6h7v1h-7zM4 7h7v1h-7zM4 8h7v1h-7zM5 9h6v1h-6zM6 10h4v1h-4z"/>
<path fill="#a8775e" d="M9 7h2v1h-2zM9 8h2v1h-2zM9 9h2v1h-2zM8 10h2v1h-2z"/>
<path fill="#f4f4f4" d="M5 5h1v1h-1z"/>
<path fill="#ffcd75" d="M5 5h2v1h-2zM4 6h2v1h-2z"/>
<path fill="#6b3e2e" d="M7 6h1v1h-1zM5 8h1v1h-1zM8 9h1v1h-1z"/>
</svg>