<svg xmlns="http://www.w3.org/2000/svg" width="32" height="32" viewBox="0 0 32 32" shape-rendering="crispEdges">
<path fill="#ef7d57" d="M13 3h6v1h-6zM13 5h6v1h-6z"/><path fill="#ffcd75" d="M13 4h1v1h-1zM16 4h3v1h-3z"/><path fill="#f4f4f4" d="M14 4h2v1h-2zM9 14h1v1h-1zM9 15h1v1h-1zM9 16h1v1h-1zM9 17h1v1h-1zM9 18h1v1h-1zM9 19h1v1h-1zM9 20h1v1h-1zM15 20h1v1h-1zM9 21h1v1h-1zM9 22h1v1h-1zM13 22h1v1h-1zM9 23h1v1h-1zM17 23h1v1h-1zM9 24h1v1h-1zM9 25h1v1h-1z"/><path fill="#333c57" d="M13 6h1v1h-1zM18 6h1v1h-1zM13 7h1v1h-1zM18 7h1v1h-1zM13 8h1v1h-1zM18 8h1v1h-1zM13 9h1v1h-1zM18 9h1v1h-1zM13 10h1v1h-1zM18 10h1v1h-1zM11 11h2v1h-2zM19 11h2v1h-2zM9 12h2v1h-2zM21 12h2v1h-2zM8 13h1v1h-1zM23 13h1v1h-1zM8 14h1v1h-1zM22 14h2v1h-2zM8 15h1v1h-1zM22 15h2v1h-2zM8 16h1v1h-1zM22 16h2v1h-2zM8 17h1v1h-1zM22 17h2v1h-2zM8 18h1v1h-1zM22 18h2v1h-2zM8 19h1v1h-1zM22 19h2v1h-2zM8 20h1v1h-1zM22 20h2v1h-2zM8 21h1v1h-1zM22 21h2v1h-2zM8 22h1v1h-1zM22 22h2v1h-2zM8 23h1v1h-1zM22 23h2v1h-2zM8 24h1v1h-1zM22 24h2v1h-2zM8 25h1v1h-1zM22 25h2v1h-2zM8 26h16v1h-16z"/><path fill="#3b5dc9" d="M14 6h1v1h-1zM14 7h1v1h-1zM14 8h1v1h-1zM14 9h1v1h-1zM14 10h1v1h-1zM14 11h1v1h-1zM11 12h2v1h-2zM9 13h1v1h-1z"/><path fill="#29366f" d="M15 6h3v1h-3zM15 7h3v1h-3zM15 8h3v1h-3zM15 9h3v1h-3zM15 10h3v1h-3zM13 11h1v1h-1zM15 11h4v1h-4zM13 12h8v1h-8zM10 13h13v1h-13zM11 14h11v1h-11z"/><path fill="#94b0c2" d="M10 14h1v1h-1zM10 15h1v1h-1zM10 16h1v1h-1zM10 17h1v1h-1zM10 18h1v1h-1zM10 19h1v1h-1zM10 20h1v1h-1zM10 21h1v1h-1zM10 22h1v1h-1zM10 23h1v1h-1zM10 24h1v1h-1zM10 25h1v1h-1z"/><path fill="#c77dff" d="M11 15h11v1h-11zM11 16h11v1h-11zM11 17h11v1h-11zM11 18h7v1h-7zM19 18h3v1h-3z"/><path fill="#73eff7" d="M18 18h1v1h-1zM20 21h1v1h-1z"/><path fill="#5d275d" d="M11 19h11v1h-11zM11 20h4v1h-4zM16 20h6v1h-6zM11 21h9v1h-9zM21 21h1v1h-1z"/><path fill="#3d1a50" d="M11 22h2v1h-2zM14 22h8v1h-8zM11 23h6v1h-6zM18 23h4v1h-4zM11 24h11v1h-11zM11 25h11v1h-11z"/>
</svg>