<svg xmlns="http://www.w3.org/2000/svg" viewBox="0 0 32 32" shape-rendering="crispEdges"><path fill="#ef7d57" d="M26,5h1v1h-1ZM26,6h1v1h-1ZM5,7h1v1h-1ZM5,8h2v1h-2ZM15,8h1v1h-1Z"/><path fill="#ffcd75" d="M25,5h1v1h-1ZM25,6h1v1h-1ZM6,7h1v1h-1ZM16,8h1v1h-1Z"/><path fill="#94b0c2" d="M6,4h1v1h-1ZM5,5h1v1h-1ZM25,7h2v1h-2ZM25,8h2v1h-2ZM5,9h2v1h-2ZM15,9h2v1h-2ZM24,9h4v1h-4ZM5,10h2v1h-2ZM15,10h2v1h-2ZM24,10h4v1h-4ZM4,11h4v1h-4ZM14,11h4v1h-4ZM4,12h4v1h-4ZM14,12h4v1h-4ZM3,19h6v1h-6Z"/><path fill="#b13e53" d="M2,13h8v1h-8ZM2,14h8v1h-8ZM2,15h8v1h-8ZM2,16h8v1h-8ZM3,17h6v1h-6ZM4,18h4v1h-4Z"/><path fill="#f4f4f4" d="M4,11h1v1h-1ZM4,12h1v1h-1ZM2,13h1v1h-1ZM13,13h1v1h-1ZM24,13h1v1h-1ZM2,14h1v1h-1ZM4,14h1v1h-1ZM12,14h1v1h-1ZM24,14h1v1h-1ZM2,15h1v1h-1ZM4,15h1v1h-1ZM12,15h1v1h-1ZM24,15h1v1h-1ZM2,16h1v1h-1ZM11,16h1v1h-1ZM13,16h1v1h-1ZM3,17h1v1h-1ZM10,17h1v1h-1ZM13,17h1v1h-1ZM4,18h1v1h-1ZM10,18h1v1h-1ZM9,19h1v1h-1Z"/><path fill="#566c86" d="M4,3h1v1h-1ZM7,5h1v1h-1Z"/><path fill="#38b764" d="M13,13h6v1h-6ZM12,14h8v1h-8ZM12,15h8v1h-8ZM11,16h10v1h-10ZM10,17h12v1h-12ZM10,18h12v1h-12ZM9,19h14v1h-14Z"/><path fill="#a7f070" d="M16,15h1v1h-1ZM17,16h1v1h-1ZM15,17h1v1h-1Z"/><path fill="#41a6f6" d="M24,11h4v1h-4ZM24,12h4v1h-4ZM24,13h4v1h-4ZM24,14h4v1h-4ZM24,15h4v1h-4ZM24,16h4v1h-4ZM23,17h6v1h-6ZM23,18h6v1h-6ZM23,19h6v1h-6Z"/><path fill="#73eff7" d="M23,12h1v1h-1ZM29,12h1v1h-1ZM28,14h1v1h-1ZM23,16h1v1h-1Z"/><path fill="#333c57" d="M1,20h30v1h-30Z"/></svg>