<svg xmlns="http://www.w3.org/2000/svg" width="32" height="32" viewBox="0 0 32 32" shape-rendering="crispEdges">
<path fill="#566c86" d="M12 3h1v1h-1zM15 3h5v1h-5zM13 5h6v1h-6zM17 6h1v1h-1zM17 7h1v1h-1zM17 8h1v1h-1zM17 9h1v1h-1zM22 10h1v1h-1zM22 11h1v1h-1zM22 12h1v1h-1zM22 13h1v1h-1zM22 14h1v1h-1zM22 15h1v1h-1zM22 16h1v1h-1zM22 17h1v1h-1zM22 18h1v1h-1zM22 19h1v1h-1zM22 20h1v1h-1zM22 21h1v1h-1zM22 22h1v1h-1zM22 23h1v1h-1zM22 24h1v1h-1zM9 25h14v1h-14z"/>
<path fill="#f4f4f4" d="M13 3h2v1h-2zM14 6h1v1h-1zM14 7h1v1h-1zM14 8h1v1h-1zM14 9h1v1h-1z"/>
<path fill="#94b0c2" d="M13 4h6v1h-6zM15 6h2v1h-2zM15 7h2v1h-2zM15 8h2v1h-2zM15 9h2v1h-2zM9 10h13v1h-13zM9 11h1v1h-1zM9 12h1v1h-1zM9 13h1v1h-1zM9 14h1v1h-1zM9 15h1v1h-1zM9 16h1v1h-1zM9 17h1v1h-1zM9 18h1v1h-1zM9 19h1v1h-1zM9 20h1v1h-1zM9 21h1v1h-1zM9 22h1v1h-1zM9 23h1v1h-1zM9 24h1v1h-1z"/>
<path fill="#29366f" d="M10 11h1v1h-1zM14 11h8v1h-8zM10 12h1v1h-1zM13 12h9v1h-9zM10 13h1v1h-1zM13 13h9v1h-9zM10 14h1v1h-1zM13 14h9v1h-9zM10 15h1v1h-1zM12 15h10v1h-10z"/>
<path fill="#41a6f6" d="M11 11h3v1h-3zM11 12h1v1h-1zM11 13h1v1h-1zM11 14h1v1h-1zM11 15h1v1h-1zM14 21h1v1h-1z"/>
<path fill="#73eff7" d="M12 12h1v1h-1zM12 13h1v1h-1zM12 14h1v1h-1zM16 19h1v1h-1zM18 20h1v1h-1z"/>
<path fill="#5d275d" d="M10 16h1v1h-1zM16 16h6v1h-6zM10 17h1v1h-1zM12 17h10v1h-10zM10 18h12v1h-12zM10 22h12v1h-12zM10 23h12v1h-12zM10 24h12v1h-12z"/>
<path fill="#c77dff" d="M11 16h5v1h-5zM11 17h1v1h-1z"/>
<path fill="#8b2f97" d="M10 19h6v1h-6zM17 19h5v1h-5zM10 20h8v1h-8zM19 20h3v1h-3zM10 21h4v1h-4zM15 21h7v1h-7z"/>
</svg>