<svg xmlns="http://www.w3.org/2000/svg" viewBox="0 0 16 16" width="16" height="16">
  <!-- Circle border -->
  <rect x="5" y="0" width="1" height="1" fill="#fbbf24"/>
  <rect x="6" y="0" width="1" height="1" fill="#fbbf24"/>
  <rect x="7" y="0" width="1" height="1" fill="#fbbf24"/>
  <rect x="8" y="0" width="1" height="1" fill="#fbbf24"/>
  <rect x="9" y="0" width="1" height="1" fill="#fbbf24"/>
  <rect x="10" y="0" width="1" height="1" fill="#fbbf24"/>
  <rect x="3" y="1" width="1" height="1" fill="#fbbf24"/>
  <rect x="4" y="1" width="1" height="1" fill="#fbbf24"/>
  <rect x="11" y="1" width="1" height="1" fill="#fbbf24"/>
  <rect x="12" y="1" width="1" height="1" fill="#fbbf24"/>
  <rect x="2" y="2" width="1" height="1" fill="#fbbf24"/>
  <rect x="3" y="2" width="1" height="1" fill="#fde68a"/>
  <rect x="12" y="2" width="1" height="1" fill="#f59e0b"/>
  <rect x="13" y="2" width="1" height="1" fill="#fbbf24"/>
  <rect x="1" y="3" width="1" height="1" fill="#fbbf24"/>
  <rect x="2" y="3" width="1" height="1" fill="#fde68a"/>
  <rect x="13" y="3" width="1" height="1" fill="#f59e0b"/>
  <rect x="14" y="3" width="1" height="1" fill="#fbbf24"/>
  <rect x="1" y="4" width="1" height="1" fill="#fbbf24"/>
  <rect x="2" y="4" width="1" height="1" fill="#fde68a"/>
  <rect x="13" y="4" width="1" height="1" fill="#f59e0b"/>
  <rect x="14" y="4" width="1" height="1" fill="#fbbf24"/>
  <rect x="0" y="5" width="1" height="1" fill="#fbbf24"/>
  <rect x="1" y="5" width="1" height="1" fill="#fde68a"/>
  <rect x="14" y="5" width="1" height="1" fill="#f59e0b"/>
  <rect x="15" y="5" width="1" height="1" fill="#fbbf24"/>
  <rect x="0" y="6" width="1" height="1" fill="#fbbf24"/>
  <rect x="1" y="6" width="1" height="1" fill="#fde68a"/>
  <rect x="14" y="6" width="1" height="1" fill="#f59e0b"/>
  <rect x="15" y="6" width="1" height="1" fill="#fbbf24"/>
  <rect x="0" y="7" width="1" height="1" fill="#fbbf24"/>
  <rect x="1" y="7" width="1" height="1" fill="#fbbf24"/>
  <rect x="14" y="7" width="1" height="1" fill="#f59e0b"/>
  <rect x="15" y="7" width="1" height="1" fill="#fbbf24"/>
  <rect x="0" y="8" width="1" height="1" fill="#fbbf24"/>
  <rect x="1" y="8" width="1" height="1" fill="#fbbf24"/>
  <rect x="14" y="8" width="1" height="1" fill="#f59e0b"/>
  <rect x="15" y="8" width="1" height="1" fill="#fbbf24"/>
  <rect x="0" y="9" width="1" height="1" fill="#fbbf24"/>
  <rect x="1" y="9" width="1" height="1" fill="#fbbf24"/>
  <rect x="14" y="9" width="1" height="1" fill="#f59e0b"/>
  <rect x="15" y="9" width="1" height="1" fill="#fbbf24"/>
  <rect x="0" y="10" width="1" height="1" fill="#fbbf24"/>
  <rect x="1" y="10" width="1" height="1" fill="#f59e0b"/>
  <rect x="14" y="10" width="1" height="1" fill="#f59e0b"/>
  <rect x="15" y="10" width="1" height="1" fill="#f59e0b"/>
  <rect x="1" y="11" width="1" height="1" fill="#fbbf24"/>
  <rect x="2" y="11" width="1" height="1" fill="#f59e0b"/>
  <rect x="13" y="11" width="1" height="1" fill="#f59e0b"/>
  <rect x="14" y="11" width="1" height="1" fill="#f59e0b"/>
  <rect x="1" y="12" width="1" height="1" fill="#fbbf24"/>
  <rect x="2" y="12" width="1" height="1" fill="#f59e0b"/>
  <rect x="13" y="12" width="1" height="1" fill="#f59e0b"/>
  <rect x="14" y="12" width="1" height="1" fill="#f59e0b"/>
  <rect x="2" y="13" width="1" height="1" fill="#fbbf24"/>
  <rect x="3" y="13" width="1" height="1" fill="#f59e0b"/>
  <rect x="12" y="13" width="1" height="1" fill="#f59e0b"/>
  <rect x="13" y="13" width="1" height="1" fill="#f59e0b"/>
  <rect x="3" y="14" width="1" height="1" fill="#fbbf24"/>
  <rect x="4" y="14" width="1" height="1" fill="#f59e0b"/>
  <rect x="11" y="14" width="1" height="1" fill="#f59e0b"/>
  <rect x="12" y="14" width="1" height="1" fill="#f59e0b"/>
  <rect x="5" y="15" width="1" height="1" fill="#f59e0b"/>
  <rect x="6" y="15" width="1" height="1" fill="#f59e0b"/>
  <rect x="7" y="15" width="1" height="1" fill="#f59e0b"/>
  <rect x="8" y="15" width="1" height="1" fill="#f59e0b"/>
  <rect x="9" y="15" width="1" height="1" fill="#f59e0b"/>
  <rect x="10" y="15" width="1" height="1" fill="#f59e0b"/>
  <!-- "x" character -->
  <rect x="3" y="5" width="1" height="1" fill="#92400e"/>
  <rect x="4" y="5" width="1" height="1" fill="#92400e"/>
  <rect x="3" y="6" width="1" height="1" fill="#92400e"/>
  <rect x="4" y="6" width="1" height="1" fill="#92400e"/>
  <rect x="4" y="7" width="1" height="1" fill="#92400e"/>
  <rect x="5" y="7" width="1" height="1" fill="#92400e"/>
  <rect x="5" y="8" width="1" height="1" fill="#92400e"/>
  <rect x="4" y="9" width="1" height="1" fill="#92400e"/>
  <rect x="5" y="9" width="1" height="1" fill="#92400e"/>
  <rect x="3" y="10" width="1" height="1" fill="#92400e"/>
  <rect x="4" y="10" width="1" height="1" fill="#92400e"/>
  <rect x="3" y="11" width="1" height="1" fill="#92400e"/>
  <!-- "2" character -->
  <rect x="7" y="4" width="1" height="1" fill="#92400e"/>
  <rect x="8" y="4" width="1" height="1" fill="#92400e"/>
  <rect x="9" y="4" width="1" height="1" fill="#92400e"/>
  <rect x="10" y="4" width="1" height="1" fill="#92400e"/>
  <rect x="11" y="4" width="1" height="1" fill="#92400e"/>
  <rect x="11" y="5" width="1" height="1" fill="#92400e"/>
  <rect x="12" y="5" width="1" height="1" fill="#92400e"/>
  <rect x="11" y="6" width="1" height="1" fill="#92400e"/>
  <rect x="12" y="6" width="1" height="1" fill="#92400e"/>
  <rect x="10" y="7" width="1" height="1" fill="#92400e"/>
  <rect x="11" y="7" width="1" height="1" fill="#92400e"/>
  <rect x="9" y="8" width="1" height="1" fill="#92400e"/>
  <rect x="10" y="8" width="1" height="1" fill="#92400e"/>
  <rect x="8" y="9" width="1" height="1" fill="#92400e"/>
  <rect x="9" y="9" width="1" height="1" fill="#92400e"/>
  <rect x="7" y="10" width="1" height="1" fill="#92400e"/>
  <rect x="8" y="10" width="1" height="1" fill="#92400e"/>
  <rect x="7" y="11" width="1" height="1" fill="#92400e"/>
  <rect x="8" y="11" width="1" height="1" fill="#92400e"/>
  <rect x="9" y="11" width="1" height="1" fill="#92400e"/>
  <rect x="10" y="11" width="1" height="1" fill="#92400e"/>
  <rect x="11" y="11" width="1" height="1" fill="#92400e"/>
  <rect x="12" y="11" width="1" height="1" fill="#92400e"/>
</svg>