<svg xmlns="http://www.w3.org/2000/svg" viewBox="0 0 32 32" shape-rendering="crispEdges"><path fill="#3b5dc9" d="M16,2h1v1h-1ZM15,3h3v1h-3ZM15,4h3v1h-3ZM15,5h3v1h-3ZM15,20h2v1h-2Z"/><path fill="#41a6f6" d="M13,6h7v1h-7ZM12,7h1v1h-1ZM17,7h3v1h-3ZM0,8h2v1h-2ZM12,8h1v1h-1ZM17,8h3v1h-3ZM30,8h2v1h-2ZM1,9h5v1h-5ZM12,9h1v1h-1ZM17,9h3v1h-3ZM26,9h5v1h-5ZM2,10h11v1h-11ZM17,10h13v1h-13ZM10,11h2v1h-2ZM13,11h9v1h-9ZM10,12h12v1h-12ZM6,13h7v1h-7ZM19,13h7v1h-7ZM12,14h1v1h-1ZM19,14h1v1h-1ZM12,15h1v1h-1ZM19,15h1v1h-1ZM12,16h8v1h-8ZM13,17h6v1h-6ZM13,18h6v1h-6ZM13,19h6v1h-6Z"/><path fill="#f4f4f4" d="M13,7h4v1h-4ZM13,8h1v1h-1ZM16,8h1v1h-1ZM13,9h1v1h-1ZM16,9h1v1h-1ZM15,10h2v1h-2Z"/><path fill="#1a1c2c" d="M14,8h2v1h-2ZM14,9h2v1h-2Z"/><path fill="#ef7d57" d="M20,8h4v1h-4ZM20,9h6v1h-6ZM12,20h1v1h-1ZM14,20h1v1h-1ZM18,20h1v1h-1Z"/><path fill="#ff9eb7" d="M13,10h2v1h-2Z"/><path fill="#73eff7" d="M2,11h8v1h-8ZM22,11h8v1h-8ZM4,12h6v1h-6ZM22,12h6v1h-6ZM13,13h6v1h-6ZM13,14h6v1h-6ZM13,15h6v1h-6Z"/></svg>