<svg xmlns="http://www.w3.org/2000/svg" viewBox="0 0 32 32" shape-rendering="crispEdges"><path fill="#38b764" d="M17,6h1v1h-1zM16,7h1v1h-1z"/><path fill="#ff6b7f" d="M15,8h1v1h-1z"/><path fill="#b13e53" d="M16,8h1v1h-1zM15,9h2v1h-2z"/><path fill="#8b5e34" d="M13,10h6v1h-6zM12,11h1v1h-1zM14,11h4v1h-4zM19,11h1v1h-1zM12,12h1v1h-1zM19,12h1v1h-1zM11,16h10v1h-10zM21,17h1v1h-1zM10,18h1v1h-1zM21,19h1v1h-1z"/><path fill="#ffecd2" d="M13,12h6v1h-6zM12,14h8v1h-8zM11,18h10v1h-10zM11,19h10v1h-10zM10,20h3v1h-3zM14,20h1v1h-1zM16,20h1v1h-1zM18,20h1v1h-1zM20,20h2v1h-2zM10,21h4v1h-4zM15,21h3v1h-3zM19,21h3v1h-3z"/><path fill="#ef7d57" d="M12,13h1v1h-1zM21,18h1v1h-1zM10,19h1v1h-1z"/><path fill="#ffcd75" d="M13,13h6v1h-6zM12,15h8v1h-8zM11,17h10v1h-10zM9,22h3v1h-3zM14,22h5v1h-5zM21,22h2v1h-2zM9,23h6v1h-6zM16,23h1v1h-1zM18,23h5v1h-5zM9,24h7v1h-7zM17,24h6v1h-6zM9,25h14v1h-14z"/><path fill="#1a1c2c" d="M13,20h1v1h-1zM15,20h1v1h-1zM17,20h1v1h-1zM19,20h1v1h-1zM14,21h1v1h-1zM18,21h1v1h-1zM15,23h1v1h-1zM17,23h1v1h-1zM16,24h1v1h-1z"/><path fill="#94b0c2" d="M26,20h2v1h-2zM26,21h2v1h-2zM26,22h1v1h-1zM6,26h20v1h-20zM5,28h22v1h-22zM6,29h20v1h-20z"/><path fill="#ff9eb7" d="M12,22h2v1h-2zM19,22h2v1h-2z"/><path fill="#566c86" d="M26,23h1v1h-1zM26,24h1v1h-1zM26,25h1v1h-1zM26,26h1v1h-1zM26,27h1v1h-1z"/><path fill="#f4f4f4" d="M5,27h21v1h-21z"/></svg>