<svg xmlns="http://www.w3.org/2000/svg" viewBox="0 0 32 32" shape-rendering="crispEdges"><path fill="#ffcd75" d="M12,4h1v1h-1ZM14,4h1v1h-1ZM17,4h1v1h-1ZM19,4h1v1h-1ZM10,5h12v1h-12ZM9,6h14v1h-14ZM7,7h1v1h-1ZM24,7h1v1h-1ZM5,8h1v1h-1ZM7,8h18v1h-18ZM26,8h1v1h-1ZM4,10h1v1h-1ZM6,10h4v1h-4ZM13,10h6v1h-6ZM22,10h4v1h-4ZM27,10h1v1h-1ZM5,12h7v1h-7ZM20,12h7v1h-7ZM4,13h1v1h-1ZM27,13h1v1h-1ZM5,14h6v1h-6ZM21,14h6v1h-6ZM4,16h8v1h-8ZM20,16h8v1h-8ZM6,17h9v1h-9ZM17,17h9v1h-9ZM5,18h1v1h-1ZM26,18h1v1h-1ZM7,19h8v1h-8ZM17,19h8v1h-8ZM8,20h16v1h-16ZM9,21h14v1h-14ZM10,22h12v1h-12ZM13,23h6v1h-6ZM12,24h1v1h-1ZM19,24h1v1h-1Z"/><path fill="#ffecd2" d="M8,7h16v1h-16ZM6,9h4v1h-4ZM13,9h6v1h-6ZM22,9h4v1h-4ZM5,11h5v1h-5ZM13,11h6v1h-6ZM22,11h5v1h-5ZM5,13h3v1h-3ZM10,13h1v1h-1ZM21,13h1v1h-1ZM24,13h3v1h-3ZM5,15h6v1h-6ZM21,15h6v1h-6ZM6,18h8v1h-8ZM18,18h8v1h-8Z"/><path fill="#f4f4f4" d="M10,9h3v1h-3ZM19,9h3v1h-3ZM10,10h1v1h-1ZM19,10h1v1h-1ZM10,11h1v1h-1ZM19,11h1v1h-1ZM12,12h8v1h-8ZM11,13h10v1h-10ZM11,14h10v1h-10ZM11,15h10v1h-10ZM12,16h8v1h-8Z"/><path fill="#1a1c2c" d="M11,10h2v1h-2ZM20,10h2v1h-2ZM11,11h2v1h-2ZM20,11h2v1h-2ZM15,17h2v1h-2ZM14,18h1v1h-1ZM17,18h1v1h-1ZM15,19h2v1h-2Z"/><path fill="#41a6f6" d="M3,12h2v1h-2ZM27,12h2v1h-2Z"/><path fill="#ff9eb7" d="M8,13h2v1h-2ZM22,13h2v1h-2Z"/><path fill="#b13e53" d="M15,18h2v1h-2Z"/><path fill="#ef7d57" d="M14,24h4v1h-4Z"/></svg>