<svg xmlns="http://www.w3.org/2000/svg" width="16" height="16" viewBox="0 0 16 16" shape-rendering="crispEdges">
<!-- 萝卜（红皮白底） -->
<path fill="#1a1c2c" d="M7 0h2v1h-2zM6 1h1v1h-1zM9 1h1v1h-1zM5 2h1v1h-1zM10 2h1v1h-1zM5 3h1v1h-1zM10 3h1v1h-1zM4 4h1v1h-1zM11 4h1v1h-1zM4 5h1v1h-1zM11 5h1v1h-1zM4 6h1v1h-1zM11 6h1v1h-1zM5 7h1v1h-1zM10 7h1v1h-1zM5 8h1v1h-1zM10 8h1v1h-1zM6 9h1v1h-1zM9 9h1v1h-1zM7 10h2v1h-2z"/>
<path fill="#38b764" d="M7 1h2v1h-2z"/>
<path fill="#a7f070" d="M8 0h1v1h-1z"/>
<path fill="#4a5e3b" d="M7 0h1v1h-1z"/>
<path fill="#b13e53" d="M6 2h4v1h-4zM6 3h4v1h-4zM5 4h6v1h-6zM5 5h6v1h-6z"/>
<path fill="#ef7d57" d="M6 2h1v1h-1zM6 3h1v1h-1zM5 4h1v1h-1z"/>
<path fill="#f4f4f4" d="M5 6h6v1h-6zM6 7h4v1h-4zM6 8h4v1h-4zM7 9h2v1h-2z"/>
<path fill="#d4a56a" d="M9 7h1v1h-1zM9 8h1v1h-1zM8 9h1v1h-1z"/>
</svg>