<svg xmlns="http://www.w3.org/2000/svg" viewBox="0 0 32 32" shape-rendering="crispEdges"><path fill="#41a6f6" d="M0,0h32v1h-32zM0,1h32v1h-32zM0,2h32v1h-32zM0,3h32v1h-32zM0,4h32v1h-32zM0,5h32v1h-32zM0,6h32v1h-32zM0,7h32v1h-32zM0,8h32v1h-32zM0,9h32v1h-32zM0,10h32v1h-32zM0,11h32v1h-32zM0,12h32v1h-32zM0,13h32v1h-32zM0,14h32v1h-32zM0,15h32v1h-32zM0,16h32v1h-32zM0,17h32v1h-32zM0,18h32v1h-32zM0,19h32v1h-32zM0,20h32v1h-32zM0,21h32v1h-32zM0,22h32v1h-32zM0,23h32v1h-32zM0,24h32v1h-32zM0,25h32v1h-32zM0,26h32v1h-32zM0,27h32v1h-32zM0,28h32v1h-32zM0,29h32v1h-32zM0,30h32v1h-32zM0,31h32v1h-32z"/><path fill="#ffcd75" d="M14,1h1v1h-1zM28,1h1v1h-1zM3,2h1v1h-1zM24,3h1v1h-1zM7,4h1v1h-1zM20,5h1v1h-1zM16,12h1v1h-1zM12,13h4v1h-4zM17,13h4v1h-4zM10,14h2v1h-2zM21,14h2v1h-2zM9,15h2v1h-2zM22,15h2v1h-2zM8,16h2v1h-2zM23,16h2v1h-2zM8,17h1v1h-1zM24,17h1v1h-1zM7,18h1v1h-1zM25,18h1v1h-1zM7,19h1v1h-1zM25,19h1v1h-1zM7,20h1v1h-1zM25,20h1v1h-1zM7,21h1v1h-1zM25,21h1v1h-1zM6,22h1v1h-1zM26,22h1v1h-1z"/><path fill="#b13e53" d="M16,8h1v1h-1zM11,9h5v1h-5zM17,9h5v1h-5zM9,10h2v1h-2zM22,10h2v1h-2zM8,11h2v1h-2zM23,11h2v1h-2zM7,12h1v1h-1zM25,12h1v1h-1zM6,13h1v1h-1zM26,13h1v1h-1zM5,14h1v1h-1zM27,14h1v1h-1zM4,15h2v1h-2zM27,15h2v1h-2zM4,16h1v1h-1zM28,16h1v1h-1zM3,17h1v1h-1zM29,17h1v1h-1zM3,18h1v1h-1zM29,18h1v1h-1zM3,19h1v1h-1zM29,19h1v1h-1zM3,20h1v1h-1zM29,20h1v1h-1zM3,21h1v1h-1zM29,21h1v1h-1zM2,22h1v1h-1zM30,22h1v1h-1z"/><path fill="#ef7d57" d="M16,10h1v1h-1zM12,11h4v1h-4zM17,11h4v1h-4zM10,12h2v1h-2zM21,12h2v1h-2zM9,13h1v1h-1zM23,13h1v1h-1zM8,14h1v1h-1zM24,14h1v1h-1zM7,15h1v1h-1zM25,15h1v1h-1zM6,16h1v1h-1zM26,16h1v1h-1zM6,17h1v1h-1zM26,17h1v1h-1zM5,18h1v1h-1zM27,18h1v1h-1zM5,19h1v1h-1zM27,19h1v1h-1zM5,20h1v1h-1zM27,20h1v1h-1zM5,21h1v1h-1zM27,21h1v1h-1zM4,22h1v1h-1zM28,22h1v1h-1z"/><path fill="#38b764" d="M16,14h1v1h-1zM13,15h3v1h-3zM17,15h3v1h-3zM11,16h2v1h-2zM20,16h2v1h-2zM10,17h2v1h-2zM21,17h2v1h-2zM10,18h1v1h-1zM22,18h1v1h-1zM9,19h1v1h-1zM23,19h1v1h-1zM9,20h1v1h-1zM23,20h1v1h-1zM9,21h1v1h-1zM23,21h1v1h-1zM8,22h1v1h-1zM24,22h1v1h-1z"/><path fill="#3b5dc9" d="M16,16h1v1h-1zM13,17h3v1h-3zM17,17h3v1h-3zM12,18h1v1h-1zM20,18h1v1h-1zM11,19h1v1h-1zM21,19h1v1h-1zM11,20h1v1h-1zM21,20h1v1h-1zM11,21h1v1h-1zM21,21h1v1h-1zM10,22h1v1h-1zM22,22h1v1h-1z"/><path fill="#5d275d" d="M16,18h1v1h-1zM14,19h2v1h-2zM17,19h2v1h-2zM13,20h1v1h-1zM19,20h1v1h-1zM13,21h1v1h-1zM19,21h1v1h-1zM12,22h1v1h-1zM20,22h1v1h-1z"/><path fill="#f4f4f4" d="M5,18h1v1h-1zM27,18h1v1h-1zM3,19h5v1h-5zM25,19h5v1h-5zM3,20h1v1h-1zM3,20h5v1h-5zM7,20h1v1h-1zM25,20h1v1h-1zM25,20h5v1h-5zM29,20h1v1h-1zM2,21h1v1h-1zM2,21h2v1h-2zM3,21h2v1h-2zM4,21h3v1h-3zM6,21h2v1h-2zM7,21h2v1h-2zM8,21h1v1h-1zM24,21h1v1h-1zM24,21h2v1h-2zM25,21h2v1h-2zM26,21h3v1h-3zM28,21h2v1h-2zM29,21h2v1h-2zM30,21h1v1h-1zM1,22h1v1h-1zM1,22h2v1h-2zM2,22h2v1h-2zM3,22h1v1h-1zM3,22h2v1h-2zM4,22h1v1h-1zM4,22h2v1h-2zM5,22h1v1h-1zM5,22h1v1h-1zM5,22h2v1h-2zM6,22h1v1h-1zM6,22h2v1h-2zM7,22h1v1h-1zM7,22h2v1h-2zM8,22h2v1h-2zM9,22h1v1h-1zM23,22h1v1h-1zM23,22h2v1h-2zM24,22h2v1h-2zM25,22h1v1h-1zM25,22h2v1h-2zM26,22h1v1h-1zM26,22h2v1h-2zM27,22h1v1h-1zM27,22h1v1h-1zM27,22h2v1h-2zM28,22h1v1h-1zM28,22h2v1h-2zM29,22h1v1h-1zM29,22h2v1h-2zM30,22h2v1h-2zM31,22h1v1h-1zM1,23h2v1h-2zM2,23h2v1h-2zM3,23h1v1h-1zM3,23h2v1h-2zM4,23h1v1h-1zM4,23h2v1h-2zM5,23h2v1h-2zM6,23h1v1h-1zM6,23h2v1h-2zM7,23h1v1h-1zM7,23h2v1h-2zM8,23h2v1h-2zM23,23h2v1h-2zM24,23h2v1h-2zM25,23h1v1h-1zM25,23h2v1h-2zM26,23h1v1h-1zM26,23h2v1h-2zM27,23h2v1h-2zM28,23h1v1h-1zM28,23h2v1h-2zM29,23h1v1h-1zM29,23h2v1h-2zM30,23h2v1h-2zM1,24h3v1h-3zM3,24h3v1h-3zM5,24h3v1h-3zM7,24h3v1h-3zM23,24h3v1h-3zM25,24h3v1h-3zM27,24h3v1h-3zM29,24h3v1h-3z"/><path fill="#94b0c2" d="M2,24h1v1h-1zM4,24h1v1h-1zM6,24h1v1h-1zM8,24h1v1h-1zM24,24h1v1h-1zM26,24h1v1h-1zM28,24h1v1h-1zM30,24h1v1h-1z"/><path fill="#1a1c2c" d="M3,20h1v1h-1zM7,20h1v1h-1zM25,20h1v1h-1zM29,20h1v1h-1zM4,21h1v1h-1zM6,21h1v1h-1zM26,21h1v1h-1zM28,21h1v1h-1zM4,23h3v1h-3zM26,23h3v1h-3z"/></svg>