<svg xmlns="http://www.w3.org/2000/svg" viewBox="0 0 32 32" shape-rendering="crispEdges"><path fill="#94b0c2" d="M0,0h32v1h-32zM0,1h32v1h-32zM0,2h32v1h-32zM0,3h32v1h-32zM0,4h32v1h-32zM0,5h32v1h-32zM0,6h32v1h-32zM0,7h32v1h-32zM0,8h32v1h-32zM0,9h32v1h-32zM0,10h32v1h-32zM0,11h32v1h-32zM0,12h32v1h-32zM0,13h32v1h-32zM0,14h32v1h-32zM0,15h32v1h-32zM0,16h32v1h-32zM0,17h32v1h-32zM0,18h32v1h-32zM0,19h32v1h-32zM0,20h32v1h-32zM0,21h32v1h-32zM0,22h32v1h-32zM0,23h32v1h-32zM0,24h32v1h-32zM0,25h32v1h-32zM0,26h32v1h-32zM0,27h32v1h-32zM0,28h32v1h-32zM0,29h32v1h-32zM0,30h32v1h-32zM0,31h32v1h-32z"/><path fill="#41a6f6" d="M0,0h32v1h-32zM0,1h32v1h-32zM0,2h32v1h-32zM0,3h32v1h-32zM0,4h32v1h-32zM0,5h32v1h-32zM0,6h32v1h-32zM0,7h32v1h-32zM13,17h1v1h-1zM19,17h1v1h-1zM10,18h1v1h-1zM22,18h1v1h-1zM16,19h1v1h-1zM12,20h1v1h-1zM18,21h1v1h-1zM15,22h1v1h-1zM16,26h1v1h-1zM12,27h9v1h-9zM16,28h1v1h-1z"/><path fill="#566c86" d="M14,5h1v1h-1zM16,5h1v1h-1zM19,5h1v1h-1zM12,6h2v1h-2zM13,6h2v1h-2zM14,6h2v1h-2zM15,6h2v1h-2zM16,6h2v1h-2zM17,6h2v1h-2zM18,6h2v1h-2zM19,6h3v1h-3zM11,7h2v1h-2zM12,7h2v1h-2zM13,7h2v1h-2zM14,7h2v1h-2zM15,7h2v1h-2zM16,7h2v1h-2zM17,7h2v1h-2zM18,7h2v1h-2zM19,7h2v1h-2zM20,7h2v1h-2zM21,7h1v1h-1zM9,8h3v1h-3zM11,8h2v1h-2zM12,8h1v1h-1zM12,8h2v1h-2zM13,8h1v1h-1zM13,8h2v1h-2zM14,8h2v1h-2zM15,8h2v1h-2zM16,8h1v1h-1zM16,8h2v1h-2zM17,8h1v1h-1zM17,8h2v1h-2zM18,8h2v1h-2zM19,8h1v1h-1zM19,8h2v1h-2zM20,8h1v1h-1zM20,8h2v1h-2zM21,8h2v1h-2zM22,8h2v1h-2zM8,9h5v1h-5zM12,9h1v1h-1zM12,9h2v1h-2zM13,9h1v1h-1zM13,9h2v1h-2zM14,9h1v1h-1zM14,9h2v1h-2zM15,9h2v1h-2zM16,9h2v1h-2zM17,9h2v1h-2zM18,9h1v1h-1zM18,9h2v1h-2zM19,9h1v1h-1zM19,9h2v1h-2zM20,9h1v1h-1zM20,9h2v1h-2zM21,9h4v1h-4zM8,10h4v1h-4zM11,10h2v1h-2zM12,10h1v1h-1zM12,10h2v1h-2zM13,10h1v1h-1zM13,10h2v1h-2zM14,10h1v1h-1zM14,10h2v1h-2zM15,10h2v1h-2zM16,10h2v1h-2zM17,10h2v1h-2zM18,10h1v1h-1zM18,10h2v1h-2zM19,10h1v1h-1zM19,10h2v1h-2zM20,10h1v1h-1zM20,10h2v1h-2zM21,10h1v1h-1zM21,10h4v1h-4zM7,11h1v1h-1zM7,11h2v1h-2zM8,11h2v1h-2zM9,11h2v1h-2zM10,11h2v1h-2zM11,11h2v1h-2zM12,11h1v1h-1zM12,11h2v1h-2zM13,11h1v1h-1zM13,11h2v1h-2zM14,11h1v1h-1zM14,11h1v1h-1zM14,11h2v1h-2zM15,11h1v1h-1zM15,11h2v1h-2zM16,11h2v1h-2zM17,11h1v1h-1zM17,11h2v1h-2zM18,11h1v1h-1zM18,11h2v1h-2zM19,11h1v1h-1zM19,11h1v1h-1zM19,11h2v1h-2zM20,11h1v1h-1zM20,11h2v1h-2zM21,11h2v1h-2zM22,11h2v1h-2zM23,11h2v1h-2zM24,11h2v1h-2zM25,11h1v1h-1zM7,12h2v1h-2zM8,12h2v1h-2zM9,12h2v1h-2zM10,12h2v1h-2zM11,12h2v1h-2zM12,12h1v1h-1zM12,12h2v1h-2zM13,12h1v1h-1zM13,12h2v1h-2zM14,12h1v1h-1zM14,12h2v1h-2zM15,12h2v1h-2zM16,12h2v1h-2zM17,12h2v1h-2zM18,12h1v1h-1zM18,12h2v1h-2zM19,12h1v1h-1zM19,12h2v1h-2zM20,12h1v1h-1zM20,12h2v1h-2zM21,12h2v1h-2zM22,12h2v1h-2zM23,12h2v1h-2zM24,12h2v1h-2zM7,13h2v1h-2zM8,13h2v1h-2zM9,13h2v1h-2zM10,13h2v1h-2zM11,13h2v1h-2zM12,13h1v1h-1zM12,13h2v1h-2zM13,13h1v1h-1zM13,13h2v1h-2zM14,13h1v1h-1zM14,13h2v1h-2zM15,13h2v1h-2zM16,13h2v1h-2zM17,13h2v1h-2zM18,13h1v1h-1zM18,13h2v1h-2zM19,13h1v1h-1zM19,13h2v1h-2zM20,13h1v1h-1zM20,13h2v1h-2zM21,13h2v1h-2zM22,13h2v1h-2zM23,13h2v1h-2zM24,13h2v1h-2zM7,14h3v1h-3zM9,14h2v1h-2zM10,14h2v1h-2zM11,14h2v1h-2zM12,14h2v1h-2zM13,14h1v1h-1zM13,14h2v1h-2zM14,14h2v1h-2zM15,14h2v1h-2zM16,14h2v1h-2zM17,14h2v1h-2zM18,14h2v1h-2zM19,14h1v1h-1zM19,14h2v1h-2zM20,14h2v1h-2zM21,14h2v1h-2zM22,14h2v1h-2zM23,14h3v1h-3zM7,15h5v1h-5zM11,15h6v1h-6zM16,15h6v1h-6zM21,15h5v1h-5z"/><path fill="#333c57" d="M8,15h17v1h-17zM0,28h32v1h-32zM0,29h32v1h-32zM0,30h32v1h-32zM0,31h32v1h-32z"/><path fill="#1a1c2c" d="M13,10h2v1h-2zM18,10h2v1h-2zM15,12h3v1h-3z"/><path fill="#73eff7" d="M13,18h1v1h-1zM19,18h1v1h-1zM10,19h1v1h-1zM22,19h1v1h-1zM16,20h1v1h-1zM12,21h1v1h-1zM18,22h1v1h-1zM15,23h1v1h-1zM16,27h1v1h-1zM11,28h11v1h-11zM16,29h1v1h-1z"/><path fill="#38b764" d="M22,24h1v1h-1zM23,26h2v1h-2zM23,27h1v1h-1z"/><path fill="#b13e53" d="M23,25h1v1h-1z"/><path fill="#ff9eb7" d="M23,24h1v1h-1zM22,25h1v1h-1zM24,25h1v1h-1z"/></svg>