<svg xmlns="http://www.w3.org/2000/svg" viewBox="0 0 32 32" shape-rendering="crispEdges"><path fill="#8b5e34" d="M22,6h1v1h-1zM24,6h1v1h-1zM23,7h1v1h-1zM25,7h1v1h-1zM23,8h1v1h-1zM25,8h1v1h-1zM24,9h1v1h-1zM26,9h1v1h-1zM25,10h1v1h-1zM27,10h1v1h-1zM26,11h1v1h-1zM28,11h1v1h-1zM26,12h1v1h-1zM28,12h1v1h-1zM27,13h1v1h-1zM29,13h1v1h-1zM13,15h1v1h-1zM16,15h1v1h-1zM13,16h4v1h-4z"/><path fill="#b13e53" d="M3,13h24v1h-24zM28,13h1v1h-1zM3,14h4v1h-4zM10,14h19v1h-19zM4,15h2v1h-2zM26,15h2v1h-2zM4,16h2v1h-2zM26,16h2v1h-2zM4,17h2v1h-2zM26,17h2v1h-2zM4,18h2v1h-2zM26,18h2v1h-2zM4,19h2v1h-2zM26,19h2v1h-2zM4,20h24v1h-24zM4,21h4v1h-4zM24,21h4v1h-4zM4,22h24v1h-24zM5,23h22v1h-22zM7,24h4v1h-4zM13,24h6v1h-6zM21,24h4v1h-4zM8,25h1v1h-1zM11,25h3v1h-3zM15,25h2v1h-2zM18,25h3v1h-3zM23,25h1v1h-1zM10,26h5v1h-5zM17,26h5v1h-5zM11,27h10v1h-10z"/><path fill="#333c57" d="M7,14h3v1h-3zM7,15h3v1h-3zM7,16h3v1h-3zM7,17h3v1h-3zM7,18h3v1h-3z"/><path fill="#ffecd2" d="M6,15h1v1h-1zM10,15h3v1h-3zM17,15h3v1h-3zM24,15h2v1h-2zM6,16h1v1h-1zM10,16h3v1h-3zM17,16h3v1h-3zM24,16h2v1h-2zM6,17h1v1h-1zM11,17h2v1h-2zM14,17h2v1h-2zM17,17h2v1h-2zM24,17h2v1h-2zM6,18h1v1h-1zM10,18h16v1h-16zM6,19h2v1h-2zM9,19h2v1h-2zM12,19h2v1h-2zM15,19h2v1h-2zM18,19h2v1h-2zM21,19h2v1h-2zM24,19h2v1h-2zM8,21h1v1h-1zM10,21h2v1h-2zM13,21h2v1h-2zM16,21h2v1h-2zM19,21h2v1h-2zM22,21h2v1h-2z"/><path fill="#ef7d57" d="M14,15h2v1h-2z"/><path fill="#f4f4f4" d="M20,15h4v1h-4zM20,16h1v1h-1zM23,16h1v1h-1zM20,17h4v1h-4zM11,24h2v1h-2zM19,24h2v1h-2zM14,25h1v1h-1zM17,25h1v1h-1zM15,26h2v1h-2z"/><path fill="#ffcd75" d="M21,16h2v1h-2zM10,17h1v1h-1zM13,17h1v1h-1zM16,17h1v1h-1zM19,17h1v1h-1zM8,19h1v1h-1zM11,19h1v1h-1zM14,19h1v1h-1zM17,19h1v1h-1zM20,19h1v1h-1zM23,19h1v1h-1zM9,21h1v1h-1zM12,21h1v1h-1zM15,21h1v1h-1zM18,21h1v1h-1zM21,21h1v1h-1z"/><path fill="#ff9eb7" d="M9,25h2v1h-2zM21,25h2v1h-2z"/></svg>