<svg xmlns="http://www.w3.org/2000/svg" viewBox="0 0 32 32" shape-rendering="crispEdges"><path fill="#b13e53" d="M12,5h1v1h-1zM11,6h1v1h-1zM12,6h1v1h-1zM13,6h1v1h-1zM12,7h1v1h-1zM7,10h1v1h-1zM7,11h1v1h-1zM7,12h1v1h-1zM7,13h1v1h-1zM7,14h1v1h-1zM8,14h1v1h-1zM13,14h1v1h-1zM7,15h1v1h-1z"/><path fill="#73eff7" d="M20,5h1v1h-1zM19,6h1v1h-1zM20,6h1v1h-1zM21,6h1v1h-1zM20,7h1v1h-1z"/><path fill="#3b5dc9" d="M4,6h1v1h-1zM3,7h1v1h-1zM4,7h1v1h-1zM5,7h1v1h-1zM4,8h1v1h-1z"/><path fill="#38b764" d="M28,6h1v1h-1zM27,7h1v1h-1zM28,7h1v1h-1zM29,7h1v1h-1zM28,8h1v1h-1z"/><path fill="#333c57" d="M13,7h1v1h-1zM19,7h1v1h-1zM5,8h1v1h-1zM14,8h1v1h-1zM18,8h1v1h-1zM27,8h1v1h-1zM6,9h1v1h-1zM26,9h1v1h-1zM2,12h1v1h-1zM3,12h1v1h-1zM29,12h1v1h-1zM30,12h1v1h-1zM2,14h1v1h-1zM3,14h1v1h-1zM29,14h1v1h-1zM30,14h1v1h-1z"/><path fill="#ff9eb7" d="M11,8h1v1h-1zM8,9h1v1h-1zM9,9h1v1h-1zM10,9h1v1h-1zM11,9h1v1h-1zM12,9h1v1h-1zM13,9h1v1h-1zM14,9h1v1h-1zM8,10h1v1h-1zM9,10h1v1h-1zM10,10h1v1h-1zM11,10h1v1h-1zM12,10h1v1h-1zM13,10h1v1h-1zM14,10h1v1h-1zM15,10h1v1h-1zM8,11h1v1h-1zM9,11h1v1h-1zM10,11h1v1h-1zM11,11h1v1h-1zM12,11h1v1h-1zM13,11h1v1h-1zM8,12h1v1h-1zM11,12h1v1h-1zM6,13h1v1h-1zM8,13h1v1h-1zM11,13h1v1h-1zM9,14h1v1h-1zM10,14h1v1h-1zM11,14h1v1h-1zM12,14h1v1h-1zM8,15h1v1h-1zM9,15h1v1h-1zM13,15h1v1h-1zM7,16h1v1h-1zM8,16h1v1h-1zM9,16h1v1h-1zM10,16h1v1h-1zM11,16h1v1h-1zM12,16h1v1h-1zM13,16h1v1h-1zM14,16h1v1h-1zM15,16h1v1h-1zM8,17h1v1h-1zM9,17h1v1h-1zM10,17h1v1h-1zM11,17h1v1h-1zM12,17h1v1h-1zM13,17h1v1h-1zM14,17h1v1h-1zM11,18h1v1h-1z"/><path fill="#ffcd75" d="M21,8h1v1h-1zM18,9h1v1h-1zM19,9h1v1h-1zM20,9h1v1h-1zM21,9h1v1h-1zM22,9h1v1h-1zM23,9h1v1h-1zM24,9h1v1h-1zM17,10h1v1h-1zM18,10h1v1h-1zM19,10h1v1h-1zM20,10h1v1h-1zM21,10h1v1h-1zM22,10h1v1h-1zM23,10h1v1h-1zM24,10h1v1h-1zM18,11h1v1h-1zM19,11h1v1h-1zM20,11h1v1h-1zM21,11h1v1h-1zM22,11h1v1h-1zM23,11h1v1h-1zM24,11h1v1h-1zM18,12h1v1h-1zM19,12h1v1h-1zM20,12h1v1h-1zM21,12h1v1h-1zM22,12h1v1h-1zM23,12h1v1h-1zM24,12h1v1h-1zM18,13h1v1h-1zM19,13h1v1h-1zM20,13h1v1h-1zM21,13h1v1h-1zM22,13h1v1h-1zM23,13h1v1h-1zM24,13h1v1h-1zM26,13h1v1h-1zM18,14h1v1h-1zM19,14h1v1h-1zM20,14h1v1h-1zM21,14h1v1h-1zM22,14h1v1h-1zM23,14h1v1h-1zM24,14h1v1h-1zM18,15h1v1h-1zM19,15h1v1h-1zM20,15h1v1h-1zM21,15h1v1h-1zM22,15h1v1h-1zM23,15h1v1h-1zM24,15h1v1h-1zM17,16h1v1h-1zM18,16h1v1h-1zM19,16h1v1h-1zM20,16h1v1h-1zM21,16h1v1h-1zM22,16h1v1h-1zM23,16h1v1h-1zM24,16h1v1h-1zM25,16h1v1h-1zM18,17h1v1h-1zM19,17h1v1h-1zM20,17h1v1h-1zM21,17h1v1h-1zM22,17h1v1h-1zM23,17h1v1h-1zM24,17h1v1h-1zM21,18h1v1h-1z"/><path fill="#ef7d57" d="M25,10h1v1h-1zM14,11h1v1h-1zM15,11h1v1h-1zM16,11h1v1h-1zM17,11h1v1h-1zM25,11h1v1h-1zM14,12h1v1h-1zM15,12h1v1h-1zM16,12h1v1h-1zM17,12h1v1h-1zM25,12h1v1h-1zM14,13h1v1h-1zM15,13h1v1h-1zM16,13h1v1h-1zM17,13h1v1h-1zM25,13h1v1h-1zM14,14h1v1h-1zM15,14h1v1h-1zM16,14h1v1h-1zM17,14h1v1h-1zM25,14h1v1h-1zM14,15h1v1h-1zM15,15h1v1h-1zM16,15h1v1h-1zM17,15h1v1h-1zM25,15h1v1h-1z"/><path fill="#f4f4f4" d="M9,12h1v1h-1zM12,12h1v1h-1z"/><path fill="#1a1c2c" d="M10,12h1v1h-1zM13,12h1v1h-1zM9,13h1v1h-1zM10,13h1v1h-1zM12,13h1v1h-1zM13,13h1v1h-1zM10,15h1v1h-1zM11,15h1v1h-1zM12,15h1v1h-1z"/><path fill="#8b5e34" d="M15,19h1v1h-1zM16,19h1v1h-1zM15,20h1v1h-1zM16,20h1v1h-1zM15,21h1v1h-1zM16,21h1v1h-1zM15,22h1v1h-1zM16,22h1v1h-1zM15,23h1v1h-1zM16,23h1v1h-1zM15,24h1v1h-1zM16,24h1v1h-1zM15,25h1v1h-1zM16,25h1v1h-1zM15,26h1v1h-1zM16,26h1v1h-1zM15,27h1v1h-1zM16,27h1v1h-1zM14,28h1v1h-1zM15,28h1v1h-1zM16,28h1v1h-1zM17,28h1v1h-1z"/></svg>