<svg xmlns="http://www.w3.org/2000/svg" viewBox="0 0 32 32" shape-rendering="crispEdges"><path fill="#ffcd75" d="M3,2h2v1h-2zM10,2h12v1h-12zM3,3h1v1h-1zM9,4h1v1h-1zM14,4h9v1h-9zM26,4h2v1h-2zM9,5h1v1h-1zM14,5h9v1h-9zM26,5h1v1h-1zM25,26h1v1h-1zM5,27h2v1h-2zM5,28h1v1h-1z"/><path fill="#d4a017" d="M4,3h1v1h-1zM9,3h2v1h-2zM12,3h11v1h-11zM8,5h1v1h-1zM23,5h1v1h-1zM27,5h1v1h-1zM8,6h16v1h-16zM8,7h1v1h-1zM23,7h1v1h-1zM8,8h1v1h-1zM23,8h1v1h-1zM8,9h1v1h-1zM23,9h1v1h-1zM8,10h1v1h-1zM23,10h1v1h-1zM8,11h1v1h-1zM23,11h1v1h-1zM8,12h1v1h-1zM12,12h8v1h-8zM23,12h1v1h-1zM8,13h1v1h-1zM12,13h1v1h-1zM15,13h1v1h-1zM19,13h1v1h-1zM23,13h1v1h-1zM8,14h1v1h-1zM12,14h8v1h-8zM23,14h1v1h-1zM8,15h1v1h-1zM12,15h1v1h-1zM14,15h2v1h-2zM19,15h1v1h-1zM23,15h1v1h-1zM8,16h1v1h-1zM12,16h8v1h-8zM23,16h1v1h-1zM8,17h1v1h-1zM12,17h1v1h-1zM14,17h2v1h-2zM17,17h1v1h-1zM19,17h1v1h-1zM23,17h1v1h-1zM8,18h1v1h-1zM12,18h1v1h-1zM15,18h1v1h-1zM19,18h1v1h-1zM23,18h1v1h-1zM8,19h1v1h-1zM12,19h8v1h-8zM23,19h1v1h-1zM8,20h1v1h-1zM23,20h1v1h-1zM8,21h1v1h-1zM23,21h1v1h-1zM8,22h1v1h-1zM23,22h1v1h-1zM8,23h1v1h-1zM23,23h1v1h-1zM8,24h1v1h-1zM10,24h12v1h-12zM23,24h1v1h-1zM8,25h1v1h-1zM15,25h2v1h-2zM23,25h1v1h-1zM8,26h1v1h-1zM14,26h1v1h-1zM17,26h1v1h-1zM23,26h1v1h-1zM8,27h1v1h-1zM15,27h2v1h-2zM23,27h1v1h-1zM25,27h1v1h-1zM6,28h1v1h-1zM8,28h16v1h-16z"/><path fill="#38b764" d="M11,3h1v1h-1zM10,4h4v1h-4zM10,5h4v1h-4z"/><path fill="#b13e53" d="M7,6h1v1h-1zM24,6h1v1h-1zM7,7h1v1h-1zM9,7h14v1h-14zM24,7h1v1h-1zM7,8h1v1h-1zM9,8h14v1h-14zM24,8h1v1h-1zM7,9h1v1h-1zM9,9h4v1h-4zM15,9h3v1h-3zM20,9h3v1h-3zM24,9h1v1h-1zM7,10h1v1h-1zM9,10h2v1h-2zM13,10h1v1h-1zM18,10h1v1h-1zM21,10h2v1h-2zM24,10h1v1h-1zM7,11h1v1h-1zM9,11h14v1h-14zM24,11h1v1h-1zM7,12h1v1h-1zM9,12h3v1h-3zM20,12h3v1h-3zM24,12h1v1h-1zM7,13h1v1h-1zM9,13h3v1h-3zM13,13h2v1h-2zM16,13h3v1h-3zM20,13h3v1h-3zM24,13h1v1h-1zM7,14h1v1h-1zM9,14h3v1h-3zM20,14h3v1h-3zM24,14h1v1h-1zM7,15h1v1h-1zM9,15h3v1h-3zM13,15h1v1h-1zM16,15h3v1h-3zM20,15h3v1h-3zM24,15h1v1h-1zM7,16h1v1h-1zM9,16h3v1h-3zM20,16h3v1h-3zM24,16h1v1h-1zM7,17h1v1h-1zM9,17h3v1h-3zM13,17h1v1h-1zM16,17h1v1h-1zM18,17h1v1h-1zM20,17h3v1h-3zM24,17h1v1h-1zM7,18h1v1h-1zM9,18h3v1h-3zM13,18h2v1h-2zM16,18h3v1h-3zM20,18h3v1h-3zM24,18h1v1h-1zM7,19h1v1h-1zM9,19h3v1h-3zM20,19h3v1h-3zM24,19h1v1h-1zM7,20h1v1h-1zM9,20h14v1h-14zM24,20h1v1h-1zM7,21h1v1h-1zM9,21h14v1h-14zM24,21h1v1h-1zM7,22h1v1h-1zM9,22h14v1h-14zM24,22h1v1h-1zM7,23h1v1h-1zM9,23h14v1h-14zM24,23h1v1h-1zM7,24h1v1h-1zM9,24h1v1h-1zM22,24h1v1h-1zM24,24h1v1h-1zM7,25h1v1h-1zM9,25h6v1h-6zM17,25h6v1h-6zM24,25h1v1h-1zM7,26h1v1h-1zM9,26h5v1h-5zM15,26h2v1h-2zM18,26h5v1h-5zM24,26h1v1h-1zM7,27h1v1h-1zM9,27h6v1h-6zM17,27h6v1h-6zM24,27h1v1h-1z"/><path fill="#1a1c2c" d="M13,9h2v1h-2zM18,9h2v1h-2zM15,10h2v1h-2z"/><path fill="#ff9eb7" d="M11,10h2v1h-2zM19,10h2v1h-2z"/><path fill="#333c57" d="M14,10h1v1h-1zM17,10h1v1h-1z"/></svg>