<svg xmlns="http://www.w3.org/2000/svg" viewBox="0 0 32 32" shape-rendering="crispEdges"><path fill="#b13e53" d="M16,4h1v1h-1zM11,5h1v1h-1zM13,5h1v1h-1zM14,5h1v1h-1zM15,5h1v1h-1zM16,5h1v1h-1zM17,5h1v1h-1zM18,5h1v1h-1zM19,5h1v1h-1zM21,5h1v1h-1zM10,6h1v1h-1zM12,6h1v1h-1zM13,6h1v1h-1zM14,6h1v1h-1zM15,6h1v1h-1zM16,6h1v1h-1zM17,6h1v1h-1zM18,6h1v1h-1zM19,6h1v1h-1zM20,6h1v1h-1zM22,6h1v1h-1zM11,7h1v1h-1zM12,7h1v1h-1zM13,7h1v1h-1zM14,7h1v1h-1zM15,7h1v1h-1zM16,7h1v1h-1zM17,7h1v1h-1zM18,7h1v1h-1zM19,7h1v1h-1zM20,7h1v1h-1zM21,7h1v1h-1zM11,8h1v1h-1zM12,8h1v1h-1zM13,8h1v1h-1zM14,8h1v1h-1zM15,8h1v1h-1zM16,8h1v1h-1zM17,8h1v1h-1zM18,8h1v1h-1zM19,8h1v1h-1zM20,8h1v1h-1zM21,8h1v1h-1zM11,9h1v1h-1zM12,9h1v1h-1zM15,9h1v1h-1zM17,9h1v1h-1zM20,9h1v1h-1zM21,9h1v1h-1zM10,10h1v1h-1zM11,10h1v1h-1zM12,10h1v1h-1zM20,10h1v1h-1zM21,10h1v1h-1zM22,10h1v1h-1zM11,12h1v1h-1zM21,12h1v1h-1zM11,13h1v1h-1zM12,13h1v1h-1zM20,13h1v1h-1zM21,13h1v1h-1zM12,14h1v1h-1zM13,14h1v1h-1zM19,14h1v1h-1zM20,14h1v1h-1zM13,15h1v1h-1zM14,15h1v1h-1zM15,15h1v1h-1zM17,15h1v1h-1zM18,15h1v1h-1zM19,15h1v1h-1zM13,16h1v1h-1zM14,16h1v1h-1zM15,16h1v1h-1zM16,16h1v1h-1zM17,16h1v1h-1zM18,16h1v1h-1zM19,16h1v1h-1zM12,17h1v1h-1zM13,17h1v1h-1zM14,17h1v1h-1zM15,17h1v1h-1zM16,17h1v1h-1zM17,17h1v1h-1zM18,17h1v1h-1zM19,17h1v1h-1zM20,17h1v1h-1zM11,18h1v1h-1zM12,18h1v1h-1zM13,18h1v1h-1zM14,18h1v1h-1zM15,18h1v1h-1zM17,18h1v1h-1zM18,18h1v1h-1zM19,18h1v1h-1zM20,18h1v1h-1zM21,18h1v1h-1zM11,19h1v1h-1zM12,19h1v1h-1zM13,19h1v1h-1zM19,19h1v1h-1zM20,19h1v1h-1zM21,19h1v1h-1zM10,20h1v1h-1zM11,20h1v1h-1zM12,20h1v1h-1zM20,20h1v1h-1zM21,20h1v1h-1zM22,20h1v1h-1zM11,21h1v1h-1zM21,21h1v1h-1zM11,22h1v1h-1zM12,22h1v1h-1zM20,22h1v1h-1zM21,22h1v1h-1zM12,23h1v1h-1zM13,23h1v1h-1zM19,23h1v1h-1zM20,23h1v1h-1zM14,24h1v1h-1zM15,24h1v1h-1zM17,24h1v1h-1zM16,25h1v1h-1z"/><path fill="#f4f4f4" d="M10,5h1v1h-1zM22,5h1v1h-1zM13,9h1v1h-1zM16,9h1v1h-1zM18,9h1v1h-1zM15,10h1v1h-1zM16,10h1v1h-1zM17,10h1v1h-1zM14,11h1v1h-1zM15,11h1v1h-1zM16,11h1v1h-1zM17,11h1v1h-1zM18,11h1v1h-1zM12,12h1v1h-1zM13,12h1v1h-1zM14,12h1v1h-1zM15,12h1v1h-1zM17,12h1v1h-1zM18,12h1v1h-1zM19,12h1v1h-1zM20,12h1v1h-1zM13,13h1v1h-1zM14,13h1v1h-1zM16,13h1v1h-1zM18,13h1v1h-1zM19,13h1v1h-1zM14,14h1v1h-1zM15,14h1v1h-1zM16,14h1v1h-1zM17,14h1v1h-1zM18,14h1v1h-1zM16,15h1v1h-1z"/><path fill="#1a1c2c" d="M14,9h1v1h-1zM19,9h1v1h-1zM13,10h1v1h-1zM14,10h1v1h-1zM18,10h1v1h-1zM19,10h1v1h-1zM16,12h1v1h-1zM15,13h1v1h-1zM17,13h1v1h-1z"/><path fill="#ff9eb7" d="M11,11h1v1h-1zM12,11h1v1h-1zM20,11h1v1h-1zM21,11h1v1h-1z"/><path fill="#8b5e34" d="M13,11h1v1h-1zM19,11h1v1h-1zM26,17h1v1h-1zM27,17h1v1h-1zM16,18h1v1h-1zM14,19h1v1h-1zM15,19h1v1h-1zM16,19h1v1h-1zM17,19h1v1h-1zM18,19h1v1h-1zM25,19h1v1h-1zM26,19h1v1h-1zM13,20h1v1h-1zM14,20h1v1h-1zM15,20h1v1h-1zM16,20h1v1h-1zM17,20h1v1h-1zM18,20h1v1h-1zM19,20h1v1h-1zM12,21h1v1h-1zM13,21h1v1h-1zM14,21h1v1h-1zM15,21h1v1h-1zM16,21h1v1h-1zM17,21h1v1h-1zM18,21h1v1h-1zM19,21h1v1h-1zM20,21h1v1h-1zM24,21h1v1h-1zM25,21h1v1h-1zM13,22h1v1h-1zM14,22h1v1h-1zM15,22h1v1h-1zM16,22h1v1h-1zM17,22h1v1h-1zM18,22h1v1h-1zM19,22h1v1h-1zM14,23h1v1h-1zM15,23h1v1h-1zM16,23h1v1h-1zM17,23h1v1h-1zM18,23h1v1h-1zM23,23h1v1h-1zM24,23h1v1h-1zM16,24h1v1h-1z"/><path fill="#ef7d57" d="M26,15h1v1h-1zM27,15h1v1h-1zM26,16h1v1h-1zM27,16h1v1h-1zM25,17h1v1h-1zM25,18h1v1h-1zM26,18h1v1h-1zM24,19h1v1h-1zM24,20h1v1h-1zM25,20h1v1h-1zM23,21h1v1h-1zM23,22h1v1h-1zM24,22h1v1h-1z"/><path fill="#333c57" d="M12,24h1v1h-1zM13,24h1v1h-1zM18,24h1v1h-1zM19,24h1v1h-1zM12,25h1v1h-1zM13,25h1v1h-1zM18,25h1v1h-1zM19,25h1v1h-1z"/></svg>