<svg xmlns="http://www.w3.org/2000/svg" width="32" height="32" viewBox="0 0 32 32" shape-rendering="crispEdges">
<path fill="#b13e53" d="M15 0h1v1h-1zM15 1h2v1h-2zM9 11h2v1h-2zM22 11h2v1h-2zM15 19h2v1h-2zM14 20h4v1h-4z"/><path fill="#333c57" d="M15 2h2v1h-2zM15 3h2v1h-2zM12 12h2v1h-2zM19 12h2v1h-2zM14 15h4v1h-4zM13 18h6v1h-6zM13 19h1v1h-1zM18 19h1v1h-1zM13 20h1v1h-1zM18 20h1v1h-1zM13 21h6v1h-6zM10 27h4v1h-4zM18 27h4v1h-4z"/><path fill="#566c86" d="M9 4h14v1h-14zM8 5h1v1h-1zM21 5h3v1h-3zM8 6h1v1h-1zM11 6h13v1h-13zM8 7h2v1h-2zM13 7h6v1h-6zM22 7h2v1h-2zM8 8h2v1h-2zM13 8h6v1h-6zM22 8h2v1h-2zM8 9h2v1h-2zM13 9h6v1h-6zM22 9h2v1h-2zM8 10h16v1h-16zM8 11h1v1h-1zM11 11h11v1h-11zM8 12h4v1h-4zM15 12h1v1h-1zM17 12h1v1h-1zM21 12h3v1h-3zM8 13h7v1h-7zM16 13h1v1h-1zM18 13h6v1h-6zM9 14h14v1h-14zM11 16h10v1h-10zM7 17h18v1h-18zM6 18h3v1h-3zM10 18h3v1h-3zM19 18h3v1h-3zM23 18h3v1h-3zM6 19h3v1h-3zM10 19h3v1h-3zM19 19h3v1h-3zM23 19h3v1h-3zM10 20h3v1h-3zM19 20h3v1h-3zM10 21h3v1h-3zM19 21h3v1h-3zM10 22h12v1h-12zM11 23h10v1h-10zM11 24h3v1h-3zM18 24h3v1h-3zM11 25h3v1h-3zM18 25h3v1h-3zM11 26h3v1h-3zM18 26h3v1h-3z"/><path fill="#94b0c2" d="M9 5h12v1h-12zM9 6h2v1h-2zM6 20h2v1h-2zM24 20h2v1h-2z"/><path fill="#f4f4f4" d="M10 7h1v1h-1zM19 7h1v1h-1z"/><path fill="#73eff7" d="M11 7h2v1h-2zM20 7h2v1h-2zM10 8h3v1h-3zM19 8h3v1h-3zM10 9h3v1h-3zM19 9h3v1h-3z"/><path fill="#1a1c2c" d="M14 12h1v1h-1zM16 12h1v1h-1zM18 12h1v1h-1zM15 13h1v1h-1zM17 13h1v1h-1z"/><path fill="#41a6f6" d="M14 19h1v1h-1zM17 19h1v1h-1z"/>
</svg>