<svg xmlns="http://www.w3.org/2000/svg" width="32" height="32" viewBox="0 0 32 32" shape-rendering="crispEdges">
<path fill="#41a6f6" d="M12 1h1v1h-1zM14 1h1v1h-1zM17 1h1v1h-1zM19 1h1v1h-1zM14 7h1v1h-1zM18 7h1v1h-1zM13 8h2v1h-2zM17 8h2v1h-2z"/>
<path fill="#73eff7" d="M13 1h1v1h-1zM18 1h1v1h-1zM13 7h1v1h-1zM17 7h1v1h-1z"/>
<path fill="#566c86" d="M13 2h1v1h-1zM18 2h1v1h-1zM14 3h1v1h-1zM17 3h1v1h-1zM14 4h1v1h-1zM17 4h1v1h-1zM12 6h8v1h-8zM12 7h1v1h-1zM15 7h2v1h-2zM19 7h1v1h-1zM12 8h1v1h-1zM15 8h2v1h-2zM19 8h1v1h-1zM12 9h8v1h-8zM12 10h2v1h-2zM18 10h2v1h-2zM14 12h4v1h-4zM12 14h8v1h-8zM8 15h1v1h-1zM11 15h1v1h-1zM20 15h1v1h-1zM23 15h1v1h-1zM8 16h1v1h-1zM11 16h4v1h-4zM17 16h4v1h-4zM23 16h1v1h-1zM8 17h1v1h-1zM11 17h4v1h-4zM17 17h4v1h-4zM23 17h1v1h-1zM8 18h1v1h-1zM11 18h10v1h-10zM23 18h1v1h-1zM11 19h1v1h-1zM20 19h1v1h-1zM7 20h3v1h-3zM12 20h8v1h-8zM22 20h3v1h-3zM7 21h3v1h-3zM22 21h3v1h-3zM11 26h10v1h-10zM11 27h10v1h-10z"/>
<path fill="#94b0c2" d="M13 3h1v1h-1zM18 3h1v1h-1zM11 5h10v1h-10zM11 6h1v1h-1zM20 6h1v1h-1zM11 7h1v1h-1zM20 7h1v1h-1zM11 8h1v1h-1zM20 8h1v1h-1zM11 9h1v1h-1zM20 9h1v1h-1zM11 10h1v1h-1zM20 10h1v1h-1zM11 11h10v1h-10zM10 13h12v1h-12zM7 14h4v1h-4zM21 14h4v1h-4zM7 15h1v1h-1zM9 15h2v1h-2zM21 15h2v1h-2zM24 15h1v1h-1zM7 16h1v1h-1zM9 16h2v1h-2zM21 16h2v1h-2zM24 16h1v1h-1zM7 17h1v1h-1zM9 17h2v1h-2zM21 17h2v1h-2zM24 17h1v1h-1zM7 18h1v1h-1zM9 18h2v1h-2zM21 18h2v1h-2zM24 18h1v1h-1zM7 19h4v1h-4zM21 19h4v1h-4zM10 20h1v1h-1zM21 20h1v1h-1zM10 21h12v1h-12zM12 22h3v1h-3zM17 22h3v1h-3zM12 23h3v1h-3zM17 23h3v1h-3zM12 24h3v1h-3zM17 24h3v1h-3zM12 25h3v1h-3zM17 25h3v1h-3z"/>
<path fill="#333c57" d="M14 10h4v1h-4zM11 14h1v1h-1zM20 14h1v1h-1zM12 15h8v1h-8zM12 19h8v1h-8zM11 20h1v1h-1zM20 20h1v1h-1z"/>
<path fill="#b13e53" d="M15 16h2v1h-2zM15 17h2v1h-2z"/>
</svg>