<svg xmlns="http://www.w3.org/2000/svg" viewBox="0 0 32 32" shape-rendering="crispEdges"><path fill="#b13e53" d="M15,3h1v1h-1zM16,3h1v1h-1zM14,4h1v1h-1zM15,4h1v1h-1zM16,4h1v1h-1zM17,4h1v1h-1zM14,5h1v1h-1zM15,5h1v1h-1zM16,5h1v1h-1zM17,5h1v1h-1zM12,19h1v1h-1zM19,19h1v1h-1zM11,20h1v1h-1zM12,20h1v1h-1zM19,20h1v1h-1zM20,20h1v1h-1zM10,21h1v1h-1zM11,21h1v1h-1zM12,21h1v1h-1zM19,21h1v1h-1zM20,21h1v1h-1zM21,21h1v1h-1zM13,24h1v1h-1zM18,24h1v1h-1zM15,27h1v1h-1zM16,27h1v1h-1zM15,28h1v1h-1z"/><path fill="#ffcd75" d="M26,4h1v1h-1zM25,5h1v1h-1zM26,5h1v1h-1zM27,5h1v1h-1zM26,6h1v1h-1zM5,7h1v1h-1zM4,8h1v1h-1zM5,8h1v1h-1zM6,8h1v1h-1zM5,9h1v1h-1zM27,12h1v1h-1zM14,22h1v1h-1zM15,22h1v1h-1zM16,22h1v1h-1zM17,22h1v1h-1zM13,23h1v1h-1zM14,23h1v1h-1zM15,23h1v1h-1zM16,23h1v1h-1zM17,23h1v1h-1zM18,23h1v1h-1zM3,24h1v1h-1z"/><path fill="#94b0c2" d="M13,6h1v1h-1zM18,6h1v1h-1zM13,7h1v1h-1zM18,7h1v1h-1zM13,8h1v1h-1zM18,8h1v1h-1zM13,9h1v1h-1zM18,9h1v1h-1zM13,10h1v1h-1zM18,10h1v1h-1zM13,12h1v1h-1zM18,12h1v1h-1zM13,13h1v1h-1zM18,13h1v1h-1zM13,14h1v1h-1zM18,14h1v1h-1zM13,15h1v1h-1zM18,15h1v1h-1zM13,16h1v1h-1zM18,16h1v1h-1zM13,17h1v1h-1zM18,17h1v1h-1zM13,18h1v1h-1zM18,18h1v1h-1zM13,19h1v1h-1zM18,19h1v1h-1zM13,20h1v1h-1zM18,20h1v1h-1zM13,21h1v1h-1zM18,21h1v1h-1z"/><path fill="#f4f4f4" d="M14,6h1v1h-1zM15,6h1v1h-1zM16,6h1v1h-1zM17,6h1v1h-1zM14,7h1v1h-1zM15,7h1v1h-1zM16,7h1v1h-1zM17,7h1v1h-1zM14,8h1v1h-1zM15,8h1v1h-1zM16,8h1v1h-1zM17,8h1v1h-1zM14,9h1v1h-1zM17,9h1v1h-1zM14,11h1v1h-1zM17,11h1v1h-1zM15,12h1v1h-1zM16,12h1v1h-1zM14,13h1v1h-1zM17,13h1v1h-1zM14,14h1v1h-1zM15,14h1v1h-1zM16,14h1v1h-1zM17,14h1v1h-1zM14,15h1v1h-1zM15,15h1v1h-1zM16,15h1v1h-1zM17,15h1v1h-1zM14,16h1v1h-1zM15,16h1v1h-1zM16,16h1v1h-1zM17,16h1v1h-1zM14,17h1v1h-1zM15,17h1v1h-1zM16,17h1v1h-1zM17,17h1v1h-1zM14,18h1v1h-1zM15,18h1v1h-1zM16,18h1v1h-1zM17,18h1v1h-1zM14,19h1v1h-1zM15,19h1v1h-1zM16,19h1v1h-1zM17,19h1v1h-1zM14,20h1v1h-1zM15,20h1v1h-1zM16,20h1v1h-1zM17,20h1v1h-1zM14,21h1v1h-1zM15,21h1v1h-1zM16,21h1v1h-1zM17,21h1v1h-1z"/><path fill="#73eff7" d="M15,9h1v1h-1zM16,9h1v1h-1zM24,16h1v1h-1zM8,18h1v1h-1z"/><path fill="#41a6f6" d="M14,10h1v1h-1zM15,10h1v1h-1zM16,10h1v1h-1zM17,10h1v1h-1zM15,11h1v1h-1zM16,11h1v1h-1z"/><path fill="#ff9eb7" d="M13,11h1v1h-1zM18,11h1v1h-1z"/><path fill="#1a1c2c" d="M14,12h1v1h-1zM17,12h1v1h-1zM15,13h1v1h-1zM16,13h1v1h-1z"/><path fill="#ef7d57" d="M14,24h1v1h-1zM15,24h1v1h-1zM16,24h1v1h-1zM17,24h1v1h-1zM14,25h1v1h-1zM15,25h1v1h-1zM16,25h1v1h-1zM17,25h1v1h-1zM15,26h1v1h-1zM16,26h1v1h-1z"/></svg>