<svg xmlns="http://www.w3.org/2000/svg" viewBox="0 0 32 32" shape-rendering="crispEdges">
<path fill="#b13e53" d="M16,6h1v1h-1zM13,7h1v1h-1zM14,7h1v1h-1zM15,7h1v1h-1zM16,7h1v1h-1zM17,7h1v1h-1zM18,7h1v1h-1zM19,7h1v1h-1zM12,8h1v1h-1zM13,8h1v1h-1zM14,8h1v1h-1zM15,8h1v1h-1zM16,8h1v1h-1zM17,8h1v1h-1zM18,8h1v1h-1zM19,8h1v1h-1zM20,8h1v1h-1zM11,9h1v1h-1zM12,9h1v1h-1zM13,9h1v1h-1zM14,9h1v1h-1zM15,9h1v1h-1zM16,9h1v1h-1zM17,9h1v1h-1zM18,9h1v1h-1zM19,9h1v1h-1zM20,9h1v1h-1zM21,9h1v1h-1zM11,10h1v1h-1zM12,10h1v1h-1zM13,10h1v1h-1zM14,10h1v1h-1zM15,10h1v1h-1zM16,10h1v1h-1zM17,10h1v1h-1zM18,10h1v1h-1zM19,10h1v1h-1zM20,10h1v1h-1zM21,10h1v1h-1zM11,11h1v1h-1zM12,11h1v1h-1zM13,11h1v1h-1zM14,11h1v1h-1zM15,11h1v1h-1zM16,11h1v1h-1zM17,11h1v1h-1zM18,11h1v1h-1zM19,11h1v1h-1zM20,11h1v1h-1zM21,11h1v1h-1zM10,12h1v1h-1zM11,12h1v1h-1zM12,12h1v1h-1zM13,12h1v1h-1zM14,12h1v1h-1zM15,12h1v1h-1zM16,12h1v1h-1zM17,12h1v1h-1zM18,12h1v1h-1zM19,12h1v1h-1zM20,12h1v1h-1zM21,12h1v1h-1zM22,12h1v1h-1zM11,13h1v1h-1zM12,13h1v1h-1zM13,13h1v1h-1zM14,13h1v1h-1zM15,13h1v1h-1zM16,13h1v1h-1zM17,13h1v1h-1zM18,13h1v1h-1zM19,13h1v1h-1zM20,13h1v1h-1zM21,13h1v1h-1zM11,14h1v1h-1zM12,14h1v1h-1zM13,14h1v1h-1zM14,14h1v1h-1zM15,14h1v1h-1zM16,14h1v1h-1zM17,14h1v1h-1zM18,14h1v1h-1zM19,14h1v1h-1zM20,14h1v1h-1zM21,14h1v1h-1zM11,15h1v1h-1zM12,15h1v1h-1zM13,15h1v1h-1zM14,15h1v1h-1zM15,15h1v1h-1zM16,15h1v1h-1zM17,15h1v1h-1zM18,15h1v1h-1zM19,15h1v1h-1zM20,15h1v1h-1zM21,15h1v1h-1zM12,16h1v1h-1zM13,16h1v1h-1zM14,16h1v1h-1zM15,16h1v1h-1zM16,16h1v1h-1zM17,16h1v1h-1zM18,16h1v1h-1zM19,16h1v1h-1zM20,16h1v1h-1zM13,17h1v1h-1zM14,17h1v1h-1zM15,17h1v1h-1zM16,17h1v1h-1zM17,17h1v1h-1zM18,17h1v1h-1zM19,17h1v1h-1zM16,18h1v1h-1zM16,8h1v1h-1zM14,9h1v1h-1zM15,9h1v1h-1zM16,9h1v1h-1zM17,9h1v1h-1zM18,9h1v1h-1zM13,10h1v1h-1zM14,10h1v1h-1zM15,10h1v1h-1zM16,10h1v1h-1zM17,10h1v1h-1zM18,10h1v1h-1zM19,10h1v1h-1zM13,11h1v1h-1zM14,11h1v1h-1zM15,11h1v1h-1zM16,11h1v1h-1zM17,11h1v1h-1zM18,11h1v1h-1zM19,11h1v1h-1zM12,12h1v1h-1zM13,12h1v1h-1zM14,12h1v1h-1zM15,12h1v1h-1zM16,12h1v1h-1zM17,12h1v1h-1zM18,12h1v1h-1zM19,12h1v1h-1zM20,12h1v1h-1zM13,13h1v1h-1zM14,13h1v1h-1zM15,13h1v1h-1zM16,13h1v1h-1zM17,13h1v1h-1zM18,13h1v1h-1zM19,13h1v1h-1zM13,14h1v1h-1zM14,14h1v1h-1zM15,14h1v1h-1zM16,14h1v1h-1zM17,14h1v1h-1zM18,14h1v1h-1zM19,14h1v1h-1zM14,15h1v1h-1zM15,15h1v1h-1zM16,15h1v1h-1zM17,15h1v1h-1zM18,15h1v1h-1zM16,16h1v1h-1z"/>
<path fill="#5d275d" d="M16,10h1v1h-1zM15,11h1v1h-1zM16,11h1v1h-1zM17,11h1v1h-1zM14,12h1v1h-1zM15,12h1v1h-1zM16,12h1v1h-1zM17,12h1v1h-1zM18,12h1v1h-1zM15,13h1v1h-1zM16,13h1v1h-1zM17,13h1v1h-1zM16,14h1v1h-1zM16,10h1v1h-1zM17,10h1v1h-1zM18,10h1v1h-1zM18,11h1v1h-1zM18,12h1v1h-1zM17,14h1v1h-1zM16,14h1v1h-1zM15,14h1v1h-1zM14,13h1v1h-1zM14,12h1v1h-1zM15,10h1v1h-1zM14,10h1v1h-1zM14,11h1v1h-1z"/>
<path fill="#ff9eb7" d="M11,10h1v1h-1zM10,11h1v1h-1zM10,12h1v1h-1zM10,13h1v1h-1zM11,14h1v1h-1zM12,15h1v1h-1zM13,16h1v1h-1zM14,17h1v1h-1zM21,10h1v1h-1zM22,11h1v1h-1zM22,12h1v1h-1zM22,13h1v1h-1zM21,14h1v1h-1zM20,15h1v1h-1zM19,16h1v1h-1zM18,17h1v1h-1zM13,7h1v1h-1zM14,7h1v1h-1zM18,7h1v1h-1zM19,7h1v1h-1zM14,12h1v1h-1zM18,12h1v1h-1zM5,6h1v1h-1zM7,6h1v1h-1zM4,7h1v1h-1zM6,7h1v1h-1zM8,7h1v1h-1zM5,8h1v1h-1zM7,8h1v1h-1zM6,9h1v1h-1zM23,5h1v1h-1zM25,5h1v1h-1zM22,6h1v1h-1zM24,6h1v1h-1zM26,6h1v1h-1zM23,7h1v1h-1zM25,7h1v1h-1zM24,8h1v1h-1zM24,17h1v1h-1zM26,17h1v1h-1zM23,18h1v1h-1zM25,18h1v1h-1zM27,18h1v1h-1zM24,19h1v1h-1zM26,19h1v1h-1zM25,20h1v1h-1z"/>
<path fill="#1a1c2c" d="M15,11h1v1h-1zM17,11h1v1h-1zM15,13h1v1h-1zM16,13h1v1h-1zM17,13h1v1h-1z"/>
<path fill="#38b764" d="M15,18h1v1h-1zM16,18h1v1h-1zM15,19h1v1h-1zM16,19h1v1h-1zM15,20h1v1h-1zM16,20h1v1h-1zM15,21h1v1h-1zM16,21h1v1h-1zM15,22h1v1h-1zM16,22h1v1h-1zM15,23h1v1h-1zM16,23h1v1h-1zM15,24h1v1h-1zM16,24h1v1h-1zM15,25h1v1h-1zM16,25h1v1h-1zM15,26h1v1h-1zM16,26h1v1h-1zM15,27h1v1h-1zM16,27h1v1h-1zM15,28h1v1h-1zM16,28h1v1h-1zM15,29h1v1h-1zM16,29h1v1h-1zM14,20h1v1h-1zM13,19h1v1h-1zM17,23h1v1h-1zM18,22h1v1h-1zM13,21h1v1h-1zM12,21h1v1h-1zM11,21h1v1h-1zM12,22h1v1h-1zM11,22h1v1h-1zM10,22h1v1h-1zM18,24h1v1h-1zM19,24h1v1h-1zM20,24h1v1h-1zM19,25h1v1h-1zM20,25h1v1h-1zM21,25h1v1h-1z"/>
<path fill="#a7f070" d="M10,21h1v1h-1zM21,24h1v1h-1z"/>
</svg>