<svg xmlns="http://www.w3.org/2000/svg" viewBox="0 0 32 32" shape-rendering="crispEdges"><path fill="#ffcd75" d="M16,5h1v1h-1zM13,6h7v1h-7zM12,7h9v1h-9zM11,8h3v1h-3zM15,8h4v1h-4zM20,8h2v1h-2zM11,9h2v1h-2zM16,9h2v1h-2zM21,9h1v1h-1zM11,10h1v1h-1zM10,11h3v1h-3zM16,11h2v1h-2zM21,11h1v1h-1zM11,12h3v1h-3zM15,12h4v1h-4zM20,12h2v1h-2zM13,13h7v1h-7zM11,14h11v1h-11zM10,15h13v1h-13zM10,16h13v1h-13zM9,17h15v1h-15zM9,18h15v1h-15zM9,19h15v1h-15zM8,20h17v1h-17zM9,21h15v1h-15zM9,22h15v1h-15zM9,23h15v1h-15zM10,24h13v1h-13zM10,25h13v1h-13zM11,26h11v1h-11zM13,27h7v1h-7zM16,28h1v1h-1z"/><path fill="#f4f4f4" d="M14,8h1v1h-1zM19,8h1v1h-1zM13,9h3v1h-3zM18,9h3v1h-3zM12,10h2v1h-2zM16,10h3v1h-3zM21,10h1v1h-1zM13,11h3v1h-3zM18,11h3v1h-3zM14,12h1v1h-1zM19,12h1v1h-1zM28,15h1v1h-1zM27,16h1v1h-1zM29,16h1v1h-1zM5,17h1v1h-1zM4,18h1v1h-1zM26,20h1v1h-1zM3,21h1v1h-1zM7,24h2v1h-2zM23,24h2v1h-2z"/><path fill="#1a1c2c" d="M14,10h2v1h-2zM19,10h2v1h-2z"/><path fill="#ef7d57" d="M22,10h5v1h-5zM22,11h5v1h-5zM22,12h4v1h-4z"/><path fill="#ff9eb7" d="M11,13h2v1h-2zM20,13h2v1h-2z"/><path fill="#73eff7" d="M0,24h7v1h-7zM9,24h1v1h-1zM25,24h7v1h-7zM0,25h10v1h-10zM23,25h9v1h-9z"/><path fill="#41a6f6" d="M0,26h11v1h-11zM22,26h10v1h-10zM0,27h13v1h-13zM20,27h12v1h-12zM0,28h16v1h-16zM17,28h15v1h-15zM0,29h32v1h-32zM0,30h32v1h-32zM0,31h32v1h-32z"/></svg>