<svg xmlns="http://www.w3.org/2000/svg" viewBox="0 0 32 32" shape-rendering="crispEdges"><path fill="#f4f4f4" d="M6,6h1v1h-1zM25,6h1v1h-1zM7,7h1v1h-1zM24,7h1v1h-1zM15,8h2v1h-2zM14,9h4v1h-4zM4,10h1v1h-1zM15,10h2v1h-2zM27,10h1v1h-1zM3,11h1v1h-1zM5,11h1v1h-1zM26,11h1v1h-1zM28,11h1v1h-1zM4,12h1v1h-1zM27,12h1v1h-1zM26,14h1v1h-1zM5,15h1v1h-1z"/><path fill="#ff9eb7" d="M13,8h2v1h-2zM17,8h2v1h-2zM13,9h1v1h-1zM18,9h1v1h-1zM13,10h2v1h-2zM17,10h2v1h-2zM15,11h2v1h-2z"/><path fill="#b13e53" d="M11,11h1v1h-1zM13,11h2v1h-2zM17,11h2v1h-2zM20,11h1v1h-1zM12,12h8v1h-8zM11,13h10v1h-10zM10,14h12v1h-12zM10,15h12v1h-12zM10,16h12v1h-12zM9,17h14v1h-14zM9,18h14v1h-14zM9,19h14v1h-14zM12,20h1v1h-1zM19,20h1v1h-1zM14,23h1v1h-1zM17,23h1v1h-1z"/><path fill="#5d275d" d="M12,11h1v1h-1zM19,11h1v1h-1zM11,12h1v1h-1zM20,12h1v1h-1zM10,13h1v1h-1zM21,13h1v1h-1zM11,20h1v1h-1zM13,20h6v1h-6zM20,20h1v1h-1zM11,21h10v1h-10zM11,22h10v1h-10zM13,23h1v1h-1zM15,23h2v1h-2zM18,23h1v1h-1zM13,24h6v1h-6zM15,25h2v1h-2zM15,26h2v1h-2z"/><path fill="#ffcd75" d="M8,24h1v1h-1zM23,25h1v1h-1z"/></svg>