<svg xmlns="http://www.w3.org/2000/svg" viewBox="0 0 32 32" shape-rendering="crispEdges"><path fill="#566c86" d="M15,4h1v1h-1ZM12,5h3v1h-3ZM16,5h3v1h-3ZM11,6h1v1h-1ZM19,6h1v1h-1ZM10,7h1v1h-1ZM20,7h1v1h-1ZM9,8h1v1h-1ZM21,8h1v1h-1ZM8,9h2v1h-2ZM21,9h2v1h-2ZM8,10h1v1h-1ZM22,10h1v1h-1ZM7,11h2v1h-2ZM22,11h2v1h-2ZM7,12h2v1h-2ZM22,12h2v1h-2ZM7,13h2v1h-2ZM22,13h2v1h-2ZM7,14h2v1h-2ZM22,14h2v1h-2ZM7,15h1v1h-1ZM23,15h1v1h-1ZM6,16h3v1h-3ZM22,16h3v1h-3ZM7,17h2v1h-2ZM22,17h2v1h-2ZM7,18h2v1h-2ZM22,18h2v1h-2ZM7,19h2v1h-2ZM22,19h1v1h-1ZM7,21h1v1h-1ZM9,21h1v1h-1ZM21,21h3v1h-3ZM8,22h3v1h-3ZM20,22h3v1h-3ZM8,23h3v1h-3ZM20,23h3v1h-3ZM9,24h3v1h-3ZM19,24h3v1h-3ZM10,25h5v1h-5ZM16,25h5v1h-5ZM11,26h9v1h-9ZM12,27h7v1h-7ZM15,28h1v1h-1Z"/><path fill="#94b0c2" d="M15,5h1v1h-1ZM12,6h7v1h-7ZM11,7h9v1h-9ZM11,8h9v1h-9ZM10,9h1v1h-1ZM13,9h6v1h-6ZM9,10h2v1h-2ZM12,10h1v1h-1ZM14,10h5v1h-5ZM21,10h1v1h-1ZM9,11h2v1h-2ZM12,11h7v1h-7ZM20,11h2v1h-2ZM10,12h2v1h-2ZM13,12h5v1h-5ZM19,12h2v1h-2ZM9,13h2v1h-2ZM12,13h1v1h-1ZM14,13h3v1h-3ZM18,13h1v1h-1ZM20,13h2v1h-2ZM9,14h13v1h-13ZM8,15h4v1h-4ZM14,15h3v1h-3ZM19,15h4v1h-4ZM9,16h3v1h-3ZM14,16h3v1h-3ZM19,16h3v1h-3ZM9,17h1v1h-1ZM12,17h7v1h-7ZM21,17h1v1h-1ZM9,18h13v1h-13ZM9,19h5v1h-5ZM15,19h1v1h-1ZM17,19h5v1h-5ZM9,20h6v1h-6ZM16,20h6v1h-6ZM10,21h11v1h-11ZM11,22h9v1h-9ZM11,23h9v1h-9ZM12,24h7v1h-7ZM15,25h1v1h-1Z"/><path fill="#f4f4f4" d="M4,6h1v1h-1ZM27,8h1v1h-1ZM3,14h1v1h-1ZM12,15h1v1h-1ZM17,15h1v1h-1ZM28,16h1v1h-1Z"/><path fill="#41a6f6" d="M10,8h1v1h-1ZM20,8h1v1h-1ZM9,12h1v1h-1ZM21,12h1v1h-1Z"/><path fill="#73eff7" d="M11,9h2v1h-2ZM19,9h2v1h-2ZM5,10h1v1h-1ZM11,10h1v1h-1ZM13,10h1v1h-1ZM19,10h2v1h-2ZM11,11h1v1h-1ZM19,11h1v1h-1ZM26,11h1v1h-1ZM12,12h1v1h-1ZM18,12h1v1h-1ZM11,13h1v1h-1ZM13,13h1v1h-1ZM17,13h1v1h-1ZM19,13h1v1h-1Z"/><path fill="#1a1c2c" d="M13,15h1v1h-1ZM18,15h1v1h-1ZM12,16h2v1h-2ZM17,16h2v1h-2ZM14,19h1v1h-1ZM16,19h1v1h-1ZM15,20h1v1h-1Z"/><path fill="#ff9eb7" d="M10,17h2v1h-2ZM19,17h2v1h-2Z"/><path fill="#38b764" d="M23,19h1v1h-1ZM7,20h1v1h-1ZM22,20h1v1h-1ZM8,21h1v1h-1ZM24,23h1v1h-1ZM6,24h1v1h-1Z"/><path fill="#a7f070" d="M8,20h1v1h-1ZM23,20h1v1h-1ZM25,23h1v1h-1ZM7,24h1v1h-1Z"/><path fill="#8b5e34" d="M0,28h3v1h-3ZM4,28h11v1h-11ZM16,28h9v1h-9ZM26,28h6v1h-6ZM0,29h15v1h-15ZM16,29h16v1h-16ZM0,30h32v1h-32ZM0,31h32v1h-32Z"/><path fill="#ef7d57" d="M3,28h1v1h-1ZM25,28h1v1h-1ZM15,29h1v1h-1Z"/></svg>