<svg xmlns="http://www.w3.org/2000/svg" viewBox="0 0 32 32" shape-rendering="crispEdges"><path fill="#b13e53" d="M16 2h4v1h-4zM16 3h3v1h-3zM17 8h3v1h-3zM17 16h9v1h-9z"/><path fill="#333c57" d="M16 4h1v1h-1zM16 5h1v1h-1zM16 6h1v1h-1zM16 7h1v1h-1zM16 8h1v1h-1zM16 9h1v1h-1zM16 10h1v1h-1zM16 11h1v1h-1zM16 12h1v1h-1zM16 13h1v1h-1zM16 14h1v1h-1zM16 15h1v1h-1zM16 16h1v1h-1zM16 17h1v1h-1zM16 18h1v1h-1zM16 19h1v1h-1z"/><path fill="#f4f4f4" d="M17 4h1v1h-1zM17 5h1v1h-1zM17 6h2v1h-2zM17 7h3v1h-3zM20 8h1v1h-1zM17 9h5v1h-5zM17 10h5v1h-5zM17 11h6v1h-6zM23 12h1v1h-1zM17 13h8v1h-8zM17 14h9v1h-9zM17 15h9v1h-9zM26 16h1v1h-1zM17 17h11v1h-11zM17 18h12v1h-12z"/><path fill="#3b5dc9" d="M17 12h6v1h-6z"/><path fill="#8b5e34" d="M8 20h16v1h-16zM6 21h9v1h-9zM16 21h1v1h-1zM18 21h8v1h-8zM6 22h4v1h-4zM11 22h3v1h-3zM17 22h1v1h-1zM19 22h1v1h-1zM21 22h5v1h-5zM6 23h20v1h-20z"/><path fill="#1a1c2c" d="M15 21h1v1h-1zM17 21h1v1h-1zM16 22h1v1h-1z"/><path fill="#ef7d57" d="M10 22h1v1h-1zM15 22h1v1h-1zM20 22h1v1h-1z"/><path fill="#ff9eb7" d="M14 22h1v1h-1zM18 22h1v1h-1z"/><path fill="#73eff7" d="M0 24h2v1h-2zM4 24h2v1h-2zM8 24h2v1h-2zM12 24h2v1h-2zM16 24h2v1h-2zM20 24h2v1h-2zM24 24h2v1h-2zM28 24h2v1h-2zM2 26h2v1h-2zM6 26h2v1h-2zM10 26h2v1h-2zM14 26h2v1h-2zM18 26h2v1h-2zM22 26h2v1h-2zM26 26h2v1h-2zM30 26h2v1h-2z"/><path fill="#41a6f6" d="M2 24h2v1h-2zM6 24h2v1h-2zM10 24h2v1h-2zM14 24h2v1h-2zM18 24h2v1h-2zM22 24h2v1h-2zM26 24h2v1h-2zM30 24h2v1h-2zM0 25h32v1h-32zM0 26h2v1h-2zM4 26h2v1h-2zM8 26h2v1h-2zM12 26h2v1h-2zM16 26h2v1h-2zM20 26h2v1h-2zM24 26h2v1h-2zM28 26h2v1h-2zM0 27h32v1h-32zM0 28h32v1h-32zM0 29h32v1h-32zM0 30h32v1h-32zM0 31h32v1h-32z"/></svg>