<svg xmlns="http://www.w3.org/2000/svg" width="32" height="32" viewBox="0 0 32 32" shape-rendering="crispEdges">
<path fill="#1a1c2c" d="M23 4h1v1h-1z"/><path fill="#ffcd75" d="M24 4h1v1h-1zM23 5h1v1h-1zM24 5h1v1h-1zM25 5h1v1h-1zM24 6h1v1h-1zM25 6h1v1h-1zM23 7h1v1h-1zM25 7h1v1h-1z"/><path fill="#ef7d57" d="M26 5h1v1h-1z"/><path fill="#ff9eb7" d="M21 7h1v1h-1zM22 7h1v1h-1zM21 8h1v1h-1zM23 8h1v1h-1zM18 9h1v1h-1zM21 9h1v1h-1zM22 9h1v1h-1zM23 9h1v1h-1zM17 10h1v1h-1zM19 10h1v1h-1zM18 11h1v1h-1zM15 12h1v1h-1zM16 12h1v1h-1zM17 12h1v1h-1zM12 13h1v1h-1zM13 13h1v1h-1zM14 13h1v1h-1zM15 13h1v1h-1zM17 13h1v1h-1zM12 14h1v1h-1zM14 14h1v1h-1zM15 14h1v1h-1zM16 14h1v1h-1zM17 14h1v1h-1zM12 15h1v1h-1zM13 15h1v1h-1zM14 15h1v1h-1zM26 15h1v1h-1zM7 17h1v1h-1zM8 17h1v1h-1zM9 17h1v1h-1zM7 18h1v1h-1zM9 18h1v1h-1zM20 18h1v1h-1zM6 19h1v1h-1zM8 19h1v1h-1zM9 19h1v1h-1zM28 19h1v1h-1zM5 20h1v1h-1zM7 20h1v1h-1zM22 20h1v1h-1zM6 21h1v1h-1zM24 22h1v1h-1zM15 24h1v1h-1z"/><path fill="#f4f4f4" d="M22 8h1v1h-1zM17 9h1v1h-1zM19 9h1v1h-1zM18 10h1v1h-1zM17 11h1v1h-1zM19 11h1v1h-1zM16 13h1v1h-1zM13 14h1v1h-1zM8 18h1v1h-1zM5 19h1v1h-1zM7 19h1v1h-1zM6 20h1v1h-1zM5 21h1v1h-1zM7 21h1v1h-1z"/><path fill="#8b5e34" d="M20 10h1v1h-1zM21 10h1v1h-1zM20 11h1v1h-1zM18 12h1v1h-1zM19 12h1v1h-1zM18 13h1v1h-1zM15 15h1v1h-1zM16 15h1v1h-1zM12 16h1v1h-1zM14 16h1v1h-1zM15 16h1v1h-1zM11 17h1v1h-1zM13 17h1v1h-1zM14 17h1v1h-1zM10 18h1v1h-1zM13 18h1v1h-1zM12 19h1v1h-1zM11 20h1v1h-1zM12 20h1v1h-1zM10 21h1v1h-1zM11 21h1v1h-1zM9 22h1v1h-1zM10 22h1v1h-1zM8 23h1v1h-1zM9 23h1v1h-1zM7 24h1v1h-1zM8 24h1v1h-1zM6 25h1v1h-1zM7 25h1v1h-1zM5 26h1v1h-1zM6 26h1v1h-1zM4 27h1v1h-1zM5 27h1v1h-1zM3 28h1v1h-1zM4 28h1v1h-1zM3 29h1v1h-1z"/>
</svg>