<svg xmlns="http://www.w3.org/2000/svg" width="32" height="32" viewBox="0 0 32 32" shape-rendering="crispEdges">
<path fill="#ff69b4" d="M9 2h2v1h-2zM17 2h3v1h-3zM12 3h1v1h-1zM16 3h1v1h-1zM21 3h1v1h-1zM5 4h1v1h-1zM9 4h1v1h-1zM11 4h1v1h-1zM5 5h1v1h-1zM8 5h1v1h-1zM14 5h1v1h-1zM17 5h2v1h-2zM6 6h1v1h-1zM11 6h1v1h-1zM13 6h1v1h-1zM21 6h1v1h-1zM13 7h1v1h-1zM22 7h1v1h-1zM10 8h2v1h-2zM16 8h2v1h-2zM19 8h1v1h-1zM17 9h1v1h-1zM21 9h1v1h-1zM9 10h1v1h-1zM11 10h1v1h-1zM13 10h1v1h-1zM16 10h1v1h-1zM18 10h1v1h-1zM20 10h1v1h-1zM26 10h1v1h-1zM13 11h1v1h-1zM19 11h5v1h-5zM11 12h1v1h-1zM21 12h1v1h-1zM10 13h3v1h-3zM15 13h2v1h-2zM18 13h1v1h-1zM22 13h1v1h-1zM10 14h2v1h-2zM16 14h2v1h-2zM19 14h1v1h-1zM10 15h1v1h-1zM16 15h1v1h-1zM21 15h3v1h-3zM22 20h1v1h-1zM25 24h1v1h-1zM10 26h1v1h-1z"/>
<path fill="#db2777" d="M13 2h1v1h-1zM14 3h2v1h-2zM17 3h1v1h-1zM12 4h1v1h-1zM15 4h1v1h-1zM18 4h1v1h-1zM22 4h1v1h-1zM9 5h2v1h-2zM15 5h2v1h-2zM19 5h1v1h-1zM23 5h1v1h-1zM9 6h1v1h-1zM12 6h1v1h-1zM15 6h1v1h-1zM9 7h1v1h-1zM12 7h1v1h-1zM17 7h2v1h-2zM23 7h1v1h-1zM9 8h1v1h-1zM6 9h1v1h-1zM8 9h1v1h-1zM12 9h1v1h-1zM19 9h2v1h-2zM12 10h1v1h-1zM15 10h1v1h-1zM19 10h1v1h-1zM23 10h1v1h-1zM10 11h1v1h-1zM12 11h1v1h-1zM9 12h1v1h-1zM15 12h2v1h-2zM18 12h1v1h-1zM9 14h1v1h-1zM12 14h1v1h-1zM12 15h1v1h-1zM14 15h1v1h-1z"/>
<path fill="#ffb7c5" d="M14 2h2v1h-2zM9 3h2v1h-2zM13 3h1v1h-1zM18 3h2v1h-2zM8 4h1v1h-1zM13 4h2v1h-2zM19 4h3v1h-3zM23 4h1v1h-1zM26 4h1v1h-1zM6 5h1v1h-1zM11 5h1v1h-1zM13 5h1v1h-1zM20 5h1v1h-1zM25 5h1v1h-1zM14 6h1v1h-1zM16 6h1v1h-1zM20 6h1v1h-1zM22 6h2v1h-2zM26 6h1v1h-1zM10 7h1v1h-1zM14 7h2v1h-2zM19 7h3v1h-3zM13 8h3v1h-3zM18 8h1v1h-1zM20 8h4v1h-4zM10 9h2v1h-2zM13 9h4v1h-4zM22 9h2v1h-2zM25 9h2v1h-2zM6 10h1v1h-1zM14 10h1v1h-1zM17 10h1v1h-1zM21 10h1v1h-1zM25 10h1v1h-1zM9 11h1v1h-1zM11 11h1v1h-1zM14 11h2v1h-2zM17 11h2v1h-2zM10 12h1v1h-1zM12 12h3v1h-3zM17 12h1v1h-1zM19 12h1v1h-1zM22 12h1v1h-1zM9 13h1v1h-1zM13 13h2v1h-2zM21 13h1v1h-1zM13 14h3v1h-3zM18 14h1v1h-1zM21 14h1v1h-1zM23 14h1v1h-1zM26 14h1v1h-1zM9 15h1v1h-1zM13 15h1v1h-1zM15 15h1v1h-1zM17 15h1v1h-1zM19 15h1v1h-1zM8 18h1v1h-1zM27 19h1v1h-1zM6 22h1v1h-1zM19 28h1v1h-1z"/>
<path fill="#f4f4f4" d="M22 2h1v1h-1zM22 3h1v1h-1zM6 4h1v1h-1zM10 4h1v1h-1zM16 4h2v1h-2zM12 5h1v1h-1zM21 5h2v1h-2zM26 5h1v1h-1zM5 6h1v1h-1zM8 6h1v1h-1zM10 6h1v1h-1zM17 6h3v1h-3zM11 7h1v1h-1zM16 7h1v1h-1zM12 8h1v1h-1zM5 9h1v1h-1zM9 9h1v1h-1zM18 9h1v1h-1zM5 10h1v1h-1zM8 10h1v1h-1zM10 10h1v1h-1zM22 10h1v1h-1zM16 11h1v1h-1zM17 13h1v1h-1zM19 13h1v1h-1zM20 14h1v1h-1zM22 14h1v1h-1zM11 15h1v1h-1zM18 15h1v1h-1z"/>
<path fill="#78350f" d="M13 16h1v1h-1zM15 16h1v1h-1zM12 17h1v1h-1zM15 17h1v1h-1zM15 18h1v1h-1zM15 19h1v1h-1zM15 20h1v1h-1zM15 21h1v1h-1zM15 22h1v1h-1zM15 23h1v1h-1zM15 24h1v1h-1zM14 25h2v1h-2zM14 26h2v1h-2zM14 27h2v1h-2zM14 28h2v1h-2zM14 29h2v1h-2zM14 30h2v1h-2z"/>
<path fill="#92400e" d="M16 16h1v1h-1zM16 17h1v1h-1zM16 18h1v1h-1zM16 19h1v1h-1zM16 20h1v1h-1zM16 21h1v1h-1zM16 22h1v1h-1zM16 23h1v1h-1zM16 24h1v1h-1zM16 25h1v1h-1zM16 26h1v1h-1zM16 27h1v1h-1zM16 28h1v1h-1zM16 29h1v1h-1zM16 30h1v1h-1z"/>
</svg>