<svg xmlns="http://www.w3.org/2000/svg" width="32" height="32" viewBox="0 0 32 32" shape-rendering="crispEdges">
<path fill="#41a6f6" d="M0 0h32v1h-32zM0 1h32v1h-32zM0 2h15v1h-15zM18 2h14v1h-14zM0 3h15v1h-15zM18 3h14v1h-14zM0 4h13v1h-13zM20 4h12v1h-12zM0 5h9v1h-9zM12 5h1v1h-1zM20 5h1v1h-1zM24 5h8v1h-8zM0 6h9v1h-9zM12 6h1v1h-1zM20 6h1v1h-1zM24 6h8v1h-8zM0 7h7v1h-7zM14 7h1v1h-1zM18 7h1v1h-1zM26 7h6v1h-6zM0 8h7v1h-7zM26 8h6v1h-6zM0 9h7v1h-7zM26 9h6v1h-6zM0 10h7v1h-7zM26 10h6v1h-6zM0 11h6v1h-6zM27 11h5v1h-5zM0 12h6v1h-6zM27 12h5v1h-5zM0 13h6v1h-6zM17 13h1v1h-1zM27 13h5v1h-5zM0 14h7v1h-7zM10 14h1v1h-1zM15 14h3v1h-3zM21 14h2v1h-2zM26 14h6v1h-6zM0 15h2v1h-2zM4 15h8v1h-8zM15 15h4v1h-4zM20 15h12v1h-12zM0 16h13v1h-13zM19 16h13v1h-13zM0 17h14v1h-14zM19 17h6v1h-6zM27 17h5v1h-5zM0 18h5v1h-5zM7 18h7v1h-7zM19 18h13v1h-13zM0 19h14v1h-14zM19 19h3v1h-3zM24 19h8v1h-8zM0 20h11v1h-11zM13 20h1v1h-1zM19 20h13v1h-13zM0 21h14v1h-14zM19 21h8v1h-8zM29 21h3v1h-3zM0 22h3v1h-3zM5 22h9v1h-9zM19 22h13v1h-13zM0 23h14v1h-14zM19 23h13v1h-13zM0 24h14v1h-14zM19 24h7v1h-7zM28 24h4v1h-4zM0 25h7v1h-7zM9 25h5v1h-5zM19 25h9v1h-9zM30 25h2v1h-2zM0 26h1v1h-1zM3 26h11v1h-11zM19 26h13v1h-13zM0 27h13v1h-13zM22 27h10v1h-10zM0 28h6v1h-6zM8 28h5v1h-5zM20 28h12v1h-12z"/><path fill="#ffb7c5" d="M15 2h3v1h-3zM13 4h1v1h-1zM19 4h1v1h-1zM9 5h3v1h-3zM13 5h1v1h-1zM19 5h1v1h-1zM21 5h3v1h-3zM13 6h1v1h-1zM19 6h1v1h-1zM7 7h1v1h-1zM13 7h1v1h-1zM19 7h1v1h-1zM25 7h1v1h-1zM7 8h1v1h-1zM13 8h1v1h-1zM19 8h2v1h-2zM25 8h1v1h-1zM7 9h1v1h-1zM12 9h2v1h-2zM25 9h1v1h-1zM22 10h1v1h-1zM16 12h1v1h-1zM16 13h1v1h-1zM18 14h3v1h-3zM3 15h1v1h-1zM12 15h3v1h-3zM26 17h1v1h-1zM6 18h1v1h-1zM23 19h1v1h-1zM12 20h1v1h-1zM28 21h1v1h-1zM4 22h1v1h-1zM27 24h1v1h-1zM8 25h1v1h-1zM29 25h1v1h-1zM2 26h1v1h-1zM21 27h1v1h-1zM7 28h1v1h-1zM9 29h1v1h-1zM12 29h1v1h-1zM21 29h1v1h-1zM5 30h1v1h-1zM23 30h1v1h-1z"/><path fill="#ff69b4" d="M15 3h3v1h-3zM14 4h1v1h-1zM18 4h1v1h-1zM14 5h1v1h-1zM18 5h1v1h-1zM9 6h3v1h-3zM14 6h1v1h-1zM18 6h1v1h-1zM21 6h3v1h-3zM8 7h1v1h-1zM12 7h1v1h-1zM15 7h3v1h-3zM20 7h1v1h-1zM24 7h1v1h-1zM8 8h1v1h-1zM12 8h1v1h-1zM14 8h1v1h-1zM18 8h1v1h-1zM24 8h1v1h-1zM8 9h1v1h-1zM14 9h1v1h-1zM18 9h3v1h-3zM24 9h1v1h-1zM7 10h8v1h-8zM18 10h1v1h-1zM21 10h1v1h-1zM23 10h3v1h-3zM6 11h1v1h-1zM10 11h2v1h-2zM15 11h3v1h-3zM21 11h2v1h-2zM26 11h1v1h-1zM6 12h1v1h-1zM10 12h2v1h-2zM15 12h1v1h-1zM17 12h1v1h-1zM21 12h2v1h-2zM26 12h1v1h-1zM6 13h1v1h-1zM10 13h2v1h-2zM15 13h1v1h-1zM18 13h3v1h-3zM22 13h1v1h-1zM26 13h1v1h-1zM7 14h3v1h-3zM12 14h3v1h-3zM23 14h3v1h-3zM2 15h1v1h-1zM25 17h1v1h-1zM5 18h1v1h-1zM22 19h1v1h-1zM11 20h1v1h-1zM27 21h1v1h-1zM3 22h1v1h-1zM26 24h1v1h-1zM7 25h1v1h-1zM28 25h1v1h-1zM1 26h1v1h-1zM20 27h1v1h-1zM6 28h1v1h-1zM8 29h1v1h-1zM20 29h1v1h-1zM25 29h1v1h-1zM15 30h1v1h-1z"/><path fill="#f4f4f4" d="M15 4h1v1h-1zM9 7h1v1h-1zM21 7h1v1h-1zM15 8h1v1h-1zM7 11h1v1h-1zM12 11h1v1h-1zM23 11h1v1h-1z"/><path fill="#db2777" d="M16 4h2v1h-2zM15 5h3v1h-3zM15 6h3v1h-3zM10 7h2v1h-2zM22 7h2v1h-2zM9 8h3v1h-3zM16 8h2v1h-2zM21 8h3v1h-3zM9 9h3v1h-3zM15 9h3v1h-3zM21 9h3v1h-3zM15 10h3v1h-3zM19 10h2v1h-2zM8 11h2v1h-2zM13 11h2v1h-2zM18 11h3v1h-3zM24 11h2v1h-2zM7 12h3v1h-3zM12 12h3v1h-3zM18 12h3v1h-3zM23 12h3v1h-3zM7 13h3v1h-3zM12 13h3v1h-3zM23 13h3v1h-3z"/><path fill="#78350f" d="M21 13h1v1h-1zM11 14h1v1h-1zM13 16h1v1h-1zM15 16h1v1h-1zM17 16h1v1h-1zM14 17h2v1h-2zM17 17h1v1h-1zM15 18h1v1h-1zM17 18h1v1h-1zM15 19h1v1h-1zM17 19h1v1h-1zM15 20h1v1h-1zM17 20h1v1h-1zM15 21h1v1h-1zM17 21h1v1h-1zM15 22h1v1h-1zM17 22h1v1h-1zM15 23h1v1h-1zM17 23h1v1h-1zM15 24h1v1h-1zM17 24h1v1h-1zM15 25h1v1h-1zM17 25h1v1h-1zM15 26h1v1h-1zM17 26h1v1h-1zM13 27h1v1h-1zM15 27h1v1h-1zM17 27h1v1h-1zM13 28h1v1h-1zM15 28h1v1h-1zM17 28h1v1h-1zM13 29h1v1h-1zM15 29h1v1h-1zM17 29h1v1h-1zM13 30h1v1h-1zM17 30h1v1h-1z"/><path fill="#92400e" d="M19 15h1v1h-1zM16 16h1v1h-1zM18 16h1v1h-1zM16 17h1v1h-1zM16 18h1v1h-1zM16 19h1v1h-1zM16 20h1v1h-1zM16 21h1v1h-1zM16 22h1v1h-1zM16 23h1v1h-1zM16 24h1v1h-1zM16 25h1v1h-1zM16 26h1v1h-1zM16 27h1v1h-1zM19 27h1v1h-1zM16 28h1v1h-1zM19 28h1v1h-1zM16 29h1v1h-1zM19 29h1v1h-1zM16 30h1v1h-1zM19 30h1v1h-1z"/><path fill="#333c57" d="M14 16h1v1h-1zM18 17h1v1h-1zM14 18h1v1h-1zM18 18h1v1h-1zM14 19h1v1h-1zM18 19h1v1h-1zM14 20h1v1h-1zM18 20h1v1h-1zM14 21h1v1h-1zM18 21h1v1h-1zM14 22h1v1h-1zM18 22h1v1h-1zM14 23h1v1h-1zM18 23h1v1h-1zM14 24h1v1h-1zM18 24h1v1h-1zM14 25h1v1h-1zM18 25h1v1h-1zM14 26h1v1h-1zM18 26h1v1h-1zM14 27h1v1h-1zM18 27h1v1h-1zM14 28h1v1h-1zM18 28h1v1h-1zM14 29h1v1h-1zM18 29h1v1h-1zM14 30h1v1h-1zM18 30h1v1h-1z"/><path fill="#38b764" d="M0 29h8v1h-8zM10 29h2v1h-2zM22 29h3v1h-3zM26 29h6v1h-6zM0 30h5v1h-5zM6 30h7v1h-7zM20 30h3v1h-3zM24 30h8v1h-8zM0 31h32v1h-32z"/>
</svg>