<svg xmlns="http://www.w3.org/2000/svg" viewBox="0 0 32 32" shape-rendering="crispEdges"><path fill="#41a6f6" d="M0,0h16v1h-16zM17,0h15v1h-15zM0,1h15v1h-15zM16,1h16v1h-16zM0,2h2v1h-2zM3,2h12v1h-12zM16,2h13v1h-13zM30,2h2v1h-2zM0,3h3v1h-3zM4,3h24v1h-24zM29,3h3v1h-3zM0,4h4v1h-4zM5,4h22v1h-22zM28,4h4v1h-4zM0,5h3v1h-3zM4,5h1v1h-1zM6,5h20v1h-20zM27,5h2v1h-2zM30,5h2v1h-2zM0,6h3v1h-3zM4,6h2v1h-2zM7,6h18v1h-18zM26,6h2v1h-2zM29,6h3v1h-3zM0,7h7v1h-7zM8,7h3v1h-3zM21,7h3v1h-3zM25,7h3v1h-3zM29,7h3v1h-3zM0,8h8v1h-8zM24,8h8v1h-8zM0,9h8v1h-8zM24,9h8v1h-8zM0,10h8v1h-8zM24,10h8v1h-8zM0,11h8v1h-8zM24,11h8v1h-8zM0,12h7v1h-7zM24,12h8v1h-8zM0,13h6v1h-6zM7,13h1v1h-1zM25,13h7v1h-7zM0,14h5v1h-5zM6,14h2v1h-2zM24,14h1v1h-1zM26,14h6v1h-6zM0,15h4v1h-4zM5,15h3v1h-3zM24,15h2v1h-2zM27,15h5v1h-5zM0,16h8v1h-8zM24,16h3v1h-3zM28,16h4v1h-4zM0,17h8v1h-8zM24,17h8v1h-8zM0,18h7v1h-7zM24,18h8v1h-8zM0,19h6v1h-6zM7,19h1v1h-1zM25,19h7v1h-7zM0,20h5v1h-5zM6,20h2v1h-2zM24,20h1v1h-1zM26,20h6v1h-6zM0,21h2v1h-2zM3,21h5v1h-5zM24,21h2v1h-2zM27,21h4v1h-4zM0,22h1v1h-1zM2,22h6v1h-6zM24,22h6v1h-6zM31,22h1v1h-1zM0,23h1v1h-1zM2,23h6v1h-6zM24,23h6v1h-6zM31,23h1v1h-1zM0,24h8v1h-8zM24,24h8v1h-8zM0,25h8v1h-8zM24,25h8v1h-8zM0,26h32v1h-32zM0,27h32v1h-32zM0,28h32v1h-32zM0,29h32v1h-32zM0,30h32v1h-32zM0,31h32v1h-32z"/><path fill="#ffcd75" d="M16,0h1v1h-1zM15,1h1v1h-1zM15,2h1v1h-1zM8,10h1v1h-1zM23,10h1v1h-1zM8,11h3v1h-3zM12,11h8v1h-8zM21,11h3v1h-3zM8,16h16v1h-16zM7,18h1v1h-1zM6,19h1v1h-1zM8,20h16v1h-16zM8,24h16v1h-16zM8,25h16v1h-16z"/><path fill="#b13e53" d="M2,2h1v1h-1zM29,2h1v1h-1zM3,3h1v1h-1zM28,3h1v1h-1zM29,5h1v1h-1zM28,6h1v1h-1zM28,7h1v1h-1zM7,12h1v1h-1zM6,13h1v1h-1zM5,14h1v1h-1zM4,15h1v1h-1z"/><path fill="#5d275d" d="M4,4h1v1h-1zM3,5h1v1h-1zM3,6h1v1h-1z"/><path fill="#8b5e34" d="M27,4h1v1h-1zM5,5h1v1h-1zM26,5h1v1h-1zM6,6h1v1h-1zM25,6h1v1h-1zM7,7h1v1h-1zM24,7h1v1h-1zM8,8h1v1h-1zM23,8h1v1h-1zM9,9h1v1h-1zM22,9h1v1h-1zM10,10h1v1h-1zM21,10h1v1h-1zM11,11h1v1h-1zM20,11h1v1h-1zM12,12h1v1h-1zM19,12h1v1h-1z"/><path fill="#ffecd2" d="M11,7h2v1h-2zM14,7h4v1h-4zM19,7h2v1h-2zM9,8h4v1h-4zM14,8h4v1h-4zM19,8h4v1h-4zM8,9h1v1h-1zM10,9h1v1h-1zM13,9h2v1h-2zM17,9h2v1h-2zM21,9h1v1h-1zM23,9h1v1h-1z"/><path fill="#f4f4f4" d="M13,7h1v1h-1zM18,7h1v1h-1z"/><path fill="#1a1c2c" d="M13,8h1v1h-1zM18,8h1v1h-1zM15,9h2v1h-2z"/><path fill="#ff9eb7" d="M11,9h2v1h-2zM19,9h2v1h-2z"/><path fill="#ef7d57" d="M9,10h1v1h-1zM11,10h10v1h-10zM22,10h1v1h-1zM5,20h1v1h-1zM2,21h1v1h-1zM1,22h1v1h-1zM1,23h1v1h-1z"/><path fill="#38b764" d="M8,12h4v1h-4zM13,12h6v1h-6zM20,12h4v1h-4zM8,13h16v1h-16zM8,14h7v1h-7zM17,14h7v1h-7zM8,15h6v1h-6zM18,15h6v1h-6zM8,17h5v1h-5zM19,17h5v1h-5zM8,18h6v1h-6zM18,18h6v1h-6zM8,19h7v1h-7zM17,19h7v1h-7zM8,21h16v1h-16zM26,21h1v1h-1zM8,22h16v1h-16zM8,23h16v1h-16z"/><path fill="#73eff7" d="M24,13h1v1h-1zM25,14h1v1h-1zM26,15h1v1h-1zM27,16h1v1h-1z"/><path fill="#3b5dc9" d="M15,14h2v1h-2zM14,15h4v1h-4zM13,17h6v1h-6zM14,18h4v1h-4zM15,19h2v1h-2z"/><path fill="#a7f070" d="M24,19h1v1h-1zM25,20h1v1h-1zM31,21h1v1h-1zM30,22h1v1h-1zM30,23h1v1h-1z"/></svg>