<svg xmlns="http://www.w3.org/2000/svg" viewBox="0 0 32 32" shape-rendering="crispEdges"><path fill="#f4f4f4" d="M7,5h1v1h-1zM15,6h2v1h-2zM14,7h4v1h-4zM25,7h1v1h-1zM5,8h1v1h-1zM13,9h1v1h-1zM27,9h1v1h-1zM12,10h1v1h-1zM11,11h1v1h-1zM6,12h1v1h-1zM25,12h1v1h-1zM5,13h1v1h-1zM7,13h1v1h-1zM24,13h1v1h-1zM26,13h1v1h-1zM6,14h1v1h-1zM25,14h1v1h-1zM4,18h1v1h-1zM27,19h1v1h-1z"/><path fill="#73eff7" d="M13,7h1v1h-1zM18,7h1v1h-1zM13,8h6v1h-6zM12,9h1v1h-1zM13,10h1v1h-1z"/><path fill="#41a6f6" d="M11,9h1v1h-1zM14,9h7v1h-7zM11,10h1v1h-1zM14,10h7v1h-7zM12,11h1v1h-1zM11,12h1v1h-1zM13,12h1v1h-1zM14,13h1v1h-1zM15,14h2v1h-2z"/><path fill="#3b5dc9" d="M10,11h1v1h-1zM13,11h9v1h-9zM10,12h1v1h-1zM12,12h1v1h-1zM14,12h8v1h-8zM10,13h4v1h-4zM15,13h7v1h-7zM9,14h6v1h-6zM17,14h6v1h-6zM9,15h1v1h-1zM11,15h10v1h-10zM22,15h1v1h-1zM9,16h14v1h-14zM9,17h2v1h-2zM12,17h8v1h-8zM21,17h2v1h-2zM9,18h14v1h-14zM9,19h14v1h-14z"/><path fill="#29366f" d="M10,15h1v1h-1zM21,15h1v1h-1zM10,20h12v1h-12zM10,21h12v1h-12zM10,22h12v1h-12zM11,23h10v1h-10zM11,24h10v1h-10zM13,25h6v1h-6z"/><path fill="#333c57" d="M11,17h1v1h-1zM20,17h1v1h-1z"/></svg>