<svg xmlns="http://www.w3.org/2000/svg" viewBox="0 0 32 32" shape-rendering="crispEdges"><path fill="#29366f" d="M0,0h32v1h-32ZM0,1h5v1h-5ZM6,1h8v1h-8ZM15,1h16v1h-16ZM0,2h25v1h-25ZM26,2h6v1h-6ZM0,3h2v1h-2ZM3,3h29v1h-29ZM0,4h28v1h-28ZM29,4h3v1h-3ZM0,5h8v1h-8ZM9,5h23v1h-23ZM0,6h32v1h-32ZM0,7h22v1h-22ZM23,7h9v1h-9ZM0,8h13v1h-13ZM19,8h11v1h-11ZM31,8h1v1h-1ZM0,9h11v1h-11ZM21,9h11v1h-11ZM0,10h10v1h-10ZM22,10h10v1h-10ZM0,11h9v1h-9ZM23,11h9v1h-9ZM0,12h9v1h-9ZM25,12h7v1h-7ZM0,13h8v1h-8ZM28,13h4v1h-4ZM0,14h1v1h-1ZM2,14h6v1h-6ZM24,14h1v1h-1ZM29,14h3v1h-3ZM0,15h8v1h-8ZM24,15h5v1h-5ZM30,15h2v1h-2ZM0,16h8v1h-8ZM24,16h8v1h-8ZM0,17h3v1h-3ZM7,17h1v1h-1ZM24,17h8v1h-8ZM0,18h4v1h-4ZM24,18h8v1h-8ZM0,19h7v1h-7ZM23,19h9v1h-9ZM1,20h8v1h-8ZM23,20h9v1h-9ZM0,21h10v1h-10ZM22,21h10v1h-10ZM0,22h11v1h-11ZM21,22h9v1h-9ZM31,22h1v1h-1ZM0,23h13v1h-13ZM19,23h13v1h-13ZM0,24h32v1h-32ZM0,25h3v1h-3ZM4,25h28v1h-28ZM0,26h32v1h-32ZM0,27h27v1h-27ZM28,27h4v1h-4ZM0,28h15v1h-15ZM16,28h16v1h-16ZM0,29h7v1h-7ZM8,29h12v1h-12ZM21,29h11v1h-11ZM0,30h26v1h-26ZM27,30h5v1h-5ZM0,31h32v1h-32Z"/><path fill="#f4f4f4" d="M5,1h1v1h-1ZM14,1h1v1h-1ZM31,1h1v1h-1ZM25,2h1v1h-1ZM2,3h1v1h-1ZM28,4h1v1h-1ZM8,5h1v1h-1ZM22,7h1v1h-1ZM30,8h1v1h-1ZM1,14h1v1h-1ZM29,15h1v1h-1ZM0,20h1v1h-1ZM30,22h1v1h-1ZM3,25h1v1h-1ZM27,27h1v1h-1ZM15,28h1v1h-1ZM7,29h1v1h-1ZM20,29h1v1h-1ZM26,30h1v1h-1Z"/><path fill="#ef7d57" d="M13,8h6v1h-6ZM11,9h10v1h-10ZM10,10h12v1h-12ZM9,11h14v1h-14ZM8,14h16v1h-16ZM8,16h16v1h-16ZM13,19h10v1h-10ZM9,20h14v1h-14ZM10,21h12v1h-12ZM11,22h10v1h-10ZM13,23h6v1h-6Z"/><path fill="#ffcd75" d="M9,12h14v1h-14ZM8,15h16v1h-16ZM10,18h14v1h-14Z"/><path fill="#94b0c2" d="M23,12h2v1h-2ZM25,13h3v1h-3ZM27,14h2v1h-2ZM3,17h2v1h-2ZM4,18h3v1h-3ZM7,19h6v1h-6Z"/><path fill="#8b5e34" d="M8,13h16v1h-16ZM8,17h16v1h-16Z"/><path fill="#ffecd2" d="M24,13h1v1h-1ZM25,14h2v1h-2ZM5,17h2v1h-2ZM7,18h3v1h-3Z"/></svg>