<svg xmlns="http://www.w3.org/2000/svg" viewBox="0 0 32 32" shape-rendering="crispEdges"><path fill="#a7f070" d="M10,2h1v1h-1zM11,2h1v1h-1zM10,3h1v1h-1z"/><path fill="#333c57" d="M13,2h1v1h-1zM14,2h1v1h-1zM14,3h1v1h-1zM15,3h1v1h-1z"/><path fill="#ffcd75" d="M15,4h1v1h-1zM16,4h1v1h-1zM16,5h1v1h-1zM17,6h1v1h-1zM16,7h1v1h-1zM17,7h1v1h-1zM17,8h1v1h-1zM18,8h1v1h-1zM18,9h1v1h-1zM17,10h1v1h-1zM18,10h1v1h-1zM18,11h1v1h-1zM17,12h1v1h-1zM18,12h1v1h-1zM18,13h1v1h-1zM19,13h1v1h-1zM18,14h1v1h-1zM19,14h1v1h-1zM17,15h1v1h-1zM18,15h1v1h-1zM17,16h1v1h-1zM18,16h1v1h-1zM17,17h1v1h-1zM18,17h1v1h-1zM17,18h1v1h-1zM18,18h1v1h-1zM17,19h1v1h-1zM18,19h1v1h-1zM17,20h1v1h-1zM18,20h1v1h-1zM17,21h1v1h-1zM18,21h1v1h-1zM17,22h1v1h-1zM18,22h1v1h-1zM15,23h1v1h-1zM16,23h1v1h-1zM17,23h1v1h-1zM18,23h1v1h-1zM19,23h1v1h-1zM20,23h1v1h-1zM21,23h1v1h-1zM15,24h1v1h-1zM16,24h1v1h-1zM17,24h1v1h-1zM18,24h1v1h-1zM19,24h1v1h-1zM20,24h1v1h-1zM21,24h1v1h-1zM14,25h1v1h-1zM15,25h1v1h-1zM16,25h1v1h-1zM17,25h1v1h-1zM18,25h1v1h-1zM19,25h1v1h-1zM20,25h1v1h-1zM21,25h1v1h-1zM22,25h1v1h-1zM14,26h1v1h-1zM15,26h1v1h-1zM16,26h1v1h-1zM17,26h1v1h-1zM18,26h1v1h-1zM19,26h1v1h-1zM20,26h1v1h-1zM21,26h1v1h-1zM22,26h1v1h-1zM13,27h1v1h-1zM14,27h1v1h-1zM15,27h1v1h-1zM16,27h1v1h-1zM17,27h1v1h-1zM18,27h1v1h-1zM19,27h1v1h-1zM20,27h1v1h-1zM21,27h1v1h-1zM22,27h1v1h-1zM23,27h1v1h-1zM13,28h1v1h-1zM14,28h1v1h-1zM15,28h1v1h-1zM16,28h1v1h-1zM17,28h1v1h-1zM18,28h1v1h-1zM19,28h1v1h-1zM20,28h1v1h-1zM21,28h1v1h-1zM22,28h1v1h-1zM23,28h1v1h-1z"/><path fill="#b13e53" d="M8,5h1v1h-1zM9,5h1v1h-1zM8,6h1v1h-1z"/><path fill="#f4f4f4" d="M15,5h1v1h-1zM15,6h1v1h-1zM16,6h1v1h-1zM16,8h1v1h-1zM17,9h1v1h-1zM17,11h1v1h-1zM16,12h1v1h-1zM16,15h1v1h-1zM16,17h1v1h-1zM16,19h1v1h-1zM16,21h1v1h-1z"/><path fill="#73eff7" d="M6,9h1v1h-1zM7,9h1v1h-1zM6,10h1v1h-1z"/><path fill="#ef7d57" d="M19,10h1v1h-1zM19,11h1v1h-1zM19,12h1v1h-1zM19,15h1v1h-1zM19,16h1v1h-1zM19,17h1v1h-1zM19,18h1v1h-1zM19,19h1v1h-1zM19,20h1v1h-1zM19,21h1v1h-1zM19,22h1v1h-1zM12,29h1v1h-1zM13,29h1v1h-1zM14,29h1v1h-1zM15,29h1v1h-1zM16,29h1v1h-1zM17,29h1v1h-1zM18,29h1v1h-1zM19,29h1v1h-1zM20,29h1v1h-1zM21,29h1v1h-1zM22,29h1v1h-1zM23,29h1v1h-1zM24,29h1v1h-1zM12,30h1v1h-1zM13,30h1v1h-1zM14,30h1v1h-1zM15,30h1v1h-1zM16,30h1v1h-1zM17,30h1v1h-1zM18,30h1v1h-1zM19,30h1v1h-1zM20,30h1v1h-1zM21,30h1v1h-1zM22,30h1v1h-1zM23,30h1v1h-1zM24,30h1v1h-1z"/><path fill="#5d275d" d="M25,13h1v1h-1zM26,13h1v1h-1zM25,14h1v1h-1z"/></svg>