<svg xmlns="http://www.w3.org/2000/svg" viewBox="0 0 32 32" shape-rendering="crispEdges"><path fill="#94b0c2" d="M21 10h1v1h-1z"/><path fill="#566c86" d="M22 10h1v1h-1zM22 11h1v1h-1zM8 26h1v1h-1zM24 26h1v1h-1zM7 27h3v1h-3zM23 27h3v1h-3zM0 28h6v1h-6zM8 28h1v1h-1zM11 28h11v1h-11zM24 28h1v1h-1zM27 28h5v1h-5z"/><path fill="#3b5dc9" d="M22 12h3v1h-3zM21 13h4v1h-4zM5 21h1v1h-1zM5 24h6v1h-6zM21 24h6v1h-6z"/><path fill="#ffcd75" d="M25 13h1v1h-1zM24 14h2v1h-2zM24 15h2v1h-2z"/><path fill="#41a6f6" d="M20 14h4v1h-4zM20 15h4v1h-4zM20 16h5v1h-5zM20 17h5v1h-5zM6 18h2v1h-2zM20 18h5v1h-5zM6 19h4v1h-4zM20 19h5v1h-5zM6 20h4v1h-4zM20 20h5v1h-5zM6 21h4v1h-4zM20 21h5v1h-5zM8 22h14v1h-14zM8 23h14v1h-14zM11 24h10v1h-10z"/><path fill="#8b5e34" d="M7 16h9v1h-9zM8 17h8v1h-8zM8 18h8v1h-8z"/><path fill="#b13e53" d="M5 19h1v1h-1zM5 20h1v1h-1z"/><path fill="#1a1c2c" d="M13 20h1v1h-1zM15 20h1v1h-1zM14 21h1v1h-1zM6 25h5v1h-5zM22 25h5v1h-5zM6 26h2v1h-2zM9 26h2v1h-2zM22 26h2v1h-2zM25 26h2v1h-2zM5 27h2v1h-2zM10 27h2v1h-2zM21 27h2v1h-2zM26 27h2v1h-2zM6 28h2v1h-2zM9 28h2v1h-2zM22 28h2v1h-2zM25 28h2v1h-2zM6 29h5v1h-5zM22 29h5v1h-5zM8 30h1v1h-1zM24 30h1v1h-1z"/><path fill="#ff9eb7" d="M12 21h1v1h-1zM16 21h1v1h-1z"/></svg>