<svg xmlns="http://www.w3.org/2000/svg" viewBox="0 0 32 32" shape-rendering="crispEdges"><path fill="#38b764" d="M23,7h1v1h-1zM20,8h3v1h-3zM5,9h3v1h-3zM12,9h3v1h-3zM17,9h3v1h-3zM23,9h4v1h-4zM4,10h3v1h-3zM15,10h1v1h-1zM22,10h4v1h-4zM3,11h1v1h-1zM10,11h1v1h-1zM22,11h5v1h-5zM10,12h3v1h-3zM14,12h3v1h-3zM18,12h2v1h-2zM23,12h3v1h-3zM12,14h1v1h-1zM16,14h1v1h-1zM19,14h2v1h-2zM11,15h2v1h-2zM15,15h2v1h-2zM5,16h3v1h-3zM20,16h3v1h-3zM4,17h3v1h-3zM9,17h1v1h-1zM22,17h2v1h-2zM3,18h1v1h-1zM8,18h1v1h-1z"/><path fill="#1a1c2c" d="M25,10h1v1h-1zM26,11h1v1h-1z"/><path fill="#f4f4f4" d="M25,9h1v1h-1z"/><path fill="#ff9eb7" d="M24,12h1v1h-1z"/><path fill="#257179" d="M11,8h10v1h-10zM9,9h13v1h-13zM8,10h14v1h-14zM7,11h15v1h-15zM7,12h15v1h-15zM7,13h15v1h-15zM8,14h14v1h-14zM9,15h12v1h-12zM10,16h10v1h-10zM12,17h7v1h-7z"/><path fill="#73eff7" d="M28,5h1v1h-1zM27,7h1v1h-1z"/><path fill="#41a6f6" d="M26,4h1v1h-1z"/></svg>