<svg xmlns="http://www.w3.org/2000/svg" viewBox="0 0 32 32" shape-rendering="crispEdges"><path fill="#ef7d57" d="M20,0h1v1h-1ZM18,1h2v1h-2ZM21,1h2v1h-2ZM18,2h5v1h-5ZM27,6h1v1h-1ZM27,7h1v1h-1ZM14,11h4v1h-4ZM11,13h4v1h-4ZM12,15h4v1h-4ZM14,17h5v1h-5ZM16,19h5v1h-5ZM15,21h4v1h-4ZM13,23h3v1h-3ZM12,24h3v1h-3ZM11,25h2v1h-2ZM10,26h2v1h-2ZM10,27h2v1h-2ZM13,27h1v1h-1ZM11,28h3v1h-3Z"/><path fill="#ffcd75" d="M16,3h7v1h-7ZM15,4h4v1h-4ZM22,4h2v1h-2ZM15,5h3v1h-3ZM22,5h2v1h-2ZM14,6h5v1h-5ZM22,6h5v1h-5ZM15,7h7v1h-7ZM25,7h2v1h-2ZM15,8h9v1h-9ZM16,9h7v1h-7ZM16,10h4v1h-4ZM12,12h4v1h-4ZM11,14h4v1h-4ZM13,16h5v1h-5ZM15,18h5v1h-5ZM16,20h4v1h-4ZM14,22h4v1h-4Z"/><path fill="#f4f4f4" d="M19,4h3v1h-3ZM18,5h2v1h-2ZM19,6h1v1h-1Z"/><path fill="#1a1c2c" d="M20,5h2v1h-2ZM20,6h2v1h-2Z"/><path fill="#ff9eb7" d="M22,7h2v1h-2Z"/><path fill="#a7f070" d="M9,14h2v1h-2ZM8,15h2v1h-2ZM7,16h2v1h-2ZM8,17h2v1h-2ZM9,18h2v1h-2Z"/></svg>