<svg xmlns="http://www.w3.org/2000/svg" width="16" height="16" viewBox="0 0 16 16" shape-rendering="crispEdges">
<!-- 种子袋 -->
<path fill="#1a1c2c" d="M5 2h6v1h-6zM4 3h1v1h-1zM11 3h1v1h-1zM4 4h1v1h-1zM11 4h1v1h-1zM3 5h1v1h-1zM12 5h1v1h-1zM3 6h1v1h-1zM12 6h1v1h-1zM3 7h1v1h-1zM12 7h1v1h-1zM3 8h1v1h-1zM12 8h1v1h-1zM3 9h1v1h-1zM12 9h1v1h-1zM4 10h8v1h-8z"/>
<path fill="#d4a56a" d="M5 3h6v1h-6zM5 4h6v1h-6zM4 5h8v1h-8zM4 6h8v1h-8zM4 7h8v1h-8zM4 8h8v1h-8zM4 9h8v1h-8z"/>
<path fill="#ffcd75" d="M5 3h2v1h-2zM5 4h1v1h-1z"/>
<path fill="#a8775e" d="M10 7h2v1h-2zM10 8h2v1h-2zM10 9h2v1h-2z"/>
<path fill="#f4f4f4" d="M6 4h1v1h-1z"/>
<path fill="#38b764" d="M7 6h2v1h-2zM6 7h4v1h-4zM7 8h2v1h-2z"/>
<path fill="#a7f070" d="M8 6h1v1h-1z"/>
<path fill="#6b3e2e" d="M5 2h5v1h-5z"/>
</svg>