<svg xmlns="http://www.w3.org/2000/svg" width="16" height="16" viewBox="0 0 16 16" shape-rendering="crispEdges">
<!-- 绵羊 -->
<path fill="#1a1c2c" d="M4 1h3v1h-3zM8 1h3v1h-3zM3 2h1v1h-1zM7 2h1v1h-1zM11 2h1v1h-1zM3 3h1v1h-1zM11 3h1v1h-1zM2 4h1v1h-1zM12 4h1v1h-1zM2 5h1v1h-1zM12 5h1v1h-1zM2 6h1v1h-1zM12 6h1v1h-1zM2 7h1v1h-1zM12 7h1v1h-1zM3 8h1v1h-1zM11 8h1v1h-1zM3 9h2v1h-2zM7 9h2v1h-2zM10 9h2v1h-2zM4 10h1v1h-1zM8 10h1v1h-1zM11 10h1v1h-1z"/>
<path fill="#f4f4f4" d="M4 2h3v1h-3zM8 2h3v1h-3zM4 3h7v1h-7zM3 4h9v1h-9zM3 5h9v1h-9zM3 6h9v1h-9zM3 7h9v1h-9zM4 8h7v1h-7z"/>
<path fill="#d4a56a" d="M5 9h2v1h-2zM9 9h1v1h-1z"/>
<path fill="#94b0c2" d="M4 4h1v1h-1zM8 4h1v1h-1zM6 6h1v1h-1zM10 7h1v1h-1z"/>
<path fill="#1a1c2c" d="M5 4h1v1h-1zM9 4h1v1h-1z"/>
<path fill="#ffcd75" d="M4 3h1v1h-1z"/>
<path fill="#b13e53" d="M6 5h2v1h-2z"/>
</svg>