<svg xmlns="http://www.w3.org/2000/svg" viewBox="0 0 32 32" shape-rendering="crispEdges"><path fill="#ef7d57" d="M7,3h1v1h-1zM24,3h1v1h-1zM6,4h3v1h-3zM23,4h3v1h-3zM5,5h2v1h-2zM8,5h2v1h-2zM22,5h2v1h-2zM25,5h2v1h-2zM5,6h2v1h-2zM8,6h16v1h-16zM25,6h2v1h-2zM6,7h20v1h-20zM6,8h20v1h-20zM6,9h20v1h-20zM5,10h5v1h-5zM22,10h5v1h-5zM5,11h5v1h-5zM22,11h5v1h-5zM5,12h3v1h-3zM24,12h3v1h-3zM5,13h4v1h-4zM23,13h4v1h-4zM6,14h3v1h-3zM23,14h3v1h-3zM6,15h4v1h-4zM22,15h4v1h-4zM7,16h4v1h-4zM21,16h4v1h-4zM8,17h4v1h-4zM20,17h4v1h-4zM9,18h4v1h-4zM19,18h4v1h-4zM10,19h12v1h-12zM26,19h2v1h-2zM9,20h3v1h-3zM20,20h3v1h-3zM25,20h1v1h-1zM27,20h1v1h-1zM8,21h3v1h-3zM21,21h3v1h-3zM26,21h1v1h-1zM8,22h3v1h-3zM21,22h3v1h-3zM8,23h3v1h-3zM21,23h3v1h-3zM9,24h3v1h-3zM20,24h3v1h-3zM9,25h3v1h-3zM20,25h3v1h-3zM9,26h4v1h-4zM19,26h4v1h-4zM9,27h1v1h-1zM12,27h8v1h-8zM22,27h1v1h-1zM9,28h4v1h-4zM19,28h4v1h-4z"/><path fill="#ffecd2" d="M7,5h1v1h-1zM24,5h1v1h-1zM7,6h1v1h-1zM24,6h1v1h-1zM10,10h12v1h-12zM10,11h1v1h-1zM14,11h4v1h-4zM21,11h1v1h-1zM8,12h3v1h-3zM14,12h4v1h-4zM21,12h3v1h-3zM9,13h2v1h-2zM14,13h4v1h-4zM21,13h2v1h-2zM11,14h3v1h-3zM18,14h3v1h-3zM10,15h4v1h-4zM18,15h4v1h-4zM11,16h4v1h-4zM17,16h4v1h-4zM12,17h2v1h-2zM15,17h2v1h-2zM18,17h2v1h-2zM13,18h6v1h-6zM12,20h8v1h-8zM11,21h10v1h-10zM11,22h10v1h-10zM11,23h10v1h-10zM12,24h8v1h-8zM12,25h8v1h-8zM13,26h6v1h-6zM10,27h2v1h-2zM20,27h2v1h-2z"/><path fill="#f4f4f4" d="M11,11h2v1h-2zM18,11h2v1h-2z"/><path fill="#1a1c2c" d="M13,11h1v1h-1zM20,11h1v1h-1zM11,12h3v1h-3zM18,12h3v1h-3zM11,13h3v1h-3zM18,13h3v1h-3zM14,14h4v1h-4zM14,15h4v1h-4zM15,16h2v1h-2zM14,17h1v1h-1zM17,17h1v1h-1z"/><path fill="#ff9eb7" d="M9,14h2v1h-2zM21,14h2v1h-2z"/></svg>