<svg xmlns="http://www.w3.org/2000/svg" viewBox="0 0 32 32" shape-rendering="crispEdges"><path fill="#b13e53" d="M1,9h1v1h-1zM30,9h1v1h-1zM1,10h3v1h-3zM28,10h3v1h-3zM1,11h30v1h-30zM3,12h4v1h-4zM11,12h1v1h-1zM15,12h3v1h-3zM19,12h3v1h-3zM25,12h4v1h-4zM3,13h4v1h-4zM11,13h1v1h-1zM15,13h3v1h-3zM19,13h3v1h-3zM25,13h4v1h-4zM3,14h4v1h-4zM11,14h1v1h-1zM15,14h5v1h-5zM21,14h1v1h-1zM25,14h4v1h-4zM3,15h11v1h-11zM17,15h12v1h-12z"/><path fill="#333c57" d="M0,12h1v1h-1zM0,14h1v1h-1zM0,15h1v1h-1zM1,16h30v1h-30z"/><path fill="#73eff7" d="M7,12h1v1h-1zM9,12h2v1h-2zM22,12h3v1h-3zM7,13h2v1h-2zM10,13h1v1h-1zM22,13h1v1h-1zM24,13h1v1h-1zM7,14h3v1h-3zM22,14h3v1h-3z"/><path fill="#41a6f6" d="M8,12h1v1h-1z"/><path fill="#f4f4f4" d="M12,12h1v1h-1zM18,12h1v1h-1zM9,13h1v1h-1zM23,13h1v1h-1z"/><path fill="#ef7d57" d="M13,12h1v1h-1zM14,14h1v1h-1z"/><path fill="#ffcd75" d="M14,12h1v1h-1zM13,13h2v1h-2zM12,14h2v1h-2z"/><path fill="#1a1c2c" d="M12,13h1v1h-1zM18,13h1v1h-1zM14,15h3v1h-3z"/><path fill="#ff9eb7" d="M10,14h1v1h-1zM20,14h1v1h-1z"/><path fill="#566c86" d="M6,17h4v1h-4zM22,17h4v1h-4zM0,18h2v1h-2zM6,18h4v1h-4zM22,18h4v1h-4zM0,20h1v1h-1zM6,20h1v1h-1zM10,20h1v1h-1zM21,20h1v1h-1zM25,20h1v1h-1z"/><path fill="#94b0c2" d="M5,19h3v1h-3zM9,19h3v1h-3zM20,19h3v1h-3zM24,19h3v1h-3zM5,20h1v1h-1zM7,20h1v1h-1zM9,20h1v1h-1zM11,20h1v1h-1zM20,20h1v1h-1zM22,20h1v1h-1zM24,20h1v1h-1zM26,20h1v1h-1zM5,21h3v1h-3zM9,21h3v1h-3zM20,21h3v1h-3zM24,21h3v1h-3zM3,23h1v1h-1zM1,24h1v1h-1zM2,25h1v1h-1z"/></svg>