<svg xmlns="http://www.w3.org/2000/svg" viewBox="0 0 32 32" shape-rendering="crispEdges"><path fill="#a7f070" d="M14,6h4v1h-4zM13,7h6v1h-6zM12,8h2v1h-2zM13,8h2v1h-2zM14,8h2v1h-2zM15,8h5v1h-5zM12,9h4v1h-4zM11,10h4v1h-4zM10,11h4v1h-4zM19,11h1v1h-1zM10,12h3v1h-3zM20,12h1v1h-1z"/><path fill="#38b764" d="M11,9h10v1h-10zM10,10h12v1h-12zM9,11h14v1h-14zM9,12h14v1h-14zM8,13h16v1h-16zM8,14h16v1h-16zM8,15h16v1h-16zM7,16h18v1h-18zM7,17h18v1h-18zM7,18h18v1h-18zM7,19h18v1h-18zM7,20h18v1h-18zM8,21h16v1h-16zM8,22h16v1h-16zM9,23h14v1h-14zM8,24h16v1h-16zM7,25h18v1h-18z"/><path fill="#257179" d="M7,26h18v1h-18z"/><path fill="#f4f4f4" d="M12,8h1v1h-1zM11,9h1v1h-1zM10,10h1v1h-1zM10,11h1v1h-1zM11,15h2v1h-2zM12,15h2v1h-2zM18,15h2v1h-2zM19,15h2v1h-2zM11,16h3v1h-3zM18,16h3v1h-3zM11,17h3v1h-3zM18,17h3v1h-3z"/><path fill="#1a1c2c" d="M12,15h2v1h-2zM19,15h2v1h-2zM12,16h2v1h-2zM19,16h2v1h-2zM14,20h1v1h-1zM17,20h1v1h-1zM15,21h2v1h-2z"/><path fill="#ff9eb7" d="M9,18h2v1h-2zM21,18h2v1h-2z"/></svg>