<svg xmlns="http://www.w3.org/2000/svg" viewBox="0 0 32 32" shape-rendering="crispEdges"><path fill="#8b5e34" d="M19,8h5v1h-5ZM17,9h9v1h-9ZM16,10h2v1h-2ZM25,10h2v1h-2ZM15,11h2v1h-2ZM26,11h2v1h-2ZM15,12h1v1h-1ZM19,12h5v1h-5ZM27,12h1v1h-1ZM14,13h2v1h-2ZM18,13h3v1h-3ZM22,13h3v1h-3ZM27,13h2v1h-2ZM14,14h2v1h-2ZM18,14h2v1h-2ZM23,14h2v1h-2ZM27,14h2v1h-2ZM14,15h2v1h-2ZM18,15h2v1h-2ZM23,15h2v1h-2ZM27,15h2v1h-2ZM14,16h2v1h-2ZM18,16h2v1h-2ZM23,16h2v1h-2ZM27,16h2v1h-2ZM14,17h2v1h-2ZM18,17h7v1h-7ZM27,17h2v1h-2ZM15,18h1v1h-1ZM19,18h5v1h-5ZM27,18h1v1h-1ZM15,19h2v1h-2ZM26,19h2v1h-2ZM16,20h2v1h-2ZM25,20h2v1h-2ZM17,21h9v1h-9Z"/><path fill="#ffcd75" d="M18,10h2v1h-2ZM21,11h1v1h-1ZM21,13h1v1h-1Z"/><path fill="#ef7d57" d="M20,10h5v1h-5ZM17,11h4v1h-4ZM22,11h4v1h-4ZM16,12h3v1h-3ZM24,12h3v1h-3ZM16,13h2v1h-2ZM25,13h2v1h-2ZM16,14h2v1h-2ZM20,14h3v1h-3ZM25,14h2v1h-2ZM16,15h2v1h-2ZM20,15h3v1h-3ZM25,15h2v1h-2ZM16,16h2v1h-2ZM20,16h3v1h-3ZM25,16h2v1h-2ZM16,17h2v1h-2ZM25,17h2v1h-2ZM16,18h3v1h-3ZM24,18h3v1h-3ZM17,19h9v1h-9ZM18,20h7v1h-7Z"/><path fill="#f4f4f4" d="M2,15h1v1h-1ZM4,15h2v1h-2ZM7,15h1v1h-1ZM2,16h1v1h-1ZM4,16h2v1h-2ZM7,16h1v1h-1Z"/><path fill="#a7f070" d="M3,15h1v1h-1ZM6,15h1v1h-1ZM1,21h2v1h-2ZM7,21h1v1h-1ZM1,22h1v1h-1ZM7,22h16v1h-16Z"/><path fill="#1a1c2c" d="M3,16h1v1h-1ZM6,16h1v1h-1Z"/><path fill="#38b764" d="M3,17h1v1h-1ZM6,17h1v1h-1ZM3,18h1v1h-1ZM6,18h1v1h-1ZM3,19h1v1h-1ZM6,19h1v1h-1ZM2,20h5v1h-5ZM3,21h4v1h-4ZM4,22h3v1h-3ZM23,22h2v1h-2ZM2,23h1v1h-1ZM5,23h20v1h-20ZM2,24h23v1h-23Z"/><path fill="#ff9eb7" d="M2,22h2v1h-2Z"/><path fill="#b13e53" d="M3,23h2v1h-2Z"/><path fill="#94b0c2" d="M5,26h1v1h-1ZM8,26h1v1h-1ZM11,26h1v1h-1ZM14,26h1v1h-1ZM17,26h1v1h-1ZM6,27h1v1h-1ZM10,27h1v1h-1ZM13,27h1v1h-1ZM16,27h1v1h-1Z"/><path fill="#ffecd2" d="M0,28h32v1h-32ZM0,29h32v1h-32ZM0,30h32v1h-32ZM0,31h32v1h-32Z"/></svg>