<svg xmlns="http://www.w3.org/2000/svg" viewBox="0 0 32 32" shape-rendering="crispEdges"><path fill="#41a6f6" d="M0,0h32v1h-32zM0,1h32v1h-32zM0,2h32v1h-32zM0,3h32v1h-32zM0,4h32v1h-32zM0,5h32v1h-32zM0,6h32v1h-32zM0,7h32v1h-32zM0,8h32v1h-32zM0,9h32v1h-32zM0,10h32v1h-32zM0,11h32v1h-32zM0,12h32v1h-32zM0,13h32v1h-32zM0,14h32v1h-32zM0,15h32v1h-32zM0,16h32v1h-32zM0,17h32v1h-32zM0,18h32v1h-32zM0,19h32v1h-32zM0,20h32v1h-32zM0,21h32v1h-32zM0,22h32v1h-32zM0,23h32v1h-32zM0,24h32v1h-32zM0,25h32v1h-32zM0,26h32v1h-32zM0,27h32v1h-32zM0,28h32v1h-32zM0,29h32v1h-32zM0,30h32v1h-32zM0,31h32v1h-32z"/><path fill="#f4f4f4" d="M10,1h1v1h-1zM22,2h1v1h-1zM3,3h1v1h-1zM16,5h1v1h-1zM25,5h1v1h-1zM14,6h5v1h-5zM8,7h1v1h-1zM14,7h5v1h-5zM13,8h7v1h-7zM14,9h5v1h-5zM14,10h5v1h-5zM28,10h1v1h-1zM16,11h1v1h-1zM16,11h1v1h-1zM14,12h5v1h-5zM13,13h7v1h-7zM13,14h7v1h-7zM1,15h1v1h-1zM12,15h9v1h-9zM13,16h7v1h-7zM13,17h7v1h-7zM14,18h3v1h-3zM16,18h3v1h-3zM13,19h4v1h-4zM16,19h4v1h-4zM12,20h9v1h-9zM12,21h9v1h-9zM12,22h9v1h-9zM11,23h11v1h-11zM12,24h9v1h-9zM12,25h9v1h-9zM12,26h9v1h-9zM0,27h14v1h-14zM13,27h2v1h-2zM14,27h2v1h-2zM15,27h2v1h-2zM16,27h2v1h-2zM17,27h2v1h-2zM18,27h2v1h-2zM19,27h13v1h-13zM0,28h17v1h-17zM16,28h16v1h-16zM0,29h32v1h-32zM0,30h32v1h-32zM0,31h32v1h-32z"/><path fill="#94b0c2" d="M2,26h1v1h-1zM7,26h1v1h-1zM20,26h1v1h-1zM26,26h1v1h-1zM13,27h1v1h-1zM30,27h1v1h-1zM5,28h1v1h-1zM18,28h1v1h-1zM25,29h1v1h-1z"/><path fill="#1a1c2c" d="M14,0h5v1h-5zM14,1h5v1h-5zM13,2h7v1h-7zM13,5h7v1h-7zM14,7h1v1h-1zM18,7h1v1h-1zM14,9h1v1h-1zM18,9h1v1h-1zM15,10h3v1h-3zM16,14h1v1h-1zM16,16h1v1h-1zM16,18h1v1h-1z"/><path fill="#ef7d57" d="M16,8h2v1h-2z"/><path fill="#ff9eb7" d="M13,8h1v1h-1zM19,8h1v1h-1z"/><path fill="#b13e53" d="M12,12h9v1h-9zM12,13h9v1h-9zM19,14h2v1h-2zM20,15h1v1h-1zM20,16h1v1h-1z"/><path fill="#8b5e34" d="M6,11h1v1h-1zM26,11h1v1h-1zM6,12h1v1h-1zM26,12h1v1h-1zM5,13h1v1h-1zM7,13h2v1h-2zM24,13h2v1h-2zM27,13h1v1h-1zM9,14h2v1h-2zM22,14h2v1h-2zM11,15h1v1h-1zM21,15h1v1h-1z"/></svg>