<svg xmlns="http://www.w3.org/2000/svg" viewBox="0 0 32 32" shape-rendering="crispEdges"><path fill="#94b0c2" d="M13,3h6v1h-6zM11,4h2v1h-2zM19,4h2v1h-2zM9,5h2v1h-2zM21,5h2v1h-2zM7,8h1v1h-1zM24,8h1v1h-1zM6,10h1v1h-1zM25,10h1v1h-1zM6,17h1v1h-1zM25,17h1v1h-1zM7,19h1v1h-1zM24,19h1v1h-1zM12,23h1v1h-1zM19,23h1v1h-1z"/><path fill="#41a6f6" d="M13,4h6v1h-6zM11,5h10v1h-10zM9,6h4v1h-4zM14,6h4v1h-4zM19,6h4v1h-4zM8,7h5v1h-5zM17,7h2v1h-2zM20,7h4v1h-4zM8,8h1v1h-1zM10,8h14v1h-14zM7,9h7v1h-7zM17,9h3v1h-3zM21,9h4v1h-4zM7,10h8v1h-8zM17,10h8v1h-8zM6,11h5v1h-5zM12,11h1v1h-1zM19,11h7v1h-7zM6,12h7v1h-7zM19,12h3v1h-3zM23,12h3v1h-3zM6,13h5v1h-5zM21,13h5v1h-5zM6,14h2v1h-2zM9,14h2v1h-2zM21,14h5v1h-5zM6,15h6v1h-6zM20,15h6v1h-6zM6,16h6v1h-6zM20,16h2v1h-2zM23,16h3v1h-3zM7,17h3v1h-3zM11,17h2v1h-2zM19,17h6v1h-6zM7,18h6v1h-6zM19,18h2v1h-2zM22,18h3v1h-3zM8,19h7v1h-7zM17,19h7v1h-7zM13,23h6v1h-6z"/><path fill="#1a1c2c" d="M13,6h1v1h-1zM18,6h1v1h-1zM15,7h2v1h-2z"/><path fill="#f4f4f4" d="M13,7h1v1h-1zM9,8h1v1h-1zM14,9h1v1h-1zM20,9h1v1h-1zM11,11h1v1h-1zM22,12h1v1h-1zM8,14h1v1h-1zM22,16h1v1h-1zM10,17h1v1h-1zM21,18h1v1h-1zM8,20h16v1h-16zM8,21h16v1h-16zM8,22h16v1h-16z"/><path fill="#ff9eb7" d="M14,7h1v1h-1zM19,7h1v1h-1z"/><path fill="#ffcd75" d="M15,9h2v1h-2zM14,16h1v1h-1zM9,24h14v1h-14z"/><path fill="#38b764" d="M15,10h2v1h-2zM13,11h6v1h-6zM13,12h6v1h-6zM11,13h7v1h-7zM19,13h2v1h-2zM11,14h1v1h-1zM14,14h7v1h-7zM12,15h5v1h-5zM18,15h2v1h-2zM12,16h2v1h-2zM15,16h5v1h-5zM13,17h6v1h-6zM13,18h6v1h-6z"/><path fill="#b13e53" d="M18,13h1v1h-1zM13,14h1v1h-1z"/><path fill="#3b5dc9" d="M12,14h1v1h-1z"/><path fill="#ef7d57" d="M17,15h1v1h-1z"/><path fill="#8b5e34" d="M15,19h2v1h-2zM9,25h14v1h-14zM8,26h16v1h-16zM8,27h16v1h-16z"/><path fill="#333c57" d="M9,28h14v1h-14z"/></svg>