<svg xmlns="http://www.w3.org/2000/svg" viewBox="0 0 32 32" shape-rendering="crispEdges"><path fill="#29366f" d="M0,0h32v1h-32zM0,1h32v1h-32zM0,2h32v1h-32zM0,3h32v1h-32zM0,4h32v1h-32zM0,5h32v1h-32zM0,6h32v1h-32zM0,7h32v1h-32zM0,8h32v1h-32zM0,9h32v1h-32zM0,10h32v1h-32zM0,11h32v1h-32zM0,12h32v1h-32zM0,13h32v1h-32zM0,14h32v1h-32zM0,15h32v1h-32zM0,16h32v1h-32zM0,17h32v1h-32zM0,18h32v1h-32zM0,19h32v1h-32zM0,20h32v1h-32zM0,21h32v1h-32zM0,22h32v1h-32zM0,23h32v1h-32zM0,24h32v1h-32zM0,25h32v1h-32zM0,26h32v1h-32zM0,27h32v1h-32zM0,28h32v1h-32zM0,29h32v1h-32zM0,30h32v1h-32zM0,31h32v1h-32z"/><path fill="#f4f4f4" d="M10,6h1v1h-1zM22,6h1v1h-1zM11,7h1v1h-1zM21,7h1v1h-1zM11,8h1v1h-1zM21,8h1v1h-1zM12,9h1v1h-1zM20,9h1v1h-1zM12,10h1v1h-1zM20,10h1v1h-1zM13,11h1v1h-1zM19,11h1v1h-1zM13,12h1v1h-1zM19,12h1v1h-1zM14,13h1v1h-1zM14,13h1v1h-1zM18,13h1v1h-1zM18,13h1v1h-1zM15,14h1v1h-1zM17,14h1v1h-1zM16,15h1v1h-1zM5,16h23v1h-23zM16,17h1v1h-1zM15,18h1v1h-1zM17,18h1v1h-1zM14,19h2v1h-2zM18,19h1v1h-1zM18,19h1v1h-1zM14,20h1v1h-1zM19,20h1v1h-1zM13,21h1v1h-1zM19,21h1v1h-1zM13,22h1v1h-1zM20,22h1v1h-1zM12,23h1v1h-1zM20,23h1v1h-1zM12,24h1v1h-1zM21,24h1v1h-1zM11,25h1v1h-1zM21,25h1v1h-1zM11,26h1v1h-1zM22,26h1v1h-1z"/><path fill="#73eff7" d="M10,6h1v1h-1zM22,6h1v1h-1zM15,9h1v1h-1zM18,9h1v1h-1zM14,10h1v1h-1zM18,10h1v1h-1zM14,11h1v1h-1zM19,11h1v1h-1zM10,12h3v1h-3zM20,12h3v1h-3zM9,13h1v1h-1zM23,13h1v1h-1zM10,14h1v1h-1zM22,14h1v1h-1zM11,15h1v1h-1zM22,15h1v1h-1zM4,16h1v1h-1zM28,16h1v1h-1zM11,17h1v1h-1zM22,17h1v1h-1zM10,18h1v1h-1zM22,18h1v1h-1zM10,19h1v1h-1zM23,19h1v1h-1zM11,20h3v1h-3zM20,20h3v1h-3zM15,21h1v1h-1zM19,21h1v1h-1zM15,22h1v1h-1zM18,22h1v1h-1zM16,23h1v1h-1zM18,23h1v1h-1zM10,26h1v1h-1zM22,26h1v1h-1z"/><path fill="#41a6f6" d="M13,7h1v1h-1zM19,7h1v1h-1zM13,8h1v1h-1zM20,8h1v1h-1zM10,9h2v1h-2zM21,9h2v1h-2zM7,14h1v1h-1zM25,14h1v1h-1zM8,15h1v1h-1zM25,15h1v1h-1zM8,17h1v1h-1zM25,17h1v1h-1zM7,18h1v1h-1zM25,18h1v1h-1zM10,23h2v1h-2zM21,23h2v1h-2zM13,24h1v1h-1zM20,24h1v1h-1zM13,25h1v1h-1zM19,25h1v1h-1z"/></svg>