<svg xmlns="http://www.w3.org/2000/svg" viewBox="0 0 32 32" shape-rendering="crispEdges"><path fill="#f4f4f4" d="M15,3h1v1h-1zM11,4h3v1h-3zM16,4h4v1h-4zM9,5h4v1h-4zM17,5h5v1h-5zM8,6h5v1h-5zM17,6h6v1h-6zM7,7h17v1h-17zM8,8h14v1h-14zM23,8h1v1h-1zM9,9h12v1h-12zM24,9h1v1h-1zM9,10h12v1h-12zM24,10h1v1h-1zM6,11h19v1h-19zM6,12h6v1h-6zM14,12h3v1h-3zM19,12h6v1h-6zM5,13h6v1h-6zM12,13h7v1h-7zM20,13h6v1h-6zM6,14h8v1h-8zM17,14h8v1h-8zM6,15h19v1h-19zM6,16h3v1h-3zM10,16h10v1h-10zM21,16h4v1h-4zM6,17h2v1h-2zM11,17h8v1h-8zM22,17h3v1h-3zM7,18h1v1h-1zM11,18h8v1h-8zM22,18h2v1h-2zM7,19h2v1h-2zM10,19h10v1h-10zM21,19h3v1h-3zM8,20h15v1h-15zM9,21h13v1h-13zM11,22h9v1h-9zM15,23h1v1h-1z"/><path fill="#1a1c2c" d="M14,4h2v1h-2zM13,5h4v1h-4zM13,6h4v1h-4zM7,8h1v1h-1zM22,8h1v1h-1zM6,9h3v1h-3zM21,9h3v1h-3zM6,10h3v1h-3zM21,10h3v1h-3zM12,12h2v1h-2zM17,12h2v1h-2zM14,14h3v1h-3zM9,16h1v1h-1zM20,16h1v1h-1zM8,17h3v1h-3zM19,17h3v1h-3zM8,18h3v1h-3zM19,18h3v1h-3zM9,19h1v1h-1zM20,19h1v1h-1z"/><path fill="#ff9eb7" d="M11,13h1v1h-1zM19,13h1v1h-1z"/><path fill="#566c86" d="M11,24h9v1h-9z"/><path fill="#38b764" d="M1,25h1v1h-1zM4,25h1v1h-1zM7,25h1v1h-1zM10,25h1v1h-1zM13,25h1v1h-1zM16,25h1v1h-1zM19,25h1v1h-1zM25,25h1v1h-1zM28,25h1v1h-1zM31,25h1v1h-1zM0,26h1v1h-1zM2,26h1v1h-1zM4,26h1v1h-1zM6,26h1v1h-1zM8,26h1v1h-1zM10,26h1v1h-1zM12,26h1v1h-1zM14,26h1v1h-1zM16,26h1v1h-1zM18,26h1v1h-1zM20,26h1v1h-1zM22,26h1v1h-1zM24,26h1v1h-1zM26,26h1v1h-1zM30,26h1v1h-1zM0,27h1v1h-1zM2,27h1v1h-1zM4,27h1v1h-1zM6,27h1v1h-1zM8,27h1v1h-1zM10,27h1v1h-1zM12,27h1v1h-1zM14,27h1v1h-1zM16,27h1v1h-1zM18,27h1v1h-1zM20,27h1v1h-1zM22,27h1v1h-1zM24,27h1v1h-1zM26,27h1v1h-1zM28,27h1v1h-1zM30,27h1v1h-1zM0,28h32v1h-32zM0,29h32v1h-32zM0,30h32v1h-32zM0,31h32v1h-32z"/><path fill="#a7f070" d="M9,25h1v1h-1zM22,25h1v1h-1zM3,26h1v1h-1zM15,26h1v1h-1zM28,26h1v1h-1z"/><path fill="#94b0c2" d="M12,25h1v1h-1zM14,25h2v1h-2zM17,25h2v1h-2z"/></svg>