<svg xmlns="http://www.w3.org/2000/svg" width="32" height="32" viewBox="0 0 32 32" shape-rendering="crispEdges">
<path fill="#94b0c2" d="M14 4h4v1h-4zM13 5h6v1h-6zM12 6h8v1h-8zM11 7h10v1h-10zM11 8h3v1h-3zM18 8h3v1h-3zM11 9h3v1h-3zM18 9h3v1h-3zM11 10h3v1h-3zM18 10h3v1h-3zM11 11h10v1h-10zM11 12h3v1h-3zM15 12h2v1h-2zM18 12h3v1h-3zM5 13h4v1h-4zM11 13h1v1h-1zM14 13h5v1h-5zM23 13h4v1h-4zM11 14h3v1h-3zM18 14h3v1h-3zM11 15h10v1h-10zM11 16h10v1h-10zM10 17h12v1h-12z"/><path fill="#73eff7" d="M14 8h1v1h-1zM12 20h8v1h-8zM11 22h10v1h-10zM13 24h6v1h-6zM14 27h1v1h-1zM17 27h1v1h-1z"/><path fill="#41a6f6" d="M15 8h3v1h-3zM14 9h4v1h-4zM14 10h4v1h-4zM13 21h6v1h-6zM12 23h8v1h-8zM14 26h4v1h-4zM15 28h2v1h-2z"/><path fill="#1a1c2c" d="M14 12h1v1h-1zM17 12h1v1h-1zM14 14h1v1h-1zM17 14h1v1h-1z"/><path fill="#b13e53" d="M4 13h1v1h-1zM27 13h1v1h-1z"/><path fill="#ff9eb7" d="M12 13h2v1h-2zM19 13h2v1h-2z"/><path fill="#566c86" d="M4 14h6v1h-6zM22 14h6v1h-6zM4 15h6v1h-6zM22 15h6v1h-6zM4 16h6v1h-6zM22 16h6v1h-6zM4 17h6v1h-6zM22 17h6v1h-6zM9 18h14v1h-14zM8 19h16v1h-16z"/><path fill="#f4f4f4" d="M15 14h2v1h-2zM14 25h4v1h-4z"/>
</svg>