<svg xmlns="http://www.w3.org/2000/svg" viewBox="0 0 32 32" shape-rendering="crispEdges"><path fill="#ef7d57" d="M14,3h4v1h-4ZM15,4h2v1h-2ZM14,5h4v1h-4ZM10,8h12v1h-12ZM9,9h14v1h-14ZM3,10h4v1h-4ZM25,10h4v1h-4ZM7,11h6v1h-6ZM15,11h2v1h-2ZM19,11h6v1h-6ZM1,12h3v1h-3ZM28,12h3v1h-3ZM5,13h8v1h-8ZM14,13h1v1h-1ZM17,13h1v1h-1ZM19,13h8v1h-8ZM8,15h2v1h-2ZM11,15h10v1h-10ZM22,15h2v1h-2ZM4,16h3v1h-3ZM25,16h3v1h-3ZM8,17h7v1h-7ZM17,17h7v1h-7ZM2,18h1v1h-1ZM4,18h1v1h-1ZM27,18h1v1h-1ZM29,18h1v1h-1ZM10,19h2v1h-2ZM13,19h6v1h-6ZM20,19h2v1h-2ZM1,20h2v1h-2ZM29,20h2v1h-2Z"/><path fill="#ffcd75" d="M13,6h2v1h-2ZM17,6h2v1h-2ZM13,7h6v1h-6ZM8,10h3v1h-3ZM12,10h1v1h-1ZM15,10h2v1h-2ZM19,10h1v1h-1ZM21,10h3v1h-3ZM2,11h4v1h-4ZM26,11h4v1h-4ZM6,12h5v1h-5ZM13,12h6v1h-6ZM21,12h5v1h-5ZM1,13h3v1h-3ZM28,13h3v1h-3ZM5,14h9v1h-9ZM15,14h2v1h-2ZM18,14h9v1h-9ZM5,15h3v1h-3ZM24,15h3v1h-3ZM7,16h18v1h-18ZM3,17h3v1h-3ZM26,17h3v1h-3ZM9,18h14v1h-14ZM1,19h3v1h-3ZM28,19h3v1h-3Z"/><path fill="#ffecd2" d="M15,6h2v1h-2ZM11,10h1v1h-1ZM20,10h1v1h-1ZM4,12h1v1h-1ZM27,12h1v1h-1ZM13,13h1v1h-1ZM18,13h1v1h-1ZM10,15h1v1h-1ZM21,15h1v1h-1ZM15,17h2v1h-2ZM3,18h1v1h-1ZM28,18h1v1h-1ZM12,19h1v1h-1ZM19,19h1v1h-1Z"/><path fill="#f4f4f4" d="M13,10h1v1h-1ZM18,10h1v1h-1ZM13,11h1v1h-1ZM18,11h1v1h-1Z"/><path fill="#1a1c2c" d="M14,10h1v1h-1ZM17,10h1v1h-1ZM14,11h1v1h-1ZM17,11h1v1h-1ZM15,13h2v1h-2ZM14,14h1v1h-1ZM17,14h1v1h-1Z"/><path fill="#ff9eb7" d="M11,12h2v1h-2ZM19,12h2v1h-2Z"/></svg>