<svg xmlns="http://www.w3.org/2000/svg" viewBox="0 0 32 32" shape-rendering="crispEdges"><path fill="#ef7d57" d="M12,13h5v1h-5ZM13,14h3v1h-3ZM19,14h3v1h-3ZM1,15h1v1h-1ZM3,15h1v1h-1ZM8,15h1v1h-1ZM14,15h1v1h-1ZM20,15h1v1h-1ZM0,16h1v1h-1ZM2,16h1v1h-1ZM4,16h1v1h-1ZM1,17h1v1h-1Z"/><path fill="#ffcd75" d="M10,14h3v1h-3ZM16,14h3v1h-3ZM11,15h1v1h-1ZM17,15h1v1h-1ZM23,15h1v1h-1Z"/><path fill="#38b764" d="M16,15h1v1h-1ZM11,16h11v1h-11ZM24,16h5v1h-5ZM3,17h1v1h-1ZM9,17h18v1h-18ZM29,17h2v1h-2ZM3,18h3v1h-3ZM8,18h22v1h-22ZM4,19h23v1h-23ZM6,20h20v1h-20ZM8,21h17v1h-17ZM8,22h1v1h-1ZM11,24h11v1h-11ZM11,25h2v1h-2ZM15,25h2v1h-2ZM19,25h2v1h-2ZM23,25h2v1h-2ZM11,26h2v1h-2ZM15,26h2v1h-2ZM19,26h2v1h-2ZM23,26h2v1h-2ZM11,27h2v1h-2ZM15,27h2v1h-2ZM19,27h2v1h-2ZM23,27h2v1h-2ZM11,28h2v1h-2ZM15,28h2v1h-2ZM19,28h2v1h-2Z"/><path fill="#f4f4f4" d="M27,17h1v1h-1Z"/><path fill="#1a1c2c" d="M28,17h1v1h-1Z"/><path fill="#b13e53" d="M30,18h1v1h-1Z"/><path fill="#ff9eb7" d="M27,19h2v1h-2Z"/><path fill="#a7f070" d="M9,22h16v1h-16ZM9,23h16v1h-16ZM0,30h32v1h-32ZM0,31h32v1h-32Z"/><path fill="#257179" d="M22,28h3v1h-3ZM10,29h3v1h-3ZM14,29h3v1h-3ZM18,29h3v1h-3Z"/></svg>