<svg xmlns="http://www.w3.org/2000/svg" viewBox="0 0 32 32" shape-rendering="crispEdges"><path fill="#38b764" d="M15,0h2v1h-2zM13,1h6v1h-6zM11,2h10v1h-10zM10,3h1v1h-1zM12,3h8v1h-8zM21,3h1v1h-1zM12,4h8v1h-8z"/><path fill="#b13e53" d="M13,5h6v1h-6zM13,6h6v1h-6zM12,7h8v1h-8zM12,8h8v1h-8zM11,9h2v1h-2zM14,9h4v1h-4zM19,9h2v1h-2zM11,10h10v1h-10zM10,11h12v1h-12zM10,12h12v1h-12zM10,13h1v1h-1zM12,13h4v1h-4zM17,13h3v1h-3zM21,13h1v1h-1zM9,14h4v1h-4zM14,14h4v1h-4zM19,14h4v1h-4zM9,15h4v1h-4zM14,15h4v1h-4zM19,15h4v1h-4zM8,16h16v1h-16zM8,17h3v1h-3zM14,17h4v1h-4zM21,17h3v1h-3zM7,18h7v1h-7zM15,18h2v1h-2zM18,18h7v1h-7zM7,19h8v1h-8zM17,19h8v1h-8zM6,20h20v1h-20zM6,21h5v1h-5zM12,21h4v1h-4zM17,21h3v1h-3zM21,21h5v1h-5zM6,22h20v1h-20zM5,23h22v1h-22zM5,24h22v1h-22zM6,25h8v1h-8zM15,25h2v1h-2zM18,25h8v1h-8zM8,26h16v1h-16zM9,27h14v1h-14zM11,28h10v1h-10zM15,29h2v1h-2z"/><path fill="#ffcd75" d="M13,9h1v1h-1zM18,9h1v1h-1zM11,13h1v1h-1zM16,13h1v1h-1zM20,13h1v1h-1zM13,17h1v1h-1zM18,17h1v1h-1zM11,21h1v1h-1zM16,21h1v1h-1zM20,21h1v1h-1zM14,25h1v1h-1zM17,25h1v1h-1z"/><path fill="#1a1c2c" d="M13,14h1v1h-1zM18,14h1v1h-1zM13,15h1v1h-1zM18,15h1v1h-1zM14,18h1v1h-1zM17,18h1v1h-1zM15,19h2v1h-2z"/><path fill="#ff9eb7" d="M11,17h2v1h-2zM19,17h2v1h-2z"/></svg>