<svg xmlns="http://www.w3.org/2000/svg" viewBox="0 0 32 32" shape-rendering="crispEdges"><path fill="#29366f" d="M0 0h32v1h-32zM0 1h32v1h-32zM0 2h32v1h-32zM0 3h32v1h-32zM0 4h32v1h-32zM0 5h32v1h-32zM0 6h32v1h-32zM2 7h1v1h-1zM5 7h1v1h-1zM8 7h1v1h-1zM11 7h1v1h-1zM14 7h1v1h-1zM17 7h1v1h-1zM20 7h1v1h-1zM23 7h1v1h-1zM26 7h1v1h-1zM29 7h1v1h-1z"/><path fill="#41a6f6" d="M0 7h2v1h-2zM3 7h2v1h-2zM6 7h2v1h-2zM9 7h2v1h-2zM12 7h2v1h-2zM15 7h2v1h-2zM18 7h2v1h-2zM21 7h2v1h-2zM24 7h2v1h-2zM27 7h2v1h-2zM30 7h2v1h-2zM9 18h3v1h-3zM9 19h3v1h-3zM9 20h3v1h-3z"/><path fill="#3b5dc9" d="M0 8h13v1h-13zM17 8h15v1h-15zM0 9h10v1h-10zM11 9h3v1h-3zM18 9h2v1h-2zM21 9h11v1h-11zM0 10h12v1h-12zM13 10h1v1h-1zM16 10h3v1h-3zM20 10h12v1h-12zM0 11h8v1h-8zM9 11h5v1h-5zM16 11h1v1h-1zM18 11h14v1h-14z"/><path fill="#566c86" d="M13 8h4v1h-4zM14 9h4v1h-4zM14 10h2v1h-2zM14 11h2v1h-2zM14 12h2v1h-2zM14 13h2v1h-2zM14 14h2v1h-2zM29 18h2v1h-2zM29 20h2v1h-2zM29 22h2v1h-2z"/><path fill="#73eff7" d="M10 9h1v1h-1zM20 9h1v1h-1zM17 18h3v1h-3zM17 19h3v1h-3zM17 20h3v1h-3z"/><path fill="#f4f4f4" d="M12 10h1v1h-1zM19 10h1v1h-1zM8 11h1v1h-1zM17 11h1v1h-1z"/><path fill="#ffcd75" d="M8 14h6v1h-6zM16 14h8v1h-8zM6 15h20v1h-20zM4 16h24v1h-24zM3 17h6v1h-6zM12 17h5v1h-5zM20 17h9v1h-9zM3 18h5v1h-5zM13 18h3v1h-3zM21 18h8v1h-8zM3 19h5v1h-5zM13 19h3v1h-3zM21 19h5v1h-5zM3 20h5v1h-5zM14 20h1v1h-1zM21 20h4v1h-4zM28 20h1v1h-1zM3 21h6v1h-6zM13 21h1v1h-1zM15 21h1v1h-1zM20 21h7v1h-7zM3 22h26v1h-26zM4 23h24v1h-24zM6 24h20v1h-20z"/><path fill="#333c57" d="M9 17h3v1h-3zM17 17h3v1h-3zM8 18h1v1h-1zM12 18h1v1h-1zM16 18h1v1h-1zM20 18h1v1h-1zM8 19h1v1h-1zM12 19h1v1h-1zM16 19h1v1h-1zM20 19h1v1h-1zM29 19h1v1h-1zM8 20h1v1h-1zM12 20h1v1h-1zM16 20h1v1h-1zM20 20h1v1h-1zM9 21h3v1h-3zM17 21h3v1h-3zM29 21h1v1h-1z"/><path fill="#1a1c2c" d="M26 19h1v1h-1zM13 20h1v1h-1zM15 20h1v1h-1zM14 21h1v1h-1z"/><path fill="#ef7d57" d="M27 19h2v1h-2zM25 20h3v1h-3zM27 21h2v1h-2z"/><path fill="#ff9eb7" d="M12 21h1v1h-1zM16 21h1v1h-1z"/></svg>