<svg xmlns="http://www.w3.org/2000/svg" viewBox="0 0 32 32" shape-rendering="crispEdges"><path fill="#1a1c2c" d="M7,3h18v1h-18ZM8,4h1v1h-1ZM23,4h1v1h-1ZM7,5h1v1h-1ZM24,5h1v1h-1ZM6,6h1v1h-1ZM25,6h1v1h-1ZM5,7h1v1h-1ZM26,7h1v1h-1ZM4,8h1v1h-1ZM27,8h1v1h-1ZM4,9h1v1h-1ZM10,9h1v1h-1ZM21,9h1v1h-1ZM27,9h1v1h-1ZM4,10h1v1h-1ZM8,10h2v1h-2ZM11,10h2v1h-2ZM19,10h2v1h-2ZM22,10h2v1h-2ZM27,10h1v1h-1ZM4,11h1v1h-1ZM8,11h5v1h-5ZM19,11h5v1h-5ZM27,11h1v1h-1ZM4,12h1v1h-1ZM7,12h1v1h-1ZM9,12h1v1h-1ZM11,12h1v1h-1ZM13,12h1v1h-1ZM18,12h1v1h-1ZM20,12h1v1h-1ZM22,12h1v1h-1ZM24,12h1v1h-1ZM27,12h1v1h-1ZM4,13h1v1h-1ZM8,13h5v1h-5ZM19,13h5v1h-5ZM27,13h1v1h-1ZM4,14h1v1h-1ZM9,14h1v1h-1ZM11,14h2v1h-2ZM19,14h2v1h-2ZM22,14h1v1h-1ZM27,14h1v1h-1ZM4,15h1v1h-1ZM10,15h1v1h-1ZM21,15h1v1h-1ZM27,15h1v1h-1ZM4,16h1v1h-1ZM27,16h1v1h-1ZM4,17h1v1h-1ZM27,17h1v1h-1ZM4,18h1v1h-1ZM27,18h1v1h-1ZM4,19h1v1h-1ZM27,19h1v1h-1ZM4,20h1v1h-1ZM27,20h1v1h-1ZM4,21h1v1h-1ZM10,21h12v1h-12ZM27,21h1v1h-1ZM4,22h1v1h-1ZM10,22h1v1h-1ZM12,22h1v1h-1ZM14,22h1v1h-1ZM16,22h1v1h-1ZM18,22h1v1h-1ZM20,22h2v1h-2ZM27,22h1v1h-1ZM4,23h1v1h-1ZM27,23h1v1h-1ZM4,24h1v1h-1ZM27,24h1v1h-1ZM4,25h1v1h-1ZM27,25h1v1h-1ZM4,26h1v1h-1ZM27,26h1v1h-1ZM4,27h1v1h-1ZM27,27h1v1h-1ZM10,28h12v1h-12Z"/><path fill="#f4f4f4" d="M11,4h9v1h-9ZM9,5h6v1h-6ZM17,5h5v1h-5ZM8,6h6v1h-6ZM18,6h5v1h-5ZM7,7h8v1h-8ZM17,7h7v1h-7ZM7,8h17v1h-17ZM6,9h4v1h-4ZM11,9h10v1h-10ZM22,9h3v1h-3ZM6,10h2v1h-2ZM13,10h6v1h-6ZM24,10h1v1h-1ZM5,11h3v1h-3ZM13,11h6v1h-6ZM24,11h2v1h-2ZM5,12h2v1h-2ZM14,12h4v1h-4ZM25,12h1v1h-1ZM5,13h3v1h-3ZM13,13h6v1h-6ZM24,13h2v1h-2ZM5,14h2v1h-2ZM13,14h6v1h-6ZM25,14h1v1h-1ZM5,15h2v1h-2ZM8,15h2v1h-2ZM11,15h10v1h-10ZM22,15h2v1h-2ZM25,15h2v1h-2ZM5,16h9v1h-9ZM15,16h2v1h-2ZM18,16h8v1h-8ZM5,17h10v1h-10ZM17,17h9v1h-9ZM5,18h1v1h-1ZM7,18h8v1h-8ZM17,18h8v1h-8ZM5,19h21v1h-21ZM6,20h19v1h-19ZM6,21h4v1h-4ZM22,21h3v1h-3ZM7,22h3v1h-3ZM11,22h1v1h-1ZM13,22h1v1h-1ZM15,22h1v1h-1ZM17,22h1v1h-1ZM19,22h1v1h-1ZM22,22h2v1h-2ZM7,23h17v1h-17ZM8,24h16v1h-16ZM9,25h3v1h-3ZM13,25h1v1h-1ZM15,25h1v1h-1ZM17,25h1v1h-1ZM19,25h4v1h-4ZM9,26h4v1h-4ZM14,26h1v1h-1ZM16,26h1v1h-1ZM18,26h5v1h-5ZM10,27h12v1h-12Z"/><path fill="#ef7d57" d="M15,5h2v1h-2ZM15,7h2v1h-2ZM28,12h1v1h-1ZM15,26h1v1h-1Z"/><path fill="#ffcd75" d="M14,6h1v1h-1ZM17,6h1v1h-1ZM10,12h1v1h-1ZM19,12h1v1h-1ZM21,12h1v1h-1ZM10,14h1v1h-1ZM6,18h1v1h-1ZM16,25h1v1h-1Z"/><path fill="#b13e53" d="M15,6h2v1h-2ZM6,8h1v1h-1ZM10,10h1v1h-1ZM21,14h1v1h-1ZM29,15h1v1h-1ZM14,25h1v1h-1Z"/><path fill="#73eff7" d="M25,8h1v1h-1ZM21,10h1v1h-1ZM8,12h1v1h-1ZM2,15h1v1h-1ZM12,25h1v1h-1ZM17,26h1v1h-1Z"/><path fill="#ff9eb7" d="M3,12h1v1h-1ZM12,12h1v1h-1ZM23,12h1v1h-1ZM7,14h2v1h-2ZM23,14h2v1h-2ZM7,15h1v1h-1ZM24,15h1v1h-1ZM14,16h1v1h-1ZM17,16h1v1h-1ZM15,17h2v1h-2ZM15,18h2v1h-2ZM13,26h1v1h-1Z"/><path fill="#38b764" d="M25,18h1v1h-1ZM18,25h1v1h-1Z"/></svg>