<svg xmlns="http://www.w3.org/2000/svg" viewBox="0 0 32 32" shape-rendering="crispEdges"><path fill="#c5e8fc" d="M0,0h32v1h-32zM0,1h32v1h-32zM0,2h32v1h-32zM0,3h32v1h-32zM0,4h32v1h-32zM0,5h32v1h-32zM0,6h32v1h-32zM0,7h32v1h-32zM0,8h32v1h-32zM0,9h32v1h-32zM0,10h32v1h-32zM0,11h32v1h-32zM0,12h32v1h-32zM0,13h32v1h-32zM0,14h32v1h-32zM0,15h32v1h-32zM0,16h32v1h-32zM0,17h32v1h-32zM0,18h32v1h-32zM0,19h32v1h-32zM0,20h32v1h-32zM0,21h32v1h-32zM0,22h32v1h-32zM0,23h32v1h-32zM0,24h32v1h-32zM0,25h32v1h-32zM0,26h32v1h-32zM0,27h32v1h-32zM0,28h32v1h-32zM0,29h32v1h-32zM0,30h32v1h-32zM0,31h32v1h-32z"/><path fill="#ffcd75" d="M17,4h1v1h-1zM17,5h1v1h-1zM17,6h1v1h-1zM17,7h1v1h-1zM17,8h1v1h-1zM9,9h1v1h-1zM17,9h1v1h-1zM23,9h1v1h-1zM10,10h1v1h-1zM10,10h1v1h-1zM16,10h1v1h-1zM22,10h1v1h-1zM22,10h1v1h-1zM11,11h1v1h-1zM13,11h7v1h-7zM21,11h1v1h-1zM12,12h9v1h-9zM11,13h11v1h-11zM11,14h11v1h-11zM4,15h6v1h-6zM11,15h11v1h-11zM10,16h13v1h-13zM11,17h11v1h-11zM23,17h6v1h-6zM11,18h11v1h-11zM11,19h11v1h-11zM12,20h9v1h-9zM11,21h1v1h-1zM13,21h7v1h-7zM21,21h1v1h-1zM10,22h1v1h-1zM10,22h1v1h-1zM16,22h1v1h-1zM22,22h1v1h-1zM22,22h1v1h-1zM9,23h1v1h-1zM15,23h1v1h-1zM23,23h1v1h-1zM15,24h1v1h-1zM15,25h1v1h-1zM15,26h1v1h-1zM15,27h1v1h-1zM15,28h1v1h-1z"/><path fill="#ef7d57" d="M16,3h1v1h-1zM16,4h1v1h-1zM16,5h1v1h-1zM16,6h1v1h-1zM16,7h1v1h-1zM16,8h1v1h-1zM16,9h1v1h-1zM3,16h7v1h-7zM23,16h7v1h-7zM12,17h2v1h-2zM19,17h2v1h-2zM16,23h1v1h-1zM16,24h1v1h-1zM16,25h1v1h-1zM16,26h1v1h-1zM16,27h1v1h-1zM16,28h1v1h-1zM16,29h1v1h-1z"/><path fill="#1a1c2c" d="M14,14h1v1h-1zM18,14h1v1h-1zM13,15h1v1h-1zM15,15h1v1h-1zM17,15h1v1h-1zM19,15h1v1h-1zM14,18h1v1h-1zM18,18h1v1h-1zM15,19h3v1h-3z"/></svg>