<svg xmlns="http://www.w3.org/2000/svg" viewBox="0 0 32 32" shape-rendering="crispEdges">
<path fill="#ffcd75" d="M20,13h1v1h-1zM21,13h1v1h-1zM21,12h1v1h-1zM22,13h1v1h-1zM22,12h1v1h-1zM23,13h1v1h-1zM23,12h1v1h-1zM19,15h1v1h-1zM20,16h1v1h-1zM21,15h1v1h-1zM21,16h1v1h-1zM22,15h1v1h-1zM22,17h1v1h-1zM22,16h1v1h-1zM18,16h1v1h-1zM19,17h1v1h-1zM19,17h1v1h-1zM19,18h1v1h-1zM20,18h1v1h-1zM20,19h1v1h-1zM20,19h1v1h-1zM16,17h1v1h-1zM16,18h1v1h-1zM17,18h1v1h-1zM16,19h1v1h-1zM17,19h1v1h-1zM16,20h1v1h-1zM17,20h1v1h-1zM14,16h1v1h-1zM14,17h1v1h-1zM14,18h1v1h-1zM13,18h1v1h-1zM14,19h1v1h-1zM13,19h1v1h-1zM13,19h1v1h-1zM13,15h1v1h-1zM12,16h1v1h-1zM12,16h1v1h-1zM11,16h1v1h-1zM11,17h1v1h-1zM10,17h1v1h-1zM10,17h1v1h-1zM12,13h1v1h-1zM11,13h1v1h-1zM11,14h1v1h-1zM10,13h1v1h-1zM10,14h1v1h-1zM9,13h1v1h-1zM9,14h1v1h-1zM13,11h1v1h-1zM12,11h1v1h-1zM11,11h1v1h-1zM11,10h1v1h-1zM10,11h1v1h-1zM10,10h1v1h-1zM10,10h1v1h-1zM14,10h1v1h-1zM13,9h1v1h-1zM13,9h1v1h-1zM13,8h1v1h-1zM12,8h1v1h-1zM12,7h1v1h-1zM12,7h1v1h-1zM16,9h1v1h-1zM16,8h1v1h-1zM15,8h1v1h-1zM16,7h1v1h-1zM15,7h1v1h-1zM16,6h1v1h-1zM15,6h1v1h-1zM18,10h1v1h-1zM19,9h1v1h-1zM18,8h1v1h-1zM19,8h1v1h-1zM18,7h1v1h-1zM20,7h1v1h-1zM19,7h1v1h-1zM19,11h1v1h-1zM20,10h1v1h-1zM20,10h1v1h-1zM21,10h1v1h-1zM21,9h1v1h-1zM22,9h1v1h-1zM22,9h1v1h-1zM24,7h1v1h-1zM26,7h1v1h-1zM25,8h1v1h-1zM5,10h1v1h-1zM7,10h1v1h-1zM6,11h1v1h-1z"/>
<path fill="#8b5e34" d="M16,10h1v1h-1zM14,11h1v1h-1zM15,11h1v1h-1zM16,11h1v1h-1zM17,11h1v1h-1zM18,11h1v1h-1zM14,12h1v1h-1zM15,12h1v1h-1zM16,12h1v1h-1zM17,12h1v1h-1zM18,12h1v1h-1zM13,13h1v1h-1zM14,13h1v1h-1zM15,13h1v1h-1zM16,13h1v1h-1zM17,13h1v1h-1zM18,13h1v1h-1zM19,13h1v1h-1zM14,14h1v1h-1zM15,14h1v1h-1zM16,14h1v1h-1zM17,14h1v1h-1zM18,14h1v1h-1zM14,15h1v1h-1zM15,15h1v1h-1zM16,15h1v1h-1zM17,15h1v1h-1zM18,15h1v1h-1zM16,16h1v1h-1z"/>
<path fill="#5c3a1e" d="M15,12h1v1h-1zM17,12h1v1h-1zM16,13h1v1h-1zM15,14h1v1h-1zM17,14h1v1h-1zM16,11h1v1h-1zM16,15h1v1h-1zM16,13h1v1h-1z"/>
<path fill="#1a1c2c" d="M15,12h1v1h-1zM17,12h1v1h-1zM15,14h1v1h-1zM16,14h1v1h-1zM17,14h1v1h-1zM25,7h1v1h-1zM24,8h1v1h-1zM26,8h1v1h-1zM6,10h1v1h-1zM5,11h1v1h-1zM7,11h1v1h-1z"/>
<path fill="#ff9eb7" d="M14,13h1v1h-1zM18,13h1v1h-1z"/>
<path fill="#38b764" d="M15,20h1v1h-1zM16,20h1v1h-1zM15,21h1v1h-1zM16,21h1v1h-1zM15,22h1v1h-1zM16,22h1v1h-1zM15,23h1v1h-1zM16,23h1v1h-1zM15,24h1v1h-1zM16,24h1v1h-1zM15,25h1v1h-1zM16,25h1v1h-1zM15,26h1v1h-1zM16,26h1v1h-1zM15,27h1v1h-1zM16,27h1v1h-1zM15,28h1v1h-1zM16,28h1v1h-1zM15,29h1v1h-1zM16,29h1v1h-1zM13,22h1v1h-1zM12,22h1v1h-1zM11,22h1v1h-1zM12,23h1v1h-1zM11,23h1v1h-1zM10,23h1v1h-1zM10,24h1v1h-1zM9,24h1v1h-1zM18,23h1v1h-1zM19,23h1v1h-1zM20,23h1v1h-1zM19,24h1v1h-1zM20,24h1v1h-1zM21,24h1v1h-1zM21,25h1v1h-1zM22,25h1v1h-1z"/>
<path fill="#a7f070" d="M9,23h1v1h-1zM10,22h1v1h-1zM22,24h1v1h-1zM21,23h1v1h-1z"/>
<path fill="#f4f4f4" d="M23,6h1v1h-1zM27,6h1v1h-1zM4,9h1v1h-1zM8,9h1v1h-1z"/>
</svg>