<svg xmlns="http://www.w3.org/2000/svg" width="32" height="32" viewBox="0 0 32 32" shape-rendering="crispEdges">
<path fill="#29366f" d="M0 0h32v1h-32zM0 1h32v1h-32zM0 2h32v1h-32zM0 3h32v1h-32z"/><path fill="#3b5dc9" d="M0 4h32v1h-32zM0 5h15v1h-15zM17 5h15v1h-15zM0 6h15v1h-15zM17 6h15v1h-15zM0 7h14v1h-14zM18 7h14v1h-14z"/><path fill="#ffcd75" d="M15 5h2v1h-2zM15 6h2v1h-2zM15 7h2v1h-2zM12 8h1v1h-1zM15 8h2v1h-2zM19 8h1v1h-1zM11 9h1v1h-1zM15 9h2v1h-2zM20 9h1v1h-1zM10 10h1v1h-1zM15 10h2v1h-2zM21 10h1v1h-1zM9 11h1v1h-1zM15 11h2v1h-2zM22 11h1v1h-1zM8 12h1v1h-1zM12 12h7v1h-7zM23 12h1v1h-1zM7 13h1v1h-1zM11 13h2v1h-2zM19 13h1v1h-1zM24 13h1v1h-1zM10 14h3v1h-3zM19 14h2v1h-2zM0 15h10v1h-10zM21 15h11v1h-11zM0 16h10v1h-10zM21 16h11v1h-11zM0 17h9v1h-9zM22 17h10v1h-10z"/><path fill="#ef7d57" d="M14 7h1v1h-1zM17 7h1v1h-1zM13 8h1v1h-1zM18 8h1v1h-1zM12 9h1v1h-1zM19 9h1v1h-1zM11 10h1v1h-1zM20 10h1v1h-1zM0 12h8v1h-8zM9 12h3v1h-3zM19 12h4v1h-4zM24 12h8v1h-8zM0 13h7v1h-7zM8 13h3v1h-3zM20 13h4v1h-4zM25 13h7v1h-7zM0 14h10v1h-10zM21 14h11v1h-11z"/><path fill="#41a6f6" d="M0 8h12v1h-12zM14 8h1v1h-1zM17 8h1v1h-1zM20 8h12v1h-12zM0 9h11v1h-11zM13 9h2v1h-2zM17 9h2v1h-2zM21 9h11v1h-11zM0 10h10v1h-10zM12 10h3v1h-3zM17 10h3v1h-3zM22 10h10v1h-10zM0 11h9v1h-9zM10 11h5v1h-5zM17 11h5v1h-5zM23 11h9v1h-9z"/><path fill="#f4f4f4" d="M13 13h6v1h-6zM13 14h6v1h-6zM10 15h11v1h-11zM10 16h11v1h-11zM9 17h13v1h-13z"/><path fill="#333c57" d="M8 18h1v1h-1zM12 18h1v1h-1zM22 18h1v1h-1zM26 18h1v1h-1zM3 19h1v1h-1zM7 19h3v1h-3zM11 19h3v1h-3zM17 19h1v1h-1zM21 19h3v1h-3zM25 19h3v1h-3zM2 20h3v1h-3zM6 20h2v1h-2zM9 20h6v1h-6zM16 20h3v1h-3zM20 20h9v1h-9zM1 21h2v1h-2zM4 21h3v1h-3zM10 21h3v1h-3zM14 21h5v1h-5zM20 21h10v1h-10zM0 22h2v1h-2zM5 22h1v1h-1zM11 22h1v1h-1zM15 22h3v1h-3zM21 22h3v1h-3zM25 22h3v1h-3zM29 22h3v1h-3zM0 23h1v1h-1zM16 23h1v1h-1zM22 23h1v1h-1zM26 23h1v1h-1zM30 23h2v1h-2z"/><path fill="#566c86" d="M8 20h1v1h-1zM3 21h1v1h-1zM7 21h3v1h-3zM13 21h1v1h-1zM19 21h1v1h-1zM2 22h3v1h-3zM6 22h5v1h-5zM12 22h3v1h-3zM18 22h3v1h-3zM24 22h1v1h-1zM28 22h1v1h-1zM1 23h8v1h-8zM10 23h6v1h-6zM17 23h5v1h-5zM23 23h3v1h-3zM27 23h3v1h-3zM0 24h2v1h-2zM3 24h5v1h-5zM11 24h9v1h-9zM21 24h3v1h-3zM25 24h7v1h-7zM0 25h1v1h-1zM4 25h3v1h-3zM12 25h3v1h-3zM16 25h3v1h-3zM22 25h1v1h-1zM26 25h3v1h-3zM30 25h2v1h-2zM5 26h1v1h-1zM13 26h1v1h-1zM17 26h1v1h-1zM27 26h1v1h-1zM31 26h1v1h-1z"/><path fill="#1a1c2c" d="M9 23h1v1h-1zM2 24h1v1h-1zM8 24h3v1h-3zM20 24h1v1h-1zM24 24h1v1h-1zM1 25h3v1h-3zM7 25h5v1h-5zM15 25h1v1h-1zM19 25h3v1h-3zM23 25h3v1h-3zM29 25h1v1h-1zM0 26h5v1h-5zM6 26h7v1h-7zM14 26h3v1h-3zM18 26h9v1h-9zM28 26h3v1h-3zM0 27h32v1h-32zM0 28h32v1h-32zM0 29h32v1h-32zM0 30h32v1h-32zM0 31h32v1h-32z"/>
</svg>