<svg xmlns="http://www.w3.org/2000/svg" width="32" height="32" viewBox="0 0 32 32" shape-rendering="crispEdges">
<path fill="#29366f" d="M0 0h32v1h-32zM0 1h32v1h-32zM0 2h32v1h-32zM0 3h32v1h-32z"/>
<path fill="#3b5dc9" d="M0 4h32v1h-32zM0 5h32v1h-32zM0 6h32v1h-32zM0 7h32v1h-32z"/>
<path fill="#41a6f6" d="M0 8h21v1h-21zM24 8h8v1h-8zM0 9h14v1h-14zM18 9h3v1h-3zM23 9h9v1h-9zM0 10h13v1h-13zM19 10h13v1h-13zM0 11h13v1h-13zM19 11h13v1h-13z"/>
<path fill="#f4f4f4" d="M21 8h3v1h-3zM21 9h2v1h-2zM15 10h2v1h-2zM14 11h4v1h-4zM7 12h3v1h-3zM14 12h4v1h-4zM8 13h1v1h-1zM15 13h2v1h-2z"/>
<path fill="#ffcd75" d="M14 9h4v1h-4zM13 10h2v1h-2zM17 10h2v1h-2zM13 11h1v1h-1zM18 11h1v1h-1zM13 12h1v1h-1zM18 12h1v1h-1zM13 13h2v1h-2zM17 13h2v1h-2zM14 14h4v1h-4zM0 16h3v1h-3zM14 16h1v1h-1zM0 17h2v1h-2zM0 18h1v1h-1z"/>
<path fill="#ef7d57" d="M0 12h7v1h-7zM10 12h3v1h-3zM19 12h13v1h-13zM0 13h8v1h-8zM9 13h4v1h-4zM19 13h13v1h-13zM0 14h14v1h-14zM18 14h14v1h-14zM0 15h32v1h-32z"/>
<path fill="#333c57" d="M3 16h11v1h-11zM2 17h13v1h-13zM1 18h14v1h-14zM0 19h15v1h-15zM0 20h15v1h-15zM0 21h15v1h-15zM0 22h15v1h-15z"/>
<path fill="#1a1c2c" d="M15 16h17v1h-17zM15 17h17v1h-17zM15 18h17v1h-17zM15 19h17v1h-17zM15 20h17v1h-17zM15 21h17v1h-17zM15 22h17v1h-17zM0 23h32v1h-32zM0 24h32v1h-32zM0 25h32v1h-32zM0 26h32v1h-32zM0 27h32v1h-32zM0 28h32v1h-32zM0 29h32v1h-32zM0 30h32v1h-32zM0 31h32v1h-32z"/>
</svg>