<svg xmlns="http://www.w3.org/2000/svg" viewBox="0 0 32 32" shape-rendering="crispEdges"><path fill="#ef7d57" d="M10,10h12v1h-12zM8,11h16v1h-16zM6,12h3v1h-3zM10,12h1v1h-1zM12,12h1v1h-1zM14,12h1v1h-1zM16,12h1v1h-1zM18,12h1v1h-1zM20,12h1v1h-1zM22,12h1v1h-1zM24,12h2v1h-2zM6,13h20v1h-20zM7,14h3v1h-3zM11,14h1v1h-1zM13,14h1v1h-1zM15,14h1v1h-1zM17,14h1v1h-1zM19,14h1v1h-1zM21,14h1v1h-1zM23,14h1v1h-1zM7,15h18v1h-18zM7,16h2v1h-2zM10,16h1v1h-1zM12,16h1v1h-1zM14,16h1v1h-1zM16,16h1v1h-1zM18,16h1v1h-1zM20,16h1v1h-1zM22,16h1v1h-1zM24,16h1v1h-1zM7,17h18v1h-18z"/><path fill="#f4f4f4" d="M9,12h1v1h-1zM11,12h1v1h-1zM13,12h1v1h-1zM15,12h1v1h-1zM17,12h1v1h-1zM19,12h1v1h-1zM21,12h1v1h-1zM23,12h1v1h-1zM10,14h1v1h-1zM12,14h1v1h-1zM14,14h1v1h-1zM16,14h1v1h-1zM18,14h1v1h-1zM20,14h1v1h-1zM22,14h1v1h-1zM24,14h1v1h-1zM9,16h1v1h-1zM11,16h1v1h-1zM13,16h1v1h-1zM15,16h1v1h-1zM17,16h1v1h-1zM19,16h1v1h-1zM21,16h1v1h-1zM23,16h1v1h-1zM7,21h15v1h-15zM23,21h2v1h-2zM7,22h3v1h-3zM11,22h14v1h-14zM7,23h6v1h-6zM15,23h3v1h-3zM21,23h4v1h-4zM6,24h5v1h-5zM13,24h5v1h-5zM19,24h1v1h-1zM22,24h4v1h-4zM6,25h6v1h-6zM13,25h2v1h-2zM16,25h1v1h-1zM18,25h8v1h-8zM6,26h10v1h-10zM17,26h9v1h-9zM8,27h16v1h-16z"/><path fill="#333c57" d="M6,14h1v1h-1zM25,14h1v1h-1zM6,15h1v1h-1zM25,15h1v1h-1zM6,16h1v1h-1zM25,16h1v1h-1zM6,17h1v1h-1zM25,17h1v1h-1zM6,18h20v1h-20zM6,19h20v1h-20zM6,20h20v1h-20zM6,21h1v1h-1zM25,21h1v1h-1zM6,22h1v1h-1zM25,22h1v1h-1zM6,23h1v1h-1zM25,23h1v1h-1z"/><path fill="#ffecd2" d="M22,21h1v1h-1zM10,22h1v1h-1zM20,23h1v1h-1zM18,24h1v1h-1zM12,25h1v1h-1z"/><path fill="#1a1c2c" d="M13,23h2v1h-2zM18,23h2v1h-2zM15,25h1v1h-1zM17,25h1v1h-1zM16,26h1v1h-1z"/><path fill="#ff9eb7" d="M11,24h2v1h-2zM20,24h2v1h-2z"/></svg>