<svg xmlns="http://www.w3.org/2000/svg" width="32" height="32" viewBox="0 0 32 32" shape-rendering="crispEdges">
<path fill="#b13e53" d="M13 8h4v1h-4zM12 9h6v1h-6zM12 10h6v1h-6z"/><path fill="#f4f4f4" d="M26 9h1v1h-1zM25 10h1v1h-1zM27 10h1v1h-1zM3 11h1v1h-1zM5 11h1v1h-1zM26 11h1v1h-1zM4 12h1v1h-1zM3 13h1v1h-1zM8 20h1v1h-1zM22 22h1v1h-1zM14 24h1v1h-1z"/><path fill="#73eff7" d="M12 11h3v1h-3zM16 11h3v1h-3zM12 12h1v1h-1zM14 12h1v1h-1zM16 12h1v1h-1zM18 12h1v1h-1z"/><path fill="#333c57" d="M15 11h1v1h-1z"/><path fill="#ffecd2" d="M23 11h3v1h-3zM15 12h1v1h-1zM19 12h5v1h-5zM5 13h1v1h-1zM13 13h5v1h-5zM6 14h9v1h-9zM16 14h2v1h-2zM12 15h6v1h-6zM6 18h16v1h-16zM4 19h3v1h-3z"/><path fill="#1a1c2c" d="M13 12h1v1h-1zM17 12h1v1h-1zM15 14h1v1h-1z"/><path fill="#ff9eb7" d="M11 13h2v1h-2zM19 13h2v1h-2z"/><path fill="#41a6f6" d="M0 15h2v1h-2zM4 15h2v1h-2zM8 15h2v1h-2zM20 15h2v1h-2zM24 15h2v1h-2zM28 15h2v1h-2zM0 16h10v1h-10zM22 16h10v1h-10zM0 17h10v1h-10zM22 17h10v1h-10zM0 18h6v1h-6zM22 18h10v1h-10zM0 19h4v1h-4zM7 19h25v1h-25zM0 20h8v1h-8zM9 20h23v1h-23zM0 21h32v1h-32zM0 22h22v1h-22zM23 22h9v1h-9zM0 23h32v1h-32zM0 24h14v1h-14zM15 24h17v1h-17zM0 25h32v1h-32zM0 26h32v1h-32zM0 27h32v1h-32zM0 28h32v1h-32zM0 29h32v1h-32zM0 30h32v1h-32zM0 31h32v1h-32z"/><path fill="#3b5dc9" d="M10 16h12v1h-12zM10 17h12v1h-12z"/>
</svg>