<svg xmlns="http://www.w3.org/2000/svg" width="32" height="32" viewBox="0 0 32 32" shape-rendering="crispEdges">
<path fill="#333c57" d="M14 1h1v1h-1zM16 1h1v1h-1zM13 2h1v1h-1zM17 2h1v1h-1zM13 3h1v1h-1zM17 3h1v1h-1zM12 4h1v1h-1zM18 4h1v1h-1zM12 5h1v1h-1zM18 5h1v1h-1zM12 6h1v1h-1zM18 6h1v1h-1zM12 7h1v1h-1zM18 7h1v1h-1zM12 8h1v1h-1zM18 8h1v1h-1zM12 9h1v1h-1zM18 9h1v1h-1zM12 10h1v1h-1zM18 10h1v1h-1zM12 11h1v1h-1zM18 11h1v1h-1zM12 12h1v1h-1zM18 12h1v1h-1zM12 13h1v1h-1zM18 13h1v1h-1zM12 14h1v1h-1zM18 14h1v1h-1zM12 15h1v1h-1zM18 15h1v1h-1zM12 16h1v1h-1zM18 16h1v1h-1zM13 19h1v1h-1zM17 19h1v1h-1zM13 20h1v1h-1zM17 20h1v1h-1zM13 21h1v1h-1zM17 21h1v1h-1zM13 22h1v1h-1zM17 22h1v1h-1zM13 23h1v1h-1zM17 23h1v1h-1zM13 24h1v1h-1zM17 24h1v1h-1zM13 25h1v1h-1zM17 25h1v1h-1zM13 26h1v1h-1zM17 26h1v1h-1z"/><path fill="#f4f4f4" d="M15 1h1v1h-1zM15 2h1v1h-1zM15 3h1v1h-1zM15 4h1v1h-1zM15 15h1v1h-1zM15 16h1v1h-1z"/><path fill="#94b0c2" d="M14 2h1v1h-1zM16 2h1v1h-1zM14 3h1v1h-1zM14 4h1v1h-1zM16 4h1v1h-1zM14 5h1v1h-1zM16 5h1v1h-1zM14 6h1v1h-1zM16 6h1v1h-1zM14 7h1v1h-1zM16 7h1v1h-1zM14 8h1v1h-1zM16 8h1v1h-1zM14 9h1v1h-1zM16 9h1v1h-1zM14 10h1v1h-1zM16 10h1v1h-1zM14 11h1v1h-1zM16 11h1v1h-1zM14 12h1v1h-1zM16 12h1v1h-1zM14 13h1v1h-1zM16 13h1v1h-1zM14 14h1v1h-1zM16 14h1v1h-1zM14 15h1v1h-1zM16 15h1v1h-1zM14 16h1v1h-1zM16 16h1v1h-1z"/><path fill="#566c86" d="M16 3h1v1h-1zM13 4h1v1h-1zM17 4h1v1h-1zM13 5h1v1h-1zM17 5h1v1h-1zM13 6h1v1h-1zM17 6h1v1h-1zM13 7h1v1h-1zM17 7h1v1h-1zM13 8h1v1h-1zM17 8h1v1h-1zM13 9h1v1h-1zM17 9h1v1h-1zM13 10h1v1h-1zM17 10h1v1h-1zM13 11h1v1h-1zM17 11h1v1h-1zM13 12h1v1h-1zM17 12h1v1h-1zM13 13h1v1h-1zM17 13h1v1h-1zM13 14h1v1h-1zM17 14h1v1h-1zM13 15h1v1h-1zM17 15h1v1h-1zM13 16h1v1h-1zM17 16h1v1h-1z"/><path fill="#73eff7" d="M15 5h1v1h-1zM15 6h1v1h-1zM15 7h1v1h-1zM15 8h1v1h-1zM15 9h1v1h-1zM15 10h1v1h-1zM15 11h1v1h-1zM15 12h1v1h-1zM15 13h1v1h-1zM15 14h1v1h-1z"/><path fill="#ef7d57" d="M8 17h1v1h-1zM22 17h1v1h-1zM9 18h6v1h-6zM16 18h6v1h-6zM13 28h2v1h-2zM16 28h2v1h-2zM14 29h3v1h-3z"/><path fill="#ffcd75" d="M9 17h6v1h-6zM16 17h6v1h-6zM8 18h1v1h-1zM22 18h1v1h-1zM13 27h5v1h-5zM15 28h1v1h-1z"/><path fill="#b13e53" d="M15 17h1v1h-1zM15 18h1v1h-1zM14 20h1v1h-1zM16 20h1v1h-1zM14 22h1v1h-1zM16 22h1v1h-1zM14 24h1v1h-1zM16 24h1v1h-1zM14 26h1v1h-1zM16 26h1v1h-1z"/><path fill="#5d275d" d="M14 19h3v1h-3zM15 20h1v1h-1zM14 21h3v1h-3zM15 22h1v1h-1zM14 23h3v1h-3zM15 24h1v1h-1zM14 25h3v1h-3zM15 26h1v1h-1z"/>
</svg>