<svg xmlns="http://www.w3.org/2000/svg" width="32" height="32" viewBox="0 0 32 32" shape-rendering="crispEdges">
<path fill="#41a6f6" d="M3 4h1v1h-1zM4 5h1v1h-1zM5 6h1v1h-1zM6 7h1v1h-1zM7 8h1v1h-1zM8 9h1v1h-1zM9 10h1v1h-1zM10 11h1v1h-1zM11 12h1v1h-1zM12 13h1v1h-1zM13 14h1v1h-1zM14 15h1v1h-1zM17 19h1v1h-1zM16 20h1v1h-1z"/>
<path fill="#f4f4f4" d="M4 4h1v1h-1zM5 5h1v1h-1zM6 6h1v1h-1zM7 7h1v1h-1zM8 8h1v1h-1zM9 9h1v1h-1zM10 10h1v1h-1zM11 11h1v1h-1zM12 12h1v1h-1zM13 13h1v1h-1zM14 14h1v1h-1zM15 15h1v1h-1zM14 16h2v1h-2z"/>
<path fill="#94b0c2" d="M5 4h1v1h-1zM6 5h1v1h-1zM7 6h1v1h-1zM8 7h1v1h-1zM9 8h1v1h-1zM10 9h1v1h-1zM11 10h1v1h-1zM12 11h1v1h-1zM13 12h1v1h-1zM14 13h1v1h-1zM15 14h1v1h-1zM16 15h1v1h-1z"/>
<path fill="#ffcd75" d="M13 16h1v1h-1zM16 16h5v1h-5zM15 18h1v1h-1zM15 20h1v1h-1zM15 22h1v1h-1zM15 24h1v1h-1zM15 25h1v1h-1zM16 26h1v1h-1z"/>
<path fill="#ef7d57" d="M13 17h8v1h-8zM16 18h1v1h-1zM15 19h1v1h-1zM15 21h2v1h-2zM16 22h1v1h-1zM15 23h2v1h-2zM16 24h1v1h-1zM16 25h2v1h-2zM17 26h1v1h-1z"/>
<path fill="#b13e53" d="M17 18h2v1h-2zM18 20h1v1h-1zM17 21h1v1h-1zM17 22h2v1h-2zM17 23h1v1h-1zM17 24h2v1h-2zM18 25h1v1h-1z"/>
<path fill="#73eff7" d="M16 19h1v1h-1z"/>
<path fill="#5d275d" d="M18 19h1v1h-1zM18 21h1v1h-1zM18 23h1v1h-1z"/>
<path fill="#3b5dc9" d="M17 20h1v1h-1z"/>
</svg>