<svg xmlns="http://www.w3.org/2000/svg" viewBox="0 0 32 32" shape-rendering="crispEdges"><path fill="#38b764" d="M18,3h1v1h-1ZM22,3h1v1h-1ZM15,4h12v1h-12ZM14,5h2v1h-2ZM20,5h2v1h-2ZM26,5h2v1h-2ZM14,6h2v1h-2ZM20,6h2v1h-2ZM26,6h2v1h-2ZM14,7h2v1h-2ZM20,7h2v1h-2ZM26,7h2v1h-2ZM14,8h2v1h-2ZM20,8h2v1h-2ZM26,8h2v1h-2ZM14,9h1v1h-1ZM26,9h2v1h-2ZM14,10h3v1h-3ZM25,10h3v1h-3ZM14,11h3v1h-3ZM26,11h2v1h-2ZM15,12h2v1h-2ZM26,12h1v1h-1ZM12,13h12v1h-12ZM1,14h3v1h-3ZM10,14h4v1h-4ZM22,14h4v1h-4ZM1,15h6v1h-6ZM9,15h1v1h-1ZM12,15h2v1h-2ZM22,15h2v1h-2ZM26,15h1v1h-1ZM3,16h11v1h-11ZM22,16h2v1h-2ZM26,16h1v1h-1ZM6,17h8v1h-8ZM22,17h2v1h-2ZM6,18h8v1h-8ZM22,18h2v1h-2ZM12,19h2v1h-2ZM22,19h2v1h-2ZM12,20h12v1h-12ZM13,21h3v1h-3ZM20,21h3v1h-3ZM13,22h3v1h-3ZM20,22h3v1h-3ZM13,23h3v1h-3ZM20,23h3v1h-3ZM13,24h3v1h-3ZM20,24h3v1h-3ZM12,25h5v1h-5ZM19,25h5v1h-5ZM12,26h5v1h-5ZM19,26h5v1h-5Z"/><path fill="#f4f4f4" d="M16,5h4v1h-4ZM22,5h4v1h-4ZM16,6h1v1h-1ZM19,6h1v1h-1ZM22,6h1v1h-1ZM25,6h1v1h-1ZM16,7h1v1h-1ZM19,7h1v1h-1ZM22,7h1v1h-1ZM25,7h1v1h-1ZM16,8h4v1h-4ZM22,8h4v1h-4ZM20,11h1v1h-1ZM22,11h1v1h-1ZM24,11h1v1h-1ZM21,12h1v1h-1ZM23,12h1v1h-1Z"/><path fill="#1a1c2c" d="M17,6h2v1h-2ZM23,6h2v1h-2ZM17,7h2v1h-2ZM23,7h2v1h-2Z"/><path fill="#ff9eb7" d="M15,9h2v1h-2ZM24,9h2v1h-2Z"/><path fill="#a7f070" d="M17,9h7v1h-7ZM17,10h8v1h-8ZM17,11h2v1h-2ZM17,12h2v1h-2ZM14,14h8v1h-8ZM14,15h8v1h-8ZM14,16h8v1h-8ZM14,17h8v1h-8ZM14,18h8v1h-8ZM14,19h8v1h-8ZM12,27h2v1h-2ZM15,27h2v1h-2ZM19,27h2v1h-2ZM22,27h2v1h-2Z"/><path fill="#b13e53" d="M19,11h1v1h-1ZM21,11h1v1h-1ZM23,11h1v1h-1ZM25,11h1v1h-1ZM19,12h2v1h-2ZM22,12h1v1h-1ZM24,12h2v1h-2Z"/></svg>