<svg xmlns="http://www.w3.org/2000/svg" viewBox="0 0 32 32" shape-rendering="crispEdges"><path fill="#a7f070" d="M9,6h1v1h-1zM12,6h1v1h-1zM15,6h1v1h-1zM18,6h1v1h-1zM21,6h1v1h-1zM27,22h1v1h-1zM28,22h1v1h-1zM29,22h1v1h-1zM27,23h1v1h-1zM29,23h1v1h-1zM28,24h1v1h-1z"/><path fill="#38b764" d="M10,7h1v1h-1zM12,7h1v1h-1zM14,7h1v1h-1zM16,7h1v1h-1zM18,7h1v1h-1zM20,7h1v1h-1zM22,7h1v1h-1zM9,8h1v1h-1zM10,8h1v1h-1zM11,8h1v1h-1zM12,8h1v1h-1zM13,8h1v1h-1zM14,8h1v1h-1zM15,8h1v1h-1zM16,8h1v1h-1zM17,8h1v1h-1zM18,8h1v1h-1zM19,8h1v1h-1zM20,8h1v1h-1zM21,8h1v1h-1zM22,8h1v1h-1zM28,23h1v1h-1z"/><path fill="#ef7d57" d="M8,8h1v1h-1zM23,8h1v1h-1zM7,9h1v1h-1zM23,9h1v1h-1zM7,10h1v1h-1zM24,10h1v1h-1zM6,11h1v1h-1zM24,11h1v1h-1zM6,12h1v1h-1zM25,12h1v1h-1zM5,13h1v1h-1zM25,13h1v1h-1zM5,14h1v1h-1zM26,14h1v1h-1zM4,15h1v1h-1zM26,15h1v1h-1zM4,16h1v1h-1zM27,16h1v1h-1zM3,17h1v1h-1zM27,17h1v1h-1zM3,18h1v1h-1zM28,18h1v1h-1zM2,19h1v1h-1zM28,19h1v1h-1zM2,20h1v1h-1zM29,20h1v1h-1zM1,21h1v1h-1zM29,21h1v1h-1zM1,22h1v1h-1zM30,22h1v1h-1zM0,23h1v1h-1zM30,23h1v1h-1zM0,24h1v1h-1zM31,24h1v1h-1zM4,25h1v1h-1zM5,25h1v1h-1zM6,25h1v1h-1zM7,25h1v1h-1zM8,25h1v1h-1zM9,25h1v1h-1zM10,25h1v1h-1zM11,25h1v1h-1zM12,25h1v1h-1zM13,25h1v1h-1zM14,25h1v1h-1zM15,25h1v1h-1zM16,25h1v1h-1zM17,25h1v1h-1zM18,25h1v1h-1zM19,25h1v1h-1zM20,25h1v1h-1zM21,25h1v1h-1zM22,25h1v1h-1zM23,25h1v1h-1zM24,25h1v1h-1zM25,25h1v1h-1zM26,25h1v1h-1zM27,25h1v1h-1z"/><path fill="#ffcd75" d="M8,9h1v1h-1zM22,9h1v1h-1zM8,10h1v1h-1zM23,10h1v1h-1zM7,11h1v1h-1zM23,11h1v1h-1zM7,12h1v1h-1zM10,12h1v1h-1zM12,12h1v1h-1zM14,12h1v1h-1zM16,12h1v1h-1zM18,12h1v1h-1zM20,12h1v1h-1zM24,12h1v1h-1zM6,13h1v1h-1zM24,13h1v1h-1zM6,14h1v1h-1zM25,14h1v1h-1zM5,15h1v1h-1zM25,15h1v1h-1zM5,16h1v1h-1zM26,16h1v1h-1zM4,17h1v1h-1zM26,17h1v1h-1zM4,18h1v1h-1zM27,18h1v1h-1zM3,19h1v1h-1zM27,19h1v1h-1zM3,20h1v1h-1zM28,20h1v1h-1zM2,21h1v1h-1zM28,21h1v1h-1zM2,22h1v1h-1zM1,23h1v1h-1zM1,24h1v1h-1zM5,24h1v1h-1zM6,24h1v1h-1zM7,24h1v1h-1zM8,24h1v1h-1zM9,24h1v1h-1zM10,24h1v1h-1zM11,24h1v1h-1zM12,24h1v1h-1zM13,24h1v1h-1zM14,24h1v1h-1zM15,24h1v1h-1zM16,24h1v1h-1zM17,24h1v1h-1zM18,24h1v1h-1zM19,24h1v1h-1zM20,24h1v1h-1zM21,24h1v1h-1zM22,24h1v1h-1zM23,24h1v1h-1zM24,24h1v1h-1zM25,24h1v1h-1zM26,24h1v1h-1zM30,24h1v1h-1z"/><path fill="#b13e53" d="M10,9h1v1h-1zM11,9h1v1h-1zM12,9h1v1h-1zM18,9h1v1h-1zM19,9h1v1h-1zM20,9h1v1h-1zM10,10h1v1h-1zM11,10h1v1h-1zM12,10h1v1h-1zM14,10h1v1h-1zM15,10h1v1h-1zM18,10h1v1h-1zM19,10h1v1h-1zM20,10h1v1h-1zM14,11h1v1h-1zM15,11h1v1h-1z"/><path fill="#ffecd2" d="M10,13h1v1h-1zM12,13h1v1h-1zM14,13h1v1h-1zM16,13h1v1h-1zM18,13h1v1h-1zM20,13h1v1h-1z"/><path fill="#8b5e34" d="M9,14h1v1h-1zM10,14h1v1h-1zM11,14h1v1h-1zM12,14h1v1h-1zM13,14h1v1h-1zM14,14h1v1h-1zM15,14h1v1h-1zM16,14h1v1h-1zM17,14h1v1h-1zM18,14h1v1h-1zM19,14h1v1h-1zM20,14h1v1h-1zM21,14h1v1h-1zM22,14h1v1h-1zM9,15h1v1h-1zM10,15h1v1h-1zM11,15h1v1h-1zM12,15h1v1h-1zM13,15h1v1h-1zM14,15h1v1h-1zM15,15h1v1h-1zM16,15h1v1h-1zM17,15h1v1h-1zM18,15h1v1h-1zM19,15h1v1h-1zM20,15h1v1h-1zM21,15h1v1h-1zM22,15h1v1h-1zM6,26h1v1h-1zM7,26h1v1h-1zM8,26h1v1h-1zM9,26h1v1h-1zM10,26h1v1h-1zM11,26h1v1h-1zM12,26h1v1h-1zM13,26h1v1h-1zM14,26h1v1h-1zM15,26h1v1h-1zM16,26h1v1h-1zM17,26h1v1h-1zM18,26h1v1h-1zM19,26h1v1h-1zM20,26h1v1h-1zM21,26h1v1h-1zM22,26h1v1h-1zM23,26h1v1h-1zM24,26h1v1h-1zM25,26h1v1h-1z"/><path fill="#1a1c2c" d="M12,18h1v1h-1zM19,18h1v1h-1zM14,20h1v1h-1zM17,20h1v1h-1zM15,21h1v1h-1zM16,21h1v1h-1z"/><path fill="#ff9eb7" d="M10,19h1v1h-1zM11,19h1v1h-1zM20,19h1v1h-1zM21,19h1v1h-1z"/></svg>