<svg xmlns="http://www.w3.org/2000/svg" viewBox="0 0 32 32" shape-rendering="crispEdges"><path fill="#ef7d57" d="M12,6h6v1h-6zM10,7h10v1h-10zM8,8h6v1h-6zM15,8h9v1h-9zM8,9h1v1h-1zM10,9h9v1h-9zM20,9h4v1h-4zM5,10h4v1h-4zM11,10h2v1h-2zM15,10h2v1h-2zM19,10h2v1h-2zM23,10h3v1h-3zM5,11h4v1h-4zM10,11h3v1h-3zM14,11h3v1h-3zM18,11h3v1h-3zM22,11h6v1h-6zM5,12h5v1h-5zM11,12h4v1h-4zM16,12h7v1h-7zM24,12h2v1h-2zM5,13h4v1h-4zM12,13h1v1h-1zM15,13h1v1h-1zM19,13h2v1h-2zM23,13h2v1h-2zM5,14h1v1h-1zM7,14h1v1h-1zM10,14h3v1h-3zM14,14h2v1h-2zM18,14h3v1h-3zM22,14h6v1h-6zM5,15h7v1h-7zM14,15h12v1h-12zM5,16h4v1h-4zM11,16h2v1h-2zM15,16h2v1h-2zM19,16h2v1h-2zM23,16h3v1h-3zM5,17h4v1h-4zM10,17h3v1h-3zM14,17h3v1h-3zM18,17h3v1h-3zM22,17h2v1h-2zM8,18h16v1h-16zM8,19h16v1h-16zM10,20h10v1h-10zM12,21h6v1h-6z"/><path fill="#8b5e34" d="M14,8h1v1h-1zM9,9h1v1h-1zM19,9h1v1h-1zM9,10h2v1h-2zM13,10h2v1h-2zM17,10h2v1h-2zM21,10h2v1h-2zM9,11h1v1h-1zM13,11h1v1h-1zM17,11h1v1h-1zM21,11h1v1h-1zM23,12h1v1h-1zM10,13h1v1h-1zM13,13h1v1h-1zM17,13h2v1h-2zM21,13h2v1h-2zM6,14h1v1h-1zM13,14h1v1h-1zM21,14h1v1h-1zM9,16h2v1h-2zM13,16h2v1h-2zM17,16h2v1h-2zM21,16h2v1h-2zM9,17h1v1h-1zM13,17h1v1h-1zM17,17h1v1h-1zM21,17h1v1h-1zM8,20h2v1h-2zM20,20h2v1h-2zM9,25h14v1h-14z"/><path fill="#b13e53" d="M4,12h1v1h-1zM3,13h2v1h-2zM3,14h2v1h-2zM4,15h1v1h-1z"/><path fill="#1a1c2c" d="M10,12h1v1h-1zM15,12h1v1h-1zM9,13h1v1h-1zM11,13h1v1h-1zM14,13h1v1h-1zM16,13h1v1h-1zM12,15h2v1h-2z"/><path fill="#5d275d" d="M2,14h1v1h-1zM3,15h1v1h-1z"/><path fill="#ff9eb7" d="M8,14h2v1h-2zM16,14h2v1h-2z"/><path fill="#ffecd2" d="M8,23h16v1h-16zM6,24h20v1h-20zM6,25h3v1h-3zM23,25h3v1h-3zM6,26h20v1h-20zM6,27h20v1h-20zM6,28h20v1h-20zM6,29h20v1h-20z"/></svg>