<svg xmlns="http://www.w3.org/2000/svg" viewBox="0 0 32 32" shape-rendering="crispEdges"><path fill="#333c57" d="M13,2h6v1h-6zM12,3h1v1h-1zM19,3h1v1h-1zM12,4h1v1h-1zM19,4h1v1h-1zM15,6h2v1h-2zM15,7h2v1h-2zM15,8h2v1h-2zM15,9h2v1h-2zM15,10h2v1h-2zM15,11h2v1h-2zM15,12h2v1h-2zM15,13h2v1h-2zM15,14h2v1h-2zM15,15h2v1h-2zM15,16h2v1h-2zM15,17h2v1h-2zM15,18h2v1h-2zM15,19h2v1h-2zM15,20h2v1h-2zM15,21h2v1h-2zM15,22h2v1h-2zM15,23h2v1h-2zM15,24h2v1h-2zM15,25h2v1h-2zM15,26h2v1h-2z"/><path fill="#b13e53" d="M13,3h6v1h-6zM10,6h5v1h-5zM17,6h5v1h-5zM10,7h2v1h-2zM13,7h2v1h-2zM17,7h2v1h-2zM20,7h2v1h-2zM5,8h4v1h-4zM23,8h4v1h-4zM5,9h4v1h-4zM10,9h4v1h-4zM18,9h4v1h-4zM23,9h4v1h-4zM5,10h4v1h-4zM10,10h1v1h-1zM12,10h3v1h-3zM17,10h5v1h-5zM23,10h4v1h-4zM5,11h4v1h-4zM13,11h2v1h-2zM17,11h5v1h-5zM23,11h4v1h-4zM5,12h4v1h-4zM10,12h1v1h-1zM12,12h3v1h-3zM17,12h5v1h-5zM23,12h4v1h-4zM5,13h4v1h-4zM10,13h2v1h-2zM20,13h2v1h-2zM23,13h4v1h-4zM10,14h2v1h-2zM18,14h1v1h-1zM20,14h2v1h-2zM10,15h5v1h-5zM17,15h5v1h-5zM10,16h5v1h-5zM17,16h3v1h-3zM21,16h1v1h-1zM10,17h5v1h-5zM17,17h2v1h-2zM10,18h2v1h-2zM21,18h1v1h-1zM10,19h2v1h-2zM18,19h1v1h-1zM20,19h2v1h-2zM10,20h5v1h-5zM17,20h5v1h-5zM10,21h5v1h-5zM17,21h5v1h-5zM10,22h1v1h-1zM12,22h3v1h-3zM17,22h5v1h-5zM13,23h2v1h-2zM17,23h5v1h-5zM10,24h1v1h-1zM12,24h3v1h-3zM17,24h5v1h-5zM10,25h5v1h-5zM17,25h5v1h-5zM10,26h5v1h-5zM17,26h5v1h-5zM10,29h12v1h-12zM10,30h1v1h-1zM12,30h1v1h-1zM14,30h1v1h-1zM16,30h1v1h-1zM18,30h1v1h-1zM20,30h1v1h-1z"/><path fill="#ffcd75" d="M13,4h6v1h-6zM10,5h12v1h-12zM9,6h1v1h-1zM22,6h1v1h-1zM5,7h5v1h-5zM22,7h5v1h-5zM9,8h1v1h-1zM22,8h1v1h-1zM9,9h1v1h-1zM22,9h1v1h-1zM9,10h1v1h-1zM22,10h1v1h-1zM9,11h1v1h-1zM11,11h1v1h-1zM22,11h1v1h-1zM9,12h1v1h-1zM22,12h1v1h-1zM9,13h1v1h-1zM12,13h1v1h-1zM19,13h1v1h-1zM22,13h1v1h-1zM5,14h5v1h-5zM12,14h1v1h-1zM19,14h1v1h-1zM22,14h5v1h-5zM9,15h1v1h-1zM22,15h1v1h-1zM9,16h1v1h-1zM22,16h1v1h-1zM9,17h1v1h-1zM20,17h1v1h-1zM22,17h1v1h-1zM9,18h1v1h-1zM12,18h1v1h-1zM19,18h1v1h-1zM22,18h1v1h-1zM9,19h1v1h-1zM12,19h1v1h-1zM19,19h1v1h-1zM22,19h1v1h-1zM9,20h1v1h-1zM22,20h1v1h-1zM9,21h1v1h-1zM22,21h1v1h-1zM9,22h1v1h-1zM22,22h1v1h-1zM9,23h1v1h-1zM11,23h1v1h-1zM22,23h1v1h-1zM9,24h1v1h-1zM22,24h1v1h-1zM9,25h1v1h-1zM22,25h1v1h-1zM9,26h1v1h-1zM22,26h1v1h-1zM9,27h1v1h-1zM22,27h1v1h-1z"/><path fill="#1a1c2c" d="M12,7h1v1h-1zM19,7h1v1h-1z"/><path fill="#ff9eb7" d="M10,8h2v1h-2zM20,8h2v1h-2z"/><path fill="#d4a017" d="M12,8h3v1h-3zM17,8h3v1h-3zM14,9h1v1h-1zM17,9h1v1h-1zM11,10h1v1h-1zM10,11h1v1h-1zM12,11h1v1h-1zM11,12h1v1h-1zM13,13h2v1h-2zM17,13h2v1h-2zM13,14h2v1h-2zM17,14h1v1h-1zM20,16h1v1h-1zM19,17h1v1h-1zM21,17h1v1h-1zM13,18h2v1h-2zM17,18h2v1h-2zM20,18h1v1h-1zM13,19h2v1h-2zM17,19h1v1h-1zM11,22h1v1h-1zM10,23h1v1h-1zM12,23h1v1h-1zM11,24h1v1h-1zM10,27h12v1h-12zM10,28h12v1h-12z"/></svg>