<svg xmlns="http://www.w3.org/2000/svg" viewBox="0 0 32 32" shape-rendering="crispEdges"><path fill="#94b0c2" d="M13,1h1v1h-1zM11,2h1v1h-1zM15,2h1v1h-1zM12,3h1v1h-1zM14,3h1v1h-1zM10,4h1v1h-1zM16,4h1v1h-1zM11,5h1v1h-1zM15,5h1v1h-1z"/><path fill="#ffcd75" d="M8,7h14v1h-14zM22,9h2v1h-2zM24,10h1v1h-1zM24,11h1v1h-1zM24,12h1v1h-1zM22,13h2v1h-2zM9,16h12v1h-12zM10,17h10v1h-10zM5,18h19v1h-19zM6,21h18v1h-18z"/><path fill="#8b5e34" d="M8,8h14v1h-14zM8,9h14v1h-14zM27,18h1v1h-1zM25,19h1v1h-1z"/><path fill="#f4f4f4" d="M8,10h14v1h-14zM23,10h1v1h-1zM8,11h4v1h-4zM13,11h4v1h-4zM18,11h4v1h-4zM23,11h1v1h-1zM8,12h3v1h-3zM14,12h2v1h-2zM19,12h3v1h-3zM23,12h1v1h-1zM8,13h4v1h-4zM13,13h4v1h-4zM18,13h4v1h-4zM8,14h2v1h-2zM13,14h3v1h-3zM19,14h3v1h-3zM8,15h5v1h-5zM16,15h6v1h-6zM4,19h20v1h-20zM5,20h19v1h-19z"/><path fill="#41a6f6" d="M12,11h1v1h-1zM17,11h1v1h-1zM12,13h1v1h-1zM17,13h1v1h-1z"/><path fill="#3b5dc9" d="M11,12h3v1h-3zM16,12h3v1h-3z"/><path fill="#ff9eb7" d="M10,14h2v1h-2zM17,14h2v1h-2z"/><path fill="#1a1c2c" d="M12,14h1v1h-1zM16,14h1v1h-1zM13,15h3v1h-3z"/><path fill="#ef7d57" d="M24,18h3v1h-3zM24,19h1v1h-1zM26,19h2v1h-2zM25,20h2v1h-2z"/></svg>