<svg xmlns="http://www.w3.org/2000/svg" viewBox="0 0 32 32" shape-rendering="crispEdges"><path fill="#94b0c2" d="M29,5h1v1h-1zM28,6h1v1h-1zM30,6h1v1h-1zM29,7h1v1h-1zM28,8h1v1h-1zM12,9h1v1h-1zM13,9h1v1h-1zM14,9h1v1h-1zM15,9h1v1h-1zM16,9h1v1h-1zM17,9h1v1h-1zM18,9h1v1h-1zM19,9h1v1h-1zM20,9h1v1h-1zM27,9h1v1h-1zM12,10h1v1h-1zM13,10h1v1h-1zM14,10h1v1h-1zM15,10h1v1h-1zM16,10h1v1h-1zM17,10h1v1h-1zM18,10h1v1h-1zM19,10h1v1h-1zM20,10h1v1h-1z"/><path fill="#566c86" d="M16,6h1v1h-1zM15,7h1v1h-1zM16,7h1v1h-1zM17,7h1v1h-1zM15,8h1v1h-1zM16,8h1v1h-1zM17,8h1v1h-1zM11,22h1v1h-1zM12,22h1v1h-1zM13,22h1v1h-1zM14,22h1v1h-1zM15,22h1v1h-1zM16,22h1v1h-1zM17,22h1v1h-1zM18,22h1v1h-1zM19,22h1v1h-1zM20,22h1v1h-1zM21,22h1v1h-1z"/><path fill="#ffecd2" d="M27,10h1v1h-1zM10,11h1v1h-1zM11,11h1v1h-1zM12,11h1v1h-1zM13,11h1v1h-1zM14,11h1v1h-1zM15,11h1v1h-1zM16,11h1v1h-1zM17,11h1v1h-1zM18,11h1v1h-1zM19,11h1v1h-1zM20,11h1v1h-1zM21,11h1v1h-1zM22,11h1v1h-1zM27,11h1v1h-1zM9,12h1v1h-1zM10,12h1v1h-1zM11,12h1v1h-1zM12,12h1v1h-1zM13,12h1v1h-1zM14,12h1v1h-1zM15,12h1v1h-1zM16,12h1v1h-1zM17,12h1v1h-1zM18,12h1v1h-1zM19,12h1v1h-1zM20,12h1v1h-1zM21,12h1v1h-1zM22,12h1v1h-1zM23,12h1v1h-1zM26,12h1v1h-1zM8,13h1v1h-1zM9,13h1v1h-1zM10,13h1v1h-1zM11,13h1v1h-1zM12,13h1v1h-1zM13,13h1v1h-1zM14,13h1v1h-1zM15,13h1v1h-1zM16,13h1v1h-1zM17,13h1v1h-1zM18,13h1v1h-1zM19,13h1v1h-1zM20,13h1v1h-1zM21,13h1v1h-1zM22,13h1v1h-1zM23,13h1v1h-1zM24,13h1v1h-1zM25,13h1v1h-1zM26,13h1v1h-1zM8,14h1v1h-1zM9,14h1v1h-1zM10,14h1v1h-1zM11,14h1v1h-1zM12,14h1v1h-1zM14,14h1v1h-1zM15,14h1v1h-1zM16,14h1v1h-1zM17,14h1v1h-1zM18,14h1v1h-1zM19,14h1v1h-1zM20,14h1v1h-1zM21,14h1v1h-1zM22,14h1v1h-1zM23,14h1v1h-1zM24,14h1v1h-1zM25,14h1v1h-1zM8,15h1v1h-1zM9,15h1v1h-1zM10,15h1v1h-1zM11,15h1v1h-1zM15,15h1v1h-1zM16,15h1v1h-1zM17,15h1v1h-1zM18,15h1v1h-1zM19,15h1v1h-1zM20,15h1v1h-1zM21,15h1v1h-1zM22,15h1v1h-1zM23,15h1v1h-1zM24,15h1v1h-1zM25,15h1v1h-1zM8,16h1v1h-1zM9,16h1v1h-1zM10,16h1v1h-1zM11,16h1v1h-1zM12,16h1v1h-1zM14,16h1v1h-1zM15,16h1v1h-1zM16,16h1v1h-1zM17,16h1v1h-1zM18,16h1v1h-1zM19,16h1v1h-1zM20,16h1v1h-1zM21,16h1v1h-1zM22,16h1v1h-1zM23,16h1v1h-1zM24,16h1v1h-1zM8,17h1v1h-1zM9,17h1v1h-1zM10,17h1v1h-1zM11,17h1v1h-1zM12,17h1v1h-1zM14,17h1v1h-1zM15,17h1v1h-1zM16,17h1v1h-1zM17,17h1v1h-1zM20,17h1v1h-1zM21,17h1v1h-1zM22,17h1v1h-1zM23,17h1v1h-1zM24,17h1v1h-1zM8,18h1v1h-1zM9,18h1v1h-1zM10,18h1v1h-1zM13,18h1v1h-1zM14,18h1v1h-1zM15,18h1v1h-1zM16,18h1v1h-1zM22,18h1v1h-1zM23,18h1v1h-1zM24,18h1v1h-1zM9,19h1v1h-1zM10,19h1v1h-1zM11,19h1v1h-1zM12,19h1v1h-1zM13,19h1v1h-1zM14,19h1v1h-1zM16,19h1v1h-1zM19,19h1v1h-1zM20,19h1v1h-1zM21,19h1v1h-1zM22,19h1v1h-1zM23,19h1v1h-1zM10,20h1v1h-1zM11,20h1v1h-1zM12,20h1v1h-1zM13,20h1v1h-1zM14,20h1v1h-1zM15,20h1v1h-1zM17,20h1v1h-1zM18,20h1v1h-1zM19,20h1v1h-1zM20,20h1v1h-1zM21,20h1v1h-1zM22,20h1v1h-1zM11,21h1v1h-1zM12,21h1v1h-1zM13,21h1v1h-1zM14,21h1v1h-1zM15,21h1v1h-1zM16,21h1v1h-1zM17,21h1v1h-1zM18,21h1v1h-1zM19,21h1v1h-1zM20,21h1v1h-1zM21,21h1v1h-1z"/><path fill="#333c57" d="M28,10h1v1h-1z"/><path fill="#8b5e34" d="M5,13h1v1h-1zM6,13h1v1h-1zM5,14h1v1h-1zM3,15h1v1h-1zM4,15h1v1h-1zM3,16h1v1h-1zM4,16h1v1h-1zM3,17h1v1h-1zM4,17h1v1h-1zM3,18h1v1h-1zM4,18h1v1h-1zM4,19h1v1h-1zM5,19h1v1h-1zM5,20h1v1h-1zM6,20h1v1h-1zM7,20h1v1h-1z"/><path fill="#ff9eb7" d="M13,14h1v1h-1zM12,15h1v1h-1zM14,15h1v1h-1zM13,16h1v1h-1zM18,17h1v1h-1zM11,18h1v1h-1zM12,18h1v1h-1zM17,18h1v1h-1zM19,18h1v1h-1zM20,18h1v1h-1zM21,18h1v1h-1zM18,19h1v1h-1z"/><path fill="#ffcd75" d="M13,15h1v1h-1zM18,18h1v1h-1z"/><path fill="#1a1c2c" d="M13,17h1v1h-1zM19,17h1v1h-1zM15,19h1v1h-1zM17,19h1v1h-1zM16,20h1v1h-1z"/></svg>