<svg xmlns="http://www.w3.org/2000/svg" viewBox="0 0 32 32" shape-rendering="crispEdges"><path fill="#ffcd75" d="M25,1h1v1h-1ZM22,2h1v1h-1ZM24,3h1v1h-1ZM26,5h1v1h-1ZM28,7h1v1h-1ZM13,8h6v1h-6ZM13,9h6v1h-6ZM4,10h4v1h-4ZM13,10h6v1h-6ZM4,11h4v1h-4ZM13,11h6v1h-6ZM13,12h6v1h-6ZM13,13h6v1h-6Z"/><path fill="#f4f4f4" d="M24,2h1v1h-1ZM23,3h1v1h-1ZM25,3h1v1h-1ZM24,4h1v1h-1Z"/><path fill="#73eff7" d="M19,8h2v1h-2ZM19,13h2v1h-2Z"/><path fill="#333c57" d="M21,8h1v1h-1ZM21,9h1v1h-1ZM3,10h1v1h-1ZM21,10h1v1h-1ZM3,11h1v1h-1ZM21,11h1v1h-1ZM21,12h1v1h-1ZM21,13h1v1h-1Z"/><path fill="#ef7d57" d="M8,9h5v1h-5ZM8,10h5v1h-5ZM8,11h5v1h-5ZM8,12h5v1h-5Z"/><path fill="#41a6f6" d="M19,9h2v1h-2ZM19,10h2v1h-2ZM19,11h2v1h-2ZM19,12h2v1h-2Z"/><path fill="#8b5e34" d="M13,14h3v1h-3ZM11,15h2v1h-2ZM14,15h1v1h-1ZM16,15h2v1h-2ZM10,16h2v1h-2ZM14,16h1v1h-1ZM17,16h2v1h-2ZM9,17h2v1h-2ZM14,17h1v1h-1ZM18,17h2v1h-2ZM8,18h2v1h-2ZM14,18h1v1h-1ZM19,18h2v1h-2ZM7,19h2v1h-2ZM14,19h1v1h-1ZM20,19h2v1h-2ZM6,20h2v1h-2ZM14,20h1v1h-1ZM21,20h2v1h-2ZM5,21h2v1h-2ZM14,21h1v1h-1ZM22,21h2v1h-2ZM4,22h2v1h-2ZM14,22h1v1h-1ZM23,22h2v1h-2ZM3,23h2v1h-2ZM14,23h1v1h-1ZM24,23h2v1h-2ZM2,24h3v1h-3ZM13,24h3v1h-3ZM25,24h3v1h-3Z"/></svg>