<svg xmlns="http://www.w3.org/2000/svg" viewBox="0 0 32 32" shape-rendering="crispEdges"><path fill="#8b5e34" d="M5,2h14v1h-14zM4,3h16v1h-16zM3,4h2v1h-2zM19,4h2v1h-2zM3,5h1v1h-1zM20,5h1v1h-1zM3,6h1v1h-1zM20,6h1v1h-1zM3,7h1v1h-1zM20,7h1v1h-1zM3,8h1v1h-1zM20,8h1v1h-1zM3,9h1v1h-1zM20,9h1v1h-1zM3,10h1v1h-1zM20,10h1v1h-1zM3,11h1v1h-1zM20,11h1v1h-1zM3,12h1v1h-1zM20,12h1v1h-1zM3,13h1v1h-1zM20,13h1v1h-1zM3,14h1v1h-1zM20,14h1v1h-1zM3,15h1v1h-1zM20,15h1v1h-1zM3,16h1v1h-1zM20,16h1v1h-1zM3,17h2v1h-2zM19,17h2v1h-2zM4,18h16v1h-16zM5,19h14v1h-14zM10,20h4v1h-4zM11,21h2v1h-2zM10,23h1v1h-1zM13,24h1v1h-1zM10,25h1v1h-1zM10,26h4v1h-4zM10,27h4v1h-4zM10,28h4v1h-4z"/><path fill="#a7f070" d="M25,2h3v1h-3zM26,3h1v1h-1zM28,3h1v1h-1zM23,4h1v1h-1zM26,4h1v1h-1zM28,4h2v1h-2zM23,5h1v1h-1zM26,5h2v1h-2zM29,5h1v1h-1zM23,6h3v1h-3zM27,6h1v1h-1zM29,6h1v1h-1zM24,7h4v1h-4zM25,8h3v1h-3z"/><path fill="#f4f4f4" d="M24,3h2v1h-2zM27,3h1v1h-1zM5,4h1v1h-1zM7,4h1v1h-1zM9,4h1v1h-1zM11,4h1v1h-1zM13,4h1v1h-1zM15,4h1v1h-1zM17,4h2v1h-2zM24,4h1v1h-1zM25,5h1v1h-1zM5,6h1v1h-1zM7,6h1v1h-1zM9,6h1v1h-1zM11,6h1v1h-1zM13,6h1v1h-1zM15,6h1v1h-1zM17,6h2v1h-2zM28,6h1v1h-1zM28,7h1v1h-1zM5,8h1v1h-1zM7,8h1v1h-1zM9,8h1v1h-1zM11,8h1v1h-1zM13,8h3v1h-3zM17,8h2v1h-2zM5,10h1v1h-1zM9,10h1v1h-1zM11,10h1v1h-1zM13,10h1v1h-1zM15,10h1v1h-1zM17,10h2v1h-2zM5,12h1v1h-1zM7,12h1v1h-1zM9,12h1v1h-1zM13,12h1v1h-1zM15,12h1v1h-1zM17,12h2v1h-2zM5,14h1v1h-1zM7,14h1v1h-1zM9,14h1v1h-1zM11,14h1v1h-1zM13,14h1v1h-1zM15,14h1v1h-1zM17,14h2v1h-2zM5,16h1v1h-1zM7,16h1v1h-1zM9,16h1v1h-1zM11,16h1v1h-1zM13,16h1v1h-1zM15,16h1v1h-1zM17,16h2v1h-2zM5,17h1v1h-1zM7,17h1v1h-1zM9,17h1v1h-1zM11,17h1v1h-1zM13,17h1v1h-1zM15,17h1v1h-1zM17,17h2v1h-2z"/><path fill="#94b0c2" d="M6,4h1v1h-1zM8,4h1v1h-1zM10,4h1v1h-1zM12,4h1v1h-1zM14,4h1v1h-1zM16,4h1v1h-1zM5,5h14v1h-14zM6,6h1v1h-1zM8,6h1v1h-1zM10,6h1v1h-1zM12,6h1v1h-1zM14,6h1v1h-1zM16,6h1v1h-1zM5,7h14v1h-14zM6,8h1v1h-1zM8,8h1v1h-1zM10,8h1v1h-1zM12,8h1v1h-1zM16,8h1v1h-1zM5,9h4v1h-4zM10,9h4v1h-4zM15,9h4v1h-4zM6,10h1v1h-1zM8,10h1v1h-1zM10,10h1v1h-1zM12,10h1v1h-1zM14,10h1v1h-1zM5,11h5v1h-5zM11,11h1v1h-1zM13,11h6v1h-6zM6,12h1v1h-1zM8,12h1v1h-1zM14,12h1v1h-1zM16,12h1v1h-1zM5,13h14v1h-14zM6,14h1v1h-1zM8,14h1v1h-1zM10,14h1v1h-1zM12,14h1v1h-1zM14,14h1v1h-1zM16,14h1v1h-1zM5,15h14v1h-14zM6,16h1v1h-1zM8,16h1v1h-1zM10,16h1v1h-1zM12,16h1v1h-1zM14,16h1v1h-1zM16,16h1v1h-1zM6,17h1v1h-1zM8,17h1v1h-1zM10,17h1v1h-1zM12,17h1v1h-1zM14,17h1v1h-1zM16,17h1v1h-1z"/><path fill="#1a1c2c" d="M25,4h1v1h-1zM27,4h1v1h-1zM26,6h1v1h-1zM9,9h1v1h-1zM14,9h1v1h-1zM10,11h1v1h-1zM12,11h1v1h-1zM10,12h3v1h-3z"/><path fill="#ff9eb7" d="M24,5h1v1h-1zM28,5h1v1h-1zM7,10h1v1h-1zM16,10h1v1h-1z"/><path fill="#ef7d57" d="M10,22h4v1h-4zM11,23h3v1h-3zM10,24h3v1h-3zM11,25h3v1h-3zM10,29h4v1h-4z"/></svg>