<svg xmlns="http://www.w3.org/2000/svg" viewBox="0 0 32 32" shape-rendering="crispEdges"><path fill="#29366f" d="M0,0h32v1h-32ZM0,1h14v1h-14ZM15,1h17v1h-17ZM0,2h3v1h-3ZM4,2h22v1h-22ZM27,2h5v1h-5ZM0,3h20v1h-20ZM21,3h11v1h-11ZM0,4h8v1h-8ZM9,4h23v1h-23ZM0,5h17v1h-17ZM18,5h14v1h-14ZM0,6h12v1h-12ZM13,6h15v1h-15ZM29,6h3v1h-3ZM0,7h32v1h-32ZM0,8h5v1h-5ZM6,8h16v1h-16ZM23,8h9v1h-9ZM0,9h16v1h-16ZM17,9h15v1h-15ZM0,10h15v1h-15ZM18,10h12v1h-12ZM31,10h1v1h-1ZM0,11h15v1h-15ZM18,11h14v1h-14ZM0,12h14v1h-14ZM19,12h13v1h-13ZM0,13h13v1h-13ZM20,13h12v1h-12ZM0,14h2v1h-2ZM3,14h10v1h-10ZM20,14h12v1h-12ZM0,15h12v1h-12ZM21,15h11v1h-11ZM0,16h11v1h-11ZM22,16h10v1h-10ZM0,17h11v1h-11ZM22,17h10v1h-10ZM0,18h10v1h-10ZM23,18h9v1h-9ZM0,19h9v1h-9ZM24,19h8v1h-8ZM0,20h9v1h-9ZM24,20h8v1h-8ZM0,21h8v1h-8ZM25,21h2v1h-2ZM30,21h2v1h-2ZM0,22h5v1h-5ZM6,22h1v1h-1ZM26,22h1v1h-1ZM30,22h2v1h-2ZM0,23h5v1h-5ZM26,23h1v1h-1ZM30,23h2v1h-2Z"/><path fill="#f4f4f4" d="M14,1h1v1h-1ZM3,2h1v1h-1ZM26,2h1v1h-1ZM20,3h1v1h-1ZM8,4h1v1h-1ZM17,5h1v1h-1ZM12,6h1v1h-1ZM28,6h1v1h-1ZM5,8h1v1h-1ZM22,8h1v1h-1ZM30,10h1v1h-1ZM2,14h1v1h-1Z"/><path fill="#b13e53" d="M16,9h1v1h-1ZM15,10h3v1h-3ZM15,11h3v1h-3ZM14,12h5v1h-5ZM13,13h1v1h-1ZM15,13h3v1h-3ZM19,13h1v1h-1ZM13,14h1v1h-1ZM15,14h3v1h-3ZM19,14h1v1h-1ZM12,15h1v1h-1ZM15,15h3v1h-3ZM20,15h1v1h-1ZM11,16h2v1h-2ZM15,16h3v1h-3ZM20,16h2v1h-2ZM11,17h2v1h-2ZM15,17h3v1h-3ZM20,17h2v1h-2ZM10,18h3v1h-3ZM20,18h3v1h-3ZM9,19h1v1h-1ZM11,19h2v1h-2ZM20,19h2v1h-2ZM23,19h1v1h-1ZM9,20h1v1h-1ZM11,20h2v1h-2ZM20,20h2v1h-2ZM23,20h1v1h-1ZM8,21h1v1h-1ZM11,21h2v1h-2ZM20,21h2v1h-2ZM24,21h1v1h-1ZM7,22h2v1h-2ZM11,22h2v1h-2ZM20,22h2v1h-2ZM24,22h2v1h-2ZM7,23h2v1h-2ZM11,23h2v1h-2ZM20,23h2v1h-2ZM24,23h2v1h-2ZM7,24h2v1h-2ZM11,24h2v1h-2ZM20,24h2v1h-2ZM24,24h3v1h-3ZM4,25h1v1h-1ZM7,25h1v1h-1Z"/><path fill="#ffcd75" d="M14,13h1v1h-1ZM18,13h1v1h-1ZM14,14h1v1h-1ZM18,14h1v1h-1ZM13,15h2v1h-2ZM18,15h2v1h-2ZM13,16h2v1h-2ZM18,16h2v1h-2ZM13,17h2v1h-2ZM18,17h2v1h-2ZM13,18h2v1h-2ZM18,18h2v1h-2ZM10,19h1v1h-1ZM13,19h1v1h-1ZM19,19h1v1h-1ZM22,19h1v1h-1ZM10,20h1v1h-1ZM13,20h1v1h-1ZM19,20h1v1h-1ZM22,20h1v1h-1ZM9,21h2v1h-2ZM13,21h1v1h-1ZM19,21h1v1h-1ZM22,21h2v1h-2ZM9,22h2v1h-2ZM13,22h1v1h-1ZM19,22h1v1h-1ZM22,22h2v1h-2ZM5,23h1v1h-1ZM9,23h2v1h-2ZM13,23h1v1h-1ZM19,23h1v1h-1ZM22,23h2v1h-2ZM5,24h2v1h-2ZM9,24h2v1h-2ZM13,24h1v1h-1ZM19,24h1v1h-1ZM22,24h2v1h-2Z"/><path fill="#333c57" d="M15,18h3v1h-3ZM14,19h5v1h-5ZM14,20h5v1h-5ZM14,21h5v1h-5ZM27,21h1v1h-1ZM14,22h5v1h-5ZM14,23h5v1h-5ZM14,24h5v1h-5Z"/><path fill="#3b5dc9" d="M28,21h2v1h-2ZM27,22h1v1h-1ZM27,23h3v1h-3ZM27,24h3v1h-3ZM27,25h3v1h-3Z"/><path fill="#ef7d57" d="M5,22h1v1h-1ZM6,23h1v1h-1ZM5,25h2v1h-2Z"/><path fill="#41a6f6" d="M28,22h2v1h-2Z"/><path fill="#a7f070" d="M0,24h5v1h-5ZM30,24h2v1h-2Z"/><path fill="#38b764" d="M0,25h4v1h-4ZM8,25h19v1h-19ZM30,25h2v1h-2ZM0,26h4v1h-4ZM8,26h24v1h-24ZM0,27h3v1h-3ZM4,27h4v1h-4ZM9,27h23v1h-23ZM0,28h32v1h-32ZM0,29h32v1h-32ZM0,30h32v1h-32ZM0,31h32v1h-32Z"/><path fill="#8b5e34" d="M4,26h4v1h-4ZM3,27h1v1h-1ZM8,27h1v1h-1Z"/></svg>