<svg xmlns="http://www.w3.org/2000/svg" viewBox="0 0 32 32" shape-rendering="crispEdges"><path fill="#ffcd75" d="M7,5h18v1h-18zM6,6h20v1h-20zM5,7h22v1h-22zM5,8h22v1h-22zM5,9h22v1h-22zM5,10h22v1h-22zM5,11h22v1h-22zM5,12h12v1h-12zM16,12h11v1h-11zM5,13h11v1h-11zM15,13h2v1h-2zM16,13h2v1h-2zM17,13h10v1h-10zM5,14h10v1h-10zM14,14h2v1h-2zM15,14h2v1h-2zM16,14h2v1h-2zM17,14h2v1h-2zM18,14h9v1h-9zM5,15h11v1h-11zM15,15h2v1h-2zM16,15h2v1h-2zM17,15h10v1h-10zM5,16h12v1h-12zM16,16h11v1h-11zM5,17h22v1h-22zM5,18h22v1h-22zM5,19h22v1h-22zM5,20h22v1h-22zM5,21h22v1h-22zM5,22h22v1h-22zM5,23h22v1h-22zM5,24h22v1h-22zM5,25h22v1h-22zM5,26h22v1h-22zM6,27h20v1h-20zM7,28h18v1h-18z"/><path fill="#8b5e34" d="M7,5h18v1h-18zM5,6h2v1h-2zM25,6h2v1h-2zM5,7h1v1h-1zM26,7h1v1h-1zM5,8h1v1h-1zM26,8h1v1h-1zM5,9h1v1h-1zM26,9h1v1h-1zM5,10h1v1h-1zM26,10h1v1h-1zM5,11h1v1h-1zM26,11h1v1h-1zM5,12h1v1h-1zM26,12h1v1h-1zM5,13h1v1h-1zM26,13h1v1h-1zM5,14h1v1h-1zM26,14h1v1h-1zM5,15h1v1h-1zM26,15h1v1h-1zM5,16h1v1h-1zM26,16h1v1h-1zM5,17h1v1h-1zM26,17h1v1h-1zM5,18h1v1h-1zM26,18h1v1h-1zM5,19h1v1h-1zM26,19h1v1h-1zM5,20h1v1h-1zM10,20h1v1h-1zM13,20h1v1h-1zM16,20h1v1h-1zM19,20h1v1h-1zM26,20h1v1h-1zM5,21h1v1h-1zM10,21h1v1h-1zM14,21h1v1h-1zM18,21h1v1h-1zM26,21h1v1h-1zM5,22h1v1h-1zM26,22h1v1h-1zM5,23h1v1h-1zM26,23h1v1h-1zM5,24h1v1h-1zM26,24h1v1h-1zM5,25h1v1h-1zM26,25h1v1h-1zM5,26h1v1h-1zM26,26h1v1h-1zM5,27h2v1h-2zM25,27h2v1h-2zM7,28h18v1h-18z"/><path fill="#f4f4f4" d="M16,10h1v1h-1zM13,11h7v1h-7zM12,12h9v1h-9zM12,13h9v1h-9zM11,14h11v1h-11zM12,15h9v1h-9zM12,16h9v1h-9zM13,17h7v1h-7zM16,18h1v1h-1zM10,24h1v1h-1zM18,24h1v1h-1z"/><path fill="#ef7d57" d="M15,13h2v1h-2zM15,14h2v1h-2z"/><path fill="#b13e53" d="M9,20h14v1h-14zM9,21h14v1h-14z"/><path fill="#1a1c2c" d="M10,24h2v1h-2zM18,24h2v1h-2zM10,25h2v1h-2zM18,25h2v1h-2zM14,26h2v1h-2z"/><path fill="#ff9eb7" d="M9,25h2v1h-2zM20,25h2v1h-2z"/></svg>