<svg xmlns="http://www.w3.org/2000/svg" width="16" height="16" viewBox="0 0 16 16" shape-rendering="crispEdges">
<!-- 番茄 -->
<path fill="#1a1c2c" d="M7 1h2v1h-2zM5 2h2v1h-2zM9 2h2v1h-2zM4 3h1v1h-1zM11 3h1v1h-1zM3 4h1v1h-1zM12 4h1v1h-1zM3 5h1v1h-1zM12 5h1v1h-1zM3 6h1v1h-1zM12 6h1v1h-1zM3 7h1v1h-1zM12 7h1v1h-1zM4 8h1v1h-1zM11 8h1v1h-1zM5 9h1v1h-1zM10 9h1v1h-1zM6 10h4v1h-4z"/>
<path fill="#b13e53" d="M5 3h6v1h-6zM4 4h8v1h-8zM4 5h8v1h-8zM4 6h8v1h-8zM4 7h8v1h-8zM5 8h6v1h-6zM6 9h4v1h-4z"/>
<path fill="#ef7d57" d="M5 3h2v1h-2zM4 4h2v1h-2zM4 5h1v1h-1z"/>
<path fill="#f4f4f4" d="M5 4h1v1h-1z"/>
<path fill="#5d275d" d="M10 7h2v1h-2zM9 8h2v1h-2zM9 9h1v1h-1z"/>
<path fill="#38b764" d="M7 2h2v1h-2zM6 1h1v1h-1z"/>
<path fill="#a7f070" d="M8 1h1v1h-1z"/>
</svg>