<svg xmlns="http://www.w3.org/2000/svg" viewBox="0 0 32 32" shape-rendering="crispEdges"><path fill="#daeeff" d="M0,0h32v1h-32zM0,1h32v1h-32zM0,2h32v1h-32zM0,3h15v1h-15zM17,3h15v1h-15zM0,4h3v1h-3zM5,4h10v1h-10zM17,4h10v1h-10zM29,4h3v1h-3zM0,5h4v1h-4zM28,5h4v1h-4zM0,6h5v1h-5zM27,6h5v1h-5zM0,7h5v1h-5zM27,7h5v1h-5zM0,8h32v1h-32zM0,9h32v1h-32zM0,10h7v1h-7zM25,10h7v1h-7zM0,11h7v1h-7zM25,11h1v1h-1zM28,11h1v1h-1zM30,11h2v1h-2zM0,12h9v1h-9zM12,12h8v1h-8zM23,12h1v1h-1zM27,12h1v1h-1zM29,12h1v1h-1zM31,12h1v1h-1zM0,13h9v1h-9zM12,13h8v1h-8zM24,13h1v1h-1zM26,13h1v1h-1zM28,13h1v1h-1zM30,13h2v1h-2zM0,14h9v1h-9zM12,14h8v1h-8zM23,14h1v1h-1zM25,14h1v1h-1zM27,14h1v1h-1zM29,14h1v1h-1zM31,14h1v1h-1zM0,15h9v1h-9zM12,15h8v1h-8zM23,15h2v1h-2zM26,15h3v1h-3zM31,15h1v1h-1zM0,16h9v1h-9zM12,16h3v1h-3zM16,16h4v1h-4zM23,16h2v1h-2zM26,16h1v1h-1zM29,16h3v1h-3zM0,17h9v1h-9zM12,17h8v1h-8zM23,17h3v1h-3zM29,17h3v1h-3zM0,18h9v1h-9zM12,18h6v1h-6zM19,18h1v1h-1zM23,18h4v1h-4zM29,18h3v1h-3zM0,19h9v1h-9zM12,19h8v1h-8zM23,19h4v1h-4zM29,19h3v1h-3zM0,20h9v1h-9zM12,20h8v1h-8zM23,20h4v1h-4zM29,20h3v1h-3zM0,21h9v1h-9zM12,21h8v1h-8zM23,21h4v1h-4zM29,21h3v1h-3zM0,22h9v1h-9zM12,22h8v1h-8zM23,22h4v1h-4zM29,22h3v1h-3zM0,23h9v1h-9zM12,23h8v1h-8zM23,23h4v1h-4zM29,23h3v1h-3z"/><path fill="#b13e53" d="M15,3h2v1h-2zM3,4h2v1h-2zM15,4h2v1h-2zM27,4h2v1h-2zM4,5h24v1h-24zM5,6h22v1h-22zM5,7h22v1h-22zM7,10h18v1h-18zM7,11h18v1h-18zM9,12h3v1h-3zM20,12h3v1h-3zM9,13h3v1h-3zM20,13h3v1h-3zM9,14h3v1h-3zM20,14h3v1h-3zM9,15h3v1h-3zM21,15h2v1h-2zM9,16h3v1h-3zM20,16h3v1h-3zM9,17h3v1h-3zM20,17h3v1h-3zM9,18h3v1h-3zM20,18h3v1h-3zM9,19h3v1h-3zM20,19h3v1h-3zM9,20h3v1h-3zM20,20h2v1h-2zM9,21h3v1h-3zM20,21h3v1h-3zM9,22h3v1h-3zM20,22h3v1h-3zM9,23h3v1h-3zM20,23h3v1h-3zM9,24h3v1h-3zM20,24h3v1h-3zM9,25h3v1h-3zM20,25h3v1h-3zM9,26h3v1h-3zM20,26h3v1h-3zM9,27h3v1h-3zM20,27h3v1h-3zM9,28h3v1h-3zM20,28h3v1h-3zM9,29h3v1h-3zM20,29h3v1h-3z"/><path fill="#ff9eb7" d="M26,11h2v1h-2zM29,11h1v1h-1zM24,12h3v1h-3zM28,12h1v1h-1zM30,12h1v1h-1zM23,13h1v1h-1zM25,13h1v1h-1zM27,13h1v1h-1zM29,13h1v1h-1zM24,14h1v1h-1zM26,14h1v1h-1zM28,14h1v1h-1zM30,14h1v1h-1zM20,15h1v1h-1zM25,15h1v1h-1zM30,15h1v1h-1zM15,16h1v1h-1zM18,18h1v1h-1zM22,20h1v1h-1z"/><path fill="#8b5e34" d="M29,15h1v1h-1zM25,16h1v1h-1zM27,16h2v1h-2zM26,17h3v1h-3zM27,18h2v1h-2zM27,19h2v1h-2zM27,20h2v1h-2zM27,21h2v1h-2zM27,22h2v1h-2zM27,23h2v1h-2z"/><path fill="#94b0c2" d="M0,24h9v1h-9zM12,24h8v1h-8zM23,24h9v1h-9zM0,25h9v1h-9zM12,25h8v1h-8zM23,25h9v1h-9zM0,26h3v1h-3zM4,26h3v1h-3zM8,26h1v1h-1zM12,26h2v1h-2zM15,26h2v1h-2zM18,26h2v1h-2zM23,26h1v1h-1zM25,26h3v1h-3zM29,26h3v1h-3zM0,27h9v1h-9zM12,27h8v1h-8zM23,27h9v1h-9zM0,28h4v1h-4zM5,28h3v1h-3zM12,28h3v1h-3zM16,28h2v1h-2zM19,28h1v1h-1zM23,28h2v1h-2zM26,28h3v1h-3zM30,28h2v1h-2zM0,29h9v1h-9zM12,29h8v1h-8zM23,29h9v1h-9zM0,30h3v1h-3zM4,30h3v1h-3zM8,30h2v1h-2zM11,30h3v1h-3zM15,30h2v1h-2zM18,30h3v1h-3zM22,30h2v1h-2zM25,30h3v1h-3zM29,30h3v1h-3zM0,31h32v1h-32z"/><path fill="#566c86" d="M3,26h1v1h-1zM7,26h1v1h-1zM14,26h1v1h-1zM17,26h1v1h-1zM24,26h1v1h-1zM28,26h1v1h-1zM4,28h1v1h-1zM8,28h1v1h-1zM15,28h1v1h-1zM18,28h1v1h-1zM25,28h1v1h-1zM29,28h1v1h-1zM3,30h1v1h-1zM7,30h1v1h-1zM10,30h1v1h-1zM14,30h1v1h-1zM17,30h1v1h-1zM21,30h1v1h-1zM24,30h1v1h-1zM28,30h1v1h-1z"/></svg>