<svg xmlns="http://www.w3.org/2000/svg" viewBox="0 0 32 32" shape-rendering="crispEdges"><path fill="#41a6f6" d="M0,0h32v1h-32zM0,1h32v1h-32zM0,2h32v1h-32zM0,3h32v1h-32zM0,4h32v1h-32zM0,5h32v1h-32zM0,6h8v1h-8zM14,6h18v1h-18zM0,7h7v1h-7zM15,7h17v1h-17zM0,8h7v1h-7zM13,8h3v1h-3zM24,8h8v1h-8zM0,9h7v1h-7zM12,9h1v1h-1zM15,9h1v1h-1zM27,9h5v1h-5zM0,10h4v1h-4zM5,10h1v1h-1zM12,10h1v1h-1zM15,10h1v1h-1zM27,10h5v1h-5zM0,11h3v1h-3zM5,11h1v1h-1zM13,11h2v1h-2zM26,11h6v1h-6zM0,12h2v1h-2zM4,12h1v1h-1zM26,12h6v1h-6zM0,13h2v1h-2zM4,13h1v1h-1zM25,13h7v1h-7zM0,14h5v1h-5zM24,14h8v1h-8zM0,15h5v1h-5zM22,15h10v1h-10zM0,16h5v1h-5zM17,16h15v1h-15zM0,17h5v1h-5zM17,17h15v1h-15zM0,18h5v1h-5zM17,18h15v1h-15zM0,19h5v1h-5zM17,19h15v1h-15zM0,20h5v1h-5zM17,20h15v1h-15zM0,21h5v1h-5zM17,21h15v1h-15zM0,22h6v1h-6zM16,22h16v1h-16zM0,23h6v1h-6zM16,23h16v1h-16zM0,24h7v1h-7zM15,24h7v1h-7zM24,24h8v1h-8zM25,25h7v1h-7zM24,26h8v1h-8zM0,27h32v1h-32zM0,28h32v1h-32zM0,29h32v1h-32zM0,30h32v1h-32zM0,31h32v1h-32z"/><path fill="#333c57" d="M8,6h6v1h-6zM16,8h8v1h-8zM17,10h1v1h-1zM21,15h1v1h-1zM7,24h8v1h-8z"/><path fill="#1a1c2c" d="M7,7h8v1h-8zM7,8h6v1h-6zM7,9h5v1h-5zM14,9h1v1h-1zM6,10h6v1h-6zM13,10h2v1h-2zM6,11h7v1h-7zM5,12h6v1h-6zM13,12h3v1h-3zM5,13h11v1h-11zM5,14h4v1h-4zM13,14h3v1h-3zM5,15h3v1h-3zM14,15h2v1h-2zM5,16h3v1h-3zM14,16h3v1h-3zM5,17h3v1h-3zM14,17h3v1h-3zM5,18h3v1h-3zM14,18h3v1h-3zM5,19h3v1h-3zM14,19h3v1h-3zM5,20h3v1h-3zM14,20h3v1h-3zM5,21h3v1h-3zM14,21h3v1h-3zM6,22h2v1h-2zM14,22h2v1h-2zM6,23h3v1h-3zM13,23h3v1h-3z"/><path fill="#f4f4f4" d="M13,9h1v1h-1zM15,11h1v1h-1zM9,14h4v1h-4zM8,15h6v1h-6zM8,16h6v1h-6zM8,17h6v1h-6zM8,18h6v1h-6zM8,19h6v1h-6zM8,20h6v1h-6zM8,21h6v1h-6zM8,22h6v1h-6zM9,23h4v1h-4z"/><path fill="#ffcd75" d="M16,9h10v1h-10zM16,10h1v1h-1zM18,10h8v1h-8zM16,11h10v1h-10z"/><path fill="#ef7d57" d="M26,9h1v1h-1zM26,10h1v1h-1zM16,12h9v1h-9zM16,13h9v1h-9zM9,25h2v1h-2zM12,25h2v1h-2zM9,26h1v1h-1zM13,26h1v1h-1z"/><path fill="#a7f070" d="M4,10h1v1h-1zM3,11h1v1h-1zM2,12h1v1h-1zM3,13h1v1h-1z"/><path fill="#38b764" d="M4,11h1v1h-1zM3,12h1v1h-1zM2,13h1v1h-1z"/><path fill="#ff9eb7" d="M11,12h2v1h-2z"/><path fill="#b13e53" d="M25,12h1v1h-1zM16,14h8v1h-8zM16,15h5v1h-5z"/><path fill="#8b5e34" d="M22,24h2v1h-2zM0,25h9v1h-9zM11,25h1v1h-1zM14,25h11v1h-11zM0,26h9v1h-9zM10,26h3v1h-3zM14,26h10v1h-10z"/></svg>