<svg xmlns="http://www.w3.org/2000/svg" viewBox="0 0 32 32" shape-rendering="crispEdges"><path fill="#b13e53" d="M12,8h8v1h-8zM11,9h10v1h-10zM10,10h2v1h-2zM15,10h2v1h-2zM20,10h2v1h-2zM10,11h2v1h-2zM15,11h2v1h-2zM20,11h2v1h-2zM10,12h2v1h-2zM15,12h2v1h-2zM20,12h2v1h-2zM10,13h12v1h-12zM5,14h8v1h-8zM14,14h4v1h-4zM19,14h8v1h-8zM5,15h8v1h-8zM14,15h4v1h-4zM19,15h8v1h-8zM5,16h22v1h-22zM4,17h7v1h-7zM13,17h6v1h-6zM21,17h7v1h-7zM4,18h10v1h-10zM15,18h2v1h-2zM18,18h10v1h-10zM5,19h5v1h-5zM11,19h4v1h-4zM17,19h5v1h-5zM23,19h4v1h-4zM5,20h3v1h-3zM13,20h7v1h-7zM25,20h2v1h-2zM5,21h2v1h-2zM14,21h5v1h-5zM26,21h1v1h-1z"/><path fill="#41a6f6" d="M12,10h3v1h-3zM17,10h3v1h-3zM12,11h3v1h-3zM17,11h3v1h-3zM12,12h3v1h-3zM17,12h3v1h-3z"/><path fill="#94b0c2" d="M1,14h3v1h-3zM0,17h3v1h-3zM1,20h2v1h-2zM10,23h1v1h-1zM22,23h1v1h-1z"/><path fill="#1a1c2c" d="M13,14h1v1h-1zM18,14h1v1h-1zM13,15h1v1h-1zM18,15h1v1h-1zM14,18h1v1h-1zM17,18h1v1h-1zM10,19h1v1h-1zM15,19h2v1h-2zM22,19h1v1h-1zM8,20h5v1h-5zM20,20h5v1h-5zM7,21h3v1h-3zM11,21h3v1h-3zM19,21h3v1h-3zM23,21h3v1h-3zM7,22h2v1h-2zM12,22h2v1h-2zM19,22h2v1h-2zM24,22h2v1h-2zM6,23h2v1h-2zM13,23h2v1h-2zM18,23h2v1h-2zM25,23h2v1h-2zM7,24h2v1h-2zM12,24h2v1h-2zM19,24h2v1h-2zM24,24h2v1h-2zM7,25h3v1h-3zM11,25h3v1h-3zM19,25h3v1h-3zM23,25h3v1h-3zM8,26h5v1h-5zM20,26h5v1h-5zM10,27h1v1h-1zM22,27h1v1h-1z"/><path fill="#ef7d57" d="M4,15h1v1h-1zM4,16h1v1h-1z"/><path fill="#ffcd75" d="M27,15h1v1h-1zM27,16h1v1h-1z"/><path fill="#ff9eb7" d="M11,17h2v1h-2zM19,17h2v1h-2z"/><path fill="#566c86" d="M10,21h1v1h-1zM22,21h1v1h-1zM9,22h3v1h-3zM21,22h3v1h-3zM8,23h2v1h-2zM11,23h2v1h-2zM20,23h2v1h-2zM23,23h2v1h-2zM9,24h3v1h-3zM21,24h3v1h-3zM10,25h1v1h-1zM22,25h1v1h-1z"/></svg>