<svg xmlns="http://www.w3.org/2000/svg" viewBox="0 0 32 32" shape-rendering="crispEdges"><path fill="#94b0c2" d="M14 3h1v1h-1zM15 4h1v1h-1zM12 5h1v1h-1zM13 6h2v1h-2zM13 7h2v1h-2z"/><path fill="#333c57" d="M12 9h5v1h-5z"/><path fill="#1a1c2c" d="M13 10h3v1h-3zM13 11h3v1h-3zM13 12h3v1h-3zM13 13h3v1h-3zM13 14h3v1h-3zM13 15h3v1h-3zM7 20h1v1h-1zM9 20h1v1h-1zM8 21h1v1h-1zM5 25h1v1h-1zM12 25h1v1h-1zM21 25h1v1h-1zM28 25h1v1h-1zM4 26h3v1h-3zM11 26h3v1h-3zM20 26h3v1h-3zM27 26h3v1h-3zM3 27h2v1h-2zM6 27h2v1h-2zM10 27h2v1h-2zM13 27h2v1h-2zM19 27h2v1h-2zM22 27h2v1h-2zM26 27h2v1h-2zM29 27h2v1h-2zM4 28h3v1h-3zM11 28h3v1h-3zM20 28h3v1h-3zM27 28h3v1h-3zM5 29h1v1h-1zM12 29h1v1h-1zM21 29h1v1h-1zM28 29h1v1h-1z"/><path fill="#b13e53" d="M4 11h4v1h-4zM3 12h6v1h-6zM3 13h1v1h-1zM8 13h1v1h-1zM3 14h1v1h-1zM8 14h1v1h-1zM3 15h6v1h-6zM2 16h14v1h-14zM2 17h14v1h-14zM1 18h14v1h-14zM1 19h14v1h-14zM1 20h6v1h-6zM8 20h1v1h-1zM10 20h6v1h-6zM1 21h5v1h-5zM7 21h1v1h-1zM9 21h1v1h-1zM11 21h5v1h-5zM1 22h15v1h-15zM1 23h15v1h-15zM1 24h15v1h-15zM1 25h4v1h-4zM6 25h6v1h-6zM13 25h3v1h-3z"/><path fill="#41a6f6" d="M4 13h4v1h-4zM4 14h4v1h-4zM20 18h3v1h-3zM25 18h3v1h-3zM20 19h3v1h-3zM25 19h3v1h-3zM20 20h3v1h-3zM25 20h3v1h-3z"/><path fill="#38b764" d="M19 15h10v1h-10zM18 16h12v1h-12zM18 17h12v1h-12zM18 18h2v1h-2zM23 18h2v1h-2zM28 18h2v1h-2zM18 19h2v1h-2zM23 19h2v1h-2zM28 19h2v1h-2zM18 20h2v1h-2zM23 20h2v1h-2zM28 20h2v1h-2zM18 21h12v1h-12zM18 22h12v1h-12zM18 23h12v1h-12zM18 24h12v1h-12zM18 25h3v1h-3zM22 25h6v1h-6zM29 25h1v1h-1z"/><path fill="#ffcd75" d="M15 18h2v1h-2zM15 19h2v1h-2z"/><path fill="#ff9eb7" d="M6 21h1v1h-1zM10 21h1v1h-1z"/><path fill="#566c86" d="M16 22h2v1h-2zM16 23h2v1h-2zM5 27h1v1h-1zM12 27h1v1h-1zM21 27h1v1h-1zM28 27h1v1h-1zM0 28h1v1h-1zM2 28h2v1h-2zM8 28h2v1h-2zM14 28h2v1h-2zM17 28h2v1h-2zM23 28h2v1h-2zM26 28h1v1h-1zM30 28h1v1h-1zM0 30h1v1h-1zM2 30h2v1h-2zM5 30h2v1h-2zM8 30h2v1h-2zM11 30h2v1h-2zM14 30h2v1h-2zM17 30h2v1h-2zM20 30h2v1h-2zM23 30h2v1h-2zM26 30h2v1h-2zM29 30h2v1h-2z"/><path fill="#8b5e34" d="M1 28h1v1h-1zM7 28h1v1h-1zM10 28h1v1h-1zM16 28h1v1h-1zM19 28h1v1h-1zM25 28h1v1h-1zM31 28h1v1h-1zM1 29h1v1h-1zM4 29h1v1h-1zM7 29h1v1h-1zM10 29h1v1h-1zM13 29h1v1h-1zM16 29h1v1h-1zM19 29h1v1h-1zM22 29h1v1h-1zM25 29h1v1h-1zM31 29h1v1h-1zM1 30h1v1h-1zM4 30h1v1h-1zM7 30h1v1h-1zM10 30h1v1h-1zM13 30h1v1h-1zM16 30h1v1h-1zM19 30h1v1h-1zM22 30h1v1h-1zM25 30h1v1h-1zM28 30h1v1h-1zM31 30h1v1h-1z"/></svg>