<svg xmlns="http://www.w3.org/2000/svg" viewBox="0 0 32 32" shape-rendering="crispEdges"><path fill="#ffecd2" d="M4,5h24v1h-24ZM4,6h24v1h-24ZM4,7h24v1h-24ZM4,8h24v1h-24ZM4,9h24v1h-24ZM4,10h24v1h-24ZM4,11h19v1h-19ZM22,11h6v1h-6ZM4,12h24v1h-24ZM4,13h17v1h-17ZM20,13h8v1h-8ZM4,14h24v1h-24ZM4,15h15v1h-15ZM18,15h10v1h-10ZM4,16h13v1h-13ZM16,16h12v1h-12ZM4,17h11v1h-11ZM14,17h14v1h-14ZM4,18h24v1h-24ZM4,19h9v1h-9ZM12,19h16v1h-16ZM4,20h7v1h-7ZM10,20h18v1h-18ZM4,21h24v1h-24ZM4,22h5v1h-5ZM8,22h20v1h-20ZM4,23h24v1h-24ZM4,24h24v1h-24ZM4,25h24v1h-24ZM4,26h24v1h-24Z"/><path fill="#ef7d57" d="M4,5h1v1h-1ZM4,5h24v1h-24ZM27,5h1v1h-1ZM4,6h1v1h-1ZM25,6h1v1h-1ZM27,6h1v1h-1ZM4,7h1v1h-1ZM27,7h1v1h-1ZM4,8h1v1h-1ZM27,8h1v1h-1ZM4,9h1v1h-1ZM27,9h1v1h-1ZM4,10h1v1h-1ZM27,10h1v1h-1ZM4,11h1v1h-1ZM22,11h1v1h-1ZM27,11h1v1h-1ZM4,12h1v1h-1ZM13,12h1v1h-1ZM21,12h1v1h-1ZM27,12h1v1h-1ZM4,13h1v1h-1ZM20,13h1v1h-1ZM27,13h1v1h-1ZM4,14h1v1h-1ZM10,14h1v1h-1ZM19,14h1v1h-1ZM27,14h1v1h-1ZM4,15h1v1h-1ZM17,15h2v1h-2ZM27,15h1v1h-1ZM4,16h1v1h-1ZM16,16h1v1h-1ZM27,16h1v1h-1ZM4,17h1v1h-1ZM14,17h2v1h-2ZM27,17h1v1h-1ZM4,18h1v1h-1ZM13,18h1v1h-1ZM27,18h1v1h-1ZM4,19h1v1h-1ZM11,19h2v1h-2ZM27,19h1v1h-1ZM4,20h1v1h-1ZM10,20h1v1h-1ZM27,20h1v1h-1ZM4,21h1v1h-1ZM9,21h1v1h-1ZM27,21h1v1h-1ZM4,22h1v1h-1ZM8,22h1v1h-1ZM27,22h1v1h-1ZM4,23h1v1h-1ZM27,23h1v1h-1ZM4,24h1v1h-1ZM25,24h1v1h-1ZM27,24h1v1h-1ZM4,25h1v1h-1ZM6,25h1v1h-1ZM27,25h1v1h-1ZM4,26h1v1h-1ZM4,26h24v1h-24ZM27,26h1v1h-1Z"/><path fill="#333c57" d="M4,4h24v1h-24ZM26,5h2v1h-2ZM3,6h1v1h-1ZM27,6h2v1h-2ZM3,7h1v1h-1ZM7,7h1v1h-1ZM28,7h1v1h-1ZM3,8h1v1h-1ZM6,8h3v1h-3ZM28,8h1v1h-1ZM3,9h1v1h-1ZM7,9h1v1h-1ZM18,9h1v1h-1ZM28,9h1v1h-1ZM3,10h1v1h-1ZM16,10h2v1h-2ZM19,10h2v1h-2ZM28,10h1v1h-1ZM3,11h1v1h-1ZM28,11h1v1h-1ZM3,12h1v1h-1ZM28,12h1v1h-1ZM3,13h1v1h-1ZM28,13h1v1h-1ZM3,14h1v1h-1ZM28,14h1v1h-1ZM3,15h1v1h-1ZM28,15h1v1h-1ZM3,16h1v1h-1ZM8,16h3v1h-3ZM28,16h1v1h-1ZM3,17h1v1h-1ZM8,17h1v1h-1ZM10,17h1v1h-1ZM28,17h1v1h-1ZM3,18h1v1h-1ZM9,18h1v1h-1ZM28,18h1v1h-1ZM3,19h1v1h-1ZM28,19h1v1h-1ZM3,20h1v1h-1ZM28,20h1v1h-1ZM3,21h1v1h-1ZM28,21h1v1h-1ZM3,22h1v1h-1ZM28,22h1v1h-1ZM3,23h1v1h-1ZM28,23h1v1h-1ZM3,24h1v1h-1ZM28,24h1v1h-1ZM3,25h2v1h-2ZM28,25h1v1h-1ZM4,26h2v1h-2ZM4,27h24v1h-24Z"/><path fill="#b13e53" d="M22,8h1v1h-1ZM24,8h1v1h-1ZM21,9h1v1h-1ZM23,9h1v1h-1ZM25,9h1v1h-1ZM22,10h1v1h-1ZM24,10h1v1h-1ZM23,11h1v1h-1ZM7,22h1v1h-1ZM25,22h1v1h-1ZM7,23h2v1h-2ZM24,23h3v1h-3ZM23,24h5v1h-5ZM24,25h3v1h-3ZM25,26h1v1h-1Z"/><path fill="#38b764" d="M13,10h1v1h-1ZM12,11h1v1h-1ZM14,11h1v1h-1ZM10,12h1v1h-1ZM9,13h1v1h-1ZM11,13h1v1h-1Z"/></svg>