<svg xmlns="http://www.w3.org/2000/svg" width="32" height="32" viewBox="0 0 32 32" shape-rendering="crispEdges">
<path fill="#333c57" d="M9 8h14v1h-14zM7 9h18v1h-18zM5 10h22v1h-22zM5 11h1v1h-1zM26 11h1v1h-1zM5 12h1v1h-1zM26 12h1v1h-1zM5 13h1v1h-1zM26 13h1v1h-1zM5 14h1v1h-1zM26 14h1v1h-1zM5 17h22v1h-22zM5 18h1v1h-1zM26 18h1v1h-1zM5 19h1v1h-1zM26 19h1v1h-1zM5 21h1v1h-1zM15 21h2v1h-2zM26 21h1v1h-1zM5 22h1v1h-1zM26 22h1v1h-1zM5 23h1v1h-1zM26 23h1v1h-1zM5 25h1v1h-1zM26 25h1v1h-1zM5 26h22v1h-22zM4 27h26v1h-26z"/>
<path fill="#ef7d57" d="M6 11h20v1h-20zM6 12h20v1h-20zM6 14h1v1h-1zM25 14h1v1h-1zM6 15h1v1h-1zM8 15h1v1h-1zM10 15h12v1h-12zM23 15h1v1h-1zM25 15h1v1h-1zM6 18h20v1h-20zM6 19h8v1h-8zM18 19h8v1h-8zM15 20h2v1h-2zM6 21h8v1h-8zM18 21h8v1h-8zM6 22h8v1h-8zM18 22h8v1h-8zM6 23h20v1h-20zM6 25h20v1h-20z"/>
<path fill="#ffcd75" d="M6 13h4v1h-4zM11 13h7v1h-7zM19 13h7v1h-7zM7 14h3v1h-3zM12 14h2v1h-2zM16 14h2v1h-2zM20 14h5v1h-5zM5 15h1v1h-1zM7 15h1v1h-1zM24 15h1v1h-1zM26 15h1v1h-1zM5 16h1v1h-1zM7 16h18v1h-18zM26 16h1v1h-1zM4 17h1v1h-1zM27 17h1v1h-1zM4 18h1v1h-1zM27 18h2v1h-2zM3 19h1v1h-1zM14 19h4v1h-4zM28 19h1v1h-1zM5 20h10v1h-10zM17 20h10v1h-10zM29 20h1v1h-1zM14 21h1v1h-1zM17 21h1v1h-1zM14 22h4v1h-4zM5 24h22v1h-22z"/>
<path fill="#f4f4f4" d="M10 13h1v1h-1zM18 13h1v1h-1z"/>
<path fill="#73eff7" d="M10 14h2v1h-2zM22 15h1v1h-1z"/>
<path fill="#38b764" d="M14 14h2v1h-2z"/>
<path fill="#b13e53" d="M18 14h2v1h-2zM9 15h1v1h-1zM6 16h1v1h-1zM25 16h1v1h-1z"/>
</svg>