<svg xmlns="http://www.w3.org/2000/svg" width="32" height="32" viewBox="0 0 32 32" shape-rendering="crispEdges">
<path fill="#f4f4f4" d="M18 10h1v1h-1zM12 12h1v1h-1zM26 12h1v1h-1zM25 13h1v1h-1zM27 13h1v1h-1zM8 14h1v1h-1zM26 14h1v1h-1zM10 16h1v1h-1zM22 16h1v1h-1zM25 18h1v1h-1z"/><path fill="#ffcd75" d="M16 12h1v1h-1zM13 13h1v1h-1zM18 13h1v1h-1zM13 14h1v1h-1zM14 14h1v1h-1zM15 14h1v1h-1zM16 14h1v1h-1zM17 14h1v1h-1zM18 14h1v1h-1zM7 15h1v1h-1zM8 15h1v1h-1zM13 15h1v1h-1zM14 15h1v1h-1zM15 15h1v1h-1zM16 15h1v1h-1zM17 15h1v1h-1zM18 15h1v1h-1zM6 16h1v1h-1zM7 16h1v1h-1zM8 16h1v1h-1zM9 16h1v1h-1zM13 16h1v1h-1zM14 16h1v1h-1zM15 16h1v1h-1zM16 16h1v1h-1zM17 16h1v1h-1zM18 16h1v1h-1zM6 17h1v1h-1zM7 17h1v1h-1zM8 17h1v1h-1zM9 17h1v1h-1zM13 17h1v1h-1zM14 17h1v1h-1zM15 17h1v1h-1zM16 17h1v1h-1zM17 17h1v1h-1zM18 17h1v1h-1zM6 18h1v1h-1zM7 18h1v1h-1zM8 18h1v1h-1zM9 18h1v1h-1zM13 18h1v1h-1zM14 18h1v1h-1zM16 18h1v1h-1zM17 18h1v1h-1zM19 18h1v1h-1zM6 19h1v1h-1zM7 19h1v1h-1zM8 19h1v1h-1zM9 19h1v1h-1zM11 19h1v1h-1zM12 19h1v1h-1zM13 19h1v1h-1zM14 19h1v1h-1zM15 19h1v1h-1zM16 19h1v1h-1zM17 19h1v1h-1zM18 19h1v1h-1zM19 19h1v1h-1zM20 19h1v1h-1zM6 20h1v1h-1zM7 20h1v1h-1zM8 20h1v1h-1zM9 20h1v1h-1zM10 20h1v1h-1zM11 20h1v1h-1zM13 20h1v1h-1zM14 20h1v1h-1zM17 20h1v1h-1zM19 20h1v1h-1zM20 20h1v1h-1zM11 21h1v1h-1zM12 21h1v1h-1zM13 21h1v1h-1zM14 21h1v1h-1zM15 21h1v1h-1zM16 21h1v1h-1zM17 21h1v1h-1zM18 21h1v1h-1zM19 21h1v1h-1zM20 21h1v1h-1zM21 21h1v1h-1zM22 21h1v1h-1zM8 22h1v1h-1zM13 22h1v1h-1zM14 22h1v1h-1zM16 22h1v1h-1zM17 22h1v1h-1zM19 22h1v1h-1zM20 22h1v1h-1zM22 22h1v1h-1zM23 22h1v1h-1zM7 23h1v1h-1zM8 23h1v1h-1zM9 23h1v1h-1zM10 23h1v1h-1zM11 23h1v1h-1zM12 23h1v1h-1zM13 23h1v1h-1zM14 23h1v1h-1zM15 23h1v1h-1zM16 23h1v1h-1zM17 23h1v1h-1zM18 23h1v1h-1zM19 23h1v1h-1zM20 23h1v1h-1zM21 23h1v1h-1zM22 23h1v1h-1zM23 23h1v1h-1zM24 23h1v1h-1zM7 24h1v1h-1zM8 24h1v1h-1zM10 24h1v1h-1zM11 24h1v1h-1zM13 24h1v1h-1zM14 24h1v1h-1zM16 24h1v1h-1zM17 24h1v1h-1zM19 24h1v1h-1zM22 24h1v1h-1zM23 24h1v1h-1zM25 24h1v1h-1zM5 25h1v1h-1zM6 25h1v1h-1zM7 25h1v1h-1zM8 25h1v1h-1zM9 25h1v1h-1zM10 25h1v1h-1zM11 25h1v1h-1zM12 25h1v1h-1zM13 25h1v1h-1zM14 25h1v1h-1zM15 25h1v1h-1zM16 25h1v1h-1zM17 25h1v1h-1zM18 25h1v1h-1zM19 25h1v1h-1zM20 25h1v1h-1zM21 25h1v1h-1zM22 25h1v1h-1zM23 25h1v1h-1zM24 25h1v1h-1zM25 25h1v1h-1zM26 25h1v1h-1zM4 26h1v1h-1zM5 26h1v1h-1zM7 26h1v1h-1zM10 26h1v1h-1zM11 26h1v1h-1zM13 26h1v1h-1zM14 26h1v1h-1zM16 26h1v1h-1zM17 26h1v1h-1zM19 26h1v1h-1zM20 26h1v1h-1zM22 26h1v1h-1zM23 26h1v1h-1zM25 26h1v1h-1zM26 26h1v1h-1zM27 26h1v1h-1zM3 27h1v1h-1zM4 27h1v1h-1zM5 27h1v1h-1zM6 27h1v1h-1zM7 27h1v1h-1zM8 27h1v1h-1zM9 27h1v1h-1zM10 27h1v1h-1zM11 27h1v1h-1zM12 27h1v1h-1zM13 27h1v1h-1zM14 27h1v1h-1zM15 27h1v1h-1zM16 27h1v1h-1zM17 27h1v1h-1zM18 27h1v1h-1zM19 27h1v1h-1zM20 27h1v1h-1zM21 27h1v1h-1zM22 27h1v1h-1zM23 27h1v1h-1zM24 27h1v1h-1zM25 27h1v1h-1zM26 27h1v1h-1zM27 27h1v1h-1zM28 27h1v1h-1zM2 28h1v1h-1zM3 28h1v1h-1zM4 28h1v1h-1zM5 28h1v1h-1zM7 28h1v1h-1zM8 28h1v1h-1zM10 28h1v1h-1zM11 28h1v1h-1zM13 28h1v1h-1zM14 28h1v1h-1zM16 28h1v1h-1zM17 28h1v1h-1zM19 28h1v1h-1zM20 28h1v1h-1zM22 28h1v1h-1zM23 28h1v1h-1zM25 28h1v1h-1zM26 28h1v1h-1zM27 28h1v1h-1zM28 28h1v1h-1zM29 28h1v1h-1zM2 29h1v1h-1zM3 29h1v1h-1zM4 29h1v1h-1zM5 29h1v1h-1zM6 29h1v1h-1zM7 29h1v1h-1zM8 29h1v1h-1zM9 29h1v1h-1zM10 29h1v1h-1zM11 29h1v1h-1zM12 29h1v1h-1zM13 29h1v1h-1zM14 29h1v1h-1zM15 29h1v1h-1zM16 29h1v1h-1zM17 29h1v1h-1zM18 29h1v1h-1zM19 29h1v1h-1zM20 29h1v1h-1zM21 29h1v1h-1zM22 29h1v1h-1zM23 29h1v1h-1zM24 29h1v1h-1zM25 29h1v1h-1zM26 29h1v1h-1zM27 29h1v1h-1zM28 29h1v1h-1zM29 29h1v1h-1z"/><path fill="#b13e53" d="M14 13h1v1h-1zM16 13h1v1h-1zM17 13h1v1h-1zM10 22h1v1h-1zM11 22h1v1h-1zM8 26h1v1h-1z"/><path fill="#ef7d57" d="M12 18h1v1h-1zM15 18h1v1h-1zM18 18h1v1h-1zM12 20h1v1h-1zM18 20h1v1h-1zM21 20h1v1h-1zM5 21h1v1h-1zM6 21h1v1h-1zM7 21h1v1h-1zM8 21h1v1h-1zM9 21h1v1h-1zM10 21h1v1h-1zM9 22h1v1h-1zM12 22h1v1h-1zM15 22h1v1h-1zM18 22h1v1h-1zM21 22h1v1h-1zM6 24h1v1h-1zM9 24h1v1h-1zM12 24h1v1h-1zM15 24h1v1h-1zM18 24h1v1h-1zM24 24h1v1h-1zM6 26h1v1h-1zM9 26h1v1h-1zM12 26h1v1h-1zM15 26h1v1h-1zM18 26h1v1h-1zM21 26h1v1h-1zM24 26h1v1h-1zM6 28h1v1h-1zM9 28h1v1h-1zM12 28h1v1h-1zM15 28h1v1h-1zM18 28h1v1h-1zM21 28h1v1h-1zM24 28h1v1h-1z"/><path fill="#38b764" d="M15 20h1v1h-1zM16 20h1v1h-1z"/><path fill="#3b5dc9" d="M22 20h1v1h-1z"/><path fill="#73eff7" d="M20 24h1v1h-1zM21 24h1v1h-1z"/>
</svg>