<svg xmlns="http://www.w3.org/2000/svg" width="32" height="32" viewBox="0 0 32 32" shape-rendering="crispEdges">
<path fill="#333c57" d="M6 4h20v1h-20zM6 5h1v1h-1zM25 5h1v1h-1zM6 6h1v1h-1zM25 6h1v1h-1zM6 7h1v1h-1zM25 7h1v1h-1zM6 8h1v1h-1zM25 8h1v1h-1zM6 9h1v1h-1zM25 9h1v1h-1zM6 10h4v1h-4zM12 10h7v1h-7zM21 10h5v1h-5zM8 13h1v1h-1zM23 13h1v1h-1zM5 14h22v1h-22zM5 15h1v1h-1zM26 15h1v1h-1zM5 16h1v1h-1zM26 16h1v1h-1zM5 17h1v1h-1zM26 17h1v1h-1zM5 18h1v1h-1zM15 18h2v1h-2zM26 18h1v1h-1zM5 19h1v1h-1zM15 19h2v1h-2zM26 19h1v1h-1zM5 20h1v1h-1zM26 20h1v1h-1zM5 21h1v1h-1zM26 21h1v1h-1zM5 22h1v1h-1zM26 22h1v1h-1zM5 23h1v1h-1zM26 23h1v1h-1zM5 24h1v1h-1zM26 24h1v1h-1zM5 25h1v1h-1zM26 25h1v1h-1zM5 26h1v1h-1zM26 26h1v1h-1z"/><path fill="#ef7d57" d="M7 5h3v1h-3zM11 5h4v1h-4zM17 5h4v1h-4zM22 5h3v1h-3zM7 7h3v1h-3zM11 7h4v1h-4zM17 7h4v1h-4zM22 7h3v1h-3zM7 9h3v1h-3zM11 9h2v1h-2zM14 9h1v1h-1zM18 9h3v1h-3zM22 9h3v1h-3zM20 10h1v1h-1zM7 12h1v1h-1zM24 12h1v1h-1zM9 13h14v1h-14zM8 16h16v1h-16zM7 18h7v1h-7zM18 18h7v1h-7zM6 21h20v1h-20zM7 22h18v1h-18zM8 24h16v1h-16zM8 26h16v1h-16z"/><path fill="#ffcd75" d="M10 5h1v1h-1zM15 5h2v1h-2zM21 5h1v1h-1zM10 6h1v1h-1zM15 6h2v1h-2zM21 6h1v1h-1zM10 7h1v1h-1zM15 7h2v1h-2zM21 7h1v1h-1zM10 8h1v1h-1zM15 8h2v1h-2zM21 8h1v1h-1zM10 9h1v1h-1zM15 9h3v1h-3zM21 9h1v1h-1zM11 10h1v1h-1zM19 10h1v1h-1zM7 11h18v1h-18zM8 12h16v1h-16zM6 15h2v1h-2zM24 15h2v1h-2zM6 16h2v1h-2zM24 16h2v1h-2zM6 17h2v1h-2zM14 17h4v1h-4zM24 17h2v1h-2zM6 18h1v1h-1zM14 18h1v1h-1zM17 18h1v1h-1zM25 18h1v1h-1zM6 19h1v1h-1zM14 19h1v1h-1zM17 19h1v1h-1zM25 19h1v1h-1zM6 20h20v1h-20zM6 22h1v1h-1zM25 22h1v1h-1zM6 23h1v1h-1zM25 23h1v1h-1zM6 24h2v1h-2zM24 24h2v1h-2zM6 25h2v1h-2zM24 25h2v1h-2zM6 26h2v1h-2zM24 26h2v1h-2z"/><path fill="#b13e53" d="M7 6h3v1h-3zM11 6h4v1h-4zM17 6h4v1h-4zM22 6h3v1h-3zM7 8h3v1h-3zM11 8h4v1h-4zM17 8h4v1h-4zM22 8h3v1h-3zM8 15h16v1h-16zM8 17h6v1h-6zM18 17h6v1h-6zM7 19h7v1h-7zM18 19h7v1h-7zM7 23h18v1h-18zM8 25h16v1h-16z"/><path fill="#f4f4f4" d="M13 9h1v1h-1zM10 10h1v1h-1z"/><path fill="#1a1c2c" d="M5 27h22v1h-22z"/>
</svg>