<svg xmlns="http://www.w3.org/2000/svg" width="16" height="16" viewBox="0 0 16 16" shape-rendering="crispEdges">
<path fill="#06d6a0" d="M6 1h3v1h-3zM5 2h2v1h-2zM8 2h2v1h-2zM4 3h7v1h-7zM8 8h1v1h-1z"/>
<path fill="#34d399" d="M7 2h1v1h-1zM6 5h1v1h-1z"/>
<path fill="#059669" d="M5 4h5v1h-5zM4 5h2v1h-2zM7 5h4v1h-4zM3 6h9v1h-9z"/>
<path fill="#065f46" d="M4 7h7v1h-7zM3 8h5v1h-5zM9 8h3v1h-3zM2 9h11v1h-11zM3 10h9v1h-9z"/>
<path fill="#92400e" d="M7 11h1v1h-1zM7 12h1v1h-1zM7 13h1v1h-1zM7 14h1v1h-1z"/>
<path fill="#78350f" d="M8 11h1v1h-1zM8 12h1v1h-1zM8 13h1v1h-1zM8 14h1v1h-1z"/>
</svg>