<svg xmlns="http://www.w3.org/2000/svg" viewBox="0 0 32 32" shape-rendering="crispEdges"><path fill="#38b764" d="M12,0h9v1h-9ZM11,1h3v1h-3ZM15,1h3v1h-3ZM19,1h3v1h-3ZM10,2h13v1h-13ZM9,3h2v1h-2ZM12,3h2v1h-2ZM15,3h6v1h-6ZM22,3h2v1h-2ZM8,4h10v1h-10ZM19,4h6v1h-6ZM8,5h4v1h-4ZM13,5h12v1h-12ZM8,6h14v1h-14ZM23,6h2v1h-2ZM8,7h1v1h-1ZM10,7h10v1h-10ZM21,7h2v1h-2ZM24,7h1v1h-1ZM7,8h19v1h-19ZM8,9h2v1h-2ZM11,9h14v1h-14ZM23,11h2v1h-2ZM8,12h2v1h-2ZM22,12h3v1h-3ZM23,13h1v1h-1ZM0,30h32v1h-32ZM0,31h32v1h-32Z"/><path fill="#3b5dc9" d="M14,1h1v1h-1Z"/><path fill="#a7f070" d="M18,1h1v1h-1ZM14,3h1v1h-1ZM18,4h1v1h-1ZM12,5h1v1h-1ZM22,6h1v1h-1ZM20,7h1v1h-1ZM10,9h1v1h-1Z"/><path fill="#ffcd75" d="M11,3h1v1h-1ZM8,11h1v1h-1ZM12,15h3v1h-3ZM18,15h3v1h-3ZM12,16h1v1h-1ZM14,16h1v1h-1ZM18,16h1v1h-1ZM20,16h1v1h-1ZM12,17h3v1h-3ZM18,17h3v1h-3Z"/><path fill="#ef7d57" d="M21,3h1v1h-1ZM10,14h12v1h-12ZM10,15h2v1h-2ZM15,15h3v1h-3ZM21,15h1v1h-1ZM10,16h2v1h-2ZM13,16h1v1h-1ZM15,16h3v1h-3ZM19,16h1v1h-1ZM21,16h1v1h-1ZM10,17h2v1h-2ZM17,17h1v1h-1ZM21,17h1v1h-1ZM10,18h5v1h-5ZM17,18h5v1h-5ZM10,19h5v1h-5ZM17,19h5v1h-5Z"/><path fill="#b13e53" d="M9,7h1v1h-1ZM24,10h1v1h-1Z"/><path fill="#73eff7" d="M23,7h1v1h-1Z"/><path fill="#8b5e34" d="M8,10h16v1h-16ZM9,11h14v1h-14ZM10,12h12v1h-12ZM9,13h14v1h-14ZM9,14h1v1h-1ZM22,14h1v1h-1ZM9,15h1v1h-1ZM22,15h1v1h-1ZM9,16h1v1h-1ZM22,16h1v1h-1ZM9,17h1v1h-1ZM15,17h2v1h-2ZM22,17h1v1h-1ZM9,18h1v1h-1ZM15,18h2v1h-2ZM22,18h1v1h-1ZM9,19h1v1h-1ZM15,19h2v1h-2ZM22,19h1v1h-1ZM9,20h14v1h-14ZM12,21h8v1h-8ZM12,22h8v1h-8ZM12,23h8v1h-8ZM12,24h8v1h-8ZM12,25h8v1h-8ZM12,26h8v1h-8ZM12,27h8v1h-8ZM13,28h6v1h-6ZM13,29h6v1h-6Z"/></svg>