<svg xmlns="http://www.w3.org/2000/svg" viewBox="0 0 32 32" shape-rendering="crispEdges"><path fill="#ffcd75" d="M10,2h1v1h-1ZM14,2h1v1h-1ZM18,2h1v1h-1ZM22,2h1v1h-1ZM13,3h1v1h-1ZM21,3h1v1h-1ZM8,4h1v1h-1ZM13,4h1v1h-1ZM17,4h1v1h-1ZM21,4h1v1h-1ZM25,4h1v1h-1ZM17,5h1v1h-1Z"/><path fill="#ef7d57" d="M11,2h3v1h-3ZM15,2h3v1h-3ZM19,2h3v1h-3ZM23,2h1v1h-1ZM10,3h3v1h-3ZM14,3h7v1h-7ZM22,3h2v1h-2ZM9,4h4v1h-4ZM14,4h3v1h-3ZM18,4h3v1h-3ZM22,4h3v1h-3ZM8,5h9v1h-9ZM18,5h8v1h-8ZM28,10h2v1h-2ZM28,11h2v1h-2ZM10,15h12v1h-12ZM10,16h12v1h-12ZM10,17h12v1h-12ZM10,18h12v1h-12ZM10,19h12v1h-12ZM8,29h1v1h-1ZM12,29h1v1h-1ZM19,29h1v1h-1ZM23,29h1v1h-1Z"/><path fill="#8b5e34" d="M11,6h12v1h-12ZM10,7h2v1h-2ZM16,7h2v1h-2ZM22,7h3v1h-3ZM10,8h2v1h-2ZM16,8h2v1h-2ZM22,8h3v1h-3ZM10,9h2v1h-2ZM16,9h2v1h-2ZM22,9h6v1h-6ZM10,10h2v1h-2ZM16,10h2v1h-2ZM22,10h6v1h-6ZM10,11h2v1h-2ZM14,11h6v1h-6ZM22,11h6v1h-6ZM10,12h16v1h-16ZM11,13h12v1h-12ZM8,14h16v1h-16ZM8,15h2v1h-2ZM22,15h2v1h-2ZM2,16h3v1h-3ZM8,16h2v1h-2ZM22,16h2v1h-2ZM2,17h8v1h-8ZM22,17h2v1h-2ZM4,18h6v1h-6ZM22,18h2v1h-2ZM4,19h6v1h-6ZM22,19h2v1h-2ZM8,20h16v1h-16ZM8,21h16v1h-16ZM9,22h3v1h-3ZM20,22h3v1h-3ZM9,23h3v1h-3ZM20,23h3v1h-3ZM9,24h3v1h-3ZM20,24h3v1h-3ZM9,25h3v1h-3ZM20,25h3v1h-3ZM9,26h3v1h-3ZM20,26h3v1h-3ZM8,27h5v1h-5ZM19,27h5v1h-5ZM8,28h5v1h-5ZM19,28h5v1h-5Z"/><path fill="#f4f4f4" d="M12,7h4v1h-4ZM18,7h4v1h-4ZM12,8h1v1h-1ZM15,8h1v1h-1ZM18,8h1v1h-1ZM21,8h1v1h-1ZM12,9h1v1h-1ZM15,9h1v1h-1ZM18,9h1v1h-1ZM21,9h1v1h-1ZM12,10h4v1h-4ZM18,10h4v1h-4Z"/><path fill="#1a1c2c" d="M13,8h2v1h-2ZM19,8h2v1h-2ZM13,9h2v1h-2ZM19,9h2v1h-2ZM26,12h2v1h-2Z"/><path fill="#ff9eb7" d="M12,11h2v1h-2ZM20,11h2v1h-2Z"/></svg>