<svg xmlns="http://www.w3.org/2000/svg" viewBox="0 0 32 32" shape-rendering="crispEdges"><path fill="#41a6f6" d="M0,0h15v1h-15zM17,0h15v1h-15zM0,1h15v1h-15zM17,1h15v1h-15zM0,2h10v1h-10zM12,2h3v1h-3zM17,2h3v1h-3zM22,2h10v1h-10zM0,3h10v1h-10zM12,3h3v1h-3zM17,3h3v1h-3zM22,3h10v1h-10zM0,4h10v1h-10zM12,4h3v1h-3zM17,4h3v1h-3zM22,4h10v1h-10zM0,5h4v1h-4zM5,5h5v1h-5zM12,5h3v1h-3zM17,5h3v1h-3zM22,5h10v1h-10zM0,6h3v1h-3zM4,6h1v1h-1zM6,6h4v1h-4zM12,6h3v1h-3zM17,6h3v1h-3zM22,6h10v1h-10zM0,7h4v1h-4zM5,7h5v1h-5zM12,7h3v1h-3zM17,7h3v1h-3zM22,7h10v1h-10zM0,8h10v1h-10zM22,8h5v1h-5zM28,8h4v1h-4zM0,9h12v1h-12zM20,9h6v1h-6zM27,9h1v1h-1zM29,9h3v1h-3zM0,10h15v1h-15zM17,10h10v1h-10zM28,10h4v1h-4zM0,11h15v1h-15zM17,11h15v1h-15zM0,12h14v1h-14zM17,12h15v1h-15zM0,13h15v1h-15zM18,13h14v1h-14zM0,14h15v1h-15zM17,14h15v1h-15zM0,15h14v1h-14zM17,15h15v1h-15zM0,16h15v1h-15zM18,16h14v1h-14zM0,17h6v1h-6zM7,17h8v1h-8zM17,17h8v1h-8zM26,17h6v1h-6zM0,18h5v1h-5zM6,18h8v1h-8zM17,18h7v1h-7zM25,18h7v1h-7zM0,19h7v1h-7zM8,19h7v1h-7zM18,19h8v1h-8zM27,19h5v1h-5zM0,20h3v1h-3zM4,20h11v1h-11zM17,20h11v1h-11zM29,20h3v1h-3zM2,21h2v1h-2zM6,21h2v1h-2zM10,21h2v1h-2zM18,21h2v1h-2zM22,21h2v1h-2zM26,21h2v1h-2zM30,21h2v1h-2zM2,22h1v1h-1zM6,22h1v1h-1zM10,22h1v1h-1zM14,22h1v1h-1zM18,22h1v1h-1zM22,22h1v1h-1zM26,22h1v1h-1zM30,22h1v1h-1z"/><path fill="#ef7d57" d="M15,0h2v1h-2zM10,2h2v1h-2zM20,2h2v1h-2zM10,8h12v1h-12zM12,9h8v1h-8zM14,12h1v1h-1zM17,13h1v1h-1zM14,15h1v1h-1zM17,16h1v1h-1zM14,18h1v1h-1zM17,19h1v1h-1zM14,21h1v1h-1zM17,22h1v1h-1zM14,24h1v1h-1zM17,25h1v1h-1zM14,27h1v1h-1zM17,28h1v1h-1z"/><path fill="#ffcd75" d="M15,1h2v1h-2zM15,2h2v1h-2zM10,3h2v1h-2zM15,3h2v1h-2zM20,3h2v1h-2zM10,4h2v1h-2zM15,4h2v1h-2zM20,4h2v1h-2zM10,5h2v1h-2zM15,5h2v1h-2zM20,5h2v1h-2zM10,6h2v1h-2zM15,6h2v1h-2zM20,6h2v1h-2zM10,7h2v1h-2zM15,7h2v1h-2zM20,7h2v1h-2zM15,10h2v1h-2zM15,11h2v1h-2zM15,12h2v1h-2zM15,13h2v1h-2zM15,14h2v1h-2zM15,15h2v1h-2zM15,16h2v1h-2zM15,17h2v1h-2zM15,18h2v1h-2zM15,19h2v1h-2zM15,20h2v1h-2zM15,21h2v1h-2zM15,22h2v1h-2zM15,23h2v1h-2zM15,24h2v1h-2zM15,25h2v1h-2zM15,26h2v1h-2zM15,27h2v1h-2zM15,28h2v1h-2zM15,29h2v1h-2z"/><path fill="#f4f4f4" d="M4,5h1v1h-1zM3,6h1v1h-1zM5,6h1v1h-1zM4,7h1v1h-1zM27,8h1v1h-1zM26,9h1v1h-1zM28,9h1v1h-1zM27,10h1v1h-1zM8,24h1v1h-1zM22,25h1v1h-1zM12,26h1v1h-1zM5,27h1v1h-1zM26,28h1v1h-1z"/><path fill="#73eff7" d="M6,17h1v1h-1zM25,17h1v1h-1zM5,18h1v1h-1zM24,18h1v1h-1zM7,19h1v1h-1zM26,19h1v1h-1zM3,20h1v1h-1zM28,20h1v1h-1z"/><path fill="#3b5dc9" d="M0,21h2v1h-2zM4,21h2v1h-2zM8,21h2v1h-2zM12,21h2v1h-2zM17,21h1v1h-1zM20,21h2v1h-2zM24,21h2v1h-2zM28,21h2v1h-2zM0,22h2v1h-2zM3,22h3v1h-3zM7,22h3v1h-3zM11,22h3v1h-3zM19,22h3v1h-3zM23,22h3v1h-3zM27,22h3v1h-3zM31,22h1v1h-1zM0,23h15v1h-15zM17,23h15v1h-15zM0,24h8v1h-8zM9,24h5v1h-5zM17,24h15v1h-15zM0,25h15v1h-15zM18,25h4v1h-4zM23,25h9v1h-9z"/><path fill="#29366f" d="M0,26h12v1h-12zM13,26h2v1h-2zM17,26h15v1h-15zM0,27h5v1h-5zM6,27h8v1h-8zM17,27h15v1h-15zM0,28h15v1h-15zM18,28h8v1h-8zM27,28h5v1h-5zM0,29h15v1h-15zM17,29h15v1h-15zM0,30h32v1h-32zM0,31h32v1h-32z"/></svg>