<svg xmlns="http://www.w3.org/2000/svg" viewBox="0 0 32 32" shape-rendering="crispEdges"><path fill="#ef7d57" d="M13,6h3v1h-3ZM12,7h5v1h-5ZM12,9h7v1h-7ZM9,10h1v1h-1ZM13,10h6v1h-6ZM21,10h1v1h-1ZM8,11h1v1h-1ZM13,11h6v1h-6ZM22,11h1v1h-1ZM3,12h3v1h-3ZM7,12h2v1h-2ZM13,12h6v1h-6ZM2,13h7v1h-7ZM13,13h6v1h-6ZM1,14h8v1h-8ZM13,14h6v1h-6ZM25,14h1v1h-1ZM1,15h8v1h-8ZM13,15h6v1h-6ZM25,15h1v1h-1ZM1,16h8v1h-8ZM13,16h6v1h-6ZM22,16h3v1h-3ZM1,17h8v1h-8ZM13,17h6v1h-6ZM22,17h1v1h-1ZM1,18h8v1h-8ZM13,18h6v1h-6ZM22,18h4v1h-4ZM2,19h7v1h-7ZM13,19h6v1h-6ZM22,19h3v1h-3ZM3,20h3v1h-3ZM7,20h2v1h-2ZM13,20h6v1h-6ZM22,20h2v1h-2ZM8,21h1v1h-1ZM13,21h6v1h-6ZM22,21h1v1h-1ZM9,22h1v1h-1ZM13,22h6v1h-6ZM21,22h1v1h-1ZM12,23h7v1h-7ZM13,24h4v1h-4ZM14,25h2v1h-2Z"/><path fill="#f4f4f4" d="M10,10h2v1h-2ZM20,10h1v1h-1ZM10,11h2v1h-2ZM20,11h1v1h-1ZM10,12h2v1h-2ZM20,12h5v1h-5ZM10,13h2v1h-2ZM20,13h1v1h-1ZM24,13h1v1h-1ZM10,14h2v1h-2ZM20,14h2v1h-2ZM24,14h1v1h-1ZM10,15h2v1h-2ZM20,15h5v1h-5ZM10,16h2v1h-2ZM20,16h1v1h-1ZM10,17h2v1h-2ZM20,17h1v1h-1ZM10,18h2v1h-2ZM20,18h1v1h-1ZM10,19h2v1h-2ZM20,19h1v1h-1ZM10,20h2v1h-2ZM20,20h1v1h-1ZM10,21h2v1h-2ZM20,21h1v1h-1ZM10,22h2v1h-2ZM20,22h1v1h-1Z"/><path fill="#1a1c2c" d="M12,10h1v1h-1ZM19,10h1v1h-1ZM9,11h1v1h-1ZM12,11h1v1h-1ZM19,11h1v1h-1ZM21,11h1v1h-1ZM9,12h1v1h-1ZM12,12h1v1h-1ZM19,12h1v1h-1ZM9,13h1v1h-1ZM12,13h1v1h-1ZM19,13h1v1h-1ZM21,13h3v1h-3ZM9,14h1v1h-1ZM12,14h1v1h-1ZM19,14h1v1h-1ZM22,14h2v1h-2ZM9,15h1v1h-1ZM12,15h1v1h-1ZM19,15h1v1h-1ZM9,16h1v1h-1ZM12,16h1v1h-1ZM19,16h1v1h-1ZM21,16h1v1h-1ZM25,16h1v1h-1ZM9,17h1v1h-1ZM12,17h1v1h-1ZM19,17h1v1h-1ZM21,17h1v1h-1ZM25,17h1v1h-1ZM9,18h1v1h-1ZM12,18h1v1h-1ZM19,18h1v1h-1ZM21,18h1v1h-1ZM9,19h1v1h-1ZM12,19h1v1h-1ZM19,19h1v1h-1ZM21,19h1v1h-1ZM9,20h1v1h-1ZM12,20h1v1h-1ZM19,20h1v1h-1ZM21,20h1v1h-1ZM9,21h1v1h-1ZM12,21h1v1h-1ZM19,21h1v1h-1ZM21,21h1v1h-1ZM12,22h1v1h-1ZM19,22h1v1h-1Z"/><path fill="#ff9eb7" d="M23,17h2v1h-2Z"/><path fill="#ffcd75" d="M14,5h2v1h-2Z"/><path fill="#b13e53" d="M26,16h1v1h-1Z"/></svg>