<svg xmlns="http://www.w3.org/2000/svg" viewBox="0 0 32 32" shape-rendering="crispEdges"><path fill="#41a6f6" d="M30,3h2v1h-2zM30,4h1v1h-1zM31,13h1v1h-1zM31,18h1v1h-1z"/><path fill="#a7f070" d="M27,4h2v1h-2zM27,5h1v1h-1z"/><path fill="#b13e53" d="M29,6h2v1h-2zM29,7h1v1h-1z"/><path fill="#ffecd2" d="M9,9h2v1h-2zM12,9h2v1h-2zM15,9h2v1h-2zM19,12h1v1h-1zM21,12h1v1h-1zM23,12h1v1h-1zM25,12h1v1h-1zM27,12h1v1h-1zM19,13h1v1h-1zM21,13h1v1h-1zM23,13h1v1h-1zM25,13h1v1h-1zM27,13h1v1h-1z"/><path fill="#8b5e34" d="M28,9h1v1h-1zM28,10h1v1h-1zM28,11h1v1h-1zM28,12h1v1h-1zM28,13h1v1h-1zM28,14h1v1h-1zM28,15h1v1h-1zM28,16h1v1h-1zM28,17h1v1h-1zM28,18h1v1h-1zM28,19h1v1h-1zM28,20h1v1h-1zM28,21h1v1h-1zM28,22h1v1h-1z"/><path fill="#ef7d57" d="M9,10h2v1h-2zM12,10h2v1h-2zM15,10h2v1h-2zM25,10h2v1h-2zM23,11h4v1h-4zM24,12h1v1h-1zM26,12h1v1h-1zM8,13h10v1h-10zM24,13h1v1h-1zM26,13h1v1h-1zM5,14h12v1h-12zM23,14h4v1h-4zM23,15h4v1h-4zM23,16h4v1h-4zM5,17h12v1h-12zM23,17h4v1h-4zM23,18h4v1h-4zM23,19h4v1h-4zM23,20h4v1h-4zM25,21h2v1h-2z"/><path fill="#ffcd75" d="M27,10h1v1h-1zM9,11h2v1h-2zM12,11h2v1h-2zM15,11h2v1h-2zM27,11h1v1h-1zM9,12h2v1h-2zM12,12h2v1h-2zM15,12h2v1h-2zM22,12h1v1h-1zM20,13h1v1h-1zM22,13h1v1h-1zM17,14h6v1h-6zM27,14h1v1h-1zM5,15h18v1h-18zM27,15h1v1h-1zM5,16h18v1h-18zM27,16h1v1h-1zM17,17h6v1h-6zM27,17h1v1h-1zM5,18h13v1h-13zM19,18h4v1h-4zM27,18h1v1h-1zM5,19h13v1h-13zM21,19h2v1h-2zM27,19h1v1h-1zM27,20h1v1h-1zM27,21h1v1h-1z"/><path fill="#73eff7" d="M29,14h1v1h-1zM30,15h1v1h-1zM30,16h1v1h-1zM29,17h1v1h-1z"/><path fill="#566c86" d="M2,15h2v1h-2zM2,16h2v1h-2z"/><path fill="#94b0c2" d="M4,15h1v1h-1zM4,16h1v1h-1z"/></svg>