<svg xmlns="http://www.w3.org/2000/svg" viewBox="0 0 32 32" shape-rendering="crispEdges">
<path fill="#b13e53" d="M13,5h1v1h-1zM14,5h1v1h-1zM15,5h1v1h-1zM16,5h1v1h-1zM17,5h1v1h-1zM18,5h1v1h-1zM12,6h1v1h-1zM13,6h1v1h-1zM14,6h1v1h-1zM15,6h1v1h-1zM16,6h1v1h-1zM17,6h1v1h-1zM18,6h1v1h-1zM19,6h1v1h-1zM12,7h1v1h-1zM13,7h1v1h-1zM14,7h1v1h-1zM15,7h1v1h-1zM16,7h1v1h-1zM17,7h1v1h-1zM18,7h1v1h-1zM19,7h1v1h-1zM12,8h1v1h-1zM13,8h1v1h-1zM14,8h1v1h-1zM15,8h1v1h-1zM16,8h1v1h-1zM17,8h1v1h-1zM18,8h1v1h-1zM19,8h1v1h-1zM12,9h1v1h-1zM13,9h1v1h-1zM14,9h1v1h-1zM15,9h1v1h-1zM16,9h1v1h-1zM17,9h1v1h-1zM18,9h1v1h-1zM19,9h1v1h-1zM13,10h1v1h-1zM14,10h1v1h-1zM15,10h1v1h-1zM16,10h1v1h-1zM17,10h1v1h-1zM18,10h1v1h-1zM14,11h1v1h-1zM15,11h1v1h-1zM16,11h1v1h-1zM17,11h1v1h-1zM15,12h1v1h-1zM16,12h1v1h-1zM16,6h1v1h-1z"/>
<path fill="#ff9eb7" d="M14,6h1v1h-1zM17,6h1v1h-1zM13,7h1v1h-1zM18,7h1v1h-1zM13,8h1v1h-1zM18,8h1v1h-1zM13,9h1v1h-1zM18,9h1v1h-1z"/>
<path fill="#1a1c2c" d="M14,8h1v1h-1zM17,8h1v1h-1zM15,9h1v1h-1zM16,9h1v1h-1zM14,9h1v1h-1zM17,9h1v1h-1z"/>
<path fill="#38b764" d="M15,13h1v1h-1zM16,13h1v1h-1zM15,14h1v1h-1zM16,14h1v1h-1zM15,15h1v1h-1zM16,15h1v1h-1zM15,16h1v1h-1zM16,16h1v1h-1zM15,17h1v1h-1zM16,17h1v1h-1zM15,18h1v1h-1zM16,18h1v1h-1zM15,19h1v1h-1zM16,19h1v1h-1zM15,20h1v1h-1zM16,20h1v1h-1zM15,21h1v1h-1zM16,21h1v1h-1zM15,22h1v1h-1zM16,22h1v1h-1zM15,23h1v1h-1zM16,23h1v1h-1zM15,24h1v1h-1zM16,24h1v1h-1zM14,17h1v1h-1zM13,17h1v1h-1zM12,17h1v1h-1zM13,18h1v1h-1zM12,18h1v1h-1zM11,18h1v1h-1zM11,19h1v1h-1zM10,19h1v1h-1zM10,20h1v1h-1zM17,19h1v1h-1zM18,19h1v1h-1zM19,19h1v1h-1zM18,20h1v1h-1zM19,20h1v1h-1zM20,20h1v1h-1zM20,21h1v1h-1zM21,21h1v1h-1zM21,22h1v1h-1zM9,25h1v1h-1zM23,25h1v1h-1z"/>
<path fill="#a7f070" d="M10,18h1v1h-1zM11,17h1v1h-1zM21,20h1v1h-1zM20,19h1v1h-1zM9,26h1v1h-1zM23,26h1v1h-1zM22,26h1v1h-1z"/>
<path fill="#8b5e34" d="M8,27h1v1h-1zM9,27h1v1h-1zM10,27h1v1h-1zM11,27h1v1h-1zM12,27h1v1h-1zM13,27h1v1h-1zM14,27h1v1h-1zM15,27h1v1h-1zM16,27h1v1h-1zM17,27h1v1h-1zM18,27h1v1h-1zM19,27h1v1h-1zM20,27h1v1h-1zM21,27h1v1h-1zM22,27h1v1h-1zM23,27h1v1h-1z"/>
</svg>