<svg xmlns="http://www.w3.org/2000/svg" width="32" height="32" viewBox="0 0 32 32" shape-rendering="crispEdges">
<path fill="#b13e53" d="M16 2h1v1h-1zM8 16h1v1h-1z"/><path fill="#566c86" d="M16 3h1v1h-1zM16 4h1v1h-1z"/><path fill="#73eff7" d="M13 5h6v1h-6zM12 6h8v1h-8zM11 7h2v1h-2zM14 7h7v1h-7zM11 8h2v1h-2zM14 8h7v1h-7zM11 9h3v1h-3zM15 9h3v1h-3zM19 9h2v1h-2zM11 10h1v1h-1zM14 10h1v1h-1zM17 10h2v1h-2zM20 16h1v1h-1z"/><path fill="#f4f4f4" d="M13 7h1v1h-1zM13 8h1v1h-1z"/><path fill="#1a1c2c" d="M14 9h1v1h-1zM18 9h1v1h-1zM15 10h2v1h-2z"/><path fill="#ff9eb7" d="M12 10h2v1h-2zM19 10h2v1h-2zM9 11h14v1h-14zM7 12h18v1h-18zM5 13h22v1h-22zM4 14h24v1h-24zM5 15h22v1h-22zM7 16h1v1h-1zM9 16h2v1h-2zM12 16h2v1h-2zM15 16h2v1h-2zM18 16h2v1h-2zM21 16h2v1h-2zM24 16h1v1h-1zM9 17h14v1h-14z"/><path fill="#ffcd75" d="M11 16h1v1h-1zM13 18h6v1h-6zM13 19h6v1h-6zM14 20h4v1h-4zM13 21h2v1h-2zM17 21h2v1h-2zM14 22h4v1h-4zM13 23h5v1h-5zM14 24h1v1h-1zM16 24h1v1h-1zM14 25h1v1h-1zM16 25h1v1h-1z"/><path fill="#38b764" d="M14 16h1v1h-1z"/><path fill="#3b5dc9" d="M17 16h1v1h-1z"/><path fill="#ef7d57" d="M23 16h1v1h-1z"/>
</svg>