<svg xmlns="http://www.w3.org/2000/svg" viewBox="0 0 32 32" shape-rendering="crispEdges"><path fill="#566c86" d="M13,9h6v1h-6ZM12,10h8v1h-8ZM12,11h8v1h-8ZM7,12h18v1h-18Z"/><path fill="#94b0c2" d="M13,8h6v1h-6ZM9,11h14v1h-14Z"/><path fill="#73eff7" d="M14,8h4v1h-4ZM13,9h6v1h-6ZM12,20h1v1h-1ZM14,20h1v1h-1ZM17,20h1v1h-1ZM19,20h1v1h-1ZM11,21h3v1h-3ZM13,21h6v1h-6ZM18,21h3v1h-3ZM11,22h3v1h-3ZM13,22h6v1h-6ZM18,22h3v1h-3ZM11,23h3v1h-3ZM13,23h6v1h-6ZM18,23h3v1h-3ZM11,24h3v1h-3ZM13,24h6v1h-6ZM18,24h3v1h-3ZM11,25h3v1h-3ZM13,25h6v1h-6ZM18,25h3v1h-3ZM11,26h3v1h-3ZM13,26h6v1h-6ZM18,26h3v1h-3ZM11,27h3v1h-3ZM13,27h6v1h-6ZM18,27h3v1h-3ZM11,28h3v1h-3ZM13,28h6v1h-6ZM18,28h3v1h-3Z"/><path fill="#41a6f6" d="M13,10h6v1h-6Z"/><path fill="#38b764" d="M15,9h2v1h-2ZM15,10h2v1h-2ZM15,12h2v1h-2Z"/><path fill="#333c57" d="M7,13h18v1h-18ZM10,14h12v1h-12Z"/><path fill="#b13e53" d="M10,12h1v1h-1Z"/><path fill="#ffcd75" d="M21,12h1v1h-1ZM12,15h1v1h-1ZM14,15h1v1h-1ZM17,15h1v1h-1ZM19,15h1v1h-1ZM12,16h1v1h-1ZM14,16h1v1h-1ZM17,16h1v1h-1ZM19,16h1v1h-1ZM12,17h1v1h-1ZM14,17h1v1h-1ZM17,17h1v1h-1ZM19,17h1v1h-1ZM12,18h1v1h-1ZM14,18h1v1h-1ZM17,18h1v1h-1ZM19,18h1v1h-1ZM12,19h1v1h-1ZM14,19h1v1h-1ZM17,19h1v1h-1ZM19,19h1v1h-1Z"/><path fill="#f4f4f4" d="M28,3h1v1h-1ZM3,4h1v1h-1ZM5,20h1v1h-1Z"/></svg>