<svg xmlns="http://www.w3.org/2000/svg" viewBox="0 0 32 32" shape-rendering="crispEdges">
  <path fill="#ffcd75" d="M14,2h1v1h-1zM15,2h1v1h-1zM13,3h1v1h-1zM13,4h1v1h-1zM14,4h1v1h-1zM12,5h1v1h-1zM7,8h1v1h-1zM6,9h1v1h-1zM5,10h1v1h-1zM23,18h1v1h-1zM23,19h1v1h-1zM4,3h1v1h-1zM3,4h1v1h-1zM5,4h1v1h-1zM4,5h1v1h-1zM24,5h1v1h-1zM23,6h1v1h-1zM25,6h1v1h-1zM24,7h1v1h-1zM27,12h1v1h-1zM26,13h1v1h-1zM27,14h1v1h-1z"/>
  <path fill="#ef7d57" d="M14,3h1v1h-1zM13,5h1v1h-1zM7,7h1v1h-1zM6,8h1v1h-1zM5,9h1v1h-1zM22,18h1v1h-1z"/>
  <path fill="#f4f4f4" d="M10,6h1v1h-1zM10,7h1v1h-1zM11,6h1v1h-1zM11,7h1v1h-1zM12,6h1v1h-1zM12,7h1v1h-1zM13,6h1v1h-1zM13,7h1v1h-1zM14,6h1v1h-1zM14,7h1v1h-1zM15,6h1v1h-1zM15,7h1v1h-1zM16,6h1v1h-1zM16,7h1v1h-1zM17,6h1v1h-1zM17,7h1v1h-1zM9,8h1v1h-1zM9,9h1v1h-1zM9,10h1v1h-1zM9,11h1v1h-1zM9,12h1v1h-1zM9,13h1v1h-1zM10,8h1v1h-1zM10,9h1v1h-1zM10,10h1v1h-1zM10,11h1v1h-1zM10,12h1v1h-1zM10,13h1v1h-1zM11,8h1v1h-1zM11,9h1v1h-1zM11,10h1v1h-1zM11,11h1v1h-1zM11,12h1v1h-1zM11,13h1v1h-1zM12,8h1v1h-1zM12,9h1v1h-1zM12,10h1v1h-1zM12,11h1v1h-1zM12,12h1v1h-1zM12,13h1v1h-1zM13,8h1v1h-1zM13,9h1v1h-1zM13,10h1v1h-1zM13,11h1v1h-1zM13,12h1v1h-1zM13,13h1v1h-1zM14,8h1v1h-1zM14,9h1v1h-1zM14,10h1v1h-1zM14,11h1v1h-1zM14,12h1v1h-1zM14,13h1v1h-1zM15,8h1v1h-1zM15,9h1v1h-1zM15,10h1v1h-1zM15,11h1v1h-1zM15,12h1v1h-1zM15,13h1v1h-1zM16,8h1v1h-1zM16,9h1v1h-1zM16,10h1v1h-1zM16,11h1v1h-1zM16,12h1v1h-1zM16,13h1v1h-1zM17,8h1v1h-1zM17,9h1v1h-1zM17,10h1v1h-1zM17,11h1v1h-1zM17,12h1v1h-1zM17,13h1v1h-1zM18,8h1v1h-1zM18,9h1v1h-1zM18,10h1v1h-1zM18,11h1v1h-1zM18,12h1v1h-1zM18,13h1v1h-1zM10,14h1v1h-1zM10,15h1v1h-1zM11,14h1v1h-1zM11,15h1v1h-1zM12,14h1v1h-1zM12,15h1v1h-1zM13,14h1v1h-1zM13,15h1v1h-1zM14,14h1v1h-1zM14,15h1v1h-1zM15,14h1v1h-1zM15,15h1v1h-1zM16,14h1v1h-1zM16,15h1v1h-1zM17,14h1v1h-1zM17,15h1v1h-1zM13,10h1v1h-1zM9,6h1v1h-1zM9,7h1v1h-1zM10,16h1v1h-1zM10,17h1v1h-1zM10,18h1v1h-1zM10,19h1v1h-1zM10,20h1v1h-1zM11,16h1v1h-1zM11,17h1v1h-1zM11,18h1v1h-1zM11,19h1v1h-1zM11,20h1v1h-1zM12,16h1v1h-1zM12,17h1v1h-1zM12,18h1v1h-1zM12,19h1v1h-1zM12,20h1v1h-1zM13,16h1v1h-1zM13,17h1v1h-1zM13,18h1v1h-1zM13,19h1v1h-1zM13,20h1v1h-1zM14,16h1v1h-1zM14,17h1v1h-1zM14,18h1v1h-1zM14,19h1v1h-1zM14,20h1v1h-1zM15,16h1v1h-1zM15,17h1v1h-1zM15,18h1v1h-1zM15,19h1v1h-1zM15,20h1v1h-1zM16,16h1v1h-1zM16,17h1v1h-1zM16,18h1v1h-1zM16,19h1v1h-1zM16,20h1v1h-1zM17,16h1v1h-1zM17,17h1v1h-1zM17,18h1v1h-1zM17,19h1v1h-1zM17,20h1v1h-1zM18,16h1v1h-1zM18,17h1v1h-1zM18,18h1v1h-1zM18,19h1v1h-1zM18,20h1v1h-1zM19,16h1v1h-1zM19,17h1v1h-1zM19,18h1v1h-1zM19,19h1v1h-1zM19,20h1v1h-1zM9,17h1v1h-1zM9,18h1v1h-1zM9,19h1v1h-1zM10,17h1v1h-1zM10,18h1v1h-1zM10,19h1v1h-1zM11,17h1v1h-1zM11,18h1v1h-1zM11,19h1v1h-1zM12,17h1v1h-1zM12,18h1v1h-1zM12,19h1v1h-1zM13,17h1v1h-1zM13,18h1v1h-1zM13,19h1v1h-1zM14,17h1v1h-1zM14,18h1v1h-1zM14,19h1v1h-1zM15,17h1v1h-1zM15,18h1v1h-1zM15,19h1v1h-1zM16,17h1v1h-1zM16,18h1v1h-1zM16,19h1v1h-1zM17,17h1v1h-1zM17,18h1v1h-1zM17,19h1v1h-1zM18,17h1v1h-1zM18,18h1v1h-1zM18,19h1v1h-1zM19,17h1v1h-1zM19,18h1v1h-1zM19,19h1v1h-1zM20,17h1v1h-1zM20,18h1v1h-1zM20,19h1v1h-1zM11,21h1v1h-1zM11,22h1v1h-1zM12,21h1v1h-1zM12,22h1v1h-1zM13,21h1v1h-1zM13,22h1v1h-1zM14,21h1v1h-1zM14,22h1v1h-1zM15,21h1v1h-1zM15,22h1v1h-1zM16,21h1v1h-1zM16,22h1v1h-1zM17,21h1v1h-1zM17,22h1v1h-1zM18,21h1v1h-1zM18,22h1v1h-1zM11,23h1v1h-1zM11,24h1v1h-1zM11,25h1v1h-1zM12,23h1v1h-1zM12,24h1v1h-1zM12,25h1v1h-1zM17,23h1v1h-1zM17,24h1v1h-1zM17,25h1v1h-1zM18,23h1v1h-1zM18,24h1v1h-1zM18,25h1v1h-1zM4,4h1v1h-1zM24,6h1v1h-1zM2,16h1v1h-1z"/>
  <path fill="#1a1c2c" d="M13,9h1v1h-1zM13,10h1v1h-1zM13,11h1v1h-1zM14,9h1v1h-1zM14,10h1v1h-1zM14,11h1v1h-1zM15,9h1v1h-1zM15,10h1v1h-1zM15,11h1v1h-1zM13,8h1v1h-1zM14,7h1v1h-1zM16,8h1v1h-1z"/>
  <path fill="#3b5dc9" d="M14,9h1v1h-1zM8,10h1v1h-1zM6,11h1v1h-1zM5,11h1v1h-1zM25,20h1v1h-1zM24,21h1v1h-1z"/>
  <path fill="#ff9eb7" d="M11,12h1v1h-1zM12,12h1v1h-1zM14,13h1v1h-1zM15,13h1v1h-1zM8,7h1v1h-1z"/>
  <path fill="#b13e53" d="M7,6h1v1h-1zM6,7h1v1h-1zM6,8h1v1h-1zM21,17h1v1h-1zM27,22h1v1h-1z"/>
  <path fill="#38b764" d="M8,9h1v1h-1zM6,10h1v1h-1zM6,11h1v1h-1zM24,19h1v1h-1zM23,20h1v1h-1z"/>
  <path fill="#5d275d" d="M8,11h1v1h-1zM5,12h1v1h-1zM26,21h1v1h-1zM25,22h1v1h-1z"/>
  <path fill="#94b0c2" d="M11,26h1v1h-1zM12,26h1v1h-1zM17,26h1v1h-1zM18,26h1v1h-1z"/>
  <path fill="#73eff7" d="M2,15h1v1h-1zM1,16h1v1h-1zM3,16h1v1h-1zM2,17h1v1h-1z"/>
</svg>
