<svg xmlns="http://www.w3.org/2000/svg" width="32" height="32" viewBox="0 0 32 32" shape-rendering="crispEdges">
<path fill="#ff9eb7" d="M27 2h1v1h-1zM29 2h1v1h-1zM26 3h5v1h-5zM27 4h3v1h-3zM28 5h1v1h-1zM5 7h2v1h-2zM5 8h1v1h-1zM1 22h1v1h-1zM3 22h1v1h-1zM0 23h5v1h-5zM1 24h3v1h-3zM2 25h1v1h-1z"/><path fill="#b13e53" d="M2 3h1v1h-1zM4 3h1v1h-1zM1 4h5v1h-5zM2 5h2v1h-2zM5 6h5v1h-5zM17 6h5v1h-5zM3 7h2v1h-2zM7 7h5v1h-5zM15 7h9v1h-9zM2 8h3v1h-3zM6 8h7v1h-7zM14 8h11v1h-11zM2 9h23v1h-23zM3 10h4v1h-4zM8 10h3v1h-3zM13 10h2v1h-2zM16 10h3v1h-3zM20 10h1v1h-1zM4 11h3v1h-3zM8 11h2v1h-2zM11 11h2v1h-2zM14 11h1v1h-1zM16 11h3v1h-3zM20 11h1v1h-1zM22 11h1v1h-1zM5 12h2v1h-2zM8 12h2v1h-2zM11 12h2v1h-2zM14 12h2v1h-2zM17 12h1v1h-1zM19 12h2v1h-2zM6 13h1v1h-1zM8 13h2v1h-2zM11 13h2v1h-2zM14 13h2v1h-2zM17 13h1v1h-1zM19 13h2v1h-2zM10 14h1v1h-1zM13 14h4v1h-4zM18 14h2v1h-2zM8 15h11v1h-11zM9 16h9v1h-9zM10 17h7v1h-7zM11 18h5v1h-5zM12 19h3v1h-3zM13 20h1v1h-1zM21 20h1v1h-1zM22 21h1v1h-1zM22 23h1v1h-1zM21 24h1v1h-1z"/><path fill="#f4f4f4" d="M7 10h1v1h-1zM11 10h2v1h-2zM15 10h1v1h-1zM19 10h1v1h-1zM21 10h3v1h-3zM7 11h1v1h-1zM10 11h1v1h-1zM13 11h1v1h-1zM15 11h1v1h-1zM19 11h1v1h-1zM21 11h1v1h-1zM7 12h1v1h-1zM10 12h1v1h-1zM13 12h1v1h-1zM16 12h1v1h-1zM18 12h1v1h-1zM21 12h3v1h-3zM7 13h1v1h-1zM10 13h1v1h-1zM13 13h1v1h-1zM16 13h1v1h-1zM18 13h1v1h-1zM21 13h1v1h-1zM7 14h3v1h-3zM11 14h2v1h-2zM17 14h1v1h-1zM21 14h3v1h-3z"/><path fill="#ffcd75" d="M30 21h1v1h-1zM22 22h8v1h-8zM31 22h1v1h-1zM30 23h1v1h-1z"/>
</svg>