<svg xmlns="http://www.w3.org/2000/svg" viewBox="0 0 32 32" shape-rendering="crispEdges"><path fill="#1a1c2c" d="M11,3h1v1h-1zM12,3h1v1h-1zM13,3h1v1h-1zM14,3h1v1h-1zM15,3h1v1h-1zM16,3h1v1h-1zM17,3h1v1h-1zM18,3h1v1h-1zM19,3h1v1h-1zM20,3h1v1h-1zM11,4h1v1h-1zM12,4h1v1h-1zM13,4h1v1h-1zM14,4h1v1h-1zM15,4h1v1h-1zM16,4h1v1h-1zM17,4h1v1h-1zM18,4h1v1h-1zM19,4h1v1h-1zM20,4h1v1h-1zM10,5h1v1h-1zM11,5h1v1h-1zM12,5h1v1h-1zM13,5h1v1h-1zM14,5h1v1h-1zM15,5h1v1h-1zM16,5h1v1h-1zM17,5h1v1h-1zM18,5h1v1h-1zM19,5h1v1h-1zM20,5h1v1h-1zM21,5h1v1h-1zM11,6h1v1h-1zM12,6h1v1h-1zM13,6h1v1h-1zM14,6h1v1h-1zM15,6h1v1h-1zM16,6h1v1h-1zM17,6h1v1h-1zM18,6h1v1h-1zM19,6h1v1h-1zM20,6h1v1h-1zM7,19h1v1h-1zM8,19h1v1h-1zM23,19h1v1h-1zM24,19h1v1h-1zM6,20h1v1h-1zM7,20h1v1h-1zM24,20h1v1h-1zM25,20h1v1h-1zM7,21h1v1h-1zM9,21h1v1h-1zM22,21h1v1h-1zM24,21h1v1h-1zM7,22h1v1h-1zM8,22h1v1h-1zM9,22h1v1h-1zM22,22h1v1h-1zM23,22h1v1h-1zM24,22h1v1h-1zM7,23h1v1h-1zM8,23h1v1h-1zM9,23h1v1h-1zM22,23h1v1h-1zM23,23h1v1h-1zM24,23h1v1h-1zM7,24h1v1h-1zM8,24h1v1h-1zM9,24h1v1h-1zM22,24h1v1h-1zM23,24h1v1h-1zM24,24h1v1h-1zM7,25h1v1h-1zM8,25h1v1h-1zM9,25h1v1h-1zM12,25h1v1h-1zM13,25h1v1h-1zM14,25h1v1h-1zM17,25h1v1h-1zM18,25h1v1h-1zM19,25h1v1h-1zM22,25h1v1h-1zM23,25h1v1h-1zM24,25h1v1h-1zM7,26h1v1h-1zM8,26h1v1h-1zM9,26h1v1h-1zM12,26h1v1h-1zM13,26h1v1h-1zM14,26h1v1h-1zM17,26h1v1h-1zM18,26h1v1h-1zM19,26h1v1h-1zM22,26h1v1h-1zM23,26h1v1h-1zM24,26h1v1h-1zM7,27h1v1h-1zM8,27h1v1h-1zM9,27h1v1h-1zM12,27h1v1h-1zM13,27h1v1h-1zM14,27h1v1h-1zM17,27h1v1h-1zM18,27h1v1h-1zM19,27h1v1h-1zM22,27h1v1h-1zM23,27h1v1h-1zM24,27h1v1h-1zM12,28h1v1h-1zM13,28h1v1h-1zM14,28h1v1h-1zM17,28h1v1h-1zM18,28h1v1h-1zM19,28h1v1h-1z"/><path fill="#94b0c2" d="M12,7h1v1h-1zM13,7h1v1h-1zM14,7h1v1h-1zM15,7h1v1h-1zM16,7h1v1h-1zM17,7h1v1h-1zM18,7h1v1h-1zM19,7h1v1h-1zM12,8h1v1h-1zM13,8h1v1h-1zM14,8h1v1h-1zM15,8h1v1h-1zM16,8h1v1h-1zM17,8h1v1h-1zM18,8h1v1h-1zM19,8h1v1h-1zM12,9h1v1h-1zM13,9h1v1h-1zM16,9h1v1h-1zM19,9h1v1h-1zM12,10h1v1h-1zM13,10h1v1h-1zM16,10h1v1h-1zM19,10h1v1h-1zM14,11h1v1h-1zM15,11h1v1h-1zM16,11h1v1h-1zM17,11h1v1h-1zM18,11h1v1h-1zM12,12h1v1h-1zM13,12h1v1h-1zM14,12h1v1h-1zM17,12h1v1h-1zM18,12h1v1h-1zM19,12h1v1h-1zM12,13h1v1h-1zM13,13h1v1h-1zM15,13h1v1h-1zM16,13h1v1h-1zM18,13h1v1h-1zM19,13h1v1h-1zM12,14h1v1h-1zM13,14h1v1h-1zM14,14h1v1h-1zM15,14h1v1h-1zM16,14h1v1h-1zM17,14h1v1h-1zM18,14h1v1h-1zM19,14h1v1h-1zM9,16h1v1h-1zM10,16h1v1h-1zM21,16h1v1h-1zM22,16h1v1h-1zM9,17h1v1h-1zM10,17h1v1h-1zM21,17h1v1h-1zM22,17h1v1h-1zM9,18h1v1h-1zM10,18h1v1h-1zM21,18h1v1h-1zM22,18h1v1h-1zM9,19h1v1h-1zM10,19h1v1h-1zM21,19h1v1h-1zM22,19h1v1h-1zM9,20h1v1h-1zM10,20h1v1h-1zM21,20h1v1h-1zM22,20h1v1h-1z"/><path fill="#5d275d" d="M6,9h1v1h-1zM26,9h1v1h-1zM5,10h1v1h-1zM7,10h1v1h-1zM24,10h1v1h-1zM25,10h1v1h-1zM5,11h1v1h-1zM6,11h1v1h-1zM7,11h1v1h-1zM24,11h1v1h-1zM25,11h1v1h-1zM26,11h1v1h-1zM8,13h1v1h-1zM9,13h1v1h-1zM10,13h1v1h-1zM21,13h1v1h-1zM22,13h1v1h-1zM23,13h1v1h-1zM8,14h1v1h-1zM9,14h1v1h-1zM10,14h1v1h-1zM21,14h1v1h-1zM22,14h1v1h-1zM23,14h1v1h-1zM8,15h1v1h-1zM9,15h1v1h-1zM10,15h1v1h-1zM21,15h1v1h-1zM22,15h1v1h-1zM23,15h1v1h-1zM8,16h1v1h-1zM23,16h1v1h-1zM8,17h1v1h-1zM23,17h1v1h-1zM8,18h1v1h-1zM23,18h1v1h-1zM8,20h1v1h-1zM23,20h1v1h-1zM8,21h1v1h-1zM23,21h1v1h-1z"/><path fill="#f4f4f4" d="M14,9h1v1h-1zM15,9h1v1h-1zM17,9h1v1h-1zM18,9h1v1h-1zM14,13h1v1h-1zM17,13h1v1h-1z"/><path fill="#b13e53" d="M14,10h1v1h-1zM15,10h1v1h-1zM17,10h1v1h-1zM18,10h1v1h-1zM15,12h1v1h-1zM16,12h1v1h-1zM14,16h1v1h-1zM15,16h1v1h-1zM16,16h1v1h-1zM17,16h1v1h-1zM14,17h1v1h-1zM15,17h1v1h-1zM16,17h1v1h-1zM17,17h1v1h-1zM14,18h1v1h-1zM15,18h1v1h-1zM16,18h1v1h-1zM17,18h1v1h-1zM14,19h1v1h-1zM15,19h1v1h-1zM16,19h1v1h-1zM17,19h1v1h-1zM14,20h1v1h-1zM15,20h1v1h-1zM16,20h1v1h-1zM17,20h1v1h-1zM14,21h1v1h-1zM15,21h1v1h-1zM16,21h1v1h-1zM17,21h1v1h-1zM14,22h1v1h-1zM15,22h1v1h-1zM16,22h1v1h-1zM17,22h1v1h-1z"/><path fill="#ff9eb7" d="M12,11h1v1h-1zM13,11h1v1h-1zM19,11h1v1h-1zM20,11h1v1h-1z"/><path fill="#333c57" d="M11,15h1v1h-1zM12,15h1v1h-1zM13,15h1v1h-1zM14,15h1v1h-1zM15,15h1v1h-1zM16,15h1v1h-1zM17,15h1v1h-1zM18,15h1v1h-1zM19,15h1v1h-1zM20,15h1v1h-1zM11,16h1v1h-1zM12,16h1v1h-1zM13,16h1v1h-1zM18,16h1v1h-1zM19,16h1v1h-1zM20,16h1v1h-1zM11,17h1v1h-1zM12,17h1v1h-1zM13,17h1v1h-1zM18,17h1v1h-1zM19,17h1v1h-1zM20,17h1v1h-1zM11,18h1v1h-1zM12,18h1v1h-1zM13,18h1v1h-1zM18,18h1v1h-1zM19,18h1v1h-1zM20,18h1v1h-1zM11,19h1v1h-1zM12,19h1v1h-1zM13,19h1v1h-1zM18,19h1v1h-1zM19,19h1v1h-1zM20,19h1v1h-1zM11,20h1v1h-1zM12,20h1v1h-1zM13,20h1v1h-1zM18,20h1v1h-1zM19,20h1v1h-1zM20,20h1v1h-1zM11,21h1v1h-1zM12,21h1v1h-1zM13,21h1v1h-1zM18,21h1v1h-1zM19,21h1v1h-1zM20,21h1v1h-1zM11,22h1v1h-1zM12,22h1v1h-1zM13,22h1v1h-1zM18,22h1v1h-1zM19,22h1v1h-1zM20,22h1v1h-1zM11,23h1v1h-1zM12,23h1v1h-1zM13,23h1v1h-1zM14,23h1v1h-1zM15,23h1v1h-1zM16,23h1v1h-1zM17,23h1v1h-1zM18,23h1v1h-1zM19,23h1v1h-1zM20,23h1v1h-1zM11,24h1v1h-1zM12,24h1v1h-1zM13,24h1v1h-1zM14,24h1v1h-1zM15,24h1v1h-1zM16,24h1v1h-1zM17,24h1v1h-1zM18,24h1v1h-1zM19,24h1v1h-1zM20,24h1v1h-1zM11,29h1v1h-1zM12,29h1v1h-1zM13,29h1v1h-1zM14,29h1v1h-1zM15,29h1v1h-1zM16,29h1v1h-1zM17,29h1v1h-1zM18,29h1v1h-1zM19,29h1v1h-1zM20,29h1v1h-1zM11,30h1v1h-1zM12,30h1v1h-1zM13,30h1v1h-1zM14,30h1v1h-1zM15,30h1v1h-1zM16,30h1v1h-1zM17,30h1v1h-1zM18,30h1v1h-1zM19,30h1v1h-1zM20,30h1v1h-1z"/></svg>