<svg xmlns="http://www.w3.org/2000/svg" width="32" height="32" viewBox="0 0 32 32" shape-rendering="crispEdges">
<path fill="#38b764" d="M9 6h2v1h-2zM14 6h4v1h-4zM21 6h2v1h-2zM8 7h1v1h-1zM14 7h4v1h-4zM21 7h1v1h-1zM7 8h4v1h-4zM14 8h4v1h-4zM21 8h4v1h-4zM7 9h2v1h-2zM23 9h2v1h-2zM8 10h1v1h-1zM7 11h2v1h-2zM23 11h2v1h-2zM7 12h2v1h-2zM23 12h2v1h-2zM8 13h7v1h-7zM17 13h7v1h-7zM9 14h5v1h-5zM15 14h2v1h-2zM18 14h5v1h-5zM15 15h2v1h-2zM14 16h3v1h-3zM14 17h3v1h-3zM15 18h2v1h-2zM15 19h2v1h-2zM15 20h3v1h-3zM15 21h3v1h-3zM15 22h2v1h-2zM15 23h2v1h-2z"/><path fill="#f4f4f4" d="M11 6h3v1h-3zM18 6h3v1h-3zM11 7h1v1h-1zM18 7h1v1h-1zM11 8h3v1h-3zM18 8h3v1h-3zM9 10h1v1h-1zM11 10h1v1h-1zM13 10h1v1h-1zM15 10h1v1h-1zM17 10h1v1h-1zM19 10h1v1h-1zM21 10h1v1h-1zM23 10h1v1h-1zM10 11h1v1h-1zM12 11h1v1h-1zM14 11h1v1h-1zM16 11h1v1h-1zM18 11h1v1h-1zM20 11h1v1h-1zM22 11h1v1h-1z"/><path fill="#ff9eb7" d="M9 7h2v1h-2zM22 7h2v1h-2zM9 9h14v1h-14zM9 12h14v1h-14z"/><path fill="#1a1c2c" d="M12 7h2v1h-2zM19 7h2v1h-2z"/><path fill="#b13e53" d="M10 10h1v1h-1zM12 10h1v1h-1zM14 10h1v1h-1zM16 10h1v1h-1zM18 10h1v1h-1zM20 10h1v1h-1zM22 10h1v1h-1zM9 11h1v1h-1zM11 11h1v1h-1zM13 11h1v1h-1zM15 11h1v1h-1zM17 11h1v1h-1zM19 11h1v1h-1zM21 11h1v1h-1zM15 13h2v1h-2zM14 14h1v1h-1zM17 14h1v1h-1z"/><path fill="#a7f070" d="M13 18h1v1h-1zM12 19h1v1h-1zM18 22h1v1h-1zM19 23h1v1h-1z"/><path fill="#8b5e34" d="M9 24h14v1h-14zM10 26h12v1h-12zM10 27h12v1h-12zM10 28h12v1h-12zM10 29h12v1h-12zM11 30h10v1h-10zM11 31h10v1h-10z"/><path fill="#ef7d57" d="M9 25h14v1h-14z"/>
</svg>