<svg xmlns="http://www.w3.org/2000/svg" viewBox="0 0 32 32" shape-rendering="crispEdges"><path fill="#ffecd2" d="M0,2h1v1h-1ZM31,2h1v1h-1ZM1,3h1v1h-1ZM30,3h1v1h-1ZM2,4h1v1h-1ZM29,4h1v1h-1ZM3,5h1v1h-1ZM28,5h1v1h-1ZM4,6h1v1h-1ZM27,6h1v1h-1ZM5,7h1v1h-1ZM26,7h1v1h-1ZM6,8h1v1h-1ZM25,8h1v1h-1ZM7,9h1v1h-1ZM24,9h1v1h-1Z"/><path fill="#ffcd75" d="M0,3h1v1h-1ZM2,3h1v1h-1ZM29,3h1v1h-1ZM31,3h1v1h-1ZM1,4h1v1h-1ZM30,4h1v1h-1ZM4,5h1v1h-1ZM27,5h1v1h-1ZM5,6h1v1h-1ZM26,6h1v1h-1ZM6,7h1v1h-1ZM25,7h1v1h-1ZM7,8h1v1h-1ZM24,8h1v1h-1ZM8,11h1v1h-1ZM11,11h1v1h-1ZM14,11h1v1h-1ZM17,11h1v1h-1ZM20,11h1v1h-1ZM23,11h1v1h-1Z"/><path fill="#94b0c2" d="M11,5h10v1h-10ZM12,6h8v1h-8ZM10,7h3v1h-3ZM15,7h7v1h-7ZM15,18h2v1h-2Z"/><path fill="#566c86" d="M9,6h3v1h-3ZM20,6h3v1h-3ZM9,7h1v1h-1ZM22,7h1v1h-1ZM8,8h5v1h-5ZM14,8h10v1h-10ZM8,9h16v1h-16ZM8,10h16v1h-16ZM7,11h1v1h-1ZM9,11h2v1h-2ZM12,11h2v1h-2ZM15,11h2v1h-2ZM18,11h2v1h-2ZM21,11h2v1h-2ZM24,11h1v1h-1ZM7,12h18v1h-18ZM7,13h18v1h-18ZM7,14h3v1h-3ZM13,14h6v1h-6ZM22,14h3v1h-3ZM7,15h3v1h-3ZM13,15h6v1h-6ZM22,15h3v1h-3ZM7,16h3v1h-3ZM13,16h6v1h-6ZM22,16h3v1h-3ZM7,17h2v1h-2ZM10,17h12v1h-12ZM23,17h2v1h-2ZM7,18h8v1h-8ZM17,18h8v1h-8ZM16,21h1v1h-1ZM15,22h2v1h-2ZM15,23h2v1h-2ZM15,24h2v1h-2Z"/><path fill="#f4f4f4" d="M13,7h2v1h-2ZM13,8h1v1h-1ZM11,15h1v1h-1ZM19,15h1v1h-1Z"/><path fill="#333c57" d="M10,14h3v1h-3ZM19,14h3v1h-3ZM10,15h1v1h-1ZM21,15h1v1h-1ZM10,16h1v1h-1ZM21,16h1v1h-1Z"/><path fill="#1a1c2c" d="M12,15h1v1h-1ZM20,15h1v1h-1ZM11,16h2v1h-2ZM19,16h2v1h-2ZM14,25h1v1h-1ZM17,25h1v1h-1ZM15,26h2v1h-2Z"/><path fill="#ff9eb7" d="M9,17h1v1h-1ZM22,17h1v1h-1Z"/><path fill="#8b5e34" d="M7,19h1v1h-1ZM9,19h9v1h-9ZM19,19h6v1h-6ZM7,20h5v1h-5ZM13,20h9v1h-9ZM23,20h2v1h-2ZM7,21h1v1h-1ZM9,21h1v1h-1ZM11,21h1v1h-1ZM13,21h1v1h-1ZM15,21h1v1h-1ZM17,21h1v1h-1ZM19,21h1v1h-1ZM21,21h1v1h-1ZM23,21h1v1h-1Z"/><path fill="#ef7d57" d="M8,19h1v1h-1ZM18,19h1v1h-1ZM12,20h1v1h-1ZM22,20h1v1h-1Z"/></svg>