<svg xmlns="http://www.w3.org/2000/svg" viewBox="0 0 32 32" shape-rendering="crispEdges"><path fill="#f4f4f4" d="M8,3h1v1h-1zM4,5h1v1h-1zM2,12h1v1h-1zM20,14h1v1h-1zM28,25h1v1h-1zM25,28h1v1h-1z"/><path fill="#566c86" d="M27,4h3v1h-3zM27,5h3v1h-3zM27,6h3v1h-3z"/><path fill="#1a1c2c" d="M12,6h3v1h-3zM16,6h3v1h-3zM9,7h1v1h-1zM14,7h3v1h-3zM21,7h1v1h-1zM8,8h1v1h-1zM10,8h3v1h-3zM18,8h3v1h-3zM22,8h1v1h-1zM9,9h1v1h-1zM13,9h5v1h-5zM21,9h1v1h-1zM8,10h1v1h-1zM11,10h2v1h-2zM18,10h2v1h-2zM22,10h1v1h-1zM5,11h1v1h-1zM7,11h1v1h-1zM9,11h2v1h-2zM12,11h7v1h-7zM20,11h2v1h-2zM25,11h1v1h-1zM4,12h1v1h-1zM6,12h1v1h-1zM8,12h2v1h-2zM11,12h1v1h-1zM19,12h1v1h-1zM21,12h1v1h-1zM24,12h1v1h-1zM26,12h1v1h-1zM4,13h1v1h-1zM6,13h1v1h-1zM8,13h1v1h-1zM10,13h1v1h-1zM13,13h5v1h-5zM20,13h1v1h-1zM22,13h1v1h-1zM24,13h1v1h-1zM26,13h1v1h-1zM5,14h1v1h-1zM7,14h1v1h-1zM9,14h2v1h-2zM12,14h1v1h-1zM17,14h2v1h-2zM21,14h1v1h-1zM23,14h1v1h-1zM25,14h1v1h-1zM5,15h1v1h-1zM7,15h1v1h-1zM9,15h1v1h-1zM11,15h2v1h-2zM18,15h2v1h-2zM21,15h1v1h-1zM23,15h1v1h-1zM25,15h1v1h-1zM3,16h1v1h-1zM5,16h1v1h-1zM7,16h1v1h-1zM9,16h1v1h-1zM11,16h1v1h-1zM19,16h1v1h-1zM21,16h1v1h-1zM23,16h1v1h-1zM25,16h1v1h-1zM27,16h1v1h-1zM5,17h1v1h-1zM7,17h1v1h-1zM9,17h1v1h-1zM11,17h2v1h-2zM18,17h2v1h-2zM21,17h1v1h-1zM23,17h1v1h-1zM25,17h1v1h-1zM5,18h1v1h-1zM7,18h1v1h-1zM9,18h2v1h-2zM12,18h2v1h-2zM17,18h2v1h-2zM20,18h2v1h-2zM23,18h1v1h-1zM25,18h1v1h-1zM4,19h1v1h-1zM6,19h1v1h-1zM8,19h1v1h-1zM10,19h1v1h-1zM13,19h5v1h-5zM20,19h1v1h-1zM22,19h1v1h-1zM24,19h1v1h-1zM26,19h1v1h-1zM4,20h1v1h-1zM6,20h1v1h-1zM8,20h2v1h-2zM11,20h1v1h-1zM19,20h1v1h-1zM21,20h2v1h-2zM24,20h1v1h-1zM26,20h1v1h-1zM5,21h1v1h-1zM7,21h1v1h-1zM9,21h2v1h-2zM12,21h7v1h-7zM20,21h2v1h-2zM23,21h1v1h-1zM25,21h1v1h-1zM8,22h1v1h-1zM11,22h2v1h-2zM18,22h2v1h-2zM22,22h1v1h-1zM9,23h1v1h-1zM13,23h5v1h-5zM21,23h1v1h-1zM8,24h1v1h-1zM10,24h3v1h-3zM18,24h3v1h-3zM22,24h1v1h-1zM9,25h1v1h-1zM14,25h3v1h-3zM21,25h1v1h-1zM12,26h3v1h-3zM16,26h3v1h-3z"/><path fill="#333c57" d="M15,6h1v1h-1zM10,7h4v1h-4zM17,7h4v1h-4zM9,8h1v1h-1zM13,8h5v1h-5zM21,8h1v1h-1zM7,9h2v1h-2zM10,9h3v1h-3zM18,9h3v1h-3zM22,9h2v1h-2zM6,10h2v1h-2zM9,10h2v1h-2zM13,10h5v1h-5zM20,10h2v1h-2zM23,10h1v1h-1zM6,11h1v1h-1zM8,11h1v1h-1zM11,11h1v1h-1zM19,11h1v1h-1zM22,11h1v1h-1zM24,11h1v1h-1zM5,12h1v1h-1zM7,12h1v1h-1zM10,12h1v1h-1zM12,12h7v1h-7zM20,12h1v1h-1zM23,12h1v1h-1zM25,12h1v1h-1zM5,13h1v1h-1zM7,13h1v1h-1zM9,13h1v1h-1zM11,13h2v1h-2zM18,13h2v1h-2zM23,13h1v1h-1zM25,13h1v1h-1zM4,14h1v1h-1zM6,14h1v1h-1zM8,14h1v1h-1zM11,14h1v1h-1zM19,14h1v1h-1zM22,14h1v1h-1zM24,14h1v1h-1zM26,14h1v1h-1zM4,15h1v1h-1zM6,15h1v1h-1zM8,15h1v1h-1zM10,15h1v1h-1zM20,15h1v1h-1zM22,15h1v1h-1zM24,15h1v1h-1zM26,15h1v1h-1zM4,16h1v1h-1zM6,16h1v1h-1zM8,16h1v1h-1zM10,16h1v1h-1zM20,16h1v1h-1zM22,16h1v1h-1zM24,16h1v1h-1zM26,16h1v1h-1zM4,17h1v1h-1zM6,17h1v1h-1zM8,17h1v1h-1zM10,17h1v1h-1zM20,17h1v1h-1zM22,17h1v1h-1zM24,17h1v1h-1zM26,17h1v1h-1zM4,18h1v1h-1zM6,18h1v1h-1zM8,18h1v1h-1zM11,18h1v1h-1zM19,18h1v1h-1zM22,18h1v1h-1zM24,18h1v1h-1zM26,18h1v1h-1zM5,19h1v1h-1zM7,19h1v1h-1zM9,19h1v1h-1zM11,19h2v1h-2zM18,19h2v1h-2zM21,19h1v1h-1zM23,19h1v1h-1zM25,19h1v1h-1zM5,20h1v1h-1zM7,20h1v1h-1zM10,20h1v1h-1zM12,20h7v1h-7zM20,20h1v1h-1zM23,20h1v1h-1zM25,20h1v1h-1zM6,21h1v1h-1zM8,21h1v1h-1zM11,21h1v1h-1zM19,21h1v1h-1zM22,21h1v1h-1zM24,21h1v1h-1zM6,22h2v1h-2zM9,22h2v1h-2zM13,22h5v1h-5zM20,22h2v1h-2zM23,22h2v1h-2zM7,23h2v1h-2zM10,23h3v1h-3zM18,23h3v1h-3zM22,23h2v1h-2zM9,24h1v1h-1zM13,24h5v1h-5zM21,24h1v1h-1zM10,25h4v1h-4zM17,25h4v1h-4zM15,26h1v1h-1z"/><path fill="#94b0c2" d="M27,7h1v1h-1zM26,8h1v1h-1zM25,9h1v1h-1zM24,10h1v1h-1zM23,11h1v1h-1zM22,12h1v1h-1zM21,13h1v1h-1z"/><path fill="#ffcd75" d="M13,14h1v1h-1zM15,15h1v1h-1zM17,15h1v1h-1zM14,16h3v1h-3zM15,17h1v1h-1zM14,18h1v1h-1z"/><path fill="#b13e53" d="M14,14h3v1h-3zM13,15h2v1h-2zM16,15h1v1h-1zM12,16h2v1h-2zM17,16h2v1h-2zM13,17h2v1h-2zM16,17h2v1h-2zM15,18h2v1h-2z"/></svg>