<svg xmlns="http://www.w3.org/2000/svg" viewBox="0 0 32 32" shape-rendering="crispEdges"><path fill="#38b764" d="M18,3h4v1h-4Z"/><path fill="#f4f4f4" d="M10,4h6v1h-6ZM8,5h9v1h-9ZM9,6h8v1h-8ZM10,7h6v1h-6ZM11,8h4v1h-4Z"/><path fill="#b13e53" d="M18,4h4v1h-4ZM17,5h6v1h-6ZM18,6h4v1h-4Z"/><path fill="#ef7d57" d="M6,8h5v1h-5ZM15,8h11v1h-11ZM5,9h22v1h-22ZM5,10h22v1h-22ZM5,11h22v1h-22ZM4,12h24v1h-24ZM5,13h22v1h-22ZM4,14h24v1h-24ZM5,15h22v1h-22ZM4,16h8v1h-8ZM14,16h4v1h-4ZM20,16h8v1h-8ZM5,17h22v1h-22ZM4,18h5v1h-5ZM11,18h10v1h-10ZM23,18h5v1h-5ZM5,19h9v1h-9ZM18,19h9v1h-9ZM4,20h9v1h-9ZM14,20h4v1h-4ZM19,20h9v1h-9ZM5,21h22v1h-22ZM5,22h22v1h-22ZM5,23h22v1h-22ZM8,24h7v1h-7ZM16,24h8v1h-8Z"/><path fill="#ffcd75" d="M4,11h1v1h-1ZM27,11h1v1h-1ZM4,13h1v1h-1ZM27,13h1v1h-1ZM4,15h1v1h-1ZM27,15h1v1h-1ZM4,17h1v1h-1ZM27,17h1v1h-1ZM4,19h1v1h-1ZM27,19h1v1h-1ZM4,21h1v1h-1ZM27,21h1v1h-1Z"/><path fill="#1a1c2c" d="M12,16h2v1h-2ZM18,16h2v1h-2ZM14,19h4v1h-4ZM13,20h1v1h-1ZM18,20h1v1h-1Z"/><path fill="#ff9eb7" d="M9,18h2v1h-2ZM21,18h2v1h-2Z"/><path fill="#8b5e34" d="M6,24h2v1h-2ZM15,24h1v1h-1ZM24,24h2v1h-2ZM7,25h1v1h-1ZM15,25h2v1h-2ZM25,25h1v1h-1Z"/></svg>