<svg xmlns="http://www.w3.org/2000/svg" viewBox="0 0 32 32" shape-rendering="crispEdges"><path fill="#38b764" d="M12,4h9v1h-9zM8,5h17v1h-17zM5,6h23v1h-23zM3,7h9v1h-9zM21,7h8v1h-8zM3,8h5v1h-5zM25,8h4v1h-4zM3,9h2v1h-2zM28,9h1v1h-1z"/><path fill="#ffecd2" d="M12,7h9v1h-9zM8,8h4v1h-4zM21,8h4v1h-4zM5,9h3v1h-3zM25,9h3v1h-3zM3,10h2v1h-2zM28,10h1v1h-1z"/><path fill="#b13e53" d="M12,8h9v1h-9zM8,9h17v1h-17zM5,10h23v1h-23zM3,11h26v1h-26zM4,12h10v1h-10zM15,12h4v1h-4zM20,12h9v1h-9zM6,13h21v1h-21zM7,14h3v1h-3zM11,14h12v1h-12zM24,14h2v1h-2zM9,15h15v1h-15zM10,16h13v1h-13zM10,17h2v1h-2zM14,17h5v1h-5zM21,17h2v1h-2zM11,18h2v1h-2zM14,18h5v1h-5zM20,18h2v1h-2zM13,19h7v1h-7zM14,20h5v1h-5zM16,21h1v1h-1zM5,26h22v1h-22zM5,27h22v1h-22z"/><path fill="#1a1c2c" d="M14,12h1v1h-1zM19,12h1v1h-1zM10,14h1v1h-1zM23,14h1v1h-1zM12,17h2v1h-2zM19,17h2v1h-2zM8,18h1v1h-1zM13,18h1v1h-1zM19,18h1v1h-1zM24,18h1v1h-1zM15,21h1v1h-1zM17,21h1v1h-1zM10,22h1v1h-1zM16,22h1v1h-1zM20,22h1v1h-1z"/><path fill="#ff9eb7" d="M11,19h2v1h-2zM20,19h2v1h-2z"/></svg>