<svg xmlns="http://www.w3.org/2000/svg" width="16" height="16" viewBox="0 0 16 16" shape-rendering="crispEdges">
<!-- 水井 -->
<path fill="#1a1c2c" d="M3 0h1v1h-1zM12 0h1v1h-1zM3 1h1v1h-1zM12 1h1v1h-1zM3 2h10v1h-10zM3 3h1v1h-1zM12 3h1v1h-1zM3 4h1v1h-1zM12 4h1v1h-1zM2 5h1v1h-1zM13 5h1v1h-1zM1 6h1v1h-1zM14 6h1v1h-1zM1 7h1v1h-1zM14 7h1v1h-1zM1 8h1v1h-1zM14 8h1v1h-1zM1 9h1v1h-1zM14 9h1v1h-1zM2 10h12v1h-12z"/>
<path fill="#94b0c2" d="M4 3h8v1h-8zM4 4h8v1h-8z"/>
<path fill="#f4f4f4" d="M4 3h3v1h-3z"/>
<path fill="#566c86" d="M10 4h2v1h-2z"/>
<path fill="#a8775e" d="M3 5h10v1h-10zM2 6h12v1h-12zM2 7h12v1h-12z"/>
<path fill="#d4a56a" d="M3 5h3v1h-3zM2 6h2v1h-2z"/>
<path fill="#6b3e2e" d="M12 7h2v1h-2z"/>
<path fill="#41a6f6" d="M2 8h12v1h-12zM2 9h12v1h-12z"/>
<path fill="#73eff7" d="M3 8h3v1h-3z"/>
<path fill="#a8775e" d="M3 0h1v7h-1z"/>
<path fill="#6b3e2e" d="M12 0h1v7h-1z"/>
</svg>