<svg xmlns="http://www.w3.org/2000/svg" viewBox="0 0 32 32" shape-rendering="crispEdges"><path fill="#41a6f6" d="M15,1h1v1h-1ZM16,2h1v1h-1ZM14,3h1v1h-1ZM18,3h1v1h-1ZM15,9h1v1h-1ZM9,10h13v1h-13ZM7,11h17v1h-17ZM6,12h13v1h-13ZM23,12h2v1h-2ZM5,13h13v1h-13ZM24,13h2v1h-2ZM4,14h14v1h-14ZM25,14h2v1h-2ZM4,15h15v1h-15ZM25,15h2v1h-2ZM3,16h11v1h-11ZM15,16h7v1h-7ZM25,16h3v1h-3ZM4,17h5v1h-5ZM20,17h7v1h-7ZM4,18h3v1h-3ZM22,18h5v1h-5ZM5,19h1v1h-1ZM23,19h3v1h-3ZM24,20h1v1h-1ZM23,21h1v1h-1Z"/><path fill="#f4f4f4" d="M19,12h4v1h-4ZM18,13h1v1h-1ZM23,13h1v1h-1ZM18,14h2v1h-2ZM22,14h2v1h-2ZM19,15h4v1h-4ZM14,16h1v1h-1ZM9,17h11v1h-11ZM7,18h15v1h-15ZM6,19h17v1h-17ZM5,20h19v1h-19ZM6,21h8v1h-8ZM17,21h6v1h-6ZM7,22h6v1h-6ZM15,22h7v1h-7ZM9,23h11v1h-11ZM14,24h1v1h-1Z"/><path fill="#1a1c2c" d="M19,13h4v1h-4ZM20,14h2v1h-2Z"/><path fill="#333c57" d="M24,14h1v1h-1ZM23,15h1v1h-1ZM22,16h1v1h-1Z"/><path fill="#ff9eb7" d="M24,15h1v1h-1ZM23,16h2v1h-2Z"/><path fill="#3b5dc9" d="M3,8h2v1h-2ZM2,9h2v1h-2ZM1,10h2v1h-2ZM2,11h2v1h-2ZM3,12h2v1h-2ZM2,18h2v1h-2ZM1,19h3v1h-3ZM2,20h2v1h-2ZM14,21h3v1h-3ZM13,22h2v1h-2Z"/><path fill="#73eff7" d="M17,4h1v1h-1ZM15,5h1v1h-1ZM16,7h1v1h-1ZM16,8h1v1h-1ZM16,9h1v1h-1Z"/></svg>