<svg xmlns="http://www.w3.org/2000/svg" viewBox="0 0 32 32" shape-rendering="crispEdges"><path fill="#41a6f6" d="M0,0h32v1h-32zM0,1h32v1h-32zM0,2h3v1h-3zM5,2h27v1h-27zM0,3h2v1h-2zM6,3h9v1h-9zM17,3h15v1h-15zM0,4h2v1h-2zM6,4h8v1h-8zM18,4h7v1h-7zM28,4h4v1h-4zM0,5h15v1h-15zM17,5h7v1h-7zM29,5h3v1h-3zM0,6h14v1h-14zM18,6h6v1h-6zM29,6h3v1h-3zM0,7h15v1h-15zM17,7h15v1h-15zM0,8h15v1h-15zM17,8h15v1h-15zM0,9h9v1h-9zM10,9h1v1h-1zM12,9h3v1h-3zM17,9h2v1h-2zM20,9h1v1h-1zM22,9h10v1h-10zM0,10h7v1h-7zM25,10h7v1h-7zM0,11h7v1h-7zM25,11h7v1h-7zM0,12h9v1h-9zM10,12h1v1h-1zM12,12h1v1h-1zM20,12h1v1h-1zM22,12h10v1h-10zM0,13h13v1h-13zM19,13h13v1h-13zM0,14h13v1h-13zM19,14h13v1h-13zM0,15h13v1h-13zM19,15h13v1h-13zM0,16h13v1h-13zM19,16h13v1h-13zM0,17h13v1h-13zM19,17h13v1h-13zM0,18h13v1h-13zM19,18h13v1h-13zM0,19h13v1h-13zM19,19h13v1h-13zM0,20h13v1h-13zM19,20h13v1h-13zM0,21h13v1h-13zM19,21h13v1h-13zM0,22h13v1h-13zM19,22h13v1h-13zM0,23h13v1h-13zM19,23h13v1h-13z"/><path fill="#f4f4f4" d="M3,2h2v1h-2zM2,3h4v1h-4zM2,4h4v1h-4zM25,4h3v1h-3zM24,5h5v1h-5zM24,6h5v1h-5z"/><path fill="#94b0c2" d="M15,3h2v1h-2zM14,4h4v1h-4zM15,5h2v1h-2zM14,6h4v1h-4zM15,7h2v1h-2zM15,8h2v1h-2zM9,9h1v1h-1zM11,9h1v1h-1zM15,9h2v1h-2zM19,9h1v1h-1zM21,9h1v1h-1zM7,10h8v1h-8zM17,10h8v1h-8zM7,11h8v1h-8zM17,11h8v1h-8zM9,12h1v1h-1zM11,12h1v1h-1zM15,12h2v1h-2zM19,12h1v1h-1zM21,12h1v1h-1zM15,13h2v1h-2zM14,14h4v1h-4zM15,15h2v1h-2zM14,16h4v1h-4zM15,17h2v1h-2zM15,18h2v1h-2zM15,19h2v1h-2z"/><path fill="#8b5e34" d="M15,10h2v1h-2zM15,11h2v1h-2zM13,12h1v1h-1zM18,12h1v1h-1zM13,13h1v1h-1zM18,13h1v1h-1zM13,14h1v1h-1zM18,14h1v1h-1zM13,15h1v1h-1zM18,15h1v1h-1zM13,16h1v1h-1zM18,16h1v1h-1zM13,17h1v1h-1zM18,17h1v1h-1zM13,18h1v1h-1zM18,18h1v1h-1zM13,19h1v1h-1zM18,19h1v1h-1zM13,20h1v1h-1zM18,20h1v1h-1zM13,21h1v1h-1zM18,21h1v1h-1zM13,22h1v1h-1zM18,22h1v1h-1zM13,23h1v1h-1zM18,23h1v1h-1zM13,24h1v1h-1zM18,24h1v1h-1zM13,25h1v1h-1zM18,25h1v1h-1zM13,26h1v1h-1zM18,26h1v1h-1zM13,27h1v1h-1zM18,27h1v1h-1z"/><path fill="#b13e53" d="M14,12h1v1h-1zM17,12h1v1h-1zM14,13h1v1h-1zM17,13h1v1h-1zM14,15h1v1h-1zM17,15h1v1h-1zM14,17h1v1h-1zM17,17h1v1h-1zM14,18h1v1h-1zM17,18h1v1h-1zM14,19h1v1h-1zM17,19h1v1h-1zM14,20h4v1h-4zM14,21h4v1h-4zM14,22h4v1h-4zM14,23h4v1h-4zM14,24h4v1h-4zM14,25h1v1h-1zM17,25h1v1h-1zM3,26h1v1h-1zM14,26h1v1h-1zM17,26h1v1h-1zM14,27h1v1h-1zM17,27h1v1h-1zM25,27h1v1h-1z"/><path fill="#38b764" d="M0,24h13v1h-13zM19,24h13v1h-13zM0,25h4v1h-4zM5,25h8v1h-8zM19,25h3v1h-3zM23,25h9v1h-9zM0,26h3v1h-3zM4,26h5v1h-5zM10,26h3v1h-3zM19,26h8v1h-8zM28,26h4v1h-4zM0,27h8v1h-8zM9,27h4v1h-4zM19,27h6v1h-6zM26,27h6v1h-6zM0,28h5v1h-5zM6,28h26v1h-26zM0,29h32v1h-32zM0,30h32v1h-32zM0,31h32v1h-32z"/><path fill="#ffcd75" d="M4,25h1v1h-1zM22,25h1v1h-1z"/><path fill="#333c57" d="M15,25h2v1h-2zM15,26h2v1h-2zM15,27h2v1h-2z"/><path fill="#ef7d57" d="M9,26h1v1h-1z"/><path fill="#ff9eb7" d="M27,26h1v1h-1zM8,27h1v1h-1z"/><path fill="#73eff7" d="M5,28h1v1h-1z"/></svg>