<svg xmlns="http://www.w3.org/2000/svg" width="32" height="32" viewBox="0 0 32 32" shape-rendering="crispEdges">
<path fill="#41a6f6" d="M12 6h1v1h-1zM16 6h1v1h-1zM9 7h1v1h-1zM19 7h1v1h-1zM20 7h1v1h-1zM21 7h1v1h-1zM22 7h1v1h-1zM23 7h1v1h-1zM24 7h1v1h-1zM18 8h1v1h-1zM19 8h1v1h-1zM25 8h1v1h-1zM26 8h1v1h-1zM12 9h1v1h-1zM14 9h1v1h-1zM17 9h1v1h-1zM22 9h1v1h-1zM27 9h1v1h-1zM28 9h1v1h-1zM29 9h1v1h-1zM7 10h1v1h-1zM11 10h1v1h-1zM18 10h1v1h-1zM10 12h1v1h-1zM20 12h1v1h-1zM23 12h1v1h-1zM6 13h1v1h-1zM9 14h1v1h-1zM17 14h1v1h-1zM20 14h1v1h-1zM21 14h1v1h-1zM22 14h1v1h-1zM23 14h1v1h-1zM24 14h1v1h-1zM3 15h1v1h-1zM17 15h1v1h-1zM20 15h1v1h-1zM25 15h1v1h-1zM7 16h1v1h-1zM16 16h1v1h-1zM23 16h1v1h-1zM27 16h1v1h-1zM28 16h1v1h-1zM29 16h1v1h-1zM11 17h1v1h-1zM15 17h1v1h-1zM20 17h1v1h-1zM8 18h1v1h-1zM12 18h1v1h-1zM14 18h1v1h-1zM5 19h1v1h-1zM18 19h1v1h-1zM10 20h1v1h-1zM22 20h1v1h-1zM13 21h1v1h-1zM16 21h1v1h-1zM20 21h1v1h-1zM21 21h1v1h-1zM22 21h1v1h-1zM23 21h1v1h-1zM24 21h1v1h-1zM8 22h1v1h-1zM18 22h1v1h-1zM19 22h1v1h-1zM25 22h1v1h-1zM26 22h1v1h-1zM27 23h1v1h-1zM28 23h1v1h-1zM29 23h1v1h-1zM11 24h1v1h-1zM15 24h1v1h-1z"/><path fill="#73eff7" d="M13 6h1v1h-1zM17 6h1v1h-1zM10 7h1v1h-1zM13 9h1v1h-1zM15 9h1v1h-1zM18 9h1v1h-1zM23 9h1v1h-1zM8 10h1v1h-1zM12 10h1v1h-1zM19 10h1v1h-1zM11 12h1v1h-1zM21 12h1v1h-1zM7 13h1v1h-1zM10 14h1v1h-1zM18 14h1v1h-1zM4 15h1v1h-1zM21 15h1v1h-1zM8 16h1v1h-1zM17 16h1v1h-1zM24 16h1v1h-1zM12 17h1v1h-1zM16 17h1v1h-1zM21 17h1v1h-1zM9 18h1v1h-1zM13 18h1v1h-1zM15 18h1v1h-1zM6 19h1v1h-1zM19 19h1v1h-1zM11 20h1v1h-1zM23 20h1v1h-1zM14 21h1v1h-1zM17 21h1v1h-1zM9 22h1v1h-1zM20 22h1v1h-1zM12 24h1v1h-1zM16 24h1v1h-1z"/><path fill="#ff9eb7" d="M25 6h1v1h-1zM22 8h1v1h-1zM28 10h1v1h-1zM10 15h1v1h-1zM11 15h1v1h-1zM18 15h1v1h-1zM19 15h1v1h-1zM26 15h1v1h-1zM23 23h1v1h-1zM19 24h1v1h-1z"/><path fill="#ef7d57" d="M24 11h1v1h-1zM24 12h1v1h-1zM25 12h1v1h-1zM27 20h1v1h-1zM28 20h1v1h-1z"/><path fill="#1a1c2c" d="M12 13h1v1h-1zM13 13h1v1h-1zM16 13h1v1h-1zM17 13h1v1h-1zM14 15h1v1h-1zM15 15h1v1h-1zM14 16h1v1h-1zM15 16h1v1h-1z"/><path fill="#b13e53" d="M20 18h1v1h-1zM21 18h1v1h-1zM20 19h1v1h-1z"/>
</svg>