<svg xmlns="http://www.w3.org/2000/svg" viewBox="0 0 32 32" shape-rendering="crispEdges"><path fill="#1a1c2c" d="M15,1h1v1h-1zM14,2h3v1h-3zM14,3h3v1h-3zM22,3h1v1h-1zM27,3h1v1h-1zM13,4h5v1h-5zM23,4h1v1h-1zM26,4h1v1h-1zM13,5h5v1h-5zM24,5h2v1h-2zM12,6h7v1h-7zM24,6h2v1h-2zM11,9h9v1h-9zM8,11h15v1h-15zM9,12h13v1h-13zM12,14h2v1h-2zM17,14h2v1h-2zM12,15h2v1h-2zM17,15h2v1h-2zM12,24h3v1h-3zM17,24h3v1h-3z"/><path fill="#5d275d" d="M12,7h7v1h-7zM11,8h9v1h-9zM10,18h11v1h-11zM10,19h11v1h-11zM11,22h9v1h-9zM11,23h9v1h-9z"/><path fill="#ef7d57" d="M11,10h9v1h-9zM21,26h3v1h-3zM22,27h1v1h-1z"/><path fill="#b13e53" d="M10,12h3v1h-3zM18,12h3v1h-3zM9,13h4v1h-4zM18,13h4v1h-4zM9,14h2v1h-2zM20,14h2v1h-2zM15,16h1v1h-1z"/><path fill="#ffecd2" d="M11,13h9v1h-9zM11,14h9v1h-9zM11,15h9v1h-9zM11,16h9v1h-9zM12,17h7v1h-7z"/><path fill="#f4f4f4" d="M12,14h1v1h-1zM17,14h1v1h-1z"/><path fill="#ff9eb7" d="M11,16h1v1h-1zM19,16h1v1h-1z"/><path fill="#333c57" d="M10,20h11v1h-11zM10,21h11v1h-11z"/><path fill="#8b5e34" d="M22,14h1v1h-1zM22,15h1v1h-1zM22,16h1v1h-1zM22,17h1v1h-1zM22,18h1v1h-1zM22,19h1v1h-1zM22,20h1v1h-1zM22,21h1v1h-1zM22,22h1v1h-1zM22,23h1v1h-1z"/><path fill="#ffcd75" d="M21,24h3v1h-3zM21,25h3v1h-3z"/></svg>