<svg xmlns="http://www.w3.org/2000/svg" viewBox="0 0 32 32" shape-rendering="crispEdges"><path fill="#5d275d" d="M20,3h1v1h-1ZM19,4h1v1h-1ZM18,5h1v1h-1ZM17,6h1v1h-1ZM16,7h2v1h-2ZM6,8h10v1h-10ZM6,9h10v1h-10ZM7,10h9v1h-9ZM7,11h9v1h-9ZM8,12h8v1h-8ZM8,13h8v1h-8ZM9,14h7v1h-7ZM10,15h6v1h-6ZM10,16h6v1h-6ZM11,17h5v1h-5ZM11,18h5v1h-5ZM12,19h4v1h-4ZM12,20h4v1h-4ZM13,21h3v1h-3ZM13,22h3v1h-3ZM14,23h2v1h-2ZM3,26h26v1h-26Z"/><path fill="#29366f" d="M21,3h1v1h-1ZM20,4h1v1h-1ZM19,5h1v1h-1ZM18,6h1v1h-1ZM16,8h11v1h-11ZM16,9h11v1h-11ZM16,10h10v1h-10ZM16,11h10v1h-10ZM16,12h9v1h-9ZM16,13h9v1h-9ZM16,14h8v1h-8ZM16,15h7v1h-7ZM16,16h7v1h-7ZM16,17h6v1h-6ZM16,18h6v1h-6ZM16,19h5v1h-5ZM16,20h5v1h-5ZM16,21h4v1h-4ZM16,22h4v1h-4ZM16,23h3v1h-3ZM3,27h26v1h-26Z"/><path fill="#1a1c2c" d="M5,28h22v1h-22Z"/><path fill="#ffcd75" d="M20,1h1v1h-1ZM22,1h1v1h-1ZM19,2h1v1h-1ZM21,2h1v1h-1ZM23,2h1v1h-1ZM13,12h1v1h-1ZM12,13h1v1h-1ZM14,13h1v1h-1ZM13,14h1v1h-1ZM18,16h1v1h-1ZM17,17h1v1h-1ZM19,17h1v1h-1ZM18,18h1v1h-1ZM11,19h2v1h-2ZM11,20h1v1h-1ZM11,21h2v1h-2ZM19,22h1v1h-1ZM8,24h16v1h-16Z"/><path fill="#ef7d57" d="M8,25h16v1h-16Z"/><path fill="#f4f4f4" d="M21,0h1v1h-1Z"/></svg>