<svg xmlns="http://www.w3.org/2000/svg" viewBox="0 0 32 32" shape-rendering="crispEdges"><path fill="#b13e53" d="M4,6h2v1h-2ZM4,7h2v1h-2ZM6,8h20v1h-20Z"/><path fill="#3b5dc9" d="M26,6h2v1h-2ZM26,7h2v1h-2ZM10,16h12v1h-12Z"/><path fill="#8b5e34" d="M5,8h1v1h-1ZM26,8h1v1h-1ZM6,9h1v1h-1ZM25,9h1v1h-1ZM7,10h1v1h-1ZM24,10h1v1h-1ZM8,11h1v1h-1ZM23,11h1v1h-1ZM2,22h28v1h-28ZM2,23h28v1h-28ZM4,24h2v1h-2ZM26,24h2v1h-2ZM4,25h2v1h-2ZM26,25h2v1h-2ZM4,26h2v1h-2ZM26,26h2v1h-2ZM4,27h2v1h-2ZM26,27h2v1h-2Z"/><path fill="#8a2a3e" d="M7,9h18v1h-18Z"/><path fill="#ef7d57" d="M8,10h16v1h-16Z"/><path fill="#c06540" d="M7,11h1v1h-1ZM9,11h3v1h-3ZM14,11h4v1h-4ZM20,11h3v1h-3ZM24,11h1v1h-1Z"/><path fill="#1a1c2c" d="M12,11h2v1h-2ZM18,11h2v1h-2ZM15,13h2v1h-2ZM14,14h1v1h-1ZM17,14h1v1h-1Z"/><path fill="#ffcd75" d="M8,12h16v1h-16Z"/><path fill="#d4a850" d="M8,13h2v1h-2ZM11,13h4v1h-4ZM17,13h4v1h-4ZM22,13h2v1h-2Z"/><path fill="#ff9eb7" d="M10,13h1v1h-1ZM21,13h1v1h-1Z"/><path fill="#38b764" d="M9,14h5v1h-5ZM15,14h2v1h-2ZM18,14h5v1h-5Z"/><path fill="#2a8a4d" d="M9,15h14v1h-14Z"/><path fill="#2d4a9e" d="M10,17h12v1h-12Z"/><path fill="#94b0c2" d="M8,18h2v1h-2ZM22,18h2v1h-2ZM8,19h2v1h-2ZM22,19h2v1h-2ZM8,20h3v1h-3ZM22,20h2v1h-2ZM8,21h2v1h-2ZM11,21h1v1h-1ZM21,21h3v1h-3Z"/><path fill="#5d275d" d="M11,18h10v1h-10Z"/><path fill="#4a1e4a" d="M11,19h10v1h-10Z"/></svg>